G04 DesignSpark PCB Gerber Version 10.0 Build 5299*
%FSLAX35Y35*%
%MOIN*%
%ADD126R,0.04331X0.04331*%
%ADD120R,0.04449X0.04449*%
%ADD130R,0.04528X0.04528*%
%ADD122R,0.05020X0.05020*%
%ADD19R,0.06000X0.06000*%
%ADD128R,0.06201X0.06201*%
%ADD132R,0.08209X0.08209*%
%ADD97C,0.02000*%
%ADD14C,0.04000*%
%ADD127C,0.04331*%
%ADD121C,0.04449*%
%ADD131C,0.04528*%
%ADD21C,0.04724*%
%ADD125C,0.04791*%
%ADD123C,0.05020*%
%ADD124C,0.05118*%
%ADD134C,0.05437*%
%ADD20C,0.05512*%
%ADD129C,0.06201*%
%ADD133C,0.08209*%
X0Y0D02*
D02*
D14*
X28100Y80600D03*
X35600Y93100D03*
Y113100D03*
X38100Y40600D03*
X48100Y48100D03*
X58100Y33100D03*
Y60600D03*
Y80600D03*
Y95600D03*
X90600Y33100D03*
X103100Y65600D03*
X108100Y120600D03*
X113100Y78100D03*
D02*
D19*
X28100Y13100D03*
X38100D03*
X48100D03*
X58100D03*
X68100D03*
D02*
D20*
X100915Y143100D03*
X120600D03*
D02*
D21*
X5600Y33100D03*
Y48100D03*
Y60600D03*
Y88100D03*
Y103100D03*
X5639Y75600D03*
X69773Y88100D03*
X70561Y33100D03*
Y48100D03*
Y60600D03*
Y103100D03*
X70600Y75600D03*
D02*
D97*
X5600Y33100D02*
X58100D01*
X5600Y60600D02*
X8100D01*
X15600Y53100D01*
X95600D01*
X100600Y48100D01*
X5600Y88100D02*
Y90600D01*
X8100Y93100D01*
X35600D01*
X5639Y75600D02*
Y60639D01*
X5600Y60600D01*
X18100Y145600D02*
Y138100D01*
X8100Y128100D01*
Y120600D01*
X27943Y145600D02*
X56820D01*
X28100Y80600D02*
X58100D01*
X35600Y113100D02*
X88474D01*
X38100Y40600D02*
X63061D01*
X70561Y33100D01*
X48100Y48100D02*
X5600D01*
X58100Y60600D02*
X70561D01*
X58100Y95600D02*
X89970D01*
X92470Y98100D01*
X68336Y120600D02*
X108100D01*
X70561Y33100D02*
X90600D01*
X70600Y145600D02*
X98415D01*
X100915Y143100D01*
X92470Y78100D02*
X113100D01*
X103100Y28100D02*
Y35600D01*
X105600Y38100D01*
X132943D01*
X140443Y45600D01*
X103100Y28100D02*
X98100Y33100D01*
X90600D01*
X103100Y65600D02*
X121230D01*
X123730Y68100D01*
X108100Y120600D02*
X113100D01*
X120600Y128100D01*
Y143100D01*
X123730Y98100D02*
X92470D01*
X138100Y82194D02*
Y83100D01*
X119006D01*
X116506Y85600D01*
X94970D01*
X92470Y88100D01*
D02*
D120*
Y98100D03*
D02*
D121*
Y68100D03*
Y78100D03*
Y88100D03*
X123730Y68100D03*
Y78100D03*
Y88100D03*
Y98100D03*
D02*
D122*
X70600Y145600D03*
D02*
D123*
X56820D03*
D02*
D124*
X120757Y45600D03*
X140443D03*
D02*
D125*
X90600Y48100D03*
X100600D03*
D02*
D126*
X18100Y145600D03*
D02*
D127*
X27943D03*
D02*
D128*
X8100Y120600D03*
D02*
D129*
X68336D03*
D02*
D130*
X130600Y113100D03*
D02*
D131*
X88474D03*
D02*
D132*
X123100Y28100D03*
D02*
D133*
X103100D03*
X113100D03*
D02*
D134*
X138100Y76289D03*
Y82194D03*
Y88100D03*
X0Y0D02*
M02*
