G04 DesignSpark PCB Gerber Version 10.0 Build 5299*
%FSLAX35Y35*%
%MOIN*%
%ADD76C,0.00394*%
%ADD10C,0.00500*%
%ADD13C,0.00787*%
%ADD12C,0.01000*%
X0Y0D02*
D02*
D10*
X5600Y34037D02*
Y37787D01*
X7787D01*
X8413Y37475D01*
X8725Y36850D01*
X8413Y36225D01*
X7787Y35913D01*
X5600D01*
X7787D02*
X8725Y34037D01*
X10600D02*
X13725Y37787D01*
X10600D02*
X13725Y34037D01*
X5600Y49037D02*
Y52787D01*
X7787D01*
X8413Y52475D01*
X8725Y51850D01*
X8413Y51225D01*
X7787Y50913D01*
X5600D01*
X7787D02*
X8725Y49037D01*
X12163D02*
Y52787D01*
X10600Y50287D01*
X13100D01*
X5600Y61537D02*
Y65287D01*
X7787D01*
X8413Y64975D01*
X8725Y64350D01*
X8413Y63725D01*
X7787Y63413D01*
X5600D01*
X7787D02*
X8725Y61537D01*
X10600Y61850D02*
X11225Y61537D01*
X12163D01*
X12787Y61850D01*
X13100Y62475D01*
Y62787D01*
X12787Y63413D01*
X12163Y63725D01*
X10600D01*
Y65287D01*
X13100D01*
X5600Y89037D02*
Y92787D01*
X7787D01*
X8413Y92475D01*
X8725Y91850D01*
X8413Y91225D01*
X7787Y90913D01*
X5600D01*
X7787D02*
X8725Y89037D01*
X13100D02*
X10600D01*
X12787Y91225D01*
X13100Y91850D01*
X12787Y92475D01*
X12163Y92787D01*
X11225D01*
X10600Y92475D01*
X5600Y104037D02*
Y107787D01*
X7787D01*
X8413Y107475D01*
X8725Y106850D01*
X8413Y106225D01*
X7787Y105913D01*
X5600D01*
X7787D02*
X8725Y104037D01*
X11225D02*
X12475D01*
X11850D02*
Y107787D01*
X11225Y107163D01*
X8100Y121537D02*
Y125287D01*
X9975D01*
X10600Y124975D01*
X10913Y124663D01*
X11225Y124037D01*
Y122787D01*
X10913Y122163D01*
X10600Y121850D01*
X9975Y121537D01*
X8100D01*
X13725D02*
X14975D01*
X14350D02*
Y125287D01*
X13725Y124663D01*
X21225Y147163D02*
X20913Y146850D01*
X20287Y146537D01*
X19350D01*
X18725Y146850D01*
X18413Y147163D01*
X18100Y147787D01*
Y149037D01*
X18413Y149663D01*
X18725Y149975D01*
X19350Y150287D01*
X20287D01*
X20913Y149975D01*
X21225Y149663D01*
X24663Y146537D02*
Y150287D01*
X23100Y147787D01*
X25600D01*
X25913Y18100D02*
X29663Y19663D01*
X25913Y21225D01*
X29663Y24350D02*
X27163D01*
X26225D02*
X29663Y28100D02*
X27163D01*
X28100D02*
X27475Y28413D01*
X27163Y29037D01*
Y29663D01*
X27475Y30287D01*
X28100Y30600D01*
X29663D01*
X38100Y20287D02*
Y21225D01*
X38413D01*
X39037Y20913D01*
X39350Y20600D01*
X39663Y19975D01*
Y19350D01*
X39350Y18725D01*
X39037Y18413D01*
X38413Y18100D01*
X37163D01*
X36537Y18413D01*
X36225Y18725D01*
X35913Y19350D01*
Y19975D01*
X36225Y20600D01*
X36537Y20913D01*
X37163Y21225D01*
X39663Y23100D02*
X35913D01*
X39663Y26225D01*
X35913D01*
X39663Y28100D02*
X35913D01*
Y29975D01*
X36225Y30600D01*
X36537Y30913D01*
X37163Y31225D01*
X38413D01*
X39037Y30913D01*
X39350Y30600D01*
X39663Y29975D01*
Y28100D01*
X45913Y18100D02*
X49663Y19663D01*
X45913Y21225D01*
X48413Y23100D02*
X47163D01*
X46537Y23413D01*
X46225Y23725D01*
X45913Y24350D01*
Y24975D01*
X46225Y25600D01*
X46537Y25913D01*
X47163Y26225D01*
X48413D01*
X49037Y25913D01*
X49350Y25600D01*
X49663Y24975D01*
Y24350D01*
X49350Y23725D01*
X49037Y23413D01*
X48413Y23100D01*
X45913Y28100D02*
X48725D01*
X49350Y28413D01*
X49663Y29037D01*
Y30287D01*
X49350Y30913D01*
X48725Y31225D01*
X45913D01*
X49663Y34663D02*
X45913D01*
Y33100D02*
Y36225D01*
X59663Y20600D02*
X55913D01*
Y22787D01*
X56225Y23413D01*
X56850Y23725D01*
X57475Y23413D01*
X57787Y22787D01*
Y20600D01*
Y22787D02*
X59663Y23725D01*
Y25600D02*
X57163Y28100D01*
X59663D02*
X57163Y25600D01*
X68100Y20287D02*
Y21225D01*
X68413D01*
X69037Y20913D01*
X69350Y20600D01*
X69663Y19975D01*
Y19350D01*
X69350Y18725D01*
X69037Y18413D01*
X68413Y18100D01*
X67163D01*
X66537Y18413D01*
X66225Y18725D01*
X65913Y19350D01*
Y19975D01*
X66225Y20600D01*
X66537Y20913D01*
X67163Y21225D01*
X69663Y23100D02*
X65913D01*
X69663Y26225D01*
X65913D01*
X69663Y28100D02*
X65913D01*
Y29975D01*
X66225Y30600D01*
X66537Y30913D01*
X67163Y31225D01*
X68413D01*
X69037Y30913D01*
X69350Y30600D01*
X69663Y29975D01*
Y28100D01*
X70600Y74663D02*
Y70913D01*
X68413D01*
X67787Y71225D01*
X67475Y71850D01*
X67787Y72475D01*
X68413Y72787D01*
X70600D01*
X68413D02*
X67475Y74663D01*
X65287Y74350D02*
X64663Y74663D01*
X64037D01*
X63413Y74350D01*
X63100Y73725D01*
X63413Y73100D01*
X64037Y72787D01*
X64663D01*
X64037D02*
X63413Y72475D01*
X63100Y71850D01*
X63413Y71225D01*
X64037Y70913D01*
X64663D01*
X65287Y71225D01*
X67475Y144037D02*
X67787Y144350D01*
X68413Y144663D01*
X69350D01*
X69975Y144350D01*
X70287Y144037D01*
X70600Y143413D01*
Y142163D01*
X70287Y141537D01*
X69975Y141225D01*
X69350Y140913D01*
X68413D01*
X67787Y141225D01*
X67475Y141537D01*
X64975Y144663D02*
X63725D01*
X64350D02*
Y140913D01*
X64975Y141537D01*
X92475Y46537D02*
X92787Y46850D01*
X93413Y47163D01*
X94350D01*
X94975Y46850D01*
X95287Y46537D01*
X95600Y45913D01*
Y44663D01*
X95287Y44037D01*
X94975Y43725D01*
X94350Y43413D01*
X93413D01*
X92787Y43725D01*
X92475Y44037D01*
X90287Y46850D02*
X89663Y47163D01*
X89037D01*
X88413Y46850D01*
X88100Y46225D01*
X88413Y45600D01*
X89037Y45287D01*
X89663D01*
X89037D02*
X88413Y44975D01*
X88100Y44350D01*
X88413Y43725D01*
X89037Y43413D01*
X89663D01*
X90287Y43725D01*
X109037Y84037D02*
X110287D01*
X109663D02*
Y87787D01*
X109037D02*
X110287D01*
X116225Y84663D02*
X115913Y84350D01*
X115287Y84037D01*
X114350D01*
X113725Y84350D01*
X113413Y84663D01*
X113100Y85287D01*
Y86537D01*
X113413Y87163D01*
X113725Y87475D01*
X114350Y87787D01*
X115287D01*
X115913Y87475D01*
X116225Y87163D01*
X118725Y84037D02*
X119975D01*
X119350D02*
Y87787D01*
X118725Y87163D01*
X110757Y138413D02*
Y142163D01*
X107632D01*
X105132D02*
X103882D01*
X104507D02*
Y138413D01*
X105132Y139037D01*
X123100Y25913D02*
Y24663D01*
X122787Y24037D01*
X122475Y23725D01*
X121850Y23413D01*
X121225D01*
X120600Y23725D01*
X120287Y24037D01*
X119975Y24663D01*
Y25913D01*
X120287Y26537D01*
X120600Y26850D01*
X121225Y27163D01*
X121850D01*
X122475Y26850D01*
X122787Y26537D01*
X123100Y25913D01*
X120913Y26225D02*
X119975Y27163D01*
X117475D02*
X116225D01*
X116850D02*
Y23413D01*
X117475Y24037D01*
X133725Y47163D02*
X133413Y46850D01*
X132787Y46537D01*
X131850D01*
X131225Y46850D01*
X130913Y47163D01*
X130600Y47787D01*
Y49037D01*
X130913Y49663D01*
X131225Y49975D01*
X131850Y50287D01*
X132787D01*
X133413Y49975D01*
X133725Y49663D01*
X138100Y46537D02*
X135600D01*
X137787Y48725D01*
X138100Y49350D01*
X137787Y49975D01*
X137163Y50287D01*
X136225D01*
X135600Y49975D01*
X130600Y112163D02*
Y108413D01*
X128725D01*
X128100Y108725D01*
X127787Y109037D01*
X127475Y109663D01*
Y110913D01*
X127787Y111537D01*
X128100Y111850D01*
X128725Y112163D01*
X130600D01*
X123100D02*
X125600D01*
X123413Y109975D01*
X123100Y109350D01*
X123413Y108725D01*
X124037Y108413D01*
X124975D01*
X125600Y108725D01*
X142409Y82194D02*
X143659D01*
X144285Y81882D01*
X144597Y81569D01*
X144909Y80944D01*
Y80319D01*
X144597Y79694D01*
X144285Y79382D01*
X143659Y79069D01*
X142409D01*
X141785Y79382D01*
X141472Y79694D01*
X141159Y80319D01*
Y80944D01*
X141472Y81569D01*
X141785Y81882D01*
X142409Y82194D01*
X142097Y80007D02*
X141159Y79069D01*
Y74694D02*
Y77194D01*
X143347Y75007D01*
X143972Y74694D01*
X144597Y75007D01*
X144909Y75632D01*
Y76569D01*
X144597Y77194D01*
D02*
D12*
X23100Y8100D02*
X73100D01*
Y18100D01*
X23100D01*
Y8100D01*
D02*
D13*
X9340Y33100D02*
X25285D01*
X9340Y48100D02*
X25285D01*
X9340Y60600D02*
X25285D01*
X9340Y88100D02*
X23710D01*
X9340Y103100D02*
X25285D01*
X23710Y92628D02*
X51663D01*
Y83572D01*
X23710D01*
Y92628D01*
X25285Y38021D02*
X50876D01*
Y28179D01*
X25285D01*
Y38021D01*
Y53021D02*
X50876D01*
Y43179D01*
X25285D01*
Y53021D01*
Y65521D02*
X50876D01*
Y55679D01*
X25285D01*
Y65521D01*
Y108021D02*
X50876D01*
Y98179D01*
X25285D01*
Y108021D01*
X25324Y75600D02*
X9380D01*
X28572Y125718D02*
X47864D01*
Y115482D01*
X28572D01*
Y125718D01*
X33691D02*
X28572Y120600D01*
X12580D01*
X35915Y145600D02*
G75*
G02*
X10128I-12894J0D01*
G01*
X35915D02*
G75*
G02*
X10128I-12894J0D01*
G01*
G75*
G02*
X35915I12894J0D01*
G01*
X47864Y120600D02*
X63856D01*
X47962Y145600D02*
G75*
G02*
X79458I15748J0D01*
G01*
X47962D02*
G75*
G02*
X79458I15748J0D01*
G01*
G75*
G02*
X47962I-15748J0D01*
G01*
X50876Y33100D02*
X66820D01*
X50876Y48100D02*
X66820D01*
X50876Y60600D02*
X66820D01*
X50876Y103100D02*
X66820D01*
X50915Y70679D02*
X25324D01*
Y80521D01*
X50915D01*
Y70679D01*
X51663Y88100D02*
X66033D01*
X66860Y75600D02*
X50915D01*
X90246Y103100D02*
X121092D01*
X92391Y33710D02*
Y15403D01*
X133809D01*
Y28100D01*
X95108Y63100D02*
X121092D01*
X102049Y113100D02*
X92116D01*
X103100Y44163D02*
Y43100D01*
X88100D01*
Y44163D01*
X103100Y52037D02*
Y53100D01*
X88100D01*
Y52037D01*
X110757Y122431D02*
Y163769D02*
G75*
G03*
Y122431I0J-20669D01*
G01*
Y163769D02*
G75*
G02*
Y122431I0J-20669D01*
G01*
X113639Y109714D02*
X117025Y113100D01*
X126958D01*
X117025Y109714D02*
X102049D01*
Y116486D01*
X117025D01*
Y109714D01*
X138100Y94006D02*
G75*
G03*
Y94399I0J197D01*
G01*
Y94006D02*
G75*
G02*
Y94399I0J197D01*
G01*
Y94006D02*
Y94399D02*
G75*
G02*
Y94006I0J-197D01*
G01*
D02*
D76*
X119773Y41663D02*
Y38710D01*
X141427D01*
Y41663D01*
X119773Y49537D02*
Y52490D01*
X141427D01*
Y49537D01*
X132844Y72694D02*
Y91694D01*
Y72694D02*
Y91694D01*
X0Y0D02*
M02*
