G05
M48
INCH,TZ
FMAT,2
T1C000.02400
T2C000.02756
T3C000.02795
T4C000.02874
T5C000.02953
T6C000.03150
T7C000.03346
T8C000.03500
T9C000.03543
T10C000.04134
T11C000.05472
%
T001
X0.28100Y0.80600
X0.35600Y0.93100
X0.35600Y1.13100
X0.38100Y0.40600
X0.48100Y0.48100
X0.58100Y0.33100
X0.58100Y0.60600
X0.58100Y0.80600
X0.58100Y0.95600
X0.90600Y0.33100
X1.03100Y0.65600
X1.08100Y1.20600
X1.13100Y0.78100
T002
X0.18100Y1.45600
X0.27943Y1.45600
T003
X0.90600Y0.48100
X1.00600Y0.48100
T004
X0.92470Y0.68100
X0.92470Y0.78100
X0.92470Y0.88100
X0.92470Y0.98100
X1.23730Y0.68100
X1.23730Y0.78100
X1.23730Y0.88100
X1.23730Y0.98100
T005
X0.88474Y1.13100
X1.30600Y1.13100
T006
X0.05600Y0.33100
X0.05600Y0.48100
X0.05600Y0.60600
X0.05600Y0.88100
X0.05600Y1.03100
X0.05639Y0.75600
X0.69773Y0.88100
X0.70561Y0.33100
X0.70561Y0.48100
X0.70561Y0.60600
X0.70561Y1.03100
X0.70600Y0.75600
X1.20757Y0.45600
X1.40443Y0.45600
T007
X0.56820Y1.45600
X0.70600Y1.45600
X1.38100Y0.76289
X1.38100Y0.82194
X1.38100Y0.88100
T008
X0.28100Y0.13100
X0.38100Y0.13100
X0.48100Y0.13100
X0.58100Y0.13100
X0.68100Y0.13100
T009
X1.00915Y1.43100
X1.20600Y1.43100
T010
X0.08100Y1.20600
X0.68336Y1.20600
T011
X1.03100Y0.28100
X1.13100Y0.28100
X1.23100Y0.28100
M30
