G04 #@! TF.GenerationSoftware,KiCad,Pcbnew,(6.0.5)*
G04 #@! TF.CreationDate,2022-09-02T23:17:56+01:00*
G04 #@! TF.ProjectId,screen-driver,73637265-656e-42d6-9472-697665722e6b,rev?*
G04 #@! TF.SameCoordinates,Original*
G04 #@! TF.FileFunction,Legend,Bot*
G04 #@! TF.FilePolarity,Positive*
%FSLAX46Y46*%
G04 Gerber Fmt 4.6, Leading zero omitted, Abs format (unit mm)*
G04 Created by KiCad (PCBNEW (6.0.5)) date 2022-09-02 23:17:56*
%MOMM*%
%LPD*%
G01*
G04 APERTURE LIST*
G04 Aperture macros list*
%AMRoundRect*
0 Rectangle with rounded corners*
0 $1 Rounding radius*
0 $2 $3 $4 $5 $6 $7 $8 $9 X,Y pos of 4 corners*
0 Add a 4 corners polygon primitive as box body*
4,1,4,$2,$3,$4,$5,$6,$7,$8,$9,$2,$3,0*
0 Add four circle primitives for the rounded corners*
1,1,$1+$1,$2,$3*
1,1,$1+$1,$4,$5*
1,1,$1+$1,$6,$7*
1,1,$1+$1,$8,$9*
0 Add four rect primitives between the rounded corners*
20,1,$1+$1,$2,$3,$4,$5,0*
20,1,$1+$1,$4,$5,$6,$7,0*
20,1,$1+$1,$6,$7,$8,$9,0*
20,1,$1+$1,$8,$9,$2,$3,0*%
G04 Aperture macros list end*
%ADD10C,0.150000*%
%ADD11C,0.127000*%
%ADD12C,0.200000*%
%ADD13C,0.120000*%
%ADD14C,0.010000*%
%ADD15C,4.300000*%
%ADD16R,1.600000X1.600000*%
%ADD17O,1.600000X1.600000*%
%ADD18C,1.600000*%
%ADD19R,1.500000X1.050000*%
%ADD20O,1.500000X1.050000*%
%ADD21R,1.050000X1.500000*%
%ADD22O,1.050000X1.500000*%
%ADD23R,1.350000X1.350000*%
%ADD24O,1.350000X1.350000*%
%ADD25C,1.440000*%
%ADD26C,1.700000*%
%ADD27O,1.100000X1.800000*%
%ADD28O,1.050000X1.450000*%
%ADD29RoundRect,0.450000X-0.300000X-0.300000X0.300000X-0.300000X0.300000X0.300000X-0.300000X0.300000X0*%
%ADD30R,1.700000X1.700000*%
%ADD31O,1.700000X1.700000*%
%ADD32R,3.500000X3.500000*%
%ADD33RoundRect,0.750000X1.000000X-0.750000X1.000000X0.750000X-1.000000X0.750000X-1.000000X-0.750000X0*%
%ADD34RoundRect,0.875000X0.875000X-0.875000X0.875000X0.875000X-0.875000X0.875000X-0.875000X-0.875000X0*%
%ADD35R,1.500000X2.500000*%
%ADD36O,1.500000X2.500000*%
G04 APERTURE END LIST*
D10*
G04 #@! TO.C,U1*
X123746904Y-155197380D02*
X123746904Y-156006904D01*
X123699285Y-156102142D01*
X123651666Y-156149761D01*
X123556428Y-156197380D01*
X123365952Y-156197380D01*
X123270714Y-156149761D01*
X123223095Y-156102142D01*
X123175476Y-156006904D01*
X123175476Y-155197380D01*
X122175476Y-156197380D02*
X122746904Y-156197380D01*
X122461190Y-156197380D02*
X122461190Y-155197380D01*
X122556428Y-155340238D01*
X122651666Y-155435476D01*
X122746904Y-155483095D01*
G04 #@! TO.C,J10*
X139047380Y-92690476D02*
X139761666Y-92690476D01*
X139904523Y-92642857D01*
X139999761Y-92547619D01*
X140047380Y-92404761D01*
X140047380Y-92309523D01*
X140047380Y-93690476D02*
X140047380Y-93119047D01*
X140047380Y-93404761D02*
X139047380Y-93404761D01*
X139190238Y-93309523D01*
X139285476Y-93214285D01*
X139333095Y-93119047D01*
X139047380Y-94309523D02*
X139047380Y-94404761D01*
X139095000Y-94500000D01*
X139142619Y-94547619D01*
X139237857Y-94595238D01*
X139428333Y-94642857D01*
X139666428Y-94642857D01*
X139856904Y-94595238D01*
X139952142Y-94547619D01*
X139999761Y-94500000D01*
X140047380Y-94404761D01*
X140047380Y-94309523D01*
X139999761Y-94214285D01*
X139952142Y-94166666D01*
X139856904Y-94119047D01*
X139666428Y-94071428D01*
X139428333Y-94071428D01*
X139237857Y-94119047D01*
X139142619Y-94166666D01*
X139095000Y-94214285D01*
X139047380Y-94309523D01*
G04 #@! TO.C,J1*
X145202380Y-148116666D02*
X145916666Y-148116666D01*
X146059523Y-148069047D01*
X146154761Y-147973809D01*
X146202380Y-147830952D01*
X146202380Y-147735714D01*
X146202380Y-149116666D02*
X146202380Y-148545238D01*
X146202380Y-148830952D02*
X145202380Y-148830952D01*
X145345238Y-148735714D01*
X145440476Y-148640476D01*
X145488095Y-148545238D01*
G04 #@! TO.C,U4*
X173229404Y-132679880D02*
X173229404Y-133489404D01*
X173181785Y-133584642D01*
X173134166Y-133632261D01*
X173038928Y-133679880D01*
X172848452Y-133679880D01*
X172753214Y-133632261D01*
X172705595Y-133584642D01*
X172657976Y-133489404D01*
X172657976Y-132679880D01*
X171753214Y-133013214D02*
X171753214Y-133679880D01*
X171991309Y-132632261D02*
X172229404Y-133346547D01*
X171610357Y-133346547D01*
D11*
G04 #@! TO.C,U1*
X127310000Y-153910000D02*
X135310000Y-153910000D01*
X141810000Y-152610000D02*
X141810000Y-152360000D01*
X141810000Y-101610000D02*
X141810000Y-101860000D01*
X120810000Y-101610000D02*
X120810000Y-101860000D01*
X127310000Y-152610000D02*
X127310000Y-153910000D01*
X135310000Y-153910000D02*
X135310000Y-152610000D01*
X120810000Y-152360000D02*
X120810000Y-152610000D01*
X141810000Y-101610000D02*
X134970000Y-101610000D01*
X135310000Y-152610000D02*
X141810000Y-152610000D01*
X120810000Y-152610000D02*
X127310000Y-152610000D01*
X127650000Y-101610000D02*
X120810000Y-101610000D01*
D12*
X119220000Y-151240000D02*
G75*
G03*
X119220000Y-151240000I-100000J0D01*
G01*
D13*
G04 #@! TO.C,J10*
X141925000Y-92170000D02*
X140595000Y-92170000D01*
X143195000Y-92170000D02*
X143195000Y-94830000D01*
X143195000Y-94830000D02*
X153415000Y-94830000D01*
X153415000Y-92170000D02*
X153415000Y-94830000D01*
X143195000Y-92170000D02*
X153415000Y-92170000D01*
X140595000Y-92170000D02*
X140595000Y-93500000D01*
G04 #@! TO.C,J1*
X156100000Y-139100000D02*
X153500000Y-139100000D01*
X155250000Y-138900000D02*
X156300000Y-138900000D01*
X149600000Y-139100000D02*
X146900000Y-139100000D01*
X146900000Y-139100000D02*
X146900000Y-141000000D01*
X156100000Y-153800000D02*
X156100000Y-139100000D01*
X156300000Y-139950000D02*
X156300000Y-138900000D01*
X146900000Y-145000000D02*
X146900000Y-153800000D01*
X146900000Y-153800000D02*
X156100000Y-153800000D01*
G04 #@! TO.C,U4*
X170547500Y-132247500D02*
X182487500Y-132247500D01*
X170217500Y-124067500D02*
X172547500Y-124067500D01*
X182487500Y-124397500D02*
X170547500Y-124397500D01*
X170217500Y-126517500D02*
X170217500Y-124067500D01*
X182487500Y-132247500D02*
X182487500Y-124397500D01*
X170547500Y-124397500D02*
X170547500Y-132247500D01*
G04 #@! TD*
%LPC*%
G04 #@! TO.C,U1*
G36*
X122467000Y-147801000D02*
G01*
X122514000Y-147805000D01*
X122561000Y-147811000D01*
X122607000Y-147820000D01*
X122653000Y-147831000D01*
X122698000Y-147844000D01*
X122743000Y-147860000D01*
X122786000Y-147878000D01*
X122829000Y-147898000D01*
X122870000Y-147921000D01*
X122910000Y-147945000D01*
X122949000Y-147972000D01*
X122986000Y-148001000D01*
X123022000Y-148031000D01*
X123056000Y-148064000D01*
X123089000Y-148098000D01*
X123119000Y-148134000D01*
X123148000Y-148171000D01*
X123175000Y-148210000D01*
X123199000Y-148250000D01*
X123222000Y-148291000D01*
X123242000Y-148334000D01*
X123260000Y-148377000D01*
X123276000Y-148422000D01*
X123289000Y-148467000D01*
X123300000Y-148513000D01*
X123309000Y-148559000D01*
X123315000Y-148606000D01*
X123319000Y-148653000D01*
X123320000Y-148700000D01*
X123319000Y-148747000D01*
X123315000Y-148794000D01*
X123309000Y-148841000D01*
X123300000Y-148887000D01*
X123289000Y-148933000D01*
X123276000Y-148978000D01*
X123260000Y-149023000D01*
X123242000Y-149066000D01*
X123222000Y-149109000D01*
X123199000Y-149150000D01*
X123175000Y-149190000D01*
X123148000Y-149229000D01*
X123119000Y-149266000D01*
X123089000Y-149302000D01*
X123056000Y-149336000D01*
X123022000Y-149369000D01*
X122986000Y-149399000D01*
X122949000Y-149428000D01*
X122910000Y-149455000D01*
X122870000Y-149479000D01*
X122829000Y-149502000D01*
X122786000Y-149522000D01*
X122743000Y-149540000D01*
X122698000Y-149556000D01*
X122653000Y-149569000D01*
X122607000Y-149580000D01*
X122561000Y-149589000D01*
X122514000Y-149595000D01*
X122467000Y-149599000D01*
X122420000Y-149600000D01*
X119920000Y-149600000D01*
X119920000Y-147800000D01*
X122420000Y-147800000D01*
X122467000Y-147801000D01*
G37*
D14*
X122467000Y-147801000D02*
X122514000Y-147805000D01*
X122561000Y-147811000D01*
X122607000Y-147820000D01*
X122653000Y-147831000D01*
X122698000Y-147844000D01*
X122743000Y-147860000D01*
X122786000Y-147878000D01*
X122829000Y-147898000D01*
X122870000Y-147921000D01*
X122910000Y-147945000D01*
X122949000Y-147972000D01*
X122986000Y-148001000D01*
X123022000Y-148031000D01*
X123056000Y-148064000D01*
X123089000Y-148098000D01*
X123119000Y-148134000D01*
X123148000Y-148171000D01*
X123175000Y-148210000D01*
X123199000Y-148250000D01*
X123222000Y-148291000D01*
X123242000Y-148334000D01*
X123260000Y-148377000D01*
X123276000Y-148422000D01*
X123289000Y-148467000D01*
X123300000Y-148513000D01*
X123309000Y-148559000D01*
X123315000Y-148606000D01*
X123319000Y-148653000D01*
X123320000Y-148700000D01*
X123319000Y-148747000D01*
X123315000Y-148794000D01*
X123309000Y-148841000D01*
X123300000Y-148887000D01*
X123289000Y-148933000D01*
X123276000Y-148978000D01*
X123260000Y-149023000D01*
X123242000Y-149066000D01*
X123222000Y-149109000D01*
X123199000Y-149150000D01*
X123175000Y-149190000D01*
X123148000Y-149229000D01*
X123119000Y-149266000D01*
X123089000Y-149302000D01*
X123056000Y-149336000D01*
X123022000Y-149369000D01*
X122986000Y-149399000D01*
X122949000Y-149428000D01*
X122910000Y-149455000D01*
X122870000Y-149479000D01*
X122829000Y-149502000D01*
X122786000Y-149522000D01*
X122743000Y-149540000D01*
X122698000Y-149556000D01*
X122653000Y-149569000D01*
X122607000Y-149580000D01*
X122561000Y-149589000D01*
X122514000Y-149595000D01*
X122467000Y-149599000D01*
X122420000Y-149600000D01*
X119920000Y-149600000D01*
X119920000Y-147800000D01*
X122420000Y-147800000D01*
X122467000Y-147801000D01*
G36*
X142700000Y-149600000D02*
G01*
X140200000Y-149600000D01*
X140153000Y-149599000D01*
X140106000Y-149595000D01*
X140059000Y-149589000D01*
X140013000Y-149580000D01*
X139967000Y-149569000D01*
X139922000Y-149556000D01*
X139877000Y-149540000D01*
X139834000Y-149522000D01*
X139791000Y-149502000D01*
X139750000Y-149479000D01*
X139710000Y-149455000D01*
X139671000Y-149428000D01*
X139634000Y-149399000D01*
X139598000Y-149369000D01*
X139564000Y-149336000D01*
X139531000Y-149302000D01*
X139501000Y-149266000D01*
X139472000Y-149229000D01*
X139445000Y-149190000D01*
X139421000Y-149150000D01*
X139398000Y-149109000D01*
X139378000Y-149066000D01*
X139360000Y-149023000D01*
X139344000Y-148978000D01*
X139331000Y-148933000D01*
X139320000Y-148887000D01*
X139311000Y-148841000D01*
X139305000Y-148794000D01*
X139301000Y-148747000D01*
X139300000Y-148700000D01*
X139301000Y-148653000D01*
X139305000Y-148606000D01*
X139311000Y-148559000D01*
X139320000Y-148513000D01*
X139331000Y-148467000D01*
X139344000Y-148422000D01*
X139360000Y-148377000D01*
X139378000Y-148334000D01*
X139398000Y-148291000D01*
X139421000Y-148250000D01*
X139445000Y-148210000D01*
X139472000Y-148171000D01*
X139501000Y-148134000D01*
X139531000Y-148098000D01*
X139564000Y-148064000D01*
X139598000Y-148031000D01*
X139634000Y-148001000D01*
X139671000Y-147972000D01*
X139710000Y-147945000D01*
X139750000Y-147921000D01*
X139791000Y-147898000D01*
X139834000Y-147878000D01*
X139877000Y-147860000D01*
X139922000Y-147844000D01*
X139967000Y-147831000D01*
X140013000Y-147820000D01*
X140059000Y-147811000D01*
X140106000Y-147805000D01*
X140153000Y-147801000D01*
X140200000Y-147800000D01*
X142700000Y-147800000D01*
X142700000Y-149600000D01*
G37*
X142700000Y-149600000D02*
X140200000Y-149600000D01*
X140153000Y-149599000D01*
X140106000Y-149595000D01*
X140059000Y-149589000D01*
X140013000Y-149580000D01*
X139967000Y-149569000D01*
X139922000Y-149556000D01*
X139877000Y-149540000D01*
X139834000Y-149522000D01*
X139791000Y-149502000D01*
X139750000Y-149479000D01*
X139710000Y-149455000D01*
X139671000Y-149428000D01*
X139634000Y-149399000D01*
X139598000Y-149369000D01*
X139564000Y-149336000D01*
X139531000Y-149302000D01*
X139501000Y-149266000D01*
X139472000Y-149229000D01*
X139445000Y-149190000D01*
X139421000Y-149150000D01*
X139398000Y-149109000D01*
X139378000Y-149066000D01*
X139360000Y-149023000D01*
X139344000Y-148978000D01*
X139331000Y-148933000D01*
X139320000Y-148887000D01*
X139311000Y-148841000D01*
X139305000Y-148794000D01*
X139301000Y-148747000D01*
X139300000Y-148700000D01*
X139301000Y-148653000D01*
X139305000Y-148606000D01*
X139311000Y-148559000D01*
X139320000Y-148513000D01*
X139331000Y-148467000D01*
X139344000Y-148422000D01*
X139360000Y-148377000D01*
X139378000Y-148334000D01*
X139398000Y-148291000D01*
X139421000Y-148250000D01*
X139445000Y-148210000D01*
X139472000Y-148171000D01*
X139501000Y-148134000D01*
X139531000Y-148098000D01*
X139564000Y-148064000D01*
X139598000Y-148031000D01*
X139634000Y-148001000D01*
X139671000Y-147972000D01*
X139710000Y-147945000D01*
X139750000Y-147921000D01*
X139791000Y-147898000D01*
X139834000Y-147878000D01*
X139877000Y-147860000D01*
X139922000Y-147844000D01*
X139967000Y-147831000D01*
X140013000Y-147820000D01*
X140059000Y-147811000D01*
X140106000Y-147805000D01*
X140153000Y-147801000D01*
X140200000Y-147800000D01*
X142700000Y-147800000D01*
X142700000Y-149600000D01*
G36*
X142700000Y-131820000D02*
G01*
X140200000Y-131820000D01*
X140153000Y-131819000D01*
X140106000Y-131815000D01*
X140059000Y-131809000D01*
X140013000Y-131800000D01*
X139967000Y-131789000D01*
X139922000Y-131776000D01*
X139877000Y-131760000D01*
X139834000Y-131742000D01*
X139791000Y-131722000D01*
X139750000Y-131699000D01*
X139710000Y-131675000D01*
X139671000Y-131648000D01*
X139634000Y-131619000D01*
X139598000Y-131589000D01*
X139564000Y-131556000D01*
X139531000Y-131522000D01*
X139501000Y-131486000D01*
X139472000Y-131449000D01*
X139445000Y-131410000D01*
X139421000Y-131370000D01*
X139398000Y-131329000D01*
X139378000Y-131286000D01*
X139360000Y-131243000D01*
X139344000Y-131198000D01*
X139331000Y-131153000D01*
X139320000Y-131107000D01*
X139311000Y-131061000D01*
X139305000Y-131014000D01*
X139301000Y-130967000D01*
X139300000Y-130920000D01*
X139301000Y-130873000D01*
X139305000Y-130826000D01*
X139311000Y-130779000D01*
X139320000Y-130733000D01*
X139331000Y-130687000D01*
X139344000Y-130642000D01*
X139360000Y-130597000D01*
X139378000Y-130554000D01*
X139398000Y-130511000D01*
X139421000Y-130470000D01*
X139445000Y-130430000D01*
X139472000Y-130391000D01*
X139501000Y-130354000D01*
X139531000Y-130318000D01*
X139564000Y-130284000D01*
X139598000Y-130251000D01*
X139634000Y-130221000D01*
X139671000Y-130192000D01*
X139710000Y-130165000D01*
X139750000Y-130141000D01*
X139791000Y-130118000D01*
X139834000Y-130098000D01*
X139877000Y-130080000D01*
X139922000Y-130064000D01*
X139967000Y-130051000D01*
X140013000Y-130040000D01*
X140059000Y-130031000D01*
X140106000Y-130025000D01*
X140153000Y-130021000D01*
X140200000Y-130020000D01*
X142700000Y-130020000D01*
X142700000Y-131820000D01*
G37*
X142700000Y-131820000D02*
X140200000Y-131820000D01*
X140153000Y-131819000D01*
X140106000Y-131815000D01*
X140059000Y-131809000D01*
X140013000Y-131800000D01*
X139967000Y-131789000D01*
X139922000Y-131776000D01*
X139877000Y-131760000D01*
X139834000Y-131742000D01*
X139791000Y-131722000D01*
X139750000Y-131699000D01*
X139710000Y-131675000D01*
X139671000Y-131648000D01*
X139634000Y-131619000D01*
X139598000Y-131589000D01*
X139564000Y-131556000D01*
X139531000Y-131522000D01*
X139501000Y-131486000D01*
X139472000Y-131449000D01*
X139445000Y-131410000D01*
X139421000Y-131370000D01*
X139398000Y-131329000D01*
X139378000Y-131286000D01*
X139360000Y-131243000D01*
X139344000Y-131198000D01*
X139331000Y-131153000D01*
X139320000Y-131107000D01*
X139311000Y-131061000D01*
X139305000Y-131014000D01*
X139301000Y-130967000D01*
X139300000Y-130920000D01*
X139301000Y-130873000D01*
X139305000Y-130826000D01*
X139311000Y-130779000D01*
X139320000Y-130733000D01*
X139331000Y-130687000D01*
X139344000Y-130642000D01*
X139360000Y-130597000D01*
X139378000Y-130554000D01*
X139398000Y-130511000D01*
X139421000Y-130470000D01*
X139445000Y-130430000D01*
X139472000Y-130391000D01*
X139501000Y-130354000D01*
X139531000Y-130318000D01*
X139564000Y-130284000D01*
X139598000Y-130251000D01*
X139634000Y-130221000D01*
X139671000Y-130192000D01*
X139710000Y-130165000D01*
X139750000Y-130141000D01*
X139791000Y-130118000D01*
X139834000Y-130098000D01*
X139877000Y-130080000D01*
X139922000Y-130064000D01*
X139967000Y-130051000D01*
X140013000Y-130040000D01*
X140059000Y-130031000D01*
X140106000Y-130025000D01*
X140153000Y-130021000D01*
X140200000Y-130020000D01*
X142700000Y-130020000D01*
X142700000Y-131820000D01*
G36*
X122467000Y-150341000D02*
G01*
X122514000Y-150345000D01*
X122561000Y-150351000D01*
X122607000Y-150360000D01*
X122653000Y-150371000D01*
X122698000Y-150384000D01*
X122743000Y-150400000D01*
X122786000Y-150418000D01*
X122829000Y-150438000D01*
X122870000Y-150461000D01*
X122910000Y-150485000D01*
X122949000Y-150512000D01*
X122986000Y-150541000D01*
X123022000Y-150571000D01*
X123056000Y-150604000D01*
X123089000Y-150638000D01*
X123119000Y-150674000D01*
X123148000Y-150711000D01*
X123175000Y-150750000D01*
X123199000Y-150790000D01*
X123222000Y-150831000D01*
X123242000Y-150874000D01*
X123260000Y-150917000D01*
X123276000Y-150962000D01*
X123289000Y-151007000D01*
X123300000Y-151053000D01*
X123309000Y-151099000D01*
X123315000Y-151146000D01*
X123319000Y-151193000D01*
X123320000Y-151240000D01*
X123319000Y-151287000D01*
X123315000Y-151334000D01*
X123309000Y-151381000D01*
X123300000Y-151427000D01*
X123289000Y-151473000D01*
X123276000Y-151518000D01*
X123260000Y-151563000D01*
X123242000Y-151606000D01*
X123222000Y-151649000D01*
X123199000Y-151690000D01*
X123175000Y-151730000D01*
X123148000Y-151769000D01*
X123119000Y-151806000D01*
X123089000Y-151842000D01*
X123056000Y-151876000D01*
X123022000Y-151909000D01*
X122986000Y-151939000D01*
X122949000Y-151968000D01*
X122910000Y-151995000D01*
X122870000Y-152019000D01*
X122829000Y-152042000D01*
X122786000Y-152062000D01*
X122743000Y-152080000D01*
X122698000Y-152096000D01*
X122653000Y-152109000D01*
X122607000Y-152120000D01*
X122561000Y-152129000D01*
X122514000Y-152135000D01*
X122467000Y-152139000D01*
X122420000Y-152140000D01*
X119920000Y-152140000D01*
X119920000Y-150340000D01*
X122420000Y-150340000D01*
X122467000Y-150341000D01*
G37*
X122467000Y-150341000D02*
X122514000Y-150345000D01*
X122561000Y-150351000D01*
X122607000Y-150360000D01*
X122653000Y-150371000D01*
X122698000Y-150384000D01*
X122743000Y-150400000D01*
X122786000Y-150418000D01*
X122829000Y-150438000D01*
X122870000Y-150461000D01*
X122910000Y-150485000D01*
X122949000Y-150512000D01*
X122986000Y-150541000D01*
X123022000Y-150571000D01*
X123056000Y-150604000D01*
X123089000Y-150638000D01*
X123119000Y-150674000D01*
X123148000Y-150711000D01*
X123175000Y-150750000D01*
X123199000Y-150790000D01*
X123222000Y-150831000D01*
X123242000Y-150874000D01*
X123260000Y-150917000D01*
X123276000Y-150962000D01*
X123289000Y-151007000D01*
X123300000Y-151053000D01*
X123309000Y-151099000D01*
X123315000Y-151146000D01*
X123319000Y-151193000D01*
X123320000Y-151240000D01*
X123319000Y-151287000D01*
X123315000Y-151334000D01*
X123309000Y-151381000D01*
X123300000Y-151427000D01*
X123289000Y-151473000D01*
X123276000Y-151518000D01*
X123260000Y-151563000D01*
X123242000Y-151606000D01*
X123222000Y-151649000D01*
X123199000Y-151690000D01*
X123175000Y-151730000D01*
X123148000Y-151769000D01*
X123119000Y-151806000D01*
X123089000Y-151842000D01*
X123056000Y-151876000D01*
X123022000Y-151909000D01*
X122986000Y-151939000D01*
X122949000Y-151968000D01*
X122910000Y-151995000D01*
X122870000Y-152019000D01*
X122829000Y-152042000D01*
X122786000Y-152062000D01*
X122743000Y-152080000D01*
X122698000Y-152096000D01*
X122653000Y-152109000D01*
X122607000Y-152120000D01*
X122561000Y-152129000D01*
X122514000Y-152135000D01*
X122467000Y-152139000D01*
X122420000Y-152140000D01*
X119920000Y-152140000D01*
X119920000Y-150340000D01*
X122420000Y-150340000D01*
X122467000Y-150341000D01*
G36*
X142700000Y-134360000D02*
G01*
X139584000Y-134360000D01*
X139569000Y-134358000D01*
X139553000Y-134356000D01*
X139538000Y-134353000D01*
X139522000Y-134350000D01*
X139492000Y-134340000D01*
X139478000Y-134334000D01*
X139450000Y-134320000D01*
X139437000Y-134312000D01*
X139424000Y-134303000D01*
X139411000Y-134293000D01*
X139399000Y-134283000D01*
X139377000Y-134261000D01*
X139367000Y-134249000D01*
X139357000Y-134236000D01*
X139348000Y-134223000D01*
X139340000Y-134210000D01*
X139326000Y-134182000D01*
X139320000Y-134168000D01*
X139310000Y-134138000D01*
X139307000Y-134122000D01*
X139304000Y-134107000D01*
X139302000Y-134091000D01*
X139300000Y-134076000D01*
X139300000Y-132844000D01*
X139302000Y-132829000D01*
X139304000Y-132813000D01*
X139307000Y-132798000D01*
X139310000Y-132782000D01*
X139320000Y-132752000D01*
X139326000Y-132738000D01*
X139340000Y-132710000D01*
X139348000Y-132697000D01*
X139357000Y-132684000D01*
X139367000Y-132671000D01*
X139377000Y-132659000D01*
X139399000Y-132637000D01*
X139411000Y-132627000D01*
X139424000Y-132617000D01*
X139437000Y-132608000D01*
X139450000Y-132600000D01*
X139478000Y-132586000D01*
X139492000Y-132580000D01*
X139522000Y-132570000D01*
X139538000Y-132567000D01*
X139553000Y-132564000D01*
X139569000Y-132562000D01*
X139584000Y-132560000D01*
X142700000Y-132560000D01*
X142700000Y-134360000D01*
G37*
X142700000Y-134360000D02*
X139584000Y-134360000D01*
X139569000Y-134358000D01*
X139553000Y-134356000D01*
X139538000Y-134353000D01*
X139522000Y-134350000D01*
X139492000Y-134340000D01*
X139478000Y-134334000D01*
X139450000Y-134320000D01*
X139437000Y-134312000D01*
X139424000Y-134303000D01*
X139411000Y-134293000D01*
X139399000Y-134283000D01*
X139377000Y-134261000D01*
X139367000Y-134249000D01*
X139357000Y-134236000D01*
X139348000Y-134223000D01*
X139340000Y-134210000D01*
X139326000Y-134182000D01*
X139320000Y-134168000D01*
X139310000Y-134138000D01*
X139307000Y-134122000D01*
X139304000Y-134107000D01*
X139302000Y-134091000D01*
X139300000Y-134076000D01*
X139300000Y-132844000D01*
X139302000Y-132829000D01*
X139304000Y-132813000D01*
X139307000Y-132798000D01*
X139310000Y-132782000D01*
X139320000Y-132752000D01*
X139326000Y-132738000D01*
X139340000Y-132710000D01*
X139348000Y-132697000D01*
X139357000Y-132684000D01*
X139367000Y-132671000D01*
X139377000Y-132659000D01*
X139399000Y-132637000D01*
X139411000Y-132627000D01*
X139424000Y-132617000D01*
X139437000Y-132608000D01*
X139450000Y-132600000D01*
X139478000Y-132586000D01*
X139492000Y-132580000D01*
X139522000Y-132570000D01*
X139538000Y-132567000D01*
X139553000Y-132564000D01*
X139569000Y-132562000D01*
X139584000Y-132560000D01*
X142700000Y-132560000D01*
X142700000Y-134360000D01*
G36*
X142700000Y-141980000D02*
G01*
X140200000Y-141980000D01*
X140153000Y-141979000D01*
X140106000Y-141975000D01*
X140059000Y-141969000D01*
X140013000Y-141960000D01*
X139967000Y-141949000D01*
X139922000Y-141936000D01*
X139877000Y-141920000D01*
X139834000Y-141902000D01*
X139791000Y-141882000D01*
X139750000Y-141859000D01*
X139710000Y-141835000D01*
X139671000Y-141808000D01*
X139634000Y-141779000D01*
X139598000Y-141749000D01*
X139564000Y-141716000D01*
X139531000Y-141682000D01*
X139501000Y-141646000D01*
X139472000Y-141609000D01*
X139445000Y-141570000D01*
X139421000Y-141530000D01*
X139398000Y-141489000D01*
X139378000Y-141446000D01*
X139360000Y-141403000D01*
X139344000Y-141358000D01*
X139331000Y-141313000D01*
X139320000Y-141267000D01*
X139311000Y-141221000D01*
X139305000Y-141174000D01*
X139301000Y-141127000D01*
X139300000Y-141080000D01*
X139301000Y-141033000D01*
X139305000Y-140986000D01*
X139311000Y-140939000D01*
X139320000Y-140893000D01*
X139331000Y-140847000D01*
X139344000Y-140802000D01*
X139360000Y-140757000D01*
X139378000Y-140714000D01*
X139398000Y-140671000D01*
X139421000Y-140630000D01*
X139445000Y-140590000D01*
X139472000Y-140551000D01*
X139501000Y-140514000D01*
X139531000Y-140478000D01*
X139564000Y-140444000D01*
X139598000Y-140411000D01*
X139634000Y-140381000D01*
X139671000Y-140352000D01*
X139710000Y-140325000D01*
X139750000Y-140301000D01*
X139791000Y-140278000D01*
X139834000Y-140258000D01*
X139877000Y-140240000D01*
X139922000Y-140224000D01*
X139967000Y-140211000D01*
X140013000Y-140200000D01*
X140059000Y-140191000D01*
X140106000Y-140185000D01*
X140153000Y-140181000D01*
X140200000Y-140180000D01*
X142700000Y-140180000D01*
X142700000Y-141980000D01*
G37*
X142700000Y-141980000D02*
X140200000Y-141980000D01*
X140153000Y-141979000D01*
X140106000Y-141975000D01*
X140059000Y-141969000D01*
X140013000Y-141960000D01*
X139967000Y-141949000D01*
X139922000Y-141936000D01*
X139877000Y-141920000D01*
X139834000Y-141902000D01*
X139791000Y-141882000D01*
X139750000Y-141859000D01*
X139710000Y-141835000D01*
X139671000Y-141808000D01*
X139634000Y-141779000D01*
X139598000Y-141749000D01*
X139564000Y-141716000D01*
X139531000Y-141682000D01*
X139501000Y-141646000D01*
X139472000Y-141609000D01*
X139445000Y-141570000D01*
X139421000Y-141530000D01*
X139398000Y-141489000D01*
X139378000Y-141446000D01*
X139360000Y-141403000D01*
X139344000Y-141358000D01*
X139331000Y-141313000D01*
X139320000Y-141267000D01*
X139311000Y-141221000D01*
X139305000Y-141174000D01*
X139301000Y-141127000D01*
X139300000Y-141080000D01*
X139301000Y-141033000D01*
X139305000Y-140986000D01*
X139311000Y-140939000D01*
X139320000Y-140893000D01*
X139331000Y-140847000D01*
X139344000Y-140802000D01*
X139360000Y-140757000D01*
X139378000Y-140714000D01*
X139398000Y-140671000D01*
X139421000Y-140630000D01*
X139445000Y-140590000D01*
X139472000Y-140551000D01*
X139501000Y-140514000D01*
X139531000Y-140478000D01*
X139564000Y-140444000D01*
X139598000Y-140411000D01*
X139634000Y-140381000D01*
X139671000Y-140352000D01*
X139710000Y-140325000D01*
X139750000Y-140301000D01*
X139791000Y-140278000D01*
X139834000Y-140258000D01*
X139877000Y-140240000D01*
X139922000Y-140224000D01*
X139967000Y-140211000D01*
X140013000Y-140200000D01*
X140059000Y-140191000D01*
X140106000Y-140185000D01*
X140153000Y-140181000D01*
X140200000Y-140180000D01*
X142700000Y-140180000D01*
X142700000Y-141980000D01*
G36*
X142700000Y-108960000D02*
G01*
X139584000Y-108960000D01*
X139569000Y-108958000D01*
X139553000Y-108956000D01*
X139538000Y-108953000D01*
X139522000Y-108950000D01*
X139492000Y-108940000D01*
X139478000Y-108934000D01*
X139450000Y-108920000D01*
X139437000Y-108912000D01*
X139424000Y-108903000D01*
X139411000Y-108893000D01*
X139399000Y-108883000D01*
X139377000Y-108861000D01*
X139367000Y-108849000D01*
X139357000Y-108836000D01*
X139348000Y-108823000D01*
X139340000Y-108810000D01*
X139326000Y-108782000D01*
X139320000Y-108768000D01*
X139310000Y-108738000D01*
X139307000Y-108722000D01*
X139304000Y-108707000D01*
X139302000Y-108691000D01*
X139300000Y-108676000D01*
X139300000Y-107444000D01*
X139302000Y-107429000D01*
X139304000Y-107413000D01*
X139307000Y-107398000D01*
X139310000Y-107382000D01*
X139320000Y-107352000D01*
X139326000Y-107338000D01*
X139340000Y-107310000D01*
X139348000Y-107297000D01*
X139357000Y-107284000D01*
X139367000Y-107271000D01*
X139377000Y-107259000D01*
X139399000Y-107237000D01*
X139411000Y-107227000D01*
X139424000Y-107217000D01*
X139437000Y-107208000D01*
X139450000Y-107200000D01*
X139478000Y-107186000D01*
X139492000Y-107180000D01*
X139522000Y-107170000D01*
X139538000Y-107167000D01*
X139553000Y-107164000D01*
X139569000Y-107162000D01*
X139584000Y-107160000D01*
X142700000Y-107160000D01*
X142700000Y-108960000D01*
G37*
X142700000Y-108960000D02*
X139584000Y-108960000D01*
X139569000Y-108958000D01*
X139553000Y-108956000D01*
X139538000Y-108953000D01*
X139522000Y-108950000D01*
X139492000Y-108940000D01*
X139478000Y-108934000D01*
X139450000Y-108920000D01*
X139437000Y-108912000D01*
X139424000Y-108903000D01*
X139411000Y-108893000D01*
X139399000Y-108883000D01*
X139377000Y-108861000D01*
X139367000Y-108849000D01*
X139357000Y-108836000D01*
X139348000Y-108823000D01*
X139340000Y-108810000D01*
X139326000Y-108782000D01*
X139320000Y-108768000D01*
X139310000Y-108738000D01*
X139307000Y-108722000D01*
X139304000Y-108707000D01*
X139302000Y-108691000D01*
X139300000Y-108676000D01*
X139300000Y-107444000D01*
X139302000Y-107429000D01*
X139304000Y-107413000D01*
X139307000Y-107398000D01*
X139310000Y-107382000D01*
X139320000Y-107352000D01*
X139326000Y-107338000D01*
X139340000Y-107310000D01*
X139348000Y-107297000D01*
X139357000Y-107284000D01*
X139367000Y-107271000D01*
X139377000Y-107259000D01*
X139399000Y-107237000D01*
X139411000Y-107227000D01*
X139424000Y-107217000D01*
X139437000Y-107208000D01*
X139450000Y-107200000D01*
X139478000Y-107186000D01*
X139492000Y-107180000D01*
X139522000Y-107170000D01*
X139538000Y-107167000D01*
X139553000Y-107164000D01*
X139569000Y-107162000D01*
X139584000Y-107160000D01*
X142700000Y-107160000D01*
X142700000Y-108960000D01*
G36*
X123051000Y-145262000D02*
G01*
X123067000Y-145264000D01*
X123082000Y-145267000D01*
X123098000Y-145270000D01*
X123128000Y-145280000D01*
X123142000Y-145286000D01*
X123170000Y-145300000D01*
X123183000Y-145308000D01*
X123196000Y-145317000D01*
X123209000Y-145327000D01*
X123221000Y-145337000D01*
X123243000Y-145359000D01*
X123253000Y-145371000D01*
X123263000Y-145384000D01*
X123272000Y-145397000D01*
X123280000Y-145410000D01*
X123294000Y-145438000D01*
X123300000Y-145452000D01*
X123310000Y-145482000D01*
X123313000Y-145498000D01*
X123316000Y-145513000D01*
X123318000Y-145529000D01*
X123320000Y-145544000D01*
X123320000Y-146776000D01*
X123318000Y-146791000D01*
X123316000Y-146807000D01*
X123313000Y-146822000D01*
X123310000Y-146838000D01*
X123300000Y-146868000D01*
X123294000Y-146882000D01*
X123280000Y-146910000D01*
X123272000Y-146923000D01*
X123263000Y-146936000D01*
X123253000Y-146949000D01*
X123243000Y-146961000D01*
X123221000Y-146983000D01*
X123209000Y-146993000D01*
X123196000Y-147003000D01*
X123183000Y-147012000D01*
X123170000Y-147020000D01*
X123142000Y-147034000D01*
X123128000Y-147040000D01*
X123098000Y-147050000D01*
X123082000Y-147053000D01*
X123067000Y-147056000D01*
X123051000Y-147058000D01*
X123036000Y-147060000D01*
X119920000Y-147060000D01*
X119920000Y-145260000D01*
X123036000Y-145260000D01*
X123051000Y-145262000D01*
G37*
X123051000Y-145262000D02*
X123067000Y-145264000D01*
X123082000Y-145267000D01*
X123098000Y-145270000D01*
X123128000Y-145280000D01*
X123142000Y-145286000D01*
X123170000Y-145300000D01*
X123183000Y-145308000D01*
X123196000Y-145317000D01*
X123209000Y-145327000D01*
X123221000Y-145337000D01*
X123243000Y-145359000D01*
X123253000Y-145371000D01*
X123263000Y-145384000D01*
X123272000Y-145397000D01*
X123280000Y-145410000D01*
X123294000Y-145438000D01*
X123300000Y-145452000D01*
X123310000Y-145482000D01*
X123313000Y-145498000D01*
X123316000Y-145513000D01*
X123318000Y-145529000D01*
X123320000Y-145544000D01*
X123320000Y-146776000D01*
X123318000Y-146791000D01*
X123316000Y-146807000D01*
X123313000Y-146822000D01*
X123310000Y-146838000D01*
X123300000Y-146868000D01*
X123294000Y-146882000D01*
X123280000Y-146910000D01*
X123272000Y-146923000D01*
X123263000Y-146936000D01*
X123253000Y-146949000D01*
X123243000Y-146961000D01*
X123221000Y-146983000D01*
X123209000Y-146993000D01*
X123196000Y-147003000D01*
X123183000Y-147012000D01*
X123170000Y-147020000D01*
X123142000Y-147034000D01*
X123128000Y-147040000D01*
X123098000Y-147050000D01*
X123082000Y-147053000D01*
X123067000Y-147056000D01*
X123051000Y-147058000D01*
X123036000Y-147060000D01*
X119920000Y-147060000D01*
X119920000Y-145260000D01*
X123036000Y-145260000D01*
X123051000Y-145262000D01*
G36*
X142700000Y-116580000D02*
G01*
X140200000Y-116580000D01*
X140153000Y-116579000D01*
X140106000Y-116575000D01*
X140059000Y-116569000D01*
X140013000Y-116560000D01*
X139967000Y-116549000D01*
X139922000Y-116536000D01*
X139877000Y-116520000D01*
X139834000Y-116502000D01*
X139791000Y-116482000D01*
X139750000Y-116459000D01*
X139710000Y-116435000D01*
X139671000Y-116408000D01*
X139634000Y-116379000D01*
X139598000Y-116349000D01*
X139564000Y-116316000D01*
X139531000Y-116282000D01*
X139501000Y-116246000D01*
X139472000Y-116209000D01*
X139445000Y-116170000D01*
X139421000Y-116130000D01*
X139398000Y-116089000D01*
X139378000Y-116046000D01*
X139360000Y-116003000D01*
X139344000Y-115958000D01*
X139331000Y-115913000D01*
X139320000Y-115867000D01*
X139311000Y-115821000D01*
X139305000Y-115774000D01*
X139301000Y-115727000D01*
X139300000Y-115680000D01*
X139301000Y-115633000D01*
X139305000Y-115586000D01*
X139311000Y-115539000D01*
X139320000Y-115493000D01*
X139331000Y-115447000D01*
X139344000Y-115402000D01*
X139360000Y-115357000D01*
X139378000Y-115314000D01*
X139398000Y-115271000D01*
X139421000Y-115230000D01*
X139445000Y-115190000D01*
X139472000Y-115151000D01*
X139501000Y-115114000D01*
X139531000Y-115078000D01*
X139564000Y-115044000D01*
X139598000Y-115011000D01*
X139634000Y-114981000D01*
X139671000Y-114952000D01*
X139710000Y-114925000D01*
X139750000Y-114901000D01*
X139791000Y-114878000D01*
X139834000Y-114858000D01*
X139877000Y-114840000D01*
X139922000Y-114824000D01*
X139967000Y-114811000D01*
X140013000Y-114800000D01*
X140059000Y-114791000D01*
X140106000Y-114785000D01*
X140153000Y-114781000D01*
X140200000Y-114780000D01*
X142700000Y-114780000D01*
X142700000Y-116580000D01*
G37*
X142700000Y-116580000D02*
X140200000Y-116580000D01*
X140153000Y-116579000D01*
X140106000Y-116575000D01*
X140059000Y-116569000D01*
X140013000Y-116560000D01*
X139967000Y-116549000D01*
X139922000Y-116536000D01*
X139877000Y-116520000D01*
X139834000Y-116502000D01*
X139791000Y-116482000D01*
X139750000Y-116459000D01*
X139710000Y-116435000D01*
X139671000Y-116408000D01*
X139634000Y-116379000D01*
X139598000Y-116349000D01*
X139564000Y-116316000D01*
X139531000Y-116282000D01*
X139501000Y-116246000D01*
X139472000Y-116209000D01*
X139445000Y-116170000D01*
X139421000Y-116130000D01*
X139398000Y-116089000D01*
X139378000Y-116046000D01*
X139360000Y-116003000D01*
X139344000Y-115958000D01*
X139331000Y-115913000D01*
X139320000Y-115867000D01*
X139311000Y-115821000D01*
X139305000Y-115774000D01*
X139301000Y-115727000D01*
X139300000Y-115680000D01*
X139301000Y-115633000D01*
X139305000Y-115586000D01*
X139311000Y-115539000D01*
X139320000Y-115493000D01*
X139331000Y-115447000D01*
X139344000Y-115402000D01*
X139360000Y-115357000D01*
X139378000Y-115314000D01*
X139398000Y-115271000D01*
X139421000Y-115230000D01*
X139445000Y-115190000D01*
X139472000Y-115151000D01*
X139501000Y-115114000D01*
X139531000Y-115078000D01*
X139564000Y-115044000D01*
X139598000Y-115011000D01*
X139634000Y-114981000D01*
X139671000Y-114952000D01*
X139710000Y-114925000D01*
X139750000Y-114901000D01*
X139791000Y-114878000D01*
X139834000Y-114858000D01*
X139877000Y-114840000D01*
X139922000Y-114824000D01*
X139967000Y-114811000D01*
X140013000Y-114800000D01*
X140059000Y-114791000D01*
X140106000Y-114785000D01*
X140153000Y-114781000D01*
X140200000Y-114780000D01*
X142700000Y-114780000D01*
X142700000Y-116580000D01*
G36*
X122467000Y-114781000D02*
G01*
X122514000Y-114785000D01*
X122561000Y-114791000D01*
X122607000Y-114800000D01*
X122653000Y-114811000D01*
X122698000Y-114824000D01*
X122743000Y-114840000D01*
X122786000Y-114858000D01*
X122829000Y-114878000D01*
X122870000Y-114901000D01*
X122910000Y-114925000D01*
X122949000Y-114952000D01*
X122986000Y-114981000D01*
X123022000Y-115011000D01*
X123056000Y-115044000D01*
X123089000Y-115078000D01*
X123119000Y-115114000D01*
X123148000Y-115151000D01*
X123175000Y-115190000D01*
X123199000Y-115230000D01*
X123222000Y-115271000D01*
X123242000Y-115314000D01*
X123260000Y-115357000D01*
X123276000Y-115402000D01*
X123289000Y-115447000D01*
X123300000Y-115493000D01*
X123309000Y-115539000D01*
X123315000Y-115586000D01*
X123319000Y-115633000D01*
X123320000Y-115680000D01*
X123319000Y-115727000D01*
X123315000Y-115774000D01*
X123309000Y-115821000D01*
X123300000Y-115867000D01*
X123289000Y-115913000D01*
X123276000Y-115958000D01*
X123260000Y-116003000D01*
X123242000Y-116046000D01*
X123222000Y-116089000D01*
X123199000Y-116130000D01*
X123175000Y-116170000D01*
X123148000Y-116209000D01*
X123119000Y-116246000D01*
X123089000Y-116282000D01*
X123056000Y-116316000D01*
X123022000Y-116349000D01*
X122986000Y-116379000D01*
X122949000Y-116408000D01*
X122910000Y-116435000D01*
X122870000Y-116459000D01*
X122829000Y-116482000D01*
X122786000Y-116502000D01*
X122743000Y-116520000D01*
X122698000Y-116536000D01*
X122653000Y-116549000D01*
X122607000Y-116560000D01*
X122561000Y-116569000D01*
X122514000Y-116575000D01*
X122467000Y-116579000D01*
X122420000Y-116580000D01*
X119920000Y-116580000D01*
X119920000Y-114780000D01*
X122420000Y-114780000D01*
X122467000Y-114781000D01*
G37*
X122467000Y-114781000D02*
X122514000Y-114785000D01*
X122561000Y-114791000D01*
X122607000Y-114800000D01*
X122653000Y-114811000D01*
X122698000Y-114824000D01*
X122743000Y-114840000D01*
X122786000Y-114858000D01*
X122829000Y-114878000D01*
X122870000Y-114901000D01*
X122910000Y-114925000D01*
X122949000Y-114952000D01*
X122986000Y-114981000D01*
X123022000Y-115011000D01*
X123056000Y-115044000D01*
X123089000Y-115078000D01*
X123119000Y-115114000D01*
X123148000Y-115151000D01*
X123175000Y-115190000D01*
X123199000Y-115230000D01*
X123222000Y-115271000D01*
X123242000Y-115314000D01*
X123260000Y-115357000D01*
X123276000Y-115402000D01*
X123289000Y-115447000D01*
X123300000Y-115493000D01*
X123309000Y-115539000D01*
X123315000Y-115586000D01*
X123319000Y-115633000D01*
X123320000Y-115680000D01*
X123319000Y-115727000D01*
X123315000Y-115774000D01*
X123309000Y-115821000D01*
X123300000Y-115867000D01*
X123289000Y-115913000D01*
X123276000Y-115958000D01*
X123260000Y-116003000D01*
X123242000Y-116046000D01*
X123222000Y-116089000D01*
X123199000Y-116130000D01*
X123175000Y-116170000D01*
X123148000Y-116209000D01*
X123119000Y-116246000D01*
X123089000Y-116282000D01*
X123056000Y-116316000D01*
X123022000Y-116349000D01*
X122986000Y-116379000D01*
X122949000Y-116408000D01*
X122910000Y-116435000D01*
X122870000Y-116459000D01*
X122829000Y-116482000D01*
X122786000Y-116502000D01*
X122743000Y-116520000D01*
X122698000Y-116536000D01*
X122653000Y-116549000D01*
X122607000Y-116560000D01*
X122561000Y-116569000D01*
X122514000Y-116575000D01*
X122467000Y-116579000D01*
X122420000Y-116580000D01*
X119920000Y-116580000D01*
X119920000Y-114780000D01*
X122420000Y-114780000D01*
X122467000Y-114781000D01*
G36*
X142700000Y-114040000D02*
G01*
X140200000Y-114040000D01*
X140153000Y-114039000D01*
X140106000Y-114035000D01*
X140059000Y-114029000D01*
X140013000Y-114020000D01*
X139967000Y-114009000D01*
X139922000Y-113996000D01*
X139877000Y-113980000D01*
X139834000Y-113962000D01*
X139791000Y-113942000D01*
X139750000Y-113919000D01*
X139710000Y-113895000D01*
X139671000Y-113868000D01*
X139634000Y-113839000D01*
X139598000Y-113809000D01*
X139564000Y-113776000D01*
X139531000Y-113742000D01*
X139501000Y-113706000D01*
X139472000Y-113669000D01*
X139445000Y-113630000D01*
X139421000Y-113590000D01*
X139398000Y-113549000D01*
X139378000Y-113506000D01*
X139360000Y-113463000D01*
X139344000Y-113418000D01*
X139331000Y-113373000D01*
X139320000Y-113327000D01*
X139311000Y-113281000D01*
X139305000Y-113234000D01*
X139301000Y-113187000D01*
X139300000Y-113140000D01*
X139301000Y-113093000D01*
X139305000Y-113046000D01*
X139311000Y-112999000D01*
X139320000Y-112953000D01*
X139331000Y-112907000D01*
X139344000Y-112862000D01*
X139360000Y-112817000D01*
X139378000Y-112774000D01*
X139398000Y-112731000D01*
X139421000Y-112690000D01*
X139445000Y-112650000D01*
X139472000Y-112611000D01*
X139501000Y-112574000D01*
X139531000Y-112538000D01*
X139564000Y-112504000D01*
X139598000Y-112471000D01*
X139634000Y-112441000D01*
X139671000Y-112412000D01*
X139710000Y-112385000D01*
X139750000Y-112361000D01*
X139791000Y-112338000D01*
X139834000Y-112318000D01*
X139877000Y-112300000D01*
X139922000Y-112284000D01*
X139967000Y-112271000D01*
X140013000Y-112260000D01*
X140059000Y-112251000D01*
X140106000Y-112245000D01*
X140153000Y-112241000D01*
X140200000Y-112240000D01*
X142700000Y-112240000D01*
X142700000Y-114040000D01*
G37*
X142700000Y-114040000D02*
X140200000Y-114040000D01*
X140153000Y-114039000D01*
X140106000Y-114035000D01*
X140059000Y-114029000D01*
X140013000Y-114020000D01*
X139967000Y-114009000D01*
X139922000Y-113996000D01*
X139877000Y-113980000D01*
X139834000Y-113962000D01*
X139791000Y-113942000D01*
X139750000Y-113919000D01*
X139710000Y-113895000D01*
X139671000Y-113868000D01*
X139634000Y-113839000D01*
X139598000Y-113809000D01*
X139564000Y-113776000D01*
X139531000Y-113742000D01*
X139501000Y-113706000D01*
X139472000Y-113669000D01*
X139445000Y-113630000D01*
X139421000Y-113590000D01*
X139398000Y-113549000D01*
X139378000Y-113506000D01*
X139360000Y-113463000D01*
X139344000Y-113418000D01*
X139331000Y-113373000D01*
X139320000Y-113327000D01*
X139311000Y-113281000D01*
X139305000Y-113234000D01*
X139301000Y-113187000D01*
X139300000Y-113140000D01*
X139301000Y-113093000D01*
X139305000Y-113046000D01*
X139311000Y-112999000D01*
X139320000Y-112953000D01*
X139331000Y-112907000D01*
X139344000Y-112862000D01*
X139360000Y-112817000D01*
X139378000Y-112774000D01*
X139398000Y-112731000D01*
X139421000Y-112690000D01*
X139445000Y-112650000D01*
X139472000Y-112611000D01*
X139501000Y-112574000D01*
X139531000Y-112538000D01*
X139564000Y-112504000D01*
X139598000Y-112471000D01*
X139634000Y-112441000D01*
X139671000Y-112412000D01*
X139710000Y-112385000D01*
X139750000Y-112361000D01*
X139791000Y-112338000D01*
X139834000Y-112318000D01*
X139877000Y-112300000D01*
X139922000Y-112284000D01*
X139967000Y-112271000D01*
X140013000Y-112260000D01*
X140059000Y-112251000D01*
X140106000Y-112245000D01*
X140153000Y-112241000D01*
X140200000Y-112240000D01*
X142700000Y-112240000D01*
X142700000Y-114040000D01*
G36*
X142700000Y-126740000D02*
G01*
X140200000Y-126740000D01*
X140153000Y-126739000D01*
X140106000Y-126735000D01*
X140059000Y-126729000D01*
X140013000Y-126720000D01*
X139967000Y-126709000D01*
X139922000Y-126696000D01*
X139877000Y-126680000D01*
X139834000Y-126662000D01*
X139791000Y-126642000D01*
X139750000Y-126619000D01*
X139710000Y-126595000D01*
X139671000Y-126568000D01*
X139634000Y-126539000D01*
X139598000Y-126509000D01*
X139564000Y-126476000D01*
X139531000Y-126442000D01*
X139501000Y-126406000D01*
X139472000Y-126369000D01*
X139445000Y-126330000D01*
X139421000Y-126290000D01*
X139398000Y-126249000D01*
X139378000Y-126206000D01*
X139360000Y-126163000D01*
X139344000Y-126118000D01*
X139331000Y-126073000D01*
X139320000Y-126027000D01*
X139311000Y-125981000D01*
X139305000Y-125934000D01*
X139301000Y-125887000D01*
X139300000Y-125840000D01*
X139301000Y-125793000D01*
X139305000Y-125746000D01*
X139311000Y-125699000D01*
X139320000Y-125653000D01*
X139331000Y-125607000D01*
X139344000Y-125562000D01*
X139360000Y-125517000D01*
X139378000Y-125474000D01*
X139398000Y-125431000D01*
X139421000Y-125390000D01*
X139445000Y-125350000D01*
X139472000Y-125311000D01*
X139501000Y-125274000D01*
X139531000Y-125238000D01*
X139564000Y-125204000D01*
X139598000Y-125171000D01*
X139634000Y-125141000D01*
X139671000Y-125112000D01*
X139710000Y-125085000D01*
X139750000Y-125061000D01*
X139791000Y-125038000D01*
X139834000Y-125018000D01*
X139877000Y-125000000D01*
X139922000Y-124984000D01*
X139967000Y-124971000D01*
X140013000Y-124960000D01*
X140059000Y-124951000D01*
X140106000Y-124945000D01*
X140153000Y-124941000D01*
X140200000Y-124940000D01*
X142700000Y-124940000D01*
X142700000Y-126740000D01*
G37*
X142700000Y-126740000D02*
X140200000Y-126740000D01*
X140153000Y-126739000D01*
X140106000Y-126735000D01*
X140059000Y-126729000D01*
X140013000Y-126720000D01*
X139967000Y-126709000D01*
X139922000Y-126696000D01*
X139877000Y-126680000D01*
X139834000Y-126662000D01*
X139791000Y-126642000D01*
X139750000Y-126619000D01*
X139710000Y-126595000D01*
X139671000Y-126568000D01*
X139634000Y-126539000D01*
X139598000Y-126509000D01*
X139564000Y-126476000D01*
X139531000Y-126442000D01*
X139501000Y-126406000D01*
X139472000Y-126369000D01*
X139445000Y-126330000D01*
X139421000Y-126290000D01*
X139398000Y-126249000D01*
X139378000Y-126206000D01*
X139360000Y-126163000D01*
X139344000Y-126118000D01*
X139331000Y-126073000D01*
X139320000Y-126027000D01*
X139311000Y-125981000D01*
X139305000Y-125934000D01*
X139301000Y-125887000D01*
X139300000Y-125840000D01*
X139301000Y-125793000D01*
X139305000Y-125746000D01*
X139311000Y-125699000D01*
X139320000Y-125653000D01*
X139331000Y-125607000D01*
X139344000Y-125562000D01*
X139360000Y-125517000D01*
X139378000Y-125474000D01*
X139398000Y-125431000D01*
X139421000Y-125390000D01*
X139445000Y-125350000D01*
X139472000Y-125311000D01*
X139501000Y-125274000D01*
X139531000Y-125238000D01*
X139564000Y-125204000D01*
X139598000Y-125171000D01*
X139634000Y-125141000D01*
X139671000Y-125112000D01*
X139710000Y-125085000D01*
X139750000Y-125061000D01*
X139791000Y-125038000D01*
X139834000Y-125018000D01*
X139877000Y-125000000D01*
X139922000Y-124984000D01*
X139967000Y-124971000D01*
X140013000Y-124960000D01*
X140059000Y-124951000D01*
X140106000Y-124945000D01*
X140153000Y-124941000D01*
X140200000Y-124940000D01*
X142700000Y-124940000D01*
X142700000Y-126740000D01*
G36*
X142700000Y-136900000D02*
G01*
X140200000Y-136900000D01*
X140153000Y-136899000D01*
X140106000Y-136895000D01*
X140059000Y-136889000D01*
X140013000Y-136880000D01*
X139967000Y-136869000D01*
X139922000Y-136856000D01*
X139877000Y-136840000D01*
X139834000Y-136822000D01*
X139791000Y-136802000D01*
X139750000Y-136779000D01*
X139710000Y-136755000D01*
X139671000Y-136728000D01*
X139634000Y-136699000D01*
X139598000Y-136669000D01*
X139564000Y-136636000D01*
X139531000Y-136602000D01*
X139501000Y-136566000D01*
X139472000Y-136529000D01*
X139445000Y-136490000D01*
X139421000Y-136450000D01*
X139398000Y-136409000D01*
X139378000Y-136366000D01*
X139360000Y-136323000D01*
X139344000Y-136278000D01*
X139331000Y-136233000D01*
X139320000Y-136187000D01*
X139311000Y-136141000D01*
X139305000Y-136094000D01*
X139301000Y-136047000D01*
X139300000Y-136000000D01*
X139301000Y-135953000D01*
X139305000Y-135906000D01*
X139311000Y-135859000D01*
X139320000Y-135813000D01*
X139331000Y-135767000D01*
X139344000Y-135722000D01*
X139360000Y-135677000D01*
X139378000Y-135634000D01*
X139398000Y-135591000D01*
X139421000Y-135550000D01*
X139445000Y-135510000D01*
X139472000Y-135471000D01*
X139501000Y-135434000D01*
X139531000Y-135398000D01*
X139564000Y-135364000D01*
X139598000Y-135331000D01*
X139634000Y-135301000D01*
X139671000Y-135272000D01*
X139710000Y-135245000D01*
X139750000Y-135221000D01*
X139791000Y-135198000D01*
X139834000Y-135178000D01*
X139877000Y-135160000D01*
X139922000Y-135144000D01*
X139967000Y-135131000D01*
X140013000Y-135120000D01*
X140059000Y-135111000D01*
X140106000Y-135105000D01*
X140153000Y-135101000D01*
X140200000Y-135100000D01*
X142700000Y-135100000D01*
X142700000Y-136900000D01*
G37*
X142700000Y-136900000D02*
X140200000Y-136900000D01*
X140153000Y-136899000D01*
X140106000Y-136895000D01*
X140059000Y-136889000D01*
X140013000Y-136880000D01*
X139967000Y-136869000D01*
X139922000Y-136856000D01*
X139877000Y-136840000D01*
X139834000Y-136822000D01*
X139791000Y-136802000D01*
X139750000Y-136779000D01*
X139710000Y-136755000D01*
X139671000Y-136728000D01*
X139634000Y-136699000D01*
X139598000Y-136669000D01*
X139564000Y-136636000D01*
X139531000Y-136602000D01*
X139501000Y-136566000D01*
X139472000Y-136529000D01*
X139445000Y-136490000D01*
X139421000Y-136450000D01*
X139398000Y-136409000D01*
X139378000Y-136366000D01*
X139360000Y-136323000D01*
X139344000Y-136278000D01*
X139331000Y-136233000D01*
X139320000Y-136187000D01*
X139311000Y-136141000D01*
X139305000Y-136094000D01*
X139301000Y-136047000D01*
X139300000Y-136000000D01*
X139301000Y-135953000D01*
X139305000Y-135906000D01*
X139311000Y-135859000D01*
X139320000Y-135813000D01*
X139331000Y-135767000D01*
X139344000Y-135722000D01*
X139360000Y-135677000D01*
X139378000Y-135634000D01*
X139398000Y-135591000D01*
X139421000Y-135550000D01*
X139445000Y-135510000D01*
X139472000Y-135471000D01*
X139501000Y-135434000D01*
X139531000Y-135398000D01*
X139564000Y-135364000D01*
X139598000Y-135331000D01*
X139634000Y-135301000D01*
X139671000Y-135272000D01*
X139710000Y-135245000D01*
X139750000Y-135221000D01*
X139791000Y-135198000D01*
X139834000Y-135178000D01*
X139877000Y-135160000D01*
X139922000Y-135144000D01*
X139967000Y-135131000D01*
X140013000Y-135120000D01*
X140059000Y-135111000D01*
X140106000Y-135105000D01*
X140153000Y-135101000D01*
X140200000Y-135100000D01*
X142700000Y-135100000D01*
X142700000Y-136900000D01*
G36*
X142700000Y-111500000D02*
G01*
X140200000Y-111500000D01*
X140153000Y-111499000D01*
X140106000Y-111495000D01*
X140059000Y-111489000D01*
X140013000Y-111480000D01*
X139967000Y-111469000D01*
X139922000Y-111456000D01*
X139877000Y-111440000D01*
X139834000Y-111422000D01*
X139791000Y-111402000D01*
X139750000Y-111379000D01*
X139710000Y-111355000D01*
X139671000Y-111328000D01*
X139634000Y-111299000D01*
X139598000Y-111269000D01*
X139564000Y-111236000D01*
X139531000Y-111202000D01*
X139501000Y-111166000D01*
X139472000Y-111129000D01*
X139445000Y-111090000D01*
X139421000Y-111050000D01*
X139398000Y-111009000D01*
X139378000Y-110966000D01*
X139360000Y-110923000D01*
X139344000Y-110878000D01*
X139331000Y-110833000D01*
X139320000Y-110787000D01*
X139311000Y-110741000D01*
X139305000Y-110694000D01*
X139301000Y-110647000D01*
X139300000Y-110600000D01*
X139301000Y-110553000D01*
X139305000Y-110506000D01*
X139311000Y-110459000D01*
X139320000Y-110413000D01*
X139331000Y-110367000D01*
X139344000Y-110322000D01*
X139360000Y-110277000D01*
X139378000Y-110234000D01*
X139398000Y-110191000D01*
X139421000Y-110150000D01*
X139445000Y-110110000D01*
X139472000Y-110071000D01*
X139501000Y-110034000D01*
X139531000Y-109998000D01*
X139564000Y-109964000D01*
X139598000Y-109931000D01*
X139634000Y-109901000D01*
X139671000Y-109872000D01*
X139710000Y-109845000D01*
X139750000Y-109821000D01*
X139791000Y-109798000D01*
X139834000Y-109778000D01*
X139877000Y-109760000D01*
X139922000Y-109744000D01*
X139967000Y-109731000D01*
X140013000Y-109720000D01*
X140059000Y-109711000D01*
X140106000Y-109705000D01*
X140153000Y-109701000D01*
X140200000Y-109700000D01*
X142700000Y-109700000D01*
X142700000Y-111500000D01*
G37*
X142700000Y-111500000D02*
X140200000Y-111500000D01*
X140153000Y-111499000D01*
X140106000Y-111495000D01*
X140059000Y-111489000D01*
X140013000Y-111480000D01*
X139967000Y-111469000D01*
X139922000Y-111456000D01*
X139877000Y-111440000D01*
X139834000Y-111422000D01*
X139791000Y-111402000D01*
X139750000Y-111379000D01*
X139710000Y-111355000D01*
X139671000Y-111328000D01*
X139634000Y-111299000D01*
X139598000Y-111269000D01*
X139564000Y-111236000D01*
X139531000Y-111202000D01*
X139501000Y-111166000D01*
X139472000Y-111129000D01*
X139445000Y-111090000D01*
X139421000Y-111050000D01*
X139398000Y-111009000D01*
X139378000Y-110966000D01*
X139360000Y-110923000D01*
X139344000Y-110878000D01*
X139331000Y-110833000D01*
X139320000Y-110787000D01*
X139311000Y-110741000D01*
X139305000Y-110694000D01*
X139301000Y-110647000D01*
X139300000Y-110600000D01*
X139301000Y-110553000D01*
X139305000Y-110506000D01*
X139311000Y-110459000D01*
X139320000Y-110413000D01*
X139331000Y-110367000D01*
X139344000Y-110322000D01*
X139360000Y-110277000D01*
X139378000Y-110234000D01*
X139398000Y-110191000D01*
X139421000Y-110150000D01*
X139445000Y-110110000D01*
X139472000Y-110071000D01*
X139501000Y-110034000D01*
X139531000Y-109998000D01*
X139564000Y-109964000D01*
X139598000Y-109931000D01*
X139634000Y-109901000D01*
X139671000Y-109872000D01*
X139710000Y-109845000D01*
X139750000Y-109821000D01*
X139791000Y-109798000D01*
X139834000Y-109778000D01*
X139877000Y-109760000D01*
X139922000Y-109744000D01*
X139967000Y-109731000D01*
X140013000Y-109720000D01*
X140059000Y-109711000D01*
X140106000Y-109705000D01*
X140153000Y-109701000D01*
X140200000Y-109700000D01*
X142700000Y-109700000D01*
X142700000Y-111500000D01*
G36*
X142700000Y-106420000D02*
G01*
X140200000Y-106420000D01*
X140153000Y-106419000D01*
X140106000Y-106415000D01*
X140059000Y-106409000D01*
X140013000Y-106400000D01*
X139967000Y-106389000D01*
X139922000Y-106376000D01*
X139877000Y-106360000D01*
X139834000Y-106342000D01*
X139791000Y-106322000D01*
X139750000Y-106299000D01*
X139710000Y-106275000D01*
X139671000Y-106248000D01*
X139634000Y-106219000D01*
X139598000Y-106189000D01*
X139564000Y-106156000D01*
X139531000Y-106122000D01*
X139501000Y-106086000D01*
X139472000Y-106049000D01*
X139445000Y-106010000D01*
X139421000Y-105970000D01*
X139398000Y-105929000D01*
X139378000Y-105886000D01*
X139360000Y-105843000D01*
X139344000Y-105798000D01*
X139331000Y-105753000D01*
X139320000Y-105707000D01*
X139311000Y-105661000D01*
X139305000Y-105614000D01*
X139301000Y-105567000D01*
X139300000Y-105520000D01*
X139301000Y-105473000D01*
X139305000Y-105426000D01*
X139311000Y-105379000D01*
X139320000Y-105333000D01*
X139331000Y-105287000D01*
X139344000Y-105242000D01*
X139360000Y-105197000D01*
X139378000Y-105154000D01*
X139398000Y-105111000D01*
X139421000Y-105070000D01*
X139445000Y-105030000D01*
X139472000Y-104991000D01*
X139501000Y-104954000D01*
X139531000Y-104918000D01*
X139564000Y-104884000D01*
X139598000Y-104851000D01*
X139634000Y-104821000D01*
X139671000Y-104792000D01*
X139710000Y-104765000D01*
X139750000Y-104741000D01*
X139791000Y-104718000D01*
X139834000Y-104698000D01*
X139877000Y-104680000D01*
X139922000Y-104664000D01*
X139967000Y-104651000D01*
X140013000Y-104640000D01*
X140059000Y-104631000D01*
X140106000Y-104625000D01*
X140153000Y-104621000D01*
X140200000Y-104620000D01*
X142700000Y-104620000D01*
X142700000Y-106420000D01*
G37*
X142700000Y-106420000D02*
X140200000Y-106420000D01*
X140153000Y-106419000D01*
X140106000Y-106415000D01*
X140059000Y-106409000D01*
X140013000Y-106400000D01*
X139967000Y-106389000D01*
X139922000Y-106376000D01*
X139877000Y-106360000D01*
X139834000Y-106342000D01*
X139791000Y-106322000D01*
X139750000Y-106299000D01*
X139710000Y-106275000D01*
X139671000Y-106248000D01*
X139634000Y-106219000D01*
X139598000Y-106189000D01*
X139564000Y-106156000D01*
X139531000Y-106122000D01*
X139501000Y-106086000D01*
X139472000Y-106049000D01*
X139445000Y-106010000D01*
X139421000Y-105970000D01*
X139398000Y-105929000D01*
X139378000Y-105886000D01*
X139360000Y-105843000D01*
X139344000Y-105798000D01*
X139331000Y-105753000D01*
X139320000Y-105707000D01*
X139311000Y-105661000D01*
X139305000Y-105614000D01*
X139301000Y-105567000D01*
X139300000Y-105520000D01*
X139301000Y-105473000D01*
X139305000Y-105426000D01*
X139311000Y-105379000D01*
X139320000Y-105333000D01*
X139331000Y-105287000D01*
X139344000Y-105242000D01*
X139360000Y-105197000D01*
X139378000Y-105154000D01*
X139398000Y-105111000D01*
X139421000Y-105070000D01*
X139445000Y-105030000D01*
X139472000Y-104991000D01*
X139501000Y-104954000D01*
X139531000Y-104918000D01*
X139564000Y-104884000D01*
X139598000Y-104851000D01*
X139634000Y-104821000D01*
X139671000Y-104792000D01*
X139710000Y-104765000D01*
X139750000Y-104741000D01*
X139791000Y-104718000D01*
X139834000Y-104698000D01*
X139877000Y-104680000D01*
X139922000Y-104664000D01*
X139967000Y-104651000D01*
X140013000Y-104640000D01*
X140059000Y-104631000D01*
X140106000Y-104625000D01*
X140153000Y-104621000D01*
X140200000Y-104620000D01*
X142700000Y-104620000D01*
X142700000Y-106420000D01*
G36*
X142700000Y-124200000D02*
G01*
X140200000Y-124200000D01*
X140153000Y-124199000D01*
X140106000Y-124195000D01*
X140059000Y-124189000D01*
X140013000Y-124180000D01*
X139967000Y-124169000D01*
X139922000Y-124156000D01*
X139877000Y-124140000D01*
X139834000Y-124122000D01*
X139791000Y-124102000D01*
X139750000Y-124079000D01*
X139710000Y-124055000D01*
X139671000Y-124028000D01*
X139634000Y-123999000D01*
X139598000Y-123969000D01*
X139564000Y-123936000D01*
X139531000Y-123902000D01*
X139501000Y-123866000D01*
X139472000Y-123829000D01*
X139445000Y-123790000D01*
X139421000Y-123750000D01*
X139398000Y-123709000D01*
X139378000Y-123666000D01*
X139360000Y-123623000D01*
X139344000Y-123578000D01*
X139331000Y-123533000D01*
X139320000Y-123487000D01*
X139311000Y-123441000D01*
X139305000Y-123394000D01*
X139301000Y-123347000D01*
X139300000Y-123300000D01*
X139301000Y-123253000D01*
X139305000Y-123206000D01*
X139311000Y-123159000D01*
X139320000Y-123113000D01*
X139331000Y-123067000D01*
X139344000Y-123022000D01*
X139360000Y-122977000D01*
X139378000Y-122934000D01*
X139398000Y-122891000D01*
X139421000Y-122850000D01*
X139445000Y-122810000D01*
X139472000Y-122771000D01*
X139501000Y-122734000D01*
X139531000Y-122698000D01*
X139564000Y-122664000D01*
X139598000Y-122631000D01*
X139634000Y-122601000D01*
X139671000Y-122572000D01*
X139710000Y-122545000D01*
X139750000Y-122521000D01*
X139791000Y-122498000D01*
X139834000Y-122478000D01*
X139877000Y-122460000D01*
X139922000Y-122444000D01*
X139967000Y-122431000D01*
X140013000Y-122420000D01*
X140059000Y-122411000D01*
X140106000Y-122405000D01*
X140153000Y-122401000D01*
X140200000Y-122400000D01*
X142700000Y-122400000D01*
X142700000Y-124200000D01*
G37*
X142700000Y-124200000D02*
X140200000Y-124200000D01*
X140153000Y-124199000D01*
X140106000Y-124195000D01*
X140059000Y-124189000D01*
X140013000Y-124180000D01*
X139967000Y-124169000D01*
X139922000Y-124156000D01*
X139877000Y-124140000D01*
X139834000Y-124122000D01*
X139791000Y-124102000D01*
X139750000Y-124079000D01*
X139710000Y-124055000D01*
X139671000Y-124028000D01*
X139634000Y-123999000D01*
X139598000Y-123969000D01*
X139564000Y-123936000D01*
X139531000Y-123902000D01*
X139501000Y-123866000D01*
X139472000Y-123829000D01*
X139445000Y-123790000D01*
X139421000Y-123750000D01*
X139398000Y-123709000D01*
X139378000Y-123666000D01*
X139360000Y-123623000D01*
X139344000Y-123578000D01*
X139331000Y-123533000D01*
X139320000Y-123487000D01*
X139311000Y-123441000D01*
X139305000Y-123394000D01*
X139301000Y-123347000D01*
X139300000Y-123300000D01*
X139301000Y-123253000D01*
X139305000Y-123206000D01*
X139311000Y-123159000D01*
X139320000Y-123113000D01*
X139331000Y-123067000D01*
X139344000Y-123022000D01*
X139360000Y-122977000D01*
X139378000Y-122934000D01*
X139398000Y-122891000D01*
X139421000Y-122850000D01*
X139445000Y-122810000D01*
X139472000Y-122771000D01*
X139501000Y-122734000D01*
X139531000Y-122698000D01*
X139564000Y-122664000D01*
X139598000Y-122631000D01*
X139634000Y-122601000D01*
X139671000Y-122572000D01*
X139710000Y-122545000D01*
X139750000Y-122521000D01*
X139791000Y-122498000D01*
X139834000Y-122478000D01*
X139877000Y-122460000D01*
X139922000Y-122444000D01*
X139967000Y-122431000D01*
X140013000Y-122420000D01*
X140059000Y-122411000D01*
X140106000Y-122405000D01*
X140153000Y-122401000D01*
X140200000Y-122400000D01*
X142700000Y-122400000D01*
X142700000Y-124200000D01*
G36*
X123051000Y-132562000D02*
G01*
X123067000Y-132564000D01*
X123082000Y-132567000D01*
X123098000Y-132570000D01*
X123128000Y-132580000D01*
X123142000Y-132586000D01*
X123170000Y-132600000D01*
X123183000Y-132608000D01*
X123196000Y-132617000D01*
X123209000Y-132627000D01*
X123221000Y-132637000D01*
X123243000Y-132659000D01*
X123253000Y-132671000D01*
X123263000Y-132684000D01*
X123272000Y-132697000D01*
X123280000Y-132710000D01*
X123294000Y-132738000D01*
X123300000Y-132752000D01*
X123310000Y-132782000D01*
X123313000Y-132798000D01*
X123316000Y-132813000D01*
X123318000Y-132829000D01*
X123320000Y-132844000D01*
X123320000Y-134076000D01*
X123318000Y-134091000D01*
X123316000Y-134107000D01*
X123313000Y-134122000D01*
X123310000Y-134138000D01*
X123300000Y-134168000D01*
X123294000Y-134182000D01*
X123280000Y-134210000D01*
X123272000Y-134223000D01*
X123263000Y-134236000D01*
X123253000Y-134249000D01*
X123243000Y-134261000D01*
X123221000Y-134283000D01*
X123209000Y-134293000D01*
X123196000Y-134303000D01*
X123183000Y-134312000D01*
X123170000Y-134320000D01*
X123142000Y-134334000D01*
X123128000Y-134340000D01*
X123098000Y-134350000D01*
X123082000Y-134353000D01*
X123067000Y-134356000D01*
X123051000Y-134358000D01*
X123036000Y-134360000D01*
X119920000Y-134360000D01*
X119920000Y-132560000D01*
X123036000Y-132560000D01*
X123051000Y-132562000D01*
G37*
X123051000Y-132562000D02*
X123067000Y-132564000D01*
X123082000Y-132567000D01*
X123098000Y-132570000D01*
X123128000Y-132580000D01*
X123142000Y-132586000D01*
X123170000Y-132600000D01*
X123183000Y-132608000D01*
X123196000Y-132617000D01*
X123209000Y-132627000D01*
X123221000Y-132637000D01*
X123243000Y-132659000D01*
X123253000Y-132671000D01*
X123263000Y-132684000D01*
X123272000Y-132697000D01*
X123280000Y-132710000D01*
X123294000Y-132738000D01*
X123300000Y-132752000D01*
X123310000Y-132782000D01*
X123313000Y-132798000D01*
X123316000Y-132813000D01*
X123318000Y-132829000D01*
X123320000Y-132844000D01*
X123320000Y-134076000D01*
X123318000Y-134091000D01*
X123316000Y-134107000D01*
X123313000Y-134122000D01*
X123310000Y-134138000D01*
X123300000Y-134168000D01*
X123294000Y-134182000D01*
X123280000Y-134210000D01*
X123272000Y-134223000D01*
X123263000Y-134236000D01*
X123253000Y-134249000D01*
X123243000Y-134261000D01*
X123221000Y-134283000D01*
X123209000Y-134293000D01*
X123196000Y-134303000D01*
X123183000Y-134312000D01*
X123170000Y-134320000D01*
X123142000Y-134334000D01*
X123128000Y-134340000D01*
X123098000Y-134350000D01*
X123082000Y-134353000D01*
X123067000Y-134356000D01*
X123051000Y-134358000D01*
X123036000Y-134360000D01*
X119920000Y-134360000D01*
X119920000Y-132560000D01*
X123036000Y-132560000D01*
X123051000Y-132562000D01*
G36*
X122467000Y-130021000D02*
G01*
X122514000Y-130025000D01*
X122561000Y-130031000D01*
X122607000Y-130040000D01*
X122653000Y-130051000D01*
X122698000Y-130064000D01*
X122743000Y-130080000D01*
X122786000Y-130098000D01*
X122829000Y-130118000D01*
X122870000Y-130141000D01*
X122910000Y-130165000D01*
X122949000Y-130192000D01*
X122986000Y-130221000D01*
X123022000Y-130251000D01*
X123056000Y-130284000D01*
X123089000Y-130318000D01*
X123119000Y-130354000D01*
X123148000Y-130391000D01*
X123175000Y-130430000D01*
X123199000Y-130470000D01*
X123222000Y-130511000D01*
X123242000Y-130554000D01*
X123260000Y-130597000D01*
X123276000Y-130642000D01*
X123289000Y-130687000D01*
X123300000Y-130733000D01*
X123309000Y-130779000D01*
X123315000Y-130826000D01*
X123319000Y-130873000D01*
X123320000Y-130920000D01*
X123319000Y-130967000D01*
X123315000Y-131014000D01*
X123309000Y-131061000D01*
X123300000Y-131107000D01*
X123289000Y-131153000D01*
X123276000Y-131198000D01*
X123260000Y-131243000D01*
X123242000Y-131286000D01*
X123222000Y-131329000D01*
X123199000Y-131370000D01*
X123175000Y-131410000D01*
X123148000Y-131449000D01*
X123119000Y-131486000D01*
X123089000Y-131522000D01*
X123056000Y-131556000D01*
X123022000Y-131589000D01*
X122986000Y-131619000D01*
X122949000Y-131648000D01*
X122910000Y-131675000D01*
X122870000Y-131699000D01*
X122829000Y-131722000D01*
X122786000Y-131742000D01*
X122743000Y-131760000D01*
X122698000Y-131776000D01*
X122653000Y-131789000D01*
X122607000Y-131800000D01*
X122561000Y-131809000D01*
X122514000Y-131815000D01*
X122467000Y-131819000D01*
X122420000Y-131820000D01*
X119920000Y-131820000D01*
X119920000Y-130020000D01*
X122420000Y-130020000D01*
X122467000Y-130021000D01*
G37*
X122467000Y-130021000D02*
X122514000Y-130025000D01*
X122561000Y-130031000D01*
X122607000Y-130040000D01*
X122653000Y-130051000D01*
X122698000Y-130064000D01*
X122743000Y-130080000D01*
X122786000Y-130098000D01*
X122829000Y-130118000D01*
X122870000Y-130141000D01*
X122910000Y-130165000D01*
X122949000Y-130192000D01*
X122986000Y-130221000D01*
X123022000Y-130251000D01*
X123056000Y-130284000D01*
X123089000Y-130318000D01*
X123119000Y-130354000D01*
X123148000Y-130391000D01*
X123175000Y-130430000D01*
X123199000Y-130470000D01*
X123222000Y-130511000D01*
X123242000Y-130554000D01*
X123260000Y-130597000D01*
X123276000Y-130642000D01*
X123289000Y-130687000D01*
X123300000Y-130733000D01*
X123309000Y-130779000D01*
X123315000Y-130826000D01*
X123319000Y-130873000D01*
X123320000Y-130920000D01*
X123319000Y-130967000D01*
X123315000Y-131014000D01*
X123309000Y-131061000D01*
X123300000Y-131107000D01*
X123289000Y-131153000D01*
X123276000Y-131198000D01*
X123260000Y-131243000D01*
X123242000Y-131286000D01*
X123222000Y-131329000D01*
X123199000Y-131370000D01*
X123175000Y-131410000D01*
X123148000Y-131449000D01*
X123119000Y-131486000D01*
X123089000Y-131522000D01*
X123056000Y-131556000D01*
X123022000Y-131589000D01*
X122986000Y-131619000D01*
X122949000Y-131648000D01*
X122910000Y-131675000D01*
X122870000Y-131699000D01*
X122829000Y-131722000D01*
X122786000Y-131742000D01*
X122743000Y-131760000D01*
X122698000Y-131776000D01*
X122653000Y-131789000D01*
X122607000Y-131800000D01*
X122561000Y-131809000D01*
X122514000Y-131815000D01*
X122467000Y-131819000D01*
X122420000Y-131820000D01*
X119920000Y-131820000D01*
X119920000Y-130020000D01*
X122420000Y-130020000D01*
X122467000Y-130021000D01*
G36*
X122467000Y-142721000D02*
G01*
X122514000Y-142725000D01*
X122561000Y-142731000D01*
X122607000Y-142740000D01*
X122653000Y-142751000D01*
X122698000Y-142764000D01*
X122743000Y-142780000D01*
X122786000Y-142798000D01*
X122829000Y-142818000D01*
X122870000Y-142841000D01*
X122910000Y-142865000D01*
X122949000Y-142892000D01*
X122986000Y-142921000D01*
X123022000Y-142951000D01*
X123056000Y-142984000D01*
X123089000Y-143018000D01*
X123119000Y-143054000D01*
X123148000Y-143091000D01*
X123175000Y-143130000D01*
X123199000Y-143170000D01*
X123222000Y-143211000D01*
X123242000Y-143254000D01*
X123260000Y-143297000D01*
X123276000Y-143342000D01*
X123289000Y-143387000D01*
X123300000Y-143433000D01*
X123309000Y-143479000D01*
X123315000Y-143526000D01*
X123319000Y-143573000D01*
X123320000Y-143620000D01*
X123319000Y-143667000D01*
X123315000Y-143714000D01*
X123309000Y-143761000D01*
X123300000Y-143807000D01*
X123289000Y-143853000D01*
X123276000Y-143898000D01*
X123260000Y-143943000D01*
X123242000Y-143986000D01*
X123222000Y-144029000D01*
X123199000Y-144070000D01*
X123175000Y-144110000D01*
X123148000Y-144149000D01*
X123119000Y-144186000D01*
X123089000Y-144222000D01*
X123056000Y-144256000D01*
X123022000Y-144289000D01*
X122986000Y-144319000D01*
X122949000Y-144348000D01*
X122910000Y-144375000D01*
X122870000Y-144399000D01*
X122829000Y-144422000D01*
X122786000Y-144442000D01*
X122743000Y-144460000D01*
X122698000Y-144476000D01*
X122653000Y-144489000D01*
X122607000Y-144500000D01*
X122561000Y-144509000D01*
X122514000Y-144515000D01*
X122467000Y-144519000D01*
X122420000Y-144520000D01*
X119920000Y-144520000D01*
X119920000Y-142720000D01*
X122420000Y-142720000D01*
X122467000Y-142721000D01*
G37*
X122467000Y-142721000D02*
X122514000Y-142725000D01*
X122561000Y-142731000D01*
X122607000Y-142740000D01*
X122653000Y-142751000D01*
X122698000Y-142764000D01*
X122743000Y-142780000D01*
X122786000Y-142798000D01*
X122829000Y-142818000D01*
X122870000Y-142841000D01*
X122910000Y-142865000D01*
X122949000Y-142892000D01*
X122986000Y-142921000D01*
X123022000Y-142951000D01*
X123056000Y-142984000D01*
X123089000Y-143018000D01*
X123119000Y-143054000D01*
X123148000Y-143091000D01*
X123175000Y-143130000D01*
X123199000Y-143170000D01*
X123222000Y-143211000D01*
X123242000Y-143254000D01*
X123260000Y-143297000D01*
X123276000Y-143342000D01*
X123289000Y-143387000D01*
X123300000Y-143433000D01*
X123309000Y-143479000D01*
X123315000Y-143526000D01*
X123319000Y-143573000D01*
X123320000Y-143620000D01*
X123319000Y-143667000D01*
X123315000Y-143714000D01*
X123309000Y-143761000D01*
X123300000Y-143807000D01*
X123289000Y-143853000D01*
X123276000Y-143898000D01*
X123260000Y-143943000D01*
X123242000Y-143986000D01*
X123222000Y-144029000D01*
X123199000Y-144070000D01*
X123175000Y-144110000D01*
X123148000Y-144149000D01*
X123119000Y-144186000D01*
X123089000Y-144222000D01*
X123056000Y-144256000D01*
X123022000Y-144289000D01*
X122986000Y-144319000D01*
X122949000Y-144348000D01*
X122910000Y-144375000D01*
X122870000Y-144399000D01*
X122829000Y-144422000D01*
X122786000Y-144442000D01*
X122743000Y-144460000D01*
X122698000Y-144476000D01*
X122653000Y-144489000D01*
X122607000Y-144500000D01*
X122561000Y-144509000D01*
X122514000Y-144515000D01*
X122467000Y-144519000D01*
X122420000Y-144520000D01*
X119920000Y-144520000D01*
X119920000Y-142720000D01*
X122420000Y-142720000D01*
X122467000Y-142721000D01*
G36*
X134750000Y-103210000D02*
G01*
X134749000Y-103257000D01*
X134745000Y-103304000D01*
X134739000Y-103351000D01*
X134730000Y-103397000D01*
X134719000Y-103443000D01*
X134706000Y-103488000D01*
X134690000Y-103533000D01*
X134672000Y-103576000D01*
X134652000Y-103619000D01*
X134629000Y-103660000D01*
X134605000Y-103700000D01*
X134578000Y-103739000D01*
X134549000Y-103776000D01*
X134519000Y-103812000D01*
X134486000Y-103846000D01*
X134452000Y-103879000D01*
X134416000Y-103909000D01*
X134379000Y-103938000D01*
X134340000Y-103965000D01*
X134300000Y-103989000D01*
X134259000Y-104012000D01*
X134216000Y-104032000D01*
X134173000Y-104050000D01*
X134128000Y-104066000D01*
X134083000Y-104079000D01*
X134037000Y-104090000D01*
X133991000Y-104099000D01*
X133944000Y-104105000D01*
X133897000Y-104109000D01*
X133850000Y-104110000D01*
X133803000Y-104109000D01*
X133756000Y-104105000D01*
X133709000Y-104099000D01*
X133663000Y-104090000D01*
X133617000Y-104079000D01*
X133572000Y-104066000D01*
X133527000Y-104050000D01*
X133484000Y-104032000D01*
X133441000Y-104012000D01*
X133400000Y-103989000D01*
X133360000Y-103965000D01*
X133321000Y-103938000D01*
X133284000Y-103909000D01*
X133248000Y-103879000D01*
X133214000Y-103846000D01*
X133181000Y-103812000D01*
X133151000Y-103776000D01*
X133122000Y-103739000D01*
X133095000Y-103700000D01*
X133071000Y-103660000D01*
X133048000Y-103619000D01*
X133028000Y-103576000D01*
X133010000Y-103533000D01*
X132994000Y-103488000D01*
X132981000Y-103443000D01*
X132970000Y-103397000D01*
X132961000Y-103351000D01*
X132955000Y-103304000D01*
X132951000Y-103257000D01*
X132950000Y-103210000D01*
X132950000Y-100710000D01*
X134750000Y-100710000D01*
X134750000Y-103210000D01*
G37*
X134750000Y-103210000D02*
X134749000Y-103257000D01*
X134745000Y-103304000D01*
X134739000Y-103351000D01*
X134730000Y-103397000D01*
X134719000Y-103443000D01*
X134706000Y-103488000D01*
X134690000Y-103533000D01*
X134672000Y-103576000D01*
X134652000Y-103619000D01*
X134629000Y-103660000D01*
X134605000Y-103700000D01*
X134578000Y-103739000D01*
X134549000Y-103776000D01*
X134519000Y-103812000D01*
X134486000Y-103846000D01*
X134452000Y-103879000D01*
X134416000Y-103909000D01*
X134379000Y-103938000D01*
X134340000Y-103965000D01*
X134300000Y-103989000D01*
X134259000Y-104012000D01*
X134216000Y-104032000D01*
X134173000Y-104050000D01*
X134128000Y-104066000D01*
X134083000Y-104079000D01*
X134037000Y-104090000D01*
X133991000Y-104099000D01*
X133944000Y-104105000D01*
X133897000Y-104109000D01*
X133850000Y-104110000D01*
X133803000Y-104109000D01*
X133756000Y-104105000D01*
X133709000Y-104099000D01*
X133663000Y-104090000D01*
X133617000Y-104079000D01*
X133572000Y-104066000D01*
X133527000Y-104050000D01*
X133484000Y-104032000D01*
X133441000Y-104012000D01*
X133400000Y-103989000D01*
X133360000Y-103965000D01*
X133321000Y-103938000D01*
X133284000Y-103909000D01*
X133248000Y-103879000D01*
X133214000Y-103846000D01*
X133181000Y-103812000D01*
X133151000Y-103776000D01*
X133122000Y-103739000D01*
X133095000Y-103700000D01*
X133071000Y-103660000D01*
X133048000Y-103619000D01*
X133028000Y-103576000D01*
X133010000Y-103533000D01*
X132994000Y-103488000D01*
X132981000Y-103443000D01*
X132970000Y-103397000D01*
X132961000Y-103351000D01*
X132955000Y-103304000D01*
X132951000Y-103257000D01*
X132950000Y-103210000D01*
X132950000Y-100710000D01*
X134750000Y-100710000D01*
X134750000Y-103210000D01*
G36*
X122467000Y-127481000D02*
G01*
X122514000Y-127485000D01*
X122561000Y-127491000D01*
X122607000Y-127500000D01*
X122653000Y-127511000D01*
X122698000Y-127524000D01*
X122743000Y-127540000D01*
X122786000Y-127558000D01*
X122829000Y-127578000D01*
X122870000Y-127601000D01*
X122910000Y-127625000D01*
X122949000Y-127652000D01*
X122986000Y-127681000D01*
X123022000Y-127711000D01*
X123056000Y-127744000D01*
X123089000Y-127778000D01*
X123119000Y-127814000D01*
X123148000Y-127851000D01*
X123175000Y-127890000D01*
X123199000Y-127930000D01*
X123222000Y-127971000D01*
X123242000Y-128014000D01*
X123260000Y-128057000D01*
X123276000Y-128102000D01*
X123289000Y-128147000D01*
X123300000Y-128193000D01*
X123309000Y-128239000D01*
X123315000Y-128286000D01*
X123319000Y-128333000D01*
X123320000Y-128380000D01*
X123319000Y-128427000D01*
X123315000Y-128474000D01*
X123309000Y-128521000D01*
X123300000Y-128567000D01*
X123289000Y-128613000D01*
X123276000Y-128658000D01*
X123260000Y-128703000D01*
X123242000Y-128746000D01*
X123222000Y-128789000D01*
X123199000Y-128830000D01*
X123175000Y-128870000D01*
X123148000Y-128909000D01*
X123119000Y-128946000D01*
X123089000Y-128982000D01*
X123056000Y-129016000D01*
X123022000Y-129049000D01*
X122986000Y-129079000D01*
X122949000Y-129108000D01*
X122910000Y-129135000D01*
X122870000Y-129159000D01*
X122829000Y-129182000D01*
X122786000Y-129202000D01*
X122743000Y-129220000D01*
X122698000Y-129236000D01*
X122653000Y-129249000D01*
X122607000Y-129260000D01*
X122561000Y-129269000D01*
X122514000Y-129275000D01*
X122467000Y-129279000D01*
X122420000Y-129280000D01*
X119920000Y-129280000D01*
X119920000Y-127480000D01*
X122420000Y-127480000D01*
X122467000Y-127481000D01*
G37*
X122467000Y-127481000D02*
X122514000Y-127485000D01*
X122561000Y-127491000D01*
X122607000Y-127500000D01*
X122653000Y-127511000D01*
X122698000Y-127524000D01*
X122743000Y-127540000D01*
X122786000Y-127558000D01*
X122829000Y-127578000D01*
X122870000Y-127601000D01*
X122910000Y-127625000D01*
X122949000Y-127652000D01*
X122986000Y-127681000D01*
X123022000Y-127711000D01*
X123056000Y-127744000D01*
X123089000Y-127778000D01*
X123119000Y-127814000D01*
X123148000Y-127851000D01*
X123175000Y-127890000D01*
X123199000Y-127930000D01*
X123222000Y-127971000D01*
X123242000Y-128014000D01*
X123260000Y-128057000D01*
X123276000Y-128102000D01*
X123289000Y-128147000D01*
X123300000Y-128193000D01*
X123309000Y-128239000D01*
X123315000Y-128286000D01*
X123319000Y-128333000D01*
X123320000Y-128380000D01*
X123319000Y-128427000D01*
X123315000Y-128474000D01*
X123309000Y-128521000D01*
X123300000Y-128567000D01*
X123289000Y-128613000D01*
X123276000Y-128658000D01*
X123260000Y-128703000D01*
X123242000Y-128746000D01*
X123222000Y-128789000D01*
X123199000Y-128830000D01*
X123175000Y-128870000D01*
X123148000Y-128909000D01*
X123119000Y-128946000D01*
X123089000Y-128982000D01*
X123056000Y-129016000D01*
X123022000Y-129049000D01*
X122986000Y-129079000D01*
X122949000Y-129108000D01*
X122910000Y-129135000D01*
X122870000Y-129159000D01*
X122829000Y-129182000D01*
X122786000Y-129202000D01*
X122743000Y-129220000D01*
X122698000Y-129236000D01*
X122653000Y-129249000D01*
X122607000Y-129260000D01*
X122561000Y-129269000D01*
X122514000Y-129275000D01*
X122467000Y-129279000D01*
X122420000Y-129280000D01*
X119920000Y-129280000D01*
X119920000Y-127480000D01*
X122420000Y-127480000D01*
X122467000Y-127481000D01*
G36*
X142700000Y-121660000D02*
G01*
X139584000Y-121660000D01*
X139569000Y-121658000D01*
X139553000Y-121656000D01*
X139538000Y-121653000D01*
X139522000Y-121650000D01*
X139492000Y-121640000D01*
X139478000Y-121634000D01*
X139450000Y-121620000D01*
X139437000Y-121612000D01*
X139424000Y-121603000D01*
X139411000Y-121593000D01*
X139399000Y-121583000D01*
X139377000Y-121561000D01*
X139367000Y-121549000D01*
X139357000Y-121536000D01*
X139348000Y-121523000D01*
X139340000Y-121510000D01*
X139326000Y-121482000D01*
X139320000Y-121468000D01*
X139310000Y-121438000D01*
X139307000Y-121422000D01*
X139304000Y-121407000D01*
X139302000Y-121391000D01*
X139300000Y-121376000D01*
X139300000Y-120144000D01*
X139302000Y-120129000D01*
X139304000Y-120113000D01*
X139307000Y-120098000D01*
X139310000Y-120082000D01*
X139320000Y-120052000D01*
X139326000Y-120038000D01*
X139340000Y-120010000D01*
X139348000Y-119997000D01*
X139357000Y-119984000D01*
X139367000Y-119971000D01*
X139377000Y-119959000D01*
X139399000Y-119937000D01*
X139411000Y-119927000D01*
X139424000Y-119917000D01*
X139437000Y-119908000D01*
X139450000Y-119900000D01*
X139478000Y-119886000D01*
X139492000Y-119880000D01*
X139522000Y-119870000D01*
X139538000Y-119867000D01*
X139553000Y-119864000D01*
X139569000Y-119862000D01*
X139584000Y-119860000D01*
X142700000Y-119860000D01*
X142700000Y-121660000D01*
G37*
X142700000Y-121660000D02*
X139584000Y-121660000D01*
X139569000Y-121658000D01*
X139553000Y-121656000D01*
X139538000Y-121653000D01*
X139522000Y-121650000D01*
X139492000Y-121640000D01*
X139478000Y-121634000D01*
X139450000Y-121620000D01*
X139437000Y-121612000D01*
X139424000Y-121603000D01*
X139411000Y-121593000D01*
X139399000Y-121583000D01*
X139377000Y-121561000D01*
X139367000Y-121549000D01*
X139357000Y-121536000D01*
X139348000Y-121523000D01*
X139340000Y-121510000D01*
X139326000Y-121482000D01*
X139320000Y-121468000D01*
X139310000Y-121438000D01*
X139307000Y-121422000D01*
X139304000Y-121407000D01*
X139302000Y-121391000D01*
X139300000Y-121376000D01*
X139300000Y-120144000D01*
X139302000Y-120129000D01*
X139304000Y-120113000D01*
X139307000Y-120098000D01*
X139310000Y-120082000D01*
X139320000Y-120052000D01*
X139326000Y-120038000D01*
X139340000Y-120010000D01*
X139348000Y-119997000D01*
X139357000Y-119984000D01*
X139367000Y-119971000D01*
X139377000Y-119959000D01*
X139399000Y-119937000D01*
X139411000Y-119927000D01*
X139424000Y-119917000D01*
X139437000Y-119908000D01*
X139450000Y-119900000D01*
X139478000Y-119886000D01*
X139492000Y-119880000D01*
X139522000Y-119870000D01*
X139538000Y-119867000D01*
X139553000Y-119864000D01*
X139569000Y-119862000D01*
X139584000Y-119860000D01*
X142700000Y-119860000D01*
X142700000Y-121660000D01*
G36*
X142700000Y-129280000D02*
G01*
X140200000Y-129280000D01*
X140153000Y-129279000D01*
X140106000Y-129275000D01*
X140059000Y-129269000D01*
X140013000Y-129260000D01*
X139967000Y-129249000D01*
X139922000Y-129236000D01*
X139877000Y-129220000D01*
X139834000Y-129202000D01*
X139791000Y-129182000D01*
X139750000Y-129159000D01*
X139710000Y-129135000D01*
X139671000Y-129108000D01*
X139634000Y-129079000D01*
X139598000Y-129049000D01*
X139564000Y-129016000D01*
X139531000Y-128982000D01*
X139501000Y-128946000D01*
X139472000Y-128909000D01*
X139445000Y-128870000D01*
X139421000Y-128830000D01*
X139398000Y-128789000D01*
X139378000Y-128746000D01*
X139360000Y-128703000D01*
X139344000Y-128658000D01*
X139331000Y-128613000D01*
X139320000Y-128567000D01*
X139311000Y-128521000D01*
X139305000Y-128474000D01*
X139301000Y-128427000D01*
X139300000Y-128380000D01*
X139301000Y-128333000D01*
X139305000Y-128286000D01*
X139311000Y-128239000D01*
X139320000Y-128193000D01*
X139331000Y-128147000D01*
X139344000Y-128102000D01*
X139360000Y-128057000D01*
X139378000Y-128014000D01*
X139398000Y-127971000D01*
X139421000Y-127930000D01*
X139445000Y-127890000D01*
X139472000Y-127851000D01*
X139501000Y-127814000D01*
X139531000Y-127778000D01*
X139564000Y-127744000D01*
X139598000Y-127711000D01*
X139634000Y-127681000D01*
X139671000Y-127652000D01*
X139710000Y-127625000D01*
X139750000Y-127601000D01*
X139791000Y-127578000D01*
X139834000Y-127558000D01*
X139877000Y-127540000D01*
X139922000Y-127524000D01*
X139967000Y-127511000D01*
X140013000Y-127500000D01*
X140059000Y-127491000D01*
X140106000Y-127485000D01*
X140153000Y-127481000D01*
X140200000Y-127480000D01*
X142700000Y-127480000D01*
X142700000Y-129280000D01*
G37*
X142700000Y-129280000D02*
X140200000Y-129280000D01*
X140153000Y-129279000D01*
X140106000Y-129275000D01*
X140059000Y-129269000D01*
X140013000Y-129260000D01*
X139967000Y-129249000D01*
X139922000Y-129236000D01*
X139877000Y-129220000D01*
X139834000Y-129202000D01*
X139791000Y-129182000D01*
X139750000Y-129159000D01*
X139710000Y-129135000D01*
X139671000Y-129108000D01*
X139634000Y-129079000D01*
X139598000Y-129049000D01*
X139564000Y-129016000D01*
X139531000Y-128982000D01*
X139501000Y-128946000D01*
X139472000Y-128909000D01*
X139445000Y-128870000D01*
X139421000Y-128830000D01*
X139398000Y-128789000D01*
X139378000Y-128746000D01*
X139360000Y-128703000D01*
X139344000Y-128658000D01*
X139331000Y-128613000D01*
X139320000Y-128567000D01*
X139311000Y-128521000D01*
X139305000Y-128474000D01*
X139301000Y-128427000D01*
X139300000Y-128380000D01*
X139301000Y-128333000D01*
X139305000Y-128286000D01*
X139311000Y-128239000D01*
X139320000Y-128193000D01*
X139331000Y-128147000D01*
X139344000Y-128102000D01*
X139360000Y-128057000D01*
X139378000Y-128014000D01*
X139398000Y-127971000D01*
X139421000Y-127930000D01*
X139445000Y-127890000D01*
X139472000Y-127851000D01*
X139501000Y-127814000D01*
X139531000Y-127778000D01*
X139564000Y-127744000D01*
X139598000Y-127711000D01*
X139634000Y-127681000D01*
X139671000Y-127652000D01*
X139710000Y-127625000D01*
X139750000Y-127601000D01*
X139791000Y-127578000D01*
X139834000Y-127558000D01*
X139877000Y-127540000D01*
X139922000Y-127524000D01*
X139967000Y-127511000D01*
X140013000Y-127500000D01*
X140059000Y-127491000D01*
X140106000Y-127485000D01*
X140153000Y-127481000D01*
X140200000Y-127480000D01*
X142700000Y-127480000D01*
X142700000Y-129280000D01*
G36*
X142700000Y-152140000D02*
G01*
X140200000Y-152140000D01*
X140153000Y-152139000D01*
X140106000Y-152135000D01*
X140059000Y-152129000D01*
X140013000Y-152120000D01*
X139967000Y-152109000D01*
X139922000Y-152096000D01*
X139877000Y-152080000D01*
X139834000Y-152062000D01*
X139791000Y-152042000D01*
X139750000Y-152019000D01*
X139710000Y-151995000D01*
X139671000Y-151968000D01*
X139634000Y-151939000D01*
X139598000Y-151909000D01*
X139564000Y-151876000D01*
X139531000Y-151842000D01*
X139501000Y-151806000D01*
X139472000Y-151769000D01*
X139445000Y-151730000D01*
X139421000Y-151690000D01*
X139398000Y-151649000D01*
X139378000Y-151606000D01*
X139360000Y-151563000D01*
X139344000Y-151518000D01*
X139331000Y-151473000D01*
X139320000Y-151427000D01*
X139311000Y-151381000D01*
X139305000Y-151334000D01*
X139301000Y-151287000D01*
X139300000Y-151240000D01*
X139301000Y-151193000D01*
X139305000Y-151146000D01*
X139311000Y-151099000D01*
X139320000Y-151053000D01*
X139331000Y-151007000D01*
X139344000Y-150962000D01*
X139360000Y-150917000D01*
X139378000Y-150874000D01*
X139398000Y-150831000D01*
X139421000Y-150790000D01*
X139445000Y-150750000D01*
X139472000Y-150711000D01*
X139501000Y-150674000D01*
X139531000Y-150638000D01*
X139564000Y-150604000D01*
X139598000Y-150571000D01*
X139634000Y-150541000D01*
X139671000Y-150512000D01*
X139710000Y-150485000D01*
X139750000Y-150461000D01*
X139791000Y-150438000D01*
X139834000Y-150418000D01*
X139877000Y-150400000D01*
X139922000Y-150384000D01*
X139967000Y-150371000D01*
X140013000Y-150360000D01*
X140059000Y-150351000D01*
X140106000Y-150345000D01*
X140153000Y-150341000D01*
X140200000Y-150340000D01*
X142700000Y-150340000D01*
X142700000Y-152140000D01*
G37*
X142700000Y-152140000D02*
X140200000Y-152140000D01*
X140153000Y-152139000D01*
X140106000Y-152135000D01*
X140059000Y-152129000D01*
X140013000Y-152120000D01*
X139967000Y-152109000D01*
X139922000Y-152096000D01*
X139877000Y-152080000D01*
X139834000Y-152062000D01*
X139791000Y-152042000D01*
X139750000Y-152019000D01*
X139710000Y-151995000D01*
X139671000Y-151968000D01*
X139634000Y-151939000D01*
X139598000Y-151909000D01*
X139564000Y-151876000D01*
X139531000Y-151842000D01*
X139501000Y-151806000D01*
X139472000Y-151769000D01*
X139445000Y-151730000D01*
X139421000Y-151690000D01*
X139398000Y-151649000D01*
X139378000Y-151606000D01*
X139360000Y-151563000D01*
X139344000Y-151518000D01*
X139331000Y-151473000D01*
X139320000Y-151427000D01*
X139311000Y-151381000D01*
X139305000Y-151334000D01*
X139301000Y-151287000D01*
X139300000Y-151240000D01*
X139301000Y-151193000D01*
X139305000Y-151146000D01*
X139311000Y-151099000D01*
X139320000Y-151053000D01*
X139331000Y-151007000D01*
X139344000Y-150962000D01*
X139360000Y-150917000D01*
X139378000Y-150874000D01*
X139398000Y-150831000D01*
X139421000Y-150790000D01*
X139445000Y-150750000D01*
X139472000Y-150711000D01*
X139501000Y-150674000D01*
X139531000Y-150638000D01*
X139564000Y-150604000D01*
X139598000Y-150571000D01*
X139634000Y-150541000D01*
X139671000Y-150512000D01*
X139710000Y-150485000D01*
X139750000Y-150461000D01*
X139791000Y-150438000D01*
X139834000Y-150418000D01*
X139877000Y-150400000D01*
X139922000Y-150384000D01*
X139967000Y-150371000D01*
X140013000Y-150360000D01*
X140059000Y-150351000D01*
X140106000Y-150345000D01*
X140153000Y-150341000D01*
X140200000Y-150340000D01*
X142700000Y-150340000D01*
X142700000Y-152140000D01*
G36*
X129670000Y-103210000D02*
G01*
X129669000Y-103257000D01*
X129665000Y-103304000D01*
X129659000Y-103351000D01*
X129650000Y-103397000D01*
X129639000Y-103443000D01*
X129626000Y-103488000D01*
X129610000Y-103533000D01*
X129592000Y-103576000D01*
X129572000Y-103619000D01*
X129549000Y-103660000D01*
X129525000Y-103700000D01*
X129498000Y-103739000D01*
X129469000Y-103776000D01*
X129439000Y-103812000D01*
X129406000Y-103846000D01*
X129372000Y-103879000D01*
X129336000Y-103909000D01*
X129299000Y-103938000D01*
X129260000Y-103965000D01*
X129220000Y-103989000D01*
X129179000Y-104012000D01*
X129136000Y-104032000D01*
X129093000Y-104050000D01*
X129048000Y-104066000D01*
X129003000Y-104079000D01*
X128957000Y-104090000D01*
X128911000Y-104099000D01*
X128864000Y-104105000D01*
X128817000Y-104109000D01*
X128770000Y-104110000D01*
X128723000Y-104109000D01*
X128676000Y-104105000D01*
X128629000Y-104099000D01*
X128583000Y-104090000D01*
X128537000Y-104079000D01*
X128492000Y-104066000D01*
X128447000Y-104050000D01*
X128404000Y-104032000D01*
X128361000Y-104012000D01*
X128320000Y-103989000D01*
X128280000Y-103965000D01*
X128241000Y-103938000D01*
X128204000Y-103909000D01*
X128168000Y-103879000D01*
X128134000Y-103846000D01*
X128101000Y-103812000D01*
X128071000Y-103776000D01*
X128042000Y-103739000D01*
X128015000Y-103700000D01*
X127991000Y-103660000D01*
X127968000Y-103619000D01*
X127948000Y-103576000D01*
X127930000Y-103533000D01*
X127914000Y-103488000D01*
X127901000Y-103443000D01*
X127890000Y-103397000D01*
X127881000Y-103351000D01*
X127875000Y-103304000D01*
X127871000Y-103257000D01*
X127870000Y-103210000D01*
X127870000Y-100710000D01*
X129670000Y-100710000D01*
X129670000Y-103210000D01*
G37*
X129670000Y-103210000D02*
X129669000Y-103257000D01*
X129665000Y-103304000D01*
X129659000Y-103351000D01*
X129650000Y-103397000D01*
X129639000Y-103443000D01*
X129626000Y-103488000D01*
X129610000Y-103533000D01*
X129592000Y-103576000D01*
X129572000Y-103619000D01*
X129549000Y-103660000D01*
X129525000Y-103700000D01*
X129498000Y-103739000D01*
X129469000Y-103776000D01*
X129439000Y-103812000D01*
X129406000Y-103846000D01*
X129372000Y-103879000D01*
X129336000Y-103909000D01*
X129299000Y-103938000D01*
X129260000Y-103965000D01*
X129220000Y-103989000D01*
X129179000Y-104012000D01*
X129136000Y-104032000D01*
X129093000Y-104050000D01*
X129048000Y-104066000D01*
X129003000Y-104079000D01*
X128957000Y-104090000D01*
X128911000Y-104099000D01*
X128864000Y-104105000D01*
X128817000Y-104109000D01*
X128770000Y-104110000D01*
X128723000Y-104109000D01*
X128676000Y-104105000D01*
X128629000Y-104099000D01*
X128583000Y-104090000D01*
X128537000Y-104079000D01*
X128492000Y-104066000D01*
X128447000Y-104050000D01*
X128404000Y-104032000D01*
X128361000Y-104012000D01*
X128320000Y-103989000D01*
X128280000Y-103965000D01*
X128241000Y-103938000D01*
X128204000Y-103909000D01*
X128168000Y-103879000D01*
X128134000Y-103846000D01*
X128101000Y-103812000D01*
X128071000Y-103776000D01*
X128042000Y-103739000D01*
X128015000Y-103700000D01*
X127991000Y-103660000D01*
X127968000Y-103619000D01*
X127948000Y-103576000D01*
X127930000Y-103533000D01*
X127914000Y-103488000D01*
X127901000Y-103443000D01*
X127890000Y-103397000D01*
X127881000Y-103351000D01*
X127875000Y-103304000D01*
X127871000Y-103257000D01*
X127870000Y-103210000D01*
X127870000Y-100710000D01*
X129670000Y-100710000D01*
X129670000Y-103210000D01*
G36*
X142700000Y-139440000D02*
G01*
X140200000Y-139440000D01*
X140153000Y-139439000D01*
X140106000Y-139435000D01*
X140059000Y-139429000D01*
X140013000Y-139420000D01*
X139967000Y-139409000D01*
X139922000Y-139396000D01*
X139877000Y-139380000D01*
X139834000Y-139362000D01*
X139791000Y-139342000D01*
X139750000Y-139319000D01*
X139710000Y-139295000D01*
X139671000Y-139268000D01*
X139634000Y-139239000D01*
X139598000Y-139209000D01*
X139564000Y-139176000D01*
X139531000Y-139142000D01*
X139501000Y-139106000D01*
X139472000Y-139069000D01*
X139445000Y-139030000D01*
X139421000Y-138990000D01*
X139398000Y-138949000D01*
X139378000Y-138906000D01*
X139360000Y-138863000D01*
X139344000Y-138818000D01*
X139331000Y-138773000D01*
X139320000Y-138727000D01*
X139311000Y-138681000D01*
X139305000Y-138634000D01*
X139301000Y-138587000D01*
X139300000Y-138540000D01*
X139301000Y-138493000D01*
X139305000Y-138446000D01*
X139311000Y-138399000D01*
X139320000Y-138353000D01*
X139331000Y-138307000D01*
X139344000Y-138262000D01*
X139360000Y-138217000D01*
X139378000Y-138174000D01*
X139398000Y-138131000D01*
X139421000Y-138090000D01*
X139445000Y-138050000D01*
X139472000Y-138011000D01*
X139501000Y-137974000D01*
X139531000Y-137938000D01*
X139564000Y-137904000D01*
X139598000Y-137871000D01*
X139634000Y-137841000D01*
X139671000Y-137812000D01*
X139710000Y-137785000D01*
X139750000Y-137761000D01*
X139791000Y-137738000D01*
X139834000Y-137718000D01*
X139877000Y-137700000D01*
X139922000Y-137684000D01*
X139967000Y-137671000D01*
X140013000Y-137660000D01*
X140059000Y-137651000D01*
X140106000Y-137645000D01*
X140153000Y-137641000D01*
X140200000Y-137640000D01*
X142700000Y-137640000D01*
X142700000Y-139440000D01*
G37*
X142700000Y-139440000D02*
X140200000Y-139440000D01*
X140153000Y-139439000D01*
X140106000Y-139435000D01*
X140059000Y-139429000D01*
X140013000Y-139420000D01*
X139967000Y-139409000D01*
X139922000Y-139396000D01*
X139877000Y-139380000D01*
X139834000Y-139362000D01*
X139791000Y-139342000D01*
X139750000Y-139319000D01*
X139710000Y-139295000D01*
X139671000Y-139268000D01*
X139634000Y-139239000D01*
X139598000Y-139209000D01*
X139564000Y-139176000D01*
X139531000Y-139142000D01*
X139501000Y-139106000D01*
X139472000Y-139069000D01*
X139445000Y-139030000D01*
X139421000Y-138990000D01*
X139398000Y-138949000D01*
X139378000Y-138906000D01*
X139360000Y-138863000D01*
X139344000Y-138818000D01*
X139331000Y-138773000D01*
X139320000Y-138727000D01*
X139311000Y-138681000D01*
X139305000Y-138634000D01*
X139301000Y-138587000D01*
X139300000Y-138540000D01*
X139301000Y-138493000D01*
X139305000Y-138446000D01*
X139311000Y-138399000D01*
X139320000Y-138353000D01*
X139331000Y-138307000D01*
X139344000Y-138262000D01*
X139360000Y-138217000D01*
X139378000Y-138174000D01*
X139398000Y-138131000D01*
X139421000Y-138090000D01*
X139445000Y-138050000D01*
X139472000Y-138011000D01*
X139501000Y-137974000D01*
X139531000Y-137938000D01*
X139564000Y-137904000D01*
X139598000Y-137871000D01*
X139634000Y-137841000D01*
X139671000Y-137812000D01*
X139710000Y-137785000D01*
X139750000Y-137761000D01*
X139791000Y-137738000D01*
X139834000Y-137718000D01*
X139877000Y-137700000D01*
X139922000Y-137684000D01*
X139967000Y-137671000D01*
X140013000Y-137660000D01*
X140059000Y-137651000D01*
X140106000Y-137645000D01*
X140153000Y-137641000D01*
X140200000Y-137640000D01*
X142700000Y-137640000D01*
X142700000Y-139440000D01*
G36*
X142700000Y-103880000D02*
G01*
X140200000Y-103880000D01*
X140153000Y-103879000D01*
X140106000Y-103875000D01*
X140059000Y-103869000D01*
X140013000Y-103860000D01*
X139967000Y-103849000D01*
X139922000Y-103836000D01*
X139877000Y-103820000D01*
X139834000Y-103802000D01*
X139791000Y-103782000D01*
X139750000Y-103759000D01*
X139710000Y-103735000D01*
X139671000Y-103708000D01*
X139634000Y-103679000D01*
X139598000Y-103649000D01*
X139564000Y-103616000D01*
X139531000Y-103582000D01*
X139501000Y-103546000D01*
X139472000Y-103509000D01*
X139445000Y-103470000D01*
X139421000Y-103430000D01*
X139398000Y-103389000D01*
X139378000Y-103346000D01*
X139360000Y-103303000D01*
X139344000Y-103258000D01*
X139331000Y-103213000D01*
X139320000Y-103167000D01*
X139311000Y-103121000D01*
X139305000Y-103074000D01*
X139301000Y-103027000D01*
X139300000Y-102980000D01*
X139301000Y-102933000D01*
X139305000Y-102886000D01*
X139311000Y-102839000D01*
X139320000Y-102793000D01*
X139331000Y-102747000D01*
X139344000Y-102702000D01*
X139360000Y-102657000D01*
X139378000Y-102614000D01*
X139398000Y-102571000D01*
X139421000Y-102530000D01*
X139445000Y-102490000D01*
X139472000Y-102451000D01*
X139501000Y-102414000D01*
X139531000Y-102378000D01*
X139564000Y-102344000D01*
X139598000Y-102311000D01*
X139634000Y-102281000D01*
X139671000Y-102252000D01*
X139710000Y-102225000D01*
X139750000Y-102201000D01*
X139791000Y-102178000D01*
X139834000Y-102158000D01*
X139877000Y-102140000D01*
X139922000Y-102124000D01*
X139967000Y-102111000D01*
X140013000Y-102100000D01*
X140059000Y-102091000D01*
X140106000Y-102085000D01*
X140153000Y-102081000D01*
X140200000Y-102080000D01*
X142700000Y-102080000D01*
X142700000Y-103880000D01*
G37*
X142700000Y-103880000D02*
X140200000Y-103880000D01*
X140153000Y-103879000D01*
X140106000Y-103875000D01*
X140059000Y-103869000D01*
X140013000Y-103860000D01*
X139967000Y-103849000D01*
X139922000Y-103836000D01*
X139877000Y-103820000D01*
X139834000Y-103802000D01*
X139791000Y-103782000D01*
X139750000Y-103759000D01*
X139710000Y-103735000D01*
X139671000Y-103708000D01*
X139634000Y-103679000D01*
X139598000Y-103649000D01*
X139564000Y-103616000D01*
X139531000Y-103582000D01*
X139501000Y-103546000D01*
X139472000Y-103509000D01*
X139445000Y-103470000D01*
X139421000Y-103430000D01*
X139398000Y-103389000D01*
X139378000Y-103346000D01*
X139360000Y-103303000D01*
X139344000Y-103258000D01*
X139331000Y-103213000D01*
X139320000Y-103167000D01*
X139311000Y-103121000D01*
X139305000Y-103074000D01*
X139301000Y-103027000D01*
X139300000Y-102980000D01*
X139301000Y-102933000D01*
X139305000Y-102886000D01*
X139311000Y-102839000D01*
X139320000Y-102793000D01*
X139331000Y-102747000D01*
X139344000Y-102702000D01*
X139360000Y-102657000D01*
X139378000Y-102614000D01*
X139398000Y-102571000D01*
X139421000Y-102530000D01*
X139445000Y-102490000D01*
X139472000Y-102451000D01*
X139501000Y-102414000D01*
X139531000Y-102378000D01*
X139564000Y-102344000D01*
X139598000Y-102311000D01*
X139634000Y-102281000D01*
X139671000Y-102252000D01*
X139710000Y-102225000D01*
X139750000Y-102201000D01*
X139791000Y-102178000D01*
X139834000Y-102158000D01*
X139877000Y-102140000D01*
X139922000Y-102124000D01*
X139967000Y-102111000D01*
X140013000Y-102100000D01*
X140059000Y-102091000D01*
X140106000Y-102085000D01*
X140153000Y-102081000D01*
X140200000Y-102080000D01*
X142700000Y-102080000D01*
X142700000Y-103880000D01*
G36*
X142700000Y-147060000D02*
G01*
X139584000Y-147060000D01*
X139569000Y-147058000D01*
X139553000Y-147056000D01*
X139538000Y-147053000D01*
X139522000Y-147050000D01*
X139492000Y-147040000D01*
X139478000Y-147034000D01*
X139450000Y-147020000D01*
X139437000Y-147012000D01*
X139424000Y-147003000D01*
X139411000Y-146993000D01*
X139399000Y-146983000D01*
X139377000Y-146961000D01*
X139367000Y-146949000D01*
X139357000Y-146936000D01*
X139348000Y-146923000D01*
X139340000Y-146910000D01*
X139326000Y-146882000D01*
X139320000Y-146868000D01*
X139310000Y-146838000D01*
X139307000Y-146822000D01*
X139304000Y-146807000D01*
X139302000Y-146791000D01*
X139300000Y-146776000D01*
X139300000Y-145544000D01*
X139302000Y-145529000D01*
X139304000Y-145513000D01*
X139307000Y-145498000D01*
X139310000Y-145482000D01*
X139320000Y-145452000D01*
X139326000Y-145438000D01*
X139340000Y-145410000D01*
X139348000Y-145397000D01*
X139357000Y-145384000D01*
X139367000Y-145371000D01*
X139377000Y-145359000D01*
X139399000Y-145337000D01*
X139411000Y-145327000D01*
X139424000Y-145317000D01*
X139437000Y-145308000D01*
X139450000Y-145300000D01*
X139478000Y-145286000D01*
X139492000Y-145280000D01*
X139522000Y-145270000D01*
X139538000Y-145267000D01*
X139553000Y-145264000D01*
X139569000Y-145262000D01*
X139584000Y-145260000D01*
X142700000Y-145260000D01*
X142700000Y-147060000D01*
G37*
X142700000Y-147060000D02*
X139584000Y-147060000D01*
X139569000Y-147058000D01*
X139553000Y-147056000D01*
X139538000Y-147053000D01*
X139522000Y-147050000D01*
X139492000Y-147040000D01*
X139478000Y-147034000D01*
X139450000Y-147020000D01*
X139437000Y-147012000D01*
X139424000Y-147003000D01*
X139411000Y-146993000D01*
X139399000Y-146983000D01*
X139377000Y-146961000D01*
X139367000Y-146949000D01*
X139357000Y-146936000D01*
X139348000Y-146923000D01*
X139340000Y-146910000D01*
X139326000Y-146882000D01*
X139320000Y-146868000D01*
X139310000Y-146838000D01*
X139307000Y-146822000D01*
X139304000Y-146807000D01*
X139302000Y-146791000D01*
X139300000Y-146776000D01*
X139300000Y-145544000D01*
X139302000Y-145529000D01*
X139304000Y-145513000D01*
X139307000Y-145498000D01*
X139310000Y-145482000D01*
X139320000Y-145452000D01*
X139326000Y-145438000D01*
X139340000Y-145410000D01*
X139348000Y-145397000D01*
X139357000Y-145384000D01*
X139367000Y-145371000D01*
X139377000Y-145359000D01*
X139399000Y-145337000D01*
X139411000Y-145327000D01*
X139424000Y-145317000D01*
X139437000Y-145308000D01*
X139450000Y-145300000D01*
X139478000Y-145286000D01*
X139492000Y-145280000D01*
X139522000Y-145270000D01*
X139538000Y-145267000D01*
X139553000Y-145264000D01*
X139569000Y-145262000D01*
X139584000Y-145260000D01*
X142700000Y-145260000D01*
X142700000Y-147060000D01*
G36*
X122467000Y-109701000D02*
G01*
X122514000Y-109705000D01*
X122561000Y-109711000D01*
X122607000Y-109720000D01*
X122653000Y-109731000D01*
X122698000Y-109744000D01*
X122743000Y-109760000D01*
X122786000Y-109778000D01*
X122829000Y-109798000D01*
X122870000Y-109821000D01*
X122910000Y-109845000D01*
X122949000Y-109872000D01*
X122986000Y-109901000D01*
X123022000Y-109931000D01*
X123056000Y-109964000D01*
X123089000Y-109998000D01*
X123119000Y-110034000D01*
X123148000Y-110071000D01*
X123175000Y-110110000D01*
X123199000Y-110150000D01*
X123222000Y-110191000D01*
X123242000Y-110234000D01*
X123260000Y-110277000D01*
X123276000Y-110322000D01*
X123289000Y-110367000D01*
X123300000Y-110413000D01*
X123309000Y-110459000D01*
X123315000Y-110506000D01*
X123319000Y-110553000D01*
X123320000Y-110600000D01*
X123319000Y-110647000D01*
X123315000Y-110694000D01*
X123309000Y-110741000D01*
X123300000Y-110787000D01*
X123289000Y-110833000D01*
X123276000Y-110878000D01*
X123260000Y-110923000D01*
X123242000Y-110966000D01*
X123222000Y-111009000D01*
X123199000Y-111050000D01*
X123175000Y-111090000D01*
X123148000Y-111129000D01*
X123119000Y-111166000D01*
X123089000Y-111202000D01*
X123056000Y-111236000D01*
X123022000Y-111269000D01*
X122986000Y-111299000D01*
X122949000Y-111328000D01*
X122910000Y-111355000D01*
X122870000Y-111379000D01*
X122829000Y-111402000D01*
X122786000Y-111422000D01*
X122743000Y-111440000D01*
X122698000Y-111456000D01*
X122653000Y-111469000D01*
X122607000Y-111480000D01*
X122561000Y-111489000D01*
X122514000Y-111495000D01*
X122467000Y-111499000D01*
X122420000Y-111500000D01*
X119920000Y-111500000D01*
X119920000Y-109700000D01*
X122420000Y-109700000D01*
X122467000Y-109701000D01*
G37*
X122467000Y-109701000D02*
X122514000Y-109705000D01*
X122561000Y-109711000D01*
X122607000Y-109720000D01*
X122653000Y-109731000D01*
X122698000Y-109744000D01*
X122743000Y-109760000D01*
X122786000Y-109778000D01*
X122829000Y-109798000D01*
X122870000Y-109821000D01*
X122910000Y-109845000D01*
X122949000Y-109872000D01*
X122986000Y-109901000D01*
X123022000Y-109931000D01*
X123056000Y-109964000D01*
X123089000Y-109998000D01*
X123119000Y-110034000D01*
X123148000Y-110071000D01*
X123175000Y-110110000D01*
X123199000Y-110150000D01*
X123222000Y-110191000D01*
X123242000Y-110234000D01*
X123260000Y-110277000D01*
X123276000Y-110322000D01*
X123289000Y-110367000D01*
X123300000Y-110413000D01*
X123309000Y-110459000D01*
X123315000Y-110506000D01*
X123319000Y-110553000D01*
X123320000Y-110600000D01*
X123319000Y-110647000D01*
X123315000Y-110694000D01*
X123309000Y-110741000D01*
X123300000Y-110787000D01*
X123289000Y-110833000D01*
X123276000Y-110878000D01*
X123260000Y-110923000D01*
X123242000Y-110966000D01*
X123222000Y-111009000D01*
X123199000Y-111050000D01*
X123175000Y-111090000D01*
X123148000Y-111129000D01*
X123119000Y-111166000D01*
X123089000Y-111202000D01*
X123056000Y-111236000D01*
X123022000Y-111269000D01*
X122986000Y-111299000D01*
X122949000Y-111328000D01*
X122910000Y-111355000D01*
X122870000Y-111379000D01*
X122829000Y-111402000D01*
X122786000Y-111422000D01*
X122743000Y-111440000D01*
X122698000Y-111456000D01*
X122653000Y-111469000D01*
X122607000Y-111480000D01*
X122561000Y-111489000D01*
X122514000Y-111495000D01*
X122467000Y-111499000D01*
X122420000Y-111500000D01*
X119920000Y-111500000D01*
X119920000Y-109700000D01*
X122420000Y-109700000D01*
X122467000Y-109701000D01*
G36*
X122467000Y-122401000D02*
G01*
X122514000Y-122405000D01*
X122561000Y-122411000D01*
X122607000Y-122420000D01*
X122653000Y-122431000D01*
X122698000Y-122444000D01*
X122743000Y-122460000D01*
X122786000Y-122478000D01*
X122829000Y-122498000D01*
X122870000Y-122521000D01*
X122910000Y-122545000D01*
X122949000Y-122572000D01*
X122986000Y-122601000D01*
X123022000Y-122631000D01*
X123056000Y-122664000D01*
X123089000Y-122698000D01*
X123119000Y-122734000D01*
X123148000Y-122771000D01*
X123175000Y-122810000D01*
X123199000Y-122850000D01*
X123222000Y-122891000D01*
X123242000Y-122934000D01*
X123260000Y-122977000D01*
X123276000Y-123022000D01*
X123289000Y-123067000D01*
X123300000Y-123113000D01*
X123309000Y-123159000D01*
X123315000Y-123206000D01*
X123319000Y-123253000D01*
X123320000Y-123300000D01*
X123319000Y-123347000D01*
X123315000Y-123394000D01*
X123309000Y-123441000D01*
X123300000Y-123487000D01*
X123289000Y-123533000D01*
X123276000Y-123578000D01*
X123260000Y-123623000D01*
X123242000Y-123666000D01*
X123222000Y-123709000D01*
X123199000Y-123750000D01*
X123175000Y-123790000D01*
X123148000Y-123829000D01*
X123119000Y-123866000D01*
X123089000Y-123902000D01*
X123056000Y-123936000D01*
X123022000Y-123969000D01*
X122986000Y-123999000D01*
X122949000Y-124028000D01*
X122910000Y-124055000D01*
X122870000Y-124079000D01*
X122829000Y-124102000D01*
X122786000Y-124122000D01*
X122743000Y-124140000D01*
X122698000Y-124156000D01*
X122653000Y-124169000D01*
X122607000Y-124180000D01*
X122561000Y-124189000D01*
X122514000Y-124195000D01*
X122467000Y-124199000D01*
X122420000Y-124200000D01*
X119920000Y-124200000D01*
X119920000Y-122400000D01*
X122420000Y-122400000D01*
X122467000Y-122401000D01*
G37*
X122467000Y-122401000D02*
X122514000Y-122405000D01*
X122561000Y-122411000D01*
X122607000Y-122420000D01*
X122653000Y-122431000D01*
X122698000Y-122444000D01*
X122743000Y-122460000D01*
X122786000Y-122478000D01*
X122829000Y-122498000D01*
X122870000Y-122521000D01*
X122910000Y-122545000D01*
X122949000Y-122572000D01*
X122986000Y-122601000D01*
X123022000Y-122631000D01*
X123056000Y-122664000D01*
X123089000Y-122698000D01*
X123119000Y-122734000D01*
X123148000Y-122771000D01*
X123175000Y-122810000D01*
X123199000Y-122850000D01*
X123222000Y-122891000D01*
X123242000Y-122934000D01*
X123260000Y-122977000D01*
X123276000Y-123022000D01*
X123289000Y-123067000D01*
X123300000Y-123113000D01*
X123309000Y-123159000D01*
X123315000Y-123206000D01*
X123319000Y-123253000D01*
X123320000Y-123300000D01*
X123319000Y-123347000D01*
X123315000Y-123394000D01*
X123309000Y-123441000D01*
X123300000Y-123487000D01*
X123289000Y-123533000D01*
X123276000Y-123578000D01*
X123260000Y-123623000D01*
X123242000Y-123666000D01*
X123222000Y-123709000D01*
X123199000Y-123750000D01*
X123175000Y-123790000D01*
X123148000Y-123829000D01*
X123119000Y-123866000D01*
X123089000Y-123902000D01*
X123056000Y-123936000D01*
X123022000Y-123969000D01*
X122986000Y-123999000D01*
X122949000Y-124028000D01*
X122910000Y-124055000D01*
X122870000Y-124079000D01*
X122829000Y-124102000D01*
X122786000Y-124122000D01*
X122743000Y-124140000D01*
X122698000Y-124156000D01*
X122653000Y-124169000D01*
X122607000Y-124180000D01*
X122561000Y-124189000D01*
X122514000Y-124195000D01*
X122467000Y-124199000D01*
X122420000Y-124200000D01*
X119920000Y-124200000D01*
X119920000Y-122400000D01*
X122420000Y-122400000D01*
X122467000Y-122401000D01*
G36*
X122467000Y-135101000D02*
G01*
X122514000Y-135105000D01*
X122561000Y-135111000D01*
X122607000Y-135120000D01*
X122653000Y-135131000D01*
X122698000Y-135144000D01*
X122743000Y-135160000D01*
X122786000Y-135178000D01*
X122829000Y-135198000D01*
X122870000Y-135221000D01*
X122910000Y-135245000D01*
X122949000Y-135272000D01*
X122986000Y-135301000D01*
X123022000Y-135331000D01*
X123056000Y-135364000D01*
X123089000Y-135398000D01*
X123119000Y-135434000D01*
X123148000Y-135471000D01*
X123175000Y-135510000D01*
X123199000Y-135550000D01*
X123222000Y-135591000D01*
X123242000Y-135634000D01*
X123260000Y-135677000D01*
X123276000Y-135722000D01*
X123289000Y-135767000D01*
X123300000Y-135813000D01*
X123309000Y-135859000D01*
X123315000Y-135906000D01*
X123319000Y-135953000D01*
X123320000Y-136000000D01*
X123319000Y-136047000D01*
X123315000Y-136094000D01*
X123309000Y-136141000D01*
X123300000Y-136187000D01*
X123289000Y-136233000D01*
X123276000Y-136278000D01*
X123260000Y-136323000D01*
X123242000Y-136366000D01*
X123222000Y-136409000D01*
X123199000Y-136450000D01*
X123175000Y-136490000D01*
X123148000Y-136529000D01*
X123119000Y-136566000D01*
X123089000Y-136602000D01*
X123056000Y-136636000D01*
X123022000Y-136669000D01*
X122986000Y-136699000D01*
X122949000Y-136728000D01*
X122910000Y-136755000D01*
X122870000Y-136779000D01*
X122829000Y-136802000D01*
X122786000Y-136822000D01*
X122743000Y-136840000D01*
X122698000Y-136856000D01*
X122653000Y-136869000D01*
X122607000Y-136880000D01*
X122561000Y-136889000D01*
X122514000Y-136895000D01*
X122467000Y-136899000D01*
X122420000Y-136900000D01*
X119920000Y-136900000D01*
X119920000Y-135100000D01*
X122420000Y-135100000D01*
X122467000Y-135101000D01*
G37*
X122467000Y-135101000D02*
X122514000Y-135105000D01*
X122561000Y-135111000D01*
X122607000Y-135120000D01*
X122653000Y-135131000D01*
X122698000Y-135144000D01*
X122743000Y-135160000D01*
X122786000Y-135178000D01*
X122829000Y-135198000D01*
X122870000Y-135221000D01*
X122910000Y-135245000D01*
X122949000Y-135272000D01*
X122986000Y-135301000D01*
X123022000Y-135331000D01*
X123056000Y-135364000D01*
X123089000Y-135398000D01*
X123119000Y-135434000D01*
X123148000Y-135471000D01*
X123175000Y-135510000D01*
X123199000Y-135550000D01*
X123222000Y-135591000D01*
X123242000Y-135634000D01*
X123260000Y-135677000D01*
X123276000Y-135722000D01*
X123289000Y-135767000D01*
X123300000Y-135813000D01*
X123309000Y-135859000D01*
X123315000Y-135906000D01*
X123319000Y-135953000D01*
X123320000Y-136000000D01*
X123319000Y-136047000D01*
X123315000Y-136094000D01*
X123309000Y-136141000D01*
X123300000Y-136187000D01*
X123289000Y-136233000D01*
X123276000Y-136278000D01*
X123260000Y-136323000D01*
X123242000Y-136366000D01*
X123222000Y-136409000D01*
X123199000Y-136450000D01*
X123175000Y-136490000D01*
X123148000Y-136529000D01*
X123119000Y-136566000D01*
X123089000Y-136602000D01*
X123056000Y-136636000D01*
X123022000Y-136669000D01*
X122986000Y-136699000D01*
X122949000Y-136728000D01*
X122910000Y-136755000D01*
X122870000Y-136779000D01*
X122829000Y-136802000D01*
X122786000Y-136822000D01*
X122743000Y-136840000D01*
X122698000Y-136856000D01*
X122653000Y-136869000D01*
X122607000Y-136880000D01*
X122561000Y-136889000D01*
X122514000Y-136895000D01*
X122467000Y-136899000D01*
X122420000Y-136900000D01*
X119920000Y-136900000D01*
X119920000Y-135100000D01*
X122420000Y-135100000D01*
X122467000Y-135101000D01*
G36*
X123051000Y-107162000D02*
G01*
X123067000Y-107164000D01*
X123082000Y-107167000D01*
X123098000Y-107170000D01*
X123128000Y-107180000D01*
X123142000Y-107186000D01*
X123170000Y-107200000D01*
X123183000Y-107208000D01*
X123196000Y-107217000D01*
X123209000Y-107227000D01*
X123221000Y-107237000D01*
X123243000Y-107259000D01*
X123253000Y-107271000D01*
X123263000Y-107284000D01*
X123272000Y-107297000D01*
X123280000Y-107310000D01*
X123294000Y-107338000D01*
X123300000Y-107352000D01*
X123310000Y-107382000D01*
X123313000Y-107398000D01*
X123316000Y-107413000D01*
X123318000Y-107429000D01*
X123320000Y-107444000D01*
X123320000Y-108676000D01*
X123318000Y-108691000D01*
X123316000Y-108707000D01*
X123313000Y-108722000D01*
X123310000Y-108738000D01*
X123300000Y-108768000D01*
X123294000Y-108782000D01*
X123280000Y-108810000D01*
X123272000Y-108823000D01*
X123263000Y-108836000D01*
X123253000Y-108849000D01*
X123243000Y-108861000D01*
X123221000Y-108883000D01*
X123209000Y-108893000D01*
X123196000Y-108903000D01*
X123183000Y-108912000D01*
X123170000Y-108920000D01*
X123142000Y-108934000D01*
X123128000Y-108940000D01*
X123098000Y-108950000D01*
X123082000Y-108953000D01*
X123067000Y-108956000D01*
X123051000Y-108958000D01*
X123036000Y-108960000D01*
X119920000Y-108960000D01*
X119920000Y-107160000D01*
X123036000Y-107160000D01*
X123051000Y-107162000D01*
G37*
X123051000Y-107162000D02*
X123067000Y-107164000D01*
X123082000Y-107167000D01*
X123098000Y-107170000D01*
X123128000Y-107180000D01*
X123142000Y-107186000D01*
X123170000Y-107200000D01*
X123183000Y-107208000D01*
X123196000Y-107217000D01*
X123209000Y-107227000D01*
X123221000Y-107237000D01*
X123243000Y-107259000D01*
X123253000Y-107271000D01*
X123263000Y-107284000D01*
X123272000Y-107297000D01*
X123280000Y-107310000D01*
X123294000Y-107338000D01*
X123300000Y-107352000D01*
X123310000Y-107382000D01*
X123313000Y-107398000D01*
X123316000Y-107413000D01*
X123318000Y-107429000D01*
X123320000Y-107444000D01*
X123320000Y-108676000D01*
X123318000Y-108691000D01*
X123316000Y-108707000D01*
X123313000Y-108722000D01*
X123310000Y-108738000D01*
X123300000Y-108768000D01*
X123294000Y-108782000D01*
X123280000Y-108810000D01*
X123272000Y-108823000D01*
X123263000Y-108836000D01*
X123253000Y-108849000D01*
X123243000Y-108861000D01*
X123221000Y-108883000D01*
X123209000Y-108893000D01*
X123196000Y-108903000D01*
X123183000Y-108912000D01*
X123170000Y-108920000D01*
X123142000Y-108934000D01*
X123128000Y-108940000D01*
X123098000Y-108950000D01*
X123082000Y-108953000D01*
X123067000Y-108956000D01*
X123051000Y-108958000D01*
X123036000Y-108960000D01*
X119920000Y-108960000D01*
X119920000Y-107160000D01*
X123036000Y-107160000D01*
X123051000Y-107162000D01*
G36*
X123051000Y-119862000D02*
G01*
X123067000Y-119864000D01*
X123082000Y-119867000D01*
X123098000Y-119870000D01*
X123128000Y-119880000D01*
X123142000Y-119886000D01*
X123170000Y-119900000D01*
X123183000Y-119908000D01*
X123196000Y-119917000D01*
X123209000Y-119927000D01*
X123221000Y-119937000D01*
X123243000Y-119959000D01*
X123253000Y-119971000D01*
X123263000Y-119984000D01*
X123272000Y-119997000D01*
X123280000Y-120010000D01*
X123294000Y-120038000D01*
X123300000Y-120052000D01*
X123310000Y-120082000D01*
X123313000Y-120098000D01*
X123316000Y-120113000D01*
X123318000Y-120129000D01*
X123320000Y-120144000D01*
X123320000Y-121376000D01*
X123318000Y-121391000D01*
X123316000Y-121407000D01*
X123313000Y-121422000D01*
X123310000Y-121438000D01*
X123300000Y-121468000D01*
X123294000Y-121482000D01*
X123280000Y-121510000D01*
X123272000Y-121523000D01*
X123263000Y-121536000D01*
X123253000Y-121549000D01*
X123243000Y-121561000D01*
X123221000Y-121583000D01*
X123209000Y-121593000D01*
X123196000Y-121603000D01*
X123183000Y-121612000D01*
X123170000Y-121620000D01*
X123142000Y-121634000D01*
X123128000Y-121640000D01*
X123098000Y-121650000D01*
X123082000Y-121653000D01*
X123067000Y-121656000D01*
X123051000Y-121658000D01*
X123036000Y-121660000D01*
X119920000Y-121660000D01*
X119920000Y-119860000D01*
X123036000Y-119860000D01*
X123051000Y-119862000D01*
G37*
X123051000Y-119862000D02*
X123067000Y-119864000D01*
X123082000Y-119867000D01*
X123098000Y-119870000D01*
X123128000Y-119880000D01*
X123142000Y-119886000D01*
X123170000Y-119900000D01*
X123183000Y-119908000D01*
X123196000Y-119917000D01*
X123209000Y-119927000D01*
X123221000Y-119937000D01*
X123243000Y-119959000D01*
X123253000Y-119971000D01*
X123263000Y-119984000D01*
X123272000Y-119997000D01*
X123280000Y-120010000D01*
X123294000Y-120038000D01*
X123300000Y-120052000D01*
X123310000Y-120082000D01*
X123313000Y-120098000D01*
X123316000Y-120113000D01*
X123318000Y-120129000D01*
X123320000Y-120144000D01*
X123320000Y-121376000D01*
X123318000Y-121391000D01*
X123316000Y-121407000D01*
X123313000Y-121422000D01*
X123310000Y-121438000D01*
X123300000Y-121468000D01*
X123294000Y-121482000D01*
X123280000Y-121510000D01*
X123272000Y-121523000D01*
X123263000Y-121536000D01*
X123253000Y-121549000D01*
X123243000Y-121561000D01*
X123221000Y-121583000D01*
X123209000Y-121593000D01*
X123196000Y-121603000D01*
X123183000Y-121612000D01*
X123170000Y-121620000D01*
X123142000Y-121634000D01*
X123128000Y-121640000D01*
X123098000Y-121650000D01*
X123082000Y-121653000D01*
X123067000Y-121656000D01*
X123051000Y-121658000D01*
X123036000Y-121660000D01*
X119920000Y-121660000D01*
X119920000Y-119860000D01*
X123036000Y-119860000D01*
X123051000Y-119862000D01*
G36*
X132210000Y-103826000D02*
G01*
X132208000Y-103841000D01*
X132206000Y-103857000D01*
X132203000Y-103872000D01*
X132200000Y-103888000D01*
X132190000Y-103918000D01*
X132184000Y-103932000D01*
X132170000Y-103960000D01*
X132162000Y-103973000D01*
X132153000Y-103986000D01*
X132143000Y-103999000D01*
X132133000Y-104011000D01*
X132111000Y-104033000D01*
X132099000Y-104043000D01*
X132086000Y-104053000D01*
X132073000Y-104062000D01*
X132060000Y-104070000D01*
X132032000Y-104084000D01*
X132018000Y-104090000D01*
X131988000Y-104100000D01*
X131972000Y-104103000D01*
X131957000Y-104106000D01*
X131941000Y-104108000D01*
X131926000Y-104110000D01*
X130694000Y-104110000D01*
X130679000Y-104108000D01*
X130663000Y-104106000D01*
X130648000Y-104103000D01*
X130632000Y-104100000D01*
X130602000Y-104090000D01*
X130588000Y-104084000D01*
X130560000Y-104070000D01*
X130547000Y-104062000D01*
X130534000Y-104053000D01*
X130521000Y-104043000D01*
X130509000Y-104033000D01*
X130487000Y-104011000D01*
X130477000Y-103999000D01*
X130467000Y-103986000D01*
X130458000Y-103973000D01*
X130450000Y-103960000D01*
X130436000Y-103932000D01*
X130430000Y-103918000D01*
X130420000Y-103888000D01*
X130417000Y-103872000D01*
X130414000Y-103857000D01*
X130412000Y-103841000D01*
X130410000Y-103826000D01*
X130410000Y-100710000D01*
X132210000Y-100710000D01*
X132210000Y-103826000D01*
G37*
X132210000Y-103826000D02*
X132208000Y-103841000D01*
X132206000Y-103857000D01*
X132203000Y-103872000D01*
X132200000Y-103888000D01*
X132190000Y-103918000D01*
X132184000Y-103932000D01*
X132170000Y-103960000D01*
X132162000Y-103973000D01*
X132153000Y-103986000D01*
X132143000Y-103999000D01*
X132133000Y-104011000D01*
X132111000Y-104033000D01*
X132099000Y-104043000D01*
X132086000Y-104053000D01*
X132073000Y-104062000D01*
X132060000Y-104070000D01*
X132032000Y-104084000D01*
X132018000Y-104090000D01*
X131988000Y-104100000D01*
X131972000Y-104103000D01*
X131957000Y-104106000D01*
X131941000Y-104108000D01*
X131926000Y-104110000D01*
X130694000Y-104110000D01*
X130679000Y-104108000D01*
X130663000Y-104106000D01*
X130648000Y-104103000D01*
X130632000Y-104100000D01*
X130602000Y-104090000D01*
X130588000Y-104084000D01*
X130560000Y-104070000D01*
X130547000Y-104062000D01*
X130534000Y-104053000D01*
X130521000Y-104043000D01*
X130509000Y-104033000D01*
X130487000Y-104011000D01*
X130477000Y-103999000D01*
X130467000Y-103986000D01*
X130458000Y-103973000D01*
X130450000Y-103960000D01*
X130436000Y-103932000D01*
X130430000Y-103918000D01*
X130420000Y-103888000D01*
X130417000Y-103872000D01*
X130414000Y-103857000D01*
X130412000Y-103841000D01*
X130410000Y-103826000D01*
X130410000Y-100710000D01*
X132210000Y-100710000D01*
X132210000Y-103826000D01*
G36*
X122467000Y-137641000D02*
G01*
X122514000Y-137645000D01*
X122561000Y-137651000D01*
X122607000Y-137660000D01*
X122653000Y-137671000D01*
X122698000Y-137684000D01*
X122743000Y-137700000D01*
X122786000Y-137718000D01*
X122829000Y-137738000D01*
X122870000Y-137761000D01*
X122910000Y-137785000D01*
X122949000Y-137812000D01*
X122986000Y-137841000D01*
X123022000Y-137871000D01*
X123056000Y-137904000D01*
X123089000Y-137938000D01*
X123119000Y-137974000D01*
X123148000Y-138011000D01*
X123175000Y-138050000D01*
X123199000Y-138090000D01*
X123222000Y-138131000D01*
X123242000Y-138174000D01*
X123260000Y-138217000D01*
X123276000Y-138262000D01*
X123289000Y-138307000D01*
X123300000Y-138353000D01*
X123309000Y-138399000D01*
X123315000Y-138446000D01*
X123319000Y-138493000D01*
X123320000Y-138540000D01*
X123319000Y-138587000D01*
X123315000Y-138634000D01*
X123309000Y-138681000D01*
X123300000Y-138727000D01*
X123289000Y-138773000D01*
X123276000Y-138818000D01*
X123260000Y-138863000D01*
X123242000Y-138906000D01*
X123222000Y-138949000D01*
X123199000Y-138990000D01*
X123175000Y-139030000D01*
X123148000Y-139069000D01*
X123119000Y-139106000D01*
X123089000Y-139142000D01*
X123056000Y-139176000D01*
X123022000Y-139209000D01*
X122986000Y-139239000D01*
X122949000Y-139268000D01*
X122910000Y-139295000D01*
X122870000Y-139319000D01*
X122829000Y-139342000D01*
X122786000Y-139362000D01*
X122743000Y-139380000D01*
X122698000Y-139396000D01*
X122653000Y-139409000D01*
X122607000Y-139420000D01*
X122561000Y-139429000D01*
X122514000Y-139435000D01*
X122467000Y-139439000D01*
X122420000Y-139440000D01*
X119920000Y-139440000D01*
X119920000Y-137640000D01*
X122420000Y-137640000D01*
X122467000Y-137641000D01*
G37*
X122467000Y-137641000D02*
X122514000Y-137645000D01*
X122561000Y-137651000D01*
X122607000Y-137660000D01*
X122653000Y-137671000D01*
X122698000Y-137684000D01*
X122743000Y-137700000D01*
X122786000Y-137718000D01*
X122829000Y-137738000D01*
X122870000Y-137761000D01*
X122910000Y-137785000D01*
X122949000Y-137812000D01*
X122986000Y-137841000D01*
X123022000Y-137871000D01*
X123056000Y-137904000D01*
X123089000Y-137938000D01*
X123119000Y-137974000D01*
X123148000Y-138011000D01*
X123175000Y-138050000D01*
X123199000Y-138090000D01*
X123222000Y-138131000D01*
X123242000Y-138174000D01*
X123260000Y-138217000D01*
X123276000Y-138262000D01*
X123289000Y-138307000D01*
X123300000Y-138353000D01*
X123309000Y-138399000D01*
X123315000Y-138446000D01*
X123319000Y-138493000D01*
X123320000Y-138540000D01*
X123319000Y-138587000D01*
X123315000Y-138634000D01*
X123309000Y-138681000D01*
X123300000Y-138727000D01*
X123289000Y-138773000D01*
X123276000Y-138818000D01*
X123260000Y-138863000D01*
X123242000Y-138906000D01*
X123222000Y-138949000D01*
X123199000Y-138990000D01*
X123175000Y-139030000D01*
X123148000Y-139069000D01*
X123119000Y-139106000D01*
X123089000Y-139142000D01*
X123056000Y-139176000D01*
X123022000Y-139209000D01*
X122986000Y-139239000D01*
X122949000Y-139268000D01*
X122910000Y-139295000D01*
X122870000Y-139319000D01*
X122829000Y-139342000D01*
X122786000Y-139362000D01*
X122743000Y-139380000D01*
X122698000Y-139396000D01*
X122653000Y-139409000D01*
X122607000Y-139420000D01*
X122561000Y-139429000D01*
X122514000Y-139435000D01*
X122467000Y-139439000D01*
X122420000Y-139440000D01*
X119920000Y-139440000D01*
X119920000Y-137640000D01*
X122420000Y-137640000D01*
X122467000Y-137641000D01*
G36*
X122467000Y-102081000D02*
G01*
X122514000Y-102085000D01*
X122561000Y-102091000D01*
X122607000Y-102100000D01*
X122653000Y-102111000D01*
X122698000Y-102124000D01*
X122743000Y-102140000D01*
X122786000Y-102158000D01*
X122829000Y-102178000D01*
X122870000Y-102201000D01*
X122910000Y-102225000D01*
X122949000Y-102252000D01*
X122986000Y-102281000D01*
X123022000Y-102311000D01*
X123056000Y-102344000D01*
X123089000Y-102378000D01*
X123119000Y-102414000D01*
X123148000Y-102451000D01*
X123175000Y-102490000D01*
X123199000Y-102530000D01*
X123222000Y-102571000D01*
X123242000Y-102614000D01*
X123260000Y-102657000D01*
X123276000Y-102702000D01*
X123289000Y-102747000D01*
X123300000Y-102793000D01*
X123309000Y-102839000D01*
X123315000Y-102886000D01*
X123319000Y-102933000D01*
X123320000Y-102980000D01*
X123319000Y-103027000D01*
X123315000Y-103074000D01*
X123309000Y-103121000D01*
X123300000Y-103167000D01*
X123289000Y-103213000D01*
X123276000Y-103258000D01*
X123260000Y-103303000D01*
X123242000Y-103346000D01*
X123222000Y-103389000D01*
X123199000Y-103430000D01*
X123175000Y-103470000D01*
X123148000Y-103509000D01*
X123119000Y-103546000D01*
X123089000Y-103582000D01*
X123056000Y-103616000D01*
X123022000Y-103649000D01*
X122986000Y-103679000D01*
X122949000Y-103708000D01*
X122910000Y-103735000D01*
X122870000Y-103759000D01*
X122829000Y-103782000D01*
X122786000Y-103802000D01*
X122743000Y-103820000D01*
X122698000Y-103836000D01*
X122653000Y-103849000D01*
X122607000Y-103860000D01*
X122561000Y-103869000D01*
X122514000Y-103875000D01*
X122467000Y-103879000D01*
X122420000Y-103880000D01*
X119920000Y-103880000D01*
X119920000Y-102080000D01*
X122420000Y-102080000D01*
X122467000Y-102081000D01*
G37*
X122467000Y-102081000D02*
X122514000Y-102085000D01*
X122561000Y-102091000D01*
X122607000Y-102100000D01*
X122653000Y-102111000D01*
X122698000Y-102124000D01*
X122743000Y-102140000D01*
X122786000Y-102158000D01*
X122829000Y-102178000D01*
X122870000Y-102201000D01*
X122910000Y-102225000D01*
X122949000Y-102252000D01*
X122986000Y-102281000D01*
X123022000Y-102311000D01*
X123056000Y-102344000D01*
X123089000Y-102378000D01*
X123119000Y-102414000D01*
X123148000Y-102451000D01*
X123175000Y-102490000D01*
X123199000Y-102530000D01*
X123222000Y-102571000D01*
X123242000Y-102614000D01*
X123260000Y-102657000D01*
X123276000Y-102702000D01*
X123289000Y-102747000D01*
X123300000Y-102793000D01*
X123309000Y-102839000D01*
X123315000Y-102886000D01*
X123319000Y-102933000D01*
X123320000Y-102980000D01*
X123319000Y-103027000D01*
X123315000Y-103074000D01*
X123309000Y-103121000D01*
X123300000Y-103167000D01*
X123289000Y-103213000D01*
X123276000Y-103258000D01*
X123260000Y-103303000D01*
X123242000Y-103346000D01*
X123222000Y-103389000D01*
X123199000Y-103430000D01*
X123175000Y-103470000D01*
X123148000Y-103509000D01*
X123119000Y-103546000D01*
X123089000Y-103582000D01*
X123056000Y-103616000D01*
X123022000Y-103649000D01*
X122986000Y-103679000D01*
X122949000Y-103708000D01*
X122910000Y-103735000D01*
X122870000Y-103759000D01*
X122829000Y-103782000D01*
X122786000Y-103802000D01*
X122743000Y-103820000D01*
X122698000Y-103836000D01*
X122653000Y-103849000D01*
X122607000Y-103860000D01*
X122561000Y-103869000D01*
X122514000Y-103875000D01*
X122467000Y-103879000D01*
X122420000Y-103880000D01*
X119920000Y-103880000D01*
X119920000Y-102080000D01*
X122420000Y-102080000D01*
X122467000Y-102081000D01*
G36*
X122467000Y-104621000D02*
G01*
X122514000Y-104625000D01*
X122561000Y-104631000D01*
X122607000Y-104640000D01*
X122653000Y-104651000D01*
X122698000Y-104664000D01*
X122743000Y-104680000D01*
X122786000Y-104698000D01*
X122829000Y-104718000D01*
X122870000Y-104741000D01*
X122910000Y-104765000D01*
X122949000Y-104792000D01*
X122986000Y-104821000D01*
X123022000Y-104851000D01*
X123056000Y-104884000D01*
X123089000Y-104918000D01*
X123119000Y-104954000D01*
X123148000Y-104991000D01*
X123175000Y-105030000D01*
X123199000Y-105070000D01*
X123222000Y-105111000D01*
X123242000Y-105154000D01*
X123260000Y-105197000D01*
X123276000Y-105242000D01*
X123289000Y-105287000D01*
X123300000Y-105333000D01*
X123309000Y-105379000D01*
X123315000Y-105426000D01*
X123319000Y-105473000D01*
X123320000Y-105520000D01*
X123319000Y-105567000D01*
X123315000Y-105614000D01*
X123309000Y-105661000D01*
X123300000Y-105707000D01*
X123289000Y-105753000D01*
X123276000Y-105798000D01*
X123260000Y-105843000D01*
X123242000Y-105886000D01*
X123222000Y-105929000D01*
X123199000Y-105970000D01*
X123175000Y-106010000D01*
X123148000Y-106049000D01*
X123119000Y-106086000D01*
X123089000Y-106122000D01*
X123056000Y-106156000D01*
X123022000Y-106189000D01*
X122986000Y-106219000D01*
X122949000Y-106248000D01*
X122910000Y-106275000D01*
X122870000Y-106299000D01*
X122829000Y-106322000D01*
X122786000Y-106342000D01*
X122743000Y-106360000D01*
X122698000Y-106376000D01*
X122653000Y-106389000D01*
X122607000Y-106400000D01*
X122561000Y-106409000D01*
X122514000Y-106415000D01*
X122467000Y-106419000D01*
X122420000Y-106420000D01*
X119920000Y-106420000D01*
X119920000Y-104620000D01*
X122420000Y-104620000D01*
X122467000Y-104621000D01*
G37*
X122467000Y-104621000D02*
X122514000Y-104625000D01*
X122561000Y-104631000D01*
X122607000Y-104640000D01*
X122653000Y-104651000D01*
X122698000Y-104664000D01*
X122743000Y-104680000D01*
X122786000Y-104698000D01*
X122829000Y-104718000D01*
X122870000Y-104741000D01*
X122910000Y-104765000D01*
X122949000Y-104792000D01*
X122986000Y-104821000D01*
X123022000Y-104851000D01*
X123056000Y-104884000D01*
X123089000Y-104918000D01*
X123119000Y-104954000D01*
X123148000Y-104991000D01*
X123175000Y-105030000D01*
X123199000Y-105070000D01*
X123222000Y-105111000D01*
X123242000Y-105154000D01*
X123260000Y-105197000D01*
X123276000Y-105242000D01*
X123289000Y-105287000D01*
X123300000Y-105333000D01*
X123309000Y-105379000D01*
X123315000Y-105426000D01*
X123319000Y-105473000D01*
X123320000Y-105520000D01*
X123319000Y-105567000D01*
X123315000Y-105614000D01*
X123309000Y-105661000D01*
X123300000Y-105707000D01*
X123289000Y-105753000D01*
X123276000Y-105798000D01*
X123260000Y-105843000D01*
X123242000Y-105886000D01*
X123222000Y-105929000D01*
X123199000Y-105970000D01*
X123175000Y-106010000D01*
X123148000Y-106049000D01*
X123119000Y-106086000D01*
X123089000Y-106122000D01*
X123056000Y-106156000D01*
X123022000Y-106189000D01*
X122986000Y-106219000D01*
X122949000Y-106248000D01*
X122910000Y-106275000D01*
X122870000Y-106299000D01*
X122829000Y-106322000D01*
X122786000Y-106342000D01*
X122743000Y-106360000D01*
X122698000Y-106376000D01*
X122653000Y-106389000D01*
X122607000Y-106400000D01*
X122561000Y-106409000D01*
X122514000Y-106415000D01*
X122467000Y-106419000D01*
X122420000Y-106420000D01*
X119920000Y-106420000D01*
X119920000Y-104620000D01*
X122420000Y-104620000D01*
X122467000Y-104621000D01*
G36*
X142700000Y-119120000D02*
G01*
X140200000Y-119120000D01*
X140153000Y-119119000D01*
X140106000Y-119115000D01*
X140059000Y-119109000D01*
X140013000Y-119100000D01*
X139967000Y-119089000D01*
X139922000Y-119076000D01*
X139877000Y-119060000D01*
X139834000Y-119042000D01*
X139791000Y-119022000D01*
X139750000Y-118999000D01*
X139710000Y-118975000D01*
X139671000Y-118948000D01*
X139634000Y-118919000D01*
X139598000Y-118889000D01*
X139564000Y-118856000D01*
X139531000Y-118822000D01*
X139501000Y-118786000D01*
X139472000Y-118749000D01*
X139445000Y-118710000D01*
X139421000Y-118670000D01*
X139398000Y-118629000D01*
X139378000Y-118586000D01*
X139360000Y-118543000D01*
X139344000Y-118498000D01*
X139331000Y-118453000D01*
X139320000Y-118407000D01*
X139311000Y-118361000D01*
X139305000Y-118314000D01*
X139301000Y-118267000D01*
X139300000Y-118220000D01*
X139301000Y-118173000D01*
X139305000Y-118126000D01*
X139311000Y-118079000D01*
X139320000Y-118033000D01*
X139331000Y-117987000D01*
X139344000Y-117942000D01*
X139360000Y-117897000D01*
X139378000Y-117854000D01*
X139398000Y-117811000D01*
X139421000Y-117770000D01*
X139445000Y-117730000D01*
X139472000Y-117691000D01*
X139501000Y-117654000D01*
X139531000Y-117618000D01*
X139564000Y-117584000D01*
X139598000Y-117551000D01*
X139634000Y-117521000D01*
X139671000Y-117492000D01*
X139710000Y-117465000D01*
X139750000Y-117441000D01*
X139791000Y-117418000D01*
X139834000Y-117398000D01*
X139877000Y-117380000D01*
X139922000Y-117364000D01*
X139967000Y-117351000D01*
X140013000Y-117340000D01*
X140059000Y-117331000D01*
X140106000Y-117325000D01*
X140153000Y-117321000D01*
X140200000Y-117320000D01*
X142700000Y-117320000D01*
X142700000Y-119120000D01*
G37*
X142700000Y-119120000D02*
X140200000Y-119120000D01*
X140153000Y-119119000D01*
X140106000Y-119115000D01*
X140059000Y-119109000D01*
X140013000Y-119100000D01*
X139967000Y-119089000D01*
X139922000Y-119076000D01*
X139877000Y-119060000D01*
X139834000Y-119042000D01*
X139791000Y-119022000D01*
X139750000Y-118999000D01*
X139710000Y-118975000D01*
X139671000Y-118948000D01*
X139634000Y-118919000D01*
X139598000Y-118889000D01*
X139564000Y-118856000D01*
X139531000Y-118822000D01*
X139501000Y-118786000D01*
X139472000Y-118749000D01*
X139445000Y-118710000D01*
X139421000Y-118670000D01*
X139398000Y-118629000D01*
X139378000Y-118586000D01*
X139360000Y-118543000D01*
X139344000Y-118498000D01*
X139331000Y-118453000D01*
X139320000Y-118407000D01*
X139311000Y-118361000D01*
X139305000Y-118314000D01*
X139301000Y-118267000D01*
X139300000Y-118220000D01*
X139301000Y-118173000D01*
X139305000Y-118126000D01*
X139311000Y-118079000D01*
X139320000Y-118033000D01*
X139331000Y-117987000D01*
X139344000Y-117942000D01*
X139360000Y-117897000D01*
X139378000Y-117854000D01*
X139398000Y-117811000D01*
X139421000Y-117770000D01*
X139445000Y-117730000D01*
X139472000Y-117691000D01*
X139501000Y-117654000D01*
X139531000Y-117618000D01*
X139564000Y-117584000D01*
X139598000Y-117551000D01*
X139634000Y-117521000D01*
X139671000Y-117492000D01*
X139710000Y-117465000D01*
X139750000Y-117441000D01*
X139791000Y-117418000D01*
X139834000Y-117398000D01*
X139877000Y-117380000D01*
X139922000Y-117364000D01*
X139967000Y-117351000D01*
X140013000Y-117340000D01*
X140059000Y-117331000D01*
X140106000Y-117325000D01*
X140153000Y-117321000D01*
X140200000Y-117320000D01*
X142700000Y-117320000D01*
X142700000Y-119120000D01*
G36*
X122467000Y-117321000D02*
G01*
X122514000Y-117325000D01*
X122561000Y-117331000D01*
X122607000Y-117340000D01*
X122653000Y-117351000D01*
X122698000Y-117364000D01*
X122743000Y-117380000D01*
X122786000Y-117398000D01*
X122829000Y-117418000D01*
X122870000Y-117441000D01*
X122910000Y-117465000D01*
X122949000Y-117492000D01*
X122986000Y-117521000D01*
X123022000Y-117551000D01*
X123056000Y-117584000D01*
X123089000Y-117618000D01*
X123119000Y-117654000D01*
X123148000Y-117691000D01*
X123175000Y-117730000D01*
X123199000Y-117770000D01*
X123222000Y-117811000D01*
X123242000Y-117854000D01*
X123260000Y-117897000D01*
X123276000Y-117942000D01*
X123289000Y-117987000D01*
X123300000Y-118033000D01*
X123309000Y-118079000D01*
X123315000Y-118126000D01*
X123319000Y-118173000D01*
X123320000Y-118220000D01*
X123319000Y-118267000D01*
X123315000Y-118314000D01*
X123309000Y-118361000D01*
X123300000Y-118407000D01*
X123289000Y-118453000D01*
X123276000Y-118498000D01*
X123260000Y-118543000D01*
X123242000Y-118586000D01*
X123222000Y-118629000D01*
X123199000Y-118670000D01*
X123175000Y-118710000D01*
X123148000Y-118749000D01*
X123119000Y-118786000D01*
X123089000Y-118822000D01*
X123056000Y-118856000D01*
X123022000Y-118889000D01*
X122986000Y-118919000D01*
X122949000Y-118948000D01*
X122910000Y-118975000D01*
X122870000Y-118999000D01*
X122829000Y-119022000D01*
X122786000Y-119042000D01*
X122743000Y-119060000D01*
X122698000Y-119076000D01*
X122653000Y-119089000D01*
X122607000Y-119100000D01*
X122561000Y-119109000D01*
X122514000Y-119115000D01*
X122467000Y-119119000D01*
X122420000Y-119120000D01*
X119920000Y-119120000D01*
X119920000Y-117320000D01*
X122420000Y-117320000D01*
X122467000Y-117321000D01*
G37*
X122467000Y-117321000D02*
X122514000Y-117325000D01*
X122561000Y-117331000D01*
X122607000Y-117340000D01*
X122653000Y-117351000D01*
X122698000Y-117364000D01*
X122743000Y-117380000D01*
X122786000Y-117398000D01*
X122829000Y-117418000D01*
X122870000Y-117441000D01*
X122910000Y-117465000D01*
X122949000Y-117492000D01*
X122986000Y-117521000D01*
X123022000Y-117551000D01*
X123056000Y-117584000D01*
X123089000Y-117618000D01*
X123119000Y-117654000D01*
X123148000Y-117691000D01*
X123175000Y-117730000D01*
X123199000Y-117770000D01*
X123222000Y-117811000D01*
X123242000Y-117854000D01*
X123260000Y-117897000D01*
X123276000Y-117942000D01*
X123289000Y-117987000D01*
X123300000Y-118033000D01*
X123309000Y-118079000D01*
X123315000Y-118126000D01*
X123319000Y-118173000D01*
X123320000Y-118220000D01*
X123319000Y-118267000D01*
X123315000Y-118314000D01*
X123309000Y-118361000D01*
X123300000Y-118407000D01*
X123289000Y-118453000D01*
X123276000Y-118498000D01*
X123260000Y-118543000D01*
X123242000Y-118586000D01*
X123222000Y-118629000D01*
X123199000Y-118670000D01*
X123175000Y-118710000D01*
X123148000Y-118749000D01*
X123119000Y-118786000D01*
X123089000Y-118822000D01*
X123056000Y-118856000D01*
X123022000Y-118889000D01*
X122986000Y-118919000D01*
X122949000Y-118948000D01*
X122910000Y-118975000D01*
X122870000Y-118999000D01*
X122829000Y-119022000D01*
X122786000Y-119042000D01*
X122743000Y-119060000D01*
X122698000Y-119076000D01*
X122653000Y-119089000D01*
X122607000Y-119100000D01*
X122561000Y-119109000D01*
X122514000Y-119115000D01*
X122467000Y-119119000D01*
X122420000Y-119120000D01*
X119920000Y-119120000D01*
X119920000Y-117320000D01*
X122420000Y-117320000D01*
X122467000Y-117321000D01*
G36*
X122467000Y-112241000D02*
G01*
X122514000Y-112245000D01*
X122561000Y-112251000D01*
X122607000Y-112260000D01*
X122653000Y-112271000D01*
X122698000Y-112284000D01*
X122743000Y-112300000D01*
X122786000Y-112318000D01*
X122829000Y-112338000D01*
X122870000Y-112361000D01*
X122910000Y-112385000D01*
X122949000Y-112412000D01*
X122986000Y-112441000D01*
X123022000Y-112471000D01*
X123056000Y-112504000D01*
X123089000Y-112538000D01*
X123119000Y-112574000D01*
X123148000Y-112611000D01*
X123175000Y-112650000D01*
X123199000Y-112690000D01*
X123222000Y-112731000D01*
X123242000Y-112774000D01*
X123260000Y-112817000D01*
X123276000Y-112862000D01*
X123289000Y-112907000D01*
X123300000Y-112953000D01*
X123309000Y-112999000D01*
X123315000Y-113046000D01*
X123319000Y-113093000D01*
X123320000Y-113140000D01*
X123319000Y-113187000D01*
X123315000Y-113234000D01*
X123309000Y-113281000D01*
X123300000Y-113327000D01*
X123289000Y-113373000D01*
X123276000Y-113418000D01*
X123260000Y-113463000D01*
X123242000Y-113506000D01*
X123222000Y-113549000D01*
X123199000Y-113590000D01*
X123175000Y-113630000D01*
X123148000Y-113669000D01*
X123119000Y-113706000D01*
X123089000Y-113742000D01*
X123056000Y-113776000D01*
X123022000Y-113809000D01*
X122986000Y-113839000D01*
X122949000Y-113868000D01*
X122910000Y-113895000D01*
X122870000Y-113919000D01*
X122829000Y-113942000D01*
X122786000Y-113962000D01*
X122743000Y-113980000D01*
X122698000Y-113996000D01*
X122653000Y-114009000D01*
X122607000Y-114020000D01*
X122561000Y-114029000D01*
X122514000Y-114035000D01*
X122467000Y-114039000D01*
X122420000Y-114040000D01*
X119920000Y-114040000D01*
X119920000Y-112240000D01*
X122420000Y-112240000D01*
X122467000Y-112241000D01*
G37*
X122467000Y-112241000D02*
X122514000Y-112245000D01*
X122561000Y-112251000D01*
X122607000Y-112260000D01*
X122653000Y-112271000D01*
X122698000Y-112284000D01*
X122743000Y-112300000D01*
X122786000Y-112318000D01*
X122829000Y-112338000D01*
X122870000Y-112361000D01*
X122910000Y-112385000D01*
X122949000Y-112412000D01*
X122986000Y-112441000D01*
X123022000Y-112471000D01*
X123056000Y-112504000D01*
X123089000Y-112538000D01*
X123119000Y-112574000D01*
X123148000Y-112611000D01*
X123175000Y-112650000D01*
X123199000Y-112690000D01*
X123222000Y-112731000D01*
X123242000Y-112774000D01*
X123260000Y-112817000D01*
X123276000Y-112862000D01*
X123289000Y-112907000D01*
X123300000Y-112953000D01*
X123309000Y-112999000D01*
X123315000Y-113046000D01*
X123319000Y-113093000D01*
X123320000Y-113140000D01*
X123319000Y-113187000D01*
X123315000Y-113234000D01*
X123309000Y-113281000D01*
X123300000Y-113327000D01*
X123289000Y-113373000D01*
X123276000Y-113418000D01*
X123260000Y-113463000D01*
X123242000Y-113506000D01*
X123222000Y-113549000D01*
X123199000Y-113590000D01*
X123175000Y-113630000D01*
X123148000Y-113669000D01*
X123119000Y-113706000D01*
X123089000Y-113742000D01*
X123056000Y-113776000D01*
X123022000Y-113809000D01*
X122986000Y-113839000D01*
X122949000Y-113868000D01*
X122910000Y-113895000D01*
X122870000Y-113919000D01*
X122829000Y-113942000D01*
X122786000Y-113962000D01*
X122743000Y-113980000D01*
X122698000Y-113996000D01*
X122653000Y-114009000D01*
X122607000Y-114020000D01*
X122561000Y-114029000D01*
X122514000Y-114035000D01*
X122467000Y-114039000D01*
X122420000Y-114040000D01*
X119920000Y-114040000D01*
X119920000Y-112240000D01*
X122420000Y-112240000D01*
X122467000Y-112241000D01*
G36*
X122467000Y-124941000D02*
G01*
X122514000Y-124945000D01*
X122561000Y-124951000D01*
X122607000Y-124960000D01*
X122653000Y-124971000D01*
X122698000Y-124984000D01*
X122743000Y-125000000D01*
X122786000Y-125018000D01*
X122829000Y-125038000D01*
X122870000Y-125061000D01*
X122910000Y-125085000D01*
X122949000Y-125112000D01*
X122986000Y-125141000D01*
X123022000Y-125171000D01*
X123056000Y-125204000D01*
X123089000Y-125238000D01*
X123119000Y-125274000D01*
X123148000Y-125311000D01*
X123175000Y-125350000D01*
X123199000Y-125390000D01*
X123222000Y-125431000D01*
X123242000Y-125474000D01*
X123260000Y-125517000D01*
X123276000Y-125562000D01*
X123289000Y-125607000D01*
X123300000Y-125653000D01*
X123309000Y-125699000D01*
X123315000Y-125746000D01*
X123319000Y-125793000D01*
X123320000Y-125840000D01*
X123319000Y-125887000D01*
X123315000Y-125934000D01*
X123309000Y-125981000D01*
X123300000Y-126027000D01*
X123289000Y-126073000D01*
X123276000Y-126118000D01*
X123260000Y-126163000D01*
X123242000Y-126206000D01*
X123222000Y-126249000D01*
X123199000Y-126290000D01*
X123175000Y-126330000D01*
X123148000Y-126369000D01*
X123119000Y-126406000D01*
X123089000Y-126442000D01*
X123056000Y-126476000D01*
X123022000Y-126509000D01*
X122986000Y-126539000D01*
X122949000Y-126568000D01*
X122910000Y-126595000D01*
X122870000Y-126619000D01*
X122829000Y-126642000D01*
X122786000Y-126662000D01*
X122743000Y-126680000D01*
X122698000Y-126696000D01*
X122653000Y-126709000D01*
X122607000Y-126720000D01*
X122561000Y-126729000D01*
X122514000Y-126735000D01*
X122467000Y-126739000D01*
X122420000Y-126740000D01*
X119920000Y-126740000D01*
X119920000Y-124940000D01*
X122420000Y-124940000D01*
X122467000Y-124941000D01*
G37*
X122467000Y-124941000D02*
X122514000Y-124945000D01*
X122561000Y-124951000D01*
X122607000Y-124960000D01*
X122653000Y-124971000D01*
X122698000Y-124984000D01*
X122743000Y-125000000D01*
X122786000Y-125018000D01*
X122829000Y-125038000D01*
X122870000Y-125061000D01*
X122910000Y-125085000D01*
X122949000Y-125112000D01*
X122986000Y-125141000D01*
X123022000Y-125171000D01*
X123056000Y-125204000D01*
X123089000Y-125238000D01*
X123119000Y-125274000D01*
X123148000Y-125311000D01*
X123175000Y-125350000D01*
X123199000Y-125390000D01*
X123222000Y-125431000D01*
X123242000Y-125474000D01*
X123260000Y-125517000D01*
X123276000Y-125562000D01*
X123289000Y-125607000D01*
X123300000Y-125653000D01*
X123309000Y-125699000D01*
X123315000Y-125746000D01*
X123319000Y-125793000D01*
X123320000Y-125840000D01*
X123319000Y-125887000D01*
X123315000Y-125934000D01*
X123309000Y-125981000D01*
X123300000Y-126027000D01*
X123289000Y-126073000D01*
X123276000Y-126118000D01*
X123260000Y-126163000D01*
X123242000Y-126206000D01*
X123222000Y-126249000D01*
X123199000Y-126290000D01*
X123175000Y-126330000D01*
X123148000Y-126369000D01*
X123119000Y-126406000D01*
X123089000Y-126442000D01*
X123056000Y-126476000D01*
X123022000Y-126509000D01*
X122986000Y-126539000D01*
X122949000Y-126568000D01*
X122910000Y-126595000D01*
X122870000Y-126619000D01*
X122829000Y-126642000D01*
X122786000Y-126662000D01*
X122743000Y-126680000D01*
X122698000Y-126696000D01*
X122653000Y-126709000D01*
X122607000Y-126720000D01*
X122561000Y-126729000D01*
X122514000Y-126735000D01*
X122467000Y-126739000D01*
X122420000Y-126740000D01*
X119920000Y-126740000D01*
X119920000Y-124940000D01*
X122420000Y-124940000D01*
X122467000Y-124941000D01*
G36*
X122467000Y-140181000D02*
G01*
X122514000Y-140185000D01*
X122561000Y-140191000D01*
X122607000Y-140200000D01*
X122653000Y-140211000D01*
X122698000Y-140224000D01*
X122743000Y-140240000D01*
X122786000Y-140258000D01*
X122829000Y-140278000D01*
X122870000Y-140301000D01*
X122910000Y-140325000D01*
X122949000Y-140352000D01*
X122986000Y-140381000D01*
X123022000Y-140411000D01*
X123056000Y-140444000D01*
X123089000Y-140478000D01*
X123119000Y-140514000D01*
X123148000Y-140551000D01*
X123175000Y-140590000D01*
X123199000Y-140630000D01*
X123222000Y-140671000D01*
X123242000Y-140714000D01*
X123260000Y-140757000D01*
X123276000Y-140802000D01*
X123289000Y-140847000D01*
X123300000Y-140893000D01*
X123309000Y-140939000D01*
X123315000Y-140986000D01*
X123319000Y-141033000D01*
X123320000Y-141080000D01*
X123319000Y-141127000D01*
X123315000Y-141174000D01*
X123309000Y-141221000D01*
X123300000Y-141267000D01*
X123289000Y-141313000D01*
X123276000Y-141358000D01*
X123260000Y-141403000D01*
X123242000Y-141446000D01*
X123222000Y-141489000D01*
X123199000Y-141530000D01*
X123175000Y-141570000D01*
X123148000Y-141609000D01*
X123119000Y-141646000D01*
X123089000Y-141682000D01*
X123056000Y-141716000D01*
X123022000Y-141749000D01*
X122986000Y-141779000D01*
X122949000Y-141808000D01*
X122910000Y-141835000D01*
X122870000Y-141859000D01*
X122829000Y-141882000D01*
X122786000Y-141902000D01*
X122743000Y-141920000D01*
X122698000Y-141936000D01*
X122653000Y-141949000D01*
X122607000Y-141960000D01*
X122561000Y-141969000D01*
X122514000Y-141975000D01*
X122467000Y-141979000D01*
X122420000Y-141980000D01*
X119920000Y-141980000D01*
X119920000Y-140180000D01*
X122420000Y-140180000D01*
X122467000Y-140181000D01*
G37*
X122467000Y-140181000D02*
X122514000Y-140185000D01*
X122561000Y-140191000D01*
X122607000Y-140200000D01*
X122653000Y-140211000D01*
X122698000Y-140224000D01*
X122743000Y-140240000D01*
X122786000Y-140258000D01*
X122829000Y-140278000D01*
X122870000Y-140301000D01*
X122910000Y-140325000D01*
X122949000Y-140352000D01*
X122986000Y-140381000D01*
X123022000Y-140411000D01*
X123056000Y-140444000D01*
X123089000Y-140478000D01*
X123119000Y-140514000D01*
X123148000Y-140551000D01*
X123175000Y-140590000D01*
X123199000Y-140630000D01*
X123222000Y-140671000D01*
X123242000Y-140714000D01*
X123260000Y-140757000D01*
X123276000Y-140802000D01*
X123289000Y-140847000D01*
X123300000Y-140893000D01*
X123309000Y-140939000D01*
X123315000Y-140986000D01*
X123319000Y-141033000D01*
X123320000Y-141080000D01*
X123319000Y-141127000D01*
X123315000Y-141174000D01*
X123309000Y-141221000D01*
X123300000Y-141267000D01*
X123289000Y-141313000D01*
X123276000Y-141358000D01*
X123260000Y-141403000D01*
X123242000Y-141446000D01*
X123222000Y-141489000D01*
X123199000Y-141530000D01*
X123175000Y-141570000D01*
X123148000Y-141609000D01*
X123119000Y-141646000D01*
X123089000Y-141682000D01*
X123056000Y-141716000D01*
X123022000Y-141749000D01*
X122986000Y-141779000D01*
X122949000Y-141808000D01*
X122910000Y-141835000D01*
X122870000Y-141859000D01*
X122829000Y-141882000D01*
X122786000Y-141902000D01*
X122743000Y-141920000D01*
X122698000Y-141936000D01*
X122653000Y-141949000D01*
X122607000Y-141960000D01*
X122561000Y-141969000D01*
X122514000Y-141975000D01*
X122467000Y-141979000D01*
X122420000Y-141980000D01*
X119920000Y-141980000D01*
X119920000Y-140180000D01*
X122420000Y-140180000D01*
X122467000Y-140181000D01*
G36*
X142700000Y-144520000D02*
G01*
X140200000Y-144520000D01*
X140153000Y-144519000D01*
X140106000Y-144515000D01*
X140059000Y-144509000D01*
X140013000Y-144500000D01*
X139967000Y-144489000D01*
X139922000Y-144476000D01*
X139877000Y-144460000D01*
X139834000Y-144442000D01*
X139791000Y-144422000D01*
X139750000Y-144399000D01*
X139710000Y-144375000D01*
X139671000Y-144348000D01*
X139634000Y-144319000D01*
X139598000Y-144289000D01*
X139564000Y-144256000D01*
X139531000Y-144222000D01*
X139501000Y-144186000D01*
X139472000Y-144149000D01*
X139445000Y-144110000D01*
X139421000Y-144070000D01*
X139398000Y-144029000D01*
X139378000Y-143986000D01*
X139360000Y-143943000D01*
X139344000Y-143898000D01*
X139331000Y-143853000D01*
X139320000Y-143807000D01*
X139311000Y-143761000D01*
X139305000Y-143714000D01*
X139301000Y-143667000D01*
X139300000Y-143620000D01*
X139301000Y-143573000D01*
X139305000Y-143526000D01*
X139311000Y-143479000D01*
X139320000Y-143433000D01*
X139331000Y-143387000D01*
X139344000Y-143342000D01*
X139360000Y-143297000D01*
X139378000Y-143254000D01*
X139398000Y-143211000D01*
X139421000Y-143170000D01*
X139445000Y-143130000D01*
X139472000Y-143091000D01*
X139501000Y-143054000D01*
X139531000Y-143018000D01*
X139564000Y-142984000D01*
X139598000Y-142951000D01*
X139634000Y-142921000D01*
X139671000Y-142892000D01*
X139710000Y-142865000D01*
X139750000Y-142841000D01*
X139791000Y-142818000D01*
X139834000Y-142798000D01*
X139877000Y-142780000D01*
X139922000Y-142764000D01*
X139967000Y-142751000D01*
X140013000Y-142740000D01*
X140059000Y-142731000D01*
X140106000Y-142725000D01*
X140153000Y-142721000D01*
X140200000Y-142720000D01*
X142700000Y-142720000D01*
X142700000Y-144520000D01*
G37*
X142700000Y-144520000D02*
X140200000Y-144520000D01*
X140153000Y-144519000D01*
X140106000Y-144515000D01*
X140059000Y-144509000D01*
X140013000Y-144500000D01*
X139967000Y-144489000D01*
X139922000Y-144476000D01*
X139877000Y-144460000D01*
X139834000Y-144442000D01*
X139791000Y-144422000D01*
X139750000Y-144399000D01*
X139710000Y-144375000D01*
X139671000Y-144348000D01*
X139634000Y-144319000D01*
X139598000Y-144289000D01*
X139564000Y-144256000D01*
X139531000Y-144222000D01*
X139501000Y-144186000D01*
X139472000Y-144149000D01*
X139445000Y-144110000D01*
X139421000Y-144070000D01*
X139398000Y-144029000D01*
X139378000Y-143986000D01*
X139360000Y-143943000D01*
X139344000Y-143898000D01*
X139331000Y-143853000D01*
X139320000Y-143807000D01*
X139311000Y-143761000D01*
X139305000Y-143714000D01*
X139301000Y-143667000D01*
X139300000Y-143620000D01*
X139301000Y-143573000D01*
X139305000Y-143526000D01*
X139311000Y-143479000D01*
X139320000Y-143433000D01*
X139331000Y-143387000D01*
X139344000Y-143342000D01*
X139360000Y-143297000D01*
X139378000Y-143254000D01*
X139398000Y-143211000D01*
X139421000Y-143170000D01*
X139445000Y-143130000D01*
X139472000Y-143091000D01*
X139501000Y-143054000D01*
X139531000Y-143018000D01*
X139564000Y-142984000D01*
X139598000Y-142951000D01*
X139634000Y-142921000D01*
X139671000Y-142892000D01*
X139710000Y-142865000D01*
X139750000Y-142841000D01*
X139791000Y-142818000D01*
X139834000Y-142798000D01*
X139877000Y-142780000D01*
X139922000Y-142764000D01*
X139967000Y-142751000D01*
X140013000Y-142740000D01*
X140059000Y-142731000D01*
X140106000Y-142725000D01*
X140153000Y-142721000D01*
X140200000Y-142720000D01*
X142700000Y-142720000D01*
X142700000Y-144520000D01*
G04 #@! TD*
D15*
G04 #@! TO.C,*
X221300000Y-26510000D03*
G04 #@! TD*
D16*
G04 #@! TO.C,U5*
X148875000Y-75200000D03*
D17*
X146335000Y-75200000D03*
X143795000Y-75200000D03*
X141255000Y-75200000D03*
X138715000Y-75200000D03*
X136175000Y-75200000D03*
X133635000Y-75200000D03*
X131095000Y-75200000D03*
X131095000Y-82820000D03*
X133635000Y-82820000D03*
X136175000Y-82820000D03*
X138715000Y-82820000D03*
X141255000Y-82820000D03*
X143795000Y-82820000D03*
X146335000Y-82820000D03*
X148875000Y-82820000D03*
G04 #@! TD*
D18*
G04 #@! TO.C,R48*
X104080000Y-106500000D03*
D17*
X93920000Y-106500000D03*
G04 #@! TD*
D18*
G04 #@! TO.C,R195*
X207420000Y-96500000D03*
D17*
X217580000Y-96500000D03*
G04 #@! TD*
D19*
G04 #@! TO.C,Q2*
X95140000Y-35730000D03*
D20*
X95140000Y-37000000D03*
X95140000Y-38270000D03*
G04 #@! TD*
D18*
G04 #@! TO.C,R177*
X207420000Y-56500000D03*
D17*
X217580000Y-56500000D03*
G04 #@! TD*
D18*
G04 #@! TO.C,R37*
X104080000Y-80500000D03*
D17*
X93920000Y-80500000D03*
G04 #@! TD*
D18*
G04 #@! TO.C,R149*
X209500000Y-105500000D03*
D17*
X199340000Y-105500000D03*
G04 #@! TD*
D21*
G04 #@! TO.C,Q30*
X164900000Y-151200000D03*
D22*
X163630000Y-151200000D03*
X162360000Y-151200000D03*
G04 #@! TD*
D18*
G04 #@! TO.C,R8*
X104080000Y-126500000D03*
D17*
X93920000Y-126500000D03*
G04 #@! TD*
D18*
G04 #@! TO.C,R34*
X104080000Y-74500000D03*
D17*
X93920000Y-74500000D03*
G04 #@! TD*
D18*
G04 #@! TO.C,R176*
X207420000Y-54500000D03*
D17*
X217580000Y-54500000D03*
G04 #@! TD*
D18*
G04 #@! TO.C,R179*
X207420000Y-60500000D03*
D17*
X217580000Y-60500000D03*
G04 #@! TD*
D23*
G04 #@! TO.C,J7*
X184700000Y-156500000D03*
D24*
X186700000Y-156500000D03*
X188700000Y-156500000D03*
X190700000Y-156500000D03*
X192700000Y-156500000D03*
X194700000Y-156500000D03*
X196700000Y-156500000D03*
X198700000Y-156500000D03*
X200700000Y-156500000D03*
X202700000Y-156500000D03*
X204700000Y-156500000D03*
X206700000Y-156500000D03*
G04 #@! TD*
D18*
G04 #@! TO.C,R196*
X207420000Y-98500000D03*
D17*
X217580000Y-98500000D03*
G04 #@! TD*
D18*
G04 #@! TO.C,R115*
X207320000Y-145800000D03*
D17*
X217480000Y-145800000D03*
G04 #@! TD*
D18*
G04 #@! TO.C,R51*
X141500000Y-72810000D03*
D17*
X141500000Y-65190000D03*
G04 #@! TD*
D18*
G04 #@! TO.C,R155*
X209580000Y-117500000D03*
D17*
X199420000Y-117500000D03*
G04 #@! TD*
D18*
G04 #@! TO.C,R7*
X104080000Y-124500000D03*
D17*
X93920000Y-124500000D03*
G04 #@! TD*
D23*
G04 #@! TO.C,J6*
X184920000Y-27400000D03*
D24*
X186920000Y-27400000D03*
X188920000Y-27400000D03*
X190920000Y-27400000D03*
X192920000Y-27400000D03*
X194920000Y-27400000D03*
X196920000Y-27400000D03*
X198920000Y-27400000D03*
X200920000Y-27400000D03*
X202920000Y-27400000D03*
X204920000Y-27400000D03*
X206920000Y-27400000D03*
G04 #@! TD*
D18*
G04 #@! TO.C,C4*
X127000000Y-80750000D03*
X127000000Y-78250000D03*
G04 #@! TD*
G04 #@! TO.C,R71*
X101920000Y-133500000D03*
D17*
X112080000Y-133500000D03*
G04 #@! TD*
D18*
G04 #@! TO.C,R139*
X209580000Y-81500000D03*
D17*
X199420000Y-81500000D03*
G04 #@! TD*
D18*
G04 #@! TO.C,R98*
X101920000Y-83500000D03*
D17*
X112080000Y-83500000D03*
G04 #@! TD*
D18*
G04 #@! TO.C,R211*
X207500000Y-128500000D03*
D17*
X217660000Y-128500000D03*
G04 #@! TD*
D18*
G04 #@! TO.C,R209*
X207500000Y-124500000D03*
D17*
X217660000Y-124500000D03*
G04 #@! TD*
D18*
G04 #@! TO.C,R64*
X101920000Y-119500000D03*
D17*
X112080000Y-119500000D03*
G04 #@! TD*
D18*
G04 #@! TO.C,R175*
X207420000Y-52500000D03*
D17*
X217580000Y-52500000D03*
G04 #@! TD*
D18*
G04 #@! TO.C,R84*
X101920000Y-55500000D03*
D17*
X112080000Y-55500000D03*
G04 #@! TD*
D18*
G04 #@! TO.C,R59*
X136000000Y-85500000D03*
D17*
X136000000Y-93120000D03*
G04 #@! TD*
D18*
G04 #@! TO.C,R198*
X207420000Y-102500000D03*
D17*
X217580000Y-102500000D03*
G04 #@! TD*
D18*
G04 #@! TO.C,C3*
X196200000Y-152600000D03*
X196200000Y-150100000D03*
G04 #@! TD*
G04 #@! TO.C,R165*
X209580000Y-137500000D03*
D17*
X199420000Y-137500000D03*
G04 #@! TD*
D18*
G04 #@! TO.C,R210*
X207420000Y-126500000D03*
D17*
X217580000Y-126500000D03*
G04 #@! TD*
D18*
G04 #@! TO.C,R126*
X209580000Y-55500000D03*
D17*
X199420000Y-55500000D03*
G04 #@! TD*
D21*
G04 #@! TO.C,Q14*
X190230000Y-32360000D03*
D22*
X191500000Y-32360000D03*
X192770000Y-32360000D03*
G04 #@! TD*
D18*
G04 #@! TO.C,R131*
X209580000Y-65500000D03*
D17*
X199420000Y-65500000D03*
G04 #@! TD*
D18*
G04 #@! TO.C,R164*
X209580000Y-135500000D03*
D17*
X199420000Y-135500000D03*
G04 #@! TD*
D21*
G04 #@! TO.C,Q24*
X136230000Y-32360000D03*
D22*
X137500000Y-32360000D03*
X138770000Y-32360000D03*
G04 #@! TD*
D21*
G04 #@! TO.C,Q22*
X148230000Y-32360000D03*
D22*
X149500000Y-32360000D03*
X150770000Y-32360000D03*
G04 #@! TD*
D18*
G04 #@! TO.C,R145*
X209500000Y-97500000D03*
D17*
X199340000Y-97500000D03*
G04 #@! TD*
D19*
G04 #@! TO.C,Q6*
X100860000Y-37270000D03*
D20*
X100860000Y-36000000D03*
X100860000Y-34730000D03*
G04 #@! TD*
D18*
G04 #@! TO.C,R189*
X207420000Y-80500000D03*
D17*
X217580000Y-80500000D03*
G04 #@! TD*
D23*
G04 #@! TO.C,J5*
X104720000Y-156500000D03*
D24*
X106720000Y-156500000D03*
X108720000Y-156500000D03*
X110720000Y-156500000D03*
X112720000Y-156500000D03*
X114720000Y-156500000D03*
X116720000Y-156500000D03*
X118720000Y-156500000D03*
X120720000Y-156500000D03*
X122720000Y-156500000D03*
X124720000Y-156500000D03*
X126720000Y-156500000D03*
X128720000Y-156500000D03*
X130720000Y-156500000D03*
X132720000Y-156500000D03*
X134720000Y-156500000D03*
X136720000Y-156500000D03*
X138720000Y-156500000D03*
X140720000Y-156500000D03*
X142720000Y-156500000D03*
X144720000Y-156500000D03*
X146720000Y-156500000D03*
X148720000Y-156500000D03*
X150720000Y-156500000D03*
X152720000Y-156500000D03*
X154720000Y-156500000D03*
X156720000Y-156500000D03*
X158720000Y-156500000D03*
X160720000Y-156500000D03*
X162720000Y-156500000D03*
X164720000Y-156500000D03*
X166720000Y-156500000D03*
X168720000Y-156500000D03*
X170720000Y-156500000D03*
X172720000Y-156500000D03*
X174720000Y-156500000D03*
X176720000Y-156500000D03*
X178720000Y-156500000D03*
X180720000Y-156500000D03*
X182720000Y-156500000D03*
G04 #@! TD*
D18*
G04 #@! TO.C,R97*
X102000000Y-81500000D03*
D17*
X112160000Y-81500000D03*
G04 #@! TD*
D23*
G04 #@! TO.C,J9*
X220300000Y-112540000D03*
D24*
X220300000Y-114540000D03*
X220300000Y-116540000D03*
X220300000Y-118540000D03*
X220300000Y-120540000D03*
X220300000Y-122540000D03*
X220300000Y-124540000D03*
X220300000Y-126540000D03*
X220300000Y-128540000D03*
X220300000Y-130540000D03*
X220300000Y-132540000D03*
X220300000Y-134540000D03*
X220300000Y-136540000D03*
X220300000Y-138540000D03*
X220300000Y-140540000D03*
X220300000Y-142540000D03*
X220300000Y-144540000D03*
X220300000Y-146540000D03*
X220300000Y-148540000D03*
X220300000Y-150540000D03*
G04 #@! TD*
D18*
G04 #@! TO.C,R90*
X101920000Y-67500000D03*
D17*
X112080000Y-67500000D03*
G04 #@! TD*
D18*
G04 #@! TO.C,R70*
X101920000Y-131500000D03*
D17*
X112080000Y-131500000D03*
G04 #@! TD*
D18*
G04 #@! TO.C,R192*
X207420000Y-86500000D03*
D17*
X217580000Y-86500000D03*
G04 #@! TD*
D16*
G04 #@! TO.C,U9*
X174325000Y-153600000D03*
D17*
X176865000Y-153600000D03*
X179405000Y-153600000D03*
X181945000Y-153600000D03*
X184485000Y-153600000D03*
X187025000Y-153600000D03*
X189565000Y-153600000D03*
X192105000Y-153600000D03*
X192105000Y-145980000D03*
X189565000Y-145980000D03*
X187025000Y-145980000D03*
X184485000Y-145980000D03*
X181945000Y-145980000D03*
X179405000Y-145980000D03*
X176865000Y-145980000D03*
X174325000Y-145980000D03*
G04 #@! TD*
D18*
G04 #@! TO.C,R78*
X101920000Y-43000000D03*
D17*
X112080000Y-43000000D03*
G04 #@! TD*
D18*
G04 #@! TO.C,R101*
X143500000Y-72810000D03*
D17*
X143500000Y-65190000D03*
G04 #@! TD*
D23*
G04 #@! TO.C,J3*
X91300000Y-112500000D03*
D24*
X91300000Y-114500000D03*
X91300000Y-116500000D03*
X91300000Y-118500000D03*
X91300000Y-120500000D03*
X91300000Y-122500000D03*
X91300000Y-124500000D03*
X91300000Y-126500000D03*
X91300000Y-128500000D03*
X91300000Y-130500000D03*
X91300000Y-132500000D03*
X91300000Y-134500000D03*
X91300000Y-136500000D03*
X91300000Y-138500000D03*
X91300000Y-140500000D03*
X91300000Y-142500000D03*
X91300000Y-144500000D03*
X91300000Y-146500000D03*
X91300000Y-148500000D03*
X91300000Y-150500000D03*
G04 #@! TD*
D18*
G04 #@! TO.C,R110*
X101920000Y-109500000D03*
D17*
X112080000Y-109500000D03*
G04 #@! TD*
D18*
G04 #@! TO.C,R1*
X104080000Y-112500000D03*
D17*
X93920000Y-112500000D03*
G04 #@! TD*
D18*
G04 #@! TO.C,R178*
X207420000Y-58500000D03*
D17*
X217580000Y-58500000D03*
G04 #@! TD*
D18*
G04 #@! TO.C,R184*
X207420000Y-70500000D03*
D17*
X217580000Y-70500000D03*
G04 #@! TD*
D18*
G04 #@! TO.C,R185*
X207420000Y-72500000D03*
D17*
X217580000Y-72500000D03*
G04 #@! TD*
D18*
G04 #@! TO.C,R173*
X207420000Y-48500000D03*
D17*
X217580000Y-48500000D03*
G04 #@! TD*
D18*
G04 #@! TO.C,R106*
X101920000Y-101500000D03*
D17*
X112080000Y-101500000D03*
G04 #@! TD*
D18*
G04 #@! TO.C,R46*
X104080000Y-102500000D03*
D17*
X93920000Y-102500000D03*
G04 #@! TD*
D18*
G04 #@! TO.C,R154*
X209580000Y-115500000D03*
D17*
X199420000Y-115500000D03*
G04 #@! TD*
D21*
G04 #@! TO.C,Q20*
X154230000Y-32360000D03*
D22*
X155500000Y-32360000D03*
X156770000Y-32360000D03*
G04 #@! TD*
D18*
G04 #@! TO.C,R33*
X104000000Y-72500000D03*
D17*
X93840000Y-72500000D03*
G04 #@! TD*
D18*
G04 #@! TO.C,R85*
X101920000Y-57500000D03*
D17*
X112080000Y-57500000D03*
G04 #@! TD*
D18*
G04 #@! TO.C,R187*
X207420000Y-76500000D03*
D17*
X217580000Y-76500000D03*
G04 #@! TD*
D18*
G04 #@! TO.C,R137*
X209580000Y-77500000D03*
D17*
X199420000Y-77500000D03*
G04 #@! TD*
D18*
G04 #@! TO.C,R216*
X207420000Y-138500000D03*
D17*
X217580000Y-138500000D03*
G04 #@! TD*
D18*
G04 #@! TO.C,C1*
X158150000Y-87000000D03*
X160650000Y-87000000D03*
G04 #@! TD*
G04 #@! TO.C,R142*
X209580000Y-87500000D03*
D17*
X199420000Y-87500000D03*
G04 #@! TD*
D18*
G04 #@! TO.C,R132*
X209580000Y-67500000D03*
D17*
X199420000Y-67500000D03*
G04 #@! TD*
D18*
G04 #@! TO.C,R99*
X101920000Y-85500000D03*
D17*
X112080000Y-85500000D03*
G04 #@! TD*
D18*
G04 #@! TO.C,R15*
X104000000Y-140500000D03*
D17*
X93840000Y-140500000D03*
G04 #@! TD*
D18*
G04 #@! TO.C,R79*
X101920000Y-45000000D03*
D17*
X112080000Y-45000000D03*
G04 #@! TD*
D18*
G04 #@! TO.C,R13*
X104080000Y-136500000D03*
D17*
X93920000Y-136500000D03*
G04 #@! TD*
D18*
G04 #@! TO.C,R93*
X101920000Y-73500000D03*
D17*
X112080000Y-73500000D03*
G04 #@! TD*
D18*
G04 #@! TO.C,R203*
X207420000Y-112500000D03*
D17*
X217580000Y-112500000D03*
G04 #@! TD*
D18*
G04 #@! TO.C,R127*
X209580000Y-57500000D03*
D17*
X199420000Y-57500000D03*
G04 #@! TD*
D18*
G04 #@! TO.C,R117*
X166420000Y-67500000D03*
D17*
X176580000Y-67500000D03*
G04 #@! TD*
D18*
G04 #@! TO.C,R125*
X209500000Y-53500000D03*
D17*
X199340000Y-53500000D03*
G04 #@! TD*
D18*
G04 #@! TO.C,R193*
X207420000Y-88500000D03*
D17*
X217580000Y-88500000D03*
G04 #@! TD*
D18*
G04 #@! TO.C,R109*
X101920000Y-107500000D03*
D17*
X112080000Y-107500000D03*
G04 #@! TD*
D18*
G04 #@! TO.C,R147*
X209580000Y-101500000D03*
D17*
X199420000Y-101500000D03*
G04 #@! TD*
D18*
G04 #@! TO.C,R80*
X101920000Y-47000000D03*
D17*
X112080000Y-47000000D03*
G04 #@! TD*
D18*
G04 #@! TO.C,R191*
X207420000Y-84500000D03*
D17*
X217580000Y-84500000D03*
G04 #@! TD*
D18*
G04 #@! TO.C,R62*
X102000000Y-115500000D03*
D17*
X112160000Y-115500000D03*
G04 #@! TD*
D21*
G04 #@! TO.C,Q17*
X172230000Y-32360000D03*
D22*
X173500000Y-32360000D03*
X174770000Y-32360000D03*
G04 #@! TD*
D18*
G04 #@! TO.C,R160*
X209500000Y-127500000D03*
D17*
X199340000Y-127500000D03*
G04 #@! TD*
D18*
G04 #@! TO.C,R104*
X101920000Y-97500000D03*
D17*
X112080000Y-97500000D03*
G04 #@! TD*
D18*
G04 #@! TO.C,R105*
X101920000Y-99500000D03*
D17*
X112080000Y-99500000D03*
G04 #@! TD*
D18*
G04 #@! TO.C,R5*
X104080000Y-120500000D03*
D17*
X93920000Y-120500000D03*
G04 #@! TD*
D18*
G04 #@! TO.C,R144*
X209580000Y-95500000D03*
D17*
X199420000Y-95500000D03*
G04 #@! TD*
D18*
G04 #@! TO.C,R55*
X146500000Y-72810000D03*
D17*
X146500000Y-65190000D03*
G04 #@! TD*
D16*
G04 #@! TO.C,U3*
X95200000Y-147500000D03*
D17*
X95200000Y-150040000D03*
X102820000Y-150040000D03*
X102820000Y-147500000D03*
G04 #@! TD*
D18*
G04 #@! TO.C,R77*
X101920000Y-41000000D03*
D17*
X112080000Y-41000000D03*
G04 #@! TD*
D19*
G04 #@! TO.C,Q32*
X177140000Y-77730000D03*
D20*
X177140000Y-79000000D03*
X177140000Y-80270000D03*
G04 #@! TD*
D18*
G04 #@! TO.C,R136*
X209580000Y-75500000D03*
D17*
X199420000Y-75500000D03*
G04 #@! TD*
D18*
G04 #@! TO.C,R56*
X138500000Y-72810000D03*
D17*
X138500000Y-65190000D03*
G04 #@! TD*
D18*
G04 #@! TO.C,R129*
X209500000Y-61500000D03*
D17*
X199340000Y-61500000D03*
G04 #@! TD*
D18*
G04 #@! TO.C,R44*
X104080000Y-98500000D03*
D17*
X93920000Y-98500000D03*
G04 #@! TD*
D18*
G04 #@! TO.C,R47*
X104080000Y-104500000D03*
D17*
X93920000Y-104500000D03*
G04 #@! TD*
D18*
G04 #@! TO.C,R130*
X209580000Y-63500000D03*
D17*
X199420000Y-63500000D03*
G04 #@! TD*
D18*
G04 #@! TO.C,R116*
X205080000Y-146600000D03*
D17*
X194920000Y-146600000D03*
G04 #@! TD*
D18*
G04 #@! TO.C,R14*
X104080000Y-138500000D03*
D17*
X93920000Y-138500000D03*
G04 #@! TD*
D18*
G04 #@! TO.C,R50*
X104080000Y-110500000D03*
D17*
X93920000Y-110500000D03*
G04 #@! TD*
D15*
G04 #@! TO.C,*
X221340000Y-157530000D03*
G04 #@! TD*
D23*
G04 #@! TO.C,J8*
X220300000Y-32500000D03*
D24*
X220300000Y-34500000D03*
X220300000Y-36500000D03*
X220300000Y-38500000D03*
X220300000Y-40500000D03*
X220300000Y-42500000D03*
X220300000Y-44500000D03*
X220300000Y-46500000D03*
X220300000Y-48500000D03*
X220300000Y-50500000D03*
X220300000Y-52500000D03*
X220300000Y-54500000D03*
X220300000Y-56500000D03*
X220300000Y-58500000D03*
X220300000Y-60500000D03*
X220300000Y-62500000D03*
X220300000Y-64500000D03*
X220300000Y-66500000D03*
X220300000Y-68500000D03*
X220300000Y-70500000D03*
X220300000Y-72500000D03*
X220300000Y-74500000D03*
X220300000Y-76500000D03*
X220300000Y-78500000D03*
X220300000Y-80500000D03*
X220300000Y-82500000D03*
X220300000Y-84500000D03*
X220300000Y-86500000D03*
X220300000Y-88500000D03*
X220300000Y-94500000D03*
X220300000Y-96500000D03*
X220300000Y-98500000D03*
X220300000Y-100500000D03*
X220300000Y-102500000D03*
X220300000Y-104500000D03*
X220300000Y-106500000D03*
X220300000Y-108500000D03*
X220300000Y-110500000D03*
G04 #@! TD*
D18*
G04 #@! TO.C,R135*
X209580000Y-73500000D03*
D17*
X199420000Y-73500000D03*
G04 #@! TD*
D18*
G04 #@! TO.C,R150*
X209580000Y-107500000D03*
D17*
X199420000Y-107500000D03*
G04 #@! TD*
D18*
G04 #@! TO.C,R188*
X207420000Y-78500000D03*
D17*
X217580000Y-78500000D03*
G04 #@! TD*
D18*
G04 #@! TO.C,R181*
X207420000Y-64500000D03*
D17*
X217580000Y-64500000D03*
G04 #@! TD*
D18*
G04 #@! TO.C,R4*
X104080000Y-118500000D03*
D17*
X93920000Y-118500000D03*
G04 #@! TD*
D21*
G04 #@! TO.C,Q12*
X201730000Y-32360000D03*
D22*
X203000000Y-32360000D03*
X204270000Y-32360000D03*
G04 #@! TD*
D18*
G04 #@! TO.C,R87*
X101920000Y-61500000D03*
D17*
X112080000Y-61500000D03*
G04 #@! TD*
D18*
G04 #@! TO.C,R217*
X207420000Y-140500000D03*
D17*
X217580000Y-140500000D03*
G04 #@! TD*
D18*
G04 #@! TO.C,R6*
X104080000Y-122500000D03*
D17*
X93920000Y-122500000D03*
G04 #@! TD*
D18*
G04 #@! TO.C,R68*
X101920000Y-127500000D03*
D17*
X112080000Y-127500000D03*
G04 #@! TD*
D19*
G04 #@! TO.C,Q8*
X125200000Y-85000000D03*
D20*
X125200000Y-86270000D03*
X125200000Y-87540000D03*
G04 #@! TD*
D18*
G04 #@! TO.C,R76*
X101920000Y-143500000D03*
D17*
X112080000Y-143500000D03*
G04 #@! TD*
D18*
G04 #@! TO.C,R69*
X101920000Y-129500000D03*
D17*
X112080000Y-129500000D03*
G04 #@! TD*
D21*
G04 #@! TO.C,Q4*
X124330000Y-93060000D03*
D22*
X125600000Y-93060000D03*
X126870000Y-93060000D03*
G04 #@! TD*
D18*
G04 #@! TO.C,R174*
X207420000Y-50500000D03*
D17*
X217580000Y-50500000D03*
G04 #@! TD*
D18*
G04 #@! TO.C,R152*
X209580000Y-111500000D03*
D17*
X199420000Y-111500000D03*
G04 #@! TD*
D25*
G04 #@! TO.C,RV1*
X148500000Y-90500000D03*
X151040000Y-87960000D03*
X148500000Y-85420000D03*
G04 #@! TD*
D18*
G04 #@! TO.C,R148*
X209580000Y-103500000D03*
D17*
X199420000Y-103500000D03*
G04 #@! TD*
D18*
G04 #@! TO.C,R89*
X102000000Y-65500000D03*
D17*
X112160000Y-65500000D03*
G04 #@! TD*
D21*
G04 #@! TO.C,Q19*
X160230000Y-32360000D03*
D22*
X161500000Y-32360000D03*
X162770000Y-32360000D03*
G04 #@! TD*
D18*
G04 #@! TO.C,R180*
X207420000Y-62500000D03*
D17*
X217580000Y-62500000D03*
G04 #@! TD*
D18*
G04 #@! TO.C,R201*
X207420000Y-108500000D03*
D17*
X217580000Y-108500000D03*
G04 #@! TD*
D18*
G04 #@! TO.C,R112*
X165690000Y-79000000D03*
D17*
X173310000Y-79000000D03*
G04 #@! TD*
D18*
G04 #@! TO.C,R83*
X101920000Y-53500000D03*
D17*
X112080000Y-53500000D03*
G04 #@! TD*
D18*
G04 #@! TO.C,R39*
X104000000Y-84500000D03*
D17*
X93840000Y-84500000D03*
G04 #@! TD*
D18*
G04 #@! TO.C,R204*
X207420000Y-114500000D03*
D17*
X217580000Y-114500000D03*
G04 #@! TD*
D18*
G04 #@! TO.C,R172*
X207420000Y-46500000D03*
D17*
X217580000Y-46500000D03*
G04 #@! TD*
D18*
G04 #@! TO.C,R120*
X209580000Y-43500000D03*
D17*
X199420000Y-43500000D03*
G04 #@! TD*
D18*
G04 #@! TO.C,R86*
X102000000Y-59500000D03*
D17*
X112160000Y-59500000D03*
G04 #@! TD*
D18*
G04 #@! TO.C,R30*
X104080000Y-66500000D03*
D17*
X93920000Y-66500000D03*
G04 #@! TD*
D18*
G04 #@! TO.C,R167*
X209580000Y-141500000D03*
D17*
X199420000Y-141500000D03*
G04 #@! TD*
D23*
G04 #@! TO.C,J4*
X104900000Y-27400000D03*
D24*
X106900000Y-27400000D03*
X108900000Y-27400000D03*
X110900000Y-27400000D03*
X112900000Y-27400000D03*
X114900000Y-27400000D03*
X116900000Y-27400000D03*
X118900000Y-27400000D03*
X120900000Y-27400000D03*
X122900000Y-27400000D03*
X124900000Y-27400000D03*
X126900000Y-27400000D03*
X128900000Y-27400000D03*
X130900000Y-27400000D03*
X132900000Y-27400000D03*
X134900000Y-27400000D03*
X136900000Y-27400000D03*
X138900000Y-27400000D03*
X140900000Y-27400000D03*
X142900000Y-27400000D03*
X144900000Y-27400000D03*
X146900000Y-27400000D03*
X148900000Y-27400000D03*
X150900000Y-27400000D03*
X152900000Y-27400000D03*
X154900000Y-27400000D03*
X156900000Y-27400000D03*
X158900000Y-27400000D03*
X160900000Y-27400000D03*
X162900000Y-27400000D03*
X164900000Y-27400000D03*
X166900000Y-27400000D03*
X168900000Y-27400000D03*
X170900000Y-27400000D03*
X172900000Y-27400000D03*
X174900000Y-27400000D03*
X176900000Y-27400000D03*
X178900000Y-27400000D03*
X180900000Y-27400000D03*
X182900000Y-27400000D03*
G04 #@! TD*
D18*
G04 #@! TO.C,R134*
X209500000Y-71500000D03*
D17*
X199340000Y-71500000D03*
G04 #@! TD*
D16*
G04 #@! TO.C,U2*
X106700000Y-147225000D03*
D17*
X106700000Y-149765000D03*
X114320000Y-149765000D03*
X114320000Y-147225000D03*
G04 #@! TD*
D18*
G04 #@! TO.C,R213*
X207420000Y-132500000D03*
D17*
X217580000Y-132500000D03*
G04 #@! TD*
D16*
G04 #@! TO.C,U12*
X209800000Y-148925000D03*
D17*
X209800000Y-151465000D03*
X217420000Y-151465000D03*
X217420000Y-148925000D03*
G04 #@! TD*
D18*
G04 #@! TO.C,R3*
X104080000Y-116500000D03*
D17*
X93920000Y-116500000D03*
G04 #@! TD*
D18*
G04 #@! TO.C,R2*
X104080000Y-114500000D03*
D17*
X93920000Y-114500000D03*
G04 #@! TD*
D18*
G04 #@! TO.C,R81*
X101920000Y-49500000D03*
D17*
X112080000Y-49500000D03*
G04 #@! TD*
D18*
G04 #@! TO.C,R170*
X207420000Y-42500000D03*
D17*
X217580000Y-42500000D03*
G04 #@! TD*
D18*
G04 #@! TO.C,R12*
X104080000Y-134500000D03*
D17*
X93920000Y-134500000D03*
G04 #@! TD*
D18*
G04 #@! TO.C,R57*
X136000000Y-72810000D03*
D17*
X136000000Y-65190000D03*
G04 #@! TD*
D18*
G04 #@! TO.C,R35*
X104080000Y-76500000D03*
D17*
X93920000Y-76500000D03*
G04 #@! TD*
D18*
G04 #@! TO.C,R61*
X101920000Y-113500000D03*
D17*
X112080000Y-113500000D03*
G04 #@! TD*
D18*
G04 #@! TO.C,R163*
X209580000Y-133500000D03*
D17*
X199420000Y-133500000D03*
G04 #@! TD*
D21*
G04 #@! TO.C,Q7*
X168600000Y-151400000D03*
D22*
X169870000Y-151400000D03*
X171140000Y-151400000D03*
G04 #@! TD*
D21*
G04 #@! TO.C,Q13*
X196230000Y-32360000D03*
D22*
X197500000Y-32360000D03*
X198770000Y-32360000D03*
G04 #@! TD*
D21*
G04 #@! TO.C,Q16*
X178230000Y-32360000D03*
D22*
X179500000Y-32360000D03*
X180770000Y-32360000D03*
G04 #@! TD*
D18*
G04 #@! TO.C,R49*
X104080000Y-108500000D03*
D17*
X93920000Y-108500000D03*
G04 #@! TD*
D18*
G04 #@! TO.C,R31*
X104080000Y-68500000D03*
D17*
X93920000Y-68500000D03*
G04 #@! TD*
D18*
G04 #@! TO.C,R108*
X101920000Y-105500000D03*
D17*
X112080000Y-105500000D03*
G04 #@! TD*
D18*
G04 #@! TO.C,C2*
X177500000Y-110500000D03*
X180000000Y-110500000D03*
G04 #@! TD*
D21*
G04 #@! TO.C,Q3*
X162330000Y-146700000D03*
D22*
X163600000Y-146700000D03*
X164870000Y-146700000D03*
G04 #@! TD*
D18*
G04 #@! TO.C,R24*
X104080000Y-54500000D03*
D17*
X93920000Y-54500000D03*
G04 #@! TD*
D18*
G04 #@! TO.C,R63*
X101920000Y-117500000D03*
D17*
X112080000Y-117500000D03*
G04 #@! TD*
D18*
G04 #@! TO.C,R52*
X133500000Y-72810000D03*
D17*
X133500000Y-65190000D03*
G04 #@! TD*
D18*
G04 #@! TO.C,R200*
X207420000Y-106500000D03*
D17*
X217580000Y-106500000D03*
G04 #@! TD*
D18*
G04 #@! TO.C,R166*
X209580000Y-139500000D03*
D17*
X199420000Y-139500000D03*
G04 #@! TD*
D18*
G04 #@! TO.C,R58*
X130000000Y-85190000D03*
D17*
X130000000Y-92810000D03*
G04 #@! TD*
D21*
G04 #@! TO.C,Q23*
X142230000Y-32360000D03*
D22*
X143500000Y-32360000D03*
X144770000Y-32360000D03*
G04 #@! TD*
D18*
G04 #@! TO.C,R159*
X209580000Y-125500000D03*
D17*
X199420000Y-125500000D03*
G04 #@! TD*
D18*
G04 #@! TO.C,R60*
X165690000Y-84000000D03*
D17*
X173310000Y-84000000D03*
G04 #@! TD*
D18*
G04 #@! TO.C,R28*
X104080000Y-62500000D03*
D17*
X93920000Y-62500000D03*
G04 #@! TD*
D16*
G04 #@! TO.C,U13*
X199600000Y-149725000D03*
D17*
X199600000Y-152265000D03*
X207220000Y-152265000D03*
X207220000Y-149725000D03*
G04 #@! TD*
D18*
G04 #@! TO.C,R153*
X209500000Y-113500000D03*
D17*
X199340000Y-113500000D03*
G04 #@! TD*
D21*
G04 #@! TO.C,Q15*
X184230000Y-32360000D03*
D22*
X185500000Y-32360000D03*
X186770000Y-32360000D03*
G04 #@! TD*
D18*
G04 #@! TO.C,R146*
X209580000Y-99500000D03*
D17*
X199420000Y-99500000D03*
G04 #@! TD*
D18*
G04 #@! TO.C,R171*
X207420000Y-44500000D03*
D17*
X217580000Y-44500000D03*
G04 #@! TD*
D18*
G04 #@! TO.C,R207*
X207420000Y-120500000D03*
D17*
X217580000Y-120500000D03*
G04 #@! TD*
D18*
G04 #@! TO.C,R183*
X207420000Y-68500000D03*
D17*
X217580000Y-68500000D03*
G04 #@! TD*
D18*
G04 #@! TO.C,R42*
X104080000Y-94500000D03*
D17*
X93920000Y-94500000D03*
G04 #@! TD*
D18*
G04 #@! TO.C,R190*
X207420000Y-82500000D03*
D17*
X217580000Y-82500000D03*
G04 #@! TD*
D18*
G04 #@! TO.C,R32*
X104080000Y-70500000D03*
D17*
X93920000Y-70500000D03*
G04 #@! TD*
D18*
G04 #@! TO.C,R67*
X101920000Y-125500000D03*
D17*
X112080000Y-125500000D03*
G04 #@! TD*
D21*
G04 #@! TO.C,Q21*
X176230000Y-84360000D03*
D22*
X177500000Y-84360000D03*
X178770000Y-84360000D03*
G04 #@! TD*
D21*
G04 #@! TO.C,Q26*
X124730000Y-32360000D03*
D22*
X126000000Y-32360000D03*
X127270000Y-32360000D03*
G04 #@! TD*
D18*
G04 #@! TO.C,R23*
X104080000Y-52500000D03*
D17*
X93920000Y-52500000D03*
G04 #@! TD*
D18*
G04 #@! TO.C,R194*
X207420000Y-94500000D03*
D17*
X217580000Y-94500000D03*
G04 #@! TD*
D18*
G04 #@! TO.C,R27*
X104080000Y-60500000D03*
D17*
X93920000Y-60500000D03*
G04 #@! TD*
D18*
G04 #@! TO.C,R45*
X104080000Y-100500000D03*
D17*
X93920000Y-100500000D03*
G04 #@! TD*
D18*
G04 #@! TO.C,R88*
X101920000Y-63500000D03*
D17*
X112080000Y-63500000D03*
G04 #@! TD*
D21*
G04 #@! TO.C,Q31*
X106730000Y-37360000D03*
D22*
X108000000Y-37360000D03*
X109270000Y-37360000D03*
G04 #@! TD*
D18*
G04 #@! TO.C,R141*
X209580000Y-85500000D03*
D17*
X199420000Y-85500000D03*
G04 #@! TD*
D18*
G04 #@! TO.C,R138*
X209580000Y-79500000D03*
D17*
X199420000Y-79500000D03*
G04 #@! TD*
D26*
G04 #@! TO.C,U10*
X175735000Y-55645000D03*
X178275000Y-55645000D03*
X180815000Y-55645000D03*
X183355000Y-55645000D03*
X185895000Y-55645000D03*
X188435000Y-55645000D03*
X188415000Y-45545000D03*
X185875000Y-45545000D03*
X183335000Y-45545000D03*
X180795000Y-45545000D03*
X178255000Y-45545000D03*
X175715000Y-45545000D03*
G04 #@! TD*
D18*
G04 #@! TO.C,R158*
X209480000Y-123500000D03*
D17*
X199320000Y-123500000D03*
G04 #@! TD*
D18*
G04 #@! TO.C,R113*
X107920000Y-153500000D03*
D17*
X118080000Y-153500000D03*
G04 #@! TD*
D18*
G04 #@! TO.C,R151*
X209580000Y-109500000D03*
D17*
X199420000Y-109500000D03*
G04 #@! TD*
D18*
G04 #@! TO.C,R95*
X101920000Y-77500000D03*
D17*
X112080000Y-77500000D03*
G04 #@! TD*
D18*
G04 #@! TO.C,R121*
X209580000Y-45500000D03*
D17*
X199420000Y-45500000D03*
G04 #@! TD*
D21*
G04 #@! TO.C,Q27*
X118230000Y-31860000D03*
D22*
X119500000Y-31860000D03*
X120770000Y-31860000D03*
G04 #@! TD*
D18*
G04 #@! TO.C,R103*
X101920000Y-95500000D03*
D17*
X112080000Y-95500000D03*
G04 #@! TD*
D18*
G04 #@! TO.C,R41*
X104080000Y-88500000D03*
D17*
X93920000Y-88500000D03*
G04 #@! TD*
D23*
G04 #@! TO.C,J2*
X91300000Y-32500000D03*
D24*
X91300000Y-34500000D03*
X91300000Y-36500000D03*
X91300000Y-38500000D03*
X91300000Y-40500000D03*
X91300000Y-42500000D03*
X91300000Y-44500000D03*
X91300000Y-46500000D03*
X91300000Y-48500000D03*
X91300000Y-50500000D03*
X91300000Y-52500000D03*
X91300000Y-54500000D03*
X91300000Y-56500000D03*
X91300000Y-58500000D03*
X91300000Y-60500000D03*
X91300000Y-62500000D03*
X91300000Y-64500000D03*
X91300000Y-66500000D03*
X91300000Y-68500000D03*
X91300000Y-70500000D03*
X91300000Y-72500000D03*
X91300000Y-74500000D03*
X91300000Y-76500000D03*
X91300000Y-78500000D03*
X91300000Y-80500000D03*
X91300000Y-82500000D03*
X91300000Y-84500000D03*
X91300000Y-86500000D03*
X91300000Y-88500000D03*
X91300000Y-90500000D03*
X91300000Y-92500000D03*
X91300000Y-94500000D03*
X91300000Y-96500000D03*
X91300000Y-98500000D03*
X91300000Y-100500000D03*
X91300000Y-102500000D03*
X91300000Y-104500000D03*
X91300000Y-106500000D03*
X91300000Y-108500000D03*
X91300000Y-110500000D03*
G04 #@! TD*
D18*
G04 #@! TO.C,R36*
X104080000Y-78500000D03*
D17*
X93920000Y-78500000D03*
G04 #@! TD*
D21*
G04 #@! TO.C,Q1*
X97230000Y-157860000D03*
D22*
X98500000Y-157860000D03*
X99770000Y-157860000D03*
G04 #@! TD*
D18*
G04 #@! TO.C,R107*
X101920000Y-103500000D03*
D17*
X112080000Y-103500000D03*
G04 #@! TD*
D21*
G04 #@! TO.C,Q33*
X167730000Y-72860000D03*
D22*
X169000000Y-72860000D03*
X170270000Y-72860000D03*
G04 #@! TD*
D18*
G04 #@! TO.C,R16*
X104080000Y-142500000D03*
D17*
X93920000Y-142500000D03*
G04 #@! TD*
D18*
G04 #@! TO.C,R43*
X104080000Y-96500000D03*
D17*
X93920000Y-96500000D03*
G04 #@! TD*
D18*
G04 #@! TO.C,R122*
X209580000Y-47500000D03*
D17*
X199420000Y-47500000D03*
G04 #@! TD*
D18*
G04 #@! TO.C,R123*
X209580000Y-49500000D03*
D17*
X199420000Y-49500000D03*
G04 #@! TD*
D18*
G04 #@! TO.C,R96*
X101920000Y-79500000D03*
D17*
X112080000Y-79500000D03*
G04 #@! TD*
D21*
G04 #@! TO.C,Q5*
X94230000Y-26360000D03*
D22*
X95500000Y-26360000D03*
X96770000Y-26360000D03*
G04 #@! TD*
D18*
G04 #@! TO.C,R111*
X101920000Y-111500000D03*
D17*
X112080000Y-111500000D03*
G04 #@! TD*
D18*
G04 #@! TO.C,R157*
X209580000Y-121500000D03*
D17*
X199420000Y-121500000D03*
G04 #@! TD*
D18*
G04 #@! TO.C,R94*
X101920000Y-75500000D03*
D17*
X112080000Y-75500000D03*
G04 #@! TD*
D18*
G04 #@! TO.C,R156*
X209580000Y-119500000D03*
D17*
X199420000Y-119500000D03*
G04 #@! TD*
D18*
G04 #@! TO.C,R9*
X104080000Y-128500000D03*
D17*
X93920000Y-128500000D03*
G04 #@! TD*
D18*
G04 #@! TO.C,R212*
X207420000Y-130500000D03*
D17*
X217580000Y-130500000D03*
G04 #@! TD*
D18*
G04 #@! TO.C,R118*
X173420000Y-73000000D03*
D17*
X183580000Y-73000000D03*
G04 #@! TD*
D18*
G04 #@! TO.C,R202*
X207420000Y-110500000D03*
D17*
X217580000Y-110500000D03*
G04 #@! TD*
D18*
G04 #@! TO.C,R18*
X104080000Y-42500000D03*
D17*
X93920000Y-42500000D03*
G04 #@! TD*
D18*
G04 #@! TO.C,R29*
X104080000Y-64500000D03*
D17*
X93920000Y-64500000D03*
G04 #@! TD*
D18*
G04 #@! TO.C,R205*
X207420000Y-116500000D03*
D17*
X217580000Y-116500000D03*
G04 #@! TD*
D18*
G04 #@! TO.C,R17*
X104080000Y-40500000D03*
D17*
X93920000Y-40500000D03*
G04 #@! TD*
D21*
G04 #@! TO.C,Q28*
X112230000Y-31860000D03*
D22*
X113500000Y-31860000D03*
X114770000Y-31860000D03*
G04 #@! TD*
D15*
G04 #@! TO.C,*
X90360000Y-26510000D03*
G04 #@! TD*
D18*
G04 #@! TO.C,R11*
X104080000Y-132500000D03*
D17*
X93920000Y-132500000D03*
G04 #@! TD*
D18*
G04 #@! TO.C,R162*
X209580000Y-131500000D03*
D17*
X199420000Y-131500000D03*
G04 #@! TD*
D18*
G04 #@! TO.C,R20*
X104080000Y-46500000D03*
D17*
X93920000Y-46500000D03*
G04 #@! TD*
D18*
G04 #@! TO.C,R100*
X101920000Y-87500000D03*
D17*
X112080000Y-87500000D03*
G04 #@! TD*
D18*
G04 #@! TO.C,R218*
X207420000Y-142500000D03*
D17*
X217580000Y-142500000D03*
G04 #@! TD*
D18*
G04 #@! TO.C,R74*
X101920000Y-139500000D03*
D17*
X112080000Y-139500000D03*
G04 #@! TD*
D18*
G04 #@! TO.C,R124*
X209580000Y-51500000D03*
D17*
X199420000Y-51500000D03*
G04 #@! TD*
D18*
G04 #@! TO.C,R215*
X207420000Y-136500000D03*
D17*
X217580000Y-136500000D03*
G04 #@! TD*
D18*
G04 #@! TO.C,R38*
X104080000Y-82500000D03*
D17*
X93920000Y-82500000D03*
G04 #@! TD*
D18*
G04 #@! TO.C,R40*
X104080000Y-86500000D03*
D17*
X93920000Y-86500000D03*
G04 #@! TD*
D18*
G04 #@! TO.C,R182*
X207420000Y-66500000D03*
D17*
X217580000Y-66500000D03*
G04 #@! TD*
D18*
G04 #@! TO.C,R214*
X207420000Y-134500000D03*
D17*
X217580000Y-134500000D03*
G04 #@! TD*
D18*
G04 #@! TO.C,R54*
X149500000Y-72810000D03*
D17*
X149500000Y-65190000D03*
G04 #@! TD*
D18*
G04 #@! TO.C,R53*
X133000000Y-85500000D03*
D17*
X133000000Y-93120000D03*
G04 #@! TD*
D18*
G04 #@! TO.C,R66*
X101920000Y-123500000D03*
D17*
X112080000Y-123500000D03*
G04 #@! TD*
D18*
G04 #@! TO.C,R199*
X207420000Y-104500000D03*
D17*
X217580000Y-104500000D03*
G04 #@! TD*
D21*
G04 #@! TO.C,Q18*
X166230000Y-32360000D03*
D22*
X167500000Y-32360000D03*
X168770000Y-32360000D03*
G04 #@! TD*
D18*
G04 #@! TO.C,R22*
X104080000Y-50500000D03*
D17*
X93920000Y-50500000D03*
G04 #@! TD*
D18*
G04 #@! TO.C,R10*
X104080000Y-130500000D03*
D17*
X93920000Y-130500000D03*
G04 #@! TD*
D18*
G04 #@! TO.C,R140*
X209580000Y-83500000D03*
D17*
X199420000Y-83500000D03*
G04 #@! TD*
D18*
G04 #@! TO.C,R169*
X207420000Y-40500000D03*
D17*
X217580000Y-40500000D03*
G04 #@! TD*
D18*
G04 #@! TO.C,R143*
X209580000Y-89500000D03*
D17*
X199420000Y-89500000D03*
G04 #@! TD*
D18*
G04 #@! TO.C,C6*
X160250000Y-59000000D03*
X157750000Y-59000000D03*
G04 #@! TD*
D19*
G04 #@! TO.C,Q10*
X116600000Y-144100000D03*
D20*
X116600000Y-142830000D03*
X116600000Y-141560000D03*
G04 #@! TD*
D18*
G04 #@! TO.C,C5*
X148550000Y-125900000D03*
X146050000Y-125900000D03*
G04 #@! TD*
D15*
G04 #@! TO.C,REF\u002A\u002A*
X90350000Y-157510000D03*
G04 #@! TD*
D18*
G04 #@! TO.C,R19*
X104080000Y-44500000D03*
D17*
X93920000Y-44500000D03*
G04 #@! TD*
D18*
G04 #@! TO.C,R206*
X207420000Y-118500000D03*
D17*
X217580000Y-118500000D03*
G04 #@! TD*
D18*
G04 #@! TO.C,R65*
X101920000Y-121500000D03*
D17*
X112080000Y-121500000D03*
G04 #@! TD*
D18*
G04 #@! TO.C,R208*
X207420000Y-122500000D03*
D17*
X217580000Y-122500000D03*
G04 #@! TD*
D18*
G04 #@! TO.C,R82*
X101920000Y-51500000D03*
D17*
X112080000Y-51500000D03*
G04 #@! TD*
D18*
G04 #@! TO.C,R128*
X209580000Y-59500000D03*
D17*
X199420000Y-59500000D03*
G04 #@! TD*
D18*
G04 #@! TO.C,R26*
X104080000Y-58500000D03*
D17*
X93920000Y-58500000D03*
G04 #@! TD*
D16*
G04 #@! TO.C,U6*
X155500000Y-66000000D03*
D17*
X155500000Y-68540000D03*
X155500000Y-71080000D03*
X155500000Y-73620000D03*
X155500000Y-76160000D03*
X155500000Y-78700000D03*
X155500000Y-81240000D03*
X155500000Y-83780000D03*
X163120000Y-83780000D03*
X163120000Y-81240000D03*
X163120000Y-78700000D03*
X163120000Y-76160000D03*
X163120000Y-73620000D03*
X163120000Y-71080000D03*
X163120000Y-68540000D03*
X163120000Y-66000000D03*
G04 #@! TD*
D21*
G04 #@! TO.C,Q29*
X106230000Y-31860000D03*
D22*
X107500000Y-31860000D03*
X108770000Y-31860000D03*
G04 #@! TD*
D18*
G04 #@! TO.C,R114*
X94920000Y-153500000D03*
D17*
X105080000Y-153500000D03*
G04 #@! TD*
D18*
G04 #@! TO.C,R21*
X104080000Y-48500000D03*
D17*
X93920000Y-48500000D03*
G04 #@! TD*
D18*
G04 #@! TO.C,R197*
X207420000Y-100500000D03*
D17*
X217580000Y-100500000D03*
G04 #@! TD*
D18*
G04 #@! TO.C,R186*
X207420000Y-74500000D03*
D17*
X217580000Y-74500000D03*
G04 #@! TD*
D18*
G04 #@! TO.C,R119*
X209580000Y-41500000D03*
D17*
X199420000Y-41500000D03*
G04 #@! TD*
D18*
G04 #@! TO.C,R75*
X101920000Y-141500000D03*
D17*
X112080000Y-141500000D03*
G04 #@! TD*
D18*
G04 #@! TO.C,R25*
X104080000Y-56500000D03*
D17*
X93920000Y-56500000D03*
G04 #@! TD*
D18*
G04 #@! TO.C,R168*
X209580000Y-143500000D03*
D17*
X199420000Y-143500000D03*
G04 #@! TD*
D18*
G04 #@! TO.C,R73*
X101920000Y-137500000D03*
D17*
X112080000Y-137500000D03*
G04 #@! TD*
D18*
G04 #@! TO.C,R102*
X101920000Y-89500000D03*
D17*
X112080000Y-89500000D03*
G04 #@! TD*
D21*
G04 #@! TO.C,Q25*
X130230000Y-32360000D03*
D22*
X131500000Y-32360000D03*
X132770000Y-32360000D03*
G04 #@! TD*
D18*
G04 #@! TO.C,R91*
X101920000Y-69500000D03*
D17*
X112080000Y-69500000D03*
G04 #@! TD*
D19*
G04 #@! TO.C,Q11*
X211140000Y-155230000D03*
D20*
X211140000Y-156500000D03*
X211140000Y-157770000D03*
G04 #@! TD*
D18*
G04 #@! TO.C,R92*
X101920000Y-71500000D03*
D17*
X112080000Y-71500000D03*
G04 #@! TD*
D21*
G04 #@! TO.C,Q9*
X94230000Y-31360000D03*
D22*
X95500000Y-31360000D03*
X96770000Y-31360000D03*
G04 #@! TD*
D18*
G04 #@! TO.C,R72*
X102000000Y-135500000D03*
D17*
X112160000Y-135500000D03*
G04 #@! TD*
D18*
G04 #@! TO.C,R161*
X209580000Y-129500000D03*
D17*
X199420000Y-129500000D03*
G04 #@! TD*
D18*
G04 #@! TO.C,R133*
X209580000Y-69500000D03*
D17*
X199420000Y-69500000D03*
G04 #@! TD*
D27*
G04 #@! TO.C,U1*
X128585000Y-151110000D03*
X134035000Y-151110000D03*
D28*
X128885000Y-148080000D03*
X133735000Y-148080000D03*
D29*
X131310000Y-148110000D03*
X132310000Y-151410000D03*
X130310000Y-151410000D03*
X128810000Y-144610000D03*
X128810000Y-142110000D03*
X128810000Y-139610000D03*
G04 #@! TD*
D30*
G04 #@! TO.C,J10*
X141925000Y-93500000D03*
D31*
X144465000Y-93500000D03*
X147005000Y-93500000D03*
X149545000Y-93500000D03*
X152085000Y-93500000D03*
G04 #@! TD*
D32*
G04 #@! TO.C,J1*
X151500000Y-140000000D03*
D33*
X151500000Y-146000000D03*
D34*
X146800000Y-143000000D03*
G04 #@! TD*
D35*
G04 #@! TO.C,U4*
X173967500Y-126517500D03*
D36*
X176507500Y-126517500D03*
X179047500Y-126517500D03*
G04 #@! TD*
M02*
