%FSLAX45Y45*%
G04 Gerber Fmt 4.5, Leading zero omitted, Abs format (unit mm)*
G04 Created by KiCad (PCBNEW (6.0.5)) date 2022-05-25 23:49:51*
%MOMM*%
%LPD*%
G01*
G04 APERTURE LIST*
%TA.AperFunction,Profile*%
%ADD10C,0.100000*%
%TD*%
%ADD11C,0.200000*%
%ADD12C,0.430000*%
%ADD13C,0.600000*%
G04 APERTURE END LIST*
D10*
X8634000Y-2320000D02*
X22534000Y-2320000D01*
X22534000Y-2320000D02*
X22534000Y-16220000D01*
X22534000Y-16220000D02*
X8634000Y-16220000D01*
X8634000Y-16220000D02*
X8634000Y-2320000D01*
D11*
D12*
X8820000Y-15606000D02*
X9250000Y-16036000D01*
X9250000Y-15606000D02*
X8820000Y-16036000D01*
X8821000Y-2506000D02*
X9251000Y-2936000D01*
X9251000Y-2506000D02*
X8821000Y-2936000D01*
X21915000Y-2506000D02*
X22345000Y-2936000D01*
X22345000Y-2506000D02*
X21915000Y-2936000D01*
X21919000Y-15608000D02*
X22349000Y-16038000D01*
X22349000Y-15608000D02*
X21919000Y-16038000D01*
D13*
X10723000Y-4137000D02*
G75*
G03*
X10723000Y-4137000I-300000J0D01*
G01*
D11*
X8886619Y-16535476D02*
X8886619Y-16335476D01*
X8934238Y-16335476D01*
X8962810Y-16345000D01*
X8981857Y-16364048D01*
X8991381Y-16383095D01*
X9000905Y-16421190D01*
X9000905Y-16449762D01*
X8991381Y-16487857D01*
X8981857Y-16506905D01*
X8962810Y-16525952D01*
X8934238Y-16535476D01*
X8886619Y-16535476D01*
X9086619Y-16535476D02*
X9086619Y-16402143D01*
X9086619Y-16440238D02*
X9096143Y-16421190D01*
X9105667Y-16411667D01*
X9124714Y-16402143D01*
X9143762Y-16402143D01*
X9210429Y-16535476D02*
X9210429Y-16402143D01*
X9210429Y-16335476D02*
X9200905Y-16345000D01*
X9210429Y-16354524D01*
X9219952Y-16345000D01*
X9210429Y-16335476D01*
X9210429Y-16354524D01*
X9334238Y-16535476D02*
X9315190Y-16525952D01*
X9305667Y-16506905D01*
X9305667Y-16335476D01*
X9439000Y-16535476D02*
X9419952Y-16525952D01*
X9410429Y-16506905D01*
X9410429Y-16335476D01*
X9667571Y-16535476D02*
X9667571Y-16335476D01*
X9734238Y-16478333D01*
X9800905Y-16335476D01*
X9800905Y-16535476D01*
X9981857Y-16535476D02*
X9981857Y-16430714D01*
X9972333Y-16411667D01*
X9953286Y-16402143D01*
X9915190Y-16402143D01*
X9896143Y-16411667D01*
X9981857Y-16525952D02*
X9962810Y-16535476D01*
X9915190Y-16535476D01*
X9896143Y-16525952D01*
X9886619Y-16506905D01*
X9886619Y-16487857D01*
X9896143Y-16468809D01*
X9915190Y-16459286D01*
X9962810Y-16459286D01*
X9981857Y-16449762D01*
X10077095Y-16402143D02*
X10077095Y-16602143D01*
X10077095Y-16411667D02*
X10096143Y-16402143D01*
X10134238Y-16402143D01*
X10153286Y-16411667D01*
X10162810Y-16421190D01*
X10172333Y-16440238D01*
X10172333Y-16497381D01*
X10162810Y-16516428D01*
X10153286Y-16525952D01*
X10134238Y-16535476D01*
X10096143Y-16535476D01*
X10077095Y-16525952D01*
X10258048Y-16516428D02*
X10267571Y-16525952D01*
X10258048Y-16535476D01*
X10248524Y-16525952D01*
X10258048Y-16516428D01*
X10258048Y-16535476D01*
X10258048Y-16411667D02*
X10267571Y-16421190D01*
X10258048Y-16430714D01*
X10248524Y-16421190D01*
X10258048Y-16411667D01*
X10258048Y-16430714D01*
X8429000Y-16765000D02*
X8629000Y-16965000D01*
X8629000Y-16765000D02*
X8429000Y-16965000D01*
X8972333Y-16822143D02*
X8972333Y-16955476D01*
X8924714Y-16745952D02*
X8877095Y-16888810D01*
X9000905Y-16888810D01*
X9077095Y-16936429D02*
X9086619Y-16945952D01*
X9077095Y-16955476D01*
X9067571Y-16945952D01*
X9077095Y-16936429D01*
X9077095Y-16955476D01*
X9153286Y-16755476D02*
X9277095Y-16755476D01*
X9210429Y-16831667D01*
X9239000Y-16831667D01*
X9258048Y-16841190D01*
X9267571Y-16850714D01*
X9277095Y-16869762D01*
X9277095Y-16917381D01*
X9267571Y-16936429D01*
X9258048Y-16945952D01*
X9239000Y-16955476D01*
X9181857Y-16955476D01*
X9162810Y-16945952D01*
X9153286Y-16936429D01*
X9400905Y-16755476D02*
X9419952Y-16755476D01*
X9439000Y-16765000D01*
X9448524Y-16774524D01*
X9458048Y-16793571D01*
X9467571Y-16831667D01*
X9467571Y-16879286D01*
X9458048Y-16917381D01*
X9448524Y-16936429D01*
X9439000Y-16945952D01*
X9419952Y-16955476D01*
X9400905Y-16955476D01*
X9381857Y-16945952D01*
X9372333Y-16936429D01*
X9362810Y-16917381D01*
X9353286Y-16879286D01*
X9353286Y-16831667D01*
X9362810Y-16793571D01*
X9372333Y-16774524D01*
X9381857Y-16765000D01*
X9400905Y-16755476D01*
X9591381Y-16755476D02*
X9610429Y-16755476D01*
X9629476Y-16765000D01*
X9639000Y-16774524D01*
X9648524Y-16793571D01*
X9658048Y-16831667D01*
X9658048Y-16879286D01*
X9648524Y-16917381D01*
X9639000Y-16936429D01*
X9629476Y-16945952D01*
X9610429Y-16955476D01*
X9591381Y-16955476D01*
X9572333Y-16945952D01*
X9562810Y-16936429D01*
X9553286Y-16917381D01*
X9543762Y-16879286D01*
X9543762Y-16831667D01*
X9553286Y-16793571D01*
X9562810Y-16774524D01*
X9572333Y-16765000D01*
X9591381Y-16755476D01*
X9743762Y-16955476D02*
X9743762Y-16822143D01*
X9743762Y-16841190D02*
X9753286Y-16831667D01*
X9772333Y-16822143D01*
X9800905Y-16822143D01*
X9819952Y-16831667D01*
X9829476Y-16850714D01*
X9829476Y-16955476D01*
X9829476Y-16850714D02*
X9839000Y-16831667D01*
X9858048Y-16822143D01*
X9886619Y-16822143D01*
X9905667Y-16831667D01*
X9915190Y-16850714D01*
X9915190Y-16955476D01*
X10010429Y-16955476D02*
X10010429Y-16822143D01*
X10010429Y-16841190D02*
X10019952Y-16831667D01*
X10039000Y-16822143D01*
X10067571Y-16822143D01*
X10086619Y-16831667D01*
X10096143Y-16850714D01*
X10096143Y-16955476D01*
X10096143Y-16850714D02*
X10105667Y-16831667D01*
X10124714Y-16822143D01*
X10153286Y-16822143D01*
X10172333Y-16831667D01*
X10181857Y-16850714D01*
X10181857Y-16955476D01*
X10572333Y-16745952D02*
X10400905Y-17003095D01*
X10829476Y-16755476D02*
X10848524Y-16755476D01*
X10867571Y-16765000D01*
X10877095Y-16774524D01*
X10886619Y-16793571D01*
X10896143Y-16831667D01*
X10896143Y-16879286D01*
X10886619Y-16917381D01*
X10877095Y-16936429D01*
X10867571Y-16945952D01*
X10848524Y-16955476D01*
X10829476Y-16955476D01*
X10810429Y-16945952D01*
X10800905Y-16936429D01*
X10791381Y-16917381D01*
X10781857Y-16879286D01*
X10781857Y-16831667D01*
X10791381Y-16793571D01*
X10800905Y-16774524D01*
X10810429Y-16765000D01*
X10829476Y-16755476D01*
X10981857Y-16936429D02*
X10991381Y-16945952D01*
X10981857Y-16955476D01*
X10972333Y-16945952D01*
X10981857Y-16936429D01*
X10981857Y-16955476D01*
X11181857Y-16955476D02*
X11067571Y-16955476D01*
X11124714Y-16955476D02*
X11124714Y-16755476D01*
X11105667Y-16784048D01*
X11086619Y-16803095D01*
X11067571Y-16812619D01*
X11353286Y-16755476D02*
X11315190Y-16755476D01*
X11296143Y-16765000D01*
X11286619Y-16774524D01*
X11267571Y-16803095D01*
X11258048Y-16841190D01*
X11258048Y-16917381D01*
X11267571Y-16936429D01*
X11277095Y-16945952D01*
X11296143Y-16955476D01*
X11334238Y-16955476D01*
X11353286Y-16945952D01*
X11362809Y-16936429D01*
X11372333Y-16917381D01*
X11372333Y-16869762D01*
X11362809Y-16850714D01*
X11353286Y-16841190D01*
X11334238Y-16831667D01*
X11296143Y-16831667D01*
X11277095Y-16841190D01*
X11267571Y-16850714D01*
X11258048Y-16869762D01*
X11467571Y-16955476D02*
X11505667Y-16955476D01*
X11524714Y-16945952D01*
X11534238Y-16936429D01*
X11553286Y-16907857D01*
X11562809Y-16869762D01*
X11562809Y-16793571D01*
X11553286Y-16774524D01*
X11543762Y-16765000D01*
X11524714Y-16755476D01*
X11486619Y-16755476D01*
X11467571Y-16765000D01*
X11458048Y-16774524D01*
X11448524Y-16793571D01*
X11448524Y-16841190D01*
X11458048Y-16860238D01*
X11467571Y-16869762D01*
X11486619Y-16879286D01*
X11524714Y-16879286D01*
X11543762Y-16869762D01*
X11553286Y-16860238D01*
X11562809Y-16841190D01*
X11629476Y-16755476D02*
X11753286Y-16755476D01*
X11686619Y-16831667D01*
X11715190Y-16831667D01*
X11734238Y-16841190D01*
X11743762Y-16850714D01*
X11753286Y-16869762D01*
X11753286Y-16917381D01*
X11743762Y-16936429D01*
X11734238Y-16945952D01*
X11715190Y-16955476D01*
X11658048Y-16955476D01*
X11639000Y-16945952D01*
X11629476Y-16936429D01*
X11829476Y-16755476D02*
X11829476Y-16793571D01*
X11905667Y-16755476D02*
X11905667Y-16793571D01*
X12200905Y-17031667D02*
X12191381Y-17022143D01*
X12172333Y-16993571D01*
X12162809Y-16974524D01*
X12153286Y-16945952D01*
X12143762Y-16898333D01*
X12143762Y-16860238D01*
X12153286Y-16812619D01*
X12162809Y-16784048D01*
X12172333Y-16765000D01*
X12191381Y-16736428D01*
X12200905Y-16726905D01*
X12362809Y-16822143D02*
X12362809Y-16955476D01*
X12315190Y-16745952D02*
X12267571Y-16888810D01*
X12391381Y-16888810D01*
X12619952Y-16955476D02*
X12619952Y-16755476D01*
X12705667Y-16955476D02*
X12705667Y-16850714D01*
X12696143Y-16831667D01*
X12677095Y-16822143D01*
X12648524Y-16822143D01*
X12629476Y-16831667D01*
X12619952Y-16841190D01*
X12829476Y-16955476D02*
X12810428Y-16945952D01*
X12800905Y-16936429D01*
X12791381Y-16917381D01*
X12791381Y-16860238D01*
X12800905Y-16841190D01*
X12810428Y-16831667D01*
X12829476Y-16822143D01*
X12858048Y-16822143D01*
X12877095Y-16831667D01*
X12886619Y-16841190D01*
X12896143Y-16860238D01*
X12896143Y-16917381D01*
X12886619Y-16936429D01*
X12877095Y-16945952D01*
X12858048Y-16955476D01*
X12829476Y-16955476D01*
X13010428Y-16955476D02*
X12991381Y-16945952D01*
X12981857Y-16926905D01*
X12981857Y-16755476D01*
X13162809Y-16945952D02*
X13143762Y-16955476D01*
X13105667Y-16955476D01*
X13086619Y-16945952D01*
X13077095Y-16926905D01*
X13077095Y-16850714D01*
X13086619Y-16831667D01*
X13105667Y-16822143D01*
X13143762Y-16822143D01*
X13162809Y-16831667D01*
X13172333Y-16850714D01*
X13172333Y-16869762D01*
X13077095Y-16888810D01*
X13248524Y-16945952D02*
X13267571Y-16955476D01*
X13305667Y-16955476D01*
X13324714Y-16945952D01*
X13334238Y-16926905D01*
X13334238Y-16917381D01*
X13324714Y-16898333D01*
X13305667Y-16888810D01*
X13277095Y-16888810D01*
X13258048Y-16879286D01*
X13248524Y-16860238D01*
X13248524Y-16850714D01*
X13258048Y-16831667D01*
X13277095Y-16822143D01*
X13305667Y-16822143D01*
X13324714Y-16831667D01*
X13400905Y-17031667D02*
X13410428Y-17022143D01*
X13429476Y-16993571D01*
X13439000Y-16974524D01*
X13448524Y-16945952D01*
X13458048Y-16898333D01*
X13458048Y-16860238D01*
X13448524Y-16812619D01*
X13439000Y-16784048D01*
X13429476Y-16765000D01*
X13410428Y-16736428D01*
X13400905Y-16726905D01*
X13762809Y-17031667D02*
X13753286Y-17022143D01*
X13734238Y-16993571D01*
X13724714Y-16974524D01*
X13715190Y-16945952D01*
X13705667Y-16898333D01*
X13705667Y-16860238D01*
X13715190Y-16812619D01*
X13724714Y-16784048D01*
X13734238Y-16765000D01*
X13753286Y-16736428D01*
X13762809Y-16726905D01*
X13839000Y-16822143D02*
X13839000Y-16955476D01*
X13839000Y-16841190D02*
X13848524Y-16831667D01*
X13867571Y-16822143D01*
X13896143Y-16822143D01*
X13915190Y-16831667D01*
X13924714Y-16850714D01*
X13924714Y-16955476D01*
X14048524Y-16955476D02*
X14029476Y-16945952D01*
X14019952Y-16936429D01*
X14010428Y-16917381D01*
X14010428Y-16860238D01*
X14019952Y-16841190D01*
X14029476Y-16831667D01*
X14048524Y-16822143D01*
X14077095Y-16822143D01*
X14096143Y-16831667D01*
X14105667Y-16841190D01*
X14115190Y-16860238D01*
X14115190Y-16917381D01*
X14105667Y-16936429D01*
X14096143Y-16945952D01*
X14077095Y-16955476D01*
X14048524Y-16955476D01*
X14172333Y-16822143D02*
X14248524Y-16822143D01*
X14200905Y-16755476D02*
X14200905Y-16926905D01*
X14210428Y-16945952D01*
X14229476Y-16955476D01*
X14248524Y-16955476D01*
X14467571Y-16822143D02*
X14467571Y-17022143D01*
X14467571Y-16831667D02*
X14486619Y-16822143D01*
X14524714Y-16822143D01*
X14543762Y-16831667D01*
X14553286Y-16841190D01*
X14562809Y-16860238D01*
X14562809Y-16917381D01*
X14553286Y-16936429D01*
X14543762Y-16945952D01*
X14524714Y-16955476D01*
X14486619Y-16955476D01*
X14467571Y-16945952D01*
X14677095Y-16955476D02*
X14658048Y-16945952D01*
X14648524Y-16926905D01*
X14648524Y-16755476D01*
X14839000Y-16955476D02*
X14839000Y-16850714D01*
X14829476Y-16831667D01*
X14810428Y-16822143D01*
X14772333Y-16822143D01*
X14753286Y-16831667D01*
X14839000Y-16945952D02*
X14819952Y-16955476D01*
X14772333Y-16955476D01*
X14753286Y-16945952D01*
X14743762Y-16926905D01*
X14743762Y-16907857D01*
X14753286Y-16888810D01*
X14772333Y-16879286D01*
X14819952Y-16879286D01*
X14839000Y-16869762D01*
X14905667Y-16822143D02*
X14981857Y-16822143D01*
X14934238Y-16755476D02*
X14934238Y-16926905D01*
X14943762Y-16945952D01*
X14962809Y-16955476D01*
X14981857Y-16955476D01*
X15124714Y-16945952D02*
X15105667Y-16955476D01*
X15067571Y-16955476D01*
X15048524Y-16945952D01*
X15039000Y-16926905D01*
X15039000Y-16850714D01*
X15048524Y-16831667D01*
X15067571Y-16822143D01*
X15105667Y-16822143D01*
X15124714Y-16831667D01*
X15134238Y-16850714D01*
X15134238Y-16869762D01*
X15039000Y-16888810D01*
X15305667Y-16955476D02*
X15305667Y-16755476D01*
X15305667Y-16945952D02*
X15286619Y-16955476D01*
X15248524Y-16955476D01*
X15229476Y-16945952D01*
X15219952Y-16936429D01*
X15210428Y-16917381D01*
X15210428Y-16860238D01*
X15219952Y-16841190D01*
X15229476Y-16831667D01*
X15248524Y-16822143D01*
X15286619Y-16822143D01*
X15305667Y-16831667D01*
X15381857Y-17031667D02*
X15391381Y-17022143D01*
X15410428Y-16993571D01*
X15419952Y-16974524D01*
X15429476Y-16945952D01*
X15439000Y-16898333D01*
X15439000Y-16860238D01*
X15429476Y-16812619D01*
X15419952Y-16784048D01*
X15410428Y-16765000D01*
X15391381Y-16736428D01*
X15381857Y-16726905D01*
X8629000Y-17185000D02*
G75*
G03*
X8629000Y-17185000I-100000J0D01*
G01*
X8972333Y-17075476D02*
X8934238Y-17075476D01*
X8915190Y-17085000D01*
X8905667Y-17094524D01*
X8886619Y-17123095D01*
X8877095Y-17161190D01*
X8877095Y-17237381D01*
X8886619Y-17256429D01*
X8896143Y-17265952D01*
X8915190Y-17275476D01*
X8953286Y-17275476D01*
X8972333Y-17265952D01*
X8981857Y-17256429D01*
X8991381Y-17237381D01*
X8991381Y-17189762D01*
X8981857Y-17170714D01*
X8972333Y-17161190D01*
X8953286Y-17151667D01*
X8915190Y-17151667D01*
X8896143Y-17161190D01*
X8886619Y-17170714D01*
X8877095Y-17189762D01*
X9077095Y-17256429D02*
X9086619Y-17265952D01*
X9077095Y-17275476D01*
X9067571Y-17265952D01*
X9077095Y-17256429D01*
X9077095Y-17275476D01*
X9210429Y-17075476D02*
X9229476Y-17075476D01*
X9248524Y-17085000D01*
X9258048Y-17094524D01*
X9267571Y-17113571D01*
X9277095Y-17151667D01*
X9277095Y-17199286D01*
X9267571Y-17237381D01*
X9258048Y-17256429D01*
X9248524Y-17265952D01*
X9229476Y-17275476D01*
X9210429Y-17275476D01*
X9191381Y-17265952D01*
X9181857Y-17256429D01*
X9172333Y-17237381D01*
X9162810Y-17199286D01*
X9162810Y-17151667D01*
X9172333Y-17113571D01*
X9181857Y-17094524D01*
X9191381Y-17085000D01*
X9210429Y-17075476D01*
X9400905Y-17075476D02*
X9419952Y-17075476D01*
X9439000Y-17085000D01*
X9448524Y-17094524D01*
X9458048Y-17113571D01*
X9467571Y-17151667D01*
X9467571Y-17199286D01*
X9458048Y-17237381D01*
X9448524Y-17256429D01*
X9439000Y-17265952D01*
X9419952Y-17275476D01*
X9400905Y-17275476D01*
X9381857Y-17265952D01*
X9372333Y-17256429D01*
X9362810Y-17237381D01*
X9353286Y-17199286D01*
X9353286Y-17151667D01*
X9362810Y-17113571D01*
X9372333Y-17094524D01*
X9381857Y-17085000D01*
X9400905Y-17075476D01*
X9591381Y-17075476D02*
X9610429Y-17075476D01*
X9629476Y-17085000D01*
X9639000Y-17094524D01*
X9648524Y-17113571D01*
X9658048Y-17151667D01*
X9658048Y-17199286D01*
X9648524Y-17237381D01*
X9639000Y-17256429D01*
X9629476Y-17265952D01*
X9610429Y-17275476D01*
X9591381Y-17275476D01*
X9572333Y-17265952D01*
X9562810Y-17256429D01*
X9553286Y-17237381D01*
X9543762Y-17199286D01*
X9543762Y-17151667D01*
X9553286Y-17113571D01*
X9562810Y-17094524D01*
X9572333Y-17085000D01*
X9591381Y-17075476D01*
X9743762Y-17275476D02*
X9743762Y-17142143D01*
X9743762Y-17161190D02*
X9753286Y-17151667D01*
X9772333Y-17142143D01*
X9800905Y-17142143D01*
X9819952Y-17151667D01*
X9829476Y-17170714D01*
X9829476Y-17275476D01*
X9829476Y-17170714D02*
X9839000Y-17151667D01*
X9858048Y-17142143D01*
X9886619Y-17142143D01*
X9905667Y-17151667D01*
X9915190Y-17170714D01*
X9915190Y-17275476D01*
X10010429Y-17275476D02*
X10010429Y-17142143D01*
X10010429Y-17161190D02*
X10019952Y-17151667D01*
X10039000Y-17142143D01*
X10067571Y-17142143D01*
X10086619Y-17151667D01*
X10096143Y-17170714D01*
X10096143Y-17275476D01*
X10096143Y-17170714D02*
X10105667Y-17151667D01*
X10124714Y-17142143D01*
X10153286Y-17142143D01*
X10172333Y-17151667D01*
X10181857Y-17170714D01*
X10181857Y-17275476D01*
X10572333Y-17065952D02*
X10400905Y-17323095D01*
X10829476Y-17075476D02*
X10848524Y-17075476D01*
X10867571Y-17085000D01*
X10877095Y-17094524D01*
X10886619Y-17113571D01*
X10896143Y-17151667D01*
X10896143Y-17199286D01*
X10886619Y-17237381D01*
X10877095Y-17256429D01*
X10867571Y-17265952D01*
X10848524Y-17275476D01*
X10829476Y-17275476D01*
X10810429Y-17265952D01*
X10800905Y-17256429D01*
X10791381Y-17237381D01*
X10781857Y-17199286D01*
X10781857Y-17151667D01*
X10791381Y-17113571D01*
X10800905Y-17094524D01*
X10810429Y-17085000D01*
X10829476Y-17075476D01*
X10981857Y-17256429D02*
X10991381Y-17265952D01*
X10981857Y-17275476D01*
X10972333Y-17265952D01*
X10981857Y-17256429D01*
X10981857Y-17275476D01*
X11067571Y-17094524D02*
X11077095Y-17085000D01*
X11096143Y-17075476D01*
X11143762Y-17075476D01*
X11162810Y-17085000D01*
X11172333Y-17094524D01*
X11181857Y-17113571D01*
X11181857Y-17132619D01*
X11172333Y-17161190D01*
X11058048Y-17275476D01*
X11181857Y-17275476D01*
X11248524Y-17075476D02*
X11372333Y-17075476D01*
X11305667Y-17151667D01*
X11334238Y-17151667D01*
X11353286Y-17161190D01*
X11362809Y-17170714D01*
X11372333Y-17189762D01*
X11372333Y-17237381D01*
X11362809Y-17256429D01*
X11353286Y-17265952D01*
X11334238Y-17275476D01*
X11277095Y-17275476D01*
X11258048Y-17265952D01*
X11248524Y-17256429D01*
X11543762Y-17075476D02*
X11505667Y-17075476D01*
X11486619Y-17085000D01*
X11477095Y-17094524D01*
X11458048Y-17123095D01*
X11448524Y-17161190D01*
X11448524Y-17237381D01*
X11458048Y-17256429D01*
X11467571Y-17265952D01*
X11486619Y-17275476D01*
X11524714Y-17275476D01*
X11543762Y-17265952D01*
X11553286Y-17256429D01*
X11562809Y-17237381D01*
X11562809Y-17189762D01*
X11553286Y-17170714D01*
X11543762Y-17161190D01*
X11524714Y-17151667D01*
X11486619Y-17151667D01*
X11467571Y-17161190D01*
X11458048Y-17170714D01*
X11448524Y-17189762D01*
X11639000Y-17094524D02*
X11648524Y-17085000D01*
X11667571Y-17075476D01*
X11715190Y-17075476D01*
X11734238Y-17085000D01*
X11743762Y-17094524D01*
X11753286Y-17113571D01*
X11753286Y-17132619D01*
X11743762Y-17161190D01*
X11629476Y-17275476D01*
X11753286Y-17275476D01*
X11829476Y-17075476D02*
X11829476Y-17113571D01*
X11905667Y-17075476D02*
X11905667Y-17113571D01*
X12200905Y-17351667D02*
X12191381Y-17342143D01*
X12172333Y-17313571D01*
X12162809Y-17294524D01*
X12153286Y-17265952D01*
X12143762Y-17218333D01*
X12143762Y-17180238D01*
X12153286Y-17132619D01*
X12162809Y-17104048D01*
X12172333Y-17085000D01*
X12191381Y-17056429D01*
X12200905Y-17046905D01*
X12381857Y-17275476D02*
X12267571Y-17275476D01*
X12324714Y-17275476D02*
X12324714Y-17075476D01*
X12305667Y-17104048D01*
X12286619Y-17123095D01*
X12267571Y-17132619D01*
X12619952Y-17275476D02*
X12619952Y-17075476D01*
X12705667Y-17275476D02*
X12705667Y-17170714D01*
X12696143Y-17151667D01*
X12677095Y-17142143D01*
X12648524Y-17142143D01*
X12629476Y-17151667D01*
X12619952Y-17161190D01*
X12829476Y-17275476D02*
X12810428Y-17265952D01*
X12800905Y-17256429D01*
X12791381Y-17237381D01*
X12791381Y-17180238D01*
X12800905Y-17161190D01*
X12810428Y-17151667D01*
X12829476Y-17142143D01*
X12858048Y-17142143D01*
X12877095Y-17151667D01*
X12886619Y-17161190D01*
X12896143Y-17180238D01*
X12896143Y-17237381D01*
X12886619Y-17256429D01*
X12877095Y-17265952D01*
X12858048Y-17275476D01*
X12829476Y-17275476D01*
X13010428Y-17275476D02*
X12991381Y-17265952D01*
X12981857Y-17246905D01*
X12981857Y-17075476D01*
X13162809Y-17265952D02*
X13143762Y-17275476D01*
X13105667Y-17275476D01*
X13086619Y-17265952D01*
X13077095Y-17246905D01*
X13077095Y-17170714D01*
X13086619Y-17151667D01*
X13105667Y-17142143D01*
X13143762Y-17142143D01*
X13162809Y-17151667D01*
X13172333Y-17170714D01*
X13172333Y-17189762D01*
X13077095Y-17208810D01*
X13239000Y-17351667D02*
X13248524Y-17342143D01*
X13267571Y-17313571D01*
X13277095Y-17294524D01*
X13286619Y-17265952D01*
X13296143Y-17218333D01*
X13296143Y-17180238D01*
X13286619Y-17132619D01*
X13277095Y-17104048D01*
X13267571Y-17085000D01*
X13248524Y-17056429D01*
X13239000Y-17046905D01*
X13600905Y-17351667D02*
X13591381Y-17342143D01*
X13572333Y-17313571D01*
X13562809Y-17294524D01*
X13553286Y-17265952D01*
X13543762Y-17218333D01*
X13543762Y-17180238D01*
X13553286Y-17132619D01*
X13562809Y-17104048D01*
X13572333Y-17085000D01*
X13591381Y-17056429D01*
X13600905Y-17046905D01*
X13677095Y-17142143D02*
X13677095Y-17275476D01*
X13677095Y-17161190D02*
X13686619Y-17151667D01*
X13705667Y-17142143D01*
X13734238Y-17142143D01*
X13753286Y-17151667D01*
X13762809Y-17170714D01*
X13762809Y-17275476D01*
X13886619Y-17275476D02*
X13867571Y-17265952D01*
X13858048Y-17256429D01*
X13848524Y-17237381D01*
X13848524Y-17180238D01*
X13858048Y-17161190D01*
X13867571Y-17151667D01*
X13886619Y-17142143D01*
X13915190Y-17142143D01*
X13934238Y-17151667D01*
X13943762Y-17161190D01*
X13953286Y-17180238D01*
X13953286Y-17237381D01*
X13943762Y-17256429D01*
X13934238Y-17265952D01*
X13915190Y-17275476D01*
X13886619Y-17275476D01*
X14010428Y-17142143D02*
X14086619Y-17142143D01*
X14039000Y-17075476D02*
X14039000Y-17246905D01*
X14048524Y-17265952D01*
X14067571Y-17275476D01*
X14086619Y-17275476D01*
X14305667Y-17142143D02*
X14305667Y-17342143D01*
X14305667Y-17151667D02*
X14324714Y-17142143D01*
X14362809Y-17142143D01*
X14381857Y-17151667D01*
X14391381Y-17161190D01*
X14400905Y-17180238D01*
X14400905Y-17237381D01*
X14391381Y-17256429D01*
X14381857Y-17265952D01*
X14362809Y-17275476D01*
X14324714Y-17275476D01*
X14305667Y-17265952D01*
X14515190Y-17275476D02*
X14496143Y-17265952D01*
X14486619Y-17246905D01*
X14486619Y-17075476D01*
X14677095Y-17275476D02*
X14677095Y-17170714D01*
X14667571Y-17151667D01*
X14648524Y-17142143D01*
X14610428Y-17142143D01*
X14591381Y-17151667D01*
X14677095Y-17265952D02*
X14658048Y-17275476D01*
X14610428Y-17275476D01*
X14591381Y-17265952D01*
X14581857Y-17246905D01*
X14581857Y-17227857D01*
X14591381Y-17208810D01*
X14610428Y-17199286D01*
X14658048Y-17199286D01*
X14677095Y-17189762D01*
X14743762Y-17142143D02*
X14819952Y-17142143D01*
X14772333Y-17075476D02*
X14772333Y-17246905D01*
X14781857Y-17265952D01*
X14800905Y-17275476D01*
X14819952Y-17275476D01*
X14962809Y-17265952D02*
X14943762Y-17275476D01*
X14905667Y-17275476D01*
X14886619Y-17265952D01*
X14877095Y-17246905D01*
X14877095Y-17170714D01*
X14886619Y-17151667D01*
X14905667Y-17142143D01*
X14943762Y-17142143D01*
X14962809Y-17151667D01*
X14972333Y-17170714D01*
X14972333Y-17189762D01*
X14877095Y-17208810D01*
X15143762Y-17275476D02*
X15143762Y-17075476D01*
X15143762Y-17265952D02*
X15124714Y-17275476D01*
X15086619Y-17275476D01*
X15067571Y-17265952D01*
X15058048Y-17256429D01*
X15048524Y-17237381D01*
X15048524Y-17180238D01*
X15058048Y-17161190D01*
X15067571Y-17151667D01*
X15086619Y-17142143D01*
X15124714Y-17142143D01*
X15143762Y-17151667D01*
X15219952Y-17351667D02*
X15229476Y-17342143D01*
X15248524Y-17313571D01*
X15258048Y-17294524D01*
X15267571Y-17265952D01*
X15277095Y-17218333D01*
X15277095Y-17180238D01*
X15267571Y-17132619D01*
X15258048Y-17104048D01*
X15248524Y-17085000D01*
X15229476Y-17056429D01*
X15219952Y-17046905D01*
M02*
