%FSLAX45Y45*%
G04 Gerber Fmt 4.5, Leading zero omitted, Abs format (unit mm)*
G04 Created by KiCad (PCBNEW (6.0.5)) date 2022-05-25 23:49:51*
%MOMM*%
%LPD*%
G01*
G04 APERTURE LIST*
%TA.AperFunction,Profile*%
%ADD10C,0.100000*%
%TD*%
%ADD11C,0.200000*%
%ADD12C,0.040000*%
%ADD13C,0.050000*%
%ADD14C,0.075000*%
%ADD15C,0.080000*%
%ADD16C,0.090000*%
%ADD17C,0.100000*%
%ADD18C,0.104000*%
G04 APERTURE END LIST*
D10*
X8634000Y-2320000D02*
X22534000Y-2320000D01*
X22534000Y-2320000D02*
X22534000Y-16220000D01*
X22534000Y-16220000D02*
X8634000Y-16220000D01*
X8634000Y-16220000D02*
X8634000Y-2320000D01*
D11*
D12*
X9410000Y-14910000D02*
X9450000Y-14950000D01*
X9450000Y-14910000D02*
X9410000Y-14950000D01*
X9420000Y-15500000D02*
X9460000Y-15540000D01*
X9460000Y-15500000D02*
X9420000Y-15540000D01*
X9670000Y-3980000D02*
X9710000Y-4020000D01*
X9710000Y-3980000D02*
X9670000Y-4020000D01*
X9810000Y-15447550D02*
X9850000Y-15487550D01*
X9850000Y-15447550D02*
X9810000Y-15487550D01*
X10370000Y-4950000D02*
X10410000Y-4990000D01*
X10410000Y-4950000D02*
X10370000Y-4990000D01*
X10410000Y-14430000D02*
X10450000Y-14470000D01*
X10450000Y-14430000D02*
X10410000Y-14470000D01*
X10550000Y-5070000D02*
X10590000Y-5110000D01*
X10590000Y-5070000D02*
X10550000Y-5110000D01*
X10550000Y-14720000D02*
X10590000Y-14760000D01*
X10590000Y-14720000D02*
X10550000Y-14760000D01*
X10650000Y-5230000D02*
X10690000Y-5270000D01*
X10690000Y-5230000D02*
X10650000Y-5270000D01*
X10680000Y-3150000D02*
X10720000Y-3190000D01*
X10720000Y-3150000D02*
X10680000Y-3190000D01*
X10820000Y-15410000D02*
X10860000Y-15450000D01*
X10860000Y-15410000D02*
X10820000Y-15450000D01*
X10870000Y-3020000D02*
X10910000Y-3060000D01*
X10910000Y-3020000D02*
X10870000Y-3060000D01*
X11020000Y-9700000D02*
X11060000Y-9740000D01*
X11060000Y-9700000D02*
X11020000Y-9740000D01*
X11050000Y-4580000D02*
X11090000Y-4620000D01*
X11090000Y-4580000D02*
X11050000Y-4620000D01*
X11050000Y-5380000D02*
X11090000Y-5420000D01*
X11090000Y-5380000D02*
X11050000Y-5420000D01*
X11190000Y-4410000D02*
X11230000Y-4450000D01*
X11230000Y-4410000D02*
X11190000Y-4450000D01*
X11190000Y-5520000D02*
X11230000Y-5560000D01*
X11230000Y-5520000D02*
X11190000Y-5560000D01*
X11250000Y-15390000D02*
X11290000Y-15430000D01*
X11290000Y-15390000D02*
X11250000Y-15430000D01*
X11260000Y-14790000D02*
X11300000Y-14830000D01*
X11300000Y-14790000D02*
X11260000Y-14830000D01*
X11420000Y-3830000D02*
X11460000Y-3870000D01*
X11460000Y-3830000D02*
X11420000Y-3870000D01*
X11440000Y-5750000D02*
X11480000Y-5790000D01*
X11480000Y-5750000D02*
X11440000Y-5790000D01*
X11530000Y-4400000D02*
X11570000Y-4440000D01*
X11570000Y-4400000D02*
X11530000Y-4440000D01*
X11570000Y-3030000D02*
X11610000Y-3070000D01*
X11610000Y-3030000D02*
X11570000Y-3070000D01*
X11640000Y-3830000D02*
X11680000Y-3870000D01*
X11680000Y-3830000D02*
X11640000Y-3870000D01*
X11650000Y-14780000D02*
X11690000Y-14820000D01*
X11690000Y-14780000D02*
X11650000Y-14820000D01*
X11680000Y-3630000D02*
X11720000Y-3670000D01*
X11720000Y-3630000D02*
X11680000Y-3670000D01*
X11840000Y-3150000D02*
X11880000Y-3190000D01*
X11880000Y-3150000D02*
X11840000Y-3190000D01*
X11950000Y-4900000D02*
X11990000Y-4940000D01*
X11990000Y-4900000D02*
X11950000Y-4940000D01*
X12060000Y-3060000D02*
X12100000Y-3100000D01*
X12100000Y-3060000D02*
X12060000Y-3100000D01*
X12100000Y-14660000D02*
X12140000Y-14700000D01*
X12140000Y-14660000D02*
X12100000Y-14700000D01*
X12260000Y-14780000D02*
X12300000Y-14820000D01*
X12300000Y-14780000D02*
X12260000Y-14820000D01*
X12300000Y-3800000D02*
X12340000Y-3840000D01*
X12340000Y-3800000D02*
X12300000Y-3840000D01*
X12310000Y-6130000D02*
X12350000Y-6170000D01*
X12350000Y-6130000D02*
X12310000Y-6170000D01*
X12410000Y-3060000D02*
X12450000Y-3100000D01*
X12450000Y-3060000D02*
X12410000Y-3100000D01*
X12490000Y-4700000D02*
X12530000Y-4740000D01*
X12530000Y-4700000D02*
X12490000Y-4740000D01*
X12650000Y-14350000D02*
X12690000Y-14390000D01*
X12690000Y-14350000D02*
X12650000Y-14390000D01*
X12790000Y-4320000D02*
X12830000Y-4360000D01*
X12830000Y-4320000D02*
X12790000Y-4360000D01*
X12870000Y-15430000D02*
X12910000Y-15470000D01*
X12910000Y-15430000D02*
X12870000Y-15470000D01*
X13200000Y-14570000D02*
X13240000Y-14610000D01*
X13240000Y-14570000D02*
X13200000Y-14610000D01*
X13240000Y-8190000D02*
X13280000Y-8230000D01*
X13280000Y-8190000D02*
X13240000Y-8230000D01*
X13250000Y-9920000D02*
X13290000Y-9960000D01*
X13290000Y-9920000D02*
X13250000Y-9960000D01*
X13260000Y-3790000D02*
X13300000Y-3830000D01*
X13300000Y-3790000D02*
X13260000Y-3830000D01*
X13270000Y-9110000D02*
X13310000Y-9150000D01*
X13310000Y-9110000D02*
X13270000Y-9150000D01*
X13360000Y-5050000D02*
X13400000Y-5090000D01*
X13400000Y-5050000D02*
X13360000Y-5090000D01*
X13490000Y-6790000D02*
X13530000Y-6830000D01*
X13530000Y-6790000D02*
X13490000Y-6830000D01*
X13630000Y-4850000D02*
X13670000Y-4890000D01*
X13670000Y-4850000D02*
X13630000Y-4890000D01*
X13710000Y-4140000D02*
X13750000Y-4180000D01*
X13750000Y-4140000D02*
X13710000Y-4180000D01*
X13710000Y-4580000D02*
X13750000Y-4620000D01*
X13750000Y-4580000D02*
X13710000Y-4620000D01*
X13870000Y-3810000D02*
X13910000Y-3850000D01*
X13910000Y-3810000D02*
X13870000Y-3850000D01*
X13870000Y-6530000D02*
X13910000Y-6570000D01*
X13910000Y-6530000D02*
X13870000Y-6570000D01*
X14030000Y-9500000D02*
X14070000Y-9540000D01*
X14070000Y-9500000D02*
X14030000Y-9540000D01*
X14030000Y-9810000D02*
X14070000Y-9850000D01*
X14070000Y-9810000D02*
X14030000Y-9850000D01*
X14130000Y-11820000D02*
X14170000Y-11860000D01*
X14170000Y-11820000D02*
X14130000Y-11860000D01*
X14163000Y-3547000D02*
X14203000Y-3587000D01*
X14203000Y-3547000D02*
X14163000Y-3587000D01*
X14190000Y-9330000D02*
X14230000Y-9370000D01*
X14230000Y-9330000D02*
X14190000Y-9370000D01*
X14210000Y-4950000D02*
X14250000Y-4990000D01*
X14250000Y-4950000D02*
X14210000Y-4990000D01*
X14350000Y-4850000D02*
X14390000Y-4890000D01*
X14390000Y-4850000D02*
X14350000Y-4890000D01*
X14410000Y-3980000D02*
X14450000Y-4020000D01*
X14450000Y-3980000D02*
X14410000Y-4020000D01*
X14480000Y-9500000D02*
X14520000Y-9540000D01*
X14520000Y-9500000D02*
X14480000Y-9540000D01*
X14490000Y-4320000D02*
X14530000Y-4360000D01*
X14530000Y-4320000D02*
X14490000Y-4360000D01*
X14500000Y-5660000D02*
X14540000Y-5700000D01*
X14540000Y-5660000D02*
X14500000Y-5700000D01*
X14510000Y-5490000D02*
X14550000Y-5530000D01*
X14550000Y-5490000D02*
X14510000Y-5530000D01*
X14590000Y-9980000D02*
X14630000Y-10020000D01*
X14630000Y-9980000D02*
X14590000Y-10020000D01*
X14590000Y-12060000D02*
X14630000Y-12100000D01*
X14630000Y-12060000D02*
X14590000Y-12100000D01*
X14630000Y-4440000D02*
X14670000Y-4480000D01*
X14670000Y-4440000D02*
X14630000Y-4480000D01*
X14720000Y-3840000D02*
X14760000Y-3880000D01*
X14760000Y-3840000D02*
X14720000Y-3880000D01*
X14740000Y-9340000D02*
X14780000Y-9380000D01*
X14780000Y-9340000D02*
X14740000Y-9380000D01*
X14740000Y-12340000D02*
X14780000Y-12380000D01*
X14780000Y-12340000D02*
X14740000Y-12380000D01*
X14860000Y-4380000D02*
X14900000Y-4420000D01*
X14900000Y-4380000D02*
X14860000Y-4420000D01*
X14869000Y-5050000D02*
X14909000Y-5090000D01*
X14909000Y-5050000D02*
X14869000Y-5090000D01*
X15020000Y-4250000D02*
X15060000Y-4290000D01*
X15060000Y-4250000D02*
X15020000Y-4290000D01*
X15090000Y-3740000D02*
X15130000Y-3780000D01*
X15130000Y-3740000D02*
X15090000Y-3780000D01*
X15140000Y-15190000D02*
X15180000Y-15230000D01*
X15180000Y-15190000D02*
X15140000Y-15230000D01*
X15300000Y-9100000D02*
X15340000Y-9140000D01*
X15340000Y-9100000D02*
X15300000Y-9140000D01*
X15310000Y-3270000D02*
X15350000Y-3310000D01*
X15350000Y-3270000D02*
X15310000Y-3310000D01*
X15400000Y-3630000D02*
X15440000Y-3670000D01*
X15440000Y-3630000D02*
X15400000Y-3670000D01*
X15490000Y-2980000D02*
X15530000Y-3020000D01*
X15530000Y-2980000D02*
X15490000Y-3020000D01*
X15510000Y-6260000D02*
X15550000Y-6300000D01*
X15550000Y-6260000D02*
X15510000Y-6300000D01*
X15670000Y-3080000D02*
X15710000Y-3120000D01*
X15710000Y-3080000D02*
X15670000Y-3120000D01*
X15740000Y-9810000D02*
X15780000Y-9850000D01*
X15780000Y-9810000D02*
X15740000Y-9850000D01*
X15780000Y-3880000D02*
X15820000Y-3920000D01*
X15820000Y-3880000D02*
X15780000Y-3920000D01*
X15800000Y-4580000D02*
X15840000Y-4620000D01*
X15840000Y-4580000D02*
X15800000Y-4620000D01*
X15820000Y-11290000D02*
X15860000Y-11330000D01*
X15860000Y-11290000D02*
X15820000Y-11330000D01*
X15890000Y-9750000D02*
X15930000Y-9790000D01*
X15930000Y-9750000D02*
X15890000Y-9790000D01*
X15930000Y-11040000D02*
X15970000Y-11080000D01*
X15970000Y-11040000D02*
X15930000Y-11080000D01*
X16050000Y-9740000D02*
X16090000Y-9780000D01*
X16090000Y-9740000D02*
X16050000Y-9780000D01*
X16050000Y-10790000D02*
X16090000Y-10830000D01*
X16090000Y-10790000D02*
X16050000Y-10830000D01*
X16180000Y-3940000D02*
X16220000Y-3980000D01*
X16220000Y-3940000D02*
X16180000Y-3980000D01*
X16220000Y-9650000D02*
X16260000Y-9690000D01*
X16260000Y-9650000D02*
X16220000Y-9690000D01*
X16230000Y-10310000D02*
X16270000Y-10350000D01*
X16270000Y-10310000D02*
X16230000Y-10350000D01*
X16280000Y-14890000D02*
X16320000Y-14930000D01*
X16320000Y-14890000D02*
X16280000Y-14930000D01*
X16340000Y-8610000D02*
X16380000Y-8650000D01*
X16380000Y-8610000D02*
X16340000Y-8650000D01*
X16340000Y-9810000D02*
X16380000Y-9850000D01*
X16380000Y-9810000D02*
X16340000Y-9850000D01*
X16420000Y-3080000D02*
X16460000Y-3120000D01*
X16460000Y-3080000D02*
X16420000Y-3120000D01*
X16510000Y-4370000D02*
X16550000Y-4410000D01*
X16550000Y-4370000D02*
X16510000Y-4410000D01*
X16520000Y-7900000D02*
X16560000Y-7940000D01*
X16560000Y-7900000D02*
X16520000Y-7940000D01*
X16520000Y-9490000D02*
X16560000Y-9530000D01*
X16560000Y-9490000D02*
X16520000Y-9530000D01*
X16530000Y-12070000D02*
X16570000Y-12110000D01*
X16570000Y-12070000D02*
X16530000Y-12110000D01*
X16590000Y-5040000D02*
X16630000Y-5080000D01*
X16630000Y-5040000D02*
X16590000Y-5080000D01*
X16720000Y-3860000D02*
X16760000Y-3900000D01*
X16760000Y-3860000D02*
X16720000Y-3900000D01*
X16860000Y-4730000D02*
X16900000Y-4770000D01*
X16900000Y-4730000D02*
X16860000Y-4770000D01*
X16860000Y-9990000D02*
X16900000Y-10030000D01*
X16900000Y-9990000D02*
X16860000Y-10030000D01*
X16937550Y-9030000D02*
X16977550Y-9070000D01*
X16977550Y-9030000D02*
X16937550Y-9070000D01*
X16960000Y-3870000D02*
X17000000Y-3910000D01*
X17000000Y-3870000D02*
X16960000Y-3910000D01*
X17200000Y-5850000D02*
X17240000Y-5890000D01*
X17240000Y-5850000D02*
X17200000Y-5890000D01*
X17260000Y-9490000D02*
X17300000Y-9530000D01*
X17300000Y-9490000D02*
X17260000Y-9530000D01*
X17270000Y-9780000D02*
X17310000Y-9820000D01*
X17310000Y-9780000D02*
X17270000Y-9820000D01*
X17380000Y-9670000D02*
X17420000Y-9710000D01*
X17420000Y-9670000D02*
X17380000Y-9710000D01*
X17410000Y-3700000D02*
X17450000Y-3740000D01*
X17450000Y-3700000D02*
X17410000Y-3740000D01*
X17410000Y-4590000D02*
X17450000Y-4630000D01*
X17450000Y-4590000D02*
X17410000Y-4630000D01*
X17500000Y-9910000D02*
X17540000Y-9950000D01*
X17540000Y-9910000D02*
X17500000Y-9950000D01*
X17550000Y-4570000D02*
X17590000Y-4610000D01*
X17590000Y-4570000D02*
X17550000Y-4610000D01*
X17620000Y-10090000D02*
X17660000Y-10130000D01*
X17660000Y-10090000D02*
X17620000Y-10130000D01*
X17650000Y-5640000D02*
X17690000Y-5680000D01*
X17690000Y-5640000D02*
X17650000Y-5680000D01*
X17670000Y-3580000D02*
X17710000Y-3620000D01*
X17710000Y-3580000D02*
X17670000Y-3620000D01*
X17670000Y-10480000D02*
X17710000Y-10520000D01*
X17710000Y-10480000D02*
X17670000Y-10520000D01*
X17750000Y-10310000D02*
X17790000Y-10350000D01*
X17790000Y-10310000D02*
X17750000Y-10350000D01*
X17800000Y-10670000D02*
X17840000Y-10710000D01*
X17840000Y-10670000D02*
X17800000Y-10710000D01*
X17850000Y-4850000D02*
X17890000Y-4890000D01*
X17890000Y-4850000D02*
X17850000Y-4890000D01*
X17880000Y-7050000D02*
X17920000Y-7090000D01*
X17920000Y-7050000D02*
X17880000Y-7090000D01*
X17880000Y-10510000D02*
X17920000Y-10550000D01*
X17920000Y-10510000D02*
X17880000Y-10550000D01*
X18000000Y-10730000D02*
X18040000Y-10770000D01*
X18040000Y-10730000D02*
X18000000Y-10770000D01*
X18010000Y-3120000D02*
X18050000Y-3160000D01*
X18050000Y-3120000D02*
X18010000Y-3160000D01*
X18060000Y-4390000D02*
X18100000Y-4430000D01*
X18100000Y-4390000D02*
X18060000Y-4430000D01*
X18090000Y-9780000D02*
X18130000Y-9820000D01*
X18130000Y-9780000D02*
X18090000Y-9820000D01*
X18230000Y-8030000D02*
X18270000Y-8070000D01*
X18270000Y-8030000D02*
X18230000Y-8070000D01*
X18250000Y-6660000D02*
X18290000Y-6700000D01*
X18290000Y-6660000D02*
X18250000Y-6700000D01*
X18330000Y-11090000D02*
X18370000Y-11130000D01*
X18370000Y-11090000D02*
X18330000Y-11130000D01*
X18340000Y-6550000D02*
X18380000Y-6590000D01*
X18380000Y-6550000D02*
X18340000Y-6590000D01*
X18340000Y-10900000D02*
X18380000Y-10940000D01*
X18380000Y-10900000D02*
X18340000Y-10940000D01*
X18430000Y-3900000D02*
X18470000Y-3940000D01*
X18470000Y-3900000D02*
X18430000Y-3940000D01*
X18480000Y-7910000D02*
X18520000Y-7950000D01*
X18520000Y-7910000D02*
X18480000Y-7950000D01*
X18480000Y-8190000D02*
X18520000Y-8230000D01*
X18520000Y-8190000D02*
X18480000Y-8230000D01*
X18600000Y-4840000D02*
X18640000Y-4880000D01*
X18640000Y-4840000D02*
X18600000Y-4880000D01*
X18630000Y-3720000D02*
X18670000Y-3760000D01*
X18670000Y-3720000D02*
X18630000Y-3760000D01*
X18670000Y-11110000D02*
X18710000Y-11150000D01*
X18710000Y-11110000D02*
X18670000Y-11150000D01*
X18680000Y-11330000D02*
X18720000Y-11370000D01*
X18720000Y-11330000D02*
X18680000Y-11370000D01*
X18790000Y-6530000D02*
X18830000Y-6570000D01*
X18830000Y-6530000D02*
X18790000Y-6570000D01*
X18790000Y-11610000D02*
X18830000Y-11650000D01*
X18830000Y-11610000D02*
X18790000Y-11650000D01*
X18800000Y-7770000D02*
X18840000Y-7810000D01*
X18840000Y-7770000D02*
X18800000Y-7810000D01*
X18970000Y-7910000D02*
X19010000Y-7950000D01*
X19010000Y-7910000D02*
X18970000Y-7950000D01*
X18970000Y-11320000D02*
X19010000Y-11360000D01*
X19010000Y-11320000D02*
X18970000Y-11360000D01*
X19000000Y-6290000D02*
X19040000Y-6330000D01*
X19040000Y-6290000D02*
X19000000Y-6330000D01*
X19000000Y-11520000D02*
X19040000Y-11560000D01*
X19040000Y-11520000D02*
X19000000Y-11560000D01*
X19030000Y-11700000D02*
X19070000Y-11740000D01*
X19070000Y-11700000D02*
X19030000Y-11740000D01*
X19120000Y-11910000D02*
X19160000Y-11950000D01*
X19160000Y-11910000D02*
X19120000Y-11950000D01*
X19130000Y-7900000D02*
X19170000Y-7940000D01*
X19170000Y-7900000D02*
X19130000Y-7940000D01*
X19180000Y-3750000D02*
X19220000Y-3790000D01*
X19220000Y-3750000D02*
X19180000Y-3790000D01*
X19180000Y-7250000D02*
X19220000Y-7290000D01*
X19220000Y-7250000D02*
X19180000Y-7290000D01*
X19200000Y-3020000D02*
X19240000Y-3060000D01*
X19240000Y-3020000D02*
X19200000Y-3060000D01*
X19200000Y-4420000D02*
X19240000Y-4460000D01*
X19240000Y-4420000D02*
X19200000Y-4460000D01*
X19200000Y-12100000D02*
X19240000Y-12140000D01*
X19240000Y-12100000D02*
X19200000Y-12140000D01*
X19200000Y-13580000D02*
X19240000Y-13620000D01*
X19240000Y-13580000D02*
X19200000Y-13620000D01*
X19230000Y-13800000D02*
X19270000Y-13840000D01*
X19270000Y-13800000D02*
X19230000Y-13840000D01*
X19240000Y-12300000D02*
X19280000Y-12340000D01*
X19280000Y-12300000D02*
X19240000Y-12340000D01*
X19290000Y-12490000D02*
X19330000Y-12530000D01*
X19330000Y-12490000D02*
X19290000Y-12530000D01*
X19310000Y-5430000D02*
X19350000Y-5470000D01*
X19350000Y-5430000D02*
X19310000Y-5470000D01*
X19350000Y-12680000D02*
X19390000Y-12720000D01*
X19390000Y-12680000D02*
X19350000Y-12720000D01*
X19360000Y-7690000D02*
X19400000Y-7730000D01*
X19400000Y-7690000D02*
X19360000Y-7730000D01*
X19410000Y-12880000D02*
X19450000Y-12920000D01*
X19450000Y-12880000D02*
X19410000Y-12920000D01*
X19410000Y-13110000D02*
X19450000Y-13150000D01*
X19450000Y-13110000D02*
X19410000Y-13150000D01*
X19460000Y-13320000D02*
X19500000Y-13360000D01*
X19500000Y-13320000D02*
X19460000Y-13360000D01*
X19530000Y-13490000D02*
X19570000Y-13530000D01*
X19570000Y-13490000D02*
X19530000Y-13530000D01*
X19550000Y-13700000D02*
X19590000Y-13740000D01*
X19590000Y-13700000D02*
X19550000Y-13740000D01*
X19560000Y-7500000D02*
X19600000Y-7540000D01*
X19600000Y-7500000D02*
X19560000Y-7540000D01*
X19560000Y-13910000D02*
X19600000Y-13950000D01*
X19600000Y-13910000D02*
X19560000Y-13950000D01*
X19650000Y-14120000D02*
X19690000Y-14160000D01*
X19690000Y-14120000D02*
X19650000Y-14160000D01*
X19820000Y-3260000D02*
X19860000Y-3300000D01*
X19860000Y-3260000D02*
X19820000Y-3300000D01*
X19830000Y-14300000D02*
X19870000Y-14340000D01*
X19870000Y-14300000D02*
X19830000Y-14340000D01*
X19890000Y-7300000D02*
X19930000Y-7340000D01*
X19930000Y-7300000D02*
X19890000Y-7340000D01*
X19930000Y-10200000D02*
X19970000Y-10240000D01*
X19970000Y-10200000D02*
X19930000Y-10240000D01*
X20000000Y-6920000D02*
X20040000Y-6960000D01*
X20040000Y-6920000D02*
X20000000Y-6960000D01*
X20110000Y-4100000D02*
X20150000Y-4140000D01*
X20150000Y-4100000D02*
X20110000Y-4140000D01*
X20120000Y-5420000D02*
X20160000Y-5460000D01*
X20160000Y-5420000D02*
X20120000Y-5460000D01*
X20140000Y-6580000D02*
X20180000Y-6620000D01*
X20180000Y-6580000D02*
X20140000Y-6620000D01*
X20140000Y-11210000D02*
X20180000Y-11250000D01*
X20180000Y-11210000D02*
X20140000Y-11250000D01*
X20190000Y-7100000D02*
X20230000Y-7140000D01*
X20230000Y-7100000D02*
X20190000Y-7140000D01*
X20200000Y-10610000D02*
X20240000Y-10650000D01*
X20240000Y-10610000D02*
X20200000Y-10650000D01*
X20210000Y-13600000D02*
X20250000Y-13640000D01*
X20250000Y-13600000D02*
X20210000Y-13640000D01*
X20240000Y-13810000D02*
X20280000Y-13850000D01*
X20280000Y-13810000D02*
X20240000Y-13850000D01*
X20250000Y-9580000D02*
X20290000Y-9620000D01*
X20290000Y-9580000D02*
X20250000Y-9620000D01*
X20260000Y-3900000D02*
X20300000Y-3940000D01*
X20300000Y-3900000D02*
X20260000Y-3940000D01*
X20300000Y-5170000D02*
X20340000Y-5210000D01*
X20340000Y-5170000D02*
X20300000Y-5210000D01*
X20340000Y-6910000D02*
X20380000Y-6950000D01*
X20380000Y-6910000D02*
X20340000Y-6950000D01*
X20370000Y-11610000D02*
X20410000Y-11650000D01*
X20410000Y-11610000D02*
X20370000Y-11650000D01*
X20380000Y-9010000D02*
X20420000Y-9050000D01*
X20420000Y-9010000D02*
X20380000Y-9050000D01*
X20380000Y-10400000D02*
X20420000Y-10440000D01*
X20420000Y-10400000D02*
X20380000Y-10440000D01*
X20420000Y-3290000D02*
X20460000Y-3330000D01*
X20460000Y-3290000D02*
X20420000Y-3330000D01*
X20430000Y-4670000D02*
X20470000Y-4710000D01*
X20470000Y-4670000D02*
X20430000Y-4710000D01*
X20470000Y-6700000D02*
X20510000Y-6740000D01*
X20510000Y-6700000D02*
X20470000Y-6740000D01*
X20510000Y-6500000D02*
X20550000Y-6540000D01*
X20550000Y-6500000D02*
X20510000Y-6540000D01*
X20550000Y-6280000D02*
X20590000Y-6320000D01*
X20590000Y-6280000D02*
X20550000Y-6320000D01*
X20550000Y-14490000D02*
X20590000Y-14530000D01*
X20590000Y-14490000D02*
X20550000Y-14530000D01*
X20580000Y-6100000D02*
X20620000Y-6140000D01*
X20620000Y-6100000D02*
X20580000Y-6140000D01*
X20600000Y-11010000D02*
X20640000Y-11050000D01*
X20640000Y-11010000D02*
X20600000Y-11050000D01*
X20650000Y-5900000D02*
X20690000Y-5940000D01*
X20690000Y-5900000D02*
X20650000Y-5940000D01*
X20700000Y-5700000D02*
X20740000Y-5740000D01*
X20740000Y-5700000D02*
X20700000Y-5740000D01*
X20710000Y-8430000D02*
X20750000Y-8470000D01*
X20750000Y-8430000D02*
X20710000Y-8470000D01*
X20750000Y-5520000D02*
X20790000Y-5560000D01*
X20790000Y-5520000D02*
X20750000Y-5560000D01*
X20765000Y-5315000D02*
X20805000Y-5355000D01*
X20805000Y-5315000D02*
X20765000Y-5355000D01*
X20820000Y-4910000D02*
X20860000Y-4950000D01*
X20860000Y-4910000D02*
X20820000Y-4950000D01*
X20830000Y-5120000D02*
X20870000Y-5160000D01*
X20870000Y-5120000D02*
X20830000Y-5160000D01*
X20860000Y-9040000D02*
X20900000Y-9080000D01*
X20900000Y-9040000D02*
X20860000Y-9080000D01*
X20910000Y-8440000D02*
X20950000Y-8480000D01*
X20950000Y-8440000D02*
X20910000Y-8480000D01*
X20930000Y-4710000D02*
X20970000Y-4750000D01*
X20970000Y-4710000D02*
X20930000Y-4750000D01*
X20930000Y-10210000D02*
X20970000Y-10250000D01*
X20970000Y-10210000D02*
X20930000Y-10250000D01*
X20970000Y-4540000D02*
X21010000Y-4580000D01*
X21010000Y-4540000D02*
X20970000Y-4580000D01*
X20970000Y-8990000D02*
X21010000Y-9030000D01*
X21010000Y-8990000D02*
X20970000Y-9030000D01*
X21080000Y-4320000D02*
X21120000Y-4360000D01*
X21120000Y-4320000D02*
X21080000Y-4360000D01*
X21130000Y-8450000D02*
X21170000Y-8490000D01*
X21170000Y-8450000D02*
X21130000Y-8490000D01*
X21140000Y-9590000D02*
X21180000Y-9630000D01*
X21180000Y-9590000D02*
X21140000Y-9630000D01*
X21320000Y-8120000D02*
X21360000Y-8160000D01*
X21360000Y-8120000D02*
X21320000Y-8160000D01*
X21330000Y-6380000D02*
X21370000Y-6420000D01*
X21370000Y-6380000D02*
X21330000Y-6420000D01*
X21330000Y-8500000D02*
X21370000Y-8540000D01*
X21370000Y-8500000D02*
X21330000Y-8540000D01*
X21330000Y-13330000D02*
X21370000Y-13370000D01*
X21370000Y-13330000D02*
X21330000Y-13370000D01*
X21340000Y-8890000D02*
X21380000Y-8930000D01*
X21380000Y-8890000D02*
X21340000Y-8930000D01*
X21340000Y-10900000D02*
X21380000Y-10940000D01*
X21380000Y-10900000D02*
X21340000Y-10940000D01*
X21350000Y-10510000D02*
X21390000Y-10550000D01*
X21390000Y-10510000D02*
X21350000Y-10550000D01*
X21350000Y-11700000D02*
X21390000Y-11740000D01*
X21390000Y-11700000D02*
X21350000Y-11740000D01*
X21350000Y-12880000D02*
X21390000Y-12920000D01*
X21390000Y-12880000D02*
X21350000Y-12920000D01*
X21350000Y-13700000D02*
X21390000Y-13740000D01*
X21390000Y-13700000D02*
X21350000Y-13740000D01*
X21350000Y-14120000D02*
X21390000Y-14160000D01*
X21390000Y-14120000D02*
X21350000Y-14160000D01*
X21360000Y-4480000D02*
X21400000Y-4520000D01*
X21400000Y-4480000D02*
X21360000Y-4520000D01*
X21360000Y-4910000D02*
X21400000Y-4950000D01*
X21400000Y-4910000D02*
X21360000Y-4950000D01*
X21360000Y-6910000D02*
X21400000Y-6950000D01*
X21400000Y-6910000D02*
X21360000Y-6950000D01*
X21360000Y-9680000D02*
X21400000Y-9720000D01*
X21400000Y-9680000D02*
X21360000Y-9720000D01*
X21360000Y-11310000D02*
X21400000Y-11350000D01*
X21400000Y-11310000D02*
X21360000Y-11350000D01*
X21360000Y-12100000D02*
X21400000Y-12140000D01*
X21400000Y-12100000D02*
X21360000Y-12140000D01*
X21360000Y-12500000D02*
X21400000Y-12540000D01*
X21400000Y-12500000D02*
X21360000Y-12540000D01*
X21364000Y-10104000D02*
X21404000Y-10144000D01*
X21404000Y-10104000D02*
X21364000Y-10144000D01*
X21370000Y-7300000D02*
X21410000Y-7340000D01*
X21410000Y-7300000D02*
X21370000Y-7340000D01*
X21380000Y-5320000D02*
X21420000Y-5360000D01*
X21420000Y-5320000D02*
X21380000Y-5360000D01*
X21380000Y-5700000D02*
X21420000Y-5740000D01*
X21420000Y-5700000D02*
X21380000Y-5740000D01*
X21380000Y-6080000D02*
X21420000Y-6120000D01*
X21420000Y-6080000D02*
X21380000Y-6120000D01*
X21380000Y-7700000D02*
X21420000Y-7740000D01*
X21420000Y-7700000D02*
X21380000Y-7740000D01*
X21400000Y-6490000D02*
X21440000Y-6530000D01*
X21440000Y-6490000D02*
X21400000Y-6530000D01*
X21410000Y-14310000D02*
X21450000Y-14350000D01*
X21450000Y-14310000D02*
X21410000Y-14350000D01*
X21460000Y-4310000D02*
X21500000Y-4350000D01*
X21500000Y-4310000D02*
X21460000Y-4350000D01*
X21470000Y-8290000D02*
X21510000Y-8330000D01*
X21510000Y-8290000D02*
X21470000Y-8330000D01*
X21470000Y-8700000D02*
X21510000Y-8740000D01*
X21510000Y-8700000D02*
X21470000Y-8740000D01*
X21480000Y-13500000D02*
X21520000Y-13540000D01*
X21520000Y-13500000D02*
X21480000Y-13540000D01*
X21480000Y-13900000D02*
X21520000Y-13940000D01*
X21520000Y-13900000D02*
X21480000Y-13940000D01*
X21490000Y-4700000D02*
X21530000Y-4740000D01*
X21530000Y-4700000D02*
X21490000Y-4740000D01*
X21490000Y-7100000D02*
X21530000Y-7140000D01*
X21530000Y-7100000D02*
X21490000Y-7140000D01*
X21490000Y-10300000D02*
X21530000Y-10340000D01*
X21530000Y-10300000D02*
X21490000Y-10340000D01*
X21490000Y-11910000D02*
X21530000Y-11950000D01*
X21530000Y-11910000D02*
X21490000Y-11950000D01*
X21490000Y-12300000D02*
X21530000Y-12340000D01*
X21530000Y-12300000D02*
X21490000Y-12340000D01*
X21490000Y-13110000D02*
X21530000Y-13150000D01*
X21530000Y-13110000D02*
X21490000Y-13150000D01*
X21500000Y-5890000D02*
X21540000Y-5930000D01*
X21540000Y-5890000D02*
X21500000Y-5930000D01*
X21500000Y-6280000D02*
X21540000Y-6320000D01*
X21540000Y-6280000D02*
X21500000Y-6320000D01*
X21500000Y-6690000D02*
X21540000Y-6730000D01*
X21540000Y-6690000D02*
X21500000Y-6730000D01*
X21500000Y-7500000D02*
X21540000Y-7540000D01*
X21540000Y-7500000D02*
X21500000Y-7540000D01*
X21500000Y-7910000D02*
X21540000Y-7950000D01*
X21540000Y-7910000D02*
X21500000Y-7950000D01*
X21500000Y-11110000D02*
X21540000Y-11150000D01*
X21540000Y-11110000D02*
X21500000Y-11150000D01*
X21500000Y-12690000D02*
X21540000Y-12730000D01*
X21540000Y-12690000D02*
X21500000Y-12730000D01*
X21504000Y-9904000D02*
X21544000Y-9944000D01*
X21544000Y-9904000D02*
X21504000Y-9944000D01*
X21504000Y-10704000D02*
X21544000Y-10744000D01*
X21544000Y-10704000D02*
X21504000Y-10744000D01*
X21510000Y-5120000D02*
X21550000Y-5160000D01*
X21550000Y-5120000D02*
X21510000Y-5160000D01*
X21510000Y-5510000D02*
X21550000Y-5550000D01*
X21550000Y-5510000D02*
X21510000Y-5550000D01*
X21510000Y-11530000D02*
X21550000Y-11570000D01*
X21550000Y-11530000D02*
X21510000Y-11570000D01*
X21520000Y-9490000D02*
X21560000Y-9530000D01*
X21560000Y-9490000D02*
X21520000Y-9530000D01*
D13*
X9745000Y-14920000D02*
G75*
G03*
X9745000Y-14920000I-25000J0D01*
G01*
X11475000Y-5250000D02*
G75*
G03*
X11475000Y-5250000I-25000J0D01*
G01*
X11555000Y-14920000D02*
G75*
G03*
X11555000Y-14920000I-25000J0D01*
G01*
X12185000Y-5270000D02*
G75*
G03*
X12185000Y-5270000I-25000J0D01*
G01*
X12295000Y-14950000D02*
G75*
G03*
X12295000Y-14950000I-25000J0D01*
G01*
X12995000Y-12600000D02*
G75*
G03*
X12995000Y-12600000I-25000J0D01*
G01*
X12995000Y-14950000D02*
G75*
G03*
X12995000Y-14950000I-25000J0D01*
G01*
X13975000Y-12600000D02*
G75*
G03*
X13975000Y-12600000I-25000J0D01*
G01*
X14065000Y-9020000D02*
G75*
G03*
X14065000Y-9020000I-25000J0D01*
G01*
X14285000Y-7800000D02*
G75*
G03*
X14285000Y-7800000I-25000J0D01*
G01*
X14285000Y-9050000D02*
G75*
G03*
X14285000Y-9050000I-25000J0D01*
G01*
X15675000Y-5430000D02*
G75*
G03*
X15675000Y-5430000I-25000J0D01*
G01*
X16215000Y-7620000D02*
G75*
G03*
X16215000Y-7620000I-25000J0D01*
G01*
X16755000Y-7610000D02*
G75*
G03*
X16755000Y-7610000I-25000J0D01*
G01*
X17265000Y-7620000D02*
G75*
G03*
X17265000Y-7620000I-25000J0D01*
G01*
X18185000Y-9380000D02*
G75*
G03*
X18185000Y-9380000I-25000J0D01*
G01*
X18195000Y-7620000D02*
G75*
G03*
X18195000Y-7620000I-25000J0D01*
G01*
X19495000Y-4750000D02*
G75*
G03*
X19495000Y-4750000I-25000J0D01*
G01*
X19495000Y-5190000D02*
G75*
G03*
X19495000Y-5190000I-25000J0D01*
G01*
X20605000Y-9180000D02*
G75*
G03*
X20605000Y-9180000I-25000J0D01*
G01*
X21015000Y-9160000D02*
G75*
G03*
X21015000Y-9160000I-25000J0D01*
G01*
D14*
X9720000Y-15092500D02*
X9720000Y-15167500D01*
X9682500Y-15130000D02*
X9757500Y-15130000D01*
X9847000Y-15092500D02*
X9847000Y-15167500D01*
X9809500Y-15130000D02*
X9884500Y-15130000D01*
X9974000Y-15092500D02*
X9974000Y-15167500D01*
X9936500Y-15130000D02*
X10011500Y-15130000D01*
X10427000Y-15066500D02*
X10427000Y-15141500D01*
X10389500Y-15104000D02*
X10464500Y-15104000D01*
X10554000Y-15066500D02*
X10554000Y-15141500D01*
X10516500Y-15104000D02*
X10591500Y-15104000D01*
X10681000Y-15066500D02*
X10681000Y-15141500D01*
X10643500Y-15104000D02*
X10718500Y-15104000D01*
X11023000Y-3388500D02*
X11023000Y-3463500D01*
X10985500Y-3426000D02*
X11060500Y-3426000D01*
X11150000Y-3388500D02*
X11150000Y-3463500D01*
X11112500Y-3426000D02*
X11187500Y-3426000D01*
X11277000Y-3388500D02*
X11277000Y-3463500D01*
X11239500Y-3426000D02*
X11314500Y-3426000D01*
X11410000Y-4148500D02*
X11410000Y-4223500D01*
X11372500Y-4186000D02*
X11447500Y-4186000D01*
X11453000Y-4888500D02*
X11453000Y-4963500D01*
X11415500Y-4926000D02*
X11490500Y-4926000D01*
X11530000Y-15122500D02*
X11530000Y-15197500D01*
X11492500Y-15160000D02*
X11567500Y-15160000D01*
X11537000Y-4148500D02*
X11537000Y-4223500D01*
X11499500Y-4186000D02*
X11574500Y-4186000D01*
X11580000Y-4888500D02*
X11580000Y-4963500D01*
X11542500Y-4926000D02*
X11617500Y-4926000D01*
X11603000Y-3388500D02*
X11603000Y-3463500D01*
X11565500Y-3426000D02*
X11640500Y-3426000D01*
X11657000Y-15122500D02*
X11657000Y-15197500D01*
X11619500Y-15160000D02*
X11694500Y-15160000D01*
X11664000Y-4148500D02*
X11664000Y-4223500D01*
X11626500Y-4186000D02*
X11701500Y-4186000D01*
X11707000Y-4888500D02*
X11707000Y-4963500D01*
X11669500Y-4926000D02*
X11744500Y-4926000D01*
X11730000Y-3388500D02*
X11730000Y-3463500D01*
X11692500Y-3426000D02*
X11767500Y-3426000D01*
X11784000Y-15122500D02*
X11784000Y-15197500D01*
X11746500Y-15160000D02*
X11821500Y-15160000D01*
X11857000Y-3388500D02*
X11857000Y-3463500D01*
X11819500Y-3426000D02*
X11894500Y-3426000D01*
X12180000Y-3382500D02*
X12180000Y-3457500D01*
X12142500Y-3420000D02*
X12217500Y-3420000D01*
X12193000Y-4158500D02*
X12193000Y-4233500D01*
X12155500Y-4196000D02*
X12230500Y-4196000D01*
X12280000Y-15112500D02*
X12280000Y-15187500D01*
X12242500Y-15150000D02*
X12317500Y-15150000D01*
X12307000Y-3382500D02*
X12307000Y-3457500D01*
X12269500Y-3420000D02*
X12344500Y-3420000D01*
X12320000Y-4158500D02*
X12320000Y-4233500D01*
X12282500Y-4196000D02*
X12357500Y-4196000D01*
X12407000Y-15112500D02*
X12407000Y-15187500D01*
X12369500Y-15150000D02*
X12444500Y-15150000D01*
X12434000Y-3382500D02*
X12434000Y-3457500D01*
X12396500Y-3420000D02*
X12471500Y-3420000D01*
X12447000Y-4158500D02*
X12447000Y-4233500D01*
X12409500Y-4196000D02*
X12484500Y-4196000D01*
X12534000Y-15112500D02*
X12534000Y-15187500D01*
X12496500Y-15150000D02*
X12571500Y-15150000D01*
X12970000Y-15122500D02*
X12970000Y-15197500D01*
X12932500Y-15160000D02*
X13007500Y-15160000D01*
X13097000Y-15122500D02*
X13097000Y-15197500D01*
X13059500Y-15160000D02*
X13134500Y-15160000D01*
X13153000Y-3368500D02*
X13153000Y-3443500D01*
X13115500Y-3406000D02*
X13190500Y-3406000D01*
X13224000Y-15122500D02*
X13224000Y-15197500D01*
X13186500Y-15160000D02*
X13261500Y-15160000D01*
X13280000Y-3368500D02*
X13280000Y-3443500D01*
X13242500Y-3406000D02*
X13317500Y-3406000D01*
X13407000Y-3368500D02*
X13407000Y-3443500D01*
X13369500Y-3406000D02*
X13444500Y-3406000D01*
X14183000Y-3362500D02*
X14183000Y-3437500D01*
X14145500Y-3400000D02*
X14220500Y-3400000D01*
X14243000Y-4558500D02*
X14243000Y-4633500D01*
X14205500Y-4596000D02*
X14280500Y-4596000D01*
X14260000Y-6512500D02*
X14260000Y-6587500D01*
X14222500Y-6550000D02*
X14297500Y-6550000D01*
X14260000Y-7182500D02*
X14260000Y-7257500D01*
X14222500Y-7220000D02*
X14297500Y-7220000D01*
X14270000Y-5232500D02*
X14270000Y-5307500D01*
X14232500Y-5270000D02*
X14307500Y-5270000D01*
X14270000Y-5882500D02*
X14270000Y-5957500D01*
X14232500Y-5920000D02*
X14307500Y-5920000D01*
X14310000Y-3362500D02*
X14310000Y-3437500D01*
X14272500Y-3400000D02*
X14347500Y-3400000D01*
X14370000Y-4558500D02*
X14370000Y-4633500D01*
X14332500Y-4596000D02*
X14407500Y-4596000D01*
X14387000Y-6512500D02*
X14387000Y-6587500D01*
X14349500Y-6550000D02*
X14424500Y-6550000D01*
X14387000Y-7182500D02*
X14387000Y-7257500D01*
X14349500Y-7220000D02*
X14424500Y-7220000D01*
X14397000Y-5232500D02*
X14397000Y-5307500D01*
X14359500Y-5270000D02*
X14434500Y-5270000D01*
X14397000Y-5882500D02*
X14397000Y-5957500D01*
X14359500Y-5920000D02*
X14434500Y-5920000D01*
X14437000Y-3362500D02*
X14437000Y-3437500D01*
X14399500Y-3400000D02*
X14474500Y-3400000D01*
X14497000Y-4558500D02*
X14497000Y-4633500D01*
X14459500Y-4596000D02*
X14534500Y-4596000D01*
X14514000Y-6512500D02*
X14514000Y-6587500D01*
X14476500Y-6550000D02*
X14551500Y-6550000D01*
X14514000Y-7182500D02*
X14514000Y-7257500D01*
X14476500Y-7220000D02*
X14551500Y-7220000D01*
X14524000Y-5232500D02*
X14524000Y-5307500D01*
X14486500Y-5270000D02*
X14561500Y-5270000D01*
X14524000Y-5882500D02*
X14524000Y-5957500D01*
X14486500Y-5920000D02*
X14561500Y-5920000D01*
X14853000Y-3372500D02*
X14853000Y-3447500D01*
X14815500Y-3410000D02*
X14890500Y-3410000D01*
X14980000Y-3372500D02*
X14980000Y-3447500D01*
X14942500Y-3410000D02*
X15017500Y-3410000D01*
X15107000Y-3372500D02*
X15107000Y-3447500D01*
X15069500Y-3410000D02*
X15144500Y-3410000D01*
X15673000Y-4088500D02*
X15673000Y-4163500D01*
X15635500Y-4126000D02*
X15710500Y-4126000D01*
X15800000Y-4088500D02*
X15800000Y-4163500D01*
X15762500Y-4126000D02*
X15837500Y-4126000D01*
X15927000Y-4088500D02*
X15927000Y-4163500D01*
X15889500Y-4126000D02*
X15964500Y-4126000D01*
X16010000Y-3392500D02*
X16010000Y-3467500D01*
X15972500Y-3430000D02*
X16047500Y-3430000D01*
X16137000Y-3392500D02*
X16137000Y-3467500D01*
X16099500Y-3430000D02*
X16174500Y-3430000D01*
X16264000Y-3392500D02*
X16264000Y-3467500D01*
X16226500Y-3430000D02*
X16301500Y-3430000D01*
X16403000Y-4088500D02*
X16403000Y-4163500D01*
X16365500Y-4126000D02*
X16440500Y-4126000D01*
X16530000Y-4088500D02*
X16530000Y-4163500D01*
X16492500Y-4126000D02*
X16567500Y-4126000D01*
X16623000Y-3388500D02*
X16623000Y-3463500D01*
X16585500Y-3426000D02*
X16660500Y-3426000D01*
X16657000Y-4088500D02*
X16657000Y-4163500D01*
X16619500Y-4126000D02*
X16694500Y-4126000D01*
X16750000Y-3388500D02*
X16750000Y-3463500D01*
X16712500Y-3426000D02*
X16787500Y-3426000D01*
X16877000Y-3388500D02*
X16877000Y-3463500D01*
X16839500Y-3426000D02*
X16914500Y-3426000D01*
X17183000Y-4088500D02*
X17183000Y-4163500D01*
X17145500Y-4126000D02*
X17220500Y-4126000D01*
X17243000Y-3388500D02*
X17243000Y-3463500D01*
X17205500Y-3426000D02*
X17280500Y-3426000D01*
X17310000Y-4088500D02*
X17310000Y-4163500D01*
X17272500Y-4126000D02*
X17347500Y-4126000D01*
X17370000Y-3388500D02*
X17370000Y-3463500D01*
X17332500Y-3426000D02*
X17407500Y-3426000D01*
X17437000Y-4088500D02*
X17437000Y-4163500D01*
X17399500Y-4126000D02*
X17474500Y-4126000D01*
X17443000Y-5118500D02*
X17443000Y-5193500D01*
X17405500Y-5156000D02*
X17480500Y-5156000D01*
X17497000Y-3388500D02*
X17497000Y-3463500D01*
X17459500Y-3426000D02*
X17534500Y-3426000D01*
X17570000Y-5118500D02*
X17570000Y-5193500D01*
X17532500Y-5156000D02*
X17607500Y-5156000D01*
X17697000Y-5118500D02*
X17697000Y-5193500D01*
X17659500Y-5156000D02*
X17734500Y-5156000D01*
X17913000Y-3388500D02*
X17913000Y-3463500D01*
X17875500Y-3426000D02*
X17950500Y-3426000D01*
X18040000Y-3388500D02*
X18040000Y-3463500D01*
X18002500Y-3426000D02*
X18077500Y-3426000D01*
X18167000Y-3388500D02*
X18167000Y-3463500D01*
X18129500Y-3426000D02*
X18204500Y-3426000D01*
X18523000Y-3388500D02*
X18523000Y-3463500D01*
X18485500Y-3426000D02*
X18560500Y-3426000D01*
X18630000Y-6672500D02*
X18630000Y-6747500D01*
X18592500Y-6710000D02*
X18667500Y-6710000D01*
X18630000Y-6799500D02*
X18630000Y-6874500D01*
X18592500Y-6837000D02*
X18667500Y-6837000D01*
X18630000Y-6926500D02*
X18630000Y-7001500D01*
X18592500Y-6964000D02*
X18667500Y-6964000D01*
X18650000Y-3388500D02*
X18650000Y-3463500D01*
X18612500Y-3426000D02*
X18687500Y-3426000D01*
X18777000Y-3388500D02*
X18777000Y-3463500D01*
X18739500Y-3426000D02*
X18814500Y-3426000D01*
X19103000Y-3388500D02*
X19103000Y-3463500D01*
X19065500Y-3426000D02*
X19140500Y-3426000D01*
X19230000Y-3388500D02*
X19230000Y-3463500D01*
X19192500Y-3426000D02*
X19267500Y-3426000D01*
X19357000Y-3388500D02*
X19357000Y-3463500D01*
X19319500Y-3426000D02*
X19394500Y-3426000D01*
X19713000Y-3398500D02*
X19713000Y-3473500D01*
X19675500Y-3436000D02*
X19750500Y-3436000D01*
X19840000Y-3398500D02*
X19840000Y-3473500D01*
X19802500Y-3436000D02*
X19877500Y-3436000D01*
X19967000Y-3398500D02*
X19967000Y-3473500D01*
X19929500Y-3436000D02*
X20004500Y-3436000D01*
X20083000Y-15038500D02*
X20083000Y-15113500D01*
X20045500Y-15076000D02*
X20120500Y-15076000D01*
X20210000Y-15038500D02*
X20210000Y-15113500D01*
X20172500Y-15076000D02*
X20247500Y-15076000D01*
X20337000Y-15038500D02*
X20337000Y-15113500D01*
X20299500Y-15076000D02*
X20374500Y-15076000D01*
D15*
X9158285Y-3348284D02*
X9158285Y-3291715D01*
X9101716Y-3291715D01*
X9101716Y-3348284D01*
X9158285Y-3348284D01*
X9158285Y-3548284D02*
X9158285Y-3491715D01*
X9101716Y-3491715D01*
X9101716Y-3548284D01*
X9158285Y-3548284D01*
X9158285Y-3748284D02*
X9158285Y-3691715D01*
X9101716Y-3691715D01*
X9101716Y-3748284D01*
X9158285Y-3748284D01*
X9158285Y-3948284D02*
X9158285Y-3891715D01*
X9101716Y-3891715D01*
X9101716Y-3948284D01*
X9158285Y-3948284D01*
X9158285Y-4148284D02*
X9158285Y-4091715D01*
X9101716Y-4091715D01*
X9101716Y-4148284D01*
X9158285Y-4148284D01*
X9158285Y-4348285D02*
X9158285Y-4291716D01*
X9101716Y-4291716D01*
X9101716Y-4348285D01*
X9158285Y-4348285D01*
X9158285Y-4548285D02*
X9158285Y-4491716D01*
X9101716Y-4491716D01*
X9101716Y-4548285D01*
X9158285Y-4548285D01*
X9158285Y-4748285D02*
X9158285Y-4691716D01*
X9101716Y-4691716D01*
X9101716Y-4748285D01*
X9158285Y-4748285D01*
X9158285Y-4948285D02*
X9158285Y-4891716D01*
X9101716Y-4891716D01*
X9101716Y-4948285D01*
X9158285Y-4948285D01*
X9158285Y-5148285D02*
X9158285Y-5091716D01*
X9101716Y-5091716D01*
X9101716Y-5148285D01*
X9158285Y-5148285D01*
X9158285Y-5348285D02*
X9158285Y-5291716D01*
X9101716Y-5291716D01*
X9101716Y-5348285D01*
X9158285Y-5348285D01*
X9158285Y-5548285D02*
X9158285Y-5491716D01*
X9101716Y-5491716D01*
X9101716Y-5548285D01*
X9158285Y-5548285D01*
X9158285Y-5748284D02*
X9158285Y-5691715D01*
X9101716Y-5691715D01*
X9101716Y-5748284D01*
X9158285Y-5748284D01*
X9158285Y-5948284D02*
X9158285Y-5891715D01*
X9101716Y-5891715D01*
X9101716Y-5948284D01*
X9158285Y-5948284D01*
X9158285Y-6148284D02*
X9158285Y-6091715D01*
X9101716Y-6091715D01*
X9101716Y-6148284D01*
X9158285Y-6148284D01*
X9158285Y-6348284D02*
X9158285Y-6291715D01*
X9101716Y-6291715D01*
X9101716Y-6348284D01*
X9158285Y-6348284D01*
X9158285Y-6548284D02*
X9158285Y-6491715D01*
X9101716Y-6491715D01*
X9101716Y-6548284D01*
X9158285Y-6548284D01*
X9158285Y-6748284D02*
X9158285Y-6691715D01*
X9101716Y-6691715D01*
X9101716Y-6748284D01*
X9158285Y-6748284D01*
X9158285Y-6948284D02*
X9158285Y-6891715D01*
X9101716Y-6891715D01*
X9101716Y-6948284D01*
X9158285Y-6948284D01*
X9158285Y-7148284D02*
X9158285Y-7091715D01*
X9101716Y-7091715D01*
X9101716Y-7148284D01*
X9158285Y-7148284D01*
X9158285Y-7348284D02*
X9158285Y-7291715D01*
X9101716Y-7291715D01*
X9101716Y-7348284D01*
X9158285Y-7348284D01*
X9158285Y-7548284D02*
X9158285Y-7491715D01*
X9101716Y-7491715D01*
X9101716Y-7548284D01*
X9158285Y-7548284D01*
X9158285Y-7748284D02*
X9158285Y-7691715D01*
X9101716Y-7691715D01*
X9101716Y-7748284D01*
X9158285Y-7748284D01*
X9158285Y-7948284D02*
X9158285Y-7891715D01*
X9101716Y-7891715D01*
X9101716Y-7948284D01*
X9158285Y-7948284D01*
X9158285Y-8148284D02*
X9158285Y-8091715D01*
X9101716Y-8091715D01*
X9101716Y-8148284D01*
X9158285Y-8148284D01*
X9158285Y-8348284D02*
X9158285Y-8291715D01*
X9101716Y-8291715D01*
X9101716Y-8348284D01*
X9158285Y-8348284D01*
X9158285Y-8548285D02*
X9158285Y-8491716D01*
X9101716Y-8491716D01*
X9101716Y-8548285D01*
X9158285Y-8548285D01*
X9158285Y-8748285D02*
X9158285Y-8691716D01*
X9101716Y-8691716D01*
X9101716Y-8748285D01*
X9158285Y-8748285D01*
X9158285Y-8948285D02*
X9158285Y-8891716D01*
X9101716Y-8891716D01*
X9101716Y-8948285D01*
X9158285Y-8948285D01*
X9158285Y-9148285D02*
X9158285Y-9091716D01*
X9101716Y-9091716D01*
X9101716Y-9148285D01*
X9158285Y-9148285D01*
X9158285Y-9348285D02*
X9158285Y-9291716D01*
X9101716Y-9291716D01*
X9101716Y-9348285D01*
X9158285Y-9348285D01*
X9158285Y-9548285D02*
X9158285Y-9491716D01*
X9101716Y-9491716D01*
X9101716Y-9548285D01*
X9158285Y-9548285D01*
X9158285Y-9748285D02*
X9158285Y-9691716D01*
X9101716Y-9691716D01*
X9101716Y-9748285D01*
X9158285Y-9748285D01*
X9158285Y-9948285D02*
X9158285Y-9891716D01*
X9101716Y-9891716D01*
X9101716Y-9948285D01*
X9158285Y-9948285D01*
X9158285Y-10148285D02*
X9158285Y-10091716D01*
X9101716Y-10091716D01*
X9101716Y-10148285D01*
X9158285Y-10148285D01*
X9158285Y-10348285D02*
X9158285Y-10291716D01*
X9101716Y-10291716D01*
X9101716Y-10348285D01*
X9158285Y-10348285D01*
X9158285Y-10548285D02*
X9158285Y-10491716D01*
X9101716Y-10491716D01*
X9101716Y-10548285D01*
X9158285Y-10548285D01*
X9158285Y-10748285D02*
X9158285Y-10691716D01*
X9101716Y-10691716D01*
X9101716Y-10748285D01*
X9158285Y-10748285D01*
X9158285Y-10948285D02*
X9158285Y-10891716D01*
X9101716Y-10891716D01*
X9101716Y-10948285D01*
X9158285Y-10948285D01*
X9158285Y-11148285D02*
X9158285Y-11091716D01*
X9101716Y-11091716D01*
X9101716Y-11148285D01*
X9158285Y-11148285D01*
X9158285Y-11348284D02*
X9158285Y-11291715D01*
X9101716Y-11291715D01*
X9101716Y-11348284D01*
X9158285Y-11348284D01*
X9158285Y-11548284D02*
X9158285Y-11491715D01*
X9101716Y-11491715D01*
X9101716Y-11548284D01*
X9158285Y-11548284D01*
X9158285Y-11748284D02*
X9158285Y-11691715D01*
X9101716Y-11691715D01*
X9101716Y-11748284D01*
X9158285Y-11748284D01*
X9158285Y-11948284D02*
X9158285Y-11891715D01*
X9101716Y-11891715D01*
X9101716Y-11948284D01*
X9158285Y-11948284D01*
X9158285Y-12148284D02*
X9158285Y-12091715D01*
X9101716Y-12091715D01*
X9101716Y-12148284D01*
X9158285Y-12148284D01*
X9158285Y-12348284D02*
X9158285Y-12291715D01*
X9101716Y-12291715D01*
X9101716Y-12348284D01*
X9158285Y-12348284D01*
X9158285Y-12548284D02*
X9158285Y-12491715D01*
X9101716Y-12491715D01*
X9101716Y-12548284D01*
X9158285Y-12548284D01*
X9158285Y-12748284D02*
X9158285Y-12691715D01*
X9101716Y-12691715D01*
X9101716Y-12748284D01*
X9158285Y-12748284D01*
X9158285Y-12948284D02*
X9158285Y-12891715D01*
X9101716Y-12891715D01*
X9101716Y-12948284D01*
X9158285Y-12948284D01*
X9158285Y-13148284D02*
X9158285Y-13091715D01*
X9101716Y-13091715D01*
X9101716Y-13148284D01*
X9158285Y-13148284D01*
X9158285Y-13348284D02*
X9158285Y-13291715D01*
X9101716Y-13291715D01*
X9101716Y-13348284D01*
X9158285Y-13348284D01*
X9158285Y-13548284D02*
X9158285Y-13491715D01*
X9101716Y-13491715D01*
X9101716Y-13548284D01*
X9158285Y-13548284D01*
X9158285Y-13748284D02*
X9158285Y-13691715D01*
X9101716Y-13691715D01*
X9101716Y-13748284D01*
X9158285Y-13748284D01*
X9158285Y-13948284D02*
X9158285Y-13891715D01*
X9101716Y-13891715D01*
X9101716Y-13948284D01*
X9158285Y-13948284D01*
X9158285Y-14148284D02*
X9158285Y-14091715D01*
X9101716Y-14091715D01*
X9101716Y-14148284D01*
X9158285Y-14148284D01*
X9158285Y-14348284D02*
X9158285Y-14291715D01*
X9101716Y-14291715D01*
X9101716Y-14348284D01*
X9158285Y-14348284D01*
X9158285Y-14548284D02*
X9158285Y-14491715D01*
X9101716Y-14491715D01*
X9101716Y-14548284D01*
X9158285Y-14548284D01*
X9158285Y-14748284D02*
X9158285Y-14691715D01*
X9101716Y-14691715D01*
X9101716Y-14748284D01*
X9158285Y-14748284D01*
X9158285Y-14948284D02*
X9158285Y-14891715D01*
X9101716Y-14891715D01*
X9101716Y-14948284D01*
X9158285Y-14948284D01*
X9158285Y-15148284D02*
X9158285Y-15091715D01*
X9101716Y-15091715D01*
X9101716Y-15148284D01*
X9158285Y-15148284D01*
X10500285Y-15748284D02*
X10500285Y-15691715D01*
X10443716Y-15691715D01*
X10443716Y-15748284D01*
X10500285Y-15748284D01*
X10518285Y-2838284D02*
X10518285Y-2781716D01*
X10461716Y-2781716D01*
X10461716Y-2838284D01*
X10518285Y-2838284D01*
X10700285Y-15748284D02*
X10700285Y-15691715D01*
X10643716Y-15691715D01*
X10643716Y-15748284D01*
X10700285Y-15748284D01*
X10718285Y-2838284D02*
X10718285Y-2781716D01*
X10661716Y-2781716D01*
X10661716Y-2838284D01*
X10718285Y-2838284D01*
X10900285Y-15748284D02*
X10900285Y-15691715D01*
X10843716Y-15691715D01*
X10843716Y-15748284D01*
X10900285Y-15748284D01*
X10918285Y-2838284D02*
X10918285Y-2781716D01*
X10861716Y-2781716D01*
X10861716Y-2838284D01*
X10918285Y-2838284D01*
X11100285Y-15748284D02*
X11100285Y-15691715D01*
X11043716Y-15691715D01*
X11043716Y-15748284D01*
X11100285Y-15748284D01*
X11118285Y-2838284D02*
X11118285Y-2781716D01*
X11061716Y-2781716D01*
X11061716Y-2838284D01*
X11118285Y-2838284D01*
X11300284Y-15748284D02*
X11300284Y-15691715D01*
X11243715Y-15691715D01*
X11243715Y-15748284D01*
X11300284Y-15748284D01*
X11318284Y-2838284D02*
X11318284Y-2781716D01*
X11261715Y-2781716D01*
X11261715Y-2838284D01*
X11318284Y-2838284D01*
X11500284Y-15748284D02*
X11500284Y-15691715D01*
X11443715Y-15691715D01*
X11443715Y-15748284D01*
X11500284Y-15748284D01*
X11518284Y-2838284D02*
X11518284Y-2781716D01*
X11461715Y-2781716D01*
X11461715Y-2838284D01*
X11518284Y-2838284D01*
X11700284Y-15748284D02*
X11700284Y-15691715D01*
X11643715Y-15691715D01*
X11643715Y-15748284D01*
X11700284Y-15748284D01*
X11718284Y-2838284D02*
X11718284Y-2781716D01*
X11661715Y-2781716D01*
X11661715Y-2838284D01*
X11718284Y-2838284D01*
X11900284Y-15748284D02*
X11900284Y-15691715D01*
X11843715Y-15691715D01*
X11843715Y-15748284D01*
X11900284Y-15748284D01*
X11918284Y-2838284D02*
X11918284Y-2781716D01*
X11861715Y-2781716D01*
X11861715Y-2838284D01*
X11918284Y-2838284D01*
X12100284Y-15748284D02*
X12100284Y-15691715D01*
X12043715Y-15691715D01*
X12043715Y-15748284D01*
X12100284Y-15748284D01*
X12118284Y-2838284D02*
X12118284Y-2781716D01*
X12061715Y-2781716D01*
X12061715Y-2838284D01*
X12118284Y-2838284D01*
X12300284Y-15748284D02*
X12300284Y-15691715D01*
X12243715Y-15691715D01*
X12243715Y-15748284D01*
X12300284Y-15748284D01*
X12318284Y-2838284D02*
X12318284Y-2781716D01*
X12261715Y-2781716D01*
X12261715Y-2838284D01*
X12318284Y-2838284D01*
X12500284Y-15748284D02*
X12500284Y-15691715D01*
X12443715Y-15691715D01*
X12443715Y-15748284D01*
X12500284Y-15748284D01*
X12518284Y-2838284D02*
X12518284Y-2781716D01*
X12461715Y-2781716D01*
X12461715Y-2838284D01*
X12518284Y-2838284D01*
X12700284Y-15748284D02*
X12700284Y-15691715D01*
X12643715Y-15691715D01*
X12643715Y-15748284D01*
X12700284Y-15748284D01*
X12718284Y-2838284D02*
X12718284Y-2781716D01*
X12661715Y-2781716D01*
X12661715Y-2838284D01*
X12718284Y-2838284D01*
X12900284Y-15748284D02*
X12900284Y-15691715D01*
X12843715Y-15691715D01*
X12843715Y-15748284D01*
X12900284Y-15748284D01*
X12918284Y-2838284D02*
X12918284Y-2781716D01*
X12861715Y-2781716D01*
X12861715Y-2838284D01*
X12918284Y-2838284D01*
X13100284Y-15748284D02*
X13100284Y-15691715D01*
X13043715Y-15691715D01*
X13043715Y-15748284D01*
X13100284Y-15748284D01*
X13118284Y-2838284D02*
X13118284Y-2781716D01*
X13061715Y-2781716D01*
X13061715Y-2838284D01*
X13118284Y-2838284D01*
X13300284Y-15748284D02*
X13300284Y-15691715D01*
X13243715Y-15691715D01*
X13243715Y-15748284D01*
X13300284Y-15748284D01*
X13318284Y-2838284D02*
X13318284Y-2781716D01*
X13261715Y-2781716D01*
X13261715Y-2838284D01*
X13318284Y-2838284D01*
X13500284Y-15748284D02*
X13500284Y-15691715D01*
X13443715Y-15691715D01*
X13443715Y-15748284D01*
X13500284Y-15748284D01*
X13518284Y-2838284D02*
X13518284Y-2781716D01*
X13461715Y-2781716D01*
X13461715Y-2838284D01*
X13518284Y-2838284D01*
X13700284Y-15748284D02*
X13700284Y-15691715D01*
X13643715Y-15691715D01*
X13643715Y-15748284D01*
X13700284Y-15748284D01*
X13718284Y-2838284D02*
X13718284Y-2781716D01*
X13661715Y-2781716D01*
X13661715Y-2838284D01*
X13718284Y-2838284D01*
X13900284Y-15748284D02*
X13900284Y-15691715D01*
X13843715Y-15691715D01*
X13843715Y-15748284D01*
X13900284Y-15748284D01*
X13918284Y-2838284D02*
X13918284Y-2781716D01*
X13861715Y-2781716D01*
X13861715Y-2838284D01*
X13918284Y-2838284D01*
X14100284Y-15748284D02*
X14100284Y-15691715D01*
X14043715Y-15691715D01*
X14043715Y-15748284D01*
X14100284Y-15748284D01*
X14118284Y-2838284D02*
X14118284Y-2781716D01*
X14061715Y-2781716D01*
X14061715Y-2838284D01*
X14118284Y-2838284D01*
X14300284Y-15748284D02*
X14300284Y-15691715D01*
X14243715Y-15691715D01*
X14243715Y-15748284D01*
X14300284Y-15748284D01*
X14318284Y-2838284D02*
X14318284Y-2781716D01*
X14261715Y-2781716D01*
X14261715Y-2838284D01*
X14318284Y-2838284D01*
X14500284Y-15748284D02*
X14500284Y-15691715D01*
X14443715Y-15691715D01*
X14443715Y-15748284D01*
X14500284Y-15748284D01*
X14518284Y-2838284D02*
X14518284Y-2781716D01*
X14461715Y-2781716D01*
X14461715Y-2838284D01*
X14518284Y-2838284D01*
X14583284Y-8858285D02*
X14583284Y-8801716D01*
X14526715Y-8801716D01*
X14526715Y-8858285D01*
X14583284Y-8858285D01*
X14700284Y-15748284D02*
X14700284Y-15691715D01*
X14643715Y-15691715D01*
X14643715Y-15748284D01*
X14700284Y-15748284D01*
X14718284Y-2838284D02*
X14718284Y-2781716D01*
X14661715Y-2781716D01*
X14661715Y-2838284D01*
X14718284Y-2838284D01*
X14833284Y-8858285D02*
X14833284Y-8801716D01*
X14776715Y-8801716D01*
X14776715Y-8858285D01*
X14833284Y-8858285D01*
X14900284Y-15748284D02*
X14900284Y-15691715D01*
X14843715Y-15691715D01*
X14843715Y-15748284D01*
X14900284Y-15748284D01*
X14918284Y-2838284D02*
X14918284Y-2781716D01*
X14861715Y-2781716D01*
X14861715Y-2838284D01*
X14918284Y-2838284D01*
X15077284Y-6318284D02*
X15077284Y-6261715D01*
X15020715Y-6261715D01*
X15020715Y-6318284D01*
X15077284Y-6318284D01*
X15077284Y-6658284D02*
X15077284Y-6601715D01*
X15020715Y-6601715D01*
X15020715Y-6658284D01*
X15077284Y-6658284D01*
X15077284Y-6998284D02*
X15077284Y-6941715D01*
X15020715Y-6941715D01*
X15020715Y-6998284D01*
X15077284Y-6998284D01*
X15087284Y-4900785D02*
X15087284Y-4844216D01*
X15030715Y-4844216D01*
X15030715Y-4900785D01*
X15087284Y-4900785D01*
X15087284Y-5968284D02*
X15087284Y-5911715D01*
X15030715Y-5911715D01*
X15030715Y-5968284D01*
X15087284Y-5968284D01*
X15097284Y-5278285D02*
X15097284Y-5221716D01*
X15040715Y-5221716D01*
X15040715Y-5278285D01*
X15097284Y-5278285D01*
X15097284Y-5628284D02*
X15097284Y-5571716D01*
X15040715Y-5571716D01*
X15040715Y-5628284D01*
X15097284Y-5628284D01*
X15100284Y-15748284D02*
X15100284Y-15691715D01*
X15043715Y-15691715D01*
X15043715Y-15748284D01*
X15100284Y-15748284D01*
X15106284Y-8868285D02*
X15106284Y-8811716D01*
X15049715Y-8811716D01*
X15049715Y-8868285D01*
X15106284Y-8868285D01*
X15118284Y-2838284D02*
X15118284Y-2781716D01*
X15061715Y-2781716D01*
X15061715Y-2838284D01*
X15118284Y-2838284D01*
X15300284Y-15748284D02*
X15300284Y-15691715D01*
X15243715Y-15691715D01*
X15243715Y-15748284D01*
X15300284Y-15748284D01*
X15318284Y-2838284D02*
X15318284Y-2781716D01*
X15261715Y-2781716D01*
X15261715Y-2838284D01*
X15318284Y-2838284D01*
X15500284Y-15748284D02*
X15500284Y-15691715D01*
X15443715Y-15691715D01*
X15443715Y-15748284D01*
X15500284Y-15748284D01*
X15518284Y-2838284D02*
X15518284Y-2781716D01*
X15461715Y-2781716D01*
X15461715Y-2838284D01*
X15518284Y-2838284D01*
X15700284Y-15748284D02*
X15700284Y-15691715D01*
X15643715Y-15691715D01*
X15643715Y-15748284D01*
X15700284Y-15748284D01*
X15718284Y-2838284D02*
X15718284Y-2781716D01*
X15661715Y-2781716D01*
X15661715Y-2838284D01*
X15718284Y-2838284D01*
X15839284Y-6318284D02*
X15839284Y-6261715D01*
X15782715Y-6261715D01*
X15782715Y-6318284D01*
X15839284Y-6318284D01*
X15839284Y-6658284D02*
X15839284Y-6601715D01*
X15782715Y-6601715D01*
X15782715Y-6658284D01*
X15839284Y-6658284D01*
X15839284Y-6998284D02*
X15839284Y-6941715D01*
X15782715Y-6941715D01*
X15782715Y-6998284D01*
X15839284Y-6998284D01*
X15849284Y-4900785D02*
X15849284Y-4844216D01*
X15792715Y-4844216D01*
X15792715Y-4900785D01*
X15849284Y-4900785D01*
X15849284Y-5968284D02*
X15849284Y-5911715D01*
X15792715Y-5911715D01*
X15792715Y-5968284D01*
X15849284Y-5968284D01*
X15859284Y-5278285D02*
X15859284Y-5221716D01*
X15802715Y-5221716D01*
X15802715Y-5278285D01*
X15859284Y-5278285D01*
X15859284Y-5628284D02*
X15859284Y-5571716D01*
X15802715Y-5571716D01*
X15802715Y-5628284D01*
X15859284Y-5628284D01*
X15868284Y-8868285D02*
X15868284Y-8811716D01*
X15811715Y-8811716D01*
X15811715Y-8868285D01*
X15868284Y-8868285D01*
X15900284Y-15748284D02*
X15900284Y-15691715D01*
X15843715Y-15691715D01*
X15843715Y-15748284D01*
X15900284Y-15748284D01*
X15918284Y-2838284D02*
X15918284Y-2781716D01*
X15861715Y-2781716D01*
X15861715Y-2838284D01*
X15918284Y-2838284D01*
X16100284Y-15748284D02*
X16100284Y-15691715D01*
X16043715Y-15691715D01*
X16043715Y-15748284D01*
X16100284Y-15748284D01*
X16118284Y-2838284D02*
X16118284Y-2781716D01*
X16061715Y-2781716D01*
X16061715Y-2838284D01*
X16118284Y-2838284D01*
X16218284Y-5068285D02*
X16218284Y-5011716D01*
X16161715Y-5011716D01*
X16161715Y-5068285D01*
X16218284Y-5068285D01*
X16218284Y-5322285D02*
X16218284Y-5265716D01*
X16161715Y-5265716D01*
X16161715Y-5322285D01*
X16218284Y-5322285D01*
X16218284Y-5576285D02*
X16218284Y-5519716D01*
X16161715Y-5519716D01*
X16161715Y-5576285D01*
X16218284Y-5576285D01*
X16218284Y-5830284D02*
X16218284Y-5773715D01*
X16161715Y-5773715D01*
X16161715Y-5830284D01*
X16218284Y-5830284D01*
X16218284Y-6084284D02*
X16218284Y-6027715D01*
X16161715Y-6027715D01*
X16161715Y-6084284D01*
X16218284Y-6084284D01*
X16218284Y-6338284D02*
X16218284Y-6281715D01*
X16161715Y-6281715D01*
X16161715Y-6338284D01*
X16218284Y-6338284D01*
X16218284Y-6592284D02*
X16218284Y-6535715D01*
X16161715Y-6535715D01*
X16161715Y-6592284D01*
X16218284Y-6592284D01*
X16218284Y-6846284D02*
X16218284Y-6789715D01*
X16161715Y-6789715D01*
X16161715Y-6846284D01*
X16218284Y-6846284D01*
X16300284Y-15748284D02*
X16300284Y-15691715D01*
X16243715Y-15691715D01*
X16243715Y-15748284D01*
X16300284Y-15748284D01*
X16318284Y-2838284D02*
X16318284Y-2781716D01*
X16261715Y-2781716D01*
X16261715Y-2838284D01*
X16318284Y-2838284D01*
X16500284Y-15748284D02*
X16500284Y-15691715D01*
X16443715Y-15691715D01*
X16443715Y-15748284D01*
X16500284Y-15748284D01*
X16508284Y-7288284D02*
X16508284Y-7231715D01*
X16451715Y-7231715D01*
X16451715Y-7288284D01*
X16508284Y-7288284D01*
X16518284Y-2838284D02*
X16518284Y-2781716D01*
X16461715Y-2781716D01*
X16461715Y-2838284D01*
X16518284Y-2838284D01*
X16700284Y-15748284D02*
X16700284Y-15691715D01*
X16643715Y-15691715D01*
X16643715Y-15748284D01*
X16700284Y-15748284D01*
X16718284Y-2838284D02*
X16718284Y-2781716D01*
X16661715Y-2781716D01*
X16661715Y-2838284D01*
X16718284Y-2838284D01*
X16758284Y-7288284D02*
X16758284Y-7231715D01*
X16701715Y-7231715D01*
X16701715Y-7288284D01*
X16758284Y-7288284D01*
X16900285Y-15748284D02*
X16900285Y-15691715D01*
X16843716Y-15691715D01*
X16843716Y-15748284D01*
X16900285Y-15748284D01*
X16918285Y-2838284D02*
X16918285Y-2781716D01*
X16861716Y-2781716D01*
X16861716Y-2838284D01*
X16918285Y-2838284D01*
X16980285Y-5068285D02*
X16980285Y-5011716D01*
X16923716Y-5011716D01*
X16923716Y-5068285D01*
X16980285Y-5068285D01*
X16980285Y-5322285D02*
X16980285Y-5265716D01*
X16923716Y-5265716D01*
X16923716Y-5322285D01*
X16980285Y-5322285D01*
X16980285Y-5576285D02*
X16980285Y-5519716D01*
X16923716Y-5519716D01*
X16923716Y-5576285D01*
X16980285Y-5576285D01*
X16980285Y-5830284D02*
X16980285Y-5773715D01*
X16923716Y-5773715D01*
X16923716Y-5830284D01*
X16980285Y-5830284D01*
X16980285Y-6084284D02*
X16980285Y-6027715D01*
X16923716Y-6027715D01*
X16923716Y-6084284D01*
X16980285Y-6084284D01*
X16980285Y-6338284D02*
X16980285Y-6281715D01*
X16923716Y-6281715D01*
X16923716Y-6338284D01*
X16980285Y-6338284D01*
X16980285Y-6592284D02*
X16980285Y-6535715D01*
X16923716Y-6535715D01*
X16923716Y-6592284D01*
X16980285Y-6592284D01*
X16980285Y-6846284D02*
X16980285Y-6789715D01*
X16923716Y-6789715D01*
X16923716Y-6846284D01*
X16980285Y-6846284D01*
X17100285Y-15748284D02*
X17100285Y-15691715D01*
X17043716Y-15691715D01*
X17043716Y-15748284D01*
X17100285Y-15748284D01*
X17118285Y-2838284D02*
X17118285Y-2781716D01*
X17061716Y-2781716D01*
X17061716Y-2838284D01*
X17118285Y-2838284D01*
X17300285Y-15748284D02*
X17300285Y-15691715D01*
X17243716Y-15691715D01*
X17243716Y-15748284D01*
X17300285Y-15748284D01*
X17318285Y-2838284D02*
X17318285Y-2781716D01*
X17261716Y-2781716D01*
X17261716Y-2838284D01*
X17318285Y-2838284D01*
X17347285Y-6178284D02*
X17347285Y-6121715D01*
X17290716Y-6121715D01*
X17290716Y-6178284D01*
X17347285Y-6178284D01*
X17348285Y-6508284D02*
X17348285Y-6451715D01*
X17291716Y-6451715D01*
X17291716Y-6508284D01*
X17348285Y-6508284D01*
X17348285Y-6838284D02*
X17348285Y-6781715D01*
X17291716Y-6781715D01*
X17291716Y-6838284D01*
X17348285Y-6838284D01*
X17500285Y-15748284D02*
X17500285Y-15691715D01*
X17443716Y-15691715D01*
X17443716Y-15748284D01*
X17500285Y-15748284D01*
X17518285Y-2838284D02*
X17518285Y-2781716D01*
X17461716Y-2781716D01*
X17461716Y-2838284D01*
X17518285Y-2838284D01*
X17700285Y-15748284D02*
X17700285Y-15691715D01*
X17643716Y-15691715D01*
X17643716Y-15748284D01*
X17700285Y-15748284D01*
X17718285Y-2838284D02*
X17718285Y-2781716D01*
X17661716Y-2781716D01*
X17661716Y-2838284D01*
X17718285Y-2838284D01*
X17900285Y-15748284D02*
X17900285Y-15691715D01*
X17843716Y-15691715D01*
X17843716Y-15748284D01*
X17900285Y-15748284D01*
X17907285Y-4168284D02*
X17907285Y-4111715D01*
X17850716Y-4111715D01*
X17850716Y-4168284D01*
X17907285Y-4168284D01*
X17907285Y-4608285D02*
X17907285Y-4551716D01*
X17850716Y-4551716D01*
X17850716Y-4608285D01*
X17907285Y-4608285D01*
X17918285Y-2838284D02*
X17918285Y-2781716D01*
X17861716Y-2781716D01*
X17861716Y-2838284D01*
X17918285Y-2838284D01*
X18100285Y-15748284D02*
X18100285Y-15691715D01*
X18043716Y-15691715D01*
X18043716Y-15748284D01*
X18100285Y-15748284D01*
X18109285Y-6178284D02*
X18109285Y-6121715D01*
X18052716Y-6121715D01*
X18052716Y-6178284D01*
X18109285Y-6178284D01*
X18110285Y-6508284D02*
X18110285Y-6451715D01*
X18053716Y-6451715D01*
X18053716Y-6508284D01*
X18110285Y-6508284D01*
X18110285Y-6838284D02*
X18110285Y-6781715D01*
X18053716Y-6781715D01*
X18053716Y-6838284D01*
X18110285Y-6838284D01*
X18118285Y-2838284D02*
X18118285Y-2781716D01*
X18061716Y-2781716D01*
X18061716Y-2838284D01*
X18118285Y-2838284D01*
X18300285Y-15748284D02*
X18300285Y-15691715D01*
X18243716Y-15691715D01*
X18243716Y-15748284D01*
X18300285Y-15748284D01*
X18318285Y-2838284D02*
X18318285Y-2781716D01*
X18261716Y-2781716D01*
X18261716Y-2838284D01*
X18318285Y-2838284D01*
X18498285Y-15748284D02*
X18498285Y-15691715D01*
X18441716Y-15691715D01*
X18441716Y-15748284D01*
X18498285Y-15748284D01*
X18520285Y-2838284D02*
X18520285Y-2781716D01*
X18463716Y-2781716D01*
X18463716Y-2838284D01*
X18520285Y-2838284D01*
X18669285Y-4168284D02*
X18669285Y-4111715D01*
X18612716Y-4111715D01*
X18612716Y-4168284D01*
X18669285Y-4168284D01*
X18669285Y-4608285D02*
X18669285Y-4551716D01*
X18612716Y-4551716D01*
X18612716Y-4608285D01*
X18669285Y-4608285D01*
X18698285Y-15748284D02*
X18698285Y-15691715D01*
X18641716Y-15691715D01*
X18641716Y-15748284D01*
X18698285Y-15748284D01*
X18720285Y-2838284D02*
X18720285Y-2781716D01*
X18663716Y-2781716D01*
X18663716Y-2838284D01*
X18720285Y-2838284D01*
X18898285Y-15748284D02*
X18898285Y-15691715D01*
X18841716Y-15691715D01*
X18841716Y-15748284D01*
X18898285Y-15748284D01*
X18920285Y-2838284D02*
X18920285Y-2781716D01*
X18863716Y-2781716D01*
X18863716Y-2838284D01*
X18920285Y-2838284D01*
X18956285Y-4197785D02*
X18956285Y-4141215D01*
X18899716Y-4141215D01*
X18899716Y-4197785D01*
X18956285Y-4197785D01*
X18956285Y-4451785D02*
X18956285Y-4395216D01*
X18899716Y-4395216D01*
X18899716Y-4451785D01*
X18956285Y-4451785D01*
X18956285Y-4705785D02*
X18956285Y-4649216D01*
X18899716Y-4649216D01*
X18899716Y-4705785D01*
X18956285Y-4705785D01*
X18956285Y-4959785D02*
X18956285Y-4903216D01*
X18899716Y-4903216D01*
X18899716Y-4959785D01*
X18956285Y-4959785D01*
X18956285Y-5213785D02*
X18956285Y-5157216D01*
X18899716Y-5157216D01*
X18899716Y-5213785D01*
X18956285Y-5213785D01*
X18956285Y-5467785D02*
X18956285Y-5411216D01*
X18899716Y-5411216D01*
X18899716Y-5467785D01*
X18956285Y-5467785D01*
X18956285Y-5721784D02*
X18956285Y-5665215D01*
X18899716Y-5665215D01*
X18899716Y-5721784D01*
X18956285Y-5721784D01*
X18956285Y-5975784D02*
X18956285Y-5919215D01*
X18899716Y-5919215D01*
X18899716Y-5975784D01*
X18956285Y-5975784D01*
X19098285Y-15748284D02*
X19098285Y-15691715D01*
X19041716Y-15691715D01*
X19041716Y-15748284D01*
X19098285Y-15748284D01*
X19120285Y-2838284D02*
X19120285Y-2781716D01*
X19063716Y-2781716D01*
X19063716Y-2838284D01*
X19120285Y-2838284D01*
X19298285Y-15748284D02*
X19298285Y-15691715D01*
X19241716Y-15691715D01*
X19241716Y-15748284D01*
X19298285Y-15748284D01*
X19320285Y-2838284D02*
X19320285Y-2781716D01*
X19263716Y-2781716D01*
X19263716Y-2838284D01*
X19320285Y-2838284D01*
X19418285Y-6358284D02*
X19418285Y-6301715D01*
X19361716Y-6301715D01*
X19361716Y-6358284D01*
X19418285Y-6358284D01*
X19498285Y-15748284D02*
X19498285Y-15691715D01*
X19441716Y-15691715D01*
X19441716Y-15748284D01*
X19498285Y-15748284D01*
X19520285Y-2838284D02*
X19520285Y-2781716D01*
X19463716Y-2781716D01*
X19463716Y-2838284D01*
X19520285Y-2838284D01*
X19668285Y-6358284D02*
X19668285Y-6301715D01*
X19611716Y-6301715D01*
X19611716Y-6358284D01*
X19668285Y-6358284D01*
X19698285Y-15748284D02*
X19698285Y-15691715D01*
X19641716Y-15691715D01*
X19641716Y-15748284D01*
X19698285Y-15748284D01*
X19718285Y-4197785D02*
X19718285Y-4141215D01*
X19661716Y-4141215D01*
X19661716Y-4197785D01*
X19718285Y-4197785D01*
X19718285Y-4451785D02*
X19718285Y-4395216D01*
X19661716Y-4395216D01*
X19661716Y-4451785D01*
X19718285Y-4451785D01*
X19718285Y-4705785D02*
X19718285Y-4649216D01*
X19661716Y-4649216D01*
X19661716Y-4705785D01*
X19718285Y-4705785D01*
X19718285Y-4959785D02*
X19718285Y-4903216D01*
X19661716Y-4903216D01*
X19661716Y-4959785D01*
X19718285Y-4959785D01*
X19718285Y-5213785D02*
X19718285Y-5157216D01*
X19661716Y-5157216D01*
X19661716Y-5213785D01*
X19718285Y-5213785D01*
X19718285Y-5467785D02*
X19718285Y-5411216D01*
X19661716Y-5411216D01*
X19661716Y-5467785D01*
X19718285Y-5467785D01*
X19718285Y-5721784D02*
X19718285Y-5665215D01*
X19661716Y-5665215D01*
X19661716Y-5721784D01*
X19718285Y-5721784D01*
X19718285Y-5975784D02*
X19718285Y-5919215D01*
X19661716Y-5919215D01*
X19661716Y-5975784D01*
X19718285Y-5975784D01*
X19720285Y-2838284D02*
X19720285Y-2781716D01*
X19663716Y-2781716D01*
X19663716Y-2838284D01*
X19720285Y-2838284D01*
X19898285Y-15748284D02*
X19898285Y-15691715D01*
X19841716Y-15691715D01*
X19841716Y-15748284D01*
X19898285Y-15748284D01*
X19920285Y-2838284D02*
X19920285Y-2781716D01*
X19863716Y-2781716D01*
X19863716Y-2838284D01*
X19920285Y-2838284D01*
X20098285Y-15748284D02*
X20098285Y-15691715D01*
X20041716Y-15691715D01*
X20041716Y-15748284D01*
X20098285Y-15748284D01*
X20120285Y-2838284D02*
X20120285Y-2781716D01*
X20063716Y-2781716D01*
X20063716Y-2838284D01*
X20120285Y-2838284D01*
X20298285Y-15748284D02*
X20298285Y-15691715D01*
X20241716Y-15691715D01*
X20241716Y-15748284D01*
X20298285Y-15748284D01*
X20320285Y-2838284D02*
X20320285Y-2781716D01*
X20263716Y-2781716D01*
X20263716Y-2838284D01*
X20320285Y-2838284D01*
X20498285Y-15748284D02*
X20498285Y-15691715D01*
X20441716Y-15691715D01*
X20441716Y-15748284D01*
X20498285Y-15748284D01*
X20520285Y-2838284D02*
X20520285Y-2781716D01*
X20463716Y-2781716D01*
X20463716Y-2838284D01*
X20520285Y-2838284D01*
X20698285Y-15748284D02*
X20698285Y-15691715D01*
X20641716Y-15691715D01*
X20641716Y-15748284D01*
X20698285Y-15748284D01*
X20720285Y-2838284D02*
X20720285Y-2781716D01*
X20663716Y-2781716D01*
X20663716Y-2838284D01*
X20720285Y-2838284D01*
X21263285Y-9218285D02*
X21263285Y-9161716D01*
X21206716Y-9161716D01*
X21206716Y-9218285D01*
X21263285Y-9218285D01*
X21513285Y-9218285D02*
X21513285Y-9161716D01*
X21456716Y-9161716D01*
X21456716Y-9218285D01*
X21513285Y-9218285D01*
X22058285Y-3348284D02*
X22058285Y-3291715D01*
X22001716Y-3291715D01*
X22001716Y-3348284D01*
X22058285Y-3348284D01*
X22058285Y-3548284D02*
X22058285Y-3491715D01*
X22001716Y-3491715D01*
X22001716Y-3548284D01*
X22058285Y-3548284D01*
X22058285Y-3748284D02*
X22058285Y-3691715D01*
X22001716Y-3691715D01*
X22001716Y-3748284D01*
X22058285Y-3748284D01*
X22058285Y-3948284D02*
X22058285Y-3891715D01*
X22001716Y-3891715D01*
X22001716Y-3948284D01*
X22058285Y-3948284D01*
X22058285Y-4148284D02*
X22058285Y-4091715D01*
X22001716Y-4091715D01*
X22001716Y-4148284D01*
X22058285Y-4148284D01*
X22058285Y-4348285D02*
X22058285Y-4291716D01*
X22001716Y-4291716D01*
X22001716Y-4348285D01*
X22058285Y-4348285D01*
X22058285Y-4548285D02*
X22058285Y-4491716D01*
X22001716Y-4491716D01*
X22001716Y-4548285D01*
X22058285Y-4548285D01*
X22058285Y-4748285D02*
X22058285Y-4691716D01*
X22001716Y-4691716D01*
X22001716Y-4748285D01*
X22058285Y-4748285D01*
X22058285Y-4948285D02*
X22058285Y-4891716D01*
X22001716Y-4891716D01*
X22001716Y-4948285D01*
X22058285Y-4948285D01*
X22058285Y-5148285D02*
X22058285Y-5091716D01*
X22001716Y-5091716D01*
X22001716Y-5148285D01*
X22058285Y-5148285D01*
X22058285Y-5348285D02*
X22058285Y-5291716D01*
X22001716Y-5291716D01*
X22001716Y-5348285D01*
X22058285Y-5348285D01*
X22058285Y-5548285D02*
X22058285Y-5491716D01*
X22001716Y-5491716D01*
X22001716Y-5548285D01*
X22058285Y-5548285D01*
X22058285Y-5748284D02*
X22058285Y-5691715D01*
X22001716Y-5691715D01*
X22001716Y-5748284D01*
X22058285Y-5748284D01*
X22058285Y-5948284D02*
X22058285Y-5891715D01*
X22001716Y-5891715D01*
X22001716Y-5948284D01*
X22058285Y-5948284D01*
X22058285Y-6148284D02*
X22058285Y-6091715D01*
X22001716Y-6091715D01*
X22001716Y-6148284D01*
X22058285Y-6148284D01*
X22058285Y-6348284D02*
X22058285Y-6291715D01*
X22001716Y-6291715D01*
X22001716Y-6348284D01*
X22058285Y-6348284D01*
X22058285Y-6548284D02*
X22058285Y-6491715D01*
X22001716Y-6491715D01*
X22001716Y-6548284D01*
X22058285Y-6548284D01*
X22058285Y-6748284D02*
X22058285Y-6691715D01*
X22001716Y-6691715D01*
X22001716Y-6748284D01*
X22058285Y-6748284D01*
X22058285Y-6948284D02*
X22058285Y-6891715D01*
X22001716Y-6891715D01*
X22001716Y-6948284D01*
X22058285Y-6948284D01*
X22058285Y-7148284D02*
X22058285Y-7091715D01*
X22001716Y-7091715D01*
X22001716Y-7148284D01*
X22058285Y-7148284D01*
X22058285Y-7348284D02*
X22058285Y-7291715D01*
X22001716Y-7291715D01*
X22001716Y-7348284D01*
X22058285Y-7348284D01*
X22058285Y-7548284D02*
X22058285Y-7491715D01*
X22001716Y-7491715D01*
X22001716Y-7548284D01*
X22058285Y-7548284D01*
X22058285Y-7748284D02*
X22058285Y-7691715D01*
X22001716Y-7691715D01*
X22001716Y-7748284D01*
X22058285Y-7748284D01*
X22058285Y-7948284D02*
X22058285Y-7891715D01*
X22001716Y-7891715D01*
X22001716Y-7948284D01*
X22058285Y-7948284D01*
X22058285Y-8148284D02*
X22058285Y-8091715D01*
X22001716Y-8091715D01*
X22001716Y-8148284D01*
X22058285Y-8148284D01*
X22058285Y-8348284D02*
X22058285Y-8291715D01*
X22001716Y-8291715D01*
X22001716Y-8348284D01*
X22058285Y-8348284D01*
X22058285Y-8548285D02*
X22058285Y-8491716D01*
X22001716Y-8491716D01*
X22001716Y-8548285D01*
X22058285Y-8548285D01*
X22058285Y-8748285D02*
X22058285Y-8691716D01*
X22001716Y-8691716D01*
X22001716Y-8748285D01*
X22058285Y-8748285D01*
X22058285Y-8948285D02*
X22058285Y-8891716D01*
X22001716Y-8891716D01*
X22001716Y-8948285D01*
X22058285Y-8948285D01*
X22058285Y-9148285D02*
X22058285Y-9091716D01*
X22001716Y-9091716D01*
X22001716Y-9148285D01*
X22058285Y-9148285D01*
X22058285Y-9348285D02*
X22058285Y-9291716D01*
X22001716Y-9291716D01*
X22001716Y-9348285D01*
X22058285Y-9348285D01*
X22058285Y-9548285D02*
X22058285Y-9491716D01*
X22001716Y-9491716D01*
X22001716Y-9548285D01*
X22058285Y-9548285D01*
X22058285Y-9748285D02*
X22058285Y-9691716D01*
X22001716Y-9691716D01*
X22001716Y-9748285D01*
X22058285Y-9748285D01*
X22058285Y-9948285D02*
X22058285Y-9891716D01*
X22001716Y-9891716D01*
X22001716Y-9948285D01*
X22058285Y-9948285D01*
X22058285Y-10148285D02*
X22058285Y-10091716D01*
X22001716Y-10091716D01*
X22001716Y-10148285D01*
X22058285Y-10148285D01*
X22058285Y-10348285D02*
X22058285Y-10291716D01*
X22001716Y-10291716D01*
X22001716Y-10348285D01*
X22058285Y-10348285D01*
X22058285Y-10548285D02*
X22058285Y-10491716D01*
X22001716Y-10491716D01*
X22001716Y-10548285D01*
X22058285Y-10548285D01*
X22058285Y-10748285D02*
X22058285Y-10691716D01*
X22001716Y-10691716D01*
X22001716Y-10748285D01*
X22058285Y-10748285D01*
X22058285Y-10948285D02*
X22058285Y-10891716D01*
X22001716Y-10891716D01*
X22001716Y-10948285D01*
X22058285Y-10948285D01*
X22058285Y-11148285D02*
X22058285Y-11091716D01*
X22001716Y-11091716D01*
X22001716Y-11148285D01*
X22058285Y-11148285D01*
X22058285Y-11352284D02*
X22058285Y-11295715D01*
X22001716Y-11295715D01*
X22001716Y-11352284D01*
X22058285Y-11352284D01*
X22058285Y-11552284D02*
X22058285Y-11495715D01*
X22001716Y-11495715D01*
X22001716Y-11552284D01*
X22058285Y-11552284D01*
X22058285Y-11752284D02*
X22058285Y-11695715D01*
X22001716Y-11695715D01*
X22001716Y-11752284D01*
X22058285Y-11752284D01*
X22058285Y-11952284D02*
X22058285Y-11895715D01*
X22001716Y-11895715D01*
X22001716Y-11952284D01*
X22058285Y-11952284D01*
X22058285Y-12152284D02*
X22058285Y-12095715D01*
X22001716Y-12095715D01*
X22001716Y-12152284D01*
X22058285Y-12152284D01*
X22058285Y-12352284D02*
X22058285Y-12295715D01*
X22001716Y-12295715D01*
X22001716Y-12352284D01*
X22058285Y-12352284D01*
X22058285Y-12552284D02*
X22058285Y-12495715D01*
X22001716Y-12495715D01*
X22001716Y-12552284D01*
X22058285Y-12552284D01*
X22058285Y-12752284D02*
X22058285Y-12695715D01*
X22001716Y-12695715D01*
X22001716Y-12752284D01*
X22058285Y-12752284D01*
X22058285Y-12952284D02*
X22058285Y-12895715D01*
X22001716Y-12895715D01*
X22001716Y-12952284D01*
X22058285Y-12952284D01*
X22058285Y-13152284D02*
X22058285Y-13095715D01*
X22001716Y-13095715D01*
X22001716Y-13152284D01*
X22058285Y-13152284D01*
X22058285Y-13352284D02*
X22058285Y-13295715D01*
X22001716Y-13295715D01*
X22001716Y-13352284D01*
X22058285Y-13352284D01*
X22058285Y-13552284D02*
X22058285Y-13495715D01*
X22001716Y-13495715D01*
X22001716Y-13552284D01*
X22058285Y-13552284D01*
X22058285Y-13752284D02*
X22058285Y-13695715D01*
X22001716Y-13695715D01*
X22001716Y-13752284D01*
X22058285Y-13752284D01*
X22058285Y-13952284D02*
X22058285Y-13895715D01*
X22001716Y-13895715D01*
X22001716Y-13952284D01*
X22058285Y-13952284D01*
X22058285Y-14152284D02*
X22058285Y-14095715D01*
X22001716Y-14095715D01*
X22001716Y-14152284D01*
X22058285Y-14152284D01*
X22058285Y-14352284D02*
X22058285Y-14295715D01*
X22001716Y-14295715D01*
X22001716Y-14352284D01*
X22058285Y-14352284D01*
X22058285Y-14552284D02*
X22058285Y-14495715D01*
X22001716Y-14495715D01*
X22001716Y-14552284D01*
X22058285Y-14552284D01*
X22058285Y-14752284D02*
X22058285Y-14695715D01*
X22001716Y-14695715D01*
X22001716Y-14752284D01*
X22058285Y-14752284D01*
X22058285Y-14952284D02*
X22058285Y-14895715D01*
X22001716Y-14895715D01*
X22001716Y-14952284D01*
X22058285Y-14952284D01*
X22058285Y-15152284D02*
X22058285Y-15095715D01*
X22001716Y-15095715D01*
X22001716Y-15152284D01*
X22058285Y-15152284D01*
D16*
X15710000Y-15305000D02*
X15755000Y-15260000D01*
X15710000Y-15215000D01*
X15665000Y-15260000D01*
X15710000Y-15305000D01*
X18540000Y-15315000D02*
X18585000Y-15270000D01*
X18540000Y-15225000D01*
X18495000Y-15270000D01*
X18540000Y-15315000D01*
D17*
X14754000Y-8280000D02*
X14854000Y-8380000D01*
X14854000Y-8280000D02*
X14754000Y-8380000D01*
X14854000Y-8330000D02*
G75*
G03*
X14854000Y-8330000I-50000J0D01*
G01*
X15008000Y-8280000D02*
X15108000Y-8380000D01*
X15108000Y-8280000D02*
X15008000Y-8380000D01*
X15108000Y-8330000D02*
G75*
G03*
X15108000Y-8330000I-50000J0D01*
G01*
X15262000Y-8280000D02*
X15362000Y-8380000D01*
X15362000Y-8280000D02*
X15262000Y-8380000D01*
X15362000Y-8330000D02*
G75*
G03*
X15362000Y-8330000I-50000J0D01*
G01*
X15516000Y-8280000D02*
X15616000Y-8380000D01*
X15616000Y-8280000D02*
X15516000Y-8380000D01*
X15616000Y-8330000D02*
G75*
G03*
X15616000Y-8330000I-50000J0D01*
G01*
X15770000Y-8280000D02*
X15870000Y-8380000D01*
X15870000Y-8280000D02*
X15770000Y-8380000D01*
X15870000Y-8330000D02*
G75*
G03*
X15870000Y-8330000I-50000J0D01*
G01*
X17565750Y-14180000D02*
X17665750Y-14280000D01*
X17665750Y-14180000D02*
X17565750Y-14280000D01*
X17665750Y-14230000D02*
G75*
G03*
X17665750Y-14230000I-50000J0D01*
G01*
D11*
X17655750Y-14330000D02*
X17655750Y-14130000D01*
X17575750Y-14330000D02*
X17575750Y-14130000D01*
X17655750Y-14130000D02*
G75*
G03*
X17575750Y-14130000I-40000J0D01*
G01*
X17575750Y-14330000D02*
G75*
G03*
X17655750Y-14330000I40000J0D01*
G01*
D17*
X17712000Y-13110000D02*
X17812000Y-13210000D01*
X17812000Y-13110000D02*
X17712000Y-13210000D01*
X17812000Y-13160000D02*
G75*
G03*
X17812000Y-13160000I-50000J0D01*
G01*
X17966000Y-13110000D02*
X18066000Y-13210000D01*
X18066000Y-13110000D02*
X17966000Y-13210000D01*
X18066000Y-13160000D02*
G75*
G03*
X18066000Y-13160000I-50000J0D01*
G01*
X18035750Y-13880000D02*
X18135750Y-13980000D01*
X18135750Y-13880000D02*
X18035750Y-13980000D01*
X18135750Y-13930000D02*
G75*
G03*
X18135750Y-13930000I-50000J0D01*
G01*
D11*
X17985750Y-13970000D02*
X18185750Y-13970000D01*
X17985750Y-13890000D02*
X18185750Y-13890000D01*
X18185750Y-13970000D02*
G75*
G03*
X18185750Y-13890000I0J40000D01*
G01*
X17985750Y-13890000D02*
G75*
G03*
X17985750Y-13970000I0J-40000D01*
G01*
D17*
X18035750Y-14480000D02*
X18135750Y-14580000D01*
X18135750Y-14480000D02*
X18035750Y-14580000D01*
X18135750Y-14530000D02*
G75*
G03*
X18135750Y-14530000I-50000J0D01*
G01*
D11*
X17985750Y-14570000D02*
X18185750Y-14570000D01*
X17985750Y-14490000D02*
X18185750Y-14490000D01*
X18185750Y-14570000D02*
G75*
G03*
X18185750Y-14490000I0J40000D01*
G01*
X17985750Y-14490000D02*
G75*
G03*
X17985750Y-14570000I0J-40000D01*
G01*
D17*
X18220000Y-13110000D02*
X18320000Y-13210000D01*
X18320000Y-13110000D02*
X18220000Y-13210000D01*
X18320000Y-13160000D02*
G75*
G03*
X18320000Y-13160000I-50000J0D01*
G01*
D18*
X14298000Y-10262000D02*
X14402000Y-10366000D01*
X14402000Y-10262000D02*
X14298000Y-10366000D01*
X14350000Y-10262000D02*
X14350000Y-10366000D01*
X14298000Y-10314000D02*
X14402000Y-10314000D01*
X14298000Y-10516000D02*
X14402000Y-10620000D01*
X14402000Y-10516000D02*
X14298000Y-10620000D01*
X14350000Y-10516000D02*
X14350000Y-10620000D01*
X14298000Y-10568000D02*
X14402000Y-10568000D01*
X14298000Y-10770000D02*
X14402000Y-10874000D01*
X14402000Y-10770000D02*
X14298000Y-10874000D01*
X14350000Y-10770000D02*
X14350000Y-10874000D01*
X14298000Y-10822000D02*
X14402000Y-10822000D01*
X14298000Y-11024000D02*
X14402000Y-11128000D01*
X14402000Y-11024000D02*
X14298000Y-11128000D01*
X14350000Y-11024000D02*
X14350000Y-11128000D01*
X14298000Y-11076000D02*
X14402000Y-11076000D01*
X14298000Y-11278000D02*
X14402000Y-11382000D01*
X14402000Y-11278000D02*
X14298000Y-11382000D01*
X14350000Y-11278000D02*
X14350000Y-11382000D01*
X14298000Y-11330000D02*
X14402000Y-11330000D01*
X14298000Y-11532000D02*
X14402000Y-11636000D01*
X14402000Y-11532000D02*
X14298000Y-11636000D01*
X14350000Y-11532000D02*
X14350000Y-11636000D01*
X14298000Y-11584000D02*
X14402000Y-11584000D01*
X14298000Y-11786000D02*
X14402000Y-11890000D01*
X14402000Y-11786000D02*
X14298000Y-11890000D01*
X14350000Y-11786000D02*
X14350000Y-11890000D01*
X14298000Y-11838000D02*
X14402000Y-11838000D01*
X14298000Y-12040000D02*
X14402000Y-12144000D01*
X14402000Y-12040000D02*
X14298000Y-12144000D01*
X14350000Y-12040000D02*
X14350000Y-12144000D01*
X14298000Y-12092000D02*
X14402000Y-12092000D01*
X14298000Y-12294000D02*
X14402000Y-12398000D01*
X14402000Y-12294000D02*
X14298000Y-12398000D01*
X14350000Y-12294000D02*
X14350000Y-12398000D01*
X14298000Y-12346000D02*
X14402000Y-12346000D01*
X14298000Y-12548000D02*
X14402000Y-12652000D01*
X14402000Y-12548000D02*
X14298000Y-12652000D01*
X14350000Y-12548000D02*
X14350000Y-12652000D01*
X14298000Y-12600000D02*
X14402000Y-12600000D01*
X14298000Y-12802000D02*
X14402000Y-12906000D01*
X14402000Y-12802000D02*
X14298000Y-12906000D01*
X14350000Y-12802000D02*
X14350000Y-12906000D01*
X14298000Y-12854000D02*
X14402000Y-12854000D01*
X14298000Y-13056000D02*
X14402000Y-13160000D01*
X14402000Y-13056000D02*
X14298000Y-13160000D01*
X14350000Y-13056000D02*
X14350000Y-13160000D01*
X14298000Y-13108000D02*
X14402000Y-13108000D01*
X14298000Y-13310000D02*
X14402000Y-13414000D01*
X14402000Y-13310000D02*
X14298000Y-13414000D01*
X14350000Y-13310000D02*
X14350000Y-13414000D01*
X14298000Y-13362000D02*
X14402000Y-13362000D01*
X14298000Y-13564000D02*
X14402000Y-13668000D01*
X14402000Y-13564000D02*
X14298000Y-13668000D01*
X14350000Y-13564000D02*
X14350000Y-13668000D01*
X14298000Y-13616000D02*
X14402000Y-13616000D01*
X14298000Y-13818000D02*
X14402000Y-13922000D01*
X14402000Y-13818000D02*
X14298000Y-13922000D01*
X14350000Y-13818000D02*
X14350000Y-13922000D01*
X14298000Y-13870000D02*
X14402000Y-13870000D01*
X14298000Y-14072000D02*
X14402000Y-14176000D01*
X14402000Y-14072000D02*
X14298000Y-14176000D01*
X14350000Y-14072000D02*
X14350000Y-14176000D01*
X14298000Y-14124000D02*
X14402000Y-14124000D01*
X14298000Y-14326000D02*
X14402000Y-14430000D01*
X14402000Y-14326000D02*
X14298000Y-14430000D01*
X14350000Y-14326000D02*
X14350000Y-14430000D01*
X14298000Y-14378000D02*
X14402000Y-14378000D01*
X14298000Y-14580000D02*
X14402000Y-14684000D01*
X14402000Y-14580000D02*
X14298000Y-14684000D01*
X14350000Y-14580000D02*
X14350000Y-14684000D01*
X14298000Y-14632000D02*
X14402000Y-14632000D01*
X14298000Y-14834000D02*
X14402000Y-14938000D01*
X14402000Y-14834000D02*
X14298000Y-14938000D01*
X14350000Y-14834000D02*
X14350000Y-14938000D01*
X14298000Y-14886000D02*
X14402000Y-14886000D01*
X16838000Y-10262000D02*
X16942000Y-10366000D01*
X16942000Y-10262000D02*
X16838000Y-10366000D01*
X16890000Y-10262000D02*
X16890000Y-10366000D01*
X16838000Y-10314000D02*
X16942000Y-10314000D01*
X16838000Y-10516000D02*
X16942000Y-10620000D01*
X16942000Y-10516000D02*
X16838000Y-10620000D01*
X16890000Y-10516000D02*
X16890000Y-10620000D01*
X16838000Y-10568000D02*
X16942000Y-10568000D01*
X16838000Y-10770000D02*
X16942000Y-10874000D01*
X16942000Y-10770000D02*
X16838000Y-10874000D01*
X16890000Y-10770000D02*
X16890000Y-10874000D01*
X16838000Y-10822000D02*
X16942000Y-10822000D01*
X16838000Y-11024000D02*
X16942000Y-11128000D01*
X16942000Y-11024000D02*
X16838000Y-11128000D01*
X16890000Y-11024000D02*
X16890000Y-11128000D01*
X16838000Y-11076000D02*
X16942000Y-11076000D01*
X16838000Y-11278000D02*
X16942000Y-11382000D01*
X16942000Y-11278000D02*
X16838000Y-11382000D01*
X16890000Y-11278000D02*
X16890000Y-11382000D01*
X16838000Y-11330000D02*
X16942000Y-11330000D01*
X16838000Y-11532000D02*
X16942000Y-11636000D01*
X16942000Y-11532000D02*
X16838000Y-11636000D01*
X16890000Y-11532000D02*
X16890000Y-11636000D01*
X16838000Y-11584000D02*
X16942000Y-11584000D01*
X16838000Y-11786000D02*
X16942000Y-11890000D01*
X16942000Y-11786000D02*
X16838000Y-11890000D01*
X16890000Y-11786000D02*
X16890000Y-11890000D01*
X16838000Y-11838000D02*
X16942000Y-11838000D01*
X16838000Y-12040000D02*
X16942000Y-12144000D01*
X16942000Y-12040000D02*
X16838000Y-12144000D01*
X16890000Y-12040000D02*
X16890000Y-12144000D01*
X16838000Y-12092000D02*
X16942000Y-12092000D01*
X16838000Y-12294000D02*
X16942000Y-12398000D01*
X16942000Y-12294000D02*
X16838000Y-12398000D01*
X16890000Y-12294000D02*
X16890000Y-12398000D01*
X16838000Y-12346000D02*
X16942000Y-12346000D01*
X16838000Y-12548000D02*
X16942000Y-12652000D01*
X16942000Y-12548000D02*
X16838000Y-12652000D01*
X16890000Y-12548000D02*
X16890000Y-12652000D01*
X16838000Y-12600000D02*
X16942000Y-12600000D01*
X16838000Y-12802000D02*
X16942000Y-12906000D01*
X16942000Y-12802000D02*
X16838000Y-12906000D01*
X16890000Y-12802000D02*
X16890000Y-12906000D01*
X16838000Y-12854000D02*
X16942000Y-12854000D01*
X16838000Y-13056000D02*
X16942000Y-13160000D01*
X16942000Y-13056000D02*
X16838000Y-13160000D01*
X16890000Y-13056000D02*
X16890000Y-13160000D01*
X16838000Y-13108000D02*
X16942000Y-13108000D01*
X16838000Y-13310000D02*
X16942000Y-13414000D01*
X16942000Y-13310000D02*
X16838000Y-13414000D01*
X16890000Y-13310000D02*
X16890000Y-13414000D01*
X16838000Y-13362000D02*
X16942000Y-13362000D01*
X16838000Y-13564000D02*
X16942000Y-13668000D01*
X16942000Y-13564000D02*
X16838000Y-13668000D01*
X16890000Y-13564000D02*
X16890000Y-13668000D01*
X16838000Y-13616000D02*
X16942000Y-13616000D01*
X16838000Y-13818000D02*
X16942000Y-13922000D01*
X16942000Y-13818000D02*
X16838000Y-13922000D01*
X16890000Y-13818000D02*
X16890000Y-13922000D01*
X16838000Y-13870000D02*
X16942000Y-13870000D01*
X16838000Y-14072000D02*
X16942000Y-14176000D01*
X16942000Y-14072000D02*
X16838000Y-14176000D01*
X16890000Y-14072000D02*
X16890000Y-14176000D01*
X16838000Y-14124000D02*
X16942000Y-14124000D01*
X16838000Y-14326000D02*
X16942000Y-14430000D01*
X16942000Y-14326000D02*
X16838000Y-14430000D01*
X16890000Y-14326000D02*
X16890000Y-14430000D01*
X16838000Y-14378000D02*
X16942000Y-14378000D01*
X16838000Y-14580000D02*
X16942000Y-14684000D01*
X16942000Y-14580000D02*
X16838000Y-14684000D01*
X16890000Y-14580000D02*
X16890000Y-14684000D01*
X16838000Y-14632000D02*
X16942000Y-14632000D01*
X16838000Y-14834000D02*
X16942000Y-14938000D01*
X16942000Y-14834000D02*
X16838000Y-14938000D01*
X16890000Y-14834000D02*
X16890000Y-14938000D01*
X16838000Y-14886000D02*
X16942000Y-14886000D01*
D11*
X8886619Y-16535476D02*
X8886619Y-16335476D01*
X8934238Y-16335476D01*
X8962810Y-16345000D01*
X8981857Y-16364048D01*
X8991381Y-16383095D01*
X9000905Y-16421190D01*
X9000905Y-16449762D01*
X8991381Y-16487857D01*
X8981857Y-16506905D01*
X8962810Y-16525952D01*
X8934238Y-16535476D01*
X8886619Y-16535476D01*
X9086619Y-16535476D02*
X9086619Y-16402143D01*
X9086619Y-16440238D02*
X9096143Y-16421190D01*
X9105667Y-16411667D01*
X9124714Y-16402143D01*
X9143762Y-16402143D01*
X9210429Y-16535476D02*
X9210429Y-16402143D01*
X9210429Y-16335476D02*
X9200905Y-16345000D01*
X9210429Y-16354524D01*
X9219952Y-16345000D01*
X9210429Y-16335476D01*
X9210429Y-16354524D01*
X9334238Y-16535476D02*
X9315190Y-16525952D01*
X9305667Y-16506905D01*
X9305667Y-16335476D01*
X9439000Y-16535476D02*
X9419952Y-16525952D01*
X9410429Y-16506905D01*
X9410429Y-16335476D01*
X9667571Y-16535476D02*
X9667571Y-16335476D01*
X9734238Y-16478333D01*
X9800905Y-16335476D01*
X9800905Y-16535476D01*
X9981857Y-16535476D02*
X9981857Y-16430714D01*
X9972333Y-16411667D01*
X9953286Y-16402143D01*
X9915190Y-16402143D01*
X9896143Y-16411667D01*
X9981857Y-16525952D02*
X9962810Y-16535476D01*
X9915190Y-16535476D01*
X9896143Y-16525952D01*
X9886619Y-16506905D01*
X9886619Y-16487857D01*
X9896143Y-16468809D01*
X9915190Y-16459286D01*
X9962810Y-16459286D01*
X9981857Y-16449762D01*
X10077095Y-16402143D02*
X10077095Y-16602143D01*
X10077095Y-16411667D02*
X10096143Y-16402143D01*
X10134238Y-16402143D01*
X10153286Y-16411667D01*
X10162810Y-16421190D01*
X10172333Y-16440238D01*
X10172333Y-16497381D01*
X10162810Y-16516428D01*
X10153286Y-16525952D01*
X10134238Y-16535476D01*
X10096143Y-16535476D01*
X10077095Y-16525952D01*
X10258048Y-16516428D02*
X10267571Y-16525952D01*
X10258048Y-16535476D01*
X10248524Y-16525952D01*
X10258048Y-16516428D01*
X10258048Y-16535476D01*
X10258048Y-16411667D02*
X10267571Y-16421190D01*
X10258048Y-16430714D01*
X10248524Y-16421190D01*
X10258048Y-16411667D01*
X10258048Y-16430714D01*
D12*
X8589000Y-16845000D02*
X8629000Y-16885000D01*
X8629000Y-16845000D02*
X8589000Y-16885000D01*
D11*
X8924714Y-16755476D02*
X8943762Y-16755476D01*
X8962810Y-16765000D01*
X8972333Y-16774524D01*
X8981857Y-16793571D01*
X8991381Y-16831667D01*
X8991381Y-16879286D01*
X8981857Y-16917381D01*
X8972333Y-16936429D01*
X8962810Y-16945952D01*
X8943762Y-16955476D01*
X8924714Y-16955476D01*
X8905667Y-16945952D01*
X8896143Y-16936429D01*
X8886619Y-16917381D01*
X8877095Y-16879286D01*
X8877095Y-16831667D01*
X8886619Y-16793571D01*
X8896143Y-16774524D01*
X8905667Y-16765000D01*
X8924714Y-16755476D01*
X9077095Y-16936429D02*
X9086619Y-16945952D01*
X9077095Y-16955476D01*
X9067571Y-16945952D01*
X9077095Y-16936429D01*
X9077095Y-16955476D01*
X9258048Y-16822143D02*
X9258048Y-16955476D01*
X9210429Y-16745952D02*
X9162810Y-16888810D01*
X9286619Y-16888810D01*
X9400905Y-16755476D02*
X9419952Y-16755476D01*
X9439000Y-16765000D01*
X9448524Y-16774524D01*
X9458048Y-16793571D01*
X9467571Y-16831667D01*
X9467571Y-16879286D01*
X9458048Y-16917381D01*
X9448524Y-16936429D01*
X9439000Y-16945952D01*
X9419952Y-16955476D01*
X9400905Y-16955476D01*
X9381857Y-16945952D01*
X9372333Y-16936429D01*
X9362810Y-16917381D01*
X9353286Y-16879286D01*
X9353286Y-16831667D01*
X9362810Y-16793571D01*
X9372333Y-16774524D01*
X9381857Y-16765000D01*
X9400905Y-16755476D01*
X9591381Y-16755476D02*
X9610429Y-16755476D01*
X9629476Y-16765000D01*
X9639000Y-16774524D01*
X9648524Y-16793571D01*
X9658048Y-16831667D01*
X9658048Y-16879286D01*
X9648524Y-16917381D01*
X9639000Y-16936429D01*
X9629476Y-16945952D01*
X9610429Y-16955476D01*
X9591381Y-16955476D01*
X9572333Y-16945952D01*
X9562810Y-16936429D01*
X9553286Y-16917381D01*
X9543762Y-16879286D01*
X9543762Y-16831667D01*
X9553286Y-16793571D01*
X9562810Y-16774524D01*
X9572333Y-16765000D01*
X9591381Y-16755476D01*
X9743762Y-16955476D02*
X9743762Y-16822143D01*
X9743762Y-16841190D02*
X9753286Y-16831667D01*
X9772333Y-16822143D01*
X9800905Y-16822143D01*
X9819952Y-16831667D01*
X9829476Y-16850714D01*
X9829476Y-16955476D01*
X9829476Y-16850714D02*
X9839000Y-16831667D01*
X9858048Y-16822143D01*
X9886619Y-16822143D01*
X9905667Y-16831667D01*
X9915190Y-16850714D01*
X9915190Y-16955476D01*
X10010429Y-16955476D02*
X10010429Y-16822143D01*
X10010429Y-16841190D02*
X10019952Y-16831667D01*
X10039000Y-16822143D01*
X10067571Y-16822143D01*
X10086619Y-16831667D01*
X10096143Y-16850714D01*
X10096143Y-16955476D01*
X10096143Y-16850714D02*
X10105667Y-16831667D01*
X10124714Y-16822143D01*
X10153286Y-16822143D01*
X10172333Y-16831667D01*
X10181857Y-16850714D01*
X10181857Y-16955476D01*
X10572333Y-16745952D02*
X10400905Y-17003095D01*
X10829476Y-16755476D02*
X10848524Y-16755476D01*
X10867571Y-16765000D01*
X10877095Y-16774524D01*
X10886619Y-16793571D01*
X10896143Y-16831667D01*
X10896143Y-16879286D01*
X10886619Y-16917381D01*
X10877095Y-16936429D01*
X10867571Y-16945952D01*
X10848524Y-16955476D01*
X10829476Y-16955476D01*
X10810429Y-16945952D01*
X10800905Y-16936429D01*
X10791381Y-16917381D01*
X10781857Y-16879286D01*
X10781857Y-16831667D01*
X10791381Y-16793571D01*
X10800905Y-16774524D01*
X10810429Y-16765000D01*
X10829476Y-16755476D01*
X10981857Y-16936429D02*
X10991381Y-16945952D01*
X10981857Y-16955476D01*
X10972333Y-16945952D01*
X10981857Y-16936429D01*
X10981857Y-16955476D01*
X11115190Y-16755476D02*
X11134238Y-16755476D01*
X11153286Y-16765000D01*
X11162810Y-16774524D01*
X11172333Y-16793571D01*
X11181857Y-16831667D01*
X11181857Y-16879286D01*
X11172333Y-16917381D01*
X11162810Y-16936429D01*
X11153286Y-16945952D01*
X11134238Y-16955476D01*
X11115190Y-16955476D01*
X11096143Y-16945952D01*
X11086619Y-16936429D01*
X11077095Y-16917381D01*
X11067571Y-16879286D01*
X11067571Y-16831667D01*
X11077095Y-16793571D01*
X11086619Y-16774524D01*
X11096143Y-16765000D01*
X11115190Y-16755476D01*
X11372333Y-16955476D02*
X11258048Y-16955476D01*
X11315190Y-16955476D02*
X11315190Y-16755476D01*
X11296143Y-16784048D01*
X11277095Y-16803095D01*
X11258048Y-16812619D01*
X11553286Y-16755476D02*
X11458048Y-16755476D01*
X11448524Y-16850714D01*
X11458048Y-16841190D01*
X11477095Y-16831667D01*
X11524714Y-16831667D01*
X11543762Y-16841190D01*
X11553286Y-16850714D01*
X11562809Y-16869762D01*
X11562809Y-16917381D01*
X11553286Y-16936429D01*
X11543762Y-16945952D01*
X11524714Y-16955476D01*
X11477095Y-16955476D01*
X11458048Y-16945952D01*
X11448524Y-16936429D01*
X11629476Y-16755476D02*
X11762809Y-16755476D01*
X11677095Y-16955476D01*
X11829476Y-16755476D02*
X11829476Y-16793571D01*
X11905667Y-16755476D02*
X11905667Y-16793571D01*
X12200905Y-17031667D02*
X12191381Y-17022143D01*
X12172333Y-16993571D01*
X12162809Y-16974524D01*
X12153286Y-16945952D01*
X12143762Y-16898333D01*
X12143762Y-16860238D01*
X12153286Y-16812619D01*
X12162809Y-16784048D01*
X12172333Y-16765000D01*
X12191381Y-16736428D01*
X12200905Y-16726905D01*
X12267571Y-16774524D02*
X12277095Y-16765000D01*
X12296143Y-16755476D01*
X12343762Y-16755476D01*
X12362809Y-16765000D01*
X12372333Y-16774524D01*
X12381857Y-16793571D01*
X12381857Y-16812619D01*
X12372333Y-16841190D01*
X12258048Y-16955476D01*
X12381857Y-16955476D01*
X12553286Y-16755476D02*
X12515190Y-16755476D01*
X12496143Y-16765000D01*
X12486619Y-16774524D01*
X12467571Y-16803095D01*
X12458048Y-16841190D01*
X12458048Y-16917381D01*
X12467571Y-16936429D01*
X12477095Y-16945952D01*
X12496143Y-16955476D01*
X12534238Y-16955476D01*
X12553286Y-16945952D01*
X12562809Y-16936429D01*
X12572333Y-16917381D01*
X12572333Y-16869762D01*
X12562809Y-16850714D01*
X12553286Y-16841190D01*
X12534238Y-16831667D01*
X12496143Y-16831667D01*
X12477095Y-16841190D01*
X12467571Y-16850714D01*
X12458048Y-16869762D01*
X12762809Y-16955476D02*
X12648524Y-16955476D01*
X12705667Y-16955476D02*
X12705667Y-16755476D01*
X12686619Y-16784048D01*
X12667571Y-16803095D01*
X12648524Y-16812619D01*
X13000905Y-16955476D02*
X13000905Y-16755476D01*
X13086619Y-16955476D02*
X13086619Y-16850714D01*
X13077095Y-16831667D01*
X13058048Y-16822143D01*
X13029476Y-16822143D01*
X13010428Y-16831667D01*
X13000905Y-16841190D01*
X13210428Y-16955476D02*
X13191381Y-16945952D01*
X13181857Y-16936429D01*
X13172333Y-16917381D01*
X13172333Y-16860238D01*
X13181857Y-16841190D01*
X13191381Y-16831667D01*
X13210428Y-16822143D01*
X13239000Y-16822143D01*
X13258048Y-16831667D01*
X13267571Y-16841190D01*
X13277095Y-16860238D01*
X13277095Y-16917381D01*
X13267571Y-16936429D01*
X13258048Y-16945952D01*
X13239000Y-16955476D01*
X13210428Y-16955476D01*
X13391381Y-16955476D02*
X13372333Y-16945952D01*
X13362809Y-16926905D01*
X13362809Y-16755476D01*
X13543762Y-16945952D02*
X13524714Y-16955476D01*
X13486619Y-16955476D01*
X13467571Y-16945952D01*
X13458048Y-16926905D01*
X13458048Y-16850714D01*
X13467571Y-16831667D01*
X13486619Y-16822143D01*
X13524714Y-16822143D01*
X13543762Y-16831667D01*
X13553286Y-16850714D01*
X13553286Y-16869762D01*
X13458048Y-16888810D01*
X13629476Y-16945952D02*
X13648524Y-16955476D01*
X13686619Y-16955476D01*
X13705667Y-16945952D01*
X13715190Y-16926905D01*
X13715190Y-16917381D01*
X13705667Y-16898333D01*
X13686619Y-16888810D01*
X13658048Y-16888810D01*
X13639000Y-16879286D01*
X13629476Y-16860238D01*
X13629476Y-16850714D01*
X13639000Y-16831667D01*
X13658048Y-16822143D01*
X13686619Y-16822143D01*
X13705667Y-16831667D01*
X13781857Y-17031667D02*
X13791381Y-17022143D01*
X13810428Y-16993571D01*
X13819952Y-16974524D01*
X13829476Y-16945952D01*
X13839000Y-16898333D01*
X13839000Y-16860238D01*
X13829476Y-16812619D01*
X13819952Y-16784048D01*
X13810428Y-16765000D01*
X13791381Y-16736428D01*
X13781857Y-16726905D01*
D13*
X8629000Y-17129000D02*
G75*
G03*
X8629000Y-17129000I-25000J0D01*
G01*
D11*
X8924714Y-17019476D02*
X8943762Y-17019476D01*
X8962810Y-17029000D01*
X8972333Y-17038524D01*
X8981857Y-17057571D01*
X8991381Y-17095667D01*
X8991381Y-17143286D01*
X8981857Y-17181381D01*
X8972333Y-17200429D01*
X8962810Y-17209952D01*
X8943762Y-17219476D01*
X8924714Y-17219476D01*
X8905667Y-17209952D01*
X8896143Y-17200429D01*
X8886619Y-17181381D01*
X8877095Y-17143286D01*
X8877095Y-17095667D01*
X8886619Y-17057571D01*
X8896143Y-17038524D01*
X8905667Y-17029000D01*
X8924714Y-17019476D01*
X9077095Y-17200429D02*
X9086619Y-17209952D01*
X9077095Y-17219476D01*
X9067571Y-17209952D01*
X9077095Y-17200429D01*
X9077095Y-17219476D01*
X9267571Y-17019476D02*
X9172333Y-17019476D01*
X9162810Y-17114714D01*
X9172333Y-17105190D01*
X9191381Y-17095667D01*
X9239000Y-17095667D01*
X9258048Y-17105190D01*
X9267571Y-17114714D01*
X9277095Y-17133762D01*
X9277095Y-17181381D01*
X9267571Y-17200429D01*
X9258048Y-17209952D01*
X9239000Y-17219476D01*
X9191381Y-17219476D01*
X9172333Y-17209952D01*
X9162810Y-17200429D01*
X9400905Y-17019476D02*
X9419952Y-17019476D01*
X9439000Y-17029000D01*
X9448524Y-17038524D01*
X9458048Y-17057571D01*
X9467571Y-17095667D01*
X9467571Y-17143286D01*
X9458048Y-17181381D01*
X9448524Y-17200429D01*
X9439000Y-17209952D01*
X9419952Y-17219476D01*
X9400905Y-17219476D01*
X9381857Y-17209952D01*
X9372333Y-17200429D01*
X9362810Y-17181381D01*
X9353286Y-17143286D01*
X9353286Y-17095667D01*
X9362810Y-17057571D01*
X9372333Y-17038524D01*
X9381857Y-17029000D01*
X9400905Y-17019476D01*
X9591381Y-17019476D02*
X9610429Y-17019476D01*
X9629476Y-17029000D01*
X9639000Y-17038524D01*
X9648524Y-17057571D01*
X9658048Y-17095667D01*
X9658048Y-17143286D01*
X9648524Y-17181381D01*
X9639000Y-17200429D01*
X9629476Y-17209952D01*
X9610429Y-17219476D01*
X9591381Y-17219476D01*
X9572333Y-17209952D01*
X9562810Y-17200429D01*
X9553286Y-17181381D01*
X9543762Y-17143286D01*
X9543762Y-17095667D01*
X9553286Y-17057571D01*
X9562810Y-17038524D01*
X9572333Y-17029000D01*
X9591381Y-17019476D01*
X9743762Y-17219476D02*
X9743762Y-17086143D01*
X9743762Y-17105190D02*
X9753286Y-17095667D01*
X9772333Y-17086143D01*
X9800905Y-17086143D01*
X9819952Y-17095667D01*
X9829476Y-17114714D01*
X9829476Y-17219476D01*
X9829476Y-17114714D02*
X9839000Y-17095667D01*
X9858048Y-17086143D01*
X9886619Y-17086143D01*
X9905667Y-17095667D01*
X9915190Y-17114714D01*
X9915190Y-17219476D01*
X10010429Y-17219476D02*
X10010429Y-17086143D01*
X10010429Y-17105190D02*
X10019952Y-17095667D01*
X10039000Y-17086143D01*
X10067571Y-17086143D01*
X10086619Y-17095667D01*
X10096143Y-17114714D01*
X10096143Y-17219476D01*
X10096143Y-17114714D02*
X10105667Y-17095667D01*
X10124714Y-17086143D01*
X10153286Y-17086143D01*
X10172333Y-17095667D01*
X10181857Y-17114714D01*
X10181857Y-17219476D01*
X10572333Y-17009952D02*
X10400905Y-17267095D01*
X10829476Y-17019476D02*
X10848524Y-17019476D01*
X10867571Y-17029000D01*
X10877095Y-17038524D01*
X10886619Y-17057571D01*
X10896143Y-17095667D01*
X10896143Y-17143286D01*
X10886619Y-17181381D01*
X10877095Y-17200429D01*
X10867571Y-17209952D01*
X10848524Y-17219476D01*
X10829476Y-17219476D01*
X10810429Y-17209952D01*
X10800905Y-17200429D01*
X10791381Y-17181381D01*
X10781857Y-17143286D01*
X10781857Y-17095667D01*
X10791381Y-17057571D01*
X10800905Y-17038524D01*
X10810429Y-17029000D01*
X10829476Y-17019476D01*
X10981857Y-17200429D02*
X10991381Y-17209952D01*
X10981857Y-17219476D01*
X10972333Y-17209952D01*
X10981857Y-17200429D01*
X10981857Y-17219476D01*
X11115190Y-17019476D02*
X11134238Y-17019476D01*
X11153286Y-17029000D01*
X11162810Y-17038524D01*
X11172333Y-17057571D01*
X11181857Y-17095667D01*
X11181857Y-17143286D01*
X11172333Y-17181381D01*
X11162810Y-17200429D01*
X11153286Y-17209952D01*
X11134238Y-17219476D01*
X11115190Y-17219476D01*
X11096143Y-17209952D01*
X11086619Y-17200429D01*
X11077095Y-17181381D01*
X11067571Y-17143286D01*
X11067571Y-17095667D01*
X11077095Y-17057571D01*
X11086619Y-17038524D01*
X11096143Y-17029000D01*
X11115190Y-17019476D01*
X11372333Y-17219476D02*
X11258048Y-17219476D01*
X11315190Y-17219476D02*
X11315190Y-17019476D01*
X11296143Y-17048048D01*
X11277095Y-17067095D01*
X11258048Y-17076619D01*
X11467571Y-17219476D02*
X11505667Y-17219476D01*
X11524714Y-17209952D01*
X11534238Y-17200429D01*
X11553286Y-17171857D01*
X11562809Y-17133762D01*
X11562809Y-17057571D01*
X11553286Y-17038524D01*
X11543762Y-17029000D01*
X11524714Y-17019476D01*
X11486619Y-17019476D01*
X11467571Y-17029000D01*
X11458048Y-17038524D01*
X11448524Y-17057571D01*
X11448524Y-17105190D01*
X11458048Y-17124238D01*
X11467571Y-17133762D01*
X11486619Y-17143286D01*
X11524714Y-17143286D01*
X11543762Y-17133762D01*
X11553286Y-17124238D01*
X11562809Y-17105190D01*
X11629476Y-17019476D02*
X11762809Y-17019476D01*
X11677095Y-17219476D01*
X11829476Y-17019476D02*
X11829476Y-17057571D01*
X11905667Y-17019476D02*
X11905667Y-17057571D01*
X12200905Y-17295667D02*
X12191381Y-17286143D01*
X12172333Y-17257571D01*
X12162809Y-17238524D01*
X12153286Y-17209952D01*
X12143762Y-17162333D01*
X12143762Y-17124238D01*
X12153286Y-17076619D01*
X12162809Y-17048048D01*
X12172333Y-17029000D01*
X12191381Y-17000429D01*
X12200905Y-16990905D01*
X12267571Y-17038524D02*
X12277095Y-17029000D01*
X12296143Y-17019476D01*
X12343762Y-17019476D01*
X12362809Y-17029000D01*
X12372333Y-17038524D01*
X12381857Y-17057571D01*
X12381857Y-17076619D01*
X12372333Y-17105190D01*
X12258048Y-17219476D01*
X12381857Y-17219476D01*
X12572333Y-17219476D02*
X12458048Y-17219476D01*
X12515190Y-17219476D02*
X12515190Y-17019476D01*
X12496143Y-17048048D01*
X12477095Y-17067095D01*
X12458048Y-17076619D01*
X12810428Y-17219476D02*
X12810428Y-17019476D01*
X12896143Y-17219476D02*
X12896143Y-17114714D01*
X12886619Y-17095667D01*
X12867571Y-17086143D01*
X12839000Y-17086143D01*
X12819952Y-17095667D01*
X12810428Y-17105190D01*
X13019952Y-17219476D02*
X13000905Y-17209952D01*
X12991381Y-17200429D01*
X12981857Y-17181381D01*
X12981857Y-17124238D01*
X12991381Y-17105190D01*
X13000905Y-17095667D01*
X13019952Y-17086143D01*
X13048524Y-17086143D01*
X13067571Y-17095667D01*
X13077095Y-17105190D01*
X13086619Y-17124238D01*
X13086619Y-17181381D01*
X13077095Y-17200429D01*
X13067571Y-17209952D01*
X13048524Y-17219476D01*
X13019952Y-17219476D01*
X13200905Y-17219476D02*
X13181857Y-17209952D01*
X13172333Y-17190905D01*
X13172333Y-17019476D01*
X13353286Y-17209952D02*
X13334238Y-17219476D01*
X13296143Y-17219476D01*
X13277095Y-17209952D01*
X13267571Y-17190905D01*
X13267571Y-17114714D01*
X13277095Y-17095667D01*
X13296143Y-17086143D01*
X13334238Y-17086143D01*
X13353286Y-17095667D01*
X13362809Y-17114714D01*
X13362809Y-17133762D01*
X13267571Y-17152810D01*
X13439000Y-17209952D02*
X13458048Y-17219476D01*
X13496143Y-17219476D01*
X13515190Y-17209952D01*
X13524714Y-17190905D01*
X13524714Y-17181381D01*
X13515190Y-17162333D01*
X13496143Y-17152810D01*
X13467571Y-17152810D01*
X13448524Y-17143286D01*
X13439000Y-17124238D01*
X13439000Y-17114714D01*
X13448524Y-17095667D01*
X13467571Y-17086143D01*
X13496143Y-17086143D01*
X13515190Y-17095667D01*
X13591381Y-17295667D02*
X13600905Y-17286143D01*
X13619952Y-17257571D01*
X13629476Y-17238524D01*
X13639000Y-17209952D01*
X13648524Y-17162333D01*
X13648524Y-17124238D01*
X13639000Y-17076619D01*
X13629476Y-17048048D01*
X13619952Y-17029000D01*
X13600905Y-17000429D01*
X13591381Y-16990905D01*
D14*
X8591500Y-17355500D02*
X8591500Y-17430500D01*
X8554000Y-17393000D02*
X8629000Y-17393000D01*
D11*
X8924714Y-17283476D02*
X8943762Y-17283476D01*
X8962810Y-17293000D01*
X8972333Y-17302524D01*
X8981857Y-17321571D01*
X8991381Y-17359667D01*
X8991381Y-17407286D01*
X8981857Y-17445381D01*
X8972333Y-17464429D01*
X8962810Y-17473952D01*
X8943762Y-17483476D01*
X8924714Y-17483476D01*
X8905667Y-17473952D01*
X8896143Y-17464429D01*
X8886619Y-17445381D01*
X8877095Y-17407286D01*
X8877095Y-17359667D01*
X8886619Y-17321571D01*
X8896143Y-17302524D01*
X8905667Y-17293000D01*
X8924714Y-17283476D01*
X9077095Y-17464429D02*
X9086619Y-17473952D01*
X9077095Y-17483476D01*
X9067571Y-17473952D01*
X9077095Y-17464429D01*
X9077095Y-17483476D01*
X9153286Y-17283476D02*
X9286619Y-17283476D01*
X9200905Y-17483476D01*
X9458048Y-17283476D02*
X9362810Y-17283476D01*
X9353286Y-17378714D01*
X9362810Y-17369190D01*
X9381857Y-17359667D01*
X9429476Y-17359667D01*
X9448524Y-17369190D01*
X9458048Y-17378714D01*
X9467571Y-17397762D01*
X9467571Y-17445381D01*
X9458048Y-17464429D01*
X9448524Y-17473952D01*
X9429476Y-17483476D01*
X9381857Y-17483476D01*
X9362810Y-17473952D01*
X9353286Y-17464429D01*
X9591381Y-17283476D02*
X9610429Y-17283476D01*
X9629476Y-17293000D01*
X9639000Y-17302524D01*
X9648524Y-17321571D01*
X9658048Y-17359667D01*
X9658048Y-17407286D01*
X9648524Y-17445381D01*
X9639000Y-17464429D01*
X9629476Y-17473952D01*
X9610429Y-17483476D01*
X9591381Y-17483476D01*
X9572333Y-17473952D01*
X9562810Y-17464429D01*
X9553286Y-17445381D01*
X9543762Y-17407286D01*
X9543762Y-17359667D01*
X9553286Y-17321571D01*
X9562810Y-17302524D01*
X9572333Y-17293000D01*
X9591381Y-17283476D01*
X9743762Y-17483476D02*
X9743762Y-17350143D01*
X9743762Y-17369190D02*
X9753286Y-17359667D01*
X9772333Y-17350143D01*
X9800905Y-17350143D01*
X9819952Y-17359667D01*
X9829476Y-17378714D01*
X9829476Y-17483476D01*
X9829476Y-17378714D02*
X9839000Y-17359667D01*
X9858048Y-17350143D01*
X9886619Y-17350143D01*
X9905667Y-17359667D01*
X9915190Y-17378714D01*
X9915190Y-17483476D01*
X10010429Y-17483476D02*
X10010429Y-17350143D01*
X10010429Y-17369190D02*
X10019952Y-17359667D01*
X10039000Y-17350143D01*
X10067571Y-17350143D01*
X10086619Y-17359667D01*
X10096143Y-17378714D01*
X10096143Y-17483476D01*
X10096143Y-17378714D02*
X10105667Y-17359667D01*
X10124714Y-17350143D01*
X10153286Y-17350143D01*
X10172333Y-17359667D01*
X10181857Y-17378714D01*
X10181857Y-17483476D01*
X10572333Y-17273952D02*
X10400905Y-17531095D01*
X10829476Y-17283476D02*
X10848524Y-17283476D01*
X10867571Y-17293000D01*
X10877095Y-17302524D01*
X10886619Y-17321571D01*
X10896143Y-17359667D01*
X10896143Y-17407286D01*
X10886619Y-17445381D01*
X10877095Y-17464429D01*
X10867571Y-17473952D01*
X10848524Y-17483476D01*
X10829476Y-17483476D01*
X10810429Y-17473952D01*
X10800905Y-17464429D01*
X10791381Y-17445381D01*
X10781857Y-17407286D01*
X10781857Y-17359667D01*
X10791381Y-17321571D01*
X10800905Y-17302524D01*
X10810429Y-17293000D01*
X10829476Y-17283476D01*
X10981857Y-17464429D02*
X10991381Y-17473952D01*
X10981857Y-17483476D01*
X10972333Y-17473952D01*
X10981857Y-17464429D01*
X10981857Y-17483476D01*
X11115190Y-17283476D02*
X11134238Y-17283476D01*
X11153286Y-17293000D01*
X11162810Y-17302524D01*
X11172333Y-17321571D01*
X11181857Y-17359667D01*
X11181857Y-17407286D01*
X11172333Y-17445381D01*
X11162810Y-17464429D01*
X11153286Y-17473952D01*
X11134238Y-17483476D01*
X11115190Y-17483476D01*
X11096143Y-17473952D01*
X11086619Y-17464429D01*
X11077095Y-17445381D01*
X11067571Y-17407286D01*
X11067571Y-17359667D01*
X11077095Y-17321571D01*
X11086619Y-17302524D01*
X11096143Y-17293000D01*
X11115190Y-17283476D01*
X11258048Y-17302524D02*
X11267571Y-17293000D01*
X11286619Y-17283476D01*
X11334238Y-17283476D01*
X11353286Y-17293000D01*
X11362809Y-17302524D01*
X11372333Y-17321571D01*
X11372333Y-17340619D01*
X11362809Y-17369190D01*
X11248524Y-17483476D01*
X11372333Y-17483476D01*
X11467571Y-17483476D02*
X11505667Y-17483476D01*
X11524714Y-17473952D01*
X11534238Y-17464429D01*
X11553286Y-17435857D01*
X11562809Y-17397762D01*
X11562809Y-17321571D01*
X11553286Y-17302524D01*
X11543762Y-17293000D01*
X11524714Y-17283476D01*
X11486619Y-17283476D01*
X11467571Y-17293000D01*
X11458048Y-17302524D01*
X11448524Y-17321571D01*
X11448524Y-17369190D01*
X11458048Y-17388238D01*
X11467571Y-17397762D01*
X11486619Y-17407286D01*
X11524714Y-17407286D01*
X11543762Y-17397762D01*
X11553286Y-17388238D01*
X11562809Y-17369190D01*
X11743762Y-17283476D02*
X11648524Y-17283476D01*
X11639000Y-17378714D01*
X11648524Y-17369190D01*
X11667571Y-17359667D01*
X11715190Y-17359667D01*
X11734238Y-17369190D01*
X11743762Y-17378714D01*
X11753286Y-17397762D01*
X11753286Y-17445381D01*
X11743762Y-17464429D01*
X11734238Y-17473952D01*
X11715190Y-17483476D01*
X11667571Y-17483476D01*
X11648524Y-17473952D01*
X11639000Y-17464429D01*
X11829476Y-17283476D02*
X11829476Y-17321571D01*
X11905667Y-17283476D02*
X11905667Y-17321571D01*
X12200905Y-17559667D02*
X12191381Y-17550143D01*
X12172333Y-17521571D01*
X12162809Y-17502524D01*
X12153286Y-17473952D01*
X12143762Y-17426333D01*
X12143762Y-17388238D01*
X12153286Y-17340619D01*
X12162809Y-17312048D01*
X12172333Y-17293000D01*
X12191381Y-17264429D01*
X12200905Y-17254905D01*
X12286619Y-17483476D02*
X12324714Y-17483476D01*
X12343762Y-17473952D01*
X12353286Y-17464429D01*
X12372333Y-17435857D01*
X12381857Y-17397762D01*
X12381857Y-17321571D01*
X12372333Y-17302524D01*
X12362809Y-17293000D01*
X12343762Y-17283476D01*
X12305667Y-17283476D01*
X12286619Y-17293000D01*
X12277095Y-17302524D01*
X12267571Y-17321571D01*
X12267571Y-17369190D01*
X12277095Y-17388238D01*
X12286619Y-17397762D01*
X12305667Y-17407286D01*
X12343762Y-17407286D01*
X12362809Y-17397762D01*
X12372333Y-17388238D01*
X12381857Y-17369190D01*
X12553286Y-17283476D02*
X12515190Y-17283476D01*
X12496143Y-17293000D01*
X12486619Y-17302524D01*
X12467571Y-17331095D01*
X12458048Y-17369190D01*
X12458048Y-17445381D01*
X12467571Y-17464429D01*
X12477095Y-17473952D01*
X12496143Y-17483476D01*
X12534238Y-17483476D01*
X12553286Y-17473952D01*
X12562809Y-17464429D01*
X12572333Y-17445381D01*
X12572333Y-17397762D01*
X12562809Y-17378714D01*
X12553286Y-17369190D01*
X12534238Y-17359667D01*
X12496143Y-17359667D01*
X12477095Y-17369190D01*
X12467571Y-17378714D01*
X12458048Y-17397762D01*
X12810428Y-17483476D02*
X12810428Y-17283476D01*
X12896143Y-17483476D02*
X12896143Y-17378714D01*
X12886619Y-17359667D01*
X12867571Y-17350143D01*
X12839000Y-17350143D01*
X12819952Y-17359667D01*
X12810428Y-17369190D01*
X13019952Y-17483476D02*
X13000905Y-17473952D01*
X12991381Y-17464429D01*
X12981857Y-17445381D01*
X12981857Y-17388238D01*
X12991381Y-17369190D01*
X13000905Y-17359667D01*
X13019952Y-17350143D01*
X13048524Y-17350143D01*
X13067571Y-17359667D01*
X13077095Y-17369190D01*
X13086619Y-17388238D01*
X13086619Y-17445381D01*
X13077095Y-17464429D01*
X13067571Y-17473952D01*
X13048524Y-17483476D01*
X13019952Y-17483476D01*
X13200905Y-17483476D02*
X13181857Y-17473952D01*
X13172333Y-17454905D01*
X13172333Y-17283476D01*
X13353286Y-17473952D02*
X13334238Y-17483476D01*
X13296143Y-17483476D01*
X13277095Y-17473952D01*
X13267571Y-17454905D01*
X13267571Y-17378714D01*
X13277095Y-17359667D01*
X13296143Y-17350143D01*
X13334238Y-17350143D01*
X13353286Y-17359667D01*
X13362809Y-17378714D01*
X13362809Y-17397762D01*
X13267571Y-17416810D01*
X13439000Y-17473952D02*
X13458048Y-17483476D01*
X13496143Y-17483476D01*
X13515190Y-17473952D01*
X13524714Y-17454905D01*
X13524714Y-17445381D01*
X13515190Y-17426333D01*
X13496143Y-17416810D01*
X13467571Y-17416810D01*
X13448524Y-17407286D01*
X13439000Y-17388238D01*
X13439000Y-17378714D01*
X13448524Y-17359667D01*
X13467571Y-17350143D01*
X13496143Y-17350143D01*
X13515190Y-17359667D01*
X13591381Y-17559667D02*
X13600905Y-17550143D01*
X13619952Y-17521571D01*
X13629476Y-17502524D01*
X13639000Y-17473952D01*
X13648524Y-17426333D01*
X13648524Y-17388238D01*
X13639000Y-17340619D01*
X13629476Y-17312048D01*
X13619952Y-17293000D01*
X13600905Y-17264429D01*
X13591381Y-17254905D01*
D15*
X8617285Y-17685285D02*
X8617285Y-17628716D01*
X8560716Y-17628716D01*
X8560716Y-17685285D01*
X8617285Y-17685285D01*
D11*
X8924714Y-17547476D02*
X8943762Y-17547476D01*
X8962810Y-17557000D01*
X8972333Y-17566524D01*
X8981857Y-17585571D01*
X8991381Y-17623667D01*
X8991381Y-17671286D01*
X8981857Y-17709381D01*
X8972333Y-17728429D01*
X8962810Y-17737952D01*
X8943762Y-17747476D01*
X8924714Y-17747476D01*
X8905667Y-17737952D01*
X8896143Y-17728429D01*
X8886619Y-17709381D01*
X8877095Y-17671286D01*
X8877095Y-17623667D01*
X8886619Y-17585571D01*
X8896143Y-17566524D01*
X8905667Y-17557000D01*
X8924714Y-17547476D01*
X9077095Y-17728429D02*
X9086619Y-17737952D01*
X9077095Y-17747476D01*
X9067571Y-17737952D01*
X9077095Y-17728429D01*
X9077095Y-17747476D01*
X9200905Y-17633190D02*
X9181857Y-17623667D01*
X9172333Y-17614143D01*
X9162810Y-17595095D01*
X9162810Y-17585571D01*
X9172333Y-17566524D01*
X9181857Y-17557000D01*
X9200905Y-17547476D01*
X9239000Y-17547476D01*
X9258048Y-17557000D01*
X9267571Y-17566524D01*
X9277095Y-17585571D01*
X9277095Y-17595095D01*
X9267571Y-17614143D01*
X9258048Y-17623667D01*
X9239000Y-17633190D01*
X9200905Y-17633190D01*
X9181857Y-17642714D01*
X9172333Y-17652238D01*
X9162810Y-17671286D01*
X9162810Y-17709381D01*
X9172333Y-17728429D01*
X9181857Y-17737952D01*
X9200905Y-17747476D01*
X9239000Y-17747476D01*
X9258048Y-17737952D01*
X9267571Y-17728429D01*
X9277095Y-17709381D01*
X9277095Y-17671286D01*
X9267571Y-17652238D01*
X9258048Y-17642714D01*
X9239000Y-17633190D01*
X9400905Y-17547476D02*
X9419952Y-17547476D01*
X9439000Y-17557000D01*
X9448524Y-17566524D01*
X9458048Y-17585571D01*
X9467571Y-17623667D01*
X9467571Y-17671286D01*
X9458048Y-17709381D01*
X9448524Y-17728429D01*
X9439000Y-17737952D01*
X9419952Y-17747476D01*
X9400905Y-17747476D01*
X9381857Y-17737952D01*
X9372333Y-17728429D01*
X9362810Y-17709381D01*
X9353286Y-17671286D01*
X9353286Y-17623667D01*
X9362810Y-17585571D01*
X9372333Y-17566524D01*
X9381857Y-17557000D01*
X9400905Y-17547476D01*
X9591381Y-17547476D02*
X9610429Y-17547476D01*
X9629476Y-17557000D01*
X9639000Y-17566524D01*
X9648524Y-17585571D01*
X9658048Y-17623667D01*
X9658048Y-17671286D01*
X9648524Y-17709381D01*
X9639000Y-17728429D01*
X9629476Y-17737952D01*
X9610429Y-17747476D01*
X9591381Y-17747476D01*
X9572333Y-17737952D01*
X9562810Y-17728429D01*
X9553286Y-17709381D01*
X9543762Y-17671286D01*
X9543762Y-17623667D01*
X9553286Y-17585571D01*
X9562810Y-17566524D01*
X9572333Y-17557000D01*
X9591381Y-17547476D01*
X9743762Y-17747476D02*
X9743762Y-17614143D01*
X9743762Y-17633190D02*
X9753286Y-17623667D01*
X9772333Y-17614143D01*
X9800905Y-17614143D01*
X9819952Y-17623667D01*
X9829476Y-17642714D01*
X9829476Y-17747476D01*
X9829476Y-17642714D02*
X9839000Y-17623667D01*
X9858048Y-17614143D01*
X9886619Y-17614143D01*
X9905667Y-17623667D01*
X9915190Y-17642714D01*
X9915190Y-17747476D01*
X10010429Y-17747476D02*
X10010429Y-17614143D01*
X10010429Y-17633190D02*
X10019952Y-17623667D01*
X10039000Y-17614143D01*
X10067571Y-17614143D01*
X10086619Y-17623667D01*
X10096143Y-17642714D01*
X10096143Y-17747476D01*
X10096143Y-17642714D02*
X10105667Y-17623667D01*
X10124714Y-17614143D01*
X10153286Y-17614143D01*
X10172333Y-17623667D01*
X10181857Y-17642714D01*
X10181857Y-17747476D01*
X10572333Y-17537952D02*
X10400905Y-17795095D01*
X10829476Y-17547476D02*
X10848524Y-17547476D01*
X10867571Y-17557000D01*
X10877095Y-17566524D01*
X10886619Y-17585571D01*
X10896143Y-17623667D01*
X10896143Y-17671286D01*
X10886619Y-17709381D01*
X10877095Y-17728429D01*
X10867571Y-17737952D01*
X10848524Y-17747476D01*
X10829476Y-17747476D01*
X10810429Y-17737952D01*
X10800905Y-17728429D01*
X10791381Y-17709381D01*
X10781857Y-17671286D01*
X10781857Y-17623667D01*
X10791381Y-17585571D01*
X10800905Y-17566524D01*
X10810429Y-17557000D01*
X10829476Y-17547476D01*
X10981857Y-17728429D02*
X10991381Y-17737952D01*
X10981857Y-17747476D01*
X10972333Y-17737952D01*
X10981857Y-17728429D01*
X10981857Y-17747476D01*
X11115190Y-17547476D02*
X11134238Y-17547476D01*
X11153286Y-17557000D01*
X11162810Y-17566524D01*
X11172333Y-17585571D01*
X11181857Y-17623667D01*
X11181857Y-17671286D01*
X11172333Y-17709381D01*
X11162810Y-17728429D01*
X11153286Y-17737952D01*
X11134238Y-17747476D01*
X11115190Y-17747476D01*
X11096143Y-17737952D01*
X11086619Y-17728429D01*
X11077095Y-17709381D01*
X11067571Y-17671286D01*
X11067571Y-17623667D01*
X11077095Y-17585571D01*
X11086619Y-17566524D01*
X11096143Y-17557000D01*
X11115190Y-17547476D01*
X11248524Y-17547476D02*
X11372333Y-17547476D01*
X11305667Y-17623667D01*
X11334238Y-17623667D01*
X11353286Y-17633190D01*
X11362809Y-17642714D01*
X11372333Y-17661762D01*
X11372333Y-17709381D01*
X11362809Y-17728429D01*
X11353286Y-17737952D01*
X11334238Y-17747476D01*
X11277095Y-17747476D01*
X11258048Y-17737952D01*
X11248524Y-17728429D01*
X11562809Y-17747476D02*
X11448524Y-17747476D01*
X11505667Y-17747476D02*
X11505667Y-17547476D01*
X11486619Y-17576048D01*
X11467571Y-17595095D01*
X11448524Y-17604619D01*
X11743762Y-17547476D02*
X11648524Y-17547476D01*
X11639000Y-17642714D01*
X11648524Y-17633190D01*
X11667571Y-17623667D01*
X11715190Y-17623667D01*
X11734238Y-17633190D01*
X11743762Y-17642714D01*
X11753286Y-17661762D01*
X11753286Y-17709381D01*
X11743762Y-17728429D01*
X11734238Y-17737952D01*
X11715190Y-17747476D01*
X11667571Y-17747476D01*
X11648524Y-17737952D01*
X11639000Y-17728429D01*
X11829476Y-17547476D02*
X11829476Y-17585571D01*
X11905667Y-17547476D02*
X11905667Y-17585571D01*
X12200905Y-17823667D02*
X12191381Y-17814143D01*
X12172333Y-17785571D01*
X12162809Y-17766524D01*
X12153286Y-17737952D01*
X12143762Y-17690333D01*
X12143762Y-17652238D01*
X12153286Y-17604619D01*
X12162809Y-17576048D01*
X12172333Y-17557000D01*
X12191381Y-17528429D01*
X12200905Y-17518905D01*
X12267571Y-17566524D02*
X12277095Y-17557000D01*
X12296143Y-17547476D01*
X12343762Y-17547476D01*
X12362809Y-17557000D01*
X12372333Y-17566524D01*
X12381857Y-17585571D01*
X12381857Y-17604619D01*
X12372333Y-17633190D01*
X12258048Y-17747476D01*
X12381857Y-17747476D01*
X12477095Y-17747476D02*
X12515190Y-17747476D01*
X12534238Y-17737952D01*
X12543762Y-17728429D01*
X12562809Y-17699857D01*
X12572333Y-17661762D01*
X12572333Y-17585571D01*
X12562809Y-17566524D01*
X12553286Y-17557000D01*
X12534238Y-17547476D01*
X12496143Y-17547476D01*
X12477095Y-17557000D01*
X12467571Y-17566524D01*
X12458048Y-17585571D01*
X12458048Y-17633190D01*
X12467571Y-17652238D01*
X12477095Y-17661762D01*
X12496143Y-17671286D01*
X12534238Y-17671286D01*
X12553286Y-17661762D01*
X12562809Y-17652238D01*
X12572333Y-17633190D01*
X12696143Y-17547476D02*
X12715190Y-17547476D01*
X12734238Y-17557000D01*
X12743762Y-17566524D01*
X12753286Y-17585571D01*
X12762809Y-17623667D01*
X12762809Y-17671286D01*
X12753286Y-17709381D01*
X12743762Y-17728429D01*
X12734238Y-17737952D01*
X12715190Y-17747476D01*
X12696143Y-17747476D01*
X12677095Y-17737952D01*
X12667571Y-17728429D01*
X12658048Y-17709381D01*
X12648524Y-17671286D01*
X12648524Y-17623667D01*
X12658048Y-17585571D01*
X12667571Y-17566524D01*
X12677095Y-17557000D01*
X12696143Y-17547476D01*
X13000905Y-17747476D02*
X13000905Y-17547476D01*
X13086619Y-17747476D02*
X13086619Y-17642714D01*
X13077095Y-17623667D01*
X13058048Y-17614143D01*
X13029476Y-17614143D01*
X13010428Y-17623667D01*
X13000905Y-17633190D01*
X13210428Y-17747476D02*
X13191381Y-17737952D01*
X13181857Y-17728429D01*
X13172333Y-17709381D01*
X13172333Y-17652238D01*
X13181857Y-17633190D01*
X13191381Y-17623667D01*
X13210428Y-17614143D01*
X13239000Y-17614143D01*
X13258048Y-17623667D01*
X13267571Y-17633190D01*
X13277095Y-17652238D01*
X13277095Y-17709381D01*
X13267571Y-17728429D01*
X13258048Y-17737952D01*
X13239000Y-17747476D01*
X13210428Y-17747476D01*
X13391381Y-17747476D02*
X13372333Y-17737952D01*
X13362809Y-17718905D01*
X13362809Y-17547476D01*
X13543762Y-17737952D02*
X13524714Y-17747476D01*
X13486619Y-17747476D01*
X13467571Y-17737952D01*
X13458048Y-17718905D01*
X13458048Y-17642714D01*
X13467571Y-17623667D01*
X13486619Y-17614143D01*
X13524714Y-17614143D01*
X13543762Y-17623667D01*
X13553286Y-17642714D01*
X13553286Y-17661762D01*
X13458048Y-17680810D01*
X13629476Y-17737952D02*
X13648524Y-17747476D01*
X13686619Y-17747476D01*
X13705667Y-17737952D01*
X13715190Y-17718905D01*
X13715190Y-17709381D01*
X13705667Y-17690333D01*
X13686619Y-17680810D01*
X13658048Y-17680810D01*
X13639000Y-17671286D01*
X13629476Y-17652238D01*
X13629476Y-17642714D01*
X13639000Y-17623667D01*
X13658048Y-17614143D01*
X13686619Y-17614143D01*
X13705667Y-17623667D01*
X13781857Y-17823667D02*
X13791381Y-17814143D01*
X13810428Y-17785571D01*
X13819952Y-17766524D01*
X13829476Y-17737952D01*
X13839000Y-17690333D01*
X13839000Y-17652238D01*
X13829476Y-17604619D01*
X13819952Y-17576048D01*
X13810428Y-17557000D01*
X13791381Y-17528429D01*
X13781857Y-17518905D01*
D16*
X8584000Y-17966000D02*
X8629000Y-17921000D01*
X8584000Y-17876000D01*
X8539000Y-17921000D01*
X8584000Y-17966000D01*
D11*
X8924714Y-17811476D02*
X8943762Y-17811476D01*
X8962810Y-17821000D01*
X8972333Y-17830524D01*
X8981857Y-17849571D01*
X8991381Y-17887667D01*
X8991381Y-17935286D01*
X8981857Y-17973381D01*
X8972333Y-17992429D01*
X8962810Y-18001952D01*
X8943762Y-18011476D01*
X8924714Y-18011476D01*
X8905667Y-18001952D01*
X8896143Y-17992429D01*
X8886619Y-17973381D01*
X8877095Y-17935286D01*
X8877095Y-17887667D01*
X8886619Y-17849571D01*
X8896143Y-17830524D01*
X8905667Y-17821000D01*
X8924714Y-17811476D01*
X9077095Y-17992429D02*
X9086619Y-18001952D01*
X9077095Y-18011476D01*
X9067571Y-18001952D01*
X9077095Y-17992429D01*
X9077095Y-18011476D01*
X9181857Y-18011476D02*
X9219952Y-18011476D01*
X9239000Y-18001952D01*
X9248524Y-17992429D01*
X9267571Y-17963857D01*
X9277095Y-17925762D01*
X9277095Y-17849571D01*
X9267571Y-17830524D01*
X9258048Y-17821000D01*
X9239000Y-17811476D01*
X9200905Y-17811476D01*
X9181857Y-17821000D01*
X9172333Y-17830524D01*
X9162810Y-17849571D01*
X9162810Y-17897190D01*
X9172333Y-17916238D01*
X9181857Y-17925762D01*
X9200905Y-17935286D01*
X9239000Y-17935286D01*
X9258048Y-17925762D01*
X9267571Y-17916238D01*
X9277095Y-17897190D01*
X9400905Y-17811476D02*
X9419952Y-17811476D01*
X9439000Y-17821000D01*
X9448524Y-17830524D01*
X9458048Y-17849571D01*
X9467571Y-17887667D01*
X9467571Y-17935286D01*
X9458048Y-17973381D01*
X9448524Y-17992429D01*
X9439000Y-18001952D01*
X9419952Y-18011476D01*
X9400905Y-18011476D01*
X9381857Y-18001952D01*
X9372333Y-17992429D01*
X9362810Y-17973381D01*
X9353286Y-17935286D01*
X9353286Y-17887667D01*
X9362810Y-17849571D01*
X9372333Y-17830524D01*
X9381857Y-17821000D01*
X9400905Y-17811476D01*
X9591381Y-17811476D02*
X9610429Y-17811476D01*
X9629476Y-17821000D01*
X9639000Y-17830524D01*
X9648524Y-17849571D01*
X9658048Y-17887667D01*
X9658048Y-17935286D01*
X9648524Y-17973381D01*
X9639000Y-17992429D01*
X9629476Y-18001952D01*
X9610429Y-18011476D01*
X9591381Y-18011476D01*
X9572333Y-18001952D01*
X9562810Y-17992429D01*
X9553286Y-17973381D01*
X9543762Y-17935286D01*
X9543762Y-17887667D01*
X9553286Y-17849571D01*
X9562810Y-17830524D01*
X9572333Y-17821000D01*
X9591381Y-17811476D01*
X9743762Y-18011476D02*
X9743762Y-17878143D01*
X9743762Y-17897190D02*
X9753286Y-17887667D01*
X9772333Y-17878143D01*
X9800905Y-17878143D01*
X9819952Y-17887667D01*
X9829476Y-17906714D01*
X9829476Y-18011476D01*
X9829476Y-17906714D02*
X9839000Y-17887667D01*
X9858048Y-17878143D01*
X9886619Y-17878143D01*
X9905667Y-17887667D01*
X9915190Y-17906714D01*
X9915190Y-18011476D01*
X10010429Y-18011476D02*
X10010429Y-17878143D01*
X10010429Y-17897190D02*
X10019952Y-17887667D01*
X10039000Y-17878143D01*
X10067571Y-17878143D01*
X10086619Y-17887667D01*
X10096143Y-17906714D01*
X10096143Y-18011476D01*
X10096143Y-17906714D02*
X10105667Y-17887667D01*
X10124714Y-17878143D01*
X10153286Y-17878143D01*
X10172333Y-17887667D01*
X10181857Y-17906714D01*
X10181857Y-18011476D01*
X10572333Y-17801952D02*
X10400905Y-18059095D01*
X10829476Y-17811476D02*
X10848524Y-17811476D01*
X10867571Y-17821000D01*
X10877095Y-17830524D01*
X10886619Y-17849571D01*
X10896143Y-17887667D01*
X10896143Y-17935286D01*
X10886619Y-17973381D01*
X10877095Y-17992429D01*
X10867571Y-18001952D01*
X10848524Y-18011476D01*
X10829476Y-18011476D01*
X10810429Y-18001952D01*
X10800905Y-17992429D01*
X10791381Y-17973381D01*
X10781857Y-17935286D01*
X10781857Y-17887667D01*
X10791381Y-17849571D01*
X10800905Y-17830524D01*
X10810429Y-17821000D01*
X10829476Y-17811476D01*
X10981857Y-17992429D02*
X10991381Y-18001952D01*
X10981857Y-18011476D01*
X10972333Y-18001952D01*
X10981857Y-17992429D01*
X10981857Y-18011476D01*
X11115190Y-17811476D02*
X11134238Y-17811476D01*
X11153286Y-17821000D01*
X11162810Y-17830524D01*
X11172333Y-17849571D01*
X11181857Y-17887667D01*
X11181857Y-17935286D01*
X11172333Y-17973381D01*
X11162810Y-17992429D01*
X11153286Y-18001952D01*
X11134238Y-18011476D01*
X11115190Y-18011476D01*
X11096143Y-18001952D01*
X11086619Y-17992429D01*
X11077095Y-17973381D01*
X11067571Y-17935286D01*
X11067571Y-17887667D01*
X11077095Y-17849571D01*
X11086619Y-17830524D01*
X11096143Y-17821000D01*
X11115190Y-17811476D01*
X11248524Y-17811476D02*
X11372333Y-17811476D01*
X11305667Y-17887667D01*
X11334238Y-17887667D01*
X11353286Y-17897190D01*
X11362809Y-17906714D01*
X11372333Y-17925762D01*
X11372333Y-17973381D01*
X11362809Y-17992429D01*
X11353286Y-18001952D01*
X11334238Y-18011476D01*
X11277095Y-18011476D01*
X11258048Y-18001952D01*
X11248524Y-17992429D01*
X11553286Y-17811476D02*
X11458048Y-17811476D01*
X11448524Y-17906714D01*
X11458048Y-17897190D01*
X11477095Y-17887667D01*
X11524714Y-17887667D01*
X11543762Y-17897190D01*
X11553286Y-17906714D01*
X11562809Y-17925762D01*
X11562809Y-17973381D01*
X11553286Y-17992429D01*
X11543762Y-18001952D01*
X11524714Y-18011476D01*
X11477095Y-18011476D01*
X11458048Y-18001952D01*
X11448524Y-17992429D01*
X11734238Y-17878143D02*
X11734238Y-18011476D01*
X11686619Y-17801952D02*
X11639000Y-17944810D01*
X11762809Y-17944810D01*
X11829476Y-17811476D02*
X11829476Y-17849571D01*
X11905667Y-17811476D02*
X11905667Y-17849571D01*
X12200905Y-18087667D02*
X12191381Y-18078143D01*
X12172333Y-18049571D01*
X12162809Y-18030524D01*
X12153286Y-18001952D01*
X12143762Y-17954333D01*
X12143762Y-17916238D01*
X12153286Y-17868619D01*
X12162809Y-17840048D01*
X12172333Y-17821000D01*
X12191381Y-17792429D01*
X12200905Y-17782905D01*
X12267571Y-17830524D02*
X12277095Y-17821000D01*
X12296143Y-17811476D01*
X12343762Y-17811476D01*
X12362809Y-17821000D01*
X12372333Y-17830524D01*
X12381857Y-17849571D01*
X12381857Y-17868619D01*
X12372333Y-17897190D01*
X12258048Y-18011476D01*
X12381857Y-18011476D01*
X12619952Y-18011476D02*
X12619952Y-17811476D01*
X12705667Y-18011476D02*
X12705667Y-17906714D01*
X12696143Y-17887667D01*
X12677095Y-17878143D01*
X12648524Y-17878143D01*
X12629476Y-17887667D01*
X12619952Y-17897190D01*
X12829476Y-18011476D02*
X12810428Y-18001952D01*
X12800905Y-17992429D01*
X12791381Y-17973381D01*
X12791381Y-17916238D01*
X12800905Y-17897190D01*
X12810428Y-17887667D01*
X12829476Y-17878143D01*
X12858048Y-17878143D01*
X12877095Y-17887667D01*
X12886619Y-17897190D01*
X12896143Y-17916238D01*
X12896143Y-17973381D01*
X12886619Y-17992429D01*
X12877095Y-18001952D01*
X12858048Y-18011476D01*
X12829476Y-18011476D01*
X13010428Y-18011476D02*
X12991381Y-18001952D01*
X12981857Y-17982905D01*
X12981857Y-17811476D01*
X13162809Y-18001952D02*
X13143762Y-18011476D01*
X13105667Y-18011476D01*
X13086619Y-18001952D01*
X13077095Y-17982905D01*
X13077095Y-17906714D01*
X13086619Y-17887667D01*
X13105667Y-17878143D01*
X13143762Y-17878143D01*
X13162809Y-17887667D01*
X13172333Y-17906714D01*
X13172333Y-17925762D01*
X13077095Y-17944810D01*
X13248524Y-18001952D02*
X13267571Y-18011476D01*
X13305667Y-18011476D01*
X13324714Y-18001952D01*
X13334238Y-17982905D01*
X13334238Y-17973381D01*
X13324714Y-17954333D01*
X13305667Y-17944810D01*
X13277095Y-17944810D01*
X13258048Y-17935286D01*
X13248524Y-17916238D01*
X13248524Y-17906714D01*
X13258048Y-17887667D01*
X13277095Y-17878143D01*
X13305667Y-17878143D01*
X13324714Y-17887667D01*
X13400905Y-18087667D02*
X13410428Y-18078143D01*
X13429476Y-18049571D01*
X13439000Y-18030524D01*
X13448524Y-18001952D01*
X13458048Y-17954333D01*
X13458048Y-17916238D01*
X13448524Y-17868619D01*
X13439000Y-17840048D01*
X13429476Y-17821000D01*
X13410428Y-17792429D01*
X13400905Y-17782905D01*
D17*
X8529000Y-18135000D02*
X8629000Y-18235000D01*
X8629000Y-18135000D02*
X8529000Y-18235000D01*
X8629000Y-18185000D02*
G75*
G03*
X8629000Y-18185000I-50000J0D01*
G01*
D11*
X8991381Y-18275476D02*
X8877095Y-18275476D01*
X8934238Y-18275476D02*
X8934238Y-18075476D01*
X8915190Y-18104048D01*
X8896143Y-18123095D01*
X8877095Y-18132619D01*
X9077095Y-18256429D02*
X9086619Y-18265952D01*
X9077095Y-18275476D01*
X9067571Y-18265952D01*
X9077095Y-18256429D01*
X9077095Y-18275476D01*
X9210429Y-18075476D02*
X9229476Y-18075476D01*
X9248524Y-18085000D01*
X9258048Y-18094524D01*
X9267571Y-18113571D01*
X9277095Y-18151667D01*
X9277095Y-18199286D01*
X9267571Y-18237381D01*
X9258048Y-18256429D01*
X9248524Y-18265952D01*
X9229476Y-18275476D01*
X9210429Y-18275476D01*
X9191381Y-18265952D01*
X9181857Y-18256429D01*
X9172333Y-18237381D01*
X9162810Y-18199286D01*
X9162810Y-18151667D01*
X9172333Y-18113571D01*
X9181857Y-18094524D01*
X9191381Y-18085000D01*
X9210429Y-18075476D01*
X9400905Y-18075476D02*
X9419952Y-18075476D01*
X9439000Y-18085000D01*
X9448524Y-18094524D01*
X9458048Y-18113571D01*
X9467571Y-18151667D01*
X9467571Y-18199286D01*
X9458048Y-18237381D01*
X9448524Y-18256429D01*
X9439000Y-18265952D01*
X9419952Y-18275476D01*
X9400905Y-18275476D01*
X9381857Y-18265952D01*
X9372333Y-18256429D01*
X9362810Y-18237381D01*
X9353286Y-18199286D01*
X9353286Y-18151667D01*
X9362810Y-18113571D01*
X9372333Y-18094524D01*
X9381857Y-18085000D01*
X9400905Y-18075476D01*
X9591381Y-18075476D02*
X9610429Y-18075476D01*
X9629476Y-18085000D01*
X9639000Y-18094524D01*
X9648524Y-18113571D01*
X9658048Y-18151667D01*
X9658048Y-18199286D01*
X9648524Y-18237381D01*
X9639000Y-18256429D01*
X9629476Y-18265952D01*
X9610429Y-18275476D01*
X9591381Y-18275476D01*
X9572333Y-18265952D01*
X9562810Y-18256429D01*
X9553286Y-18237381D01*
X9543762Y-18199286D01*
X9543762Y-18151667D01*
X9553286Y-18113571D01*
X9562810Y-18094524D01*
X9572333Y-18085000D01*
X9591381Y-18075476D01*
X9743762Y-18275476D02*
X9743762Y-18142143D01*
X9743762Y-18161190D02*
X9753286Y-18151667D01*
X9772333Y-18142143D01*
X9800905Y-18142143D01*
X9819952Y-18151667D01*
X9829476Y-18170714D01*
X9829476Y-18275476D01*
X9829476Y-18170714D02*
X9839000Y-18151667D01*
X9858048Y-18142143D01*
X9886619Y-18142143D01*
X9905667Y-18151667D01*
X9915190Y-18170714D01*
X9915190Y-18275476D01*
X10010429Y-18275476D02*
X10010429Y-18142143D01*
X10010429Y-18161190D02*
X10019952Y-18151667D01*
X10039000Y-18142143D01*
X10067571Y-18142143D01*
X10086619Y-18151667D01*
X10096143Y-18170714D01*
X10096143Y-18275476D01*
X10096143Y-18170714D02*
X10105667Y-18151667D01*
X10124714Y-18142143D01*
X10153286Y-18142143D01*
X10172333Y-18151667D01*
X10181857Y-18170714D01*
X10181857Y-18275476D01*
X10572333Y-18065952D02*
X10400905Y-18323095D01*
X10829476Y-18075476D02*
X10848524Y-18075476D01*
X10867571Y-18085000D01*
X10877095Y-18094524D01*
X10886619Y-18113571D01*
X10896143Y-18151667D01*
X10896143Y-18199286D01*
X10886619Y-18237381D01*
X10877095Y-18256429D01*
X10867571Y-18265952D01*
X10848524Y-18275476D01*
X10829476Y-18275476D01*
X10810429Y-18265952D01*
X10800905Y-18256429D01*
X10791381Y-18237381D01*
X10781857Y-18199286D01*
X10781857Y-18151667D01*
X10791381Y-18113571D01*
X10800905Y-18094524D01*
X10810429Y-18085000D01*
X10829476Y-18075476D01*
X10981857Y-18256429D02*
X10991381Y-18265952D01*
X10981857Y-18275476D01*
X10972333Y-18265952D01*
X10981857Y-18256429D01*
X10981857Y-18275476D01*
X11115190Y-18075476D02*
X11134238Y-18075476D01*
X11153286Y-18085000D01*
X11162810Y-18094524D01*
X11172333Y-18113571D01*
X11181857Y-18151667D01*
X11181857Y-18199286D01*
X11172333Y-18237381D01*
X11162810Y-18256429D01*
X11153286Y-18265952D01*
X11134238Y-18275476D01*
X11115190Y-18275476D01*
X11096143Y-18265952D01*
X11086619Y-18256429D01*
X11077095Y-18237381D01*
X11067571Y-18199286D01*
X11067571Y-18151667D01*
X11077095Y-18113571D01*
X11086619Y-18094524D01*
X11096143Y-18085000D01*
X11115190Y-18075476D01*
X11248524Y-18075476D02*
X11372333Y-18075476D01*
X11305667Y-18151667D01*
X11334238Y-18151667D01*
X11353286Y-18161190D01*
X11362809Y-18170714D01*
X11372333Y-18189762D01*
X11372333Y-18237381D01*
X11362809Y-18256429D01*
X11353286Y-18265952D01*
X11334238Y-18275476D01*
X11277095Y-18275476D01*
X11258048Y-18265952D01*
X11248524Y-18256429D01*
X11467571Y-18275476D02*
X11505667Y-18275476D01*
X11524714Y-18265952D01*
X11534238Y-18256429D01*
X11553286Y-18227857D01*
X11562809Y-18189762D01*
X11562809Y-18113571D01*
X11553286Y-18094524D01*
X11543762Y-18085000D01*
X11524714Y-18075476D01*
X11486619Y-18075476D01*
X11467571Y-18085000D01*
X11458048Y-18094524D01*
X11448524Y-18113571D01*
X11448524Y-18161190D01*
X11458048Y-18180238D01*
X11467571Y-18189762D01*
X11486619Y-18199286D01*
X11524714Y-18199286D01*
X11543762Y-18189762D01*
X11553286Y-18180238D01*
X11562809Y-18161190D01*
X11734238Y-18142143D02*
X11734238Y-18275476D01*
X11686619Y-18065952D02*
X11639000Y-18208810D01*
X11762809Y-18208810D01*
X11829476Y-18075476D02*
X11829476Y-18113571D01*
X11905667Y-18075476D02*
X11905667Y-18113571D01*
X12200905Y-18351667D02*
X12191381Y-18342143D01*
X12172333Y-18313571D01*
X12162809Y-18294524D01*
X12153286Y-18265952D01*
X12143762Y-18218333D01*
X12143762Y-18180238D01*
X12153286Y-18132619D01*
X12162809Y-18104048D01*
X12172333Y-18085000D01*
X12191381Y-18056429D01*
X12200905Y-18046905D01*
X12305667Y-18161190D02*
X12286619Y-18151667D01*
X12277095Y-18142143D01*
X12267571Y-18123095D01*
X12267571Y-18113571D01*
X12277095Y-18094524D01*
X12286619Y-18085000D01*
X12305667Y-18075476D01*
X12343762Y-18075476D01*
X12362809Y-18085000D01*
X12372333Y-18094524D01*
X12381857Y-18113571D01*
X12381857Y-18123095D01*
X12372333Y-18142143D01*
X12362809Y-18151667D01*
X12343762Y-18161190D01*
X12305667Y-18161190D01*
X12286619Y-18170714D01*
X12277095Y-18180238D01*
X12267571Y-18199286D01*
X12267571Y-18237381D01*
X12277095Y-18256429D01*
X12286619Y-18265952D01*
X12305667Y-18275476D01*
X12343762Y-18275476D01*
X12362809Y-18265952D01*
X12372333Y-18256429D01*
X12381857Y-18237381D01*
X12381857Y-18199286D01*
X12372333Y-18180238D01*
X12362809Y-18170714D01*
X12343762Y-18161190D01*
X12619952Y-18275476D02*
X12619952Y-18075476D01*
X12705667Y-18275476D02*
X12705667Y-18170714D01*
X12696143Y-18151667D01*
X12677095Y-18142143D01*
X12648524Y-18142143D01*
X12629476Y-18151667D01*
X12619952Y-18161190D01*
X12829476Y-18275476D02*
X12810428Y-18265952D01*
X12800905Y-18256429D01*
X12791381Y-18237381D01*
X12791381Y-18180238D01*
X12800905Y-18161190D01*
X12810428Y-18151667D01*
X12829476Y-18142143D01*
X12858048Y-18142143D01*
X12877095Y-18151667D01*
X12886619Y-18161190D01*
X12896143Y-18180238D01*
X12896143Y-18237381D01*
X12886619Y-18256429D01*
X12877095Y-18265952D01*
X12858048Y-18275476D01*
X12829476Y-18275476D01*
X13010428Y-18275476D02*
X12991381Y-18265952D01*
X12981857Y-18246905D01*
X12981857Y-18075476D01*
X13162809Y-18265952D02*
X13143762Y-18275476D01*
X13105667Y-18275476D01*
X13086619Y-18265952D01*
X13077095Y-18246905D01*
X13077095Y-18170714D01*
X13086619Y-18151667D01*
X13105667Y-18142143D01*
X13143762Y-18142143D01*
X13162809Y-18151667D01*
X13172333Y-18170714D01*
X13172333Y-18189762D01*
X13077095Y-18208810D01*
X13248524Y-18265952D02*
X13267571Y-18275476D01*
X13305667Y-18275476D01*
X13324714Y-18265952D01*
X13334238Y-18246905D01*
X13334238Y-18237381D01*
X13324714Y-18218333D01*
X13305667Y-18208810D01*
X13277095Y-18208810D01*
X13258048Y-18199286D01*
X13248524Y-18180238D01*
X13248524Y-18170714D01*
X13258048Y-18151667D01*
X13277095Y-18142143D01*
X13305667Y-18142143D01*
X13324714Y-18151667D01*
X13572333Y-18199286D02*
X13724714Y-18199286D01*
X13648524Y-18275476D02*
X13648524Y-18123095D01*
X13953286Y-18075476D02*
X14077095Y-18075476D01*
X14010428Y-18151667D01*
X14039000Y-18151667D01*
X14058048Y-18161190D01*
X14067571Y-18170714D01*
X14077095Y-18189762D01*
X14077095Y-18237381D01*
X14067571Y-18256429D01*
X14058048Y-18265952D01*
X14039000Y-18275476D01*
X13981857Y-18275476D01*
X13962809Y-18265952D01*
X13953286Y-18256429D01*
X14305667Y-18265952D02*
X14324714Y-18275476D01*
X14362809Y-18275476D01*
X14381857Y-18265952D01*
X14391381Y-18246905D01*
X14391381Y-18237381D01*
X14381857Y-18218333D01*
X14362809Y-18208810D01*
X14334238Y-18208810D01*
X14315190Y-18199286D01*
X14305667Y-18180238D01*
X14305667Y-18170714D01*
X14315190Y-18151667D01*
X14334238Y-18142143D01*
X14362809Y-18142143D01*
X14381857Y-18151667D01*
X14505667Y-18275476D02*
X14486619Y-18265952D01*
X14477095Y-18246905D01*
X14477095Y-18075476D01*
X14610428Y-18275476D02*
X14591381Y-18265952D01*
X14581857Y-18256429D01*
X14572333Y-18237381D01*
X14572333Y-18180238D01*
X14581857Y-18161190D01*
X14591381Y-18151667D01*
X14610428Y-18142143D01*
X14639000Y-18142143D01*
X14658048Y-18151667D01*
X14667571Y-18161190D01*
X14677095Y-18180238D01*
X14677095Y-18237381D01*
X14667571Y-18256429D01*
X14658048Y-18265952D01*
X14639000Y-18275476D01*
X14610428Y-18275476D01*
X14734238Y-18142143D02*
X14810428Y-18142143D01*
X14762809Y-18075476D02*
X14762809Y-18246905D01*
X14772333Y-18265952D01*
X14791381Y-18275476D01*
X14810428Y-18275476D01*
X14867571Y-18265952D02*
X14886619Y-18275476D01*
X14924714Y-18275476D01*
X14943762Y-18265952D01*
X14953286Y-18246905D01*
X14953286Y-18237381D01*
X14943762Y-18218333D01*
X14924714Y-18208810D01*
X14896143Y-18208810D01*
X14877095Y-18199286D01*
X14867571Y-18180238D01*
X14867571Y-18170714D01*
X14877095Y-18151667D01*
X14896143Y-18142143D01*
X14924714Y-18142143D01*
X14943762Y-18151667D01*
X15019952Y-18351667D02*
X15029476Y-18342143D01*
X15048524Y-18313571D01*
X15058048Y-18294524D01*
X15067571Y-18265952D01*
X15077095Y-18218333D01*
X15077095Y-18180238D01*
X15067571Y-18132619D01*
X15058048Y-18104048D01*
X15048524Y-18085000D01*
X15029476Y-18056429D01*
X15019952Y-18046905D01*
D18*
X8525000Y-18397000D02*
X8629000Y-18501000D01*
X8629000Y-18397000D02*
X8525000Y-18501000D01*
X8577000Y-18397000D02*
X8577000Y-18501000D01*
X8525000Y-18449000D02*
X8629000Y-18449000D01*
D11*
X8991381Y-18539476D02*
X8877095Y-18539476D01*
X8934238Y-18539476D02*
X8934238Y-18339476D01*
X8915190Y-18368048D01*
X8896143Y-18387095D01*
X8877095Y-18396619D01*
X9077095Y-18520429D02*
X9086619Y-18529952D01*
X9077095Y-18539476D01*
X9067571Y-18529952D01*
X9077095Y-18520429D01*
X9077095Y-18539476D01*
X9210429Y-18339476D02*
X9229476Y-18339476D01*
X9248524Y-18349000D01*
X9258048Y-18358524D01*
X9267571Y-18377571D01*
X9277095Y-18415667D01*
X9277095Y-18463286D01*
X9267571Y-18501381D01*
X9258048Y-18520429D01*
X9248524Y-18529952D01*
X9229476Y-18539476D01*
X9210429Y-18539476D01*
X9191381Y-18529952D01*
X9181857Y-18520429D01*
X9172333Y-18501381D01*
X9162810Y-18463286D01*
X9162810Y-18415667D01*
X9172333Y-18377571D01*
X9181857Y-18358524D01*
X9191381Y-18349000D01*
X9210429Y-18339476D01*
X9448524Y-18406143D02*
X9448524Y-18539476D01*
X9400905Y-18329952D02*
X9353286Y-18472810D01*
X9477095Y-18472810D01*
X9591381Y-18339476D02*
X9610429Y-18339476D01*
X9629476Y-18349000D01*
X9639000Y-18358524D01*
X9648524Y-18377571D01*
X9658048Y-18415667D01*
X9658048Y-18463286D01*
X9648524Y-18501381D01*
X9639000Y-18520429D01*
X9629476Y-18529952D01*
X9610429Y-18539476D01*
X9591381Y-18539476D01*
X9572333Y-18529952D01*
X9562810Y-18520429D01*
X9553286Y-18501381D01*
X9543762Y-18463286D01*
X9543762Y-18415667D01*
X9553286Y-18377571D01*
X9562810Y-18358524D01*
X9572333Y-18349000D01*
X9591381Y-18339476D01*
X9743762Y-18539476D02*
X9743762Y-18406143D01*
X9743762Y-18425190D02*
X9753286Y-18415667D01*
X9772333Y-18406143D01*
X9800905Y-18406143D01*
X9819952Y-18415667D01*
X9829476Y-18434714D01*
X9829476Y-18539476D01*
X9829476Y-18434714D02*
X9839000Y-18415667D01*
X9858048Y-18406143D01*
X9886619Y-18406143D01*
X9905667Y-18415667D01*
X9915190Y-18434714D01*
X9915190Y-18539476D01*
X10010429Y-18539476D02*
X10010429Y-18406143D01*
X10010429Y-18425190D02*
X10019952Y-18415667D01*
X10039000Y-18406143D01*
X10067571Y-18406143D01*
X10086619Y-18415667D01*
X10096143Y-18434714D01*
X10096143Y-18539476D01*
X10096143Y-18434714D02*
X10105667Y-18415667D01*
X10124714Y-18406143D01*
X10153286Y-18406143D01*
X10172333Y-18415667D01*
X10181857Y-18434714D01*
X10181857Y-18539476D01*
X10572333Y-18329952D02*
X10400905Y-18587095D01*
X10829476Y-18339476D02*
X10848524Y-18339476D01*
X10867571Y-18349000D01*
X10877095Y-18358524D01*
X10886619Y-18377571D01*
X10896143Y-18415667D01*
X10896143Y-18463286D01*
X10886619Y-18501381D01*
X10877095Y-18520429D01*
X10867571Y-18529952D01*
X10848524Y-18539476D01*
X10829476Y-18539476D01*
X10810429Y-18529952D01*
X10800905Y-18520429D01*
X10791381Y-18501381D01*
X10781857Y-18463286D01*
X10781857Y-18415667D01*
X10791381Y-18377571D01*
X10800905Y-18358524D01*
X10810429Y-18349000D01*
X10829476Y-18339476D01*
X10981857Y-18520429D02*
X10991381Y-18529952D01*
X10981857Y-18539476D01*
X10972333Y-18529952D01*
X10981857Y-18520429D01*
X10981857Y-18539476D01*
X11115190Y-18339476D02*
X11134238Y-18339476D01*
X11153286Y-18349000D01*
X11162810Y-18358524D01*
X11172333Y-18377571D01*
X11181857Y-18415667D01*
X11181857Y-18463286D01*
X11172333Y-18501381D01*
X11162810Y-18520429D01*
X11153286Y-18529952D01*
X11134238Y-18539476D01*
X11115190Y-18539476D01*
X11096143Y-18529952D01*
X11086619Y-18520429D01*
X11077095Y-18501381D01*
X11067571Y-18463286D01*
X11067571Y-18415667D01*
X11077095Y-18377571D01*
X11086619Y-18358524D01*
X11096143Y-18349000D01*
X11115190Y-18339476D01*
X11353286Y-18406143D02*
X11353286Y-18539476D01*
X11305667Y-18329952D02*
X11258048Y-18472810D01*
X11381857Y-18472810D01*
X11496143Y-18339476D02*
X11515190Y-18339476D01*
X11534238Y-18349000D01*
X11543762Y-18358524D01*
X11553286Y-18377571D01*
X11562809Y-18415667D01*
X11562809Y-18463286D01*
X11553286Y-18501381D01*
X11543762Y-18520429D01*
X11534238Y-18529952D01*
X11515190Y-18539476D01*
X11496143Y-18539476D01*
X11477095Y-18529952D01*
X11467571Y-18520429D01*
X11458048Y-18501381D01*
X11448524Y-18463286D01*
X11448524Y-18415667D01*
X11458048Y-18377571D01*
X11467571Y-18358524D01*
X11477095Y-18349000D01*
X11496143Y-18339476D01*
X11658048Y-18539476D02*
X11696143Y-18539476D01*
X11715190Y-18529952D01*
X11724714Y-18520429D01*
X11743762Y-18491857D01*
X11753286Y-18453762D01*
X11753286Y-18377571D01*
X11743762Y-18358524D01*
X11734238Y-18349000D01*
X11715190Y-18339476D01*
X11677095Y-18339476D01*
X11658048Y-18349000D01*
X11648524Y-18358524D01*
X11639000Y-18377571D01*
X11639000Y-18425190D01*
X11648524Y-18444238D01*
X11658048Y-18453762D01*
X11677095Y-18463286D01*
X11715190Y-18463286D01*
X11734238Y-18453762D01*
X11743762Y-18444238D01*
X11753286Y-18425190D01*
X11829476Y-18339476D02*
X11829476Y-18377571D01*
X11905667Y-18339476D02*
X11905667Y-18377571D01*
X12200905Y-18615667D02*
X12191381Y-18606143D01*
X12172333Y-18577571D01*
X12162809Y-18558524D01*
X12153286Y-18529952D01*
X12143762Y-18482333D01*
X12143762Y-18444238D01*
X12153286Y-18396619D01*
X12162809Y-18368048D01*
X12172333Y-18349000D01*
X12191381Y-18320429D01*
X12200905Y-18310905D01*
X12258048Y-18339476D02*
X12381857Y-18339476D01*
X12315190Y-18415667D01*
X12343762Y-18415667D01*
X12362809Y-18425190D01*
X12372333Y-18434714D01*
X12381857Y-18453762D01*
X12381857Y-18501381D01*
X12372333Y-18520429D01*
X12362809Y-18529952D01*
X12343762Y-18539476D01*
X12286619Y-18539476D01*
X12267571Y-18529952D01*
X12258048Y-18520429D01*
X12496143Y-18425190D02*
X12477095Y-18415667D01*
X12467571Y-18406143D01*
X12458048Y-18387095D01*
X12458048Y-18377571D01*
X12467571Y-18358524D01*
X12477095Y-18349000D01*
X12496143Y-18339476D01*
X12534238Y-18339476D01*
X12553286Y-18349000D01*
X12562809Y-18358524D01*
X12572333Y-18377571D01*
X12572333Y-18387095D01*
X12562809Y-18406143D01*
X12553286Y-18415667D01*
X12534238Y-18425190D01*
X12496143Y-18425190D01*
X12477095Y-18434714D01*
X12467571Y-18444238D01*
X12458048Y-18463286D01*
X12458048Y-18501381D01*
X12467571Y-18520429D01*
X12477095Y-18529952D01*
X12496143Y-18539476D01*
X12534238Y-18539476D01*
X12553286Y-18529952D01*
X12562809Y-18520429D01*
X12572333Y-18501381D01*
X12572333Y-18463286D01*
X12562809Y-18444238D01*
X12553286Y-18434714D01*
X12534238Y-18425190D01*
X12810428Y-18539476D02*
X12810428Y-18339476D01*
X12896143Y-18539476D02*
X12896143Y-18434714D01*
X12886619Y-18415667D01*
X12867571Y-18406143D01*
X12839000Y-18406143D01*
X12819952Y-18415667D01*
X12810428Y-18425190D01*
X13019952Y-18539476D02*
X13000905Y-18529952D01*
X12991381Y-18520429D01*
X12981857Y-18501381D01*
X12981857Y-18444238D01*
X12991381Y-18425190D01*
X13000905Y-18415667D01*
X13019952Y-18406143D01*
X13048524Y-18406143D01*
X13067571Y-18415667D01*
X13077095Y-18425190D01*
X13086619Y-18444238D01*
X13086619Y-18501381D01*
X13077095Y-18520429D01*
X13067571Y-18529952D01*
X13048524Y-18539476D01*
X13019952Y-18539476D01*
X13200905Y-18539476D02*
X13181857Y-18529952D01*
X13172333Y-18510905D01*
X13172333Y-18339476D01*
X13353286Y-18529952D02*
X13334238Y-18539476D01*
X13296143Y-18539476D01*
X13277095Y-18529952D01*
X13267571Y-18510905D01*
X13267571Y-18434714D01*
X13277095Y-18415667D01*
X13296143Y-18406143D01*
X13334238Y-18406143D01*
X13353286Y-18415667D01*
X13362809Y-18434714D01*
X13362809Y-18453762D01*
X13267571Y-18472810D01*
X13439000Y-18529952D02*
X13458048Y-18539476D01*
X13496143Y-18539476D01*
X13515190Y-18529952D01*
X13524714Y-18510905D01*
X13524714Y-18501381D01*
X13515190Y-18482333D01*
X13496143Y-18472810D01*
X13467571Y-18472810D01*
X13448524Y-18463286D01*
X13439000Y-18444238D01*
X13439000Y-18434714D01*
X13448524Y-18415667D01*
X13467571Y-18406143D01*
X13496143Y-18406143D01*
X13515190Y-18415667D01*
X13591381Y-18615667D02*
X13600905Y-18606143D01*
X13619952Y-18577571D01*
X13629476Y-18558524D01*
X13639000Y-18529952D01*
X13648524Y-18482333D01*
X13648524Y-18444238D01*
X13639000Y-18396619D01*
X13629476Y-18368048D01*
X13619952Y-18349000D01*
X13600905Y-18320429D01*
X13591381Y-18310905D01*
M02*
