G04 #@! TF.GenerationSoftware,KiCad,Pcbnew,(6.0.5)*
G04 #@! TF.CreationDate,2022-09-02T23:17:56+01:00*
G04 #@! TF.ProjectId,screen-driver,73637265-656e-42d6-9472-697665722e6b,rev?*
G04 #@! TF.SameCoordinates,Original*
G04 #@! TF.FileFunction,Paste,Top*
G04 #@! TF.FilePolarity,Positive*
%FSLAX46Y46*%
G04 Gerber Fmt 4.6, Leading zero omitted, Abs format (unit mm)*
G04 Created by KiCad (PCBNEW (6.0.5)) date 2022-09-02 23:17:56*
%MOMM*%
%LPD*%
G01*
G04 APERTURE LIST*
G04 Aperture macros list*
%AMRoundRect*
0 Rectangle with rounded corners*
0 $1 Rounding radius*
0 $2 $3 $4 $5 $6 $7 $8 $9 X,Y pos of 4 corners*
0 Add a 4 corners polygon primitive as box body*
4,1,4,$2,$3,$4,$5,$6,$7,$8,$9,$2,$3,0*
0 Add four circle primitives for the rounded corners*
1,1,$1+$1,$2,$3*
1,1,$1+$1,$4,$5*
1,1,$1+$1,$6,$7*
1,1,$1+$1,$8,$9*
0 Add four rect primitives between the rounded corners*
20,1,$1+$1,$2,$3,$4,$5,0*
20,1,$1+$1,$4,$5,$6,$7,0*
20,1,$1+$1,$6,$7,$8,$9,0*
20,1,$1+$1,$8,$9,$2,$3,0*%
G04 Aperture macros list end*
%ADD10RoundRect,0.100000X-0.100000X1.650000X-0.100000X-1.650000X0.100000X-1.650000X0.100000X1.650000X0*%
%ADD11RoundRect,0.100000X-1.650000X-0.100000X1.650000X-0.100000X1.650000X0.100000X-1.650000X0.100000X0*%
%ADD12RoundRect,0.100000X0.100000X-1.650000X0.100000X1.650000X-0.100000X1.650000X-0.100000X-1.650000X0*%
%ADD13RoundRect,0.100000X1.650000X0.100000X-1.650000X0.100000X-1.650000X-0.100000X1.650000X-0.100000X0*%
G04 APERTURE END LIST*
D10*
G04 #@! TO.C,U11*
X169500000Y-96700000D03*
X168500000Y-96700000D03*
X167500000Y-96700000D03*
X166500000Y-96700000D03*
X165500000Y-96700000D03*
X164500000Y-96700000D03*
D11*
X162500000Y-100200000D03*
X162500000Y-101200000D03*
X162500000Y-102200000D03*
X162500000Y-103200000D03*
X162500000Y-104200000D03*
X162500000Y-105200000D03*
X162500000Y-106200000D03*
X162500000Y-107200000D03*
X162500000Y-108200000D03*
D12*
X164500000Y-111700000D03*
X165500000Y-111700000D03*
X166500000Y-111700000D03*
X167500000Y-111700000D03*
X168500000Y-111700000D03*
X169500000Y-111700000D03*
X170500000Y-111700000D03*
X171500000Y-111700000D03*
X172500000Y-111700000D03*
X173500000Y-111700000D03*
X174500000Y-111700000D03*
X175500000Y-111700000D03*
D13*
X177500000Y-108200000D03*
X177500000Y-107200000D03*
X177500000Y-106200000D03*
X177500000Y-105200000D03*
X177500000Y-104200000D03*
X177500000Y-103200000D03*
X177500000Y-102200000D03*
X177500000Y-101200000D03*
X177500000Y-100200000D03*
D10*
X175500000Y-96700000D03*
X174500000Y-96700000D03*
X173500000Y-96700000D03*
X172500000Y-96700000D03*
X171500000Y-96700000D03*
X170500000Y-96700000D03*
G04 #@! TD*
D13*
G04 #@! TO.C,U8*
X143050000Y-129450000D03*
X143050000Y-128450000D03*
X143050000Y-127450000D03*
X143050000Y-126450000D03*
X143050000Y-125450000D03*
X143050000Y-124450000D03*
D10*
X139550000Y-122450000D03*
X138550000Y-122450000D03*
X137550000Y-122450000D03*
X136550000Y-122450000D03*
X135550000Y-122450000D03*
X134550000Y-122450000D03*
X133550000Y-122450000D03*
X132550000Y-122450000D03*
X131550000Y-122450000D03*
D11*
X128050000Y-124450000D03*
X128050000Y-125450000D03*
X128050000Y-126450000D03*
X128050000Y-127450000D03*
X128050000Y-128450000D03*
X128050000Y-129450000D03*
X128050000Y-130450000D03*
X128050000Y-131450000D03*
X128050000Y-132450000D03*
X128050000Y-133450000D03*
X128050000Y-134450000D03*
X128050000Y-135450000D03*
D12*
X131550000Y-137450000D03*
X132550000Y-137450000D03*
X133550000Y-137450000D03*
X134550000Y-137450000D03*
X135550000Y-137450000D03*
X136550000Y-137450000D03*
X137550000Y-137450000D03*
X138550000Y-137450000D03*
X139550000Y-137450000D03*
D13*
X143050000Y-135450000D03*
X143050000Y-134450000D03*
X143050000Y-133450000D03*
X143050000Y-132450000D03*
X143050000Y-131450000D03*
X143050000Y-130450000D03*
G04 #@! TD*
G04 #@! TO.C,U7*
X159250000Y-50650000D03*
X159250000Y-49650000D03*
X159250000Y-48650000D03*
X159250000Y-47650000D03*
X159250000Y-46650000D03*
X159250000Y-45650000D03*
D10*
X155750000Y-43650000D03*
X154750000Y-43650000D03*
X153750000Y-43650000D03*
X152750000Y-43650000D03*
X151750000Y-43650000D03*
X150750000Y-43650000D03*
X149750000Y-43650000D03*
X148750000Y-43650000D03*
X147750000Y-43650000D03*
D11*
X144250000Y-45650000D03*
X144250000Y-46650000D03*
X144250000Y-47650000D03*
X144250000Y-48650000D03*
X144250000Y-49650000D03*
X144250000Y-50650000D03*
X144250000Y-51650000D03*
X144250000Y-52650000D03*
X144250000Y-53650000D03*
X144250000Y-54650000D03*
X144250000Y-55650000D03*
X144250000Y-56650000D03*
D12*
X147750000Y-58650000D03*
X148750000Y-58650000D03*
X149750000Y-58650000D03*
X150750000Y-58650000D03*
X151750000Y-58650000D03*
X152750000Y-58650000D03*
X153750000Y-58650000D03*
X154750000Y-58650000D03*
X155750000Y-58650000D03*
D13*
X159250000Y-56650000D03*
X159250000Y-55650000D03*
X159250000Y-54650000D03*
X159250000Y-53650000D03*
X159250000Y-52650000D03*
X159250000Y-51650000D03*
G04 #@! TD*
M02*
