M48
; DRILL file {KiCad (6.0.5)} date Wed Jul 20 21:30:30 2022
; FORMAT={-:-/ absolute / metric / decimal}
; #@! TF.CreationDate,2022-07-20T21:30:30+01:00
; #@! TF.GenerationSoftware,Kicad,Pcbnew,(6.0.5)
; #@! TF.FileFunction,MixedPlating,1,2
FMAT,2
METRIC
; #@! TA.AperFunction,Plated,PTH,ViaDrill
T1C0.400
; #@! TA.AperFunction,Plated,PTH,ViaDrill
T2C0.500
; #@! TA.AperFunction,Plated,PTH,ComponentDrill
T3C0.750
; #@! TA.AperFunction,Plated,PTH,ComponentDrill
T4C0.800
; #@! TA.AperFunction,Plated,PTH,ComponentDrill
T5C1.000
; #@! TA.AperFunction,Plated,PTH,ComponentDrill
T6C1.040
; #@! TA.AperFunction,NonPlated,NPTH,ComponentDrill
T7C4.300
; #@! TA.AperFunction,NonPlated,NPTH,ComponentDrill
T8C6.000
%
G90
G05
T1
X94.3Y-149.3
X94.4Y-155.2
X96.9Y-40.0
X98.3Y-154.675
X103.9Y-49.7
X104.3Y-144.5
X105.7Y-50.9
X105.7Y-147.4
X106.7Y-52.5
X107.0Y-31.7
X108.4Y-154.3
X108.9Y-30.4
X110.4Y-97.2
X110.7Y-46.0
X110.7Y-54.0
X112.1Y-44.3
X112.1Y-55.4
X112.7Y-154.1
X112.8Y-148.1
X114.4Y-38.5
X114.6Y-57.7
X115.5Y-44.2
X115.9Y-30.5
X116.6Y-38.5
X116.7Y-148.0
X117.0Y-36.5
X118.6Y-31.7
X119.7Y-49.2
X120.8Y-30.8
X121.2Y-146.8
X122.8Y-148.0
X123.2Y-38.2
X123.3Y-61.5
X124.3Y-30.8
X125.1Y-47.2
X126.7Y-143.7
X128.1Y-43.4
X128.9Y-154.5
X132.2Y-145.9
X132.6Y-82.1
X132.7Y-99.4
X132.8Y-38.1
X132.9Y-91.3
X133.8Y-50.7
X135.1Y-68.1
X135.9Y-110.81
X136.5Y-48.7
X137.3Y-41.6
X137.3Y-46.0
X137.71Y-97.96
X137.77Y-102.42
X138.9Y-38.3
X138.9Y-65.5
X140.5Y-95.2
X140.5Y-98.3
X141.83Y-35.67
X142.3Y-49.7
X143.42Y-121.62
X143.7Y-48.7
X144.3Y-40.0
X145.1Y-43.4
X145.2Y-56.8
X145.3Y-55.1
X145.35Y-124.49
X145.69Y-94.97
X146.02Y-126.83
X146.1Y-100.0
X146.15Y-128.4
X146.5Y-44.6
X147.4Y-38.6
X147.48Y-125.7
X148.28Y-94.19
X148.73Y-132.75
X148.8Y-44.0
X148.89Y-50.7
X148.94Y-93.01
X149.98Y-130.03
X150.15Y-92.12
X150.4Y-42.7
X151.1Y-37.6
X151.6Y-152.1
X153.02Y-116.49
X153.12Y-137.95
X153.2Y-91.2
X153.3Y-32.9
X154.15Y-119.03
X154.2Y-36.5
X154.62Y-135.46
X155.1Y-30.0
X155.3Y-62.8
X156.9Y-31.0
X156.95Y-124.09
X156.965Y-129.31
X157.67Y-94.76
X157.78Y-137.48
X158.0Y-39.0
X158.2Y-46.0
X159.1Y-97.7
X159.23Y-120.25
X160.7Y-97.6
X160.72Y-135.68
X162.0Y-39.6
X162.43Y-96.06
X162.72Y-98.03
X162.76Y-102.42
X162.86Y-122.7
X163.6Y-86.3
X164.32Y-146.09
X164.4Y-31.0
X165.3Y-43.9
X165.4Y-79.2
X165.4Y-141.81
X166.1Y-50.6
X166.18Y-94.23
X167.4Y-38.8
X167.86Y-96.88
X168.8Y-47.5
X169.17Y-93.66
X169.47Y-138.99
X169.576Y-90.5
X169.8Y-38.9
X170.31Y-126.56
X171.23Y-134.37
X171.26Y-129.28
X172.2Y-58.7
X172.51Y-131.6
X172.57Y-92.37
X172.69Y-135.42
X172.8Y-95.1
X172.9Y-98.0
X172.92Y-124.13
X173.01Y-115.41
X174.0Y-96.9
X174.3Y-37.2
X174.3Y-46.1
X175.2Y-99.3
X175.54Y-126.14
X175.7Y-45.9
X176.17Y-114.09
X176.4Y-101.1
X176.7Y-56.6
X176.9Y-36.0
X176.9Y-105.0
X177.25Y-121.61
X177.69Y-115.09
X177.7Y-103.3
X178.2Y-106.9
X178.7Y-48.7
X179.0Y-70.7
X179.0Y-105.3
X180.2Y-107.5
X180.3Y-31.4
X180.8Y-44.1
X181.1Y-98.0
X182.7Y-66.8
X183.41Y-80.27
X183.5Y-111.1
X183.6Y-65.7
X183.6Y-109.2
X184.5Y-39.2
X185.0Y-79.3
X185.0Y-82.1
X186.2Y-48.6
X186.5Y-37.4
X186.52Y-128.99
X186.9Y-111.3
X187.0Y-113.5
X187.05Y-150.84
X188.1Y-65.5
X188.1Y-116.3
X188.2Y-77.9
X189.9Y-79.3
X189.9Y-113.4
X190.2Y-63.1
X190.2Y-115.4
X190.5Y-117.2
X191.4Y-119.3
X191.5Y-79.2
X192.0Y-37.7
X192.0Y-72.7
X192.2Y-30.4
X192.2Y-44.4
X192.2Y-121.2
X192.2Y-136.0
X192.5Y-138.2
X192.6Y-123.2
X193.1Y-125.1
X193.3Y-54.5
X193.7Y-127.0
X193.8Y-77.1
X194.3Y-129.0
X194.3Y-131.3
X194.8Y-133.4
X195.5Y-135.1
X195.7Y-137.2
X195.8Y-75.2
X195.8Y-139.3
X196.7Y-141.4
X198.4Y-32.8
X198.5Y-143.2
X199.1Y-73.2
X199.5Y-102.2
X200.2Y-69.4
X201.3Y-41.2
X201.4Y-54.4
X201.6Y-66.0
X201.6Y-112.3
X202.1Y-71.2
X202.2Y-106.3
X202.3Y-136.2
X202.6Y-138.3
X202.7Y-96.0
X202.8Y-39.2
X203.2Y-51.9
X203.6Y-69.3
X203.9Y-116.3
X204.0Y-90.3
X204.0Y-104.2
X204.4Y-33.1
X204.5Y-46.9
X204.9Y-67.2
X205.3Y-65.2
X205.7Y-63.0
X205.7Y-145.1
X206.0Y-61.2
X206.2Y-110.3
X206.7Y-59.2
X207.2Y-57.2
X207.3Y-84.5
X207.7Y-55.4
X207.85Y-53.35
X208.4Y-49.3
X208.5Y-51.4
X208.8Y-90.6
X209.3Y-84.6
X209.5Y-47.3
X209.5Y-102.3
X209.9Y-45.6
X209.9Y-90.1
X211.0Y-43.4
X211.5Y-84.7
X211.6Y-96.1
X213.4Y-81.4
X213.5Y-64.0
X213.5Y-85.2
X213.5Y-133.5
X213.6Y-89.1
X213.6Y-109.2
X213.7Y-105.3
X213.7Y-117.2
X213.7Y-129.0
X213.7Y-137.2
X213.7Y-141.4
X213.8Y-45.0
X213.8Y-49.3
X213.8Y-69.3
X213.8Y-97.0
X213.8Y-113.3
X213.8Y-121.2
X213.8Y-125.2
X213.84Y-101.24
X213.9Y-73.2
X214.0Y-53.4
X214.0Y-57.2
X214.0Y-61.0
X214.0Y-77.2
X214.2Y-65.1
X214.3Y-143.3
X214.8Y-43.3
X214.9Y-83.1
X214.9Y-87.2
X215.0Y-135.2
X215.0Y-139.2
X215.1Y-47.2
X215.1Y-71.2
X215.1Y-103.2
X215.1Y-119.3
X215.1Y-123.2
X215.1Y-131.3
X215.2Y-59.1
X215.2Y-63.0
X215.2Y-67.1
X215.2Y-75.2
X215.2Y-79.3
X215.2Y-111.3
X215.2Y-127.1
X215.24Y-99.24
X215.24Y-107.24
X215.3Y-51.4
X215.3Y-55.3
X215.3Y-115.5
X215.4Y-95.1
T2
X97.2Y-149.2
X114.5Y-52.5
X115.3Y-149.2
X121.6Y-52.7
X122.7Y-149.5
X129.7Y-126.0
X129.7Y-149.5
X139.5Y-126.0
X140.4Y-90.2
X142.6Y-78.0
X142.6Y-90.5
X156.5Y-54.3
X161.9Y-76.2
X167.3Y-76.1
X181.6Y-93.8
X181.7Y-76.2
X194.7Y-47.5
X194.7Y-51.9
X205.8Y-91.8
X209.9Y-91.6
T3
X97.2Y-151.3
X98.47Y-151.3
X99.74Y-151.3
X104.27Y-151.04
X105.54Y-151.04
X106.81Y-151.04
X110.23Y-34.26
X111.5Y-34.26
X112.77Y-34.26
X114.1Y-41.86
X114.53Y-49.26
X115.3Y-151.6
X115.37Y-41.86
X115.8Y-49.26
X116.03Y-34.26
X116.57Y-151.6
X116.64Y-41.86
X117.07Y-49.26
X117.3Y-34.26
X117.84Y-151.6
X118.57Y-34.26
X121.8Y-34.2
X121.93Y-41.96
X122.8Y-151.5
X123.07Y-34.2
X123.2Y-41.96
X124.07Y-151.5
X124.34Y-34.2
X124.47Y-41.96
X125.34Y-151.5
X129.7Y-151.6
X130.97Y-151.6
X131.53Y-34.06
X132.24Y-151.6
X132.8Y-34.06
X134.07Y-34.06
X141.83Y-34.0
X142.43Y-45.96
X142.6Y-65.5
X142.6Y-72.2
X142.7Y-52.7
X142.7Y-59.2
X143.1Y-34.0
X143.7Y-45.96
X143.87Y-65.5
X143.87Y-72.2
X143.97Y-52.7
X143.97Y-59.2
X144.37Y-34.0
X144.97Y-45.96
X145.14Y-65.5
X145.14Y-72.2
X145.24Y-52.7
X145.24Y-59.2
X148.53Y-34.1
X149.8Y-34.1
X151.07Y-34.1
X156.73Y-41.26
X158.0Y-41.26
X159.27Y-41.26
X160.1Y-34.3
X161.37Y-34.3
X162.64Y-34.3
X164.03Y-41.26
X165.3Y-41.26
X166.23Y-34.26
X166.57Y-41.26
X167.5Y-34.26
X168.77Y-34.26
X171.83Y-41.26
X172.43Y-34.26
X173.1Y-41.26
X173.7Y-34.26
X174.37Y-41.26
X174.43Y-51.56
X174.97Y-34.26
X175.7Y-51.56
X176.97Y-51.56
X179.13Y-34.26
X180.4Y-34.26
X181.67Y-34.26
X185.23Y-34.26
X186.3Y-67.1
X186.3Y-68.37
X186.3Y-69.64
X186.5Y-34.26
X187.77Y-34.26
X191.03Y-34.26
X192.3Y-34.26
X193.57Y-34.26
X197.13Y-34.36
X198.4Y-34.36
X199.67Y-34.36
X200.83Y-150.76
X202.1Y-150.76
X203.37Y-150.76
T4
X91.3Y-33.2
X91.3Y-35.2
X91.3Y-37.2
X91.3Y-39.2
X91.3Y-41.2
X91.3Y-43.2
X91.3Y-45.2
X91.3Y-47.2
X91.3Y-49.2
X91.3Y-51.2
X91.3Y-53.2
X91.3Y-55.2
X91.3Y-57.2
X91.3Y-59.2
X91.3Y-61.2
X91.3Y-63.2
X91.3Y-65.2
X91.3Y-67.2
X91.3Y-69.2
X91.3Y-71.2
X91.3Y-73.2
X91.3Y-75.2
X91.3Y-77.2
X91.3Y-79.2
X91.3Y-81.2
X91.3Y-83.2
X91.3Y-85.2
X91.3Y-87.2
X91.3Y-89.2
X91.3Y-91.2
X91.3Y-93.2
X91.3Y-95.2
X91.3Y-97.2
X91.3Y-99.2
X91.3Y-101.2
X91.3Y-103.2
X91.3Y-105.2
X91.3Y-107.2
X91.3Y-109.2
X91.3Y-111.2
X91.3Y-113.2
X91.3Y-115.2
X91.3Y-117.2
X91.3Y-119.2
X91.3Y-121.2
X91.3Y-123.2
X91.3Y-125.2
X91.3Y-127.2
X91.3Y-129.2
X91.3Y-131.2
X91.3Y-133.2
X91.3Y-135.2
X91.3Y-137.2
X91.3Y-139.2
X91.3Y-141.2
X91.3Y-143.2
X91.3Y-145.2
X91.3Y-147.2
X91.3Y-149.2
X91.3Y-151.2
X104.72Y-157.2
X104.9Y-28.1
X106.72Y-157.2
X106.9Y-28.1
X108.72Y-157.2
X108.9Y-28.1
X110.72Y-157.2
X110.9Y-28.1
X112.72Y-157.2
X112.9Y-28.1
X114.72Y-157.2
X114.9Y-28.1
X116.72Y-157.2
X116.9Y-28.1
X118.72Y-157.2
X118.9Y-28.1
X120.72Y-157.2
X120.9Y-28.1
X122.72Y-157.2
X122.9Y-28.1
X124.72Y-157.2
X124.9Y-28.1
X126.72Y-157.2
X126.9Y-28.1
X128.72Y-157.2
X128.9Y-28.1
X130.72Y-157.2
X130.9Y-28.1
X132.72Y-157.2
X132.9Y-28.1
X134.72Y-157.2
X134.9Y-28.1
X136.72Y-157.2
X136.9Y-28.1
X138.72Y-157.2
X138.9Y-28.1
X140.72Y-157.2
X140.9Y-28.1
X142.72Y-157.2
X142.9Y-28.1
X144.72Y-157.2
X144.9Y-28.1
X145.55Y-88.3
X146.72Y-157.2
X146.9Y-28.1
X148.05Y-88.3
X148.72Y-157.2
X148.9Y-28.1
X150.49Y-62.9
X150.49Y-66.3
X150.49Y-69.7
X150.59Y-48.725
X150.59Y-59.4
X150.69Y-52.5
X150.69Y-56.0
X150.72Y-157.2
X150.78Y-88.4
X150.9Y-28.1
X152.72Y-157.2
X152.9Y-28.1
X154.72Y-157.2
X154.9Y-28.1
X156.72Y-157.2
X156.9Y-28.1
X158.11Y-62.9
X158.11Y-66.3
X158.11Y-69.7
X158.21Y-48.725
X158.21Y-59.4
X158.31Y-52.5
X158.31Y-56.0
X158.4Y-88.4
X158.72Y-157.2
X158.9Y-28.1
X160.72Y-157.2
X160.9Y-28.1
X161.9Y-50.4
X161.9Y-52.94
X161.9Y-55.48
X161.9Y-58.02
X161.9Y-60.56
X161.9Y-63.1
X161.9Y-65.64
X161.9Y-68.18
X162.72Y-157.2
X162.9Y-28.1
X164.72Y-157.2
X164.8Y-72.6
X164.9Y-28.1
X166.72Y-157.2
X166.9Y-28.1
X167.3Y-72.6
X168.72Y-157.2
X168.9Y-28.1
X169.52Y-50.4
X169.52Y-52.94
X169.52Y-55.48
X169.52Y-58.02
X169.52Y-60.56
X169.52Y-63.1
X169.52Y-65.64
X169.52Y-68.18
X170.72Y-157.2
X170.9Y-28.1
X172.72Y-157.2
X172.9Y-28.1
X173.19Y-61.5
X173.2Y-64.8
X173.2Y-68.1
X174.72Y-157.2
X174.9Y-28.1
X176.72Y-157.2
X176.9Y-28.1
X178.72Y-157.2
X178.79Y-41.4
X178.79Y-45.8
X178.9Y-28.1
X180.72Y-157.2
X180.81Y-61.5
X180.82Y-64.8
X180.82Y-68.1
X180.9Y-28.1
X182.72Y-157.2
X182.9Y-28.1
X184.7Y-157.2
X184.92Y-28.1
X186.41Y-41.4
X186.41Y-45.8
X186.7Y-157.2
X186.92Y-28.1
X188.7Y-157.2
X188.92Y-28.1
X189.28Y-41.695
X189.28Y-44.235
X189.28Y-46.775
X189.28Y-49.315
X189.28Y-51.855
X189.28Y-54.395
X189.28Y-56.935
X189.28Y-59.475
X190.7Y-157.2
X190.92Y-28.1
X192.7Y-157.2
X192.92Y-28.1
X193.9Y-63.3
X194.7Y-157.2
X194.92Y-28.1
X196.4Y-63.3
X196.7Y-157.2
X196.9Y-41.695
X196.9Y-44.235
X196.9Y-46.775
X196.9Y-49.315
X196.9Y-51.855
X196.9Y-54.395
X196.9Y-56.935
X196.9Y-59.475
X196.92Y-28.1
X198.7Y-157.2
X198.92Y-28.1
X200.7Y-157.2
X200.92Y-28.1
X202.7Y-157.2
X202.92Y-28.1
X204.7Y-157.2
X204.92Y-28.1
X206.7Y-157.2
X206.92Y-28.1
X212.35Y-91.9
X214.85Y-91.9
X220.3Y-33.2
X220.3Y-35.2
X220.3Y-37.2
X220.3Y-39.2
X220.3Y-41.2
X220.3Y-43.2
X220.3Y-45.2
X220.3Y-47.2
X220.3Y-49.2
X220.3Y-51.2
X220.3Y-53.2
X220.3Y-55.2
X220.3Y-57.2
X220.3Y-59.2
X220.3Y-61.2
X220.3Y-63.2
X220.3Y-65.2
X220.3Y-67.2
X220.3Y-69.2
X220.3Y-71.2
X220.3Y-73.2
X220.3Y-75.2
X220.3Y-77.2
X220.3Y-79.2
X220.3Y-81.2
X220.3Y-83.2
X220.3Y-85.2
X220.3Y-87.2
X220.3Y-89.2
X220.3Y-91.2
X220.3Y-93.2
X220.3Y-95.2
X220.3Y-97.2
X220.3Y-99.2
X220.3Y-101.2
X220.3Y-103.2
X220.3Y-105.2
X220.3Y-107.2
X220.3Y-109.2
X220.3Y-111.2
X220.3Y-113.24
X220.3Y-115.24
X220.3Y-117.24
X220.3Y-119.24
X220.3Y-121.24
X220.3Y-123.24
X220.3Y-125.24
X220.3Y-127.24
X220.3Y-129.24
X220.3Y-131.24
X220.3Y-133.24
X220.3Y-135.24
X220.3Y-137.24
X220.3Y-139.24
X220.3Y-141.24
X220.3Y-143.24
X220.3Y-145.24
X220.3Y-147.24
X220.3Y-149.24
X220.3Y-151.24
T5
X134.83Y-113.85
X134.83Y-116.39
X134.83Y-118.93
X134.83Y-121.47
X148.04Y-83.3
X150.58Y-83.3
X153.12Y-83.3
X155.66Y-83.3
X158.2Y-83.3
X177.62Y-131.6
X180.16Y-131.6
X182.7Y-131.6
T6
X141.5Y-107.47
X141.5Y-110.01
X141.5Y-112.55
X141.5Y-115.09
X141.5Y-117.63
X141.5Y-120.17
X141.5Y-122.71
X141.5Y-125.25
X141.5Y-127.79
X141.5Y-130.33
X141.5Y-132.87
X141.5Y-135.41
X141.5Y-137.95
X141.5Y-140.49
X141.5Y-143.03
X141.5Y-145.57
X141.5Y-148.11
X141.5Y-150.65
X141.5Y-153.19
X166.9Y-107.47
X166.9Y-110.01
X166.9Y-112.55
X166.9Y-115.09
X166.9Y-117.63
X166.9Y-120.17
X166.9Y-122.71
X166.9Y-125.25
X166.9Y-127.79
X166.9Y-130.33
X166.9Y-132.87
X166.9Y-135.41
X166.9Y-137.95
X166.9Y-140.49
X166.9Y-143.03
X166.9Y-145.57
X166.9Y-148.11
X166.9Y-150.65
X166.9Y-153.19
T7
X90.35Y-158.21
X90.36Y-27.21
X221.3Y-27.21
X221.34Y-158.23
T8
X104.23Y-41.37
T5
X176.157Y-143.3G85X176.157Y-141.3
G05
X179.857Y-139.3G85X181.857Y-139.3
G05
X179.857Y-145.3G85X181.857Y-145.3
G05
T0
M30
