G04 #@! TF.GenerationSoftware,KiCad,Pcbnew,(6.0.5)*
G04 #@! TF.CreationDate,2022-09-02T23:17:56+01:00*
G04 #@! TF.ProjectId,screen-driver,73637265-656e-42d6-9472-697665722e6b,rev?*
G04 #@! TF.SameCoordinates,Original*
G04 #@! TF.FileFunction,Soldermask,Top*
G04 #@! TF.FilePolarity,Negative*
%FSLAX46Y46*%
G04 Gerber Fmt 4.6, Leading zero omitted, Abs format (unit mm)*
G04 Created by KiCad (PCBNEW (6.0.5)) date 2022-09-02 23:17:56*
%MOMM*%
%LPD*%
G01*
G04 APERTURE LIST*
G04 Aperture macros list*
%AMRoundRect*
0 Rectangle with rounded corners*
0 $1 Rounding radius*
0 $2 $3 $4 $5 $6 $7 $8 $9 X,Y pos of 4 corners*
0 Add a 4 corners polygon primitive as box body*
4,1,4,$2,$3,$4,$5,$6,$7,$8,$9,$2,$3,0*
0 Add four circle primitives for the rounded corners*
1,1,$1+$1,$2,$3*
1,1,$1+$1,$4,$5*
1,1,$1+$1,$6,$7*
1,1,$1+$1,$8,$9*
0 Add four rect primitives between the rounded corners*
20,1,$1+$1,$2,$3,$4,$5,0*
20,1,$1+$1,$4,$5,$6,$7,0*
20,1,$1+$1,$6,$7,$8,$9,0*
20,1,$1+$1,$8,$9,$2,$3,0*%
G04 Aperture macros list end*
%ADD10C,4.300000*%
%ADD11R,1.600000X1.600000*%
%ADD12O,1.600000X1.600000*%
%ADD13C,1.600000*%
%ADD14R,1.500000X1.050000*%
%ADD15O,1.500000X1.050000*%
%ADD16R,1.050000X1.500000*%
%ADD17O,1.050000X1.500000*%
%ADD18R,1.350000X1.350000*%
%ADD19O,1.350000X1.350000*%
%ADD20RoundRect,0.100000X-0.100000X1.650000X-0.100000X-1.650000X0.100000X-1.650000X0.100000X1.650000X0*%
%ADD21RoundRect,0.100000X-1.650000X-0.100000X1.650000X-0.100000X1.650000X0.100000X-1.650000X0.100000X0*%
%ADD22RoundRect,0.100000X0.100000X-1.650000X0.100000X1.650000X-0.100000X1.650000X-0.100000X-1.650000X0*%
%ADD23RoundRect,0.100000X1.650000X0.100000X-1.650000X0.100000X-1.650000X-0.100000X1.650000X-0.100000X0*%
%ADD24C,1.440000*%
%ADD25C,1.700000*%
%ADD26R,1.700000X1.700000*%
%ADD27O,1.700000X1.700000*%
%ADD28R,3.500000X3.500000*%
%ADD29RoundRect,0.750000X1.000000X-0.750000X1.000000X0.750000X-1.000000X0.750000X-1.000000X-0.750000X0*%
%ADD30RoundRect,0.875000X0.875000X-0.875000X0.875000X0.875000X-0.875000X0.875000X-0.875000X-0.875000X0*%
%ADD31R,1.500000X2.500000*%
%ADD32O,1.500000X2.500000*%
G04 APERTURE END LIST*
D10*
G04 #@! TO.C,*
X221300000Y-26510000D03*
G04 #@! TD*
D11*
G04 #@! TO.C,U5*
X148875000Y-75200000D03*
D12*
X146335000Y-75200000D03*
X143795000Y-75200000D03*
X141255000Y-75200000D03*
X138715000Y-75200000D03*
X136175000Y-75200000D03*
X133635000Y-75200000D03*
X131095000Y-75200000D03*
X131095000Y-82820000D03*
X133635000Y-82820000D03*
X136175000Y-82820000D03*
X138715000Y-82820000D03*
X141255000Y-82820000D03*
X143795000Y-82820000D03*
X146335000Y-82820000D03*
X148875000Y-82820000D03*
G04 #@! TD*
D13*
G04 #@! TO.C,R48*
X104080000Y-106500000D03*
D12*
X93920000Y-106500000D03*
G04 #@! TD*
D13*
G04 #@! TO.C,R195*
X207420000Y-96500000D03*
D12*
X217580000Y-96500000D03*
G04 #@! TD*
D14*
G04 #@! TO.C,Q2*
X95140000Y-35730000D03*
D15*
X95140000Y-37000000D03*
X95140000Y-38270000D03*
G04 #@! TD*
D13*
G04 #@! TO.C,R177*
X207420000Y-56500000D03*
D12*
X217580000Y-56500000D03*
G04 #@! TD*
D13*
G04 #@! TO.C,R37*
X104080000Y-80500000D03*
D12*
X93920000Y-80500000D03*
G04 #@! TD*
D13*
G04 #@! TO.C,R149*
X209500000Y-105500000D03*
D12*
X199340000Y-105500000D03*
G04 #@! TD*
D16*
G04 #@! TO.C,Q30*
X164900000Y-151200000D03*
D17*
X163630000Y-151200000D03*
X162360000Y-151200000D03*
G04 #@! TD*
D13*
G04 #@! TO.C,R8*
X104080000Y-126500000D03*
D12*
X93920000Y-126500000D03*
G04 #@! TD*
D13*
G04 #@! TO.C,R34*
X104080000Y-74500000D03*
D12*
X93920000Y-74500000D03*
G04 #@! TD*
D13*
G04 #@! TO.C,R176*
X207420000Y-54500000D03*
D12*
X217580000Y-54500000D03*
G04 #@! TD*
D13*
G04 #@! TO.C,R179*
X207420000Y-60500000D03*
D12*
X217580000Y-60500000D03*
G04 #@! TD*
D18*
G04 #@! TO.C,J7*
X184700000Y-156500000D03*
D19*
X186700000Y-156500000D03*
X188700000Y-156500000D03*
X190700000Y-156500000D03*
X192700000Y-156500000D03*
X194700000Y-156500000D03*
X196700000Y-156500000D03*
X198700000Y-156500000D03*
X200700000Y-156500000D03*
X202700000Y-156500000D03*
X204700000Y-156500000D03*
X206700000Y-156500000D03*
G04 #@! TD*
D13*
G04 #@! TO.C,R196*
X207420000Y-98500000D03*
D12*
X217580000Y-98500000D03*
G04 #@! TD*
D13*
G04 #@! TO.C,R115*
X207320000Y-145800000D03*
D12*
X217480000Y-145800000D03*
G04 #@! TD*
D13*
G04 #@! TO.C,R51*
X141500000Y-72810000D03*
D12*
X141500000Y-65190000D03*
G04 #@! TD*
D13*
G04 #@! TO.C,R155*
X209580000Y-117500000D03*
D12*
X199420000Y-117500000D03*
G04 #@! TD*
D13*
G04 #@! TO.C,R7*
X104080000Y-124500000D03*
D12*
X93920000Y-124500000D03*
G04 #@! TD*
D18*
G04 #@! TO.C,J6*
X184920000Y-27400000D03*
D19*
X186920000Y-27400000D03*
X188920000Y-27400000D03*
X190920000Y-27400000D03*
X192920000Y-27400000D03*
X194920000Y-27400000D03*
X196920000Y-27400000D03*
X198920000Y-27400000D03*
X200920000Y-27400000D03*
X202920000Y-27400000D03*
X204920000Y-27400000D03*
X206920000Y-27400000D03*
G04 #@! TD*
D13*
G04 #@! TO.C,C4*
X127000000Y-80750000D03*
X127000000Y-78250000D03*
G04 #@! TD*
G04 #@! TO.C,R71*
X101920000Y-133500000D03*
D12*
X112080000Y-133500000D03*
G04 #@! TD*
D13*
G04 #@! TO.C,R139*
X209580000Y-81500000D03*
D12*
X199420000Y-81500000D03*
G04 #@! TD*
D13*
G04 #@! TO.C,R98*
X101920000Y-83500000D03*
D12*
X112080000Y-83500000D03*
G04 #@! TD*
D13*
G04 #@! TO.C,R211*
X207500000Y-128500000D03*
D12*
X217660000Y-128500000D03*
G04 #@! TD*
D13*
G04 #@! TO.C,R209*
X207500000Y-124500000D03*
D12*
X217660000Y-124500000D03*
G04 #@! TD*
D13*
G04 #@! TO.C,R64*
X101920000Y-119500000D03*
D12*
X112080000Y-119500000D03*
G04 #@! TD*
D13*
G04 #@! TO.C,R175*
X207420000Y-52500000D03*
D12*
X217580000Y-52500000D03*
G04 #@! TD*
D13*
G04 #@! TO.C,R84*
X101920000Y-55500000D03*
D12*
X112080000Y-55500000D03*
G04 #@! TD*
D13*
G04 #@! TO.C,R59*
X136000000Y-85500000D03*
D12*
X136000000Y-93120000D03*
G04 #@! TD*
D13*
G04 #@! TO.C,R198*
X207420000Y-102500000D03*
D12*
X217580000Y-102500000D03*
G04 #@! TD*
D13*
G04 #@! TO.C,C3*
X196200000Y-152600000D03*
X196200000Y-150100000D03*
G04 #@! TD*
G04 #@! TO.C,R165*
X209580000Y-137500000D03*
D12*
X199420000Y-137500000D03*
G04 #@! TD*
D13*
G04 #@! TO.C,R210*
X207420000Y-126500000D03*
D12*
X217580000Y-126500000D03*
G04 #@! TD*
D13*
G04 #@! TO.C,R126*
X209580000Y-55500000D03*
D12*
X199420000Y-55500000D03*
G04 #@! TD*
D16*
G04 #@! TO.C,Q14*
X190230000Y-32360000D03*
D17*
X191500000Y-32360000D03*
X192770000Y-32360000D03*
G04 #@! TD*
D13*
G04 #@! TO.C,R131*
X209580000Y-65500000D03*
D12*
X199420000Y-65500000D03*
G04 #@! TD*
D13*
G04 #@! TO.C,R164*
X209580000Y-135500000D03*
D12*
X199420000Y-135500000D03*
G04 #@! TD*
D16*
G04 #@! TO.C,Q24*
X136230000Y-32360000D03*
D17*
X137500000Y-32360000D03*
X138770000Y-32360000D03*
G04 #@! TD*
D16*
G04 #@! TO.C,Q22*
X148230000Y-32360000D03*
D17*
X149500000Y-32360000D03*
X150770000Y-32360000D03*
G04 #@! TD*
D13*
G04 #@! TO.C,R145*
X209500000Y-97500000D03*
D12*
X199340000Y-97500000D03*
G04 #@! TD*
D14*
G04 #@! TO.C,Q6*
X100860000Y-37270000D03*
D15*
X100860000Y-36000000D03*
X100860000Y-34730000D03*
G04 #@! TD*
D13*
G04 #@! TO.C,R189*
X207420000Y-80500000D03*
D12*
X217580000Y-80500000D03*
G04 #@! TD*
D18*
G04 #@! TO.C,J5*
X104720000Y-156500000D03*
D19*
X106720000Y-156500000D03*
X108720000Y-156500000D03*
X110720000Y-156500000D03*
X112720000Y-156500000D03*
X114720000Y-156500000D03*
X116720000Y-156500000D03*
X118720000Y-156500000D03*
X120720000Y-156500000D03*
X122720000Y-156500000D03*
X124720000Y-156500000D03*
X126720000Y-156500000D03*
X128720000Y-156500000D03*
X130720000Y-156500000D03*
X132720000Y-156500000D03*
X134720000Y-156500000D03*
X136720000Y-156500000D03*
X138720000Y-156500000D03*
X140720000Y-156500000D03*
X142720000Y-156500000D03*
X144720000Y-156500000D03*
X146720000Y-156500000D03*
X148720000Y-156500000D03*
X150720000Y-156500000D03*
X152720000Y-156500000D03*
X154720000Y-156500000D03*
X156720000Y-156500000D03*
X158720000Y-156500000D03*
X160720000Y-156500000D03*
X162720000Y-156500000D03*
X164720000Y-156500000D03*
X166720000Y-156500000D03*
X168720000Y-156500000D03*
X170720000Y-156500000D03*
X172720000Y-156500000D03*
X174720000Y-156500000D03*
X176720000Y-156500000D03*
X178720000Y-156500000D03*
X180720000Y-156500000D03*
X182720000Y-156500000D03*
G04 #@! TD*
D13*
G04 #@! TO.C,R97*
X102000000Y-81500000D03*
D12*
X112160000Y-81500000D03*
G04 #@! TD*
D18*
G04 #@! TO.C,J9*
X220300000Y-112540000D03*
D19*
X220300000Y-114540000D03*
X220300000Y-116540000D03*
X220300000Y-118540000D03*
X220300000Y-120540000D03*
X220300000Y-122540000D03*
X220300000Y-124540000D03*
X220300000Y-126540000D03*
X220300000Y-128540000D03*
X220300000Y-130540000D03*
X220300000Y-132540000D03*
X220300000Y-134540000D03*
X220300000Y-136540000D03*
X220300000Y-138540000D03*
X220300000Y-140540000D03*
X220300000Y-142540000D03*
X220300000Y-144540000D03*
X220300000Y-146540000D03*
X220300000Y-148540000D03*
X220300000Y-150540000D03*
G04 #@! TD*
D13*
G04 #@! TO.C,R90*
X101920000Y-67500000D03*
D12*
X112080000Y-67500000D03*
G04 #@! TD*
D13*
G04 #@! TO.C,R70*
X101920000Y-131500000D03*
D12*
X112080000Y-131500000D03*
G04 #@! TD*
D13*
G04 #@! TO.C,R192*
X207420000Y-86500000D03*
D12*
X217580000Y-86500000D03*
G04 #@! TD*
D11*
G04 #@! TO.C,U9*
X174325000Y-153600000D03*
D12*
X176865000Y-153600000D03*
X179405000Y-153600000D03*
X181945000Y-153600000D03*
X184485000Y-153600000D03*
X187025000Y-153600000D03*
X189565000Y-153600000D03*
X192105000Y-153600000D03*
X192105000Y-145980000D03*
X189565000Y-145980000D03*
X187025000Y-145980000D03*
X184485000Y-145980000D03*
X181945000Y-145980000D03*
X179405000Y-145980000D03*
X176865000Y-145980000D03*
X174325000Y-145980000D03*
G04 #@! TD*
D13*
G04 #@! TO.C,R78*
X101920000Y-43000000D03*
D12*
X112080000Y-43000000D03*
G04 #@! TD*
D13*
G04 #@! TO.C,R101*
X143500000Y-72810000D03*
D12*
X143500000Y-65190000D03*
G04 #@! TD*
D18*
G04 #@! TO.C,J3*
X91300000Y-112500000D03*
D19*
X91300000Y-114500000D03*
X91300000Y-116500000D03*
X91300000Y-118500000D03*
X91300000Y-120500000D03*
X91300000Y-122500000D03*
X91300000Y-124500000D03*
X91300000Y-126500000D03*
X91300000Y-128500000D03*
X91300000Y-130500000D03*
X91300000Y-132500000D03*
X91300000Y-134500000D03*
X91300000Y-136500000D03*
X91300000Y-138500000D03*
X91300000Y-140500000D03*
X91300000Y-142500000D03*
X91300000Y-144500000D03*
X91300000Y-146500000D03*
X91300000Y-148500000D03*
X91300000Y-150500000D03*
G04 #@! TD*
D13*
G04 #@! TO.C,R110*
X101920000Y-109500000D03*
D12*
X112080000Y-109500000D03*
G04 #@! TD*
D13*
G04 #@! TO.C,R1*
X104080000Y-112500000D03*
D12*
X93920000Y-112500000D03*
G04 #@! TD*
D13*
G04 #@! TO.C,R178*
X207420000Y-58500000D03*
D12*
X217580000Y-58500000D03*
G04 #@! TD*
D13*
G04 #@! TO.C,R184*
X207420000Y-70500000D03*
D12*
X217580000Y-70500000D03*
G04 #@! TD*
D13*
G04 #@! TO.C,R185*
X207420000Y-72500000D03*
D12*
X217580000Y-72500000D03*
G04 #@! TD*
D13*
G04 #@! TO.C,R173*
X207420000Y-48500000D03*
D12*
X217580000Y-48500000D03*
G04 #@! TD*
D13*
G04 #@! TO.C,R106*
X101920000Y-101500000D03*
D12*
X112080000Y-101500000D03*
G04 #@! TD*
D13*
G04 #@! TO.C,R46*
X104080000Y-102500000D03*
D12*
X93920000Y-102500000D03*
G04 #@! TD*
D13*
G04 #@! TO.C,R154*
X209580000Y-115500000D03*
D12*
X199420000Y-115500000D03*
G04 #@! TD*
D16*
G04 #@! TO.C,Q20*
X154230000Y-32360000D03*
D17*
X155500000Y-32360000D03*
X156770000Y-32360000D03*
G04 #@! TD*
D13*
G04 #@! TO.C,R33*
X104000000Y-72500000D03*
D12*
X93840000Y-72500000D03*
G04 #@! TD*
D13*
G04 #@! TO.C,R85*
X101920000Y-57500000D03*
D12*
X112080000Y-57500000D03*
G04 #@! TD*
D13*
G04 #@! TO.C,R187*
X207420000Y-76500000D03*
D12*
X217580000Y-76500000D03*
G04 #@! TD*
D20*
G04 #@! TO.C,U11*
X169500000Y-96700000D03*
X168500000Y-96700000D03*
X167500000Y-96700000D03*
X166500000Y-96700000D03*
X165500000Y-96700000D03*
X164500000Y-96700000D03*
D21*
X162500000Y-100200000D03*
X162500000Y-101200000D03*
X162500000Y-102200000D03*
X162500000Y-103200000D03*
X162500000Y-104200000D03*
X162500000Y-105200000D03*
X162500000Y-106200000D03*
X162500000Y-107200000D03*
X162500000Y-108200000D03*
D22*
X164500000Y-111700000D03*
X165500000Y-111700000D03*
X166500000Y-111700000D03*
X167500000Y-111700000D03*
X168500000Y-111700000D03*
X169500000Y-111700000D03*
X170500000Y-111700000D03*
X171500000Y-111700000D03*
X172500000Y-111700000D03*
X173500000Y-111700000D03*
X174500000Y-111700000D03*
X175500000Y-111700000D03*
D23*
X177500000Y-108200000D03*
X177500000Y-107200000D03*
X177500000Y-106200000D03*
X177500000Y-105200000D03*
X177500000Y-104200000D03*
X177500000Y-103200000D03*
X177500000Y-102200000D03*
X177500000Y-101200000D03*
X177500000Y-100200000D03*
D20*
X175500000Y-96700000D03*
X174500000Y-96700000D03*
X173500000Y-96700000D03*
X172500000Y-96700000D03*
X171500000Y-96700000D03*
X170500000Y-96700000D03*
G04 #@! TD*
D13*
G04 #@! TO.C,R137*
X209580000Y-77500000D03*
D12*
X199420000Y-77500000D03*
G04 #@! TD*
D13*
G04 #@! TO.C,R216*
X207420000Y-138500000D03*
D12*
X217580000Y-138500000D03*
G04 #@! TD*
D13*
G04 #@! TO.C,C1*
X158150000Y-87000000D03*
X160650000Y-87000000D03*
G04 #@! TD*
G04 #@! TO.C,R142*
X209580000Y-87500000D03*
D12*
X199420000Y-87500000D03*
G04 #@! TD*
D13*
G04 #@! TO.C,R132*
X209580000Y-67500000D03*
D12*
X199420000Y-67500000D03*
G04 #@! TD*
D13*
G04 #@! TO.C,R99*
X101920000Y-85500000D03*
D12*
X112080000Y-85500000D03*
G04 #@! TD*
D13*
G04 #@! TO.C,R15*
X104000000Y-140500000D03*
D12*
X93840000Y-140500000D03*
G04 #@! TD*
D13*
G04 #@! TO.C,R79*
X101920000Y-45000000D03*
D12*
X112080000Y-45000000D03*
G04 #@! TD*
D13*
G04 #@! TO.C,R13*
X104080000Y-136500000D03*
D12*
X93920000Y-136500000D03*
G04 #@! TD*
D13*
G04 #@! TO.C,R93*
X101920000Y-73500000D03*
D12*
X112080000Y-73500000D03*
G04 #@! TD*
D13*
G04 #@! TO.C,R203*
X207420000Y-112500000D03*
D12*
X217580000Y-112500000D03*
G04 #@! TD*
D13*
G04 #@! TO.C,R127*
X209580000Y-57500000D03*
D12*
X199420000Y-57500000D03*
G04 #@! TD*
D13*
G04 #@! TO.C,R117*
X166420000Y-67500000D03*
D12*
X176580000Y-67500000D03*
G04 #@! TD*
D13*
G04 #@! TO.C,R125*
X209500000Y-53500000D03*
D12*
X199340000Y-53500000D03*
G04 #@! TD*
D13*
G04 #@! TO.C,R193*
X207420000Y-88500000D03*
D12*
X217580000Y-88500000D03*
G04 #@! TD*
D13*
G04 #@! TO.C,R109*
X101920000Y-107500000D03*
D12*
X112080000Y-107500000D03*
G04 #@! TD*
D13*
G04 #@! TO.C,R147*
X209580000Y-101500000D03*
D12*
X199420000Y-101500000D03*
G04 #@! TD*
D13*
G04 #@! TO.C,R80*
X101920000Y-47000000D03*
D12*
X112080000Y-47000000D03*
G04 #@! TD*
D13*
G04 #@! TO.C,R191*
X207420000Y-84500000D03*
D12*
X217580000Y-84500000D03*
G04 #@! TD*
D13*
G04 #@! TO.C,R62*
X102000000Y-115500000D03*
D12*
X112160000Y-115500000D03*
G04 #@! TD*
D16*
G04 #@! TO.C,Q17*
X172230000Y-32360000D03*
D17*
X173500000Y-32360000D03*
X174770000Y-32360000D03*
G04 #@! TD*
D13*
G04 #@! TO.C,R160*
X209500000Y-127500000D03*
D12*
X199340000Y-127500000D03*
G04 #@! TD*
D13*
G04 #@! TO.C,R104*
X101920000Y-97500000D03*
D12*
X112080000Y-97500000D03*
G04 #@! TD*
D13*
G04 #@! TO.C,R105*
X101920000Y-99500000D03*
D12*
X112080000Y-99500000D03*
G04 #@! TD*
D13*
G04 #@! TO.C,R5*
X104080000Y-120500000D03*
D12*
X93920000Y-120500000D03*
G04 #@! TD*
D13*
G04 #@! TO.C,R144*
X209580000Y-95500000D03*
D12*
X199420000Y-95500000D03*
G04 #@! TD*
D13*
G04 #@! TO.C,R55*
X146500000Y-72810000D03*
D12*
X146500000Y-65190000D03*
G04 #@! TD*
D11*
G04 #@! TO.C,U3*
X95200000Y-147500000D03*
D12*
X95200000Y-150040000D03*
X102820000Y-150040000D03*
X102820000Y-147500000D03*
G04 #@! TD*
D13*
G04 #@! TO.C,R77*
X101920000Y-41000000D03*
D12*
X112080000Y-41000000D03*
G04 #@! TD*
D14*
G04 #@! TO.C,Q32*
X177140000Y-77730000D03*
D15*
X177140000Y-79000000D03*
X177140000Y-80270000D03*
G04 #@! TD*
D13*
G04 #@! TO.C,R136*
X209580000Y-75500000D03*
D12*
X199420000Y-75500000D03*
G04 #@! TD*
D13*
G04 #@! TO.C,R56*
X138500000Y-72810000D03*
D12*
X138500000Y-65190000D03*
G04 #@! TD*
D13*
G04 #@! TO.C,R129*
X209500000Y-61500000D03*
D12*
X199340000Y-61500000D03*
G04 #@! TD*
D13*
G04 #@! TO.C,R44*
X104080000Y-98500000D03*
D12*
X93920000Y-98500000D03*
G04 #@! TD*
D13*
G04 #@! TO.C,R47*
X104080000Y-104500000D03*
D12*
X93920000Y-104500000D03*
G04 #@! TD*
D13*
G04 #@! TO.C,R130*
X209580000Y-63500000D03*
D12*
X199420000Y-63500000D03*
G04 #@! TD*
D13*
G04 #@! TO.C,R116*
X205080000Y-146600000D03*
D12*
X194920000Y-146600000D03*
G04 #@! TD*
D13*
G04 #@! TO.C,R14*
X104080000Y-138500000D03*
D12*
X93920000Y-138500000D03*
G04 #@! TD*
D13*
G04 #@! TO.C,R50*
X104080000Y-110500000D03*
D12*
X93920000Y-110500000D03*
G04 #@! TD*
D10*
G04 #@! TO.C,*
X221340000Y-157530000D03*
G04 #@! TD*
D18*
G04 #@! TO.C,J8*
X220300000Y-32500000D03*
D19*
X220300000Y-34500000D03*
X220300000Y-36500000D03*
X220300000Y-38500000D03*
X220300000Y-40500000D03*
X220300000Y-42500000D03*
X220300000Y-44500000D03*
X220300000Y-46500000D03*
X220300000Y-48500000D03*
X220300000Y-50500000D03*
X220300000Y-52500000D03*
X220300000Y-54500000D03*
X220300000Y-56500000D03*
X220300000Y-58500000D03*
X220300000Y-60500000D03*
X220300000Y-62500000D03*
X220300000Y-64500000D03*
X220300000Y-66500000D03*
X220300000Y-68500000D03*
X220300000Y-70500000D03*
X220300000Y-72500000D03*
X220300000Y-74500000D03*
X220300000Y-76500000D03*
X220300000Y-78500000D03*
X220300000Y-80500000D03*
X220300000Y-82500000D03*
X220300000Y-84500000D03*
X220300000Y-86500000D03*
X220300000Y-88500000D03*
X220300000Y-94500000D03*
X220300000Y-96500000D03*
X220300000Y-98500000D03*
X220300000Y-100500000D03*
X220300000Y-102500000D03*
X220300000Y-104500000D03*
X220300000Y-106500000D03*
X220300000Y-108500000D03*
X220300000Y-110500000D03*
G04 #@! TD*
D13*
G04 #@! TO.C,R135*
X209580000Y-73500000D03*
D12*
X199420000Y-73500000D03*
G04 #@! TD*
D13*
G04 #@! TO.C,R150*
X209580000Y-107500000D03*
D12*
X199420000Y-107500000D03*
G04 #@! TD*
D13*
G04 #@! TO.C,R188*
X207420000Y-78500000D03*
D12*
X217580000Y-78500000D03*
G04 #@! TD*
D13*
G04 #@! TO.C,R181*
X207420000Y-64500000D03*
D12*
X217580000Y-64500000D03*
G04 #@! TD*
D13*
G04 #@! TO.C,R4*
X104080000Y-118500000D03*
D12*
X93920000Y-118500000D03*
G04 #@! TD*
D16*
G04 #@! TO.C,Q12*
X201730000Y-32360000D03*
D17*
X203000000Y-32360000D03*
X204270000Y-32360000D03*
G04 #@! TD*
D13*
G04 #@! TO.C,R87*
X101920000Y-61500000D03*
D12*
X112080000Y-61500000D03*
G04 #@! TD*
D13*
G04 #@! TO.C,R217*
X207420000Y-140500000D03*
D12*
X217580000Y-140500000D03*
G04 #@! TD*
D13*
G04 #@! TO.C,R6*
X104080000Y-122500000D03*
D12*
X93920000Y-122500000D03*
G04 #@! TD*
D13*
G04 #@! TO.C,R68*
X101920000Y-127500000D03*
D12*
X112080000Y-127500000D03*
G04 #@! TD*
D14*
G04 #@! TO.C,Q8*
X125200000Y-85000000D03*
D15*
X125200000Y-86270000D03*
X125200000Y-87540000D03*
G04 #@! TD*
D13*
G04 #@! TO.C,R76*
X101920000Y-143500000D03*
D12*
X112080000Y-143500000D03*
G04 #@! TD*
D13*
G04 #@! TO.C,R69*
X101920000Y-129500000D03*
D12*
X112080000Y-129500000D03*
G04 #@! TD*
D16*
G04 #@! TO.C,Q4*
X124330000Y-93060000D03*
D17*
X125600000Y-93060000D03*
X126870000Y-93060000D03*
G04 #@! TD*
D13*
G04 #@! TO.C,R174*
X207420000Y-50500000D03*
D12*
X217580000Y-50500000D03*
G04 #@! TD*
D13*
G04 #@! TO.C,R152*
X209580000Y-111500000D03*
D12*
X199420000Y-111500000D03*
G04 #@! TD*
D24*
G04 #@! TO.C,RV1*
X148500000Y-90500000D03*
X151040000Y-87960000D03*
X148500000Y-85420000D03*
G04 #@! TD*
D13*
G04 #@! TO.C,R148*
X209580000Y-103500000D03*
D12*
X199420000Y-103500000D03*
G04 #@! TD*
D13*
G04 #@! TO.C,R89*
X102000000Y-65500000D03*
D12*
X112160000Y-65500000D03*
G04 #@! TD*
D16*
G04 #@! TO.C,Q19*
X160230000Y-32360000D03*
D17*
X161500000Y-32360000D03*
X162770000Y-32360000D03*
G04 #@! TD*
D13*
G04 #@! TO.C,R180*
X207420000Y-62500000D03*
D12*
X217580000Y-62500000D03*
G04 #@! TD*
D13*
G04 #@! TO.C,R201*
X207420000Y-108500000D03*
D12*
X217580000Y-108500000D03*
G04 #@! TD*
D13*
G04 #@! TO.C,R112*
X165690000Y-79000000D03*
D12*
X173310000Y-79000000D03*
G04 #@! TD*
D13*
G04 #@! TO.C,R83*
X101920000Y-53500000D03*
D12*
X112080000Y-53500000D03*
G04 #@! TD*
D13*
G04 #@! TO.C,R39*
X104000000Y-84500000D03*
D12*
X93840000Y-84500000D03*
G04 #@! TD*
D13*
G04 #@! TO.C,R204*
X207420000Y-114500000D03*
D12*
X217580000Y-114500000D03*
G04 #@! TD*
D13*
G04 #@! TO.C,R172*
X207420000Y-46500000D03*
D12*
X217580000Y-46500000D03*
G04 #@! TD*
D13*
G04 #@! TO.C,R120*
X209580000Y-43500000D03*
D12*
X199420000Y-43500000D03*
G04 #@! TD*
D13*
G04 #@! TO.C,R86*
X102000000Y-59500000D03*
D12*
X112160000Y-59500000D03*
G04 #@! TD*
D13*
G04 #@! TO.C,R30*
X104080000Y-66500000D03*
D12*
X93920000Y-66500000D03*
G04 #@! TD*
D13*
G04 #@! TO.C,R167*
X209580000Y-141500000D03*
D12*
X199420000Y-141500000D03*
G04 #@! TD*
D18*
G04 #@! TO.C,J4*
X104900000Y-27400000D03*
D19*
X106900000Y-27400000D03*
X108900000Y-27400000D03*
X110900000Y-27400000D03*
X112900000Y-27400000D03*
X114900000Y-27400000D03*
X116900000Y-27400000D03*
X118900000Y-27400000D03*
X120900000Y-27400000D03*
X122900000Y-27400000D03*
X124900000Y-27400000D03*
X126900000Y-27400000D03*
X128900000Y-27400000D03*
X130900000Y-27400000D03*
X132900000Y-27400000D03*
X134900000Y-27400000D03*
X136900000Y-27400000D03*
X138900000Y-27400000D03*
X140900000Y-27400000D03*
X142900000Y-27400000D03*
X144900000Y-27400000D03*
X146900000Y-27400000D03*
X148900000Y-27400000D03*
X150900000Y-27400000D03*
X152900000Y-27400000D03*
X154900000Y-27400000D03*
X156900000Y-27400000D03*
X158900000Y-27400000D03*
X160900000Y-27400000D03*
X162900000Y-27400000D03*
X164900000Y-27400000D03*
X166900000Y-27400000D03*
X168900000Y-27400000D03*
X170900000Y-27400000D03*
X172900000Y-27400000D03*
X174900000Y-27400000D03*
X176900000Y-27400000D03*
X178900000Y-27400000D03*
X180900000Y-27400000D03*
X182900000Y-27400000D03*
G04 #@! TD*
D13*
G04 #@! TO.C,R134*
X209500000Y-71500000D03*
D12*
X199340000Y-71500000D03*
G04 #@! TD*
D11*
G04 #@! TO.C,U2*
X106700000Y-147225000D03*
D12*
X106700000Y-149765000D03*
X114320000Y-149765000D03*
X114320000Y-147225000D03*
G04 #@! TD*
D13*
G04 #@! TO.C,R213*
X207420000Y-132500000D03*
D12*
X217580000Y-132500000D03*
G04 #@! TD*
D11*
G04 #@! TO.C,U12*
X209800000Y-148925000D03*
D12*
X209800000Y-151465000D03*
X217420000Y-151465000D03*
X217420000Y-148925000D03*
G04 #@! TD*
D13*
G04 #@! TO.C,R3*
X104080000Y-116500000D03*
D12*
X93920000Y-116500000D03*
G04 #@! TD*
D13*
G04 #@! TO.C,R2*
X104080000Y-114500000D03*
D12*
X93920000Y-114500000D03*
G04 #@! TD*
D23*
G04 #@! TO.C,U8*
X143050000Y-129450000D03*
X143050000Y-128450000D03*
X143050000Y-127450000D03*
X143050000Y-126450000D03*
X143050000Y-125450000D03*
X143050000Y-124450000D03*
D20*
X139550000Y-122450000D03*
X138550000Y-122450000D03*
X137550000Y-122450000D03*
X136550000Y-122450000D03*
X135550000Y-122450000D03*
X134550000Y-122450000D03*
X133550000Y-122450000D03*
X132550000Y-122450000D03*
X131550000Y-122450000D03*
D21*
X128050000Y-124450000D03*
X128050000Y-125450000D03*
X128050000Y-126450000D03*
X128050000Y-127450000D03*
X128050000Y-128450000D03*
X128050000Y-129450000D03*
X128050000Y-130450000D03*
X128050000Y-131450000D03*
X128050000Y-132450000D03*
X128050000Y-133450000D03*
X128050000Y-134450000D03*
X128050000Y-135450000D03*
D22*
X131550000Y-137450000D03*
X132550000Y-137450000D03*
X133550000Y-137450000D03*
X134550000Y-137450000D03*
X135550000Y-137450000D03*
X136550000Y-137450000D03*
X137550000Y-137450000D03*
X138550000Y-137450000D03*
X139550000Y-137450000D03*
D23*
X143050000Y-135450000D03*
X143050000Y-134450000D03*
X143050000Y-133450000D03*
X143050000Y-132450000D03*
X143050000Y-131450000D03*
X143050000Y-130450000D03*
G04 #@! TD*
D13*
G04 #@! TO.C,R81*
X101920000Y-49500000D03*
D12*
X112080000Y-49500000D03*
G04 #@! TD*
D13*
G04 #@! TO.C,R170*
X207420000Y-42500000D03*
D12*
X217580000Y-42500000D03*
G04 #@! TD*
D13*
G04 #@! TO.C,R12*
X104080000Y-134500000D03*
D12*
X93920000Y-134500000D03*
G04 #@! TD*
D13*
G04 #@! TO.C,R57*
X136000000Y-72810000D03*
D12*
X136000000Y-65190000D03*
G04 #@! TD*
D13*
G04 #@! TO.C,R35*
X104080000Y-76500000D03*
D12*
X93920000Y-76500000D03*
G04 #@! TD*
D13*
G04 #@! TO.C,R61*
X101920000Y-113500000D03*
D12*
X112080000Y-113500000D03*
G04 #@! TD*
D13*
G04 #@! TO.C,R163*
X209580000Y-133500000D03*
D12*
X199420000Y-133500000D03*
G04 #@! TD*
D16*
G04 #@! TO.C,Q7*
X168600000Y-151400000D03*
D17*
X169870000Y-151400000D03*
X171140000Y-151400000D03*
G04 #@! TD*
D16*
G04 #@! TO.C,Q13*
X196230000Y-32360000D03*
D17*
X197500000Y-32360000D03*
X198770000Y-32360000D03*
G04 #@! TD*
D16*
G04 #@! TO.C,Q16*
X178230000Y-32360000D03*
D17*
X179500000Y-32360000D03*
X180770000Y-32360000D03*
G04 #@! TD*
D13*
G04 #@! TO.C,R49*
X104080000Y-108500000D03*
D12*
X93920000Y-108500000D03*
G04 #@! TD*
D13*
G04 #@! TO.C,R31*
X104080000Y-68500000D03*
D12*
X93920000Y-68500000D03*
G04 #@! TD*
D13*
G04 #@! TO.C,R108*
X101920000Y-105500000D03*
D12*
X112080000Y-105500000D03*
G04 #@! TD*
D13*
G04 #@! TO.C,C2*
X177500000Y-110500000D03*
X180000000Y-110500000D03*
G04 #@! TD*
D16*
G04 #@! TO.C,Q3*
X162330000Y-146700000D03*
D17*
X163600000Y-146700000D03*
X164870000Y-146700000D03*
G04 #@! TD*
D13*
G04 #@! TO.C,R24*
X104080000Y-54500000D03*
D12*
X93920000Y-54500000D03*
G04 #@! TD*
D13*
G04 #@! TO.C,R63*
X101920000Y-117500000D03*
D12*
X112080000Y-117500000D03*
G04 #@! TD*
D13*
G04 #@! TO.C,R52*
X133500000Y-72810000D03*
D12*
X133500000Y-65190000D03*
G04 #@! TD*
D13*
G04 #@! TO.C,R200*
X207420000Y-106500000D03*
D12*
X217580000Y-106500000D03*
G04 #@! TD*
D13*
G04 #@! TO.C,R166*
X209580000Y-139500000D03*
D12*
X199420000Y-139500000D03*
G04 #@! TD*
D13*
G04 #@! TO.C,R58*
X130000000Y-85190000D03*
D12*
X130000000Y-92810000D03*
G04 #@! TD*
D23*
G04 #@! TO.C,U7*
X159250000Y-50650000D03*
X159250000Y-49650000D03*
X159250000Y-48650000D03*
X159250000Y-47650000D03*
X159250000Y-46650000D03*
X159250000Y-45650000D03*
D20*
X155750000Y-43650000D03*
X154750000Y-43650000D03*
X153750000Y-43650000D03*
X152750000Y-43650000D03*
X151750000Y-43650000D03*
X150750000Y-43650000D03*
X149750000Y-43650000D03*
X148750000Y-43650000D03*
X147750000Y-43650000D03*
D21*
X144250000Y-45650000D03*
X144250000Y-46650000D03*
X144250000Y-47650000D03*
X144250000Y-48650000D03*
X144250000Y-49650000D03*
X144250000Y-50650000D03*
X144250000Y-51650000D03*
X144250000Y-52650000D03*
X144250000Y-53650000D03*
X144250000Y-54650000D03*
X144250000Y-55650000D03*
X144250000Y-56650000D03*
D22*
X147750000Y-58650000D03*
X148750000Y-58650000D03*
X149750000Y-58650000D03*
X150750000Y-58650000D03*
X151750000Y-58650000D03*
X152750000Y-58650000D03*
X153750000Y-58650000D03*
X154750000Y-58650000D03*
X155750000Y-58650000D03*
D23*
X159250000Y-56650000D03*
X159250000Y-55650000D03*
X159250000Y-54650000D03*
X159250000Y-53650000D03*
X159250000Y-52650000D03*
X159250000Y-51650000D03*
G04 #@! TD*
D16*
G04 #@! TO.C,Q23*
X142230000Y-32360000D03*
D17*
X143500000Y-32360000D03*
X144770000Y-32360000D03*
G04 #@! TD*
D13*
G04 #@! TO.C,R159*
X209580000Y-125500000D03*
D12*
X199420000Y-125500000D03*
G04 #@! TD*
D13*
G04 #@! TO.C,R60*
X165690000Y-84000000D03*
D12*
X173310000Y-84000000D03*
G04 #@! TD*
D13*
G04 #@! TO.C,R28*
X104080000Y-62500000D03*
D12*
X93920000Y-62500000D03*
G04 #@! TD*
D11*
G04 #@! TO.C,U13*
X199600000Y-149725000D03*
D12*
X199600000Y-152265000D03*
X207220000Y-152265000D03*
X207220000Y-149725000D03*
G04 #@! TD*
D13*
G04 #@! TO.C,R153*
X209500000Y-113500000D03*
D12*
X199340000Y-113500000D03*
G04 #@! TD*
D16*
G04 #@! TO.C,Q15*
X184230000Y-32360000D03*
D17*
X185500000Y-32360000D03*
X186770000Y-32360000D03*
G04 #@! TD*
D13*
G04 #@! TO.C,R146*
X209580000Y-99500000D03*
D12*
X199420000Y-99500000D03*
G04 #@! TD*
D13*
G04 #@! TO.C,R171*
X207420000Y-44500000D03*
D12*
X217580000Y-44500000D03*
G04 #@! TD*
D13*
G04 #@! TO.C,R207*
X207420000Y-120500000D03*
D12*
X217580000Y-120500000D03*
G04 #@! TD*
D13*
G04 #@! TO.C,R183*
X207420000Y-68500000D03*
D12*
X217580000Y-68500000D03*
G04 #@! TD*
D13*
G04 #@! TO.C,R42*
X104080000Y-94500000D03*
D12*
X93920000Y-94500000D03*
G04 #@! TD*
D13*
G04 #@! TO.C,R190*
X207420000Y-82500000D03*
D12*
X217580000Y-82500000D03*
G04 #@! TD*
D13*
G04 #@! TO.C,R32*
X104080000Y-70500000D03*
D12*
X93920000Y-70500000D03*
G04 #@! TD*
D13*
G04 #@! TO.C,R67*
X101920000Y-125500000D03*
D12*
X112080000Y-125500000D03*
G04 #@! TD*
D16*
G04 #@! TO.C,Q21*
X176230000Y-84360000D03*
D17*
X177500000Y-84360000D03*
X178770000Y-84360000D03*
G04 #@! TD*
D16*
G04 #@! TO.C,Q26*
X124730000Y-32360000D03*
D17*
X126000000Y-32360000D03*
X127270000Y-32360000D03*
G04 #@! TD*
D13*
G04 #@! TO.C,R23*
X104080000Y-52500000D03*
D12*
X93920000Y-52500000D03*
G04 #@! TD*
D13*
G04 #@! TO.C,R194*
X207420000Y-94500000D03*
D12*
X217580000Y-94500000D03*
G04 #@! TD*
D13*
G04 #@! TO.C,R27*
X104080000Y-60500000D03*
D12*
X93920000Y-60500000D03*
G04 #@! TD*
D13*
G04 #@! TO.C,R45*
X104080000Y-100500000D03*
D12*
X93920000Y-100500000D03*
G04 #@! TD*
D13*
G04 #@! TO.C,R88*
X101920000Y-63500000D03*
D12*
X112080000Y-63500000D03*
G04 #@! TD*
D16*
G04 #@! TO.C,Q31*
X106730000Y-37360000D03*
D17*
X108000000Y-37360000D03*
X109270000Y-37360000D03*
G04 #@! TD*
D13*
G04 #@! TO.C,R141*
X209580000Y-85500000D03*
D12*
X199420000Y-85500000D03*
G04 #@! TD*
D13*
G04 #@! TO.C,R138*
X209580000Y-79500000D03*
D12*
X199420000Y-79500000D03*
G04 #@! TD*
D25*
G04 #@! TO.C,U10*
X175735000Y-55645000D03*
X178275000Y-55645000D03*
X180815000Y-55645000D03*
X183355000Y-55645000D03*
X185895000Y-55645000D03*
X188435000Y-55645000D03*
X188415000Y-45545000D03*
X185875000Y-45545000D03*
X183335000Y-45545000D03*
X180795000Y-45545000D03*
X178255000Y-45545000D03*
X175715000Y-45545000D03*
G04 #@! TD*
D13*
G04 #@! TO.C,R158*
X209480000Y-123500000D03*
D12*
X199320000Y-123500000D03*
G04 #@! TD*
D13*
G04 #@! TO.C,R113*
X107920000Y-153500000D03*
D12*
X118080000Y-153500000D03*
G04 #@! TD*
D13*
G04 #@! TO.C,R151*
X209580000Y-109500000D03*
D12*
X199420000Y-109500000D03*
G04 #@! TD*
D13*
G04 #@! TO.C,R95*
X101920000Y-77500000D03*
D12*
X112080000Y-77500000D03*
G04 #@! TD*
D13*
G04 #@! TO.C,R121*
X209580000Y-45500000D03*
D12*
X199420000Y-45500000D03*
G04 #@! TD*
D16*
G04 #@! TO.C,Q27*
X118230000Y-31860000D03*
D17*
X119500000Y-31860000D03*
X120770000Y-31860000D03*
G04 #@! TD*
D13*
G04 #@! TO.C,R103*
X101920000Y-95500000D03*
D12*
X112080000Y-95500000D03*
G04 #@! TD*
D13*
G04 #@! TO.C,R41*
X104080000Y-88500000D03*
D12*
X93920000Y-88500000D03*
G04 #@! TD*
D18*
G04 #@! TO.C,J2*
X91300000Y-32500000D03*
D19*
X91300000Y-34500000D03*
X91300000Y-36500000D03*
X91300000Y-38500000D03*
X91300000Y-40500000D03*
X91300000Y-42500000D03*
X91300000Y-44500000D03*
X91300000Y-46500000D03*
X91300000Y-48500000D03*
X91300000Y-50500000D03*
X91300000Y-52500000D03*
X91300000Y-54500000D03*
X91300000Y-56500000D03*
X91300000Y-58500000D03*
X91300000Y-60500000D03*
X91300000Y-62500000D03*
X91300000Y-64500000D03*
X91300000Y-66500000D03*
X91300000Y-68500000D03*
X91300000Y-70500000D03*
X91300000Y-72500000D03*
X91300000Y-74500000D03*
X91300000Y-76500000D03*
X91300000Y-78500000D03*
X91300000Y-80500000D03*
X91300000Y-82500000D03*
X91300000Y-84500000D03*
X91300000Y-86500000D03*
X91300000Y-88500000D03*
X91300000Y-90500000D03*
X91300000Y-92500000D03*
X91300000Y-94500000D03*
X91300000Y-96500000D03*
X91300000Y-98500000D03*
X91300000Y-100500000D03*
X91300000Y-102500000D03*
X91300000Y-104500000D03*
X91300000Y-106500000D03*
X91300000Y-108500000D03*
X91300000Y-110500000D03*
G04 #@! TD*
D13*
G04 #@! TO.C,R36*
X104080000Y-78500000D03*
D12*
X93920000Y-78500000D03*
G04 #@! TD*
D16*
G04 #@! TO.C,Q1*
X97230000Y-157860000D03*
D17*
X98500000Y-157860000D03*
X99770000Y-157860000D03*
G04 #@! TD*
D13*
G04 #@! TO.C,R107*
X101920000Y-103500000D03*
D12*
X112080000Y-103500000D03*
G04 #@! TD*
D16*
G04 #@! TO.C,Q33*
X167730000Y-72860000D03*
D17*
X169000000Y-72860000D03*
X170270000Y-72860000D03*
G04 #@! TD*
D13*
G04 #@! TO.C,R16*
X104080000Y-142500000D03*
D12*
X93920000Y-142500000D03*
G04 #@! TD*
D13*
G04 #@! TO.C,R43*
X104080000Y-96500000D03*
D12*
X93920000Y-96500000D03*
G04 #@! TD*
D13*
G04 #@! TO.C,R122*
X209580000Y-47500000D03*
D12*
X199420000Y-47500000D03*
G04 #@! TD*
D13*
G04 #@! TO.C,R123*
X209580000Y-49500000D03*
D12*
X199420000Y-49500000D03*
G04 #@! TD*
D13*
G04 #@! TO.C,R96*
X101920000Y-79500000D03*
D12*
X112080000Y-79500000D03*
G04 #@! TD*
D16*
G04 #@! TO.C,Q5*
X94230000Y-26360000D03*
D17*
X95500000Y-26360000D03*
X96770000Y-26360000D03*
G04 #@! TD*
D13*
G04 #@! TO.C,R111*
X101920000Y-111500000D03*
D12*
X112080000Y-111500000D03*
G04 #@! TD*
D13*
G04 #@! TO.C,R157*
X209580000Y-121500000D03*
D12*
X199420000Y-121500000D03*
G04 #@! TD*
D13*
G04 #@! TO.C,R94*
X101920000Y-75500000D03*
D12*
X112080000Y-75500000D03*
G04 #@! TD*
D13*
G04 #@! TO.C,R156*
X209580000Y-119500000D03*
D12*
X199420000Y-119500000D03*
G04 #@! TD*
D13*
G04 #@! TO.C,R9*
X104080000Y-128500000D03*
D12*
X93920000Y-128500000D03*
G04 #@! TD*
D13*
G04 #@! TO.C,R212*
X207420000Y-130500000D03*
D12*
X217580000Y-130500000D03*
G04 #@! TD*
D13*
G04 #@! TO.C,R118*
X173420000Y-73000000D03*
D12*
X183580000Y-73000000D03*
G04 #@! TD*
D13*
G04 #@! TO.C,R202*
X207420000Y-110500000D03*
D12*
X217580000Y-110500000D03*
G04 #@! TD*
D13*
G04 #@! TO.C,R18*
X104080000Y-42500000D03*
D12*
X93920000Y-42500000D03*
G04 #@! TD*
D13*
G04 #@! TO.C,R29*
X104080000Y-64500000D03*
D12*
X93920000Y-64500000D03*
G04 #@! TD*
D13*
G04 #@! TO.C,R205*
X207420000Y-116500000D03*
D12*
X217580000Y-116500000D03*
G04 #@! TD*
D13*
G04 #@! TO.C,R17*
X104080000Y-40500000D03*
D12*
X93920000Y-40500000D03*
G04 #@! TD*
D16*
G04 #@! TO.C,Q28*
X112230000Y-31860000D03*
D17*
X113500000Y-31860000D03*
X114770000Y-31860000D03*
G04 #@! TD*
D10*
G04 #@! TO.C,*
X90360000Y-26510000D03*
G04 #@! TD*
D13*
G04 #@! TO.C,R11*
X104080000Y-132500000D03*
D12*
X93920000Y-132500000D03*
G04 #@! TD*
D13*
G04 #@! TO.C,R162*
X209580000Y-131500000D03*
D12*
X199420000Y-131500000D03*
G04 #@! TD*
D13*
G04 #@! TO.C,R20*
X104080000Y-46500000D03*
D12*
X93920000Y-46500000D03*
G04 #@! TD*
D13*
G04 #@! TO.C,R100*
X101920000Y-87500000D03*
D12*
X112080000Y-87500000D03*
G04 #@! TD*
D13*
G04 #@! TO.C,R218*
X207420000Y-142500000D03*
D12*
X217580000Y-142500000D03*
G04 #@! TD*
D13*
G04 #@! TO.C,R74*
X101920000Y-139500000D03*
D12*
X112080000Y-139500000D03*
G04 #@! TD*
D13*
G04 #@! TO.C,R124*
X209580000Y-51500000D03*
D12*
X199420000Y-51500000D03*
G04 #@! TD*
D13*
G04 #@! TO.C,R215*
X207420000Y-136500000D03*
D12*
X217580000Y-136500000D03*
G04 #@! TD*
D13*
G04 #@! TO.C,R38*
X104080000Y-82500000D03*
D12*
X93920000Y-82500000D03*
G04 #@! TD*
D13*
G04 #@! TO.C,R40*
X104080000Y-86500000D03*
D12*
X93920000Y-86500000D03*
G04 #@! TD*
D13*
G04 #@! TO.C,R182*
X207420000Y-66500000D03*
D12*
X217580000Y-66500000D03*
G04 #@! TD*
D13*
G04 #@! TO.C,R214*
X207420000Y-134500000D03*
D12*
X217580000Y-134500000D03*
G04 #@! TD*
D13*
G04 #@! TO.C,R54*
X149500000Y-72810000D03*
D12*
X149500000Y-65190000D03*
G04 #@! TD*
D13*
G04 #@! TO.C,R53*
X133000000Y-85500000D03*
D12*
X133000000Y-93120000D03*
G04 #@! TD*
D13*
G04 #@! TO.C,R66*
X101920000Y-123500000D03*
D12*
X112080000Y-123500000D03*
G04 #@! TD*
D13*
G04 #@! TO.C,R199*
X207420000Y-104500000D03*
D12*
X217580000Y-104500000D03*
G04 #@! TD*
D16*
G04 #@! TO.C,Q18*
X166230000Y-32360000D03*
D17*
X167500000Y-32360000D03*
X168770000Y-32360000D03*
G04 #@! TD*
D13*
G04 #@! TO.C,R22*
X104080000Y-50500000D03*
D12*
X93920000Y-50500000D03*
G04 #@! TD*
D13*
G04 #@! TO.C,R10*
X104080000Y-130500000D03*
D12*
X93920000Y-130500000D03*
G04 #@! TD*
D13*
G04 #@! TO.C,R140*
X209580000Y-83500000D03*
D12*
X199420000Y-83500000D03*
G04 #@! TD*
D13*
G04 #@! TO.C,R169*
X207420000Y-40500000D03*
D12*
X217580000Y-40500000D03*
G04 #@! TD*
D13*
G04 #@! TO.C,R143*
X209580000Y-89500000D03*
D12*
X199420000Y-89500000D03*
G04 #@! TD*
D13*
G04 #@! TO.C,C6*
X160250000Y-59000000D03*
X157750000Y-59000000D03*
G04 #@! TD*
D14*
G04 #@! TO.C,Q10*
X116600000Y-144100000D03*
D15*
X116600000Y-142830000D03*
X116600000Y-141560000D03*
G04 #@! TD*
D13*
G04 #@! TO.C,C5*
X148550000Y-125900000D03*
X146050000Y-125900000D03*
G04 #@! TD*
D10*
G04 #@! TO.C,REF\u002A\u002A*
X90350000Y-157510000D03*
G04 #@! TD*
D13*
G04 #@! TO.C,R19*
X104080000Y-44500000D03*
D12*
X93920000Y-44500000D03*
G04 #@! TD*
D13*
G04 #@! TO.C,R206*
X207420000Y-118500000D03*
D12*
X217580000Y-118500000D03*
G04 #@! TD*
D13*
G04 #@! TO.C,R65*
X101920000Y-121500000D03*
D12*
X112080000Y-121500000D03*
G04 #@! TD*
D13*
G04 #@! TO.C,R208*
X207420000Y-122500000D03*
D12*
X217580000Y-122500000D03*
G04 #@! TD*
D13*
G04 #@! TO.C,R82*
X101920000Y-51500000D03*
D12*
X112080000Y-51500000D03*
G04 #@! TD*
D13*
G04 #@! TO.C,R128*
X209580000Y-59500000D03*
D12*
X199420000Y-59500000D03*
G04 #@! TD*
D13*
G04 #@! TO.C,R26*
X104080000Y-58500000D03*
D12*
X93920000Y-58500000D03*
G04 #@! TD*
D11*
G04 #@! TO.C,U6*
X155500000Y-66000000D03*
D12*
X155500000Y-68540000D03*
X155500000Y-71080000D03*
X155500000Y-73620000D03*
X155500000Y-76160000D03*
X155500000Y-78700000D03*
X155500000Y-81240000D03*
X155500000Y-83780000D03*
X163120000Y-83780000D03*
X163120000Y-81240000D03*
X163120000Y-78700000D03*
X163120000Y-76160000D03*
X163120000Y-73620000D03*
X163120000Y-71080000D03*
X163120000Y-68540000D03*
X163120000Y-66000000D03*
G04 #@! TD*
D16*
G04 #@! TO.C,Q29*
X106230000Y-31860000D03*
D17*
X107500000Y-31860000D03*
X108770000Y-31860000D03*
G04 #@! TD*
D13*
G04 #@! TO.C,R114*
X94920000Y-153500000D03*
D12*
X105080000Y-153500000D03*
G04 #@! TD*
D13*
G04 #@! TO.C,R21*
X104080000Y-48500000D03*
D12*
X93920000Y-48500000D03*
G04 #@! TD*
D13*
G04 #@! TO.C,R197*
X207420000Y-100500000D03*
D12*
X217580000Y-100500000D03*
G04 #@! TD*
D13*
G04 #@! TO.C,R186*
X207420000Y-74500000D03*
D12*
X217580000Y-74500000D03*
G04 #@! TD*
D13*
G04 #@! TO.C,R119*
X209580000Y-41500000D03*
D12*
X199420000Y-41500000D03*
G04 #@! TD*
D13*
G04 #@! TO.C,R75*
X101920000Y-141500000D03*
D12*
X112080000Y-141500000D03*
G04 #@! TD*
D13*
G04 #@! TO.C,R25*
X104080000Y-56500000D03*
D12*
X93920000Y-56500000D03*
G04 #@! TD*
D13*
G04 #@! TO.C,R168*
X209580000Y-143500000D03*
D12*
X199420000Y-143500000D03*
G04 #@! TD*
D13*
G04 #@! TO.C,R73*
X101920000Y-137500000D03*
D12*
X112080000Y-137500000D03*
G04 #@! TD*
D13*
G04 #@! TO.C,R102*
X101920000Y-89500000D03*
D12*
X112080000Y-89500000D03*
G04 #@! TD*
D16*
G04 #@! TO.C,Q25*
X130230000Y-32360000D03*
D17*
X131500000Y-32360000D03*
X132770000Y-32360000D03*
G04 #@! TD*
D13*
G04 #@! TO.C,R91*
X101920000Y-69500000D03*
D12*
X112080000Y-69500000D03*
G04 #@! TD*
D14*
G04 #@! TO.C,Q11*
X211140000Y-155230000D03*
D15*
X211140000Y-156500000D03*
X211140000Y-157770000D03*
G04 #@! TD*
D13*
G04 #@! TO.C,R92*
X101920000Y-71500000D03*
D12*
X112080000Y-71500000D03*
G04 #@! TD*
D16*
G04 #@! TO.C,Q9*
X94230000Y-31360000D03*
D17*
X95500000Y-31360000D03*
X96770000Y-31360000D03*
G04 #@! TD*
D13*
G04 #@! TO.C,R72*
X102000000Y-135500000D03*
D12*
X112160000Y-135500000D03*
G04 #@! TD*
D13*
G04 #@! TO.C,R161*
X209580000Y-129500000D03*
D12*
X199420000Y-129500000D03*
G04 #@! TD*
D13*
G04 #@! TO.C,R133*
X209580000Y-69500000D03*
D12*
X199420000Y-69500000D03*
G04 #@! TD*
D26*
G04 #@! TO.C,J10*
X141925000Y-93500000D03*
D27*
X144465000Y-93500000D03*
X147005000Y-93500000D03*
X149545000Y-93500000D03*
X152085000Y-93500000D03*
G04 #@! TD*
D28*
G04 #@! TO.C,J1*
X151500000Y-140000000D03*
D29*
X151500000Y-146000000D03*
D30*
X146800000Y-143000000D03*
G04 #@! TD*
D31*
G04 #@! TO.C,U4*
X173967500Y-126517500D03*
D32*
X176507500Y-126517500D03*
X179047500Y-126517500D03*
G04 #@! TD*
M02*
