%FSLAX45Y45*%
G04 Gerber Fmt 4.5, Leading zero omitted, Abs format (unit mm)*
G04 Created by KiCad (PCBNEW (6.0.5)) date 2022-09-02 23:19:00*
%MOMM*%
%LPD*%
G01*
G04 APERTURE LIST*
%TA.AperFunction,Profile*%
%ADD10C,0.100000*%
%TD*%
%ADD11C,0.200000*%
%ADD12C,0.430000*%
G04 APERTURE END LIST*
D10*
X8630000Y-2260000D02*
X22530000Y-2260000D01*
X22530000Y-2260000D02*
X22530000Y-16160000D01*
X22530000Y-16160000D02*
X8630000Y-16160000D01*
X8630000Y-16160000D02*
X8630000Y-2260000D01*
D11*
D12*
X8820000Y-15536000D02*
X9250000Y-15966000D01*
X9250000Y-15536000D02*
X8820000Y-15966000D01*
X8821000Y-2436000D02*
X9251000Y-2866000D01*
X9251000Y-2436000D02*
X8821000Y-2866000D01*
X21915000Y-2436000D02*
X22345000Y-2866000D01*
X22345000Y-2436000D02*
X21915000Y-2866000D01*
X21919000Y-15538000D02*
X22349000Y-15968000D01*
X22349000Y-15538000D02*
X21919000Y-15968000D01*
D11*
X8882619Y-16475476D02*
X8882619Y-16275476D01*
X8930238Y-16275476D01*
X8958810Y-16285000D01*
X8977857Y-16304048D01*
X8987381Y-16323095D01*
X8996905Y-16361190D01*
X8996905Y-16389762D01*
X8987381Y-16427857D01*
X8977857Y-16446905D01*
X8958810Y-16465952D01*
X8930238Y-16475476D01*
X8882619Y-16475476D01*
X9082619Y-16475476D02*
X9082619Y-16342143D01*
X9082619Y-16380238D02*
X9092143Y-16361190D01*
X9101667Y-16351667D01*
X9120714Y-16342143D01*
X9139762Y-16342143D01*
X9206429Y-16475476D02*
X9206429Y-16342143D01*
X9206429Y-16275476D02*
X9196905Y-16285000D01*
X9206429Y-16294524D01*
X9215952Y-16285000D01*
X9206429Y-16275476D01*
X9206429Y-16294524D01*
X9330238Y-16475476D02*
X9311190Y-16465952D01*
X9301667Y-16446905D01*
X9301667Y-16275476D01*
X9435000Y-16475476D02*
X9415952Y-16465952D01*
X9406429Y-16446905D01*
X9406429Y-16275476D01*
X9663571Y-16475476D02*
X9663571Y-16275476D01*
X9730238Y-16418333D01*
X9796905Y-16275476D01*
X9796905Y-16475476D01*
X9977857Y-16475476D02*
X9977857Y-16370714D01*
X9968333Y-16351667D01*
X9949286Y-16342143D01*
X9911190Y-16342143D01*
X9892143Y-16351667D01*
X9977857Y-16465952D02*
X9958810Y-16475476D01*
X9911190Y-16475476D01*
X9892143Y-16465952D01*
X9882619Y-16446905D01*
X9882619Y-16427857D01*
X9892143Y-16408809D01*
X9911190Y-16399286D01*
X9958810Y-16399286D01*
X9977857Y-16389762D01*
X10073095Y-16342143D02*
X10073095Y-16542143D01*
X10073095Y-16351667D02*
X10092143Y-16342143D01*
X10130238Y-16342143D01*
X10149286Y-16351667D01*
X10158810Y-16361190D01*
X10168333Y-16380238D01*
X10168333Y-16437381D01*
X10158810Y-16456428D01*
X10149286Y-16465952D01*
X10130238Y-16475476D01*
X10092143Y-16475476D01*
X10073095Y-16465952D01*
X10254048Y-16456428D02*
X10263571Y-16465952D01*
X10254048Y-16475476D01*
X10244524Y-16465952D01*
X10254048Y-16456428D01*
X10254048Y-16475476D01*
X10254048Y-16351667D02*
X10263571Y-16361190D01*
X10254048Y-16370714D01*
X10244524Y-16361190D01*
X10254048Y-16351667D01*
X10254048Y-16370714D01*
X8425000Y-16705000D02*
X8625000Y-16905000D01*
X8625000Y-16705000D02*
X8425000Y-16905000D01*
X8968333Y-16762143D02*
X8968333Y-16895476D01*
X8920714Y-16685952D02*
X8873095Y-16828810D01*
X8996905Y-16828810D01*
X9073095Y-16876429D02*
X9082619Y-16885952D01*
X9073095Y-16895476D01*
X9063571Y-16885952D01*
X9073095Y-16876429D01*
X9073095Y-16895476D01*
X9149286Y-16695476D02*
X9273095Y-16695476D01*
X9206429Y-16771667D01*
X9235000Y-16771667D01*
X9254048Y-16781190D01*
X9263571Y-16790714D01*
X9273095Y-16809762D01*
X9273095Y-16857381D01*
X9263571Y-16876429D01*
X9254048Y-16885952D01*
X9235000Y-16895476D01*
X9177857Y-16895476D01*
X9158810Y-16885952D01*
X9149286Y-16876429D01*
X9396905Y-16695476D02*
X9415952Y-16695476D01*
X9435000Y-16705000D01*
X9444524Y-16714524D01*
X9454048Y-16733571D01*
X9463571Y-16771667D01*
X9463571Y-16819286D01*
X9454048Y-16857381D01*
X9444524Y-16876429D01*
X9435000Y-16885952D01*
X9415952Y-16895476D01*
X9396905Y-16895476D01*
X9377857Y-16885952D01*
X9368333Y-16876429D01*
X9358810Y-16857381D01*
X9349286Y-16819286D01*
X9349286Y-16771667D01*
X9358810Y-16733571D01*
X9368333Y-16714524D01*
X9377857Y-16705000D01*
X9396905Y-16695476D01*
X9587381Y-16695476D02*
X9606429Y-16695476D01*
X9625476Y-16705000D01*
X9635000Y-16714524D01*
X9644524Y-16733571D01*
X9654048Y-16771667D01*
X9654048Y-16819286D01*
X9644524Y-16857381D01*
X9635000Y-16876429D01*
X9625476Y-16885952D01*
X9606429Y-16895476D01*
X9587381Y-16895476D01*
X9568333Y-16885952D01*
X9558810Y-16876429D01*
X9549286Y-16857381D01*
X9539762Y-16819286D01*
X9539762Y-16771667D01*
X9549286Y-16733571D01*
X9558810Y-16714524D01*
X9568333Y-16705000D01*
X9587381Y-16695476D01*
X9739762Y-16895476D02*
X9739762Y-16762143D01*
X9739762Y-16781190D02*
X9749286Y-16771667D01*
X9768333Y-16762143D01*
X9796905Y-16762143D01*
X9815952Y-16771667D01*
X9825476Y-16790714D01*
X9825476Y-16895476D01*
X9825476Y-16790714D02*
X9835000Y-16771667D01*
X9854048Y-16762143D01*
X9882619Y-16762143D01*
X9901667Y-16771667D01*
X9911190Y-16790714D01*
X9911190Y-16895476D01*
X10006429Y-16895476D02*
X10006429Y-16762143D01*
X10006429Y-16781190D02*
X10015952Y-16771667D01*
X10035000Y-16762143D01*
X10063571Y-16762143D01*
X10082619Y-16771667D01*
X10092143Y-16790714D01*
X10092143Y-16895476D01*
X10092143Y-16790714D02*
X10101667Y-16771667D01*
X10120714Y-16762143D01*
X10149286Y-16762143D01*
X10168333Y-16771667D01*
X10177857Y-16790714D01*
X10177857Y-16895476D01*
X10568333Y-16685952D02*
X10396905Y-16943095D01*
X10825476Y-16695476D02*
X10844524Y-16695476D01*
X10863571Y-16705000D01*
X10873095Y-16714524D01*
X10882619Y-16733571D01*
X10892143Y-16771667D01*
X10892143Y-16819286D01*
X10882619Y-16857381D01*
X10873095Y-16876429D01*
X10863571Y-16885952D01*
X10844524Y-16895476D01*
X10825476Y-16895476D01*
X10806429Y-16885952D01*
X10796905Y-16876429D01*
X10787381Y-16857381D01*
X10777857Y-16819286D01*
X10777857Y-16771667D01*
X10787381Y-16733571D01*
X10796905Y-16714524D01*
X10806429Y-16705000D01*
X10825476Y-16695476D01*
X10977857Y-16876429D02*
X10987381Y-16885952D01*
X10977857Y-16895476D01*
X10968333Y-16885952D01*
X10977857Y-16876429D01*
X10977857Y-16895476D01*
X11177857Y-16895476D02*
X11063571Y-16895476D01*
X11120714Y-16895476D02*
X11120714Y-16695476D01*
X11101667Y-16724048D01*
X11082619Y-16743095D01*
X11063571Y-16752619D01*
X11349286Y-16695476D02*
X11311190Y-16695476D01*
X11292143Y-16705000D01*
X11282619Y-16714524D01*
X11263571Y-16743095D01*
X11254048Y-16781190D01*
X11254048Y-16857381D01*
X11263571Y-16876429D01*
X11273095Y-16885952D01*
X11292143Y-16895476D01*
X11330238Y-16895476D01*
X11349286Y-16885952D01*
X11358809Y-16876429D01*
X11368333Y-16857381D01*
X11368333Y-16809762D01*
X11358809Y-16790714D01*
X11349286Y-16781190D01*
X11330238Y-16771667D01*
X11292143Y-16771667D01*
X11273095Y-16781190D01*
X11263571Y-16790714D01*
X11254048Y-16809762D01*
X11463571Y-16895476D02*
X11501667Y-16895476D01*
X11520714Y-16885952D01*
X11530238Y-16876429D01*
X11549286Y-16847857D01*
X11558809Y-16809762D01*
X11558809Y-16733571D01*
X11549286Y-16714524D01*
X11539762Y-16705000D01*
X11520714Y-16695476D01*
X11482619Y-16695476D01*
X11463571Y-16705000D01*
X11454048Y-16714524D01*
X11444524Y-16733571D01*
X11444524Y-16781190D01*
X11454048Y-16800238D01*
X11463571Y-16809762D01*
X11482619Y-16819286D01*
X11520714Y-16819286D01*
X11539762Y-16809762D01*
X11549286Y-16800238D01*
X11558809Y-16781190D01*
X11625476Y-16695476D02*
X11749286Y-16695476D01*
X11682619Y-16771667D01*
X11711190Y-16771667D01*
X11730238Y-16781190D01*
X11739762Y-16790714D01*
X11749286Y-16809762D01*
X11749286Y-16857381D01*
X11739762Y-16876429D01*
X11730238Y-16885952D01*
X11711190Y-16895476D01*
X11654048Y-16895476D01*
X11635000Y-16885952D01*
X11625476Y-16876429D01*
X11825476Y-16695476D02*
X11825476Y-16733571D01*
X11901667Y-16695476D02*
X11901667Y-16733571D01*
X12196905Y-16971667D02*
X12187381Y-16962143D01*
X12168333Y-16933571D01*
X12158809Y-16914524D01*
X12149286Y-16885952D01*
X12139762Y-16838333D01*
X12139762Y-16800238D01*
X12149286Y-16752619D01*
X12158809Y-16724048D01*
X12168333Y-16705000D01*
X12187381Y-16676428D01*
X12196905Y-16666905D01*
X12358809Y-16762143D02*
X12358809Y-16895476D01*
X12311190Y-16685952D02*
X12263571Y-16828810D01*
X12387381Y-16828810D01*
X12615952Y-16895476D02*
X12615952Y-16695476D01*
X12701667Y-16895476D02*
X12701667Y-16790714D01*
X12692143Y-16771667D01*
X12673095Y-16762143D01*
X12644524Y-16762143D01*
X12625476Y-16771667D01*
X12615952Y-16781190D01*
X12825476Y-16895476D02*
X12806428Y-16885952D01*
X12796905Y-16876429D01*
X12787381Y-16857381D01*
X12787381Y-16800238D01*
X12796905Y-16781190D01*
X12806428Y-16771667D01*
X12825476Y-16762143D01*
X12854048Y-16762143D01*
X12873095Y-16771667D01*
X12882619Y-16781190D01*
X12892143Y-16800238D01*
X12892143Y-16857381D01*
X12882619Y-16876429D01*
X12873095Y-16885952D01*
X12854048Y-16895476D01*
X12825476Y-16895476D01*
X13006428Y-16895476D02*
X12987381Y-16885952D01*
X12977857Y-16866905D01*
X12977857Y-16695476D01*
X13158809Y-16885952D02*
X13139762Y-16895476D01*
X13101667Y-16895476D01*
X13082619Y-16885952D01*
X13073095Y-16866905D01*
X13073095Y-16790714D01*
X13082619Y-16771667D01*
X13101667Y-16762143D01*
X13139762Y-16762143D01*
X13158809Y-16771667D01*
X13168333Y-16790714D01*
X13168333Y-16809762D01*
X13073095Y-16828810D01*
X13244524Y-16885952D02*
X13263571Y-16895476D01*
X13301667Y-16895476D01*
X13320714Y-16885952D01*
X13330238Y-16866905D01*
X13330238Y-16857381D01*
X13320714Y-16838333D01*
X13301667Y-16828810D01*
X13273095Y-16828810D01*
X13254048Y-16819286D01*
X13244524Y-16800238D01*
X13244524Y-16790714D01*
X13254048Y-16771667D01*
X13273095Y-16762143D01*
X13301667Y-16762143D01*
X13320714Y-16771667D01*
X13396905Y-16971667D02*
X13406428Y-16962143D01*
X13425476Y-16933571D01*
X13435000Y-16914524D01*
X13444524Y-16885952D01*
X13454048Y-16838333D01*
X13454048Y-16800238D01*
X13444524Y-16752619D01*
X13435000Y-16724048D01*
X13425476Y-16705000D01*
X13406428Y-16676428D01*
X13396905Y-16666905D01*
X13758809Y-16971667D02*
X13749286Y-16962143D01*
X13730238Y-16933571D01*
X13720714Y-16914524D01*
X13711190Y-16885952D01*
X13701667Y-16838333D01*
X13701667Y-16800238D01*
X13711190Y-16752619D01*
X13720714Y-16724048D01*
X13730238Y-16705000D01*
X13749286Y-16676428D01*
X13758809Y-16666905D01*
X13835000Y-16762143D02*
X13835000Y-16895476D01*
X13835000Y-16781190D02*
X13844524Y-16771667D01*
X13863571Y-16762143D01*
X13892143Y-16762143D01*
X13911190Y-16771667D01*
X13920714Y-16790714D01*
X13920714Y-16895476D01*
X14044524Y-16895476D02*
X14025476Y-16885952D01*
X14015952Y-16876429D01*
X14006428Y-16857381D01*
X14006428Y-16800238D01*
X14015952Y-16781190D01*
X14025476Y-16771667D01*
X14044524Y-16762143D01*
X14073095Y-16762143D01*
X14092143Y-16771667D01*
X14101667Y-16781190D01*
X14111190Y-16800238D01*
X14111190Y-16857381D01*
X14101667Y-16876429D01*
X14092143Y-16885952D01*
X14073095Y-16895476D01*
X14044524Y-16895476D01*
X14168333Y-16762143D02*
X14244524Y-16762143D01*
X14196905Y-16695476D02*
X14196905Y-16866905D01*
X14206428Y-16885952D01*
X14225476Y-16895476D01*
X14244524Y-16895476D01*
X14463571Y-16762143D02*
X14463571Y-16962143D01*
X14463571Y-16771667D02*
X14482619Y-16762143D01*
X14520714Y-16762143D01*
X14539762Y-16771667D01*
X14549286Y-16781190D01*
X14558809Y-16800238D01*
X14558809Y-16857381D01*
X14549286Y-16876429D01*
X14539762Y-16885952D01*
X14520714Y-16895476D01*
X14482619Y-16895476D01*
X14463571Y-16885952D01*
X14673095Y-16895476D02*
X14654048Y-16885952D01*
X14644524Y-16866905D01*
X14644524Y-16695476D01*
X14835000Y-16895476D02*
X14835000Y-16790714D01*
X14825476Y-16771667D01*
X14806428Y-16762143D01*
X14768333Y-16762143D01*
X14749286Y-16771667D01*
X14835000Y-16885952D02*
X14815952Y-16895476D01*
X14768333Y-16895476D01*
X14749286Y-16885952D01*
X14739762Y-16866905D01*
X14739762Y-16847857D01*
X14749286Y-16828810D01*
X14768333Y-16819286D01*
X14815952Y-16819286D01*
X14835000Y-16809762D01*
X14901667Y-16762143D02*
X14977857Y-16762143D01*
X14930238Y-16695476D02*
X14930238Y-16866905D01*
X14939762Y-16885952D01*
X14958809Y-16895476D01*
X14977857Y-16895476D01*
X15120714Y-16885952D02*
X15101667Y-16895476D01*
X15063571Y-16895476D01*
X15044524Y-16885952D01*
X15035000Y-16866905D01*
X15035000Y-16790714D01*
X15044524Y-16771667D01*
X15063571Y-16762143D01*
X15101667Y-16762143D01*
X15120714Y-16771667D01*
X15130238Y-16790714D01*
X15130238Y-16809762D01*
X15035000Y-16828810D01*
X15301667Y-16895476D02*
X15301667Y-16695476D01*
X15301667Y-16885952D02*
X15282619Y-16895476D01*
X15244524Y-16895476D01*
X15225476Y-16885952D01*
X15215952Y-16876429D01*
X15206428Y-16857381D01*
X15206428Y-16800238D01*
X15215952Y-16781190D01*
X15225476Y-16771667D01*
X15244524Y-16762143D01*
X15282619Y-16762143D01*
X15301667Y-16771667D01*
X15377857Y-16971667D02*
X15387381Y-16962143D01*
X15406428Y-16933571D01*
X15415952Y-16914524D01*
X15425476Y-16885952D01*
X15435000Y-16838333D01*
X15435000Y-16800238D01*
X15425476Y-16752619D01*
X15415952Y-16724048D01*
X15406428Y-16705000D01*
X15387381Y-16676428D01*
X15377857Y-16666905D01*
M02*
