G04 #@! TF.GenerationSoftware,KiCad,Pcbnew,(6.0.5)*
G04 #@! TF.CreationDate,2022-07-20T21:29:26+01:00*
G04 #@! TF.ProjectId,screen-driver,73637265-656e-42d6-9472-697665722e6b,rev?*
G04 #@! TF.SameCoordinates,Original*
G04 #@! TF.FileFunction,Soldermask,Top*
G04 #@! TF.FilePolarity,Negative*
%FSLAX46Y46*%
G04 Gerber Fmt 4.6, Leading zero omitted, Abs format (unit mm)*
G04 Created by KiCad (PCBNEW (6.0.5)) date 2022-07-20 21:29:26*
%MOMM*%
%LPD*%
G01*
G04 APERTURE LIST*
G04 Aperture macros list*
%AMRoundRect*
0 Rectangle with rounded corners*
0 $1 Rounding radius*
0 $2 $3 $4 $5 $6 $7 $8 $9 X,Y pos of 4 corners*
0 Add a 4 corners polygon primitive as box body*
4,1,4,$2,$3,$4,$5,$6,$7,$8,$9,$2,$3,0*
0 Add four circle primitives for the rounded corners*
1,1,$1+$1,$2,$3*
1,1,$1+$1,$4,$5*
1,1,$1+$1,$6,$7*
1,1,$1+$1,$8,$9*
0 Add four rect primitives between the rounded corners*
20,1,$1+$1,$2,$3,$4,$5,0*
20,1,$1+$1,$4,$5,$6,$7,0*
20,1,$1+$1,$6,$7,$8,$9,0*
20,1,$1+$1,$8,$9,$2,$3,0*%
G04 Aperture macros list end*
%ADD10C,4.300000*%
%ADD11RoundRect,0.100000X-0.217500X-0.100000X0.217500X-0.100000X0.217500X0.100000X-0.217500X0.100000X0*%
%ADD12RoundRect,0.100000X0.217500X0.100000X-0.217500X0.100000X-0.217500X-0.100000X0.217500X-0.100000X0*%
%ADD13C,1.600000*%
%ADD14O,1.600000X1.600000*%
%ADD15R,1.050000X1.500000*%
%ADD16O,1.050000X1.500000*%
%ADD17R,1.350000X1.350000*%
%ADD18O,1.350000X1.350000*%
%ADD19R,1.500000X1.050000*%
%ADD20O,1.500000X1.050000*%
%ADD21R,1.600000X1.600000*%
%ADD22R,1.700000X1.700000*%
%ADD23O,1.700000X1.700000*%
%ADD24RoundRect,0.075000X-0.075000X0.662500X-0.075000X-0.662500X0.075000X-0.662500X0.075000X0.662500X0*%
%ADD25RoundRect,0.075000X-0.662500X0.075000X-0.662500X-0.075000X0.662500X-0.075000X0.662500X0.075000X0*%
%ADD26C,6.000000*%
%ADD27R,1.560000X1.560000*%
%ADD28C,1.560000*%
%ADD29R,1.500000X2.500000*%
%ADD30O,1.500000X2.500000*%
%ADD31R,3.500000X3.500000*%
%ADD32RoundRect,0.750000X1.000000X-0.750000X1.000000X0.750000X-1.000000X0.750000X-1.000000X-0.750000X0*%
%ADD33RoundRect,0.875000X0.875000X-0.875000X0.875000X0.875000X-0.875000X0.875000X-0.875000X-0.875000X0*%
G04 APERTURE END LIST*
D10*
G04 #@! TO.C,*
X221300000Y-27210000D03*
G04 #@! TD*
D11*
G04 #@! TO.C,R36*
X94265000Y-115200000D03*
X95080000Y-115200000D03*
G04 #@! TD*
D12*
G04 #@! TO.C,R92*
X217407500Y-107240000D03*
X216592500Y-107240000D03*
G04 #@! TD*
D13*
G04 #@! TO.C,R55*
X158310000Y-52500000D03*
D14*
X150690000Y-52500000D03*
G04 #@! TD*
D15*
G04 #@! TO.C,Q4*
X142700000Y-52700000D03*
D16*
X143970000Y-52700000D03*
X145240000Y-52700000D03*
G04 #@! TD*
D17*
G04 #@! TO.C,J7*
X184700000Y-157200000D03*
D18*
X186700000Y-157200000D03*
X188700000Y-157200000D03*
X190700000Y-157200000D03*
X192700000Y-157200000D03*
X194700000Y-157200000D03*
X196700000Y-157200000D03*
X198700000Y-157200000D03*
X200700000Y-157200000D03*
X202700000Y-157200000D03*
X204700000Y-157200000D03*
X206700000Y-157200000D03*
G04 #@! TD*
D13*
G04 #@! TO.C,R56*
X158110000Y-62900000D03*
D14*
X150490000Y-62900000D03*
G04 #@! TD*
D17*
G04 #@! TO.C,J6*
X184920000Y-28100000D03*
D18*
X186920000Y-28100000D03*
X188920000Y-28100000D03*
X190920000Y-28100000D03*
X192920000Y-28100000D03*
X194920000Y-28100000D03*
X196920000Y-28100000D03*
X198920000Y-28100000D03*
X200920000Y-28100000D03*
X202920000Y-28100000D03*
X204920000Y-28100000D03*
X206920000Y-28100000D03*
G04 #@! TD*
D12*
G04 #@! TO.C,R64*
X217375000Y-47240000D03*
X216560000Y-47240000D03*
G04 #@! TD*
G04 #@! TO.C,R68*
X217507500Y-55140000D03*
X216692500Y-55140000D03*
G04 #@! TD*
D13*
G04 #@! TO.C,C3*
X193900000Y-63300000D03*
X196400000Y-63300000D03*
G04 #@! TD*
D11*
G04 #@! TO.C,R42*
X94132500Y-127200000D03*
X94947500Y-127200000D03*
G04 #@! TD*
D13*
G04 #@! TO.C,C1*
X164800000Y-72600000D03*
X167300000Y-72600000D03*
G04 #@! TD*
D12*
G04 #@! TO.C,R87*
X217607500Y-97040000D03*
X216792500Y-97040000D03*
G04 #@! TD*
D17*
G04 #@! TO.C,J5*
X104720000Y-157200000D03*
D18*
X106720000Y-157200000D03*
X108720000Y-157200000D03*
X110720000Y-157200000D03*
X112720000Y-157200000D03*
X114720000Y-157200000D03*
X116720000Y-157200000D03*
X118720000Y-157200000D03*
X120720000Y-157200000D03*
X122720000Y-157200000D03*
X124720000Y-157200000D03*
X126720000Y-157200000D03*
X128720000Y-157200000D03*
X130720000Y-157200000D03*
X132720000Y-157200000D03*
X134720000Y-157200000D03*
X136720000Y-157200000D03*
X138720000Y-157200000D03*
X140720000Y-157200000D03*
X142720000Y-157200000D03*
X144720000Y-157200000D03*
X146720000Y-157200000D03*
X148720000Y-157200000D03*
X150720000Y-157200000D03*
X152720000Y-157200000D03*
X154720000Y-157200000D03*
X156720000Y-157200000D03*
X158720000Y-157200000D03*
X160720000Y-157200000D03*
X162720000Y-157200000D03*
X164720000Y-157200000D03*
X166720000Y-157200000D03*
X168720000Y-157200000D03*
X170720000Y-157200000D03*
X172720000Y-157200000D03*
X174720000Y-157200000D03*
X176720000Y-157200000D03*
X178720000Y-157200000D03*
X180720000Y-157200000D03*
X182720000Y-157200000D03*
G04 #@! TD*
D17*
G04 #@! TO.C,J9*
X220300000Y-113240000D03*
D18*
X220300000Y-115240000D03*
X220300000Y-117240000D03*
X220300000Y-119240000D03*
X220300000Y-121240000D03*
X220300000Y-123240000D03*
X220300000Y-125240000D03*
X220300000Y-127240000D03*
X220300000Y-129240000D03*
X220300000Y-131240000D03*
X220300000Y-133240000D03*
X220300000Y-135240000D03*
X220300000Y-137240000D03*
X220300000Y-139240000D03*
X220300000Y-141240000D03*
X220300000Y-143240000D03*
X220300000Y-145240000D03*
X220300000Y-147240000D03*
X220300000Y-149240000D03*
X220300000Y-151240000D03*
G04 #@! TD*
D13*
G04 #@! TO.C,C4*
X145550000Y-88300000D03*
X148050000Y-88300000D03*
G04 #@! TD*
D11*
G04 #@! TO.C,R13*
X94172500Y-65100000D03*
X94987500Y-65100000D03*
G04 #@! TD*
G04 #@! TO.C,R50*
X94240000Y-143200000D03*
X95055000Y-143200000D03*
G04 #@! TD*
G04 #@! TO.C,R41*
X94105000Y-125200000D03*
X94920000Y-125200000D03*
G04 #@! TD*
D15*
G04 #@! TO.C,Q27*
X121800000Y-34200000D03*
D16*
X123070000Y-34200000D03*
X124340000Y-34200000D03*
G04 #@! TD*
D15*
G04 #@! TO.C,Q32*
X174430000Y-51560000D03*
D16*
X175700000Y-51560000D03*
X176970000Y-51560000D03*
G04 #@! TD*
D12*
G04 #@! TO.C,R95*
X217607500Y-113240000D03*
X216792500Y-113240000D03*
G04 #@! TD*
D11*
G04 #@! TO.C,R43*
X94140000Y-129200000D03*
X94955000Y-129200000D03*
G04 #@! TD*
G04 #@! TO.C,R29*
X94172500Y-101300000D03*
X94987500Y-101300000D03*
G04 #@! TD*
D17*
G04 #@! TO.C,J3*
X91300000Y-113200000D03*
D18*
X91300000Y-115200000D03*
X91300000Y-117200000D03*
X91300000Y-119200000D03*
X91300000Y-121200000D03*
X91300000Y-123200000D03*
X91300000Y-125200000D03*
X91300000Y-127200000D03*
X91300000Y-129200000D03*
X91300000Y-131200000D03*
X91300000Y-133200000D03*
X91300000Y-135200000D03*
X91300000Y-137200000D03*
X91300000Y-139200000D03*
X91300000Y-141200000D03*
X91300000Y-143200000D03*
X91300000Y-145200000D03*
X91300000Y-147200000D03*
X91300000Y-149200000D03*
X91300000Y-151200000D03*
G04 #@! TD*
D11*
G04 #@! TO.C,R4*
X94165000Y-47200000D03*
X94980000Y-47200000D03*
G04 #@! TD*
D12*
G04 #@! TO.C,R86*
X217675000Y-95140000D03*
X216860000Y-95140000D03*
G04 #@! TD*
D15*
G04 #@! TO.C,Q9*
X142600000Y-72200000D03*
D16*
X143870000Y-72200000D03*
X145140000Y-72200000D03*
G04 #@! TD*
D12*
G04 #@! TO.C,R74*
X217607500Y-67140000D03*
X216792500Y-67140000D03*
G04 #@! TD*
D11*
G04 #@! TO.C,R17*
X94240000Y-73200000D03*
X95055000Y-73200000D03*
G04 #@! TD*
G04 #@! TO.C,R47*
X94072500Y-137200000D03*
X94887500Y-137200000D03*
G04 #@! TD*
D15*
G04 #@! TO.C,Q10*
X129700000Y-151600000D03*
D16*
X130970000Y-151600000D03*
X132240000Y-151600000D03*
G04 #@! TD*
D11*
G04 #@! TO.C,R20*
X94272500Y-79200000D03*
X95087500Y-79200000D03*
G04 #@! TD*
D19*
G04 #@! TO.C,Q12*
X186300000Y-67100000D03*
D20*
X186300000Y-68370000D03*
X186300000Y-69640000D03*
G04 #@! TD*
D12*
G04 #@! TO.C,R89*
X217475000Y-101240000D03*
X216660000Y-101240000D03*
G04 #@! TD*
G04 #@! TO.C,R76*
X217515000Y-71240000D03*
X216700000Y-71240000D03*
G04 #@! TD*
G04 #@! TO.C,R75*
X217575000Y-69240000D03*
X216760000Y-69240000D03*
G04 #@! TD*
D13*
G04 #@! TO.C,R57*
X158110000Y-66300000D03*
D14*
X150490000Y-66300000D03*
G04 #@! TD*
D13*
G04 #@! TO.C,R58*
X173200000Y-68100000D03*
D14*
X180820000Y-68100000D03*
G04 #@! TD*
D12*
G04 #@! TO.C,R97*
X217642500Y-117340000D03*
X216827500Y-117340000D03*
G04 #@! TD*
D15*
G04 #@! TO.C,Q22*
X148530000Y-34100000D03*
D16*
X149800000Y-34100000D03*
X151070000Y-34100000D03*
G04 #@! TD*
D11*
G04 #@! TO.C,R6*
X94140000Y-51200000D03*
X94955000Y-51200000D03*
G04 #@! TD*
D15*
G04 #@! TO.C,Q28*
X110230000Y-34260000D03*
D16*
X111500000Y-34260000D03*
X112770000Y-34260000D03*
G04 #@! TD*
D15*
G04 #@! TO.C,Q30*
X104270000Y-151040000D03*
D16*
X105540000Y-151040000D03*
X106810000Y-151040000D03*
G04 #@! TD*
D11*
G04 #@! TO.C,R10*
X94005000Y-59200000D03*
X94820000Y-59200000D03*
G04 #@! TD*
D15*
G04 #@! TO.C,Q16*
X179130000Y-34260000D03*
D16*
X180400000Y-34260000D03*
X181670000Y-34260000D03*
G04 #@! TD*
D12*
G04 #@! TO.C,R106*
X217475000Y-133240000D03*
X216660000Y-133240000D03*
G04 #@! TD*
D13*
G04 #@! TO.C,R54*
X158210000Y-48725000D03*
D14*
X150590000Y-48725000D03*
G04 #@! TD*
D11*
G04 #@! TO.C,R32*
X94272500Y-107200000D03*
X95087500Y-107200000D03*
G04 #@! TD*
D12*
G04 #@! TO.C,R67*
X217500000Y-53240000D03*
X216685000Y-53240000D03*
G04 #@! TD*
G04 #@! TO.C,R94*
X217407500Y-111240000D03*
X216592500Y-111240000D03*
G04 #@! TD*
D15*
G04 #@! TO.C,Q29*
X114100000Y-41860000D03*
D16*
X115370000Y-41860000D03*
X116640000Y-41860000D03*
G04 #@! TD*
D15*
G04 #@! TO.C,Q26*
X142430000Y-45960000D03*
D16*
X143700000Y-45960000D03*
X144970000Y-45960000D03*
G04 #@! TD*
D12*
G04 #@! TO.C,R103*
X217507500Y-127140000D03*
X216692500Y-127140000D03*
G04 #@! TD*
G04 #@! TO.C,R83*
X217375000Y-85240000D03*
X216560000Y-85240000D03*
G04 #@! TD*
D10*
G04 #@! TO.C,*
X221340000Y-158230000D03*
G04 #@! TD*
D13*
G04 #@! TO.C,R101*
X158310000Y-56000000D03*
D14*
X150690000Y-56000000D03*
G04 #@! TD*
D15*
G04 #@! TO.C,Q19*
X160100000Y-34300000D03*
D16*
X161370000Y-34300000D03*
X162640000Y-34300000D03*
G04 #@! TD*
D17*
G04 #@! TO.C,J8*
X220300000Y-33200000D03*
D18*
X220300000Y-35200000D03*
X220300000Y-37200000D03*
X220300000Y-39200000D03*
X220300000Y-41200000D03*
X220300000Y-43200000D03*
X220300000Y-45200000D03*
X220300000Y-47200000D03*
X220300000Y-49200000D03*
X220300000Y-51200000D03*
X220300000Y-53200000D03*
X220300000Y-55200000D03*
X220300000Y-57200000D03*
X220300000Y-59200000D03*
X220300000Y-61200000D03*
X220300000Y-63200000D03*
X220300000Y-65200000D03*
X220300000Y-67200000D03*
X220300000Y-69200000D03*
X220300000Y-71200000D03*
X220300000Y-73200000D03*
X220300000Y-75200000D03*
X220300000Y-77200000D03*
X220300000Y-79200000D03*
X220300000Y-81200000D03*
X220300000Y-83200000D03*
X220300000Y-85200000D03*
X220300000Y-87200000D03*
X220300000Y-89200000D03*
X220300000Y-91200000D03*
X220300000Y-93200000D03*
X220300000Y-95200000D03*
X220300000Y-97200000D03*
X220300000Y-99200000D03*
X220300000Y-101200000D03*
X220300000Y-103200000D03*
X220300000Y-105200000D03*
X220300000Y-107200000D03*
X220300000Y-109200000D03*
X220300000Y-111200000D03*
G04 #@! TD*
D12*
G04 #@! TO.C,R73*
X217575000Y-65140000D03*
X216760000Y-65140000D03*
G04 #@! TD*
D11*
G04 #@! TO.C,R39*
X94340000Y-121200000D03*
X95155000Y-121200000D03*
G04 #@! TD*
D21*
G04 #@! TO.C,U5*
X161900000Y-50400000D03*
D14*
X161900000Y-52940000D03*
X161900000Y-55480000D03*
X161900000Y-58020000D03*
X161900000Y-60560000D03*
X161900000Y-63100000D03*
X161900000Y-65640000D03*
X161900000Y-68180000D03*
X169520000Y-68180000D03*
X169520000Y-65640000D03*
X169520000Y-63100000D03*
X169520000Y-60560000D03*
X169520000Y-58020000D03*
X169520000Y-55480000D03*
X169520000Y-52940000D03*
X169520000Y-50400000D03*
G04 #@! TD*
D12*
G04 #@! TO.C,R85*
X217307500Y-89240000D03*
X216492500Y-89240000D03*
G04 #@! TD*
D22*
G04 #@! TO.C,J11*
X134830000Y-113850000D03*
D23*
X134830000Y-116390000D03*
X134830000Y-118930000D03*
X134830000Y-121470000D03*
G04 #@! TD*
D12*
G04 #@! TO.C,R71*
X217607500Y-61240000D03*
X216792500Y-61240000D03*
G04 #@! TD*
D11*
G04 #@! TO.C,R14*
X94140000Y-67200000D03*
X94955000Y-67200000D03*
G04 #@! TD*
G04 #@! TO.C,R46*
X94072500Y-135200000D03*
X94887500Y-135200000D03*
G04 #@! TD*
D13*
G04 #@! TO.C,R113*
X158400000Y-88400000D03*
D14*
X150780000Y-88400000D03*
G04 #@! TD*
D11*
G04 #@! TO.C,R26*
X94040000Y-95200000D03*
X94855000Y-95200000D03*
G04 #@! TD*
D15*
G04 #@! TO.C,Q11*
X200830000Y-150760000D03*
D16*
X202100000Y-150760000D03*
X203370000Y-150760000D03*
G04 #@! TD*
D12*
G04 #@! TO.C,R81*
X217400000Y-81240000D03*
X216585000Y-81240000D03*
G04 #@! TD*
G04 #@! TO.C,R66*
X217475000Y-51340000D03*
X216660000Y-51340000D03*
G04 #@! TD*
D11*
G04 #@! TO.C,R33*
X94080000Y-109200000D03*
X94895000Y-109200000D03*
G04 #@! TD*
D12*
G04 #@! TO.C,R79*
X217407500Y-77140000D03*
X216592500Y-77140000D03*
G04 #@! TD*
D11*
G04 #@! TO.C,R3*
X94192500Y-45200000D03*
X95007500Y-45200000D03*
G04 #@! TD*
G04 #@! TO.C,R40*
X94405000Y-123200000D03*
X95220000Y-123200000D03*
G04 #@! TD*
G04 #@! TO.C,R23*
X94172500Y-85200000D03*
X94987500Y-85200000D03*
G04 #@! TD*
D17*
G04 #@! TO.C,J4*
X104900000Y-28100000D03*
D18*
X106900000Y-28100000D03*
X108900000Y-28100000D03*
X110900000Y-28100000D03*
X112900000Y-28100000D03*
X114900000Y-28100000D03*
X116900000Y-28100000D03*
X118900000Y-28100000D03*
X120900000Y-28100000D03*
X122900000Y-28100000D03*
X124900000Y-28100000D03*
X126900000Y-28100000D03*
X128900000Y-28100000D03*
X130900000Y-28100000D03*
X132900000Y-28100000D03*
X134900000Y-28100000D03*
X136900000Y-28100000D03*
X138900000Y-28100000D03*
X140900000Y-28100000D03*
X142900000Y-28100000D03*
X144900000Y-28100000D03*
X146900000Y-28100000D03*
X148900000Y-28100000D03*
X150900000Y-28100000D03*
X152900000Y-28100000D03*
X154900000Y-28100000D03*
X156900000Y-28100000D03*
X158900000Y-28100000D03*
X160900000Y-28100000D03*
X162900000Y-28100000D03*
X164900000Y-28100000D03*
X166900000Y-28100000D03*
X168900000Y-28100000D03*
X170900000Y-28100000D03*
X172900000Y-28100000D03*
X174900000Y-28100000D03*
X176900000Y-28100000D03*
X178900000Y-28100000D03*
X180900000Y-28100000D03*
X182900000Y-28100000D03*
G04 #@! TD*
D15*
G04 #@! TO.C,Q8*
X142700000Y-59200000D03*
D16*
X143970000Y-59200000D03*
X145240000Y-59200000D03*
G04 #@! TD*
D15*
G04 #@! TO.C,Q31*
X116030000Y-34260000D03*
D16*
X117300000Y-34260000D03*
X118570000Y-34260000D03*
G04 #@! TD*
D12*
G04 #@! TO.C,R90*
X217407500Y-103240000D03*
X216592500Y-103240000D03*
G04 #@! TD*
D15*
G04 #@! TO.C,Q25*
X131530000Y-34060000D03*
D16*
X132800000Y-34060000D03*
X134070000Y-34060000D03*
G04 #@! TD*
D24*
G04 #@! TO.C,U1*
X127200000Y-88337500D03*
X126700000Y-88337500D03*
X126200000Y-88337500D03*
X125700000Y-88337500D03*
X125200000Y-88337500D03*
X124700000Y-88337500D03*
X124200000Y-88337500D03*
X123700000Y-88337500D03*
X123200000Y-88337500D03*
X122700000Y-88337500D03*
X122200000Y-88337500D03*
X121700000Y-88337500D03*
X121200000Y-88337500D03*
X120700000Y-88337500D03*
X120200000Y-88337500D03*
X119700000Y-88337500D03*
X119200000Y-88337500D03*
X118700000Y-88337500D03*
X118200000Y-88337500D03*
X117700000Y-88337500D03*
X117200000Y-88337500D03*
X116700000Y-88337500D03*
X116200000Y-88337500D03*
X115700000Y-88337500D03*
X115200000Y-88337500D03*
D25*
X113537500Y-90000000D03*
X113537500Y-90500000D03*
X113537500Y-91000000D03*
X113537500Y-91500000D03*
X113537500Y-92000000D03*
X113537500Y-92500000D03*
X113537500Y-93000000D03*
X113537500Y-93500000D03*
X113537500Y-94000000D03*
X113537500Y-94500000D03*
X113537500Y-95000000D03*
X113537500Y-95500000D03*
X113537500Y-96000000D03*
X113537500Y-96500000D03*
X113537500Y-97000000D03*
X113537500Y-97500000D03*
X113537500Y-98000000D03*
X113537500Y-98500000D03*
X113537500Y-99000000D03*
X113537500Y-99500000D03*
X113537500Y-100000000D03*
X113537500Y-100500000D03*
X113537500Y-101000000D03*
X113537500Y-101500000D03*
X113537500Y-102000000D03*
D24*
X115200000Y-103662500D03*
X115700000Y-103662500D03*
X116200000Y-103662500D03*
X116700000Y-103662500D03*
X117200000Y-103662500D03*
X117700000Y-103662500D03*
X118200000Y-103662500D03*
X118700000Y-103662500D03*
X119200000Y-103662500D03*
X119700000Y-103662500D03*
X120200000Y-103662500D03*
X120700000Y-103662500D03*
X121200000Y-103662500D03*
X121700000Y-103662500D03*
X122200000Y-103662500D03*
X122700000Y-103662500D03*
X123200000Y-103662500D03*
X123700000Y-103662500D03*
X124200000Y-103662500D03*
X124700000Y-103662500D03*
X125200000Y-103662500D03*
X125700000Y-103662500D03*
X126200000Y-103662500D03*
X126700000Y-103662500D03*
X127200000Y-103662500D03*
D25*
X128862500Y-102000000D03*
X128862500Y-101500000D03*
X128862500Y-101000000D03*
X128862500Y-100500000D03*
X128862500Y-100000000D03*
X128862500Y-99500000D03*
X128862500Y-99000000D03*
X128862500Y-98500000D03*
X128862500Y-98000000D03*
X128862500Y-97500000D03*
X128862500Y-97000000D03*
X128862500Y-96500000D03*
X128862500Y-96000000D03*
X128862500Y-95500000D03*
X128862500Y-95000000D03*
X128862500Y-94500000D03*
X128862500Y-94000000D03*
X128862500Y-93500000D03*
X128862500Y-93000000D03*
X128862500Y-92500000D03*
X128862500Y-92000000D03*
X128862500Y-91500000D03*
X128862500Y-91000000D03*
X128862500Y-90500000D03*
X128862500Y-90000000D03*
G04 #@! TD*
D21*
G04 #@! TO.C,U6*
X196900000Y-59475000D03*
D14*
X196900000Y-56935000D03*
X196900000Y-54395000D03*
X196900000Y-51855000D03*
X196900000Y-49315000D03*
X196900000Y-46775000D03*
X196900000Y-44235000D03*
X196900000Y-41695000D03*
X189280000Y-41695000D03*
X189280000Y-44235000D03*
X189280000Y-46775000D03*
X189280000Y-49315000D03*
X189280000Y-51855000D03*
X189280000Y-54395000D03*
X189280000Y-56935000D03*
X189280000Y-59475000D03*
G04 #@! TD*
D15*
G04 #@! TO.C,Q18*
X166230000Y-34260000D03*
D16*
X167500000Y-34260000D03*
X168770000Y-34260000D03*
G04 #@! TD*
D13*
G04 #@! TO.C,R60*
X186410000Y-41400000D03*
D14*
X178790000Y-41400000D03*
G04 #@! TD*
D15*
G04 #@! TO.C,Q7*
X122800000Y-151500000D03*
D16*
X124070000Y-151500000D03*
X125340000Y-151500000D03*
G04 #@! TD*
D11*
G04 #@! TO.C,R27*
X94140000Y-97200000D03*
X94955000Y-97200000D03*
G04 #@! TD*
D12*
G04 #@! TO.C,R109*
X217507500Y-139240000D03*
X216692500Y-139240000D03*
G04 #@! TD*
D13*
G04 #@! TO.C,R52*
X158110000Y-69700000D03*
D14*
X150490000Y-69700000D03*
G04 #@! TD*
D12*
G04 #@! TO.C,R72*
X217575000Y-63140000D03*
X216760000Y-63140000D03*
G04 #@! TD*
D11*
G04 #@! TO.C,R24*
X94072500Y-87200000D03*
X94887500Y-87200000D03*
G04 #@! TD*
D15*
G04 #@! TO.C,Q23*
X141830000Y-34000000D03*
D16*
X143100000Y-34000000D03*
X144370000Y-34000000D03*
G04 #@! TD*
D12*
G04 #@! TO.C,R91*
X217475000Y-105140000D03*
X216660000Y-105140000D03*
G04 #@! TD*
G04 #@! TO.C,R107*
X217415000Y-135240000D03*
X216600000Y-135240000D03*
G04 #@! TD*
G04 #@! TO.C,R80*
X217407500Y-79240000D03*
X216592500Y-79240000D03*
G04 #@! TD*
D15*
G04 #@! TO.C,Q15*
X185230000Y-34260000D03*
D16*
X186500000Y-34260000D03*
X187770000Y-34260000D03*
G04 #@! TD*
D13*
G04 #@! TO.C,R112*
X186410000Y-45800000D03*
D14*
X178790000Y-45800000D03*
G04 #@! TD*
D11*
G04 #@! TO.C,R48*
X94172500Y-139200000D03*
X94987500Y-139200000D03*
G04 #@! TD*
G04 #@! TO.C,R7*
X94105000Y-53200000D03*
X94920000Y-53200000D03*
G04 #@! TD*
D15*
G04 #@! TO.C,Q21*
X171830000Y-41260000D03*
D16*
X173100000Y-41260000D03*
X174370000Y-41260000D03*
G04 #@! TD*
D12*
G04 #@! TO.C,R84*
X217375000Y-87240000D03*
X216560000Y-87240000D03*
G04 #@! TD*
D24*
G04 #@! TO.C,U3*
X197600000Y-86637500D03*
X197100000Y-86637500D03*
X196600000Y-86637500D03*
X196100000Y-86637500D03*
X195600000Y-86637500D03*
X195100000Y-86637500D03*
X194600000Y-86637500D03*
X194100000Y-86637500D03*
X193600000Y-86637500D03*
X193100000Y-86637500D03*
X192600000Y-86637500D03*
X192100000Y-86637500D03*
X191600000Y-86637500D03*
X191100000Y-86637500D03*
X190600000Y-86637500D03*
X190100000Y-86637500D03*
X189600000Y-86637500D03*
X189100000Y-86637500D03*
X188600000Y-86637500D03*
X188100000Y-86637500D03*
X187600000Y-86637500D03*
X187100000Y-86637500D03*
X186600000Y-86637500D03*
X186100000Y-86637500D03*
X185600000Y-86637500D03*
D25*
X183937500Y-88300000D03*
X183937500Y-88800000D03*
X183937500Y-89300000D03*
X183937500Y-89800000D03*
X183937500Y-90300000D03*
X183937500Y-90800000D03*
X183937500Y-91300000D03*
X183937500Y-91800000D03*
X183937500Y-92300000D03*
X183937500Y-92800000D03*
X183937500Y-93300000D03*
X183937500Y-93800000D03*
X183937500Y-94300000D03*
X183937500Y-94800000D03*
X183937500Y-95300000D03*
X183937500Y-95800000D03*
X183937500Y-96300000D03*
X183937500Y-96800000D03*
X183937500Y-97300000D03*
X183937500Y-97800000D03*
X183937500Y-98300000D03*
X183937500Y-98800000D03*
X183937500Y-99300000D03*
X183937500Y-99800000D03*
X183937500Y-100300000D03*
D24*
X185600000Y-101962500D03*
X186100000Y-101962500D03*
X186600000Y-101962500D03*
X187100000Y-101962500D03*
X187600000Y-101962500D03*
X188100000Y-101962500D03*
X188600000Y-101962500D03*
X189100000Y-101962500D03*
X189600000Y-101962500D03*
X190100000Y-101962500D03*
X190600000Y-101962500D03*
X191100000Y-101962500D03*
X191600000Y-101962500D03*
X192100000Y-101962500D03*
X192600000Y-101962500D03*
X193100000Y-101962500D03*
X193600000Y-101962500D03*
X194100000Y-101962500D03*
X194600000Y-101962500D03*
X195100000Y-101962500D03*
X195600000Y-101962500D03*
X196100000Y-101962500D03*
X196600000Y-101962500D03*
X197100000Y-101962500D03*
X197600000Y-101962500D03*
D25*
X199262500Y-100300000D03*
X199262500Y-99800000D03*
X199262500Y-99300000D03*
X199262500Y-98800000D03*
X199262500Y-98300000D03*
X199262500Y-97800000D03*
X199262500Y-97300000D03*
X199262500Y-96800000D03*
X199262500Y-96300000D03*
X199262500Y-95800000D03*
X199262500Y-95300000D03*
X199262500Y-94800000D03*
X199262500Y-94300000D03*
X199262500Y-93800000D03*
X199262500Y-93300000D03*
X199262500Y-92800000D03*
X199262500Y-92300000D03*
X199262500Y-91800000D03*
X199262500Y-91300000D03*
X199262500Y-90800000D03*
X199262500Y-90300000D03*
X199262500Y-89800000D03*
X199262500Y-89300000D03*
X199262500Y-88800000D03*
X199262500Y-88300000D03*
G04 #@! TD*
D11*
G04 #@! TO.C,R15*
X94165000Y-69200000D03*
X94980000Y-69200000D03*
G04 #@! TD*
D12*
G04 #@! TO.C,R69*
X217507500Y-57140000D03*
X216692500Y-57140000D03*
G04 #@! TD*
D26*
G04 #@! TO.C,REF\u002A\u002A*
X104230000Y-41370000D03*
G04 #@! TD*
D12*
G04 #@! TO.C,R82*
X217407500Y-83240000D03*
X216592500Y-83240000D03*
G04 #@! TD*
D11*
G04 #@! TO.C,R9*
X93972500Y-57100000D03*
X94787500Y-57100000D03*
G04 #@! TD*
G04 #@! TO.C,R30*
X94180000Y-103200000D03*
X94995000Y-103200000D03*
G04 #@! TD*
G04 #@! TO.C,R12*
X94205000Y-63100000D03*
X95020000Y-63100000D03*
G04 #@! TD*
G04 #@! TO.C,R1*
X94300000Y-41200000D03*
X95115000Y-41200000D03*
G04 #@! TD*
D12*
G04 #@! TO.C,R88*
X217575000Y-99240000D03*
X216760000Y-99240000D03*
G04 #@! TD*
D11*
G04 #@! TO.C,R19*
X94240000Y-77200000D03*
X95055000Y-77200000D03*
G04 #@! TD*
D12*
G04 #@! TO.C,R96*
X217675000Y-115240000D03*
X216860000Y-115240000D03*
G04 #@! TD*
G04 #@! TO.C,R104*
X217507500Y-129240000D03*
X216692500Y-129240000D03*
G04 #@! TD*
G04 #@! TO.C,R62*
X217407500Y-43240000D03*
X216592500Y-43240000D03*
G04 #@! TD*
D13*
G04 #@! TO.C,R53*
X173200000Y-64800000D03*
D14*
X180820000Y-64800000D03*
G04 #@! TD*
D11*
G04 #@! TO.C,R16*
X94205000Y-71200000D03*
X95020000Y-71200000D03*
G04 #@! TD*
G04 #@! TO.C,R2*
X94272500Y-43200000D03*
X95087500Y-43200000D03*
G04 #@! TD*
D17*
G04 #@! TO.C,J2*
X91300000Y-33200000D03*
D18*
X91300000Y-35200000D03*
X91300000Y-37200000D03*
X91300000Y-39200000D03*
X91300000Y-41200000D03*
X91300000Y-43200000D03*
X91300000Y-45200000D03*
X91300000Y-47200000D03*
X91300000Y-49200000D03*
X91300000Y-51200000D03*
X91300000Y-53200000D03*
X91300000Y-55200000D03*
X91300000Y-57200000D03*
X91300000Y-59200000D03*
X91300000Y-61200000D03*
X91300000Y-63200000D03*
X91300000Y-65200000D03*
X91300000Y-67200000D03*
X91300000Y-69200000D03*
X91300000Y-71200000D03*
X91300000Y-73200000D03*
X91300000Y-75200000D03*
X91300000Y-77200000D03*
X91300000Y-79200000D03*
X91300000Y-81200000D03*
X91300000Y-83200000D03*
X91300000Y-85200000D03*
X91300000Y-87200000D03*
X91300000Y-89200000D03*
X91300000Y-91200000D03*
X91300000Y-93200000D03*
X91300000Y-95200000D03*
X91300000Y-97200000D03*
X91300000Y-99200000D03*
X91300000Y-101200000D03*
X91300000Y-103200000D03*
X91300000Y-105200000D03*
X91300000Y-107200000D03*
X91300000Y-109200000D03*
X91300000Y-111200000D03*
G04 #@! TD*
D12*
G04 #@! TO.C,R102*
X217542500Y-125240000D03*
X216727500Y-125240000D03*
G04 #@! TD*
D11*
G04 #@! TO.C,R37*
X94205000Y-117200000D03*
X95020000Y-117200000D03*
G04 #@! TD*
D12*
G04 #@! TO.C,R105*
X217507500Y-131240000D03*
X216692500Y-131240000D03*
G04 #@! TD*
G04 #@! TO.C,R77*
X217407500Y-73240000D03*
X216592500Y-73240000D03*
G04 #@! TD*
D11*
G04 #@! TO.C,R34*
X94105000Y-111200000D03*
X94920000Y-111200000D03*
G04 #@! TD*
D15*
G04 #@! TO.C,Q24*
X142600000Y-65500000D03*
D16*
X143870000Y-65500000D03*
X145140000Y-65500000D03*
G04 #@! TD*
D11*
G04 #@! TO.C,R31*
X94240000Y-105200000D03*
X95055000Y-105200000D03*
G04 #@! TD*
D15*
G04 #@! TO.C,Q17*
X172430000Y-34260000D03*
D16*
X173700000Y-34260000D03*
X174970000Y-34260000D03*
G04 #@! TD*
D12*
G04 #@! TO.C,R65*
X217407500Y-49240000D03*
X216592500Y-49240000D03*
G04 #@! TD*
G04 #@! TO.C,R70*
X217507500Y-59140000D03*
X216692500Y-59140000D03*
G04 #@! TD*
D11*
G04 #@! TO.C,R22*
X94372500Y-83200000D03*
X95187500Y-83200000D03*
G04 #@! TD*
G04 #@! TO.C,R8*
X94080000Y-55200000D03*
X94895000Y-55200000D03*
G04 #@! TD*
D13*
G04 #@! TO.C,R59*
X173190000Y-61500000D03*
D14*
X180810000Y-61500000D03*
G04 #@! TD*
D11*
G04 #@! TO.C,R11*
X94072500Y-61200000D03*
X94887500Y-61200000D03*
G04 #@! TD*
D12*
G04 #@! TO.C,R93*
X217400000Y-109240000D03*
X216585000Y-109240000D03*
G04 #@! TD*
D13*
G04 #@! TO.C,C2*
X212350000Y-91900000D03*
X214850000Y-91900000D03*
G04 #@! TD*
D11*
G04 #@! TO.C,R28*
X94140000Y-99300000D03*
X94955000Y-99300000D03*
G04 #@! TD*
D10*
G04 #@! TO.C,*
X90360000Y-27210000D03*
G04 #@! TD*
D12*
G04 #@! TO.C,R110*
X217475000Y-141240000D03*
X216660000Y-141240000D03*
G04 #@! TD*
D15*
G04 #@! TO.C,Q6*
X114530000Y-49260000D03*
D16*
X115800000Y-49260000D03*
X117070000Y-49260000D03*
G04 #@! TD*
D15*
G04 #@! TO.C,Q13*
X197130000Y-34360000D03*
D16*
X198400000Y-34360000D03*
X199670000Y-34360000D03*
G04 #@! TD*
D11*
G04 #@! TO.C,R5*
X94165000Y-49200000D03*
X94980000Y-49200000D03*
G04 #@! TD*
D12*
G04 #@! TO.C,R100*
X217607500Y-123240000D03*
X216792500Y-123240000D03*
G04 #@! TD*
G04 #@! TO.C,R78*
X217400000Y-75240000D03*
X216585000Y-75240000D03*
G04 #@! TD*
D11*
G04 #@! TO.C,R21*
X94340000Y-81200000D03*
X95155000Y-81200000D03*
G04 #@! TD*
G04 #@! TO.C,R18*
X94205000Y-75300000D03*
X95020000Y-75300000D03*
G04 #@! TD*
D15*
G04 #@! TO.C,Q3*
X115300000Y-151600000D03*
D16*
X116570000Y-151600000D03*
X117840000Y-151600000D03*
G04 #@! TD*
D12*
G04 #@! TO.C,R61*
X217307500Y-41240000D03*
X216492500Y-41240000D03*
G04 #@! TD*
D11*
G04 #@! TO.C,R49*
X94172500Y-141200000D03*
X94987500Y-141200000D03*
G04 #@! TD*
D15*
G04 #@! TO.C,Q2*
X156730000Y-41260000D03*
D16*
X158000000Y-41260000D03*
X159270000Y-41260000D03*
G04 #@! TD*
D15*
G04 #@! TO.C,Q20*
X164030000Y-41260000D03*
D16*
X165300000Y-41260000D03*
X166570000Y-41260000D03*
G04 #@! TD*
D10*
G04 #@! TO.C,REF\u002A\u002A*
X90350000Y-158210000D03*
G04 #@! TD*
D12*
G04 #@! TO.C,R111*
X217407500Y-143240000D03*
X216592500Y-143240000D03*
G04 #@! TD*
D11*
G04 #@! TO.C,R45*
X94065000Y-133200000D03*
X94880000Y-133200000D03*
G04 #@! TD*
G04 #@! TO.C,R38*
X94305000Y-119200000D03*
X95120000Y-119200000D03*
G04 #@! TD*
D15*
G04 #@! TO.C,Q14*
X191030000Y-34260000D03*
D16*
X192300000Y-34260000D03*
X193570000Y-34260000D03*
G04 #@! TD*
D12*
G04 #@! TO.C,R99*
X217607500Y-121240000D03*
X216792500Y-121240000D03*
G04 #@! TD*
G04 #@! TO.C,R108*
X217482500Y-137240000D03*
X216667500Y-137240000D03*
G04 #@! TD*
D11*
G04 #@! TO.C,R25*
X94040000Y-89200000D03*
X94855000Y-89200000D03*
G04 #@! TD*
D12*
G04 #@! TO.C,R98*
X217575000Y-119240000D03*
X216760000Y-119240000D03*
G04 #@! TD*
D13*
G04 #@! TO.C,R51*
X158210000Y-59400000D03*
D14*
X150590000Y-59400000D03*
G04 #@! TD*
D11*
G04 #@! TO.C,R35*
X94172500Y-113200000D03*
X94987500Y-113200000D03*
G04 #@! TD*
D15*
G04 #@! TO.C,Q1*
X97200000Y-151300000D03*
D16*
X98470000Y-151300000D03*
X99740000Y-151300000D03*
G04 #@! TD*
D11*
G04 #@! TO.C,R44*
X94105000Y-131200000D03*
X94920000Y-131200000D03*
G04 #@! TD*
D15*
G04 #@! TO.C,Q5*
X121930000Y-41960000D03*
D16*
X123200000Y-41960000D03*
X124470000Y-41960000D03*
G04 #@! TD*
D12*
G04 #@! TO.C,R63*
X217500000Y-45140000D03*
X216685000Y-45140000D03*
G04 #@! TD*
D27*
G04 #@! TO.C,U2*
X166900000Y-107470000D03*
D28*
X166900000Y-110010000D03*
X166900000Y-112550000D03*
X166900000Y-115090000D03*
X166900000Y-117630000D03*
X166900000Y-120170000D03*
X166900000Y-122710000D03*
X166900000Y-125250000D03*
X166900000Y-127790000D03*
X166900000Y-130330000D03*
X166900000Y-132870000D03*
X166900000Y-135410000D03*
X166900000Y-137950000D03*
X166900000Y-140490000D03*
X166900000Y-143030000D03*
X166900000Y-145570000D03*
X166900000Y-148110000D03*
X166900000Y-150650000D03*
X166900000Y-153190000D03*
X141500000Y-107470000D03*
X141500000Y-110010000D03*
X141500000Y-112550000D03*
X141500000Y-115090000D03*
X141500000Y-117630000D03*
X141500000Y-120170000D03*
X141500000Y-122710000D03*
X141500000Y-125250000D03*
X141500000Y-127790000D03*
X141500000Y-130330000D03*
X141500000Y-132870000D03*
X141500000Y-135410000D03*
X141500000Y-137950000D03*
X141500000Y-140490000D03*
X141500000Y-143030000D03*
X141500000Y-145570000D03*
X141500000Y-148110000D03*
X141500000Y-150650000D03*
X141500000Y-153190000D03*
G04 #@! TD*
D29*
G04 #@! TO.C,U4*
X182700000Y-131600000D03*
D30*
X180160000Y-131600000D03*
X177620000Y-131600000D03*
G04 #@! TD*
D22*
G04 #@! TO.C,J10*
X158200000Y-83300000D03*
D23*
X155660000Y-83300000D03*
X153120000Y-83300000D03*
X150580000Y-83300000D03*
X148040000Y-83300000D03*
G04 #@! TD*
D31*
G04 #@! TO.C,J1*
X180857500Y-139300000D03*
D32*
X180857500Y-145300000D03*
D33*
X176157500Y-142300000D03*
G04 #@! TD*
M02*
