M48
; DRILL file {KiCad (6.0.5)} date Fri Sep  2 23:18:39 2022
; FORMAT={-:-/ absolute / metric / decimal}
; #@! TF.CreationDate,2022-09-02T23:18:39+01:00
; #@! TF.GenerationSoftware,Kicad,Pcbnew,(6.0.5)
; #@! TF.FileFunction,Plated,1,2,PTH
FMAT,2
METRIC
; #@! TA.AperFunction,Plated,PTH,ViaDrill
T1C0.300
; #@! TA.AperFunction,Plated,PTH,ViaDrill
T2C0.400
; #@! TA.AperFunction,Plated,PTH,ViaDrill
T3C0.700
; #@! TA.AperFunction,Plated,PTH,ComponentDrill
T4C0.750
; #@! TA.AperFunction,Plated,PTH,ComponentDrill
T5C0.762
; #@! TA.AperFunction,Plated,PTH,ComponentDrill
T6C0.800
; #@! TA.AperFunction,Plated,PTH,ComponentDrill
T7C0.950
; #@! TA.AperFunction,Plated,PTH,ComponentDrill
T8C1.000
%
G90
G05
T1
X160.8Y-89.0
X165.4Y-89.3
T2
X93.1Y-33.3
X95.2Y-160.1
X98.8Y-35.7
X98.9Y-38.6
X98.9Y-150.0
X99.1Y-24.6
X99.1Y-28.4
X100.3Y-151.3
X100.4Y-146.6
X101.4Y-145.6
X101.9Y-159.2
X102.8Y-91.4
X103.5Y-158.7
X104.3Y-145.6
X104.7Y-92.8
X104.9Y-146.7
X105.4Y-160.2
X106.9Y-29.505
X107.4Y-34.7
X107.6Y-160.0
X109.3Y-33.4
X110.1Y-40.3
X110.2Y-29.9
X111.5Y-33.4
X112.8Y-34.3
X112.9Y-38.9
X112.9Y-145.6
X113.1Y-151.7
X113.4Y-106.5
X113.5Y-140.5
X113.6Y-132.6
X113.9Y-86.5
X113.9Y-120.5
X114.4Y-126.6
X115.2Y-38.1
X115.2Y-154.7
X115.3Y-89.8
X115.6Y-95.2
X115.6Y-124.4
X115.6Y-132.6
X115.7Y-99.8
X115.8Y-120.5
X115.9Y-70.3
X115.9Y-86.4
X116.0Y-90.8
X116.0Y-148.2
X116.2Y-83.6
X116.6Y-149.2
X117.0Y-81.6
X117.6Y-79.6
X117.6Y-96.2
X117.8Y-35.7
X118.0Y-99.6
X118.4Y-97.6
X119.0Y-77.2
X119.2Y-96.8
X119.2Y-100.1
X119.8Y-75.8
X119.8Y-95.6
X120.8Y-73.6
X121.0Y-95.8
X121.2Y-72.5
X121.8Y-44.9
X121.8Y-69.0
X121.8Y-100.1
X122.4Y-155.0
X122.8Y-45.8
X122.8Y-85.5
X123.0Y-100.1
X123.6Y-61.395
X124.0Y-147.4
X124.6Y-68.1
X124.7Y-44.0
X125.0Y-109.6
X125.0Y-128.6
X125.0Y-147.0
X125.2Y-149.6
X125.9Y-57.4
X126.3Y-149.5
X126.4Y-39.0
X126.8Y-107.1
X127.4Y-108.2
X127.8Y-136.8
X128.2Y-118.6
X128.9Y-30.1
X129.0Y-112.4
X129.3Y-121.3
X129.8Y-116.6
X131.3Y-107.295
X131.4Y-45.8
X131.5Y-34.5
X131.9Y-29.2
X132.0Y-125.5
X132.1Y-42.3
X132.1Y-128.1
X132.55Y-140.75
X132.7Y-44.8
X132.9Y-60.3
X133.6Y-106.5
X134.2Y-45.9
X134.3Y-57.1
X134.4Y-117.2
X134.6Y-140.8
X134.9Y-43.9
X135.2Y-152.0
X135.9Y-107.2
X136.0Y-151.0
X136.2Y-112.2
X136.55Y-119.25
X136.55Y-140.55
X137.0Y-150.0
X137.5Y-34.8
X138.0Y-149.0
X138.4Y-117.2
X138.4Y-118.8
X138.4Y-140.4
X138.5Y-42.1
X138.6Y-112.0
X138.6Y-114.6
X139.8Y-78.3
X140.2Y-29.6
X141.3Y-68.0
X141.4Y-95.0
X141.5Y-40.6
X143.4Y-108.0
X143.4Y-109.6
X143.595Y-61.395
X143.7Y-90.3
X143.8Y-29.0
X144.8Y-148.2
X145.0Y-136.8
X145.0Y-152.3
X145.1Y-79.4
X145.2Y-39.0
X145.7Y-60.1
X146.3Y-43.5
X146.4Y-42.2
X146.4Y-87.2
X146.5Y-29.6
X146.5Y-40.1
X146.7Y-45.0
X146.8Y-70.3
X147.2Y-112.2
X148.0Y-134.6
X148.2Y-30.1
X148.4Y-68.6
X148.5Y-41.0
X148.6Y-61.4
X149.5Y-50.0
X149.6Y-136.5
X149.7Y-160.6
X149.8Y-112.2
X150.0Y-109.8
X150.1Y-122.695
X150.2Y-70.3
X150.5Y-49.0
X150.5Y-54.5
X150.8Y-61.6
X150.9Y-68.7
X150.9Y-83.1
X151.0Y-40.0
X151.6Y-53.8
X152.0Y-125.3
X152.5Y-39.0
X152.5Y-62.0
X152.8Y-99.2
X152.9Y-134.4
X153.395Y-82.5
X153.6Y-53.6
X153.6Y-121.8
X153.9Y-79.1
X153.9Y-110.0
X154.0Y-55.8
X154.0Y-95.8
X154.0Y-99.6
X154.4Y-130.6
X154.5Y-48.295
X154.5Y-63.0
X154.7Y-85.9
X154.8Y-38.2
X154.8Y-89.6
X154.85Y-52.65
X155.0Y-113.2
X155.095Y-147.7
X155.4Y-122.2
X155.6Y-129.4
X155.8Y-29.1
X155.8Y-148.7
X156.0Y-97.0
X156.2Y-110.8
X156.296Y-103.4
X156.4Y-50.8
X156.6Y-150.6
X156.8Y-120.4
X156.8Y-129.4
X156.8Y-137.6
X156.8Y-138.8
X157.0Y-98.0
X157.0Y-105.2
X157.3Y-42.7
X157.4Y-38.0
X157.5Y-39.5
X157.5Y-41.5
X157.5Y-63.0
X157.6Y-151.2
X157.9Y-93.9
X157.96Y-68.54
X158.0Y-120.4
X158.2Y-98.0
X158.2Y-107.2
X158.2Y-130.2
X158.4Y-139.4
X158.4Y-152.2
X159.0Y-62.0
X159.2Y-57.8
X159.2Y-120.0
X159.2Y-133.4
X159.2Y-153.0
X159.5Y-65.8
X159.5Y-88.5
X159.5Y-113.7
X159.7Y-38.1
X159.8Y-141.0
X159.8Y-142.2
X159.9Y-109.4
X160.0Y-79.7
X160.0Y-139.6
X160.0Y-153.8
X160.1Y-36.5
X160.3Y-42.9
X160.3Y-65.0
X160.5Y-111.3
X160.6Y-91.2
X160.7Y-82.1
X161.0Y-123.4
X161.0Y-142.6
X161.1Y-72.4
X161.1Y-73.8
X161.2Y-134.2
X161.3Y-63.4
X161.6Y-61.2
X161.6Y-113.7
X161.8Y-92.4
X162.0Y-93.8
X162.0Y-154.3
X162.1Y-144.3
X162.3Y-131.1
X162.6Y-38.0
X162.6Y-52.591
X162.6Y-114.6
X162.8Y-54.0
X162.8Y-60.0
X162.8Y-90.8
X162.8Y-109.4
X162.9Y-86.5
X163.0Y-113.2
X163.2Y-88.1
X163.3Y-94.9
X163.5Y-37.0
X163.5Y-45.0
X163.5Y-135.7
X163.6Y-115.8
X163.7Y-57.7
X163.8Y-54.8
X164.0Y-143.7
X164.6Y-48.2
X165.0Y-73.4
X165.2Y-64.0
X165.4Y-51.6
X165.6Y-114.6
X166.3Y-72.6
X166.4Y-88.2
X166.4Y-108.6
X166.5Y-51.5
X166.6Y-154.4
X167.4Y-99.6
X167.4Y-115.4
X167.6Y-60.0
X167.6Y-89.4
X167.6Y-105.8
X167.6Y-107.6
X167.7Y-39.1
X168.0Y-48.5
X168.1Y-136.2
X168.2Y-61.2
X168.4Y-104.0
X168.6Y-68.8
X168.6Y-99.8
X168.6Y-146.6
X168.7Y-76.4
X168.7Y-78.8
X168.8Y-55.8
X168.8Y-89.2
X169.2Y-57.0
X169.4Y-48.4
X169.5Y-59.1
X169.5Y-62.0
X169.6Y-75.6
X170.0Y-53.6
X170.2Y-127.4
X170.4Y-42.9
X170.4Y-100.6
X170.5Y-63.0
X170.5Y-79.0
X170.5Y-144.9
X171.095Y-126.5
X171.3Y-105.7
X171.3Y-159.0
X171.4Y-74.8
X171.4Y-89.6
X171.6Y-99.8
X171.8Y-47.0
X171.8Y-103.2
X171.8Y-127.9
X171.9Y-66.4
X172.2Y-63.8
X172.2Y-80.4
X172.3Y-38.3
X172.4Y-135.6
X172.6Y-60.2
X172.605Y-71.704
X172.8Y-54.0
X173.2Y-86.995
X173.4Y-100.2
X173.4Y-131.2
X173.6Y-36.4
X173.7Y-151.2
X173.7Y-158.8
X173.8Y-61.2
X174.3Y-143.9
X174.4Y-89.6
X174.6Y-71.6
X174.6Y-82.2
X174.6Y-120.0
X175.0Y-62.0
X175.2Y-66.1
X175.2Y-114.4
X175.46Y-69.25
X175.6Y-50.6
X176.4Y-143.7
X176.5Y-63.0
X176.6Y-89.4
X176.7Y-30.1
X177.2Y-119.9
X177.7Y-86.995
X178.2Y-67.1
X178.2Y-131.4
X178.5Y-69.2
X179.2Y-159.3
X179.4Y-80.4
X179.6Y-38.3
X179.8Y-116.6
X180.0Y-119.9
X180.2Y-86.2
X180.4Y-60.4
X180.8Y-53.8
X180.8Y-91.8
X180.8Y-93.2
X180.8Y-123.4
X181.0Y-89.0
X181.0Y-90.4
X181.0Y-99.4
X181.6Y-76.4
X181.9Y-149.6
X182.0Y-85.4
X182.2Y-120.4
X182.4Y-106.0
X183.1Y-83.5
X183.2Y-122.4
X183.2Y-151.9
X183.4Y-93.1
X183.6Y-69.7
X183.6Y-102.4
X183.7Y-47.5
X183.7Y-132.6
X184.2Y-92.2
X184.3Y-77.8
X184.4Y-80.9
X184.4Y-121.6
X184.5Y-48.5
X184.6Y-104.4
X184.6Y-135.505
X185.6Y-36.0
X185.6Y-69.2
X185.8Y-131.4
X185.8Y-139.2
X186.0Y-118.4
X186.6Y-81.2
X186.8Y-72.3
X187.0Y-126.6
X187.0Y-138.6
X187.2Y-69.4
X187.2Y-117.2
X187.5Y-48.5
X188.0Y-127.6
X188.2Y-89.6
X188.2Y-115.8
X188.2Y-137.8
X188.4Y-148.5
X188.5Y-67.2
X188.7Y-70.4
X189.2Y-95.2
X189.2Y-114.8
X189.2Y-125.8
X189.2Y-135.0
X190.0Y-74.0
X190.1Y-86.0
X190.2Y-66.6
X190.2Y-121.6
X190.4Y-98.2
X190.4Y-113.8
X190.4Y-134.2
X190.5Y-48.4
X190.6Y-84.9
X190.8Y-142.8
X191.2Y-120.2
X191.2Y-133.2
X191.296Y-87.6
X191.4Y-151.6
X191.6Y-118.6
X191.67Y-39.67
X192.0Y-137.8
X192.1Y-72.3
X192.2Y-83.7
X192.2Y-105.4
X192.2Y-142.0
X192.4Y-102.4
X192.4Y-122.6
X192.6Y-109.4
X192.8Y-150.7
X193.0Y-132.4
X193.0Y-133.8
X193.2Y-47.4
X193.2Y-73.6
X193.2Y-101.2
X193.2Y-105.4
X193.4Y-124.0
X194.0Y-93.6
X194.0Y-128.6
X194.2Y-69.5
X194.2Y-111.6
X194.4Y-96.8
X194.4Y-113.6
X194.6Y-72.7
X194.6Y-107.4
X194.8Y-137.8
X195.2Y-92.6
X195.2Y-129.2
X195.5Y-71.0
X195.5Y-84.4
X195.6Y-115.4
X195.6Y-141.0
X195.8Y-135.6
X195.9Y-38.7
X196.0Y-130.0
X196.2Y-117.4
X196.6Y-99.6
X196.6Y-106.4
X196.7Y-72.5
X197.3Y-37.6
X197.5Y-34.8
X197.5Y-93.7
X198.7Y-36.5
X200.5Y-147.2
X203.0Y-29.4
X204.7Y-150.4
X208.7Y-147.0
X210.2Y-145.3
X212.2Y-90.8
X212.4Y-147.0
X213.4Y-91.0
X213.4Y-153.3
X213.6Y-159.8
X214.4Y-37.1
X214.4Y-91.3
X214.6Y-32.5
X215.0Y-144.3
X215.1Y-150.3
X215.4Y-34.6
X215.4Y-38.1
X215.4Y-93.3
X215.6Y-90.7
T3
X106.3Y-92.0
X108.6Y-94.4
X110.1Y-151.8
X117.0Y-151.1
X128.4Y-94.695
X129.5Y-50.3
X138.4Y-85.7
X138.4Y-94.0
X144.9Y-85.8
X146.4Y-153.7
X147.2Y-145.9
X153.6Y-126.1
X154.8Y-133.8
T4
X94.23Y-26.36
X94.23Y-31.36
X95.14Y-35.73
X95.14Y-37.0
X95.14Y-38.27
X95.5Y-26.36
X95.5Y-31.36
X96.77Y-26.36
X96.77Y-31.36
X97.23Y-157.86
X98.5Y-157.86
X99.77Y-157.86
X100.86Y-34.73
X100.86Y-36.0
X100.86Y-37.27
X106.23Y-31.86
X106.73Y-37.36
X107.5Y-31.86
X108.0Y-37.36
X108.77Y-31.86
X109.27Y-37.36
X112.23Y-31.86
X113.5Y-31.86
X114.77Y-31.86
X116.6Y-141.56
X116.6Y-142.83
X116.6Y-144.1
X118.23Y-31.86
X119.5Y-31.86
X120.77Y-31.86
X124.33Y-93.06
X124.73Y-32.36
X125.2Y-85.0
X125.2Y-86.27
X125.2Y-87.54
X125.6Y-93.06
X126.0Y-32.36
X126.87Y-93.06
X127.27Y-32.36
X130.23Y-32.36
X131.5Y-32.36
X132.77Y-32.36
X136.23Y-32.36
X137.5Y-32.36
X138.77Y-32.36
X142.23Y-32.36
X143.5Y-32.36
X144.77Y-32.36
X148.23Y-32.36
X149.5Y-32.36
X150.77Y-32.36
X154.23Y-32.36
X155.5Y-32.36
X156.77Y-32.36
X160.23Y-32.36
X161.5Y-32.36
X162.33Y-146.7
X162.36Y-151.2
X162.77Y-32.36
X163.6Y-146.7
X163.63Y-151.2
X164.87Y-146.7
X164.9Y-151.2
X166.23Y-32.36
X167.5Y-32.36
X167.73Y-72.86
X168.6Y-151.4
X168.77Y-32.36
X169.0Y-72.86
X169.87Y-151.4
X170.27Y-72.86
X171.14Y-151.4
X172.23Y-32.36
X173.5Y-32.36
X174.77Y-32.36
X176.23Y-84.36
X177.14Y-77.73
X177.14Y-79.0
X177.14Y-80.27
X177.5Y-84.36
X178.23Y-32.36
X178.77Y-84.36
X179.5Y-32.36
X180.77Y-32.36
X184.23Y-32.36
X185.5Y-32.36
X186.77Y-32.36
X190.23Y-32.36
X191.5Y-32.36
X192.77Y-32.36
X196.23Y-32.36
X197.5Y-32.36
X198.77Y-32.36
X201.73Y-32.36
X203.0Y-32.36
X204.27Y-32.36
X211.14Y-155.23
X211.14Y-156.5
X211.14Y-157.77
T5
X220.3Y-90.5
X220.3Y-92.5
T6
X91.3Y-32.5
X91.3Y-34.5
X91.3Y-36.5
X91.3Y-38.5
X91.3Y-40.5
X91.3Y-42.5
X91.3Y-44.5
X91.3Y-46.5
X91.3Y-48.5
X91.3Y-50.5
X91.3Y-52.5
X91.3Y-54.5
X91.3Y-56.5
X91.3Y-58.5
X91.3Y-60.5
X91.3Y-62.5
X91.3Y-64.5
X91.3Y-66.5
X91.3Y-68.5
X91.3Y-70.5
X91.3Y-72.5
X91.3Y-74.5
X91.3Y-76.5
X91.3Y-78.5
X91.3Y-80.5
X91.3Y-82.5
X91.3Y-84.5
X91.3Y-86.5
X91.3Y-88.5
X91.3Y-90.5
X91.3Y-92.5
X91.3Y-94.5
X91.3Y-96.5
X91.3Y-98.5
X91.3Y-100.5
X91.3Y-102.5
X91.3Y-104.5
X91.3Y-106.5
X91.3Y-108.5
X91.3Y-110.5
X91.3Y-112.5
X91.3Y-114.5
X91.3Y-116.5
X91.3Y-118.5
X91.3Y-120.5
X91.3Y-122.5
X91.3Y-124.5
X91.3Y-126.5
X91.3Y-128.5
X91.3Y-130.5
X91.3Y-132.5
X91.3Y-134.5
X91.3Y-136.5
X91.3Y-138.5
X91.3Y-140.5
X91.3Y-142.5
X91.3Y-144.5
X91.3Y-146.5
X91.3Y-148.5
X91.3Y-150.5
X93.84Y-72.5
X93.84Y-84.5
X93.84Y-140.5
X93.92Y-40.5
X93.92Y-42.5
X93.92Y-44.5
X93.92Y-46.5
X93.92Y-48.5
X93.92Y-50.5
X93.92Y-52.5
X93.92Y-54.5
X93.92Y-56.5
X93.92Y-58.5
X93.92Y-60.5
X93.92Y-62.5
X93.92Y-64.5
X93.92Y-66.5
X93.92Y-68.5
X93.92Y-70.5
X93.92Y-74.5
X93.92Y-76.5
X93.92Y-78.5
X93.92Y-80.5
X93.92Y-82.5
X93.92Y-86.5
X93.92Y-88.5
X93.92Y-94.5
X93.92Y-96.5
X93.92Y-98.5
X93.92Y-100.5
X93.92Y-102.5
X93.92Y-104.5
X93.92Y-106.5
X93.92Y-108.5
X93.92Y-110.5
X93.92Y-112.5
X93.92Y-114.5
X93.92Y-116.5
X93.92Y-118.5
X93.92Y-120.5
X93.92Y-122.5
X93.92Y-124.5
X93.92Y-126.5
X93.92Y-128.5
X93.92Y-130.5
X93.92Y-132.5
X93.92Y-134.5
X93.92Y-136.5
X93.92Y-138.5
X93.92Y-142.5
X94.92Y-153.5
X95.2Y-147.5
X95.2Y-150.04
X101.92Y-41.0
X101.92Y-43.0
X101.92Y-45.0
X101.92Y-47.0
X101.92Y-49.5
X101.92Y-51.5
X101.92Y-53.5
X101.92Y-55.5
X101.92Y-57.5
X101.92Y-61.5
X101.92Y-63.5
X101.92Y-67.5
X101.92Y-69.5
X101.92Y-71.5
X101.92Y-73.5
X101.92Y-75.5
X101.92Y-77.5
X101.92Y-79.5
X101.92Y-83.5
X101.92Y-85.5
X101.92Y-87.5
X101.92Y-89.5
X101.92Y-95.5
X101.92Y-97.5
X101.92Y-99.5
X101.92Y-101.5
X101.92Y-103.5
X101.92Y-105.5
X101.92Y-107.5
X101.92Y-109.5
X101.92Y-111.5
X101.92Y-113.5
X101.92Y-117.5
X101.92Y-119.5
X101.92Y-121.5
X101.92Y-123.5
X101.92Y-125.5
X101.92Y-127.5
X101.92Y-129.5
X101.92Y-131.5
X101.92Y-133.5
X101.92Y-137.5
X101.92Y-139.5
X101.92Y-141.5
X101.92Y-143.5
X102.0Y-59.5
X102.0Y-65.5
X102.0Y-81.5
X102.0Y-115.5
X102.0Y-135.5
X102.82Y-147.5
X102.82Y-150.04
X104.0Y-72.5
X104.0Y-84.5
X104.0Y-140.5
X104.08Y-40.5
X104.08Y-42.5
X104.08Y-44.5
X104.08Y-46.5
X104.08Y-48.5
X104.08Y-50.5
X104.08Y-52.5
X104.08Y-54.5
X104.08Y-56.5
X104.08Y-58.5
X104.08Y-60.5
X104.08Y-62.5
X104.08Y-64.5
X104.08Y-66.5
X104.08Y-68.5
X104.08Y-70.5
X104.08Y-74.5
X104.08Y-76.5
X104.08Y-78.5
X104.08Y-80.5
X104.08Y-82.5
X104.08Y-86.5
X104.08Y-88.5
X104.08Y-94.5
X104.08Y-96.5
X104.08Y-98.5
X104.08Y-100.5
X104.08Y-102.5
X104.08Y-104.5
X104.08Y-106.5
X104.08Y-108.5
X104.08Y-110.5
X104.08Y-112.5
X104.08Y-114.5
X104.08Y-116.5
X104.08Y-118.5
X104.08Y-120.5
X104.08Y-122.5
X104.08Y-124.5
X104.08Y-126.5
X104.08Y-128.5
X104.08Y-130.5
X104.08Y-132.5
X104.08Y-134.5
X104.08Y-136.5
X104.08Y-138.5
X104.08Y-142.5
X104.72Y-156.5
X104.9Y-27.4
X105.08Y-153.5
X106.7Y-147.225
X106.7Y-149.765
X106.72Y-156.5
X106.9Y-27.4
X107.92Y-153.5
X108.72Y-156.5
X108.9Y-27.4
X110.72Y-156.5
X110.9Y-27.4
X112.08Y-41.0
X112.08Y-43.0
X112.08Y-45.0
X112.08Y-47.0
X112.08Y-49.5
X112.08Y-51.5
X112.08Y-53.5
X112.08Y-55.5
X112.08Y-57.5
X112.08Y-61.5
X112.08Y-63.5
X112.08Y-67.5
X112.08Y-69.5
X112.08Y-71.5
X112.08Y-73.5
X112.08Y-75.5
X112.08Y-77.5
X112.08Y-79.5
X112.08Y-83.5
X112.08Y-85.5
X112.08Y-87.5
X112.08Y-89.5
X112.08Y-95.5
X112.08Y-97.5
X112.08Y-99.5
X112.08Y-101.5
X112.08Y-103.5
X112.08Y-105.5
X112.08Y-107.5
X112.08Y-109.5
X112.08Y-111.5
X112.08Y-113.5
X112.08Y-117.5
X112.08Y-119.5
X112.08Y-121.5
X112.08Y-123.5
X112.08Y-125.5
X112.08Y-127.5
X112.08Y-129.5
X112.08Y-131.5
X112.08Y-133.5
X112.08Y-137.5
X112.08Y-139.5
X112.08Y-141.5
X112.08Y-143.5
X112.16Y-59.5
X112.16Y-65.5
X112.16Y-81.5
X112.16Y-115.5
X112.16Y-135.5
X112.72Y-156.5
X112.9Y-27.4
X114.32Y-147.225
X114.32Y-149.765
X114.72Y-156.5
X114.9Y-27.4
X116.72Y-156.5
X116.9Y-27.4
X118.08Y-153.5
X118.72Y-156.5
X118.9Y-27.4
X120.72Y-156.5
X120.9Y-27.4
X122.72Y-156.5
X122.9Y-27.4
X124.72Y-156.5
X124.9Y-27.4
X126.72Y-156.5
X126.9Y-27.4
X127.0Y-78.25
X127.0Y-80.75
X128.72Y-156.5
X128.9Y-27.4
X130.0Y-85.19
X130.0Y-92.81
X130.72Y-156.5
X130.9Y-27.4
X131.095Y-75.2
X131.095Y-82.82
X132.72Y-156.5
X132.9Y-27.4
X133.0Y-85.5
X133.0Y-93.12
X133.5Y-65.19
X133.5Y-72.81
X133.635Y-75.2
X133.635Y-82.82
X134.72Y-156.5
X134.9Y-27.4
X136.0Y-65.19
X136.0Y-72.81
X136.0Y-85.5
X136.0Y-93.12
X136.175Y-75.2
X136.175Y-82.82
X136.72Y-156.5
X136.9Y-27.4
X138.5Y-65.19
X138.5Y-72.81
X138.715Y-75.2
X138.715Y-82.82
X138.72Y-156.5
X138.9Y-27.4
X140.72Y-156.5
X140.9Y-27.4
X141.255Y-75.2
X141.255Y-82.82
X141.5Y-65.19
X141.5Y-72.81
X142.72Y-156.5
X142.9Y-27.4
X143.5Y-65.19
X143.5Y-72.81
X143.795Y-75.2
X143.795Y-82.82
X144.72Y-156.5
X144.9Y-27.4
X146.05Y-125.9
X146.335Y-75.2
X146.335Y-82.82
X146.5Y-65.19
X146.5Y-72.81
X146.72Y-156.5
X146.9Y-27.4
X148.5Y-85.42
X148.5Y-90.5
X148.55Y-125.9
X148.72Y-156.5
X148.875Y-75.2
X148.875Y-82.82
X148.9Y-27.4
X149.5Y-65.19
X149.5Y-72.81
X150.72Y-156.5
X150.9Y-27.4
X151.04Y-87.96
X152.72Y-156.5
X152.9Y-27.4
X154.72Y-156.5
X154.9Y-27.4
X155.5Y-66.0
X155.5Y-68.54
X155.5Y-71.08
X155.5Y-73.62
X155.5Y-76.16
X155.5Y-78.7
X155.5Y-81.24
X155.5Y-83.78
X156.72Y-156.5
X156.9Y-27.4
X157.75Y-59.0
X158.15Y-87.0
X158.72Y-156.5
X158.9Y-27.4
X160.25Y-59.0
X160.65Y-87.0
X160.72Y-156.5
X160.9Y-27.4
X162.72Y-156.5
X162.9Y-27.4
X163.12Y-66.0
X163.12Y-68.54
X163.12Y-71.08
X163.12Y-73.62
X163.12Y-76.16
X163.12Y-78.7
X163.12Y-81.24
X163.12Y-83.78
X164.72Y-156.5
X164.9Y-27.4
X165.69Y-79.0
X165.69Y-84.0
X166.42Y-67.5
X166.72Y-156.5
X166.9Y-27.4
X168.72Y-156.5
X168.9Y-27.4
X170.72Y-156.5
X170.9Y-27.4
X172.72Y-156.5
X172.9Y-27.4
X173.31Y-79.0
X173.31Y-84.0
X173.42Y-73.0
X174.325Y-145.98
X174.325Y-153.6
X174.72Y-156.5
X174.9Y-27.4
X176.58Y-67.5
X176.72Y-156.5
X176.865Y-145.98
X176.865Y-153.6
X176.9Y-27.4
X177.5Y-110.5
X178.72Y-156.5
X178.9Y-27.4
X179.405Y-145.98
X179.405Y-153.6
X180.0Y-110.5
X180.72Y-156.5
X180.9Y-27.4
X181.945Y-145.98
X181.945Y-153.6
X182.72Y-156.5
X182.9Y-27.4
X183.58Y-73.0
X184.485Y-145.98
X184.485Y-153.6
X184.7Y-156.5
X184.92Y-27.4
X186.7Y-156.5
X186.92Y-27.4
X187.025Y-145.98
X187.025Y-153.6
X188.7Y-156.5
X188.92Y-27.4
X189.565Y-145.98
X189.565Y-153.6
X190.7Y-156.5
X190.92Y-27.4
X192.105Y-145.98
X192.105Y-153.6
X192.7Y-156.5
X192.92Y-27.4
X194.7Y-156.5
X194.92Y-27.4
X194.92Y-146.6
X196.2Y-150.1
X196.2Y-152.6
X196.7Y-156.5
X196.92Y-27.4
X198.7Y-156.5
X198.92Y-27.4
X199.32Y-123.5
X199.34Y-53.5
X199.34Y-61.5
X199.34Y-71.5
X199.34Y-97.5
X199.34Y-105.5
X199.34Y-113.5
X199.34Y-127.5
X199.42Y-41.5
X199.42Y-43.5
X199.42Y-45.5
X199.42Y-47.5
X199.42Y-49.5
X199.42Y-51.5
X199.42Y-55.5
X199.42Y-57.5
X199.42Y-59.5
X199.42Y-63.5
X199.42Y-65.5
X199.42Y-67.5
X199.42Y-69.5
X199.42Y-73.5
X199.42Y-75.5
X199.42Y-77.5
X199.42Y-79.5
X199.42Y-81.5
X199.42Y-83.5
X199.42Y-85.5
X199.42Y-87.5
X199.42Y-89.5
X199.42Y-95.5
X199.42Y-99.5
X199.42Y-101.5
X199.42Y-103.5
X199.42Y-107.5
X199.42Y-109.5
X199.42Y-111.5
X199.42Y-115.5
X199.42Y-117.5
X199.42Y-119.5
X199.42Y-121.5
X199.42Y-125.5
X199.42Y-129.5
X199.42Y-131.5
X199.42Y-133.5
X199.42Y-135.5
X199.42Y-137.5
X199.42Y-139.5
X199.42Y-141.5
X199.42Y-143.5
X199.6Y-149.725
X199.6Y-152.265
X200.7Y-156.5
X200.92Y-27.4
X202.7Y-156.5
X202.92Y-27.4
X204.7Y-156.5
X204.92Y-27.4
X205.08Y-146.6
X206.7Y-156.5
X206.92Y-27.4
X207.22Y-149.725
X207.22Y-152.265
X207.32Y-145.8
X207.42Y-40.5
X207.42Y-42.5
X207.42Y-44.5
X207.42Y-46.5
X207.42Y-48.5
X207.42Y-50.5
X207.42Y-52.5
X207.42Y-54.5
X207.42Y-56.5
X207.42Y-58.5
X207.42Y-60.5
X207.42Y-62.5
X207.42Y-64.5
X207.42Y-66.5
X207.42Y-68.5
X207.42Y-70.5
X207.42Y-72.5
X207.42Y-74.5
X207.42Y-76.5
X207.42Y-78.5
X207.42Y-80.5
X207.42Y-82.5
X207.42Y-84.5
X207.42Y-86.5
X207.42Y-88.5
X207.42Y-94.5
X207.42Y-96.5
X207.42Y-98.5
X207.42Y-100.5
X207.42Y-102.5
X207.42Y-104.5
X207.42Y-106.5
X207.42Y-108.5
X207.42Y-110.5
X207.42Y-112.5
X207.42Y-114.5
X207.42Y-116.5
X207.42Y-118.5
X207.42Y-120.5
X207.42Y-122.5
X207.42Y-126.5
X207.42Y-130.5
X207.42Y-132.5
X207.42Y-134.5
X207.42Y-136.5
X207.42Y-138.5
X207.42Y-140.5
X207.42Y-142.5
X207.5Y-124.5
X207.5Y-128.5
X209.48Y-123.5
X209.5Y-53.5
X209.5Y-61.5
X209.5Y-71.5
X209.5Y-97.5
X209.5Y-105.5
X209.5Y-113.5
X209.5Y-127.5
X209.58Y-41.5
X209.58Y-43.5
X209.58Y-45.5
X209.58Y-47.5
X209.58Y-49.5
X209.58Y-51.5
X209.58Y-55.5
X209.58Y-57.5
X209.58Y-59.5
X209.58Y-63.5
X209.58Y-65.5
X209.58Y-67.5
X209.58Y-69.5
X209.58Y-73.5
X209.58Y-75.5
X209.58Y-77.5
X209.58Y-79.5
X209.58Y-81.5
X209.58Y-83.5
X209.58Y-85.5
X209.58Y-87.5
X209.58Y-89.5
X209.58Y-95.5
X209.58Y-99.5
X209.58Y-101.5
X209.58Y-103.5
X209.58Y-107.5
X209.58Y-109.5
X209.58Y-111.5
X209.58Y-115.5
X209.58Y-117.5
X209.58Y-119.5
X209.58Y-121.5
X209.58Y-125.5
X209.58Y-129.5
X209.58Y-131.5
X209.58Y-133.5
X209.58Y-135.5
X209.58Y-137.5
X209.58Y-139.5
X209.58Y-141.5
X209.58Y-143.5
X209.8Y-148.925
X209.8Y-151.465
X217.42Y-148.925
X217.42Y-151.465
X217.48Y-145.8
X217.58Y-40.5
X217.58Y-42.5
X217.58Y-44.5
X217.58Y-46.5
X217.58Y-48.5
X217.58Y-50.5
X217.58Y-52.5
X217.58Y-54.5
X217.58Y-56.5
X217.58Y-58.5
X217.58Y-60.5
X217.58Y-62.5
X217.58Y-64.5
X217.58Y-66.5
X217.58Y-68.5
X217.58Y-70.5
X217.58Y-72.5
X217.58Y-74.5
X217.58Y-76.5
X217.58Y-78.5
X217.58Y-80.5
X217.58Y-82.5
X217.58Y-84.5
X217.58Y-86.5
X217.58Y-88.5
X217.58Y-94.5
X217.58Y-96.5
X217.58Y-98.5
X217.58Y-100.5
X217.58Y-102.5
X217.58Y-104.5
X217.58Y-106.5
X217.58Y-108.5
X217.58Y-110.5
X217.58Y-112.5
X217.58Y-114.5
X217.58Y-116.5
X217.58Y-118.5
X217.58Y-120.5
X217.58Y-122.5
X217.58Y-126.5
X217.58Y-130.5
X217.58Y-132.5
X217.58Y-134.5
X217.58Y-136.5
X217.58Y-138.5
X217.58Y-140.5
X217.58Y-142.5
X217.66Y-124.5
X217.66Y-128.5
X220.3Y-32.5
X220.3Y-34.5
X220.3Y-36.5
X220.3Y-38.5
X220.3Y-40.5
X220.3Y-42.5
X220.3Y-44.5
X220.3Y-46.5
X220.3Y-48.5
X220.3Y-50.5
X220.3Y-52.5
X220.3Y-54.5
X220.3Y-56.5
X220.3Y-58.5
X220.3Y-60.5
X220.3Y-62.5
X220.3Y-64.5
X220.3Y-66.5
X220.3Y-68.5
X220.3Y-70.5
X220.3Y-72.5
X220.3Y-74.5
X220.3Y-76.5
X220.3Y-78.5
X220.3Y-80.5
X220.3Y-82.5
X220.3Y-84.5
X220.3Y-86.5
X220.3Y-88.5
X220.3Y-94.5
X220.3Y-96.5
X220.3Y-98.5
X220.3Y-100.5
X220.3Y-102.5
X220.3Y-104.5
X220.3Y-106.5
X220.3Y-108.5
X220.3Y-110.5
X220.3Y-112.54
X220.3Y-114.54
X220.3Y-116.54
X220.3Y-118.54
X220.3Y-120.54
X220.3Y-122.54
X220.3Y-124.54
X220.3Y-126.54
X220.3Y-128.54
X220.3Y-130.54
X220.3Y-132.54
X220.3Y-134.54
X220.3Y-136.54
X220.3Y-138.54
X220.3Y-140.54
X220.3Y-142.54
X220.3Y-144.54
X220.3Y-146.54
X220.3Y-148.54
X220.3Y-150.54
T7
X175.715Y-45.545
X175.735Y-55.645
X178.255Y-45.545
X178.275Y-55.645
X180.795Y-45.545
X180.815Y-55.645
X183.335Y-45.545
X183.355Y-55.645
X185.875Y-45.545
X185.895Y-55.645
X188.415Y-45.545
X188.435Y-55.645
T8
X141.925Y-93.5
X144.465Y-93.5
X147.005Y-93.5
X149.545Y-93.5
X152.085Y-93.5
X173.968Y-126.517
X176.507Y-126.517
X179.047Y-126.517
T8
X146.8Y-144.0G85X146.8Y-142.0
G05
X150.5Y-140.0G85X152.5Y-140.0
G05
X150.5Y-146.0G85X152.5Y-146.0
G05
T0
M30
