%TF.GenerationSoftware,KiCad,Pcbnew,(6.0.5)*%
%TF.CreationDate,2022-05-25T23:49:35+01:00*%
%TF.ProjectId,screen-driver,73637265-656e-42d6-9472-697665722e6b,rev?*%
%TF.SameCoordinates,Original*%
%TF.FileFunction,Copper,L1,Top*%
%TF.FilePolarity,Positive*%
%FSLAX46Y46*%
G04 Gerber Fmt 4.6, Leading zero omitted, Abs format (unit mm)*
G04 Created by KiCad (PCBNEW (6.0.5)) date 2022-05-25 23:49:35*
%MOMM*%
%LPD*%
G01*
G04 APERTURE LIST*
G04 Aperture macros list*
%AMRoundRect*
0 Rectangle with rounded corners*
0 $1 Rounding radius*
0 $2 $3 $4 $5 $6 $7 $8 $9 X,Y pos of 4 corners*
0 Add a 4 corners polygon primitive as box body*
4,1,4,$2,$3,$4,$5,$6,$7,$8,$9,$2,$3,0*
0 Add four circle primitives for the rounded corners*
1,1,$1+$1,$2,$3*
1,1,$1+$1,$4,$5*
1,1,$1+$1,$6,$7*
1,1,$1+$1,$8,$9*
0 Add four rect primitives between the rounded corners*
20,1,$1+$1,$2,$3,$4,$5,0*
20,1,$1+$1,$4,$5,$6,$7,0*
20,1,$1+$1,$6,$7,$8,$9,0*
20,1,$1+$1,$8,$9,$2,$3,0*%
G04 Aperture macros list end*
%TA.AperFunction,ComponentPad*%
%ADD10C,1.600000*%
%TD*%
%TA.AperFunction,ComponentPad*%
%ADD11O,1.600000X1.600000*%
%TD*%
%TA.AperFunction,SMDPad,CuDef*%
%ADD12RoundRect,0.100000X-0.217500X-0.100000X0.217500X-0.100000X0.217500X0.100000X-0.217500X0.100000X0*%
%TD*%
%TA.AperFunction,SMDPad,CuDef*%
%ADD13RoundRect,0.100000X0.217500X0.100000X-0.217500X0.100000X-0.217500X-0.100000X0.217500X-0.100000X0*%
%TD*%
%TA.AperFunction,ComponentPad*%
%ADD14R,1.050000X1.500000*%
%TD*%
%TA.AperFunction,ComponentPad*%
%ADD15O,1.050000X1.500000*%
%TD*%
%TA.AperFunction,ComponentPad*%
%ADD16O,1.350000X1.350000*%
%TD*%
%TA.AperFunction,ComponentPad*%
%ADD17R,1.350000X1.350000*%
%TD*%
%TA.AperFunction,ComponentPad*%
%ADD18R,1.500000X1.050000*%
%TD*%
%TA.AperFunction,ComponentPad*%
%ADD19O,1.500000X1.050000*%
%TD*%
%TA.AperFunction,ComponentPad*%
%ADD20R,1.500000X2.500000*%
%TD*%
%TA.AperFunction,ComponentPad*%
%ADD21O,1.500000X2.500000*%
%TD*%
%TA.AperFunction,ComponentPad*%
%ADD22R,1.600000X1.600000*%
%TD*%
%TA.AperFunction,SMDPad,CuDef*%
%ADD23RoundRect,0.075000X-0.075000X0.662500X-0.075000X-0.662500X0.075000X-0.662500X0.075000X0.662500X0*%
%TD*%
%TA.AperFunction,SMDPad,CuDef*%
%ADD24RoundRect,0.075000X-0.662500X0.075000X-0.662500X-0.075000X0.662500X-0.075000X0.662500X0.075000X0*%
%TD*%
%TA.AperFunction,ComponentPad*%
%ADD25R,1.700000X1.700000*%
%TD*%
%TA.AperFunction,ComponentPad*%
%ADD26O,1.700000X1.700000*%
%TD*%
%TA.AperFunction,ComponentPad*%
%ADD27R,3.500000X3.500000*%
%TD*%
%TA.AperFunction,ComponentPad*%
%ADD28RoundRect,0.750000X1.000000X-0.750000X1.000000X0.750000X-1.000000X0.750000X-1.000000X-0.750000X0*%
%TD*%
%TA.AperFunction,ComponentPad*%
%ADD29RoundRect,0.875000X0.875000X-0.875000X0.875000X0.875000X-0.875000X0.875000X-0.875000X-0.875000X0*%
%TD*%
%TA.AperFunction,ComponentPad*%
%ADD30R,1.560000X1.560000*%
%TD*%
%TA.AperFunction,ComponentPad*%
%ADD31C,1.560000*%
%TD*%
%TA.AperFunction,ViaPad*%
%ADD32C,0.800000*%
%TD*%
%TA.AperFunction,ViaPad*%
%ADD33C,1.400000*%
%TD*%
%TA.AperFunction,ViaPad*%
%ADD34C,0.900000*%
%TD*%
%TA.AperFunction,Conductor*%
%ADD35C,0.250000*%
%TD*%
%TA.AperFunction,Conductor*%
%ADD36C,0.300000*%
%TD*%
%TA.AperFunction,Conductor*%
%ADD37C,0.800000*%
%TD*%
G04 APERTURE END LIST*
D10*
%TO.P,R113,1*%
%TO.N,Net-(J10-Pad4)*%
X158400000Y-88400000D03*
D11*
%TO.P,R113,2*%
%TO.N,GND*%
X150780000Y-88400000D03*
%TD*%
D12*
%TO.P,R36,1*%
%TO.N,Net-(J3-Pad2)*%
X94265000Y-115200000D03*
%TO.P,R36,2*%
%TO.N,Net-(R36-Pad2)*%
X95080000Y-115200000D03*
%TD*%
D13*
%TO.P,R92,1*%
%TO.N,Net-(J8-Pad38)*%
X217407500Y-107240000D03*
%TO.P,R92,2*%
%TO.N,Net-(R92-Pad2)*%
X216592500Y-107240000D03*
%TD*%
D10*
%TO.P,R55,1*%
%TO.N,Net-(R55-Pad1)*%
X158310000Y-52500000D03*
D11*
%TO.P,R55,2*%
%TO.N,Net-(Q19-Pad2)*%
X150690000Y-52500000D03*
%TD*%
D14*
%TO.P,Q4,1,E*%
%TO.N,GND*%
X142700000Y-52700000D03*
D15*
%TO.P,Q4,2,B*%
%TO.N,Net-(Q20-Pad2)*%
X143970000Y-52700000D03*
%TO.P,Q4,3,C*%
%TO.N,Net-(J2-Pad30)*%
X145240000Y-52700000D03*
%TD*%
D16*
%TO.P,J7,12,Pin_12*%
%TO.N,unconnected-(J7-Pad12)*%
X206700000Y-157200000D03*
%TO.P,J7,11,Pin_11*%
%TO.N,Net-(J7-Pad11)*%
X204700000Y-157200000D03*
%TO.P,J7,10,Pin_10*%
%TO.N,unconnected-(J7-Pad10)*%
X202700000Y-157200000D03*
%TO.P,J7,9,Pin_9*%
%TO.N,unconnected-(J7-Pad9)*%
X200700000Y-157200000D03*
%TO.P,J7,8,Pin_8*%
%TO.N,unconnected-(J7-Pad8)*%
X198700000Y-157200000D03*
%TO.P,J7,7,Pin_7*%
%TO.N,unconnected-(J7-Pad7)*%
X196700000Y-157200000D03*
%TO.P,J7,6,Pin_6*%
%TO.N,unconnected-(J7-Pad6)*%
X194700000Y-157200000D03*
%TO.P,J7,5,Pin_5*%
%TO.N,unconnected-(J7-Pad5)*%
X192700000Y-157200000D03*
%TO.P,J7,4,Pin_4*%
%TO.N,unconnected-(J7-Pad4)*%
X190700000Y-157200000D03*
%TO.P,J7,3,Pin_3*%
%TO.N,unconnected-(J7-Pad3)*%
X188700000Y-157200000D03*
%TO.P,J7,2,Pin_2*%
%TO.N,unconnected-(J7-Pad2)*%
X186700000Y-157200000D03*
D17*
%TO.P,J7,1,Pin_1*%
%TO.N,unconnected-(J7-Pad1)*%
X184700000Y-157200000D03*
%TD*%
D10*
%TO.P,R56,1*%
%TO.N,Net-(R56-Pad1)*%
X158110000Y-62900000D03*
D11*
%TO.P,R56,2*%
%TO.N,Net-(Q14-Pad2)*%
X150490000Y-62900000D03*
%TD*%
D16*
%TO.P,J6,12,Pin_12*%
%TO.N,unconnected-(J6-Pad12)*%
X206920000Y-28100000D03*
%TO.P,J6,11,Pin_11*%
%TO.N,Net-(J6-Pad11)*%
X204920000Y-28100000D03*
%TO.P,J6,10,Pin_10*%
%TO.N,unconnected-(J6-Pad10)*%
X202920000Y-28100000D03*
%TO.P,J6,9,Pin_9*%
%TO.N,unconnected-(J6-Pad9)*%
X200920000Y-28100000D03*
%TO.P,J6,8,Pin_8*%
%TO.N,Net-(J6-Pad8)*%
X198920000Y-28100000D03*
%TO.P,J6,7,Pin_7*%
%TO.N,unconnected-(J6-Pad7)*%
X196920000Y-28100000D03*
%TO.P,J6,6,Pin_6*%
%TO.N,unconnected-(J6-Pad6)*%
X194920000Y-28100000D03*
%TO.P,J6,5,Pin_5*%
%TO.N,Net-(J6-Pad5)*%
X192920000Y-28100000D03*
%TO.P,J6,4,Pin_4*%
%TO.N,unconnected-(J6-Pad4)*%
X190920000Y-28100000D03*
%TO.P,J6,3,Pin_3*%
%TO.N,unconnected-(J6-Pad3)*%
X188920000Y-28100000D03*
%TO.P,J6,2,Pin_2*%
%TO.N,Net-(J6-Pad2)*%
X186920000Y-28100000D03*
D17*
%TO.P,J6,1,Pin_1*%
%TO.N,unconnected-(J6-Pad1)*%
X184920000Y-28100000D03*
%TD*%
D13*
%TO.P,R64,1*%
%TO.N,Net-(J8-Pad8)*%
X217375000Y-47240000D03*
%TO.P,R64,2*%
%TO.N,Net-(R64-Pad2)*%
X216560000Y-47240000D03*
%TD*%
%TO.P,R68,1*%
%TO.N,Net-(J8-Pad12)*%
X217507500Y-55140000D03*
%TO.P,R68,2*%
%TO.N,Net-(R68-Pad2)*%
X216692500Y-55140000D03*
%TD*%
D10*
%TO.P,C3,1*%
%TO.N,+3V3*%
X193900000Y-63300000D03*
%TO.P,C3,2*%
%TO.N,GND*%
X196400000Y-63300000D03*
%TD*%
D12*
%TO.P,R42,1*%
%TO.N,Net-(J3-Pad8)*%
X94132500Y-127200000D03*
%TO.P,R42,2*%
%TO.N,Net-(R42-Pad2)*%
X94947500Y-127200000D03*
%TD*%
D10*
%TO.P,C1,1*%
%TO.N,+3V3*%
X164800000Y-72600000D03*
%TO.P,C1,2*%
%TO.N,GND*%
X167300000Y-72600000D03*
%TD*%
D13*
%TO.P,R87,1*%
%TO.N,Net-(J8-Pad33)*%
X217607500Y-97040000D03*
%TO.P,R87,2*%
%TO.N,Net-(R87-Pad2)*%
X216792500Y-97040000D03*
%TD*%
D16*
%TO.P,J5,40,Pin_40*%
%TO.N,unconnected-(J5-Pad40)*%
X182720000Y-157200000D03*
%TO.P,J5,39,Pin_39*%
%TO.N,unconnected-(J5-Pad39)*%
X180720000Y-157200000D03*
%TO.P,J5,38,Pin_38*%
%TO.N,unconnected-(J5-Pad38)*%
X178720000Y-157200000D03*
%TO.P,J5,37,Pin_37*%
%TO.N,unconnected-(J5-Pad37)*%
X176720000Y-157200000D03*
%TO.P,J5,36,Pin_36*%
%TO.N,unconnected-(J5-Pad36)*%
X174720000Y-157200000D03*
%TO.P,J5,35,Pin_35*%
%TO.N,unconnected-(J5-Pad35)*%
X172720000Y-157200000D03*
%TO.P,J5,34,Pin_34*%
%TO.N,unconnected-(J5-Pad34)*%
X170720000Y-157200000D03*
%TO.P,J5,33,Pin_33*%
%TO.N,unconnected-(J5-Pad33)*%
X168720000Y-157200000D03*
%TO.P,J5,32,Pin_32*%
%TO.N,unconnected-(J5-Pad32)*%
X166720000Y-157200000D03*
%TO.P,J5,31,Pin_31*%
%TO.N,unconnected-(J5-Pad31)*%
X164720000Y-157200000D03*
%TO.P,J5,30,Pin_30*%
%TO.N,unconnected-(J5-Pad30)*%
X162720000Y-157200000D03*
%TO.P,J5,29,Pin_29*%
%TO.N,unconnected-(J5-Pad29)*%
X160720000Y-157200000D03*
%TO.P,J5,28,Pin_28*%
%TO.N,unconnected-(J5-Pad28)*%
X158720000Y-157200000D03*
%TO.P,J5,27,Pin_27*%
%TO.N,unconnected-(J5-Pad27)*%
X156720000Y-157200000D03*
%TO.P,J5,26,Pin_26*%
%TO.N,unconnected-(J5-Pad26)*%
X154720000Y-157200000D03*
%TO.P,J5,25,Pin_25*%
%TO.N,unconnected-(J5-Pad25)*%
X152720000Y-157200000D03*
%TO.P,J5,24,Pin_24*%
%TO.N,unconnected-(J5-Pad24)*%
X150720000Y-157200000D03*
%TO.P,J5,23,Pin_23*%
%TO.N,unconnected-(J5-Pad23)*%
X148720000Y-157200000D03*
%TO.P,J5,22,Pin_22*%
%TO.N,unconnected-(J5-Pad22)*%
X146720000Y-157200000D03*
%TO.P,J5,21,Pin_21*%
%TO.N,unconnected-(J5-Pad21)*%
X144720000Y-157200000D03*
%TO.P,J5,20,Pin_20*%
%TO.N,unconnected-(J5-Pad20)*%
X142720000Y-157200000D03*
%TO.P,J5,19,Pin_19*%
%TO.N,unconnected-(J5-Pad19)*%
X140720000Y-157200000D03*
%TO.P,J5,18,Pin_18*%
%TO.N,unconnected-(J5-Pad18)*%
X138720000Y-157200000D03*
%TO.P,J5,17,Pin_17*%
%TO.N,unconnected-(J5-Pad17)*%
X136720000Y-157200000D03*
%TO.P,J5,16,Pin_16*%
%TO.N,unconnected-(J5-Pad16)*%
X134720000Y-157200000D03*
%TO.P,J5,15,Pin_15*%
%TO.N,unconnected-(J5-Pad15)*%
X132720000Y-157200000D03*
%TO.P,J5,14,Pin_14*%
%TO.N,unconnected-(J5-Pad14)*%
X130720000Y-157200000D03*
%TO.P,J5,13,Pin_13*%
%TO.N,unconnected-(J5-Pad13)*%
X128720000Y-157200000D03*
%TO.P,J5,12,Pin_12*%
%TO.N,unconnected-(J5-Pad12)*%
X126720000Y-157200000D03*
%TO.P,J5,11,Pin_11*%
%TO.N,unconnected-(J5-Pad11)*%
X124720000Y-157200000D03*
%TO.P,J5,10,Pin_10*%
%TO.N,unconnected-(J5-Pad10)*%
X122720000Y-157200000D03*
%TO.P,J5,9,Pin_9*%
%TO.N,unconnected-(J5-Pad9)*%
X120720000Y-157200000D03*
%TO.P,J5,8,Pin_8*%
%TO.N,unconnected-(J5-Pad8)*%
X118720000Y-157200000D03*
%TO.P,J5,7,Pin_7*%
%TO.N,unconnected-(J5-Pad7)*%
X116720000Y-157200000D03*
%TO.P,J5,6,Pin_6*%
%TO.N,unconnected-(J5-Pad6)*%
X114720000Y-157200000D03*
%TO.P,J5,5,Pin_5*%
%TO.N,unconnected-(J5-Pad5)*%
X112720000Y-157200000D03*
%TO.P,J5,4,Pin_4*%
%TO.N,unconnected-(J5-Pad4)*%
X110720000Y-157200000D03*
%TO.P,J5,3,Pin_3*%
%TO.N,unconnected-(J5-Pad3)*%
X108720000Y-157200000D03*
%TO.P,J5,2,Pin_2*%
%TO.N,unconnected-(J5-Pad2)*%
X106720000Y-157200000D03*
D17*
%TO.P,J5,1,Pin_1*%
%TO.N,Net-(J5-Pad1)*%
X104720000Y-157200000D03*
%TD*%
%TO.P,J9,1,Pin_1*%
%TO.N,Net-(J9-Pad1)*%
X220300000Y-113240000D03*
D16*
%TO.P,J9,2,Pin_2*%
%TO.N,Net-(J9-Pad2)*%
X220300000Y-115240000D03*
%TO.P,J9,3,Pin_3*%
%TO.N,Net-(J9-Pad3)*%
X220300000Y-117240000D03*
%TO.P,J9,4,Pin_4*%
%TO.N,Net-(J9-Pad4)*%
X220300000Y-119240000D03*
%TO.P,J9,5,Pin_5*%
%TO.N,Net-(J9-Pad5)*%
X220300000Y-121240000D03*
%TO.P,J9,6,Pin_6*%
%TO.N,Net-(J9-Pad6)*%
X220300000Y-123240000D03*
%TO.P,J9,7,Pin_7*%
%TO.N,Net-(J9-Pad7)*%
X220300000Y-125240000D03*
%TO.P,J9,8,Pin_8*%
%TO.N,Net-(J9-Pad8)*%
X220300000Y-127240000D03*
%TO.P,J9,9,Pin_9*%
%TO.N,Net-(J9-Pad9)*%
X220300000Y-129240000D03*
%TO.P,J9,10,Pin_10*%
%TO.N,Net-(J9-Pad10)*%
X220300000Y-131240000D03*
%TO.P,J9,11,Pin_11*%
%TO.N,Net-(J9-Pad11)*%
X220300000Y-133240000D03*
%TO.P,J9,12,Pin_12*%
%TO.N,Net-(J9-Pad12)*%
X220300000Y-135240000D03*
%TO.P,J9,13,Pin_13*%
%TO.N,Net-(J9-Pad13)*%
X220300000Y-137240000D03*
%TO.P,J9,14,Pin_14*%
%TO.N,Net-(J9-Pad14)*%
X220300000Y-139240000D03*
%TO.P,J9,15,Pin_15*%
%TO.N,Net-(J9-Pad15)*%
X220300000Y-141240000D03*
%TO.P,J9,16,Pin_16*%
%TO.N,Net-(J9-Pad16)*%
X220300000Y-143240000D03*
%TO.P,J9,17,Pin_17*%
%TO.N,Net-(J9-Pad17)*%
X220300000Y-145240000D03*
%TO.P,J9,18,Pin_18*%
%TO.N,Net-(J9-Pad18)*%
X220300000Y-147240000D03*
%TO.P,J9,19,Pin_19*%
%TO.N,Net-(J9-Pad19)*%
X220300000Y-149240000D03*
%TO.P,J9,20,Pin_20*%
%TO.N,Net-(J9-Pad20)*%
X220300000Y-151240000D03*
%TD*%
D10*
%TO.P,C4,1*%
%TO.N,+3V3*%
X145550000Y-88300000D03*
%TO.P,C4,2*%
%TO.N,GND*%
X148050000Y-88300000D03*
%TD*%
D12*
%TO.P,R13,1*%
%TO.N,Net-(J2-Pad17)*%
X94172500Y-65100000D03*
%TO.P,R13,2*%
%TO.N,Net-(R13-Pad2)*%
X94987500Y-65100000D03*
%TD*%
%TO.P,R50,1*%
%TO.N,Net-(J3-Pad16)*%
X94240000Y-143200000D03*
%TO.P,R50,2*%
%TO.N,Net-(R50-Pad2)*%
X95055000Y-143200000D03*
%TD*%
%TO.P,R41,1*%
%TO.N,Net-(J3-Pad7)*%
X94105000Y-125200000D03*
%TO.P,R41,2*%
%TO.N,Net-(R41-Pad2)*%
X94920000Y-125200000D03*
%TD*%
D14*
%TO.P,Q27,1,E*%
%TO.N,Net-(Q22-Pad1)*%
X121800000Y-34200000D03*
D15*
%TO.P,Q27,2,B*%
%TO.N,Net-(Q10-Pad2)*%
X123070000Y-34200000D03*
%TO.P,Q27,3,C*%
%TO.N,Net-(J4-Pad9)*%
X124340000Y-34200000D03*
%TD*%
D14*
%TO.P,Q32,1,E*%
%TO.N,GND*%
X174430000Y-51560000D03*
D15*
%TO.P,Q32,2,B*%
%TO.N,Net-(Q32-Pad2)*%
X175700000Y-51560000D03*
%TO.P,Q32,3,C*%
%TO.N,Net-(Q22-Pad1)*%
X176970000Y-51560000D03*
%TD*%
D13*
%TO.P,R95,1*%
%TO.N,Net-(J9-Pad1)*%
X217607500Y-113240000D03*
%TO.P,R95,2*%
%TO.N,Net-(R95-Pad2)*%
X216792500Y-113240000D03*
%TD*%
D12*
%TO.P,R43,1*%
%TO.N,Net-(J3-Pad9)*%
X94140000Y-129200000D03*
%TO.P,R43,2*%
%TO.N,Net-(R43-Pad2)*%
X94955000Y-129200000D03*
%TD*%
%TO.P,R29,1*%
%TO.N,Net-(J2-Pad35)*%
X94172500Y-101300000D03*
%TO.P,R29,2*%
%TO.N,Net-(R29-Pad2)*%
X94987500Y-101300000D03*
%TD*%
D17*
%TO.P,J3,1,Pin_1*%
%TO.N,Net-(J3-Pad1)*%
X91300000Y-113200000D03*
D16*
%TO.P,J3,2,Pin_2*%
%TO.N,Net-(J3-Pad2)*%
X91300000Y-115200000D03*
%TO.P,J3,3,Pin_3*%
%TO.N,Net-(J3-Pad3)*%
X91300000Y-117200000D03*
%TO.P,J3,4,Pin_4*%
%TO.N,Net-(J3-Pad4)*%
X91300000Y-119200000D03*
%TO.P,J3,5,Pin_5*%
%TO.N,Net-(J3-Pad5)*%
X91300000Y-121200000D03*
%TO.P,J3,6,Pin_6*%
%TO.N,Net-(J3-Pad6)*%
X91300000Y-123200000D03*
%TO.P,J3,7,Pin_7*%
%TO.N,Net-(J3-Pad7)*%
X91300000Y-125200000D03*
%TO.P,J3,8,Pin_8*%
%TO.N,Net-(J3-Pad8)*%
X91300000Y-127200000D03*
%TO.P,J3,9,Pin_9*%
%TO.N,Net-(J3-Pad9)*%
X91300000Y-129200000D03*
%TO.P,J3,10,Pin_10*%
%TO.N,Net-(J3-Pad10)*%
X91300000Y-131200000D03*
%TO.P,J3,11,Pin_11*%
%TO.N,Net-(J3-Pad11)*%
X91300000Y-133200000D03*
%TO.P,J3,12,Pin_12*%
%TO.N,Net-(J3-Pad12)*%
X91300000Y-135200000D03*
%TO.P,J3,13,Pin_13*%
%TO.N,Net-(J3-Pad13)*%
X91300000Y-137200000D03*
%TO.P,J3,14,Pin_14*%
%TO.N,Net-(J3-Pad14)*%
X91300000Y-139200000D03*
%TO.P,J3,15,Pin_15*%
%TO.N,Net-(J3-Pad15)*%
X91300000Y-141200000D03*
%TO.P,J3,16,Pin_16*%
%TO.N,Net-(J3-Pad16)*%
X91300000Y-143200000D03*
%TO.P,J3,17,Pin_17*%
%TO.N,Net-(J3-Pad17)*%
X91300000Y-145200000D03*
%TO.P,J3,18,Pin_18*%
%TO.N,Net-(J3-Pad18)*%
X91300000Y-147200000D03*
%TO.P,J3,19,Pin_19*%
%TO.N,Net-(J3-Pad19)*%
X91300000Y-149200000D03*
%TO.P,J3,20,Pin_20*%
%TO.N,Net-(J3-Pad20)*%
X91300000Y-151200000D03*
%TD*%
D12*
%TO.P,R4,1*%
%TO.N,Net-(J2-Pad8)*%
X94165000Y-47200000D03*
%TO.P,R4,2*%
%TO.N,Net-(R4-Pad2)*%
X94980000Y-47200000D03*
%TD*%
D13*
%TO.P,R86,1*%
%TO.N,Net-(J8-Pad32)*%
X217675000Y-95140000D03*
%TO.P,R86,2*%
%TO.N,Net-(R86-Pad2)*%
X216860000Y-95140000D03*
%TD*%
D14*
%TO.P,Q9,1,E*%
%TO.N,GND*%
X142600000Y-72200000D03*
D15*
%TO.P,Q9,2,B*%
%TO.N,Net-(Q17-Pad2)*%
X143870000Y-72200000D03*
%TO.P,Q9,3,C*%
%TO.N,Net-(J2-Pad3)*%
X145140000Y-72200000D03*
%TD*%
D13*
%TO.P,R74,1*%
%TO.N,Net-(J8-Pad18)*%
X217607500Y-67140000D03*
%TO.P,R74,2*%
%TO.N,Net-(R74-Pad2)*%
X216792500Y-67140000D03*
%TD*%
D12*
%TO.P,R17,1*%
%TO.N,Net-(J2-Pad21)*%
X94240000Y-73200000D03*
%TO.P,R17,2*%
%TO.N,Net-(R17-Pad2)*%
X95055000Y-73200000D03*
%TD*%
%TO.P,R47,1*%
%TO.N,Net-(J3-Pad13)*%
X94072500Y-137200000D03*
%TO.P,R47,2*%
%TO.N,Net-(R47-Pad2)*%
X94887500Y-137200000D03*
%TD*%
D14*
%TO.P,Q10,1,E*%
%TO.N,GND*%
X129700000Y-151600000D03*
D15*
%TO.P,Q10,2,B*%
%TO.N,Net-(Q10-Pad2)*%
X130970000Y-151600000D03*
%TO.P,Q10,3,C*%
%TO.N,Net-(J3-Pad17)*%
X132240000Y-151600000D03*
%TD*%
D12*
%TO.P,R20,1*%
%TO.N,Net-(J2-Pad24)*%
X94272500Y-79200000D03*
%TO.P,R20,2*%
%TO.N,Net-(R20-Pad2)*%
X95087500Y-79200000D03*
%TD*%
D18*
%TO.P,Q12,1,E*%
%TO.N,Net-(Q11-Pad1)*%
X186300000Y-67100000D03*
D19*
%TO.P,Q12,2,B*%
%TO.N,Net-(Q12-Pad2)*%
X186300000Y-68370000D03*
%TO.P,Q12,3,C*%
%TO.N,Net-(J6-Pad11)*%
X186300000Y-69640000D03*
%TD*%
D13*
%TO.P,R89,1*%
%TO.N,Net-(J8-Pad35)*%
X217475000Y-101240000D03*
%TO.P,R89,2*%
%TO.N,Net-(R89-Pad2)*%
X216660000Y-101240000D03*
%TD*%
%TO.P,R76,1*%
%TO.N,Net-(J8-Pad20)*%
X217515000Y-71240000D03*
%TO.P,R76,2*%
%TO.N,Net-(R76-Pad2)*%
X216700000Y-71240000D03*
%TD*%
%TO.P,R75,1*%
%TO.N,Net-(J8-Pad19)*%
X217575000Y-69240000D03*
%TO.P,R75,2*%
%TO.N,Net-(R75-Pad2)*%
X216760000Y-69240000D03*
%TD*%
D10*
%TO.P,R57,1*%
%TO.N,Net-(R57-Pad1)*%
X158110000Y-66300000D03*
D11*
%TO.P,R57,2*%
%TO.N,Net-(Q13-Pad2)*%
X150490000Y-66300000D03*
%TD*%
D10*
%TO.P,R58,1*%
%TO.N,Net-(R58-Pad1)*%
X173200000Y-68100000D03*
D11*
%TO.P,R58,2*%
%TO.N,Net-(Q12-Pad2)*%
X180820000Y-68100000D03*
%TD*%
D13*
%TO.P,R97,1*%
%TO.N,Net-(J9-Pad3)*%
X217642500Y-117340000D03*
%TO.P,R97,2*%
%TO.N,Net-(R97-Pad2)*%
X216827500Y-117340000D03*
%TD*%
D14*
%TO.P,Q22,1,E*%
%TO.N,Net-(Q22-Pad1)*%
X148530000Y-34100000D03*
D15*
%TO.P,Q22,2,B*%
%TO.N,Net-(Q1-Pad2)*%
X149800000Y-34100000D03*
%TO.P,Q22,3,C*%
%TO.N,Net-(J4-Pad24)*%
X151070000Y-34100000D03*
%TD*%
D12*
%TO.P,R6,1*%
%TO.N,Net-(J2-Pad10)*%
X94140000Y-51200000D03*
%TO.P,R6,2*%
%TO.N,Net-(R6-Pad2)*%
X94955000Y-51200000D03*
%TD*%
D14*
%TO.P,Q28,1,E*%
%TO.N,Net-(Q22-Pad1)*%
X110230000Y-34260000D03*
D15*
%TO.P,Q28,2,B*%
%TO.N,Net-(Q17-Pad2)*%
X111500000Y-34260000D03*
%TO.P,Q28,3,C*%
%TO.N,Net-(J4-Pad6)*%
X112770000Y-34260000D03*
%TD*%
D14*
%TO.P,Q30,1,E*%
%TO.N,Net-(Q22-Pad1)*%
X104270000Y-151040000D03*
D15*
%TO.P,Q30,2,B*%
%TO.N,Net-(Q19-Pad2)*%
X105540000Y-151040000D03*
%TO.P,Q30,3,C*%
%TO.N,Net-(J5-Pad1)*%
X106810000Y-151040000D03*
%TD*%
D12*
%TO.P,R10,1*%
%TO.N,Net-(J2-Pad14)*%
X94005000Y-59200000D03*
%TO.P,R10,2*%
%TO.N,Net-(R10-Pad2)*%
X94820000Y-59200000D03*
%TD*%
D14*
%TO.P,Q16,1,E*%
%TO.N,Net-(Q11-Pad1)*%
X179130000Y-34260000D03*
D15*
%TO.P,Q16,2,B*%
%TO.N,Net-(Q10-Pad2)*%
X180400000Y-34260000D03*
%TO.P,Q16,3,C*%
%TO.N,Net-(J4-Pad39)*%
X181670000Y-34260000D03*
%TD*%
D13*
%TO.P,R106,1*%
%TO.N,Net-(J9-Pad11)*%
X217475000Y-133240000D03*
%TO.P,R106,2*%
%TO.N,Net-(R106-Pad2)*%
X216660000Y-133240000D03*
%TD*%
D10*
%TO.P,R54,1*%
%TO.N,Net-(R54-Pad1)*%
X158210000Y-48725000D03*
D11*
%TO.P,R54,2*%
%TO.N,Net-(Q15-Pad2)*%
X150590000Y-48725000D03*
%TD*%
D12*
%TO.P,R32,1*%
%TO.N,Net-(J2-Pad38)*%
X94272500Y-107200000D03*
%TO.P,R32,2*%
%TO.N,Net-(R32-Pad2)*%
X95087500Y-107200000D03*
%TD*%
D13*
%TO.P,R67,1*%
%TO.N,Net-(J8-Pad11)*%
X217500000Y-53240000D03*
%TO.P,R67,2*%
%TO.N,Net-(R67-Pad2)*%
X216685000Y-53240000D03*
%TD*%
%TO.P,R94,1*%
%TO.N,Net-(J8-Pad40)*%
X217407500Y-111240000D03*
%TO.P,R94,2*%
%TO.N,Net-(R94-Pad2)*%
X216592500Y-111240000D03*
%TD*%
D14*
%TO.P,Q29,1,E*%
%TO.N,Net-(Q22-Pad1)*%
X114100000Y-41860000D03*
D15*
%TO.P,Q29,2,B*%
%TO.N,Net-(Q18-Pad2)*%
X115370000Y-41860000D03*
%TO.P,Q29,3,C*%
%TO.N,Net-(J4-Pad3)*%
X116640000Y-41860000D03*
%TD*%
D14*
%TO.P,Q26,1,E*%
%TO.N,Net-(Q22-Pad1)*%
X142430000Y-45960000D03*
D15*
%TO.P,Q26,2,B*%
%TO.N,Net-(Q15-Pad2)*%
X143700000Y-45960000D03*
%TO.P,Q26,3,C*%
%TO.N,Net-(J4-Pad12)*%
X144970000Y-45960000D03*
%TD*%
D13*
%TO.P,R103,1*%
%TO.N,Net-(J9-Pad8)*%
X217507500Y-127140000D03*
%TO.P,R103,2*%
%TO.N,Net-(R103-Pad2)*%
X216692500Y-127140000D03*
%TD*%
%TO.P,R83,1*%
%TO.N,Net-(J8-Pad27)*%
X217375000Y-85240000D03*
%TO.P,R83,2*%
%TO.N,Net-(R83-Pad2)*%
X216560000Y-85240000D03*
%TD*%
D10*
%TO.P,R101,1*%
%TO.N,Net-(R101-Pad1)*%
X158310000Y-56000000D03*
D11*
%TO.P,R101,2*%
%TO.N,Net-(Q20-Pad2)*%
X150690000Y-56000000D03*
%TD*%
D14*
%TO.P,Q19,1,E*%
%TO.N,Net-(Q11-Pad1)*%
X160100000Y-34300000D03*
D15*
%TO.P,Q19,2,B*%
%TO.N,Net-(Q19-Pad2)*%
X161370000Y-34300000D03*
%TO.P,Q19,3,C*%
%TO.N,Net-(J4-Pad30)*%
X162640000Y-34300000D03*
%TD*%
D17*
%TO.P,J8,1,Pin_1*%
%TO.N,Net-(J8-Pad1)*%
X220300000Y-33200000D03*
D16*
%TO.P,J8,2,Pin_2*%
%TO.N,Net-(J8-Pad2)*%
X220300000Y-35200000D03*
%TO.P,J8,3,Pin_3*%
%TO.N,Net-(J8-Pad3)*%
X220300000Y-37200000D03*
%TO.P,J8,4,Pin_4*%
%TO.N,Net-(J8-Pad4)*%
X220300000Y-39200000D03*
%TO.P,J8,5,Pin_5*%
%TO.N,Net-(J8-Pad5)*%
X220300000Y-41200000D03*
%TO.P,J8,6,Pin_6*%
%TO.N,Net-(J8-Pad6)*%
X220300000Y-43200000D03*
%TO.P,J8,7,Pin_7*%
%TO.N,Net-(J8-Pad7)*%
X220300000Y-45200000D03*
%TO.P,J8,8,Pin_8*%
%TO.N,Net-(J8-Pad8)*%
X220300000Y-47200000D03*
%TO.P,J8,9,Pin_9*%
%TO.N,Net-(J8-Pad9)*%
X220300000Y-49200000D03*
%TO.P,J8,10,Pin_10*%
%TO.N,Net-(J8-Pad10)*%
X220300000Y-51200000D03*
%TO.P,J8,11,Pin_11*%
%TO.N,Net-(J8-Pad11)*%
X220300000Y-53200000D03*
%TO.P,J8,12,Pin_12*%
%TO.N,Net-(J8-Pad12)*%
X220300000Y-55200000D03*
%TO.P,J8,13,Pin_13*%
%TO.N,Net-(J8-Pad13)*%
X220300000Y-57200000D03*
%TO.P,J8,14,Pin_14*%
%TO.N,Net-(J8-Pad14)*%
X220300000Y-59200000D03*
%TO.P,J8,15,Pin_15*%
%TO.N,Net-(J8-Pad15)*%
X220300000Y-61200000D03*
%TO.P,J8,16,Pin_16*%
%TO.N,Net-(J8-Pad16)*%
X220300000Y-63200000D03*
%TO.P,J8,17,Pin_17*%
%TO.N,Net-(J8-Pad17)*%
X220300000Y-65200000D03*
%TO.P,J8,18,Pin_18*%
%TO.N,Net-(J8-Pad18)*%
X220300000Y-67200000D03*
%TO.P,J8,19,Pin_19*%
%TO.N,Net-(J8-Pad19)*%
X220300000Y-69200000D03*
%TO.P,J8,20,Pin_20*%
%TO.N,Net-(J8-Pad20)*%
X220300000Y-71200000D03*
%TO.P,J8,21,Pin_21*%
%TO.N,Net-(J8-Pad21)*%
X220300000Y-73200000D03*
%TO.P,J8,22,Pin_22*%
%TO.N,Net-(J8-Pad22)*%
X220300000Y-75200000D03*
%TO.P,J8,23,Pin_23*%
%TO.N,Net-(J8-Pad23)*%
X220300000Y-77200000D03*
%TO.P,J8,24,Pin_24*%
%TO.N,Net-(J8-Pad24)*%
X220300000Y-79200000D03*
%TO.P,J8,25,Pin_25*%
%TO.N,Net-(J8-Pad25)*%
X220300000Y-81200000D03*
%TO.P,J8,26,Pin_26*%
%TO.N,Net-(J8-Pad26)*%
X220300000Y-83200000D03*
%TO.P,J8,27,Pin_27*%
%TO.N,Net-(J8-Pad27)*%
X220300000Y-85200000D03*
%TO.P,J8,28,Pin_28*%
%TO.N,Net-(J8-Pad28)*%
X220300000Y-87200000D03*
%TO.P,J8,29,Pin_29*%
%TO.N,Net-(J8-Pad29)*%
X220300000Y-89200000D03*
%TO.P,J8,30,Pin_30*%
%TO.N,unconnected-(J8-Pad30)*%
X220300000Y-91200000D03*
%TO.P,J8,31,Pin_31*%
%TO.N,unconnected-(J8-Pad31)*%
X220300000Y-93200000D03*
%TO.P,J8,32,Pin_32*%
%TO.N,Net-(J8-Pad32)*%
X220300000Y-95200000D03*
%TO.P,J8,33,Pin_33*%
%TO.N,Net-(J8-Pad33)*%
X220300000Y-97200000D03*
%TO.P,J8,34,Pin_34*%
%TO.N,Net-(J8-Pad34)*%
X220300000Y-99200000D03*
%TO.P,J8,35,Pin_35*%
%TO.N,Net-(J8-Pad35)*%
X220300000Y-101200000D03*
%TO.P,J8,36,Pin_36*%
%TO.N,Net-(J8-Pad36)*%
X220300000Y-103200000D03*
%TO.P,J8,37,Pin_37*%
%TO.N,Net-(J8-Pad37)*%
X220300000Y-105200000D03*
%TO.P,J8,38,Pin_38*%
%TO.N,Net-(J8-Pad38)*%
X220300000Y-107200000D03*
%TO.P,J8,39,Pin_39*%
%TO.N,Net-(J8-Pad39)*%
X220300000Y-109200000D03*
%TO.P,J8,40,Pin_40*%
%TO.N,Net-(J8-Pad40)*%
X220300000Y-111200000D03*
%TD*%
D13*
%TO.P,R73,1*%
%TO.N,Net-(J8-Pad17)*%
X217575000Y-65140000D03*
%TO.P,R73,2*%
%TO.N,Net-(R73-Pad2)*%
X216760000Y-65140000D03*
%TD*%
D12*
%TO.P,R39,1*%
%TO.N,Net-(J3-Pad5)*%
X94340000Y-121200000D03*
%TO.P,R39,2*%
%TO.N,Net-(R39-Pad2)*%
X95155000Y-121200000D03*
%TD*%
D20*
%TO.P,U4,1,Vin*%
%TO.N,Net-(J1-Pad1)*%
X182700000Y-131600000D03*
D21*
%TO.P,U4,2,GND*%
%TO.N,GND*%
X180160000Y-131600000D03*
%TO.P,U4,3,Vout*%
%TO.N,+5V*%
X177620000Y-131600000D03*
%TD*%
D22*
%TO.P,U5,1,5*%
%TO.N,Net-(R54-Pad1)*%
X161900000Y-50400000D03*
D11*
%TO.P,U5,2,1*%
%TO.N,Net-(R55-Pad1)*%
X161900000Y-52940000D03*
%TO.P,U5,3,O*%
%TO.N,Net-(R101-Pad1)*%
X161900000Y-55480000D03*
%TO.P,U5,4,2*%
%TO.N,Net-(R51-Pad1)*%
X161900000Y-58020000D03*
%TO.P,U5,5,6*%
%TO.N,Net-(R56-Pad1)*%
X161900000Y-60560000D03*
%TO.P,U5,6,7*%
%TO.N,Net-(R57-Pad1)*%
X161900000Y-63100000D03*
%TO.P,U5,7,3*%
%TO.N,Net-(R52-Pad1)*%
X161900000Y-65640000D03*
%TO.P,U5,8,VSS*%
%TO.N,GND*%
X161900000Y-68180000D03*
%TO.P,U5,9,8*%
%TO.N,Net-(R58-Pad1)*%
X169520000Y-68180000D03*
%TO.P,U5,10,4*%
%TO.N,Net-(R53-Pad1)*%
X169520000Y-65640000D03*
%TO.P,U5,11,9*%
%TO.N,Net-(R59-Pad1)*%
X169520000Y-63100000D03*
%TO.P,U5,12,CARRY_OUT*%
%TO.N,unconnected-(U5-Pad12)*%
X169520000Y-60560000D03*
%TO.P,U5,13,CLOCK_INHIBIT*%
%TO.N,unconnected-(U5-Pad13)*%
X169520000Y-58020000D03*
%TO.P,U5,14,CLOCK*%
%TO.N,unconnected-(U5-Pad14)*%
X169520000Y-55480000D03*
%TO.P,U5,15,RESET*%
%TO.N,Net-(U2-Pad10)*%
X169520000Y-52940000D03*
%TO.P,U5,16,VDD*%
%TO.N,+3V3*%
X169520000Y-50400000D03*
%TD*%
D13*
%TO.P,R85,1*%
%TO.N,Net-(J8-Pad29)*%
X217307500Y-89240000D03*
%TO.P,R85,2*%
%TO.N,Net-(R85-Pad2)*%
X216492500Y-89240000D03*
%TD*%
%TO.P,R71,1*%
%TO.N,Net-(J8-Pad15)*%
X217607500Y-61240000D03*
%TO.P,R71,2*%
%TO.N,Net-(R71-Pad2)*%
X216792500Y-61240000D03*
%TD*%
D12*
%TO.P,R14,1*%
%TO.N,Net-(J2-Pad18)*%
X94140000Y-67200000D03*
%TO.P,R14,2*%
%TO.N,Net-(R14-Pad2)*%
X94955000Y-67200000D03*
%TD*%
%TO.P,R46,1*%
%TO.N,Net-(J3-Pad12)*%
X94072500Y-135200000D03*
%TO.P,R46,2*%
%TO.N,Net-(R46-Pad2)*%
X94887500Y-135200000D03*
%TD*%
%TO.P,R26,1*%
%TO.N,Net-(J2-Pad32)*%
X94040000Y-95200000D03*
%TO.P,R26,2*%
%TO.N,Net-(R26-Pad2)*%
X94855000Y-95200000D03*
%TD*%
D14*
%TO.P,Q11,1,E*%
%TO.N,Net-(Q11-Pad1)*%
X200830000Y-150760000D03*
D15*
%TO.P,Q11,2,B*%
%TO.N,Net-(Q1-Pad2)*%
X202100000Y-150760000D03*
%TO.P,Q11,3,C*%
%TO.N,Net-(J7-Pad11)*%
X203370000Y-150760000D03*
%TD*%
D13*
%TO.P,R81,1*%
%TO.N,Net-(J8-Pad25)*%
X217400000Y-81240000D03*
%TO.P,R81,2*%
%TO.N,Net-(R81-Pad2)*%
X216585000Y-81240000D03*
%TD*%
%TO.P,R66,1*%
%TO.N,Net-(J8-Pad10)*%
X217475000Y-51340000D03*
%TO.P,R66,2*%
%TO.N,Net-(R66-Pad2)*%
X216660000Y-51340000D03*
%TD*%
D12*
%TO.P,R33,1*%
%TO.N,Net-(J2-Pad39)*%
X94080000Y-109200000D03*
%TO.P,R33,2*%
%TO.N,Net-(R33-Pad2)*%
X94895000Y-109200000D03*
%TD*%
D13*
%TO.P,R79,1*%
%TO.N,Net-(J8-Pad23)*%
X217407500Y-77140000D03*
%TO.P,R79,2*%
%TO.N,Net-(R79-Pad2)*%
X216592500Y-77140000D03*
%TD*%
D12*
%TO.P,R3,1*%
%TO.N,Net-(J2-Pad7)*%
X94192500Y-45200000D03*
%TO.P,R3,2*%
%TO.N,Net-(R3-Pad2)*%
X95007500Y-45200000D03*
%TD*%
%TO.P,R40,1*%
%TO.N,Net-(J3-Pad6)*%
X94405000Y-123200000D03*
%TO.P,R40,2*%
%TO.N,Net-(R40-Pad2)*%
X95220000Y-123200000D03*
%TD*%
%TO.P,R23,1*%
%TO.N,Net-(J2-Pad27)*%
X94172500Y-85200000D03*
%TO.P,R23,2*%
%TO.N,Net-(R23-Pad2)*%
X94987500Y-85200000D03*
%TD*%
D16*
%TO.P,J4,40,Pin_40*%
%TO.N,unconnected-(J4-Pad40)*%
X182900000Y-28100000D03*
%TO.P,J4,39,Pin_39*%
%TO.N,Net-(J4-Pad39)*%
X180900000Y-28100000D03*
%TO.P,J4,38,Pin_38*%
%TO.N,unconnected-(J4-Pad38)*%
X178900000Y-28100000D03*
%TO.P,J4,37,Pin_37*%
%TO.N,unconnected-(J4-Pad37)*%
X176900000Y-28100000D03*
%TO.P,J4,36,Pin_36*%
%TO.N,Net-(J4-Pad36)*%
X174900000Y-28100000D03*
%TO.P,J4,35,Pin_35*%
%TO.N,unconnected-(J4-Pad35)*%
X172900000Y-28100000D03*
%TO.P,J4,34,Pin_34*%
%TO.N,unconnected-(J4-Pad34)*%
X170900000Y-28100000D03*
%TO.P,J4,33,Pin_33*%
%TO.N,Net-(J4-Pad33)*%
X168900000Y-28100000D03*
%TO.P,J4,32,Pin_32*%
%TO.N,unconnected-(J4-Pad32)*%
X166900000Y-28100000D03*
%TO.P,J4,31,Pin_31*%
%TO.N,unconnected-(J4-Pad31)*%
X164900000Y-28100000D03*
%TO.P,J4,30,Pin_30*%
%TO.N,Net-(J4-Pad30)*%
X162900000Y-28100000D03*
%TO.P,J4,29,Pin_29*%
%TO.N,unconnected-(J4-Pad29)*%
X160900000Y-28100000D03*
%TO.P,J4,28,Pin_28*%
%TO.N,unconnected-(J4-Pad28)*%
X158900000Y-28100000D03*
%TO.P,J4,27,Pin_27*%
%TO.N,Net-(J4-Pad27)*%
X156900000Y-28100000D03*
%TO.P,J4,26,Pin_26*%
%TO.N,unconnected-(J4-Pad26)*%
X154900000Y-28100000D03*
%TO.P,J4,25,Pin_25*%
%TO.N,unconnected-(J4-Pad25)*%
X152900000Y-28100000D03*
%TO.P,J4,24,Pin_24*%
%TO.N,Net-(J4-Pad24)*%
X150900000Y-28100000D03*
%TO.P,J4,23,Pin_23*%
%TO.N,unconnected-(J4-Pad23)*%
X148900000Y-28100000D03*
%TO.P,J4,22,Pin_22*%
%TO.N,unconnected-(J4-Pad22)*%
X146900000Y-28100000D03*
%TO.P,J4,21,Pin_21*%
%TO.N,Net-(J4-Pad21)*%
X144900000Y-28100000D03*
%TO.P,J4,20,Pin_20*%
%TO.N,unconnected-(J4-Pad20)*%
X142900000Y-28100000D03*
%TO.P,J4,19,Pin_19*%
%TO.N,unconnected-(J4-Pad19)*%
X140900000Y-28100000D03*
%TO.P,J4,18,Pin_18*%
%TO.N,Net-(J4-Pad18)*%
X138900000Y-28100000D03*
%TO.P,J4,17,Pin_17*%
%TO.N,unconnected-(J4-Pad17)*%
X136900000Y-28100000D03*
%TO.P,J4,16,Pin_16*%
%TO.N,unconnected-(J4-Pad16)*%
X134900000Y-28100000D03*
%TO.P,J4,15,Pin_15*%
%TO.N,Net-(J4-Pad15)*%
X132900000Y-28100000D03*
%TO.P,J4,14,Pin_14*%
%TO.N,unconnected-(J4-Pad14)*%
X130900000Y-28100000D03*
%TO.P,J4,13,Pin_13*%
%TO.N,unconnected-(J4-Pad13)*%
X128900000Y-28100000D03*
%TO.P,J4,12,Pin_12*%
%TO.N,Net-(J4-Pad12)*%
X126900000Y-28100000D03*
%TO.P,J4,11,Pin_11*%
%TO.N,unconnected-(J4-Pad11)*%
X124900000Y-28100000D03*
%TO.P,J4,10,Pin_10*%
%TO.N,unconnected-(J4-Pad10)*%
X122900000Y-28100000D03*
%TO.P,J4,9,Pin_9*%
%TO.N,Net-(J4-Pad9)*%
X120900000Y-28100000D03*
%TO.P,J4,8,Pin_8*%
%TO.N,unconnected-(J4-Pad8)*%
X118900000Y-28100000D03*
%TO.P,J4,7,Pin_7*%
%TO.N,unconnected-(J4-Pad7)*%
X116900000Y-28100000D03*
%TO.P,J4,6,Pin_6*%
%TO.N,Net-(J4-Pad6)*%
X114900000Y-28100000D03*
%TO.P,J4,5,Pin_5*%
%TO.N,unconnected-(J4-Pad5)*%
X112900000Y-28100000D03*
%TO.P,J4,4,Pin_4*%
%TO.N,unconnected-(J4-Pad4)*%
X110900000Y-28100000D03*
%TO.P,J4,3,Pin_3*%
%TO.N,Net-(J4-Pad3)*%
X108900000Y-28100000D03*
%TO.P,J4,2,Pin_2*%
%TO.N,Net-(J4-Pad2)*%
X106900000Y-28100000D03*
D17*
%TO.P,J4,1,Pin_1*%
%TO.N,unconnected-(J4-Pad1)*%
X104900000Y-28100000D03*
%TD*%
D14*
%TO.P,Q8,1,E*%
%TO.N,GND*%
X142700000Y-59200000D03*
D15*
%TO.P,Q8,2,B*%
%TO.N,Net-(Q18-Pad2)*%
X143970000Y-59200000D03*
%TO.P,Q8,3,C*%
%TO.N,Net-(J2-Pad31)*%
X145240000Y-59200000D03*
%TD*%
D14*
%TO.P,Q31,1,E*%
%TO.N,Net-(Q22-Pad1)*%
X116030000Y-34260000D03*
D15*
%TO.P,Q31,2,B*%
%TO.N,Net-(Q20-Pad2)*%
X117300000Y-34260000D03*
%TO.P,Q31,3,C*%
%TO.N,Net-(J4-Pad2)*%
X118570000Y-34260000D03*
%TD*%
D13*
%TO.P,R90,1*%
%TO.N,Net-(J8-Pad36)*%
X217407500Y-103240000D03*
%TO.P,R90,2*%
%TO.N,Net-(R90-Pad2)*%
X216592500Y-103240000D03*
%TD*%
D14*
%TO.P,Q25,1,E*%
%TO.N,Net-(Q22-Pad1)*%
X131530000Y-34060000D03*
D15*
%TO.P,Q25,2,B*%
%TO.N,Net-(Q14-Pad2)*%
X132800000Y-34060000D03*
%TO.P,Q25,3,C*%
%TO.N,Net-(J4-Pad15)*%
X134070000Y-34060000D03*
%TD*%
D23*
%TO.P,U1,1,OUT3*%
%TO.N,Net-(R3-Pad2)*%
X127200000Y-88337500D03*
%TO.P,U1,2,OUT4*%
%TO.N,Net-(R4-Pad2)*%
X126700000Y-88337500D03*
%TO.P,U1,3,OUT5*%
%TO.N,Net-(R5-Pad2)*%
X126200000Y-88337500D03*
%TO.P,U1,4,OUT6*%
%TO.N,Net-(R6-Pad2)*%
X125700000Y-88337500D03*
%TO.P,U1,5,OUT7*%
%TO.N,Net-(R7-Pad2)*%
X125200000Y-88337500D03*
%TO.P,U1,6,OUT8*%
%TO.N,Net-(R8-Pad2)*%
X124700000Y-88337500D03*
%TO.P,U1,7,OUT9*%
%TO.N,Net-(R9-Pad2)*%
X124200000Y-88337500D03*
%TO.P,U1,8,OUT10*%
%TO.N,Net-(R10-Pad2)*%
X123700000Y-88337500D03*
%TO.P,U1,9,OUT11*%
%TO.N,Net-(R11-Pad2)*%
X123200000Y-88337500D03*
%TO.P,U1,10,OUT12*%
%TO.N,Net-(R12-Pad2)*%
X122700000Y-88337500D03*
%TO.P,U1,11,OUT13*%
%TO.N,Net-(R13-Pad2)*%
X122200000Y-88337500D03*
%TO.P,U1,12,OUT14*%
%TO.N,Net-(R14-Pad2)*%
X121700000Y-88337500D03*
%TO.P,U1,13,OUT15*%
%TO.N,Net-(R15-Pad2)*%
X121200000Y-88337500D03*
%TO.P,U1,14,OUT16*%
%TO.N,Net-(R16-Pad2)*%
X120700000Y-88337500D03*
%TO.P,U1,15,OUT17*%
%TO.N,Net-(R17-Pad2)*%
X120200000Y-88337500D03*
%TO.P,U1,16,OUT18*%
%TO.N,Net-(R18-Pad2)*%
X119700000Y-88337500D03*
%TO.P,U1,17,OUT19*%
%TO.N,Net-(R19-Pad2)*%
X119200000Y-88337500D03*
%TO.P,U1,18,OUT20*%
%TO.N,Net-(R20-Pad2)*%
X118700000Y-88337500D03*
%TO.P,U1,19,OUT21*%
%TO.N,Net-(R21-Pad2)*%
X118200000Y-88337500D03*
%TO.P,U1,20,OUT22*%
%TO.N,Net-(R22-Pad2)*%
X117700000Y-88337500D03*
%TO.P,U1,21,OUT23*%
%TO.N,Net-(R23-Pad2)*%
X117200000Y-88337500D03*
%TO.P,U1,22,OUT24*%
%TO.N,Net-(R24-Pad2)*%
X116700000Y-88337500D03*
%TO.P,U1,23,OUT25*%
%TO.N,Net-(R25-Pad2)*%
X116200000Y-88337500D03*
%TO.P,U1,24,OUT26*%
%TO.N,Net-(R26-Pad2)*%
X115700000Y-88337500D03*
%TO.P,U1,25,OUT27*%
%TO.N,Net-(R27-Pad2)*%
X115200000Y-88337500D03*
D24*
%TO.P,U1,26,OUT28*%
%TO.N,Net-(R28-Pad2)*%
X113537500Y-90000000D03*
%TO.P,U1,27,OUT29*%
%TO.N,Net-(R29-Pad2)*%
X113537500Y-90500000D03*
%TO.P,U1,28,OUT30*%
%TO.N,Net-(R30-Pad2)*%
X113537500Y-91000000D03*
%TO.P,U1,29,OUT31*%
%TO.N,Net-(R31-Pad2)*%
X113537500Y-91500000D03*
%TO.P,U1,30,OUT32*%
%TO.N,Net-(R32-Pad2)*%
X113537500Y-92000000D03*
%TO.P,U1,31,NC*%
%TO.N,unconnected-(U1-Pad31)*%
X113537500Y-92500000D03*
%TO.P,U1,32,VDDH*%
%TO.N,GND*%
X113537500Y-93000000D03*
%TO.P,U1,33,VDDH*%
X113537500Y-93500000D03*
%TO.P,U1,34,NC*%
%TO.N,unconnected-(U1-Pad34)*%
X113537500Y-94000000D03*
%TO.P,U1,35,GND1*%
%TO.N,GND*%
X113537500Y-94500000D03*
%TO.P,U1,36,GND1*%
X113537500Y-95000000D03*
%TO.P,U1,37,GND1*%
X113537500Y-95500000D03*
%TO.P,U1,38,NC*%
%TO.N,unconnected-(U1-Pad38)*%
X113537500Y-96000000D03*
%TO.P,U1,39,GND2*%
%TO.N,GND*%
X113537500Y-96500000D03*
%TO.P,U1,40,GND1*%
X113537500Y-97000000D03*
%TO.P,U1,41,GND1*%
X113537500Y-97500000D03*
%TO.P,U1,42,NC*%
%TO.N,unconnected-(U1-Pad42)*%
X113537500Y-98000000D03*
%TO.P,U1,43,VDDH*%
%TO.N,GND*%
X113537500Y-98500000D03*
%TO.P,U1,44,VDDH*%
%TO.N,Net-(J10-Pad3)*%
X113537500Y-99000000D03*
%TO.P,U1,45,NC*%
%TO.N,unconnected-(U1-Pad45)*%
X113537500Y-99500000D03*
%TO.P,U1,46,OUT33*%
%TO.N,Net-(R33-Pad2)*%
X113537500Y-100000000D03*
%TO.P,U1,47,OUT34*%
%TO.N,Net-(R34-Pad2)*%
X113537500Y-100500000D03*
%TO.P,U1,48,OUT35*%
%TO.N,Net-(R35-Pad2)*%
X113537500Y-101000000D03*
%TO.P,U1,49,OUT36*%
%TO.N,Net-(R36-Pad2)*%
X113537500Y-101500000D03*
%TO.P,U1,50,OUT37*%
%TO.N,Net-(R37-Pad2)*%
X113537500Y-102000000D03*
D23*
%TO.P,U1,51,OUT38*%
%TO.N,Net-(R38-Pad2)*%
X115200000Y-103662500D03*
%TO.P,U1,52,OUT39*%
%TO.N,Net-(R39-Pad2)*%
X115700000Y-103662500D03*
%TO.P,U1,53,OUT40*%
%TO.N,Net-(R40-Pad2)*%
X116200000Y-103662500D03*
%TO.P,U1,54,OUT41*%
%TO.N,Net-(R41-Pad2)*%
X116700000Y-103662500D03*
%TO.P,U1,55,OUT42*%
%TO.N,Net-(R42-Pad2)*%
X117200000Y-103662500D03*
%TO.P,U1,56,OUT43*%
%TO.N,Net-(R43-Pad2)*%
X117700000Y-103662500D03*
%TO.P,U1,57,OUT44*%
%TO.N,Net-(R44-Pad2)*%
X118200000Y-103662500D03*
%TO.P,U1,58,OUT45*%
%TO.N,Net-(R45-Pad2)*%
X118700000Y-103662500D03*
%TO.P,U1,59,OUT46*%
%TO.N,Net-(R46-Pad2)*%
X119200000Y-103662500D03*
%TO.P,U1,60,OUT47*%
%TO.N,Net-(R47-Pad2)*%
X119700000Y-103662500D03*
%TO.P,U1,61,OUT48*%
%TO.N,Net-(R48-Pad2)*%
X120200000Y-103662500D03*
%TO.P,U1,62,OUT49*%
%TO.N,Net-(R49-Pad2)*%
X120700000Y-103662500D03*
%TO.P,U1,63,OUT50*%
%TO.N,Net-(R50-Pad2)*%
X121200000Y-103662500D03*
%TO.P,U1,64,OUT51*%
%TO.N,unconnected-(U1-Pad64)*%
X121700000Y-103662500D03*
%TO.P,U1,65,OUT52*%
%TO.N,unconnected-(U1-Pad65)*%
X122200000Y-103662500D03*
%TO.P,U1,66,OUT53*%
%TO.N,unconnected-(U1-Pad66)*%
X122700000Y-103662500D03*
%TO.P,U1,67,OUT54*%
%TO.N,unconnected-(U1-Pad67)*%
X123200000Y-103662500D03*
%TO.P,U1,68,OUT55*%
%TO.N,unconnected-(U1-Pad68)*%
X123700000Y-103662500D03*
%TO.P,U1,69,OUT56*%
%TO.N,unconnected-(U1-Pad69)*%
X124200000Y-103662500D03*
%TO.P,U1,70,OUT57*%
%TO.N,unconnected-(U1-Pad70)*%
X124700000Y-103662500D03*
%TO.P,U1,71,OUT58*%
%TO.N,unconnected-(U1-Pad71)*%
X125200000Y-103662500D03*
%TO.P,U1,72,OUT59*%
%TO.N,unconnected-(U1-Pad72)*%
X125700000Y-103662500D03*
%TO.P,U1,73,OUT60*%
%TO.N,unconnected-(U1-Pad73)*%
X126200000Y-103662500D03*
%TO.P,U1,74,OUT61*%
%TO.N,unconnected-(U1-Pad74)*%
X126700000Y-103662500D03*
%TO.P,U1,75,OUT62*%
%TO.N,unconnected-(U1-Pad75)*%
X127200000Y-103662500D03*
D24*
%TO.P,U1,76,OUT63*%
%TO.N,unconnected-(U1-Pad76)*%
X128862500Y-102000000D03*
%TO.P,U1,77,OUT64*%
%TO.N,unconnected-(U1-Pad77)*%
X128862500Y-101500000D03*
%TO.P,U1,78,NC*%
%TO.N,unconnected-(U1-Pad78)*%
X128862500Y-101000000D03*
%TO.P,U1,79,VDDH*%
%TO.N,GND*%
X128862500Y-100500000D03*
%TO.P,U1,80,VDDH*%
X128862500Y-100000000D03*
%TO.P,U1,81,NC*%
%TO.N,unconnected-(U1-Pad81)*%
X128862500Y-99500000D03*
%TO.P,U1,82,GND1*%
%TO.N,GND*%
X128862500Y-99000000D03*
%TO.P,U1,83,GND1*%
X128862500Y-98500000D03*
%TO.P,U1,84,DIR*%
%TO.N,Net-(U1-Pad84)*%
X128862500Y-98000000D03*
%TO.P,U1,85,SO*%
%TO.N,unconnected-(U1-Pad85)*%
X128862500Y-97500000D03*
%TO.P,U1,86,CLK*%
%TO.N,Net-(U1-Pad86)*%
X128862500Y-97000000D03*
%TO.P,U1,87,LAT*%
%TO.N,Net-(U1-Pad87)*%
X128862500Y-96500000D03*
%TO.P,U1,88,VDD*%
%TO.N,+3V3*%
X128862500Y-96000000D03*
%TO.P,U1,89,OC1*%
%TO.N,Net-(U1-Pad89)*%
X128862500Y-95500000D03*
%TO.P,U1,90,OC2*%
%TO.N,Net-(U1-Pad90)*%
X128862500Y-95000000D03*
%TO.P,U1,91,SI*%
%TO.N,Net-(U1-Pad91)*%
X128862500Y-94500000D03*
%TO.P,U1,92,CLR*%
%TO.N,Net-(U1-Pad92)*%
X128862500Y-94000000D03*
%TO.P,U1,93,GND1*%
%TO.N,GND*%
X128862500Y-93500000D03*
%TO.P,U1,94,GND1*%
%TO.N,unconnected-(U1-Pad94)*%
X128862500Y-93000000D03*
%TO.P,U1,95,NC*%
%TO.N,unconnected-(U1-Pad95)*%
X128862500Y-92500000D03*
%TO.P,U1,96,VDDH*%
%TO.N,GND*%
X128862500Y-92000000D03*
%TO.P,U1,97,VDDH*%
X128862500Y-91500000D03*
%TO.P,U1,98,NC*%
%TO.N,unconnected-(U1-Pad98)*%
X128862500Y-91000000D03*
%TO.P,U1,99,OUT1*%
%TO.N,Net-(R1-Pad2)*%
X128862500Y-90500000D03*
%TO.P,U1,100,OUT2*%
%TO.N,Net-(R2-Pad2)*%
X128862500Y-90000000D03*
%TD*%
D11*
%TO.P,U6,16,VDD*%
%TO.N,+3V3*%
X189280000Y-59475000D03*
%TO.P,U6,15,RESET*%
%TO.N,Net-(U2-Pad20)*%
X189280000Y-56935000D03*
%TO.P,U6,14,CLOCK*%
%TO.N,Net-(U2-Pad19)*%
X189280000Y-54395000D03*
%TO.P,U6,13,CLOCK_INHIBIT*%
%TO.N,unconnected-(U6-Pad13)*%
X189280000Y-51855000D03*
%TO.P,U6,12,CARRY_OUT*%
%TO.N,unconnected-(U6-Pad12)*%
X189280000Y-49315000D03*
%TO.P,U6,11,9*%
%TO.N,Net-(R112-Pad1)*%
X189280000Y-46775000D03*
%TO.P,U6,10,4*%
%TO.N,Net-(J8-Pad2)*%
X189280000Y-44235000D03*
%TO.P,U6,9,8*%
%TO.N,Net-(R60-Pad1)*%
X189280000Y-41695000D03*
%TO.P,U6,8,VSS*%
%TO.N,GND*%
X196900000Y-41695000D03*
%TO.P,U6,7,3*%
%TO.N,Net-(J9-Pad19)*%
X196900000Y-44235000D03*
%TO.P,U6,6,7*%
%TO.N,Net-(J8-Pad1)*%
X196900000Y-46775000D03*
%TO.P,U6,5,6*%
%TO.N,Net-(J9-Pad17)*%
X196900000Y-49315000D03*
%TO.P,U6,4,2*%
%TO.N,Net-(J8-Pad3)*%
X196900000Y-51855000D03*
%TO.P,U6,3,O*%
%TO.N,Net-(J8-Pad4)*%
X196900000Y-54395000D03*
%TO.P,U6,2,1*%
%TO.N,Net-(J9-Pad18)*%
X196900000Y-56935000D03*
D22*
%TO.P,U6,1,5*%
%TO.N,Net-(J9-Pad20)*%
X196900000Y-59475000D03*
%TD*%
D14*
%TO.P,Q18,1,E*%
%TO.N,Net-(Q11-Pad1)*%
X166230000Y-34260000D03*
D15*
%TO.P,Q18,2,B*%
%TO.N,Net-(Q18-Pad2)*%
X167500000Y-34260000D03*
%TO.P,Q18,3,C*%
%TO.N,Net-(J4-Pad33)*%
X168770000Y-34260000D03*
%TD*%
D10*
%TO.P,R60,1*%
%TO.N,Net-(R60-Pad1)*%
X186410000Y-41400000D03*
D11*
%TO.P,R60,2*%
%TO.N,Net-(Q21-Pad2)*%
X178790000Y-41400000D03*
%TD*%
D14*
%TO.P,Q7,1,E*%
%TO.N,GND*%
X122800000Y-151500000D03*
D15*
%TO.P,Q7,2,B*%
%TO.N,Net-(Q15-Pad2)*%
X124070000Y-151500000D03*
%TO.P,Q7,3,C*%
%TO.N,Net-(J3-Pad19)*%
X125340000Y-151500000D03*
%TD*%
D12*
%TO.P,R27,1*%
%TO.N,Net-(J2-Pad33)*%
X94140000Y-97200000D03*
%TO.P,R27,2*%
%TO.N,Net-(R27-Pad2)*%
X94955000Y-97200000D03*
%TD*%
D13*
%TO.P,R109,1*%
%TO.N,Net-(J9-Pad14)*%
X217507500Y-139240000D03*
%TO.P,R109,2*%
%TO.N,Net-(R109-Pad2)*%
X216692500Y-139240000D03*
%TD*%
D10*
%TO.P,R52,1*%
%TO.N,Net-(R52-Pad1)*%
X158110000Y-69700000D03*
D11*
%TO.P,R52,2*%
%TO.N,Net-(Q17-Pad2)*%
X150490000Y-69700000D03*
%TD*%
D13*
%TO.P,R72,1*%
%TO.N,Net-(J8-Pad16)*%
X217575000Y-63140000D03*
%TO.P,R72,2*%
%TO.N,Net-(R72-Pad2)*%
X216760000Y-63140000D03*
%TD*%
D12*
%TO.P,R24,1*%
%TO.N,Net-(J2-Pad28)*%
X94072500Y-87200000D03*
%TO.P,R24,2*%
%TO.N,Net-(R24-Pad2)*%
X94887500Y-87200000D03*
%TD*%
D14*
%TO.P,Q23,1,E*%
%TO.N,Net-(Q22-Pad1)*%
X141830000Y-34000000D03*
D15*
%TO.P,Q23,2,B*%
%TO.N,Net-(Q12-Pad2)*%
X143100000Y-34000000D03*
%TO.P,Q23,3,C*%
%TO.N,Net-(J4-Pad21)*%
X144370000Y-34000000D03*
%TD*%
D13*
%TO.P,R91,1*%
%TO.N,Net-(J8-Pad37)*%
X217475000Y-105140000D03*
%TO.P,R91,2*%
%TO.N,Net-(R91-Pad2)*%
X216660000Y-105140000D03*
%TD*%
%TO.P,R107,1*%
%TO.N,Net-(J9-Pad12)*%
X217415000Y-135240000D03*
%TO.P,R107,2*%
%TO.N,Net-(R107-Pad2)*%
X216600000Y-135240000D03*
%TD*%
D25*
%TO.P,J10,1,Pin_1*%
%TO.N,Net-(J1-Pad1)*%
X158200000Y-83300000D03*
D26*
%TO.P,J10,2,Pin_2*%
%TO.N,GND*%
X155660000Y-83300000D03*
%TO.P,J10,3,Pin_3*%
%TO.N,Net-(J10-Pad3)*%
X153120000Y-83300000D03*
%TO.P,J10,4,Pin_4*%
%TO.N,Net-(J10-Pad4)*%
X150580000Y-83300000D03*
%TO.P,J10,5,Pin_5*%
%TO.N,GND*%
X148040000Y-83300000D03*
%TD*%
D13*
%TO.P,R80,1*%
%TO.N,Net-(J8-Pad24)*%
X217407500Y-79240000D03*
%TO.P,R80,2*%
%TO.N,Net-(R80-Pad2)*%
X216592500Y-79240000D03*
%TD*%
D14*
%TO.P,Q15,1,E*%
%TO.N,Net-(Q11-Pad1)*%
X185230000Y-34260000D03*
D15*
%TO.P,Q15,2,B*%
%TO.N,Net-(Q15-Pad2)*%
X186500000Y-34260000D03*
%TO.P,Q15,3,C*%
%TO.N,Net-(J6-Pad2)*%
X187770000Y-34260000D03*
%TD*%
D10*
%TO.P,R112,1*%
%TO.N,Net-(R112-Pad1)*%
X186410000Y-45800000D03*
D11*
%TO.P,R112,2*%
%TO.N,Net-(Q32-Pad2)*%
X178790000Y-45800000D03*
%TD*%
D12*
%TO.P,R48,1*%
%TO.N,Net-(J3-Pad14)*%
X94172500Y-139200000D03*
%TO.P,R48,2*%
%TO.N,Net-(R48-Pad2)*%
X94987500Y-139200000D03*
%TD*%
%TO.P,R7,1*%
%TO.N,Net-(J2-Pad11)*%
X94105000Y-53200000D03*
%TO.P,R7,2*%
%TO.N,Net-(R7-Pad2)*%
X94920000Y-53200000D03*
%TD*%
D14*
%TO.P,Q21,1,E*%
%TO.N,GND*%
X171830000Y-41260000D03*
D15*
%TO.P,Q21,2,B*%
%TO.N,Net-(Q21-Pad2)*%
X173100000Y-41260000D03*
%TO.P,Q21,3,C*%
%TO.N,Net-(Q11-Pad1)*%
X174370000Y-41260000D03*
%TD*%
D13*
%TO.P,R84,1*%
%TO.N,Net-(J8-Pad28)*%
X217375000Y-87240000D03*
%TO.P,R84,2*%
%TO.N,Net-(R84-Pad2)*%
X216560000Y-87240000D03*
%TD*%
D23*
%TO.P,U3,1,OUT3*%
%TO.N,Net-(R63-Pad2)*%
X197600000Y-86637500D03*
%TO.P,U3,2,OUT4*%
%TO.N,Net-(R64-Pad2)*%
X197100000Y-86637500D03*
%TO.P,U3,3,OUT5*%
%TO.N,Net-(R65-Pad2)*%
X196600000Y-86637500D03*
%TO.P,U3,4,OUT6*%
%TO.N,Net-(R66-Pad2)*%
X196100000Y-86637500D03*
%TO.P,U3,5,OUT7*%
%TO.N,Net-(R67-Pad2)*%
X195600000Y-86637500D03*
%TO.P,U3,6,OUT8*%
%TO.N,Net-(R68-Pad2)*%
X195100000Y-86637500D03*
%TO.P,U3,7,OUT9*%
%TO.N,Net-(R69-Pad2)*%
X194600000Y-86637500D03*
%TO.P,U3,8,OUT10*%
%TO.N,Net-(R70-Pad2)*%
X194100000Y-86637500D03*
%TO.P,U3,9,OUT11*%
%TO.N,Net-(R71-Pad2)*%
X193600000Y-86637500D03*
%TO.P,U3,10,OUT12*%
%TO.N,Net-(R72-Pad2)*%
X193100000Y-86637500D03*
%TO.P,U3,11,OUT13*%
%TO.N,Net-(R73-Pad2)*%
X192600000Y-86637500D03*
%TO.P,U3,12,OUT14*%
%TO.N,Net-(R74-Pad2)*%
X192100000Y-86637500D03*
%TO.P,U3,13,OUT15*%
%TO.N,Net-(R75-Pad2)*%
X191600000Y-86637500D03*
%TO.P,U3,14,OUT16*%
%TO.N,Net-(R76-Pad2)*%
X191100000Y-86637500D03*
%TO.P,U3,15,OUT17*%
%TO.N,Net-(R77-Pad2)*%
X190600000Y-86637500D03*
%TO.P,U3,16,OUT18*%
%TO.N,Net-(R78-Pad2)*%
X190100000Y-86637500D03*
%TO.P,U3,17,OUT19*%
%TO.N,Net-(R79-Pad2)*%
X189600000Y-86637500D03*
%TO.P,U3,18,OUT20*%
%TO.N,Net-(R80-Pad2)*%
X189100000Y-86637500D03*
%TO.P,U3,19,OUT21*%
%TO.N,Net-(R81-Pad2)*%
X188600000Y-86637500D03*
%TO.P,U3,20,OUT22*%
%TO.N,Net-(R82-Pad2)*%
X188100000Y-86637500D03*
%TO.P,U3,21,OUT23*%
%TO.N,Net-(R83-Pad2)*%
X187600000Y-86637500D03*
%TO.P,U3,22,OUT24*%
%TO.N,Net-(R84-Pad2)*%
X187100000Y-86637500D03*
%TO.P,U3,23,OUT25*%
%TO.N,Net-(R85-Pad2)*%
X186600000Y-86637500D03*
%TO.P,U3,24,OUT26*%
%TO.N,Net-(R86-Pad2)*%
X186100000Y-86637500D03*
%TO.P,U3,25,OUT27*%
%TO.N,Net-(R87-Pad2)*%
X185600000Y-86637500D03*
D24*
%TO.P,U3,26,OUT28*%
%TO.N,Net-(R88-Pad2)*%
X183937500Y-88300000D03*
%TO.P,U3,27,OUT29*%
%TO.N,Net-(R89-Pad2)*%
X183937500Y-88800000D03*
%TO.P,U3,28,OUT30*%
%TO.N,Net-(R90-Pad2)*%
X183937500Y-89300000D03*
%TO.P,U3,29,OUT31*%
%TO.N,Net-(R91-Pad2)*%
X183937500Y-89800000D03*
%TO.P,U3,30,OUT32*%
%TO.N,Net-(R92-Pad2)*%
X183937500Y-90300000D03*
%TO.P,U3,31,NC*%
%TO.N,unconnected-(U3-Pad31)*%
X183937500Y-90800000D03*
%TO.P,U3,32,VDDH*%
%TO.N,Net-(J10-Pad3)*%
X183937500Y-91300000D03*
%TO.P,U3,33,VDDH*%
X183937500Y-91800000D03*
%TO.P,U3,34,NC*%
%TO.N,unconnected-(U3-Pad34)*%
X183937500Y-92300000D03*
%TO.P,U3,35,GND1*%
%TO.N,GND*%
X183937500Y-92800000D03*
%TO.P,U3,36,GND1*%
X183937500Y-93300000D03*
%TO.P,U3,37,GND1*%
X183937500Y-93800000D03*
%TO.P,U3,38,NC*%
%TO.N,unconnected-(U3-Pad38)*%
X183937500Y-94300000D03*
%TO.P,U3,39,GND2*%
%TO.N,GND*%
X183937500Y-94800000D03*
%TO.P,U3,40,GND1*%
X183937500Y-95300000D03*
%TO.P,U3,41,GND1*%
X183937500Y-95800000D03*
%TO.P,U3,42,NC*%
%TO.N,unconnected-(U3-Pad42)*%
X183937500Y-96300000D03*
%TO.P,U3,43,VDDH*%
%TO.N,Net-(J10-Pad3)*%
X183937500Y-96800000D03*
%TO.P,U3,44,VDDH*%
X183937500Y-97300000D03*
%TO.P,U3,45,NC*%
%TO.N,unconnected-(U3-Pad45)*%
X183937500Y-97800000D03*
%TO.P,U3,46,OUT33*%
%TO.N,Net-(R93-Pad2)*%
X183937500Y-98300000D03*
%TO.P,U3,47,OUT34*%
%TO.N,Net-(R94-Pad2)*%
X183937500Y-98800000D03*
%TO.P,U3,48,OUT35*%
%TO.N,Net-(R95-Pad2)*%
X183937500Y-99300000D03*
%TO.P,U3,49,OUT36*%
%TO.N,Net-(R96-Pad2)*%
X183937500Y-99800000D03*
%TO.P,U3,50,OUT37*%
%TO.N,Net-(R97-Pad2)*%
X183937500Y-100300000D03*
D23*
%TO.P,U3,51,OUT38*%
%TO.N,Net-(R98-Pad2)*%
X185600000Y-101962500D03*
%TO.P,U3,52,OUT39*%
%TO.N,Net-(R99-Pad2)*%
X186100000Y-101962500D03*
%TO.P,U3,53,OUT40*%
%TO.N,Net-(R100-Pad2)*%
X186600000Y-101962500D03*
%TO.P,U3,54,OUT41*%
%TO.N,Net-(R102-Pad2)*%
X187100000Y-101962500D03*
%TO.P,U3,55,OUT42*%
%TO.N,Net-(R103-Pad2)*%
X187600000Y-101962500D03*
%TO.P,U3,56,OUT43*%
%TO.N,Net-(R104-Pad2)*%
X188100000Y-101962500D03*
%TO.P,U3,57,OUT44*%
%TO.N,Net-(R105-Pad2)*%
X188600000Y-101962500D03*
%TO.P,U3,58,OUT45*%
%TO.N,Net-(R106-Pad2)*%
X189100000Y-101962500D03*
%TO.P,U3,59,OUT46*%
%TO.N,Net-(R107-Pad2)*%
X189600000Y-101962500D03*
%TO.P,U3,60,OUT47*%
%TO.N,Net-(R108-Pad2)*%
X190100000Y-101962500D03*
%TO.P,U3,61,OUT48*%
%TO.N,Net-(R109-Pad2)*%
X190600000Y-101962500D03*
%TO.P,U3,62,OUT49*%
%TO.N,Net-(R110-Pad2)*%
X191100000Y-101962500D03*
%TO.P,U3,63,OUT50*%
%TO.N,Net-(R111-Pad2)*%
X191600000Y-101962500D03*
%TO.P,U3,64,OUT51*%
%TO.N,unconnected-(U3-Pad64)*%
X192100000Y-101962500D03*
%TO.P,U3,65,OUT52*%
%TO.N,unconnected-(U3-Pad65)*%
X192600000Y-101962500D03*
%TO.P,U3,66,OUT53*%
%TO.N,unconnected-(U3-Pad66)*%
X193100000Y-101962500D03*
%TO.P,U3,67,OUT54*%
%TO.N,unconnected-(U3-Pad67)*%
X193600000Y-101962500D03*
%TO.P,U3,68,OUT55*%
%TO.N,unconnected-(U3-Pad68)*%
X194100000Y-101962500D03*
%TO.P,U3,69,OUT56*%
%TO.N,unconnected-(U3-Pad69)*%
X194600000Y-101962500D03*
%TO.P,U3,70,OUT57*%
%TO.N,unconnected-(U3-Pad70)*%
X195100000Y-101962500D03*
%TO.P,U3,71,OUT58*%
%TO.N,unconnected-(U3-Pad71)*%
X195600000Y-101962500D03*
%TO.P,U3,72,OUT59*%
%TO.N,unconnected-(U3-Pad72)*%
X196100000Y-101962500D03*
%TO.P,U3,73,OUT60*%
%TO.N,unconnected-(U3-Pad73)*%
X196600000Y-101962500D03*
%TO.P,U3,74,OUT61*%
%TO.N,unconnected-(U3-Pad74)*%
X197100000Y-101962500D03*
%TO.P,U3,75,OUT62*%
%TO.N,unconnected-(U3-Pad75)*%
X197600000Y-101962500D03*
D24*
%TO.P,U3,76,OUT63*%
%TO.N,unconnected-(U3-Pad76)*%
X199262500Y-100300000D03*
%TO.P,U3,77,OUT64*%
%TO.N,unconnected-(U3-Pad77)*%
X199262500Y-99800000D03*
%TO.P,U3,78,NC*%
%TO.N,unconnected-(U3-Pad78)*%
X199262500Y-99300000D03*
%TO.P,U3,79,VDDH*%
%TO.N,Net-(J10-Pad3)*%
X199262500Y-98800000D03*
%TO.P,U3,80,VDDH*%
X199262500Y-98300000D03*
%TO.P,U3,81,NC*%
%TO.N,unconnected-(U3-Pad81)*%
X199262500Y-97800000D03*
%TO.P,U3,82,GND1*%
%TO.N,GND*%
X199262500Y-97300000D03*
%TO.P,U3,83,GND1*%
X199262500Y-96800000D03*
%TO.P,U3,84,DIR*%
%TO.N,Net-(U2-Pad24)*%
X199262500Y-96300000D03*
%TO.P,U3,85,SO*%
%TO.N,unconnected-(U3-Pad85)*%
X199262500Y-95800000D03*
%TO.P,U3,86,CLK*%
%TO.N,Net-(U2-Pad22)*%
X199262500Y-95300000D03*
%TO.P,U3,87,LAT*%
%TO.N,Net-(U2-Pad14)*%
X199262500Y-94800000D03*
%TO.P,U3,88,VDD*%
%TO.N,+3V3*%
X199262500Y-94300000D03*
%TO.P,U3,89,OC1*%
%TO.N,Net-(U2-Pad21)*%
X199262500Y-93800000D03*
%TO.P,U3,90,OC2*%
%TO.N,Net-(U2-Pad25)*%
X199262500Y-93300000D03*
%TO.P,U3,91,SI*%
%TO.N,Net-(U2-Pad15)*%
X199262500Y-92800000D03*
%TO.P,U3,92,CLR*%
%TO.N,Net-(U2-Pad23)*%
X199262500Y-92300000D03*
%TO.P,U3,93,GND1*%
%TO.N,GND*%
X199262500Y-91800000D03*
%TO.P,U3,94,GND1*%
X199262500Y-91300000D03*
%TO.P,U3,95,NC*%
%TO.N,unconnected-(U3-Pad95)*%
X199262500Y-90800000D03*
%TO.P,U3,96,VDDH*%
%TO.N,Net-(J10-Pad3)*%
X199262500Y-90300000D03*
%TO.P,U3,97,VDDH*%
X199262500Y-89800000D03*
%TO.P,U3,98,NC*%
%TO.N,unconnected-(U3-Pad98)*%
X199262500Y-89300000D03*
%TO.P,U3,99,OUT1*%
%TO.N,Net-(R61-Pad2)*%
X199262500Y-88800000D03*
%TO.P,U3,100,OUT2*%
%TO.N,Net-(R62-Pad2)*%
X199262500Y-88300000D03*
%TD*%
D12*
%TO.P,R15,1*%
%TO.N,Net-(J2-Pad19)*%
X94165000Y-69200000D03*
%TO.P,R15,2*%
%TO.N,Net-(R15-Pad2)*%
X94980000Y-69200000D03*
%TD*%
D13*
%TO.P,R69,1*%
%TO.N,Net-(J8-Pad13)*%
X217507500Y-57140000D03*
%TO.P,R69,2*%
%TO.N,Net-(R69-Pad2)*%
X216692500Y-57140000D03*
%TD*%
%TO.P,R82,1*%
%TO.N,Net-(J8-Pad26)*%
X217407500Y-83240000D03*
%TO.P,R82,2*%
%TO.N,Net-(R82-Pad2)*%
X216592500Y-83240000D03*
%TD*%
D12*
%TO.P,R9,1*%
%TO.N,Net-(J2-Pad13)*%
X93972500Y-57100000D03*
%TO.P,R9,2*%
%TO.N,Net-(R9-Pad2)*%
X94787500Y-57100000D03*
%TD*%
%TO.P,R30,1*%
%TO.N,Net-(J2-Pad36)*%
X94180000Y-103200000D03*
%TO.P,R30,2*%
%TO.N,Net-(R30-Pad2)*%
X94995000Y-103200000D03*
%TD*%
%TO.P,R12,1*%
%TO.N,Net-(J2-Pad16)*%
X94205000Y-63100000D03*
%TO.P,R12,2*%
%TO.N,Net-(R12-Pad2)*%
X95020000Y-63100000D03*
%TD*%
%TO.P,R1,1*%
%TO.N,Net-(J2-Pad5)*%
X94300000Y-41200000D03*
%TO.P,R1,2*%
%TO.N,Net-(R1-Pad2)*%
X95115000Y-41200000D03*
%TD*%
D13*
%TO.P,R88,1*%
%TO.N,Net-(J8-Pad34)*%
X217575000Y-99240000D03*
%TO.P,R88,2*%
%TO.N,Net-(R88-Pad2)*%
X216760000Y-99240000D03*
%TD*%
D12*
%TO.P,R19,1*%
%TO.N,Net-(J2-Pad23)*%
X94240000Y-77200000D03*
%TO.P,R19,2*%
%TO.N,Net-(R19-Pad2)*%
X95055000Y-77200000D03*
%TD*%
D13*
%TO.P,R96,1*%
%TO.N,Net-(J9-Pad2)*%
X217675000Y-115240000D03*
%TO.P,R96,2*%
%TO.N,Net-(R96-Pad2)*%
X216860000Y-115240000D03*
%TD*%
%TO.P,R104,1*%
%TO.N,Net-(J9-Pad9)*%
X217507500Y-129240000D03*
%TO.P,R104,2*%
%TO.N,Net-(R104-Pad2)*%
X216692500Y-129240000D03*
%TD*%
%TO.P,R62,1*%
%TO.N,Net-(J8-Pad6)*%
X217407500Y-43240000D03*
%TO.P,R62,2*%
%TO.N,Net-(R62-Pad2)*%
X216592500Y-43240000D03*
%TD*%
D10*
%TO.P,R53,1*%
%TO.N,Net-(R53-Pad1)*%
X173200000Y-64800000D03*
D11*
%TO.P,R53,2*%
%TO.N,Net-(Q10-Pad2)*%
X180820000Y-64800000D03*
%TD*%
D12*
%TO.P,R16,1*%
%TO.N,Net-(J2-Pad20)*%
X94205000Y-71200000D03*
%TO.P,R16,2*%
%TO.N,Net-(R16-Pad2)*%
X95020000Y-71200000D03*
%TD*%
%TO.P,R2,1*%
%TO.N,Net-(J2-Pad6)*%
X94272500Y-43200000D03*
%TO.P,R2,2*%
%TO.N,Net-(R2-Pad2)*%
X95087500Y-43200000D03*
%TD*%
D17*
%TO.P,J2,1,Pin_1*%
%TO.N,Net-(J2-Pad1)*%
X91300000Y-33200000D03*
D16*
%TO.P,J2,2,Pin_2*%
%TO.N,Net-(J2-Pad2)*%
X91300000Y-35200000D03*
%TO.P,J2,3,Pin_3*%
%TO.N,Net-(J2-Pad3)*%
X91300000Y-37200000D03*
%TO.P,J2,4,Pin_4*%
%TO.N,Net-(J2-Pad4)*%
X91300000Y-39200000D03*
%TO.P,J2,5,Pin_5*%
%TO.N,Net-(J2-Pad5)*%
X91300000Y-41200000D03*
%TO.P,J2,6,Pin_6*%
%TO.N,Net-(J2-Pad6)*%
X91300000Y-43200000D03*
%TO.P,J2,7,Pin_7*%
%TO.N,Net-(J2-Pad7)*%
X91300000Y-45200000D03*
%TO.P,J2,8,Pin_8*%
%TO.N,Net-(J2-Pad8)*%
X91300000Y-47200000D03*
%TO.P,J2,9,Pin_9*%
%TO.N,Net-(J2-Pad9)*%
X91300000Y-49200000D03*
%TO.P,J2,10,Pin_10*%
%TO.N,Net-(J2-Pad10)*%
X91300000Y-51200000D03*
%TO.P,J2,11,Pin_11*%
%TO.N,Net-(J2-Pad11)*%
X91300000Y-53200000D03*
%TO.P,J2,12,Pin_12*%
%TO.N,Net-(J2-Pad12)*%
X91300000Y-55200000D03*
%TO.P,J2,13,Pin_13*%
%TO.N,Net-(J2-Pad13)*%
X91300000Y-57200000D03*
%TO.P,J2,14,Pin_14*%
%TO.N,Net-(J2-Pad14)*%
X91300000Y-59200000D03*
%TO.P,J2,15,Pin_15*%
%TO.N,Net-(J2-Pad15)*%
X91300000Y-61200000D03*
%TO.P,J2,16,Pin_16*%
%TO.N,Net-(J2-Pad16)*%
X91300000Y-63200000D03*
%TO.P,J2,17,Pin_17*%
%TO.N,Net-(J2-Pad17)*%
X91300000Y-65200000D03*
%TO.P,J2,18,Pin_18*%
%TO.N,Net-(J2-Pad18)*%
X91300000Y-67200000D03*
%TO.P,J2,19,Pin_19*%
%TO.N,Net-(J2-Pad19)*%
X91300000Y-69200000D03*
%TO.P,J2,20,Pin_20*%
%TO.N,Net-(J2-Pad20)*%
X91300000Y-71200000D03*
%TO.P,J2,21,Pin_21*%
%TO.N,Net-(J2-Pad21)*%
X91300000Y-73200000D03*
%TO.P,J2,22,Pin_22*%
%TO.N,Net-(J2-Pad22)*%
X91300000Y-75200000D03*
%TO.P,J2,23,Pin_23*%
%TO.N,Net-(J2-Pad23)*%
X91300000Y-77200000D03*
%TO.P,J2,24,Pin_24*%
%TO.N,Net-(J2-Pad24)*%
X91300000Y-79200000D03*
%TO.P,J2,25,Pin_25*%
%TO.N,Net-(J2-Pad25)*%
X91300000Y-81200000D03*
%TO.P,J2,26,Pin_26*%
%TO.N,Net-(J2-Pad26)*%
X91300000Y-83200000D03*
%TO.P,J2,27,Pin_27*%
%TO.N,Net-(J2-Pad27)*%
X91300000Y-85200000D03*
%TO.P,J2,28,Pin_28*%
%TO.N,Net-(J2-Pad28)*%
X91300000Y-87200000D03*
%TO.P,J2,29,Pin_29*%
%TO.N,Net-(J2-Pad29)*%
X91300000Y-89200000D03*
%TO.P,J2,30,Pin_30*%
%TO.N,Net-(J2-Pad30)*%
X91300000Y-91200000D03*
%TO.P,J2,31,Pin_31*%
%TO.N,Net-(J2-Pad31)*%
X91300000Y-93200000D03*
%TO.P,J2,32,Pin_32*%
%TO.N,Net-(J2-Pad32)*%
X91300000Y-95200000D03*
%TO.P,J2,33,Pin_33*%
%TO.N,Net-(J2-Pad33)*%
X91300000Y-97200000D03*
%TO.P,J2,34,Pin_34*%
%TO.N,Net-(J2-Pad34)*%
X91300000Y-99200000D03*
%TO.P,J2,35,Pin_35*%
%TO.N,Net-(J2-Pad35)*%
X91300000Y-101200000D03*
%TO.P,J2,36,Pin_36*%
%TO.N,Net-(J2-Pad36)*%
X91300000Y-103200000D03*
%TO.P,J2,37,Pin_37*%
%TO.N,Net-(J2-Pad37)*%
X91300000Y-105200000D03*
%TO.P,J2,38,Pin_38*%
%TO.N,Net-(J2-Pad38)*%
X91300000Y-107200000D03*
%TO.P,J2,39,Pin_39*%
%TO.N,Net-(J2-Pad39)*%
X91300000Y-109200000D03*
%TO.P,J2,40,Pin_40*%
%TO.N,Net-(J2-Pad40)*%
X91300000Y-111200000D03*
%TD*%
D13*
%TO.P,R102,1*%
%TO.N,Net-(J9-Pad7)*%
X217542500Y-125240000D03*
%TO.P,R102,2*%
%TO.N,Net-(R102-Pad2)*%
X216727500Y-125240000D03*
%TD*%
D12*
%TO.P,R37,1*%
%TO.N,Net-(J3-Pad3)*%
X94205000Y-117200000D03*
%TO.P,R37,2*%
%TO.N,Net-(R37-Pad2)*%
X95020000Y-117200000D03*
%TD*%
D13*
%TO.P,R105,1*%
%TO.N,Net-(J9-Pad10)*%
X217507500Y-131240000D03*
%TO.P,R105,2*%
%TO.N,Net-(R105-Pad2)*%
X216692500Y-131240000D03*
%TD*%
D27*
%TO.P,J1,1*%
%TO.N,Net-(J1-Pad1)*%
X180857500Y-139300000D03*
D28*
%TO.P,J1,2*%
%TO.N,GND*%
X180857500Y-145300000D03*
D29*
%TO.P,J1,3*%
%TO.N,unconnected-(J1-Pad3)*%
X176157500Y-142300000D03*
%TD*%
D13*
%TO.P,R77,1*%
%TO.N,Net-(J8-Pad21)*%
X217407500Y-73240000D03*
%TO.P,R77,2*%
%TO.N,Net-(R77-Pad2)*%
X216592500Y-73240000D03*
%TD*%
D12*
%TO.P,R34,1*%
%TO.N,Net-(J2-Pad40)*%
X94105000Y-111200000D03*
%TO.P,R34,2*%
%TO.N,Net-(R34-Pad2)*%
X94920000Y-111200000D03*
%TD*%
D14*
%TO.P,Q24,1,E*%
%TO.N,Net-(Q22-Pad1)*%
X142600000Y-65500000D03*
D15*
%TO.P,Q24,2,B*%
%TO.N,Net-(Q13-Pad2)*%
X143870000Y-65500000D03*
%TO.P,Q24,3,C*%
%TO.N,Net-(J4-Pad18)*%
X145140000Y-65500000D03*
%TD*%
D12*
%TO.P,R31,1*%
%TO.N,Net-(J2-Pad37)*%
X94240000Y-105200000D03*
%TO.P,R31,2*%
%TO.N,Net-(R31-Pad2)*%
X95055000Y-105200000D03*
%TD*%
D14*
%TO.P,Q17,1,E*%
%TO.N,Net-(Q11-Pad1)*%
X172430000Y-34260000D03*
D15*
%TO.P,Q17,2,B*%
%TO.N,Net-(Q17-Pad2)*%
X173700000Y-34260000D03*
%TO.P,Q17,3,C*%
%TO.N,Net-(J4-Pad36)*%
X174970000Y-34260000D03*
%TD*%
D13*
%TO.P,R65,1*%
%TO.N,Net-(J8-Pad9)*%
X217407500Y-49240000D03*
%TO.P,R65,2*%
%TO.N,Net-(R65-Pad2)*%
X216592500Y-49240000D03*
%TD*%
%TO.P,R70,1*%
%TO.N,Net-(J8-Pad14)*%
X217507500Y-59140000D03*
%TO.P,R70,2*%
%TO.N,Net-(R70-Pad2)*%
X216692500Y-59140000D03*
%TD*%
D12*
%TO.P,R22,1*%
%TO.N,Net-(J2-Pad26)*%
X94372500Y-83200000D03*
%TO.P,R22,2*%
%TO.N,Net-(R22-Pad2)*%
X95187500Y-83200000D03*
%TD*%
%TO.P,R8,1*%
%TO.N,Net-(J2-Pad12)*%
X94080000Y-55200000D03*
%TO.P,R8,2*%
%TO.N,Net-(R8-Pad2)*%
X94895000Y-55200000D03*
%TD*%
D10*
%TO.P,R59,1*%
%TO.N,Net-(R59-Pad1)*%
X173190000Y-61500000D03*
D11*
%TO.P,R59,2*%
%TO.N,Net-(Q1-Pad2)*%
X180810000Y-61500000D03*
%TD*%
D12*
%TO.P,R11,1*%
%TO.N,Net-(J2-Pad15)*%
X94072500Y-61200000D03*
%TO.P,R11,2*%
%TO.N,Net-(R11-Pad2)*%
X94887500Y-61200000D03*
%TD*%
D13*
%TO.P,R93,1*%
%TO.N,Net-(J8-Pad39)*%
X217400000Y-109240000D03*
%TO.P,R93,2*%
%TO.N,Net-(R93-Pad2)*%
X216585000Y-109240000D03*
%TD*%
D10*
%TO.P,C2,1*%
%TO.N,+3V3*%
X212350000Y-91900000D03*
%TO.P,C2,2*%
%TO.N,GND*%
X214850000Y-91900000D03*
%TD*%
D12*
%TO.P,R28,1*%
%TO.N,Net-(J2-Pad34)*%
X94140000Y-99300000D03*
%TO.P,R28,2*%
%TO.N,Net-(R28-Pad2)*%
X94955000Y-99300000D03*
%TD*%
D13*
%TO.P,R110,1*%
%TO.N,Net-(J9-Pad15)*%
X217475000Y-141240000D03*
%TO.P,R110,2*%
%TO.N,Net-(R110-Pad2)*%
X216660000Y-141240000D03*
%TD*%
D14*
%TO.P,Q6,1,E*%
%TO.N,GND*%
X114530000Y-49260000D03*
D15*
%TO.P,Q6,2,B*%
%TO.N,Net-(Q19-Pad2)*%
X115800000Y-49260000D03*
%TO.P,Q6,3,C*%
%TO.N,Net-(J2-Pad2)*%
X117070000Y-49260000D03*
%TD*%
D14*
%TO.P,Q13,1,E*%
%TO.N,Net-(Q11-Pad1)*%
X197130000Y-34360000D03*
D15*
%TO.P,Q13,2,B*%
%TO.N,Net-(Q13-Pad2)*%
X198400000Y-34360000D03*
%TO.P,Q13,3,C*%
%TO.N,Net-(J6-Pad8)*%
X199670000Y-34360000D03*
%TD*%
D12*
%TO.P,R5,1*%
%TO.N,Net-(J2-Pad9)*%
X94165000Y-49200000D03*
%TO.P,R5,2*%
%TO.N,Net-(R5-Pad2)*%
X94980000Y-49200000D03*
%TD*%
D30*
%TO.P,U2,1,3V3*%
%TO.N,+3V3*%
X168900000Y-103140000D03*
D31*
%TO.P,U2,2,GND*%
%TO.N,GND*%
X168900000Y-105680000D03*
%TO.P,U2,3,D15*%
%TO.N,Net-(U1-Pad87)*%
X168900000Y-108220000D03*
%TO.P,U2,4,D2*%
%TO.N,Net-(U1-Pad86)*%
X168900000Y-110760000D03*
%TO.P,U2,5,D4*%
%TO.N,Net-(U1-Pad89)*%
X168900000Y-113300000D03*
%TO.P,U2,6,RX2*%
%TO.N,unconnected-(U2-Pad6)*%
X168900000Y-115840000D03*
%TO.P,U2,7,TX2*%
%TO.N,unconnected-(U2-Pad7)*%
X168900000Y-118380000D03*
%TO.P,U2,8,D5*%
%TO.N,Net-(U1-Pad90)*%
X168900000Y-120920000D03*
%TO.P,U2,9,D18*%
%TO.N,unconnected-(U2-Pad9)*%
X168900000Y-123460000D03*
%TO.P,U2,10,D19*%
%TO.N,Net-(U2-Pad10)*%
X168900000Y-126000000D03*
%TO.P,U2,11,D21*%
%TO.N,unconnected-(U2-Pad11)*%
X168900000Y-128540000D03*
%TO.P,U2,12,RX0*%
%TO.N,unconnected-(U2-Pad12)*%
X168900000Y-131080000D03*
%TO.P,U2,13,TX0*%
%TO.N,unconnected-(U2-Pad13)*%
X168900000Y-133620000D03*
%TO.P,U2,14,D22*%
%TO.N,Net-(U2-Pad14)*%
X168900000Y-136160000D03*
%TO.P,U2,15,D23*%
%TO.N,Net-(U2-Pad15)*%
X168900000Y-138700000D03*
%TO.P,U2,16,EN*%
%TO.N,unconnected-(U2-Pad16)*%
X168900000Y-141240000D03*
%TO.P,U2,17,VP*%
%TO.N,unconnected-(U2-Pad17)*%
X168900000Y-143780000D03*
%TO.P,U2,18,VN*%
%TO.N,unconnected-(U2-Pad18)*%
X168900000Y-146320000D03*
%TO.P,U2,19,D34*%
%TO.N,Net-(U2-Pad19)*%
X168900000Y-148860000D03*
%TO.P,U2,20,D35*%
%TO.N,Net-(U2-Pad20)*%
X143500000Y-103140000D03*
%TO.P,U2,21,D32*%
%TO.N,Net-(U2-Pad21)*%
X143500000Y-105680000D03*
%TO.P,U2,22,D33*%
%TO.N,Net-(U2-Pad22)*%
X143500000Y-108220000D03*
%TO.P,U2,23,D25*%
%TO.N,Net-(U2-Pad23)*%
X143500000Y-110760000D03*
%TO.P,U2,24,D26*%
%TO.N,Net-(U2-Pad24)*%
X143500000Y-113300000D03*
%TO.P,U2,25,D27*%
%TO.N,Net-(U2-Pad25)*%
X143500000Y-115840000D03*
%TO.P,U2,26,D14*%
%TO.N,Net-(U1-Pad91)*%
X143500000Y-118380000D03*
%TO.P,U2,27,D12*%
%TO.N,Net-(U1-Pad84)*%
X143500000Y-120920000D03*
%TO.P,U2,28,D13*%
%TO.N,Net-(U1-Pad92)*%
X143500000Y-123460000D03*
%TO.P,U2,29,GND*%
%TO.N,GND*%
X143500000Y-126000000D03*
%TO.P,U2,30,VIN*%
%TO.N,+5V*%
X143500000Y-128540000D03*
%TO.P,U2,31*%
%TO.N,N/C*%
X143500000Y-131080000D03*
%TO.P,U2,32*%
X143500000Y-133620000D03*
%TO.P,U2,33*%
X143500000Y-136160000D03*
%TO.P,U2,34*%
X143500000Y-138700000D03*
%TO.P,U2,35*%
X143500000Y-141240000D03*
%TO.P,U2,36*%
X143500000Y-143780000D03*
%TO.P,U2,37*%
X143500000Y-146320000D03*
%TO.P,U2,38*%
X143500000Y-148860000D03*
%TD*%
D13*
%TO.P,R100,1*%
%TO.N,Net-(J9-Pad6)*%
X217607500Y-123240000D03*
%TO.P,R100,2*%
%TO.N,Net-(R100-Pad2)*%
X216792500Y-123240000D03*
%TD*%
%TO.P,R78,1*%
%TO.N,Net-(J8-Pad22)*%
X217400000Y-75240000D03*
%TO.P,R78,2*%
%TO.N,Net-(R78-Pad2)*%
X216585000Y-75240000D03*
%TD*%
D12*
%TO.P,R21,1*%
%TO.N,Net-(J2-Pad25)*%
X94340000Y-81200000D03*
%TO.P,R21,2*%
%TO.N,Net-(R21-Pad2)*%
X95155000Y-81200000D03*
%TD*%
%TO.P,R18,1*%
%TO.N,Net-(J2-Pad22)*%
X94205000Y-75300000D03*
%TO.P,R18,2*%
%TO.N,Net-(R18-Pad2)*%
X95020000Y-75300000D03*
%TD*%
D14*
%TO.P,Q3,1,E*%
%TO.N,GND*%
X115300000Y-151600000D03*
D15*
%TO.P,Q3,2,B*%
%TO.N,Net-(Q13-Pad2)*%
X116570000Y-151600000D03*
%TO.P,Q3,3,C*%
%TO.N,Net-(J3-Pad18)*%
X117840000Y-151600000D03*
%TD*%
D13*
%TO.P,R61,1*%
%TO.N,Net-(J8-Pad5)*%
X217307500Y-41240000D03*
%TO.P,R61,2*%
%TO.N,Net-(R61-Pad2)*%
X216492500Y-41240000D03*
%TD*%
D12*
%TO.P,R49,1*%
%TO.N,Net-(J3-Pad15)*%
X94172500Y-141200000D03*
%TO.P,R49,2*%
%TO.N,Net-(R49-Pad2)*%
X94987500Y-141200000D03*
%TD*%
D14*
%TO.P,Q2,1,E*%
%TO.N,GND*%
X156730000Y-41260000D03*
D15*
%TO.P,Q2,2,B*%
%TO.N,Net-(Q12-Pad2)*%
X158000000Y-41260000D03*
%TO.P,Q2,3,C*%
%TO.N,Net-(J2-Pad4)*%
X159270000Y-41260000D03*
%TD*%
D14*
%TO.P,Q20,1,E*%
%TO.N,Net-(Q11-Pad1)*%
X164030000Y-41260000D03*
D15*
%TO.P,Q20,2,B*%
%TO.N,Net-(Q20-Pad2)*%
X165300000Y-41260000D03*
%TO.P,Q20,3,C*%
%TO.N,Net-(J4-Pad27)*%
X166570000Y-41260000D03*
%TD*%
D13*
%TO.P,R111,1*%
%TO.N,Net-(J9-Pad16)*%
X217407500Y-143240000D03*
%TO.P,R111,2*%
%TO.N,Net-(R111-Pad2)*%
X216592500Y-143240000D03*
%TD*%
D12*
%TO.P,R45,1*%
%TO.N,Net-(J3-Pad11)*%
X94065000Y-133200000D03*
%TO.P,R45,2*%
%TO.N,Net-(R45-Pad2)*%
X94880000Y-133200000D03*
%TD*%
%TO.P,R38,1*%
%TO.N,Net-(J3-Pad4)*%
X94305000Y-119200000D03*
%TO.P,R38,2*%
%TO.N,Net-(R38-Pad2)*%
X95120000Y-119200000D03*
%TD*%
D14*
%TO.P,Q14,1,E*%
%TO.N,Net-(Q11-Pad1)*%
X191030000Y-34260000D03*
D15*
%TO.P,Q14,2,B*%
%TO.N,Net-(Q14-Pad2)*%
X192300000Y-34260000D03*
%TO.P,Q14,3,C*%
%TO.N,Net-(J6-Pad5)*%
X193570000Y-34260000D03*
%TD*%
D13*
%TO.P,R99,1*%
%TO.N,Net-(J9-Pad5)*%
X217607500Y-121240000D03*
%TO.P,R99,2*%
%TO.N,Net-(R99-Pad2)*%
X216792500Y-121240000D03*
%TD*%
%TO.P,R108,1*%
%TO.N,Net-(J9-Pad13)*%
X217482500Y-137240000D03*
%TO.P,R108,2*%
%TO.N,Net-(R108-Pad2)*%
X216667500Y-137240000D03*
%TD*%
D12*
%TO.P,R25,1*%
%TO.N,Net-(J2-Pad29)*%
X94040000Y-89200000D03*
%TO.P,R25,2*%
%TO.N,Net-(R25-Pad2)*%
X94855000Y-89200000D03*
%TD*%
D13*
%TO.P,R98,1*%
%TO.N,Net-(J9-Pad4)*%
X217575000Y-119240000D03*
%TO.P,R98,2*%
%TO.N,Net-(R98-Pad2)*%
X216760000Y-119240000D03*
%TD*%
D10*
%TO.P,R51,1*%
%TO.N,Net-(R51-Pad1)*%
X158210000Y-59400000D03*
D11*
%TO.P,R51,2*%
%TO.N,Net-(Q18-Pad2)*%
X150590000Y-59400000D03*
%TD*%
D12*
%TO.P,R35,1*%
%TO.N,Net-(J3-Pad1)*%
X94172500Y-113200000D03*
%TO.P,R35,2*%
%TO.N,Net-(R35-Pad2)*%
X94987500Y-113200000D03*
%TD*%
D14*
%TO.P,Q1,1,E*%
%TO.N,GND*%
X97200000Y-151300000D03*
D15*
%TO.P,Q1,2,B*%
%TO.N,Net-(Q1-Pad2)*%
X98470000Y-151300000D03*
%TO.P,Q1,3,C*%
%TO.N,Net-(J3-Pad20)*%
X99740000Y-151300000D03*
%TD*%
D12*
%TO.P,R44,1*%
%TO.N,Net-(J3-Pad10)*%
X94105000Y-131200000D03*
%TO.P,R44,2*%
%TO.N,Net-(R44-Pad2)*%
X94920000Y-131200000D03*
%TD*%
D14*
%TO.P,Q5,1,E*%
%TO.N,GND*%
X121930000Y-41960000D03*
D15*
%TO.P,Q5,2,B*%
%TO.N,Net-(Q14-Pad2)*%
X123200000Y-41960000D03*
%TO.P,Q5,3,C*%
%TO.N,Net-(J2-Pad1)*%
X124470000Y-41960000D03*
%TD*%
D13*
%TO.P,R63,1*%
%TO.N,Net-(J8-Pad7)*%
X217500000Y-45140000D03*
%TO.P,R63,2*%
%TO.N,Net-(R63-Pad2)*%
X216685000Y-45140000D03*
%TD*%
D32*
%TO.N,Net-(Q10-Pad2)*%
X179000000Y-70700000D03*
X169575500Y-90500000D03*
X153200000Y-91200000D03*
X151600000Y-152100000D03*
%TO.N,GND*%
X132700000Y-99400000D03*
X132900000Y-91300000D03*
%TO.N,Net-(J10-Pad3)*%
X209500000Y-102300000D03*
X208800000Y-90600000D03*
X199500000Y-102200000D03*
X204000000Y-90300000D03*
X163600000Y-86300000D03*
X172900000Y-98000000D03*
X163600000Y-98300000D03*
X181100000Y-98000000D03*
%TO.N,Net-(U2-Pad20)*%
X176700000Y-56600000D03*
X168800000Y-100100000D03*
%TO.N,Net-(U2-Pad19)*%
X193300000Y-54500000D03*
X192000000Y-72700000D03*
X165400000Y-79200000D03*
X163000000Y-149100000D03*
D33*
%TO.N,Net-(J1-Pad1)*%
X185400000Y-152700000D03*
X157100000Y-152600000D03*
D32*
%TO.N,Net-(J10-Pad3)*%
X132600000Y-82100000D03*
X110400000Y-97200000D03*
%TO.N,Net-(Q1-Pad2)*%
X98300000Y-154675500D03*
X108400000Y-154300000D03*
X128900000Y-154500000D03*
D34*
%TO.N,GND*%
X172400000Y-76200000D03*
X181600000Y-93800000D03*
X181700000Y-76200000D03*
D32*
%TO.N,Net-(J3-Pad19)*%
X94300000Y-149300000D03*
X94400000Y-155200000D03*
%TO.N,Net-(J3-Pad18)*%
X112800000Y-148100000D03*
X112700000Y-154100000D03*
%TO.N,+3V3*%
X201600000Y-66000000D03*
X209900000Y-90100000D03*
X213500000Y-64000000D03*
D34*
%TO.N,GND*%
X209900000Y-91600000D03*
X205800000Y-91800000D03*
D32*
%TO.N,+3V3*%
X211600000Y-96100000D03*
X202700000Y-96000000D03*
%TO.N,Net-(U2-Pad23)*%
X183500000Y-111100000D03*
X206200000Y-110300000D03*
%TO.N,Net-(U2-Pad15)*%
X192500000Y-138200000D03*
X202600000Y-138300000D03*
%TO.N,Net-(U2-Pad25)*%
X188100000Y-116300000D03*
X203900000Y-116300000D03*
%TO.N,Net-(U2-Pad14)*%
X202300000Y-136200000D03*
X192200000Y-136000000D03*
%TO.N,Net-(U2-Pad21)*%
X176900000Y-105000000D03*
X204000000Y-104200000D03*
%TO.N,Net-(U2-Pad22)*%
X178200000Y-106900000D03*
X202200000Y-106300000D03*
%TO.N,Net-(U2-Pad24)*%
X201600000Y-112300000D03*
X187000000Y-113500000D03*
D34*
%TO.N,GND*%
X156500000Y-54300000D03*
D32*
%TO.N,Net-(J2-Pad4)*%
X137300000Y-41600000D03*
X137300000Y-46000000D03*
X110700000Y-46000000D03*
X96900000Y-40000000D03*
%TO.N,Net-(J4-Pad9)*%
X120800000Y-30800000D03*
X124300000Y-30800000D03*
%TO.N,Net-(Q10-Pad2)*%
X180300000Y-31400000D03*
%TO.N,Net-(Q22-Pad1)*%
X176900000Y-36000000D03*
%TO.N,Net-(Q1-Pad2)*%
X146500000Y-44600000D03*
X180800000Y-44100000D03*
%TO.N,Net-(Q15-Pad2)*%
X186500000Y-37400000D03*
X169800000Y-38900000D03*
X168800000Y-47500000D03*
%TO.N,Net-(Q19-Pad2)*%
X162000000Y-39600000D03*
X150400000Y-42700000D03*
X148890000Y-50700000D03*
%TO.N,Net-(Q18-Pad2)*%
X167400000Y-38800000D03*
X151100000Y-37600000D03*
%TO.N,Net-(Q20-Pad2)*%
X165300000Y-43900000D03*
X148800000Y-44000000D03*
%TO.N,Net-(Q14-Pad2)*%
X192200000Y-30400000D03*
X155100000Y-30000000D03*
X155300000Y-62800000D03*
%TO.N,Net-(Q13-Pad2)*%
X198400000Y-32800000D03*
X153300000Y-32900000D03*
%TO.N,Net-(J2-Pad30)*%
X110700000Y-54000000D03*
%TO.N,Net-(Q18-Pad2)*%
X115500000Y-44200000D03*
X112100000Y-44300000D03*
X114600000Y-57700000D03*
%TO.N,Net-(J2-Pad31)*%
X145200000Y-56800000D03*
X112100000Y-55400000D03*
D34*
%TO.N,GND*%
X129700000Y-149500000D03*
X122700000Y-149500000D03*
X115300000Y-149200000D03*
X97200000Y-149200000D03*
X129700000Y-126000000D03*
X139500000Y-126000000D03*
X140400000Y-90200000D03*
D32*
%TO.N,+3V3*%
X145000000Y-95200000D03*
%TO.N,Net-(U1-Pad91)*%
X142100000Y-93500000D03*
X141500000Y-118400000D03*
%TO.N,Net-(U1-Pad84)*%
X146100000Y-120800000D03*
X146100000Y-100000000D03*
%TO.N,Net-(U1-Pad92)*%
X147600000Y-123600000D03*
X147600000Y-93600000D03*
%TO.N,Net-(U1-Pad90)*%
X165500000Y-120900000D03*
X165400000Y-95100000D03*
%TO.N,Net-(U1-Pad89)*%
X140500000Y-95200000D03*
X157600000Y-98300000D03*
X158400000Y-113100000D03*
X140500000Y-98300000D03*
%TO.N,Net-(U1-Pad86)*%
X159500000Y-110600000D03*
X159100000Y-97700000D03*
%TO.N,Net-(U1-Pad87)*%
X160700000Y-108100000D03*
X160700000Y-97600000D03*
%TO.N,+3V3*%
X162400000Y-96700000D03*
X162500000Y-103300000D03*
%TO.N,Net-(Q1-Pad2)*%
X183600000Y-65700000D03*
%TO.N,Net-(Q11-Pad1)*%
X182700000Y-66800000D03*
X174300000Y-46100000D03*
X186200000Y-48600000D03*
%TO.N,Net-(J9-Pad19)*%
X184500000Y-39200000D03*
D34*
%TO.N,GND*%
X194700000Y-47500000D03*
X194700000Y-51900000D03*
D32*
%TO.N,+3V3*%
X188100000Y-65500000D03*
%TO.N,Net-(Q12-Pad2)*%
X144300000Y-40000000D03*
X158000000Y-39000000D03*
%TO.N,Net-(Q22-Pad1)*%
X141830000Y-35670000D03*
%TO.N,Net-(Q20-Pad2)*%
X119700000Y-49200000D03*
X142300000Y-49700000D03*
%TO.N,Net-(Q17-Pad2)*%
X117000000Y-36500000D03*
%TO.N,Net-(Q14-Pad2)*%
X132800000Y-38100000D03*
X123200000Y-38200000D03*
%TO.N,Net-(J4-Pad18)*%
X138900000Y-38300000D03*
X147400000Y-38600000D03*
%TO.N,Net-(J4-Pad27)*%
X156900000Y-31000000D03*
X164400000Y-31000000D03*
%TO.N,Net-(Q12-Pad2)*%
X178700000Y-48700000D03*
X158200000Y-46000000D03*
%TO.N,+3V3*%
X172200000Y-58700000D03*
X166100000Y-50600000D03*
D34*
%TO.N,GND*%
X142600000Y-78000000D03*
X167300000Y-76100000D03*
X161900000Y-76200000D03*
D32*
%TO.N,Net-(Q17-Pad2)*%
X174300000Y-37200000D03*
X154200000Y-36500000D03*
%TO.N,Net-(Q19-Pad2)*%
X133800000Y-50700000D03*
X121200000Y-146800000D03*
X105700000Y-147400000D03*
%TO.N,Net-(Q13-Pad2)*%
X135100000Y-68100000D03*
X116700000Y-148000000D03*
X122800000Y-148000000D03*
%TO.N,Net-(J3-Pad17)*%
X132200000Y-145900000D03*
%TO.N,Net-(Q22-Pad1)*%
X104300000Y-144500000D03*
X126700000Y-143700000D03*
D34*
%TO.N,GND*%
X114500000Y-52500000D03*
X121600000Y-52700000D03*
D32*
%TO.N,Net-(Q22-Pad1)*%
X138900000Y-65500000D03*
%TO.N,Net-(Q15-Pad2)*%
X136500000Y-48700000D03*
%TO.N,Net-(J9-Pad17)*%
X205700000Y-145100000D03*
X209300000Y-84600000D03*
%TO.N,Net-(J9-Pad18)*%
X211500000Y-84700000D03*
%TO.N,Net-(J9-Pad20)*%
X190200000Y-63100000D03*
X207300000Y-84500000D03*
%TO.N,Net-(J4-Pad12)*%
X145100000Y-43400000D03*
X128100000Y-43400000D03*
%TO.N,Net-(J2-Pad1)*%
X103900000Y-49700000D03*
X125100000Y-47200000D03*
%TO.N,Net-(J2-Pad2)*%
X105700000Y-50900000D03*
%TO.N,Net-(J2-Pad3)*%
X106700000Y-52500000D03*
D34*
%TO.N,GND*%
X142600000Y-90500000D03*
D32*
%TO.N,Net-(J6-Pad11)*%
X200200000Y-69400000D03*
%TO.N,Net-(J8-Pad4)*%
X201300000Y-41200000D03*
X201400000Y-54400000D03*
%TO.N,Net-(J8-Pad3)*%
X202800000Y-39200000D03*
X203200000Y-51900000D03*
%TO.N,Net-(J8-Pad1)*%
X204400000Y-33100000D03*
X204500000Y-46900000D03*
%TO.N,Net-(J8-Pad2)*%
X192000000Y-37700000D03*
X192200000Y-44400000D03*
%TO.N,Net-(Q32-Pad2)*%
X175700000Y-45900000D03*
%TO.N,Net-(Q14-Pad2)*%
X123300000Y-61500000D03*
%TO.N,Net-(Q20-Pad2)*%
X145300000Y-55100000D03*
%TO.N,Net-(Q15-Pad2)*%
X143700000Y-48700000D03*
%TO.N,Net-(J4-Pad3)*%
X116600000Y-38500000D03*
X114400000Y-38500000D03*
X115900000Y-30500000D03*
X108900000Y-30400000D03*
%TO.N,Net-(J4-Pad2)*%
X107000000Y-31700000D03*
X118600000Y-31700000D03*
%TO.N,Net-(R85-Pad2)*%
X213600000Y-89100000D03*
X185000000Y-82100000D03*
%TO.N,Net-(R84-Pad2)*%
X214900000Y-87200000D03*
X182500000Y-80500000D03*
%TO.N,Net-(R83-Pad2)*%
X213500000Y-85200000D03*
X185000000Y-79300000D03*
%TO.N,Net-(R82-Pad2)*%
X214900000Y-83100000D03*
X188200000Y-77900000D03*
%TO.N,Net-(R81-Pad2)*%
X189900000Y-79300000D03*
X213400000Y-81400000D03*
%TO.N,Net-(R80-Pad2)*%
X191500000Y-79200000D03*
X215200000Y-79300000D03*
%TO.N,Net-(R79-Pad2)*%
X214000000Y-77200000D03*
X193800000Y-77100000D03*
%TO.N,Net-(R78-Pad2)*%
X215200000Y-75200000D03*
X195800000Y-75200000D03*
%TO.N,Net-(R77-Pad2)*%
X213900000Y-73200000D03*
X199100000Y-73200000D03*
%TO.N,Net-(R76-Pad2)*%
X215100000Y-71200000D03*
X202100000Y-71200000D03*
%TO.N,Net-(R75-Pad2)*%
X213800000Y-69300000D03*
X203600000Y-69300000D03*
%TO.N,Net-(R74-Pad2)*%
X215200000Y-67100000D03*
X204900000Y-67200000D03*
%TO.N,Net-(R73-Pad2)*%
X214200000Y-65100000D03*
X205300000Y-65200000D03*
%TO.N,Net-(R72-Pad2)*%
X215200000Y-63000000D03*
X205700000Y-63000000D03*
%TO.N,Net-(R71-Pad2)*%
X214000000Y-61000000D03*
X206000000Y-61200000D03*
%TO.N,Net-(R70-Pad2)*%
X215200000Y-59100000D03*
X206700000Y-59200000D03*
%TO.N,Net-(R69-Pad2)*%
X214000000Y-57200000D03*
X207200000Y-57200000D03*
%TO.N,Net-(R68-Pad2)*%
X215300000Y-55300000D03*
X207700000Y-55400000D03*
%TO.N,Net-(R67-Pad2)*%
X214000000Y-53400000D03*
X207850000Y-53350000D03*
%TO.N,Net-(R66-Pad2)*%
X215300000Y-51400000D03*
X208500000Y-51400000D03*
%TO.N,Net-(R65-Pad2)*%
X213800000Y-49300000D03*
X208400000Y-49300000D03*
%TO.N,Net-(R64-Pad2)*%
X215100000Y-47200000D03*
X209500000Y-47300000D03*
%TO.N,Net-(R63-Pad2)*%
X213800000Y-45000000D03*
X209900000Y-45600000D03*
%TO.N,Net-(R62-Pad2)*%
X214800000Y-43300000D03*
X211000000Y-43400000D03*
%TO.N,Net-(R86-Pad2)*%
X172800000Y-95100000D03*
X215400000Y-95100000D03*
%TO.N,Net-(R87-Pad2)*%
X174000000Y-96900000D03*
X213800000Y-97000000D03*
%TO.N,Net-(R88-Pad2)*%
X175200000Y-99300000D03*
X215240000Y-99240000D03*
%TO.N,Net-(R89-Pad2)*%
X176400000Y-101100000D03*
X213840000Y-101240000D03*
%TO.N,Net-(R90-Pad2)*%
X177700000Y-103300000D03*
X215100000Y-103200000D03*
%TO.N,Net-(R91-Pad2)*%
X179000000Y-105300000D03*
X213700000Y-105300000D03*
%TO.N,Net-(R92-Pad2)*%
X180200000Y-107500000D03*
X215240000Y-107240000D03*
%TO.N,Net-(R93-Pad2)*%
X213600000Y-109200000D03*
X183600000Y-109200000D03*
%TO.N,Net-(R94-Pad2)*%
X215200000Y-111300000D03*
X186900000Y-111300000D03*
%TO.N,Net-(R95-Pad2)*%
X213800000Y-113300000D03*
X189900000Y-113400000D03*
%TO.N,Net-(R96-Pad2)*%
X215300000Y-115500000D03*
X190200000Y-115400000D03*
%TO.N,Net-(R97-Pad2)*%
X213700000Y-117200000D03*
X190500000Y-117200000D03*
%TO.N,Net-(R98-Pad2)*%
X215100000Y-119300000D03*
X191400000Y-119300000D03*
%TO.N,Net-(R99-Pad2)*%
X213800000Y-121200000D03*
X192200000Y-121200000D03*
%TO.N,Net-(R100-Pad2)*%
X215100000Y-123200000D03*
X192600000Y-123200000D03*
%TO.N,Net-(R102-Pad2)*%
X213800000Y-125200000D03*
X193100000Y-125100000D03*
%TO.N,Net-(R103-Pad2)*%
X215200000Y-127100000D03*
X193700000Y-127000000D03*
%TO.N,Net-(R104-Pad2)*%
X213700000Y-129000000D03*
X194300000Y-129000000D03*
%TO.N,Net-(R105-Pad2)*%
X215100000Y-131300000D03*
X194300000Y-131300000D03*
%TO.N,Net-(R106-Pad2)*%
X213500000Y-133500000D03*
X194800000Y-133400000D03*
%TO.N,Net-(R107-Pad2)*%
X215000000Y-135200000D03*
X195500000Y-135100000D03*
%TO.N,Net-(R108-Pad2)*%
X213700000Y-137200000D03*
X195700000Y-137200000D03*
%TO.N,Net-(R109-Pad2)*%
X215000000Y-139200000D03*
X195800000Y-139300000D03*
%TO.N,Net-(R110-Pad2)*%
X213700000Y-141400000D03*
X196700000Y-141400000D03*
%TO.N,Net-(R111-Pad2)*%
X214300000Y-143300000D03*
X198500000Y-143200000D03*
%TD*%
D35*
%TO.N,Net-(Q11-Pad1)*%
X197130000Y-35580000D02*
X197130000Y-34360000D01*
X197140000Y-35590000D02*
X197130000Y-35580000D01*
X196710000Y-36020000D02*
X197140000Y-35590000D01*
X190660000Y-36020000D02*
X196710000Y-36020000D01*
X191030000Y-35650000D02*
X191030000Y-34260000D01*
X190660000Y-36020000D02*
X191030000Y-35650000D01*
X184870000Y-36020000D02*
X190660000Y-36020000D01*
X185230000Y-35580000D02*
X185230000Y-34260000D01*
X185270000Y-35620000D02*
X185230000Y-35580000D01*
X180020000Y-36020000D02*
X184870000Y-36020000D01*
X179130000Y-35130000D02*
X180020000Y-36020000D01*
X184870000Y-36020000D02*
X185270000Y-35620000D01*
X179130000Y-34260000D02*
X179130000Y-35130000D01*
X177350000Y-34260000D02*
X179130000Y-34260000D01*
X176540000Y-35070000D02*
X177350000Y-34260000D01*
X176540000Y-35110000D02*
X176540000Y-35070000D01*
X176140000Y-35510000D02*
X176540000Y-35110000D01*
X173139520Y-35510000D02*
X176140000Y-35510000D01*
X172430000Y-34800480D02*
X173139520Y-35510000D01*
X172430000Y-34260000D02*
X172430000Y-34800480D01*
X171119520Y-35570480D02*
X172430000Y-34260000D01*
X166230000Y-34485000D02*
X167315480Y-35570480D01*
X166230000Y-34260000D02*
X166230000Y-34485000D01*
X167315480Y-35570480D02*
X171119520Y-35570480D01*
X165210000Y-33240000D02*
X166230000Y-34260000D01*
X160935000Y-33240000D02*
X165210000Y-33240000D01*
X160100000Y-34075000D02*
X160935000Y-33240000D01*
X160100000Y-34300000D02*
X160100000Y-34075000D01*
%TO.N,Net-(Q10-Pad2)*%
X179000000Y-66620000D02*
X180820000Y-64800000D01*
X179000000Y-70700000D02*
X179000000Y-66620000D01*
X168875500Y-91200000D02*
X169575500Y-90500000D01*
X153200000Y-91200000D02*
X168875500Y-91200000D01*
X151100000Y-152600000D02*
X151600000Y-152100000D01*
X139100000Y-152600000D02*
X151100000Y-152600000D01*
X134700000Y-148200000D02*
X139100000Y-152600000D01*
X130970000Y-150430000D02*
X133200000Y-148200000D01*
X133200000Y-148200000D02*
X134700000Y-148200000D01*
X130970000Y-151600000D02*
X130970000Y-150430000D01*
%TO.N,GND*%
X131800000Y-91300000D02*
X132900000Y-91300000D01*
X131100000Y-92000000D02*
X131800000Y-91300000D01*
X128862500Y-92000000D02*
X131100000Y-92000000D01*
X128862500Y-91500000D02*
X128862500Y-92000000D01*
X132900000Y-91300000D02*
X134200000Y-91300000D01*
X134200000Y-91300000D02*
X134300000Y-91400000D01*
X131800000Y-98500000D02*
X132700000Y-99400000D01*
X128862500Y-98500000D02*
X131800000Y-98500000D01*
X128862500Y-99000000D02*
X128862500Y-98500000D01*
X130100000Y-99000000D02*
X128862500Y-99000000D01*
X130400000Y-99300000D02*
X130100000Y-99000000D01*
X130400000Y-99700000D02*
X130400000Y-99300000D01*
X130100000Y-100000000D02*
X130400000Y-99700000D01*
X128862500Y-100000000D02*
X130100000Y-100000000D01*
X128862500Y-100500000D02*
X128862500Y-100000000D01*
X113537500Y-93500000D02*
X113537500Y-93000000D01*
X112400000Y-93500000D02*
X113537500Y-93500000D01*
X112100000Y-93800000D02*
X112400000Y-93500000D01*
X112734994Y-94500000D02*
X112100000Y-93865006D01*
X113537500Y-94500000D02*
X112734994Y-94500000D01*
X112100000Y-93865006D02*
X112100000Y-93800000D01*
X113537500Y-95000000D02*
X113537500Y-94500000D01*
X113537500Y-95500000D02*
X113537500Y-95000000D01*
X112300000Y-95500000D02*
X113537500Y-95500000D01*
X111900000Y-95900000D02*
X112300000Y-95500000D01*
X111900000Y-96100000D02*
X111900000Y-95900000D01*
X112300000Y-96500000D02*
X111900000Y-96100000D01*
X113537500Y-96500000D02*
X112300000Y-96500000D01*
X113537500Y-97000000D02*
X113537500Y-96500000D01*
X113537500Y-97500000D02*
X113537500Y-97000000D01*
X112300000Y-97500000D02*
X113537500Y-97500000D01*
X112100000Y-97700000D02*
X112300000Y-97500000D01*
X112100000Y-98000000D02*
X112100000Y-97700000D01*
X112600000Y-98500000D02*
X112100000Y-98000000D01*
X113537500Y-98500000D02*
X112600000Y-98500000D01*
X183937500Y-93800000D02*
X186100000Y-93800000D01*
D36*
X187100000Y-94800000D02*
X192800000Y-94800000D01*
D35*
X186100000Y-93800000D02*
X187100000Y-94800000D01*
D36*
X183937500Y-94800000D02*
X187100000Y-94800000D01*
D35*
%TO.N,Net-(J10-Pad3)*%
X208800000Y-101600000D02*
X208800000Y-90600000D01*
X197600000Y-100300000D02*
X199500000Y-102200000D01*
X197600000Y-98500000D02*
X197800000Y-98300000D01*
X209500000Y-102300000D02*
X208800000Y-101600000D01*
X197600000Y-100200000D02*
X197600000Y-100300000D01*
X197600000Y-98500000D02*
X197600000Y-100200000D01*
X199262500Y-98300000D02*
X197800000Y-98300000D01*
X199262500Y-90300000D02*
X204000000Y-90300000D01*
X199262500Y-90300000D02*
X199262500Y-89800000D01*
D36*
%TO.N,GND*%
X199262500Y-91800000D02*
X199262500Y-91300000D01*
D35*
X194800000Y-96800000D02*
X192800000Y-94800000D01*
X199262500Y-96800000D02*
X194800000Y-96800000D01*
D36*
X192800000Y-94800000D02*
X193700000Y-94800000D01*
D35*
X199262500Y-97300000D02*
X199262500Y-96800000D01*
%TO.N,Net-(J10-Pad3)*%
X199262500Y-98800000D02*
X199262500Y-98300000D01*
X196700000Y-90300000D02*
X199262500Y-90300000D01*
X195700000Y-91300000D02*
X196700000Y-90300000D01*
X183937500Y-91300000D02*
X195700000Y-91300000D01*
X183937500Y-91800000D02*
X183937500Y-91300000D01*
%TO.N,GND*%
X183937500Y-92800000D02*
X183937500Y-93300000D01*
X183937500Y-93800000D02*
X183937500Y-93300000D01*
X183937500Y-95300000D02*
X183937500Y-95800000D01*
X182400000Y-95800000D02*
X181600000Y-95000000D01*
X183937500Y-95800000D02*
X182400000Y-95800000D01*
X181600000Y-95000000D02*
X181600000Y-93800000D01*
%TO.N,Net-(J10-Pad3)*%
X181600000Y-91800000D02*
X183937500Y-91800000D01*
X180700000Y-92700000D02*
X181600000Y-91800000D01*
X180700000Y-95800000D02*
X180700000Y-92700000D01*
X181700000Y-96800000D02*
X180700000Y-95800000D01*
X182300000Y-96800000D02*
X181700000Y-96800000D01*
X182300000Y-96800000D02*
X183937500Y-96800000D01*
X181800000Y-97300000D02*
X182300000Y-96800000D01*
X153120000Y-85120000D02*
X153120000Y-83300000D01*
X154300000Y-86300000D02*
X153120000Y-85120000D01*
X163600000Y-86300000D02*
X154300000Y-86300000D01*
X163900000Y-98000000D02*
X163600000Y-98300000D01*
X172900000Y-98000000D02*
X163900000Y-98000000D01*
X181800000Y-97300000D02*
X181100000Y-98000000D01*
X183937500Y-97300000D02*
X181800000Y-97300000D01*
%TO.N,Net-(U2-Pad20)*%
X177035000Y-56935000D02*
X189280000Y-56935000D01*
X176700000Y-56600000D02*
X177035000Y-56935000D01*
X150000000Y-100100000D02*
X168800000Y-100100000D01*
X146960000Y-103140000D02*
X150000000Y-100100000D01*
X143500000Y-103140000D02*
X146960000Y-103140000D01*
%TO.N,Net-(U2-Pad19)*%
X193300000Y-54500000D02*
X193195000Y-54395000D01*
X191100000Y-73600000D02*
X192000000Y-72700000D01*
X193195000Y-54395000D02*
X189280000Y-54395000D01*
X186100000Y-73600000D02*
X191100000Y-73600000D01*
X180500000Y-79200000D02*
X186100000Y-73600000D01*
X165400000Y-79200000D02*
X180500000Y-79200000D01*
X163240000Y-148860000D02*
X163000000Y-149100000D01*
X168900000Y-148860000D02*
X163240000Y-148860000D01*
D37*
%TO.N,Net-(J1-Pad1)*%
X185300000Y-152600000D02*
X185400000Y-152700000D01*
X157100000Y-152600000D02*
X185300000Y-152600000D01*
D35*
%TO.N,Net-(J10-Pad4)*%
X154700000Y-88400000D02*
X158400000Y-88400000D01*
X154500000Y-88600000D02*
X154700000Y-88400000D01*
X150580000Y-84680000D02*
X154500000Y-88600000D01*
X150580000Y-83300000D02*
X150580000Y-84680000D01*
D36*
%TO.N,GND*%
X148100000Y-85800000D02*
X148050000Y-85850000D01*
X148050000Y-88300000D02*
X148050000Y-85850000D01*
X150780000Y-86580000D02*
X150000000Y-85800000D01*
X150780000Y-88400000D02*
X150780000Y-86580000D01*
X148050000Y-85850000D02*
X148050000Y-83310000D01*
X150000000Y-85800000D02*
X148100000Y-85800000D01*
X155660000Y-78140000D02*
X155800000Y-78000000D01*
X155800000Y-78000000D02*
X142600000Y-78000000D01*
X158500000Y-78000000D02*
X155800000Y-78000000D01*
X155660000Y-83300000D02*
X155660000Y-78140000D01*
X148050000Y-83310000D02*
X148040000Y-83300000D01*
D35*
%TO.N,Net-(J10-Pad3)*%
X153120000Y-81120000D02*
X153120000Y-83300000D01*
X152100000Y-80100000D02*
X153120000Y-81120000D01*
X145800000Y-80100000D02*
X152100000Y-80100000D01*
X143800000Y-82100000D02*
X145800000Y-80100000D01*
X132600000Y-82100000D02*
X143800000Y-82100000D01*
X112200000Y-99000000D02*
X110400000Y-97200000D01*
X113537500Y-99000000D02*
X112200000Y-99000000D01*
%TO.N,Net-(J3-Pad20)*%
X99740000Y-152760000D02*
X99740000Y-151300000D01*
X98700000Y-153800000D02*
X99740000Y-152760000D01*
X93900000Y-153800000D02*
X98700000Y-153800000D01*
X91300000Y-151200000D02*
X93900000Y-153800000D01*
%TO.N,Net-(Q1-Pad2)*%
X98675500Y-154300000D02*
X98300000Y-154675500D01*
X108400000Y-154300000D02*
X98675500Y-154300000D01*
X200300000Y-154500000D02*
X128900000Y-154500000D01*
X202100000Y-152700000D02*
X200300000Y-154500000D01*
X202100000Y-150760000D02*
X202100000Y-152700000D01*
D36*
%TO.N,GND*%
X172400000Y-76200000D02*
X167400000Y-76200000D01*
X181700000Y-76200000D02*
X172400000Y-76200000D01*
X167400000Y-76200000D02*
X167300000Y-76100000D01*
X183937500Y-94800000D02*
X182600000Y-94800000D01*
X182600000Y-94800000D02*
X181600000Y-93800000D01*
D35*
%TO.N,+5V*%
X175664511Y-129644511D02*
X177620000Y-131600000D01*
X144604511Y-129644511D02*
X175664511Y-129644511D01*
X143500000Y-128540000D02*
X144604511Y-129644511D01*
%TO.N,Net-(J3-Pad19)*%
X94200000Y-149200000D02*
X91300000Y-149200000D01*
X94300000Y-149300000D02*
X94200000Y-149200000D01*
X94600000Y-155400000D02*
X94400000Y-155200000D01*
X123300000Y-155400000D02*
X94600000Y-155400000D01*
X125340000Y-153360000D02*
X123300000Y-155400000D01*
X125340000Y-151500000D02*
X125340000Y-153360000D01*
%TO.N,Net-(J3-Pad18)*%
X93700000Y-147200000D02*
X91300000Y-147200000D01*
X93900000Y-147000000D02*
X93700000Y-147200000D01*
X95024511Y-148124511D02*
X93900000Y-147000000D01*
X112775489Y-148124511D02*
X95024511Y-148124511D01*
X112800000Y-148100000D02*
X112775489Y-148124511D01*
X116500000Y-154100000D02*
X112700000Y-154100000D01*
X116500000Y-154100000D02*
X117840000Y-152760000D01*
X117840000Y-151600000D02*
X117840000Y-152760000D01*
%TO.N,+3V3*%
X193300000Y-66000000D02*
X193200000Y-65900000D01*
X201600000Y-66000000D02*
X193300000Y-66000000D01*
X212675489Y-87324511D02*
X212675489Y-64824511D01*
X209900000Y-90100000D02*
X212675489Y-87324511D01*
X212675489Y-64824511D02*
X213500000Y-64000000D01*
D36*
%TO.N,GND*%
X213250000Y-90300000D02*
X214850000Y-91900000D01*
X211200000Y-90300000D02*
X213250000Y-90300000D01*
X209900000Y-91600000D02*
X211200000Y-90300000D01*
X199262500Y-91800000D02*
X205800000Y-91800000D01*
D35*
%TO.N,+3V3*%
X212350000Y-94050000D02*
X212350000Y-91900000D01*
X211600000Y-94800000D02*
X212350000Y-94050000D01*
X211600000Y-96100000D02*
X211600000Y-94800000D01*
X201000000Y-94300000D02*
X202700000Y-96000000D01*
X199262500Y-94300000D02*
X201000000Y-94300000D01*
D36*
%TO.N,GND*%
X196700000Y-91800000D02*
X199262500Y-91800000D01*
X193700000Y-94800000D02*
X196700000Y-91800000D01*
D35*
%TO.N,Net-(U2-Pad23)*%
X148095489Y-112195489D02*
X146660000Y-110760000D01*
X182404511Y-112195489D02*
X148095489Y-112195489D01*
X183500000Y-111100000D02*
X182404511Y-112195489D01*
X205900000Y-110000000D02*
X206200000Y-110300000D01*
X205900000Y-95700000D02*
X205900000Y-110000000D01*
X146660000Y-110760000D02*
X143500000Y-110760000D01*
X202500000Y-92300000D02*
X205900000Y-95700000D01*
X199262500Y-92300000D02*
X202500000Y-92300000D01*
%TO.N,Net-(U2-Pad15)*%
X203024511Y-137875489D02*
X202600000Y-138300000D01*
X202800000Y-120049520D02*
X202800000Y-135675386D01*
X202800000Y-135675386D02*
X203024511Y-135899897D01*
X205200000Y-95728565D02*
X205200000Y-117649520D01*
X205200000Y-117649520D02*
X202800000Y-120049520D01*
X202271435Y-92800000D02*
X205200000Y-95728565D01*
X199262500Y-92800000D02*
X202271435Y-92800000D01*
X203024511Y-135899897D02*
X203024511Y-137875489D01*
X172000000Y-138700000D02*
X168900000Y-138700000D01*
X174090480Y-136609520D02*
X172000000Y-138700000D01*
X190909520Y-136609520D02*
X174090480Y-136609520D01*
X192500000Y-138200000D02*
X190909520Y-136609520D01*
%TO.N,Net-(J9-Pad20)*%
X203900960Y-121527604D02*
X207000960Y-118427604D01*
X203900960Y-146700960D02*
X203900960Y-121527604D01*
X207000960Y-84799040D02*
X207300000Y-84500000D01*
X208440000Y-151240000D02*
X203900960Y-146700960D01*
X207000960Y-118427604D02*
X207000960Y-84799040D01*
X220300000Y-151240000D02*
X208440000Y-151240000D01*
%TO.N,Net-(J9-Pad17)*%
X204350480Y-143750480D02*
X205700000Y-145100000D01*
X204350480Y-121713802D02*
X204350480Y-143750480D01*
X207450480Y-85513803D02*
X207450480Y-118613802D01*
X207450480Y-118613802D02*
X204350480Y-121713802D01*
X208364283Y-84600000D02*
X207450480Y-85513803D01*
X209300000Y-84600000D02*
X208364283Y-84600000D01*
%TO.N,Net-(J9-Pad18)*%
X207900000Y-88300000D02*
X211500000Y-84700000D01*
X207900000Y-118800000D02*
X207900000Y-88300000D01*
X217215386Y-147240000D02*
X204800000Y-134824614D01*
X204800000Y-121900000D02*
X207900000Y-118800000D01*
X220300000Y-147240000D02*
X217215386Y-147240000D01*
X204800000Y-134824614D02*
X204800000Y-121900000D01*
%TO.N,Net-(U2-Pad25)*%
X145240000Y-115840000D02*
X143500000Y-115840000D01*
X146400000Y-117000000D02*
X145240000Y-115840000D01*
X173200000Y-117000000D02*
X146400000Y-117000000D01*
X173900000Y-116300000D02*
X173200000Y-117000000D01*
X188100000Y-116300000D02*
X173900000Y-116300000D01*
X204500000Y-95664282D02*
X204500000Y-95800000D01*
X202135718Y-93300000D02*
X204500000Y-95664282D01*
X204500000Y-95800000D02*
X204724511Y-96024511D01*
X199262500Y-93300000D02*
X202135718Y-93300000D01*
X204724511Y-96024511D02*
X204724511Y-115475489D01*
X204724511Y-115475489D02*
X203900000Y-116300000D01*
%TO.N,Net-(U2-Pad14)*%
X192040000Y-136160000D02*
X168900000Y-136160000D01*
X192200000Y-136000000D02*
X192040000Y-136160000D01*
X202100000Y-136000000D02*
X202300000Y-136200000D01*
X202100000Y-114200000D02*
X202100000Y-136000000D01*
X203100000Y-113200000D02*
X202100000Y-114200000D01*
X203100000Y-105800000D02*
X203100000Y-113200000D01*
X202300000Y-96899276D02*
X202300000Y-105000000D01*
X202300000Y-105000000D02*
X203100000Y-105800000D01*
X200200724Y-94800000D02*
X202300000Y-96899276D01*
X199262500Y-94800000D02*
X200200724Y-94800000D01*
%TO.N,Net-(U2-Pad21)*%
X144980000Y-105680000D02*
X143500000Y-105680000D01*
X145200000Y-105900000D02*
X144980000Y-105680000D01*
X146524511Y-104575489D02*
X145200000Y-105900000D01*
X176900000Y-105000000D02*
X176475489Y-104575489D01*
X176475489Y-104575489D02*
X146524511Y-104575489D01*
X203900000Y-104100000D02*
X204000000Y-104200000D01*
X203900000Y-95700000D02*
X203900000Y-104100000D01*
X202000000Y-93800000D02*
X203900000Y-95700000D01*
X199262500Y-93800000D02*
X202000000Y-93800000D01*
%TO.N,Net-(U2-Pad22)*%
X145120000Y-108220000D02*
X143500000Y-108220000D01*
X145200000Y-108300000D02*
X145120000Y-108220000D01*
X146600000Y-106900000D02*
X145200000Y-108300000D01*
X178200000Y-106900000D02*
X146600000Y-106900000D01*
X201600000Y-105700000D02*
X202200000Y-106300000D01*
X201600000Y-96834994D02*
X201600000Y-105700000D01*
X200065006Y-95300000D02*
X201600000Y-96834994D01*
X199262500Y-95300000D02*
X200065006Y-95300000D01*
%TO.N,Net-(U2-Pad24)*%
X201100000Y-111800000D02*
X201600000Y-112300000D01*
X201100000Y-97334994D02*
X201100000Y-111800000D01*
X200065006Y-96300000D02*
X201100000Y-97334994D01*
X199262500Y-96300000D02*
X200065006Y-96300000D01*
X144604511Y-114404511D02*
X143500000Y-113300000D01*
X186095489Y-114404511D02*
X144604511Y-114404511D01*
X187000000Y-113500000D02*
X186095489Y-114404511D01*
D36*
%TO.N,GND*%
X142700000Y-52475000D02*
X142700000Y-52700000D01*
X143975000Y-51200000D02*
X142700000Y-52475000D01*
X146500000Y-51200000D02*
X143975000Y-51200000D01*
X149600000Y-54300000D02*
X146500000Y-51200000D01*
X156500000Y-54300000D02*
X149600000Y-54300000D01*
D35*
%TO.N,Net-(J2-Pad4)*%
X159270000Y-41416402D02*
X159270000Y-41260000D01*
X156100000Y-42800000D02*
X157886402Y-42800000D01*
X157886402Y-42800000D02*
X159270000Y-41416402D01*
X154900000Y-41600000D02*
X156100000Y-42800000D01*
X137300000Y-41600000D02*
X154900000Y-41600000D01*
%TO.N,Net-(Q19-Pad2)*%
X162000000Y-42300000D02*
X162000000Y-39600000D01*
X151300000Y-42700000D02*
X152000000Y-43400000D01*
X152000000Y-43400000D02*
X160900000Y-43400000D01*
X150400000Y-42700000D02*
X151300000Y-42700000D01*
X160900000Y-43400000D02*
X162000000Y-42300000D01*
%TO.N,Net-(J2-Pad4)*%
X110700000Y-46000000D02*
X137300000Y-46000000D01*
X96100000Y-39200000D02*
X96900000Y-40000000D01*
X91300000Y-39200000D02*
X96100000Y-39200000D01*
%TO.N,Net-(Q18-Pad2)*%
X115400000Y-44300000D02*
X112100000Y-44300000D01*
X115500000Y-44200000D02*
X115400000Y-44300000D01*
%TO.N,Net-(J4-Pad9)*%
X124300000Y-30800000D02*
X120800000Y-30800000D01*
%TO.N,Net-(Q10-Pad2)*%
X179900000Y-31800000D02*
X180300000Y-31400000D01*
X147200000Y-32500000D02*
X147900000Y-31800000D01*
X147900000Y-31800000D02*
X179900000Y-31800000D01*
X123900000Y-32500000D02*
X147200000Y-32500000D01*
%TO.N,Net-(Q13-Pad2)*%
X153300000Y-32900000D02*
X153400000Y-32800000D01*
X153400000Y-32800000D02*
X198400000Y-32800000D01*
%TO.N,Net-(Q10-Pad2)*%
X123070000Y-33330000D02*
X123900000Y-32500000D01*
X123070000Y-34200000D02*
X123070000Y-33330000D01*
%TO.N,Net-(Q22-Pad1)*%
X151600000Y-32600000D02*
X155000000Y-36000000D01*
X155000000Y-36000000D02*
X176900000Y-36000000D01*
X148700000Y-32600000D02*
X151600000Y-32600000D01*
X148530000Y-32770000D02*
X148700000Y-32600000D01*
X148530000Y-34100000D02*
X148530000Y-32770000D01*
%TO.N,Net-(Q1-Pad2)*%
X147000000Y-45100000D02*
X146500000Y-44600000D01*
X167200000Y-45100000D02*
X147000000Y-45100000D01*
X180800000Y-44100000D02*
X168200000Y-44100000D01*
X168200000Y-44100000D02*
X167200000Y-45100000D01*
D36*
%TO.N,GND*%
X170040000Y-41260000D02*
X171830000Y-41260000D01*
X170000000Y-41300000D02*
X170040000Y-41260000D01*
X168600000Y-39900000D02*
X170000000Y-41300000D01*
X164500000Y-39900000D02*
X168600000Y-39900000D01*
X163200000Y-38600000D02*
X164500000Y-39900000D01*
X160900000Y-38600000D02*
X163200000Y-38600000D01*
X159500000Y-40000000D02*
X160900000Y-38600000D01*
X157100000Y-40000000D02*
X159500000Y-40000000D01*
X156730000Y-40370000D02*
X157100000Y-40000000D01*
X156730000Y-41260000D02*
X156730000Y-40370000D01*
D35*
%TO.N,Net-(Q15-Pad2)*%
X180800000Y-38900000D02*
X182300000Y-37400000D01*
X169800000Y-38900000D02*
X180800000Y-38900000D01*
X168500000Y-47200000D02*
X168800000Y-47500000D01*
X156000000Y-47500000D02*
X156300000Y-47200000D01*
X182300000Y-37400000D02*
X186500000Y-37400000D01*
X151900000Y-47500000D02*
X156000000Y-47500000D01*
X151815000Y-47500000D02*
X151900000Y-47500000D01*
X156300000Y-47200000D02*
X168500000Y-47200000D01*
X150590000Y-48725000D02*
X151815000Y-47500000D01*
%TO.N,Net-(Q18-Pad2)*%
X166700000Y-38100000D02*
X167400000Y-38800000D01*
X153400000Y-38100000D02*
X166700000Y-38100000D01*
X152900000Y-37600000D02*
X153400000Y-38100000D01*
X151100000Y-37600000D02*
X152900000Y-37600000D01*
%TO.N,Net-(Q17-Pad2)*%
X174000000Y-37500000D02*
X174300000Y-37200000D01*
X155200000Y-37500000D02*
X174000000Y-37500000D01*
X154200000Y-36500000D02*
X155200000Y-37500000D01*
X154200000Y-36500000D02*
X117000000Y-36500000D01*
%TO.N,Net-(Q20-Pad2)*%
X165200000Y-44000000D02*
X165300000Y-43900000D01*
X148800000Y-44000000D02*
X165200000Y-44000000D01*
%TO.N,Net-(Q14-Pad2)*%
X191800000Y-30000000D02*
X192200000Y-30400000D01*
X155200000Y-62900000D02*
X155300000Y-62800000D01*
X155100000Y-30000000D02*
X191800000Y-30000000D01*
X150490000Y-62900000D02*
X155200000Y-62900000D01*
%TO.N,Net-(J4-Pad27)*%
X164400000Y-31000000D02*
X156900000Y-31000000D01*
%TO.N,Net-(J2-Pad30)*%
X145240000Y-53840000D02*
X145240000Y-52700000D01*
X145400000Y-54000000D02*
X145240000Y-53840000D01*
X110700000Y-54000000D02*
X145400000Y-54000000D01*
%TO.N,Net-(Q18-Pad2)*%
X144200000Y-57700000D02*
X114600000Y-57700000D01*
%TO.N,Net-(Q20-Pad2)*%
X146200000Y-56000000D02*
X150690000Y-56000000D01*
X145300000Y-55100000D02*
X146200000Y-56000000D01*
%TO.N,Net-(J2-Pad31)*%
X141500000Y-56800000D02*
X145200000Y-56800000D01*
X140100000Y-55400000D02*
X141500000Y-56800000D01*
X112100000Y-55400000D02*
X140100000Y-55400000D01*
D36*
%TO.N,GND*%
X122700000Y-149500000D02*
X129700000Y-149500000D01*
X122400000Y-149200000D02*
X122700000Y-149500000D01*
X115300000Y-149200000D02*
X122400000Y-149200000D01*
X97200000Y-149200000D02*
X115300000Y-149200000D01*
X129700000Y-126000000D02*
X139500000Y-126000000D01*
X143500000Y-126000000D02*
X139500000Y-126000000D01*
X134300000Y-91400000D02*
X139200000Y-91400000D01*
X142300000Y-90200000D02*
X142600000Y-90500000D01*
X132200000Y-93500000D02*
X134300000Y-91400000D01*
X139200000Y-91400000D02*
X140400000Y-90200000D01*
X128862500Y-93500000D02*
X132200000Y-93500000D01*
X140400000Y-90200000D02*
X142300000Y-90200000D01*
X124200000Y-93500000D02*
X128862500Y-93500000D01*
X121200000Y-96500000D02*
X124200000Y-93500000D01*
X113537500Y-96500000D02*
X121200000Y-96500000D01*
X148050000Y-90150000D02*
X148050000Y-88300000D01*
X142600000Y-90500000D02*
X147700000Y-90500000D01*
X147700000Y-90500000D02*
X148050000Y-90150000D01*
D35*
%TO.N,+3V3*%
X145000000Y-96000000D02*
X145000000Y-95200000D01*
X145000000Y-96000000D02*
X128862500Y-96000000D01*
X161700000Y-96000000D02*
X145000000Y-96000000D01*
%TO.N,Net-(U1-Pad90)*%
X137200000Y-95000000D02*
X128862500Y-95000000D01*
X137800000Y-94400000D02*
X137200000Y-95000000D01*
X164700000Y-94400000D02*
X137800000Y-94400000D01*
X165400000Y-95100000D02*
X164700000Y-94400000D01*
%TO.N,Net-(U1-Pad91)*%
X135100000Y-93500000D02*
X134100000Y-94500000D01*
X134100000Y-94500000D02*
X128862500Y-94500000D01*
X142100000Y-93500000D02*
X135100000Y-93500000D01*
%TO.N,Net-(U1-Pad92)*%
X134600000Y-92100000D02*
X146900000Y-92100000D01*
X132700000Y-94000000D02*
X134600000Y-92100000D01*
X147600000Y-92800000D02*
X147600000Y-93600000D01*
X128862500Y-94000000D02*
X132700000Y-94000000D01*
X146900000Y-92100000D02*
X147600000Y-92800000D01*
%TO.N,Net-(U1-Pad91)*%
X141520000Y-118380000D02*
X141500000Y-118400000D01*
X143500000Y-118380000D02*
X141520000Y-118380000D01*
%TO.N,Net-(U1-Pad84)*%
X146100000Y-120800000D02*
X145980000Y-120920000D01*
X145980000Y-120920000D02*
X143500000Y-120920000D01*
X138100000Y-100000000D02*
X146100000Y-100000000D01*
X136100000Y-98000000D02*
X138100000Y-100000000D01*
X128862500Y-98000000D02*
X136100000Y-98000000D01*
%TO.N,Net-(U1-Pad92)*%
X147460000Y-123460000D02*
X143500000Y-123460000D01*
X147600000Y-123600000D02*
X147460000Y-123460000D01*
%TO.N,Net-(U1-Pad90)*%
X165520000Y-120920000D02*
X165500000Y-120900000D01*
X168900000Y-120920000D02*
X165520000Y-120920000D01*
%TO.N,Net-(U1-Pad89)*%
X140200000Y-95500000D02*
X140500000Y-95200000D01*
X128862500Y-95500000D02*
X140200000Y-95500000D01*
X157600000Y-98300000D02*
X140500000Y-98300000D01*
X158600000Y-113300000D02*
X158400000Y-113100000D01*
X168900000Y-113300000D02*
X158600000Y-113300000D01*
%TO.N,Net-(U1-Pad86)*%
X158400000Y-97000000D02*
X128862500Y-97000000D01*
X159100000Y-97700000D02*
X158400000Y-97000000D01*
X168900000Y-110760000D02*
X159660000Y-110760000D01*
X159660000Y-110760000D02*
X159500000Y-110600000D01*
%TO.N,Net-(U1-Pad87)*%
X159400000Y-96500000D02*
X128862500Y-96500000D01*
X159800000Y-96700000D02*
X159600000Y-96700000D01*
X160700000Y-97600000D02*
X159800000Y-96700000D01*
X159600000Y-96700000D02*
X159400000Y-96500000D01*
X160820000Y-108220000D02*
X160700000Y-108100000D01*
X168900000Y-108220000D02*
X160820000Y-108220000D01*
%TO.N,+3V3*%
X162400000Y-96700000D02*
X161700000Y-96000000D01*
X162660000Y-103140000D02*
X162500000Y-103300000D01*
X168900000Y-103140000D02*
X162660000Y-103140000D01*
%TO.N,Net-(Q1-Pad2)*%
X181900000Y-63400000D02*
X181900000Y-62590000D01*
X181900000Y-62590000D02*
X180810000Y-61500000D01*
X183600000Y-65700000D02*
X183600000Y-65100000D01*
X183600000Y-65100000D02*
X181900000Y-63400000D01*
%TO.N,Net-(Q11-Pad1)*%
X183000000Y-67100000D02*
X186300000Y-67100000D01*
X182700000Y-66800000D02*
X183000000Y-67100000D01*
D36*
%TO.N,GND*%
X174430000Y-54030000D02*
X174430000Y-51560000D01*
X174600000Y-54200000D02*
X174430000Y-54030000D01*
X180595489Y-53004511D02*
X179400000Y-54200000D01*
X193595489Y-53004511D02*
X180595489Y-53004511D01*
X194700000Y-51900000D02*
X193595489Y-53004511D01*
X179400000Y-54200000D02*
X174600000Y-54200000D01*
D35*
%TO.N,Net-(Q11-Pad1)*%
X174300000Y-46600000D02*
X174300000Y-46100000D01*
X175200000Y-47500000D02*
X174300000Y-46600000D01*
X182000000Y-47500000D02*
X183100000Y-48600000D01*
X186200000Y-48600000D02*
X183100000Y-48600000D01*
X182000000Y-47500000D02*
X175200000Y-47500000D01*
%TO.N,Net-(J9-Pad19)*%
X184600000Y-39300000D02*
X193400000Y-39300000D01*
X194100000Y-41435000D02*
X194100000Y-40000000D01*
X184600000Y-39300000D02*
X184500000Y-39200000D01*
X196900000Y-44235000D02*
X194100000Y-41435000D01*
X194100000Y-40000000D02*
X193400000Y-39300000D01*
D36*
%TO.N,GND*%
X194700000Y-51900000D02*
X194700000Y-47500000D01*
D35*
%TO.N,+3V3*%
X188500000Y-65900000D02*
X188100000Y-65500000D01*
X193200000Y-65900000D02*
X188500000Y-65900000D01*
X193900000Y-65200000D02*
X193200000Y-65900000D01*
X193900000Y-63300000D02*
X193900000Y-65200000D01*
%TO.N,Net-(Q21-Pad2)*%
X178790000Y-42890000D02*
X178790000Y-41400000D01*
X178800000Y-42900000D02*
X178790000Y-42890000D01*
X178400000Y-43300000D02*
X178800000Y-42900000D01*
X173100000Y-42800000D02*
X173600000Y-43300000D01*
X173600000Y-43300000D02*
X178400000Y-43300000D01*
X173100000Y-41260000D02*
X173100000Y-42800000D01*
%TO.N,Net-(Q12-Pad2)*%
X150700000Y-40000000D02*
X144300000Y-40000000D01*
X150700000Y-40000000D02*
X151700000Y-39000000D01*
X158000000Y-39000000D02*
X151700000Y-39000000D01*
%TO.N,Net-(Q22-Pad1)*%
X141830000Y-35670000D02*
X146960000Y-35670000D01*
X146960000Y-35670000D02*
X148530000Y-34100000D01*
X140030000Y-35800000D02*
X141830000Y-34000000D01*
X130900000Y-35800000D02*
X140030000Y-35800000D01*
X130900000Y-35800000D02*
X131530000Y-35170000D01*
X121800000Y-35200000D02*
X122400000Y-35800000D01*
X122400000Y-35800000D02*
X130900000Y-35800000D01*
X121800000Y-34200000D02*
X121800000Y-35200000D01*
X131530000Y-35170000D02*
X131530000Y-34060000D01*
%TO.N,Net-(Q20-Pad2)*%
X134700000Y-49200000D02*
X119700000Y-49200000D01*
X138000000Y-49900000D02*
X135400000Y-49900000D01*
X138200000Y-49700000D02*
X138000000Y-49900000D01*
X134700000Y-49200000D02*
X135400000Y-49900000D01*
X142300000Y-49700000D02*
X138200000Y-49700000D01*
%TO.N,Net-(Q14-Pad2)*%
X132700000Y-38200000D02*
X132800000Y-38100000D01*
X123200000Y-38200000D02*
X132700000Y-38200000D01*
%TO.N,Net-(J4-Pad18)*%
X139200000Y-38600000D02*
X138900000Y-38300000D01*
X147400000Y-38600000D02*
X139200000Y-38600000D01*
%TO.N,Net-(Q12-Pad2)*%
X169600000Y-46000000D02*
X158200000Y-46000000D01*
X169600000Y-46000000D02*
X172300000Y-48700000D01*
X178700000Y-48700000D02*
X172300000Y-48700000D01*
%TO.N,+3V3*%
X189280000Y-59475000D02*
X172975000Y-59475000D01*
X172975000Y-59475000D02*
X172200000Y-58700000D01*
X166300000Y-50400000D02*
X169520000Y-50400000D01*
X166100000Y-50600000D02*
X166300000Y-50400000D01*
D36*
%TO.N,GND*%
X160300000Y-76200000D02*
X158500000Y-78000000D01*
X161900000Y-76200000D02*
X160300000Y-76200000D01*
X167200000Y-76200000D02*
X167300000Y-76100000D01*
X161900000Y-76200000D02*
X167200000Y-76200000D01*
D35*
%TO.N,Net-(Q19-Pad2)*%
X133800000Y-50700000D02*
X119200000Y-50700000D01*
X148890000Y-50700000D02*
X133800000Y-50700000D01*
X120800000Y-146400000D02*
X121200000Y-146800000D01*
X110900000Y-146400000D02*
X120800000Y-146400000D01*
%TO.N,Net-(Q13-Pad2)*%
X116700000Y-148000000D02*
X122800000Y-148000000D01*
%TO.N,Net-(Q19-Pad2)*%
X109900000Y-147400000D02*
X110900000Y-146400000D01*
X105700000Y-147400000D02*
X109900000Y-147400000D01*
%TO.N,Net-(Q13-Pad2)*%
X143870000Y-67630000D02*
X143870000Y-65500000D01*
X143400000Y-68100000D02*
X143870000Y-67630000D01*
X135100000Y-68100000D02*
X143400000Y-68100000D01*
%TO.N,Net-(J3-Pad17)*%
X94200000Y-145200000D02*
X91300000Y-145200000D01*
X94300000Y-145100000D02*
X94200000Y-145200000D01*
X131800000Y-145500000D02*
X94700000Y-145500000D01*
X132200000Y-145900000D02*
X131800000Y-145500000D01*
X94700000Y-145500000D02*
X94300000Y-145100000D01*
%TO.N,Net-(Q22-Pad1)*%
X104300000Y-144500000D02*
X104900000Y-143900000D01*
X104900000Y-143900000D02*
X126500000Y-143900000D01*
X126500000Y-143900000D02*
X126700000Y-143700000D01*
D36*
%TO.N,GND*%
X114700000Y-52700000D02*
X114500000Y-52500000D01*
X121600000Y-52700000D02*
X114700000Y-52700000D01*
X142700000Y-52700000D02*
X121600000Y-52700000D01*
D35*
%TO.N,Net-(Q22-Pad1)*%
X138900000Y-65500000D02*
X142600000Y-65500000D01*
%TO.N,Net-(Q15-Pad2)*%
X136500000Y-48700000D02*
X143700000Y-48700000D01*
%TO.N,Net-(J9-Pad20)*%
X193825000Y-59475000D02*
X196900000Y-59475000D01*
X190200000Y-63100000D02*
X193825000Y-59475000D01*
%TO.N,Net-(R81-Pad2)*%
X188600000Y-80600000D02*
X188600000Y-86637500D01*
X189900000Y-79300000D02*
X188600000Y-80600000D01*
%TO.N,Net-(R82-Pad2)*%
X188100000Y-78000000D02*
X188100000Y-86637500D01*
X188200000Y-77900000D02*
X188100000Y-78000000D01*
%TO.N,Net-(R83-Pad2)*%
X185700000Y-79300000D02*
X185000000Y-79300000D01*
X187600000Y-81200000D02*
X185700000Y-79300000D01*
%TO.N,Net-(R84-Pad2)*%
X187100000Y-83175386D02*
X187100000Y-86637500D01*
X184424614Y-80500000D02*
X187100000Y-83175386D01*
X182500000Y-80500000D02*
X184424614Y-80500000D01*
%TO.N,Net-(J4-Pad12)*%
X128100000Y-43400000D02*
X145100000Y-43400000D01*
%TO.N,Net-(J2-Pad1)*%
X105900000Y-49700000D02*
X103900000Y-49700000D01*
X105900000Y-49700000D02*
X108400000Y-47200000D01*
X125100000Y-47200000D02*
X108400000Y-47200000D01*
%TO.N,Net-(J2-Pad2)*%
X108800000Y-47800000D02*
X105700000Y-50900000D01*
X116600000Y-47800000D02*
X108800000Y-47800000D01*
X116700000Y-47800000D02*
X116600000Y-47800000D01*
X117070000Y-48170000D02*
X116700000Y-47800000D01*
X117070000Y-49260000D02*
X117070000Y-48170000D01*
%TO.N,Net-(J2-Pad3)*%
X129900000Y-75700000D02*
X106700000Y-52500000D01*
X144600000Y-75700000D02*
X129900000Y-75700000D01*
X145140000Y-75160000D02*
X144600000Y-75700000D01*
X145140000Y-72200000D02*
X145140000Y-75160000D01*
%TO.N,Net-(J6-Pad11)*%
X199960000Y-69640000D02*
X200200000Y-69400000D01*
X186300000Y-69640000D02*
X199960000Y-69640000D01*
%TO.N,Net-(J8-Pad4)*%
X215900000Y-39200000D02*
X220300000Y-39200000D01*
X215800000Y-39100000D02*
X215900000Y-39200000D01*
X210100000Y-40100000D02*
X214800000Y-40100000D01*
X201300000Y-41200000D02*
X209000000Y-41200000D01*
X201395000Y-54395000D02*
X201400000Y-54400000D01*
X209000000Y-41200000D02*
X210100000Y-40100000D01*
X196900000Y-54395000D02*
X201395000Y-54395000D01*
X214800000Y-40100000D02*
X215800000Y-39100000D01*
%TO.N,Net-(J8-Pad3)*%
X202800000Y-39200000D02*
X212400000Y-39200000D01*
X214400000Y-37200000D02*
X220300000Y-37200000D01*
X212400000Y-39200000D02*
X214400000Y-37200000D01*
X203155000Y-51855000D02*
X203200000Y-51900000D01*
X196900000Y-51855000D02*
X203155000Y-51855000D01*
%TO.N,Net-(J8-Pad1)*%
X219599639Y-33100000D02*
X219999820Y-33500181D01*
X204375000Y-46775000D02*
X204500000Y-46900000D01*
X196900000Y-46775000D02*
X204375000Y-46775000D01*
X204400000Y-33100000D02*
X219599639Y-33100000D01*
%TO.N,Net-(J8-Pad2)*%
X207800000Y-37700000D02*
X210300000Y-35200000D01*
X192000000Y-37700000D02*
X207800000Y-37700000D01*
X210300000Y-35200000D02*
X220300000Y-35200000D01*
X192035000Y-44235000D02*
X192200000Y-44400000D01*
X189280000Y-44235000D02*
X192035000Y-44235000D01*
%TO.N,Net-(Q32-Pad2)*%
X175700000Y-45900000D02*
X175800000Y-45800000D01*
X175800000Y-45800000D02*
X178790000Y-45800000D01*
%TO.N,Net-(R112-Pad1)*%
X188305000Y-45800000D02*
X189280000Y-46775000D01*
X186410000Y-45800000D02*
X188305000Y-45800000D01*
%TO.N,Net-(R60-Pad1)*%
X188985000Y-41400000D02*
X189280000Y-41695000D01*
X186410000Y-41400000D02*
X188985000Y-41400000D01*
%TO.N,Net-(Q12-Pad2)*%
X184700000Y-68500000D02*
X184830000Y-68370000D01*
X184830000Y-68370000D02*
X186300000Y-68370000D01*
X184300000Y-68100000D02*
X184700000Y-68500000D01*
X180820000Y-68100000D02*
X184300000Y-68100000D01*
%TO.N,Net-(R59-Pad1)*%
X171590000Y-63100000D02*
X173190000Y-61500000D01*
X169520000Y-63100000D02*
X171590000Y-63100000D01*
%TO.N,Net-(R53-Pad1)*%
X172360000Y-65640000D02*
X173200000Y-64800000D01*
X169520000Y-65640000D02*
X172360000Y-65640000D01*
%TO.N,Net-(R58-Pad1)*%
X173120000Y-68180000D02*
X173200000Y-68100000D01*
X169520000Y-68180000D02*
X173120000Y-68180000D01*
%TO.N,Net-(Q17-Pad2)*%
X143800000Y-70600000D02*
X143870000Y-70670000D01*
X144700000Y-69700000D02*
X143800000Y-70600000D01*
X150490000Y-69700000D02*
X144700000Y-69700000D01*
X143870000Y-70670000D02*
X143870000Y-72200000D01*
%TO.N,Net-(Q13-Pad2)*%
X143800000Y-64200000D02*
X143870000Y-64270000D01*
X143870000Y-64270000D02*
X143870000Y-65500000D01*
X144200000Y-63800000D02*
X143800000Y-64200000D01*
X147990000Y-63800000D02*
X144200000Y-63800000D01*
X150490000Y-66300000D02*
X147990000Y-63800000D01*
%TO.N,Net-(Q14-Pad2)*%
X123700000Y-61900000D02*
X149490000Y-61900000D01*
X123700000Y-61900000D02*
X123300000Y-61500000D01*
X150490000Y-62900000D02*
X149490000Y-61900000D01*
%TO.N,Net-(Q18-Pad2)*%
X143970000Y-57930000D02*
X143970000Y-59200000D01*
X148900000Y-59400000D02*
X147200000Y-57700000D01*
X144200000Y-57700000D02*
X143970000Y-57930000D01*
X147200000Y-57700000D02*
X144200000Y-57700000D01*
X150590000Y-59400000D02*
X148900000Y-59400000D01*
%TO.N,Net-(Q19-Pad2)*%
X115800000Y-50900000D02*
X115800000Y-49260000D01*
X116600000Y-51700000D02*
X115800000Y-50900000D01*
X118200000Y-51700000D02*
X116600000Y-51700000D01*
X150690000Y-52500000D02*
X148890000Y-50700000D01*
X119200000Y-50700000D02*
X118200000Y-51700000D01*
%TO.N,Net-(Q15-Pad2)*%
X143725000Y-48725000D02*
X143700000Y-48700000D01*
X150590000Y-48725000D02*
X143725000Y-48725000D01*
%TO.N,Net-(R52-Pad1)*%
X159800000Y-66800000D02*
X160740000Y-66800000D01*
X158110000Y-68490000D02*
X159800000Y-66800000D01*
X158110000Y-69700000D02*
X158110000Y-68490000D01*
X160740000Y-66800000D02*
X161900000Y-65640000D01*
%TO.N,Net-(R57-Pad1)*%
X159800000Y-63500000D02*
X160200000Y-63100000D01*
X159800000Y-64610000D02*
X159800000Y-63500000D01*
X160200000Y-63100000D02*
X161900000Y-63100000D01*
X158110000Y-66300000D02*
X159800000Y-64610000D01*
%TO.N,Net-(R56-Pad1)*%
X159840000Y-60560000D02*
X161900000Y-60560000D01*
X159700000Y-60700000D02*
X159840000Y-60560000D01*
X159700000Y-61310000D02*
X159700000Y-60700000D01*
X158110000Y-62900000D02*
X159700000Y-61310000D01*
%TO.N,Net-(R51-Pad1)*%
X160500000Y-57800000D02*
X160720000Y-58020000D01*
X159810000Y-57800000D02*
X160500000Y-57800000D01*
X160720000Y-58020000D02*
X161900000Y-58020000D01*
X158210000Y-59400000D02*
X159810000Y-57800000D01*
%TO.N,Net-(R101-Pad1)*%
X158830000Y-55480000D02*
X158310000Y-56000000D01*
X161900000Y-55480000D02*
X158830000Y-55480000D01*
%TO.N,Net-(R55-Pad1)*%
X158750000Y-52940000D02*
X158310000Y-52500000D01*
X161900000Y-52940000D02*
X158750000Y-52940000D01*
%TO.N,Net-(R54-Pad1)*%
X159885000Y-50400000D02*
X158210000Y-48725000D01*
X161900000Y-50400000D02*
X159885000Y-50400000D01*
%TO.N,Net-(Q22-Pad1)*%
X115400000Y-34890000D02*
X116030000Y-34260000D01*
X115400000Y-39500000D02*
X115400000Y-34890000D01*
X114100000Y-40800000D02*
X115400000Y-39500000D01*
X114100000Y-41860000D02*
X114100000Y-40800000D01*
%TO.N,Net-(J4-Pad3)*%
X116640000Y-38540000D02*
X116640000Y-41860000D01*
X116600000Y-38500000D02*
X116640000Y-38540000D01*
X114400000Y-32000000D02*
X114400000Y-38500000D01*
X115900000Y-30500000D02*
X114400000Y-32000000D01*
X108900000Y-28100000D02*
X108900000Y-30400000D01*
%TO.N,Net-(J4-Pad2)*%
X118570000Y-31730000D02*
X118600000Y-31700000D01*
X107000000Y-31700000D02*
X106900000Y-31600000D01*
X118570000Y-34260000D02*
X118570000Y-31730000D01*
X106900000Y-31600000D02*
X106900000Y-28100000D01*
%TO.N,Net-(J4-Pad6)*%
X114900000Y-29600000D02*
X114900000Y-28100000D01*
X112770000Y-31730000D02*
X114900000Y-29600000D01*
X112770000Y-34260000D02*
X112770000Y-31730000D01*
%TO.N,Net-(J8-Pad5)*%
X217347500Y-41200000D02*
X220300000Y-41200000D01*
X217307500Y-41240000D02*
X217347500Y-41200000D01*
%TO.N,Net-(J8-Pad6)*%
X217447500Y-43200000D02*
X217407500Y-43240000D01*
X220300000Y-43200000D02*
X217447500Y-43200000D01*
%TO.N,Net-(J8-Pad7)*%
X217560000Y-45200000D02*
X220300000Y-45200000D01*
X217500000Y-45140000D02*
X217560000Y-45200000D01*
%TO.N,Net-(J8-Pad8)*%
X217415000Y-47200000D02*
X220300000Y-47200000D01*
X217375000Y-47240000D02*
X217415000Y-47200000D01*
%TO.N,Net-(J8-Pad9)*%
X217447500Y-49200000D02*
X217407500Y-49240000D01*
X220300000Y-49200000D02*
X217447500Y-49200000D01*
%TO.N,Net-(J8-Pad10)*%
X217615000Y-51200000D02*
X220300000Y-51200000D01*
X217475000Y-51340000D02*
X217615000Y-51200000D01*
%TO.N,Net-(J8-Pad11)*%
X217540000Y-53200000D02*
X217500000Y-53240000D01*
X220300000Y-53200000D02*
X217540000Y-53200000D01*
%TO.N,Net-(J8-Pad12)*%
X217507500Y-55140000D02*
X217567500Y-55200000D01*
X217567500Y-55200000D02*
X220300000Y-55200000D01*
%TO.N,Net-(J8-Pad13)*%
X217567500Y-57200000D02*
X217507500Y-57140000D01*
X220300000Y-57200000D02*
X217567500Y-57200000D01*
%TO.N,Net-(J8-Pad14)*%
X217567500Y-59200000D02*
X220300000Y-59200000D01*
X217507500Y-59140000D02*
X217567500Y-59200000D01*
%TO.N,Net-(J8-Pad15)*%
X217647500Y-61200000D02*
X217607500Y-61240000D01*
X220300000Y-61200000D02*
X217647500Y-61200000D01*
%TO.N,Net-(J8-Pad16)*%
X217575000Y-63140000D02*
X217635000Y-63200000D01*
X217635000Y-63200000D02*
X220300000Y-63200000D01*
%TO.N,Net-(J8-Pad17)*%
X217635000Y-65200000D02*
X217575000Y-65140000D01*
X220300000Y-65200000D02*
X217635000Y-65200000D01*
%TO.N,Net-(J8-Pad18)*%
X217667500Y-67200000D02*
X220300000Y-67200000D01*
X217607500Y-67140000D02*
X217667500Y-67200000D01*
%TO.N,Net-(J8-Pad19)*%
X217615000Y-69200000D02*
X217575000Y-69240000D01*
X220300000Y-69200000D02*
X217615000Y-69200000D01*
%TO.N,Net-(J8-Pad20)*%
X217555000Y-71200000D02*
X220300000Y-71200000D01*
X217515000Y-71240000D02*
X217555000Y-71200000D01*
%TO.N,Net-(J8-Pad21)*%
X217447500Y-73200000D02*
X217407500Y-73240000D01*
X220300000Y-73200000D02*
X217447500Y-73200000D01*
%TO.N,Net-(J8-Pad22)*%
X217440000Y-75200000D02*
X220300000Y-75200000D01*
X217400000Y-75240000D02*
X217440000Y-75200000D01*
%TO.N,Net-(J8-Pad23)*%
X217467500Y-77200000D02*
X217407500Y-77140000D01*
X220300000Y-77200000D02*
X217467500Y-77200000D01*
%TO.N,Net-(J8-Pad24)*%
X217447500Y-79200000D02*
X220300000Y-79200000D01*
X217407500Y-79240000D02*
X217447500Y-79200000D01*
%TO.N,Net-(J8-Pad25)*%
X217440000Y-81200000D02*
X217400000Y-81240000D01*
X220300000Y-81200000D02*
X217440000Y-81200000D01*
%TO.N,Net-(J8-Pad26)*%
X217447500Y-83200000D02*
X220300000Y-83200000D01*
X217407500Y-83240000D02*
X217447500Y-83200000D01*
%TO.N,Net-(J8-Pad27)*%
X217415000Y-85200000D02*
X217375000Y-85240000D01*
X220300000Y-85200000D02*
X217415000Y-85200000D01*
%TO.N,Net-(J8-Pad28)*%
X217375000Y-87240000D02*
X217415000Y-87200000D01*
X217415000Y-87200000D02*
X220300000Y-87200000D01*
%TO.N,Net-(J8-Pad29)*%
X217347500Y-89200000D02*
X217307500Y-89240000D01*
X220300000Y-89200000D02*
X217347500Y-89200000D01*
%TO.N,Net-(J8-Pad32)*%
X217735000Y-95200000D02*
X220300000Y-95200000D01*
X217675000Y-95140000D02*
X217735000Y-95200000D01*
%TO.N,Net-(J8-Pad33)*%
X217767500Y-97200000D02*
X217607500Y-97040000D01*
X220300000Y-97200000D02*
X217767500Y-97200000D01*
%TO.N,Net-(J8-Pad34)*%
X217615000Y-99200000D02*
X220300000Y-99200000D01*
X217575000Y-99240000D02*
X217615000Y-99200000D01*
%TO.N,Net-(J8-Pad35)*%
X217515000Y-101200000D02*
X217475000Y-101240000D01*
X220300000Y-101200000D02*
X217515000Y-101200000D01*
%TO.N,Net-(J8-Pad36)*%
X217447500Y-103200000D02*
X220300000Y-103200000D01*
X217407500Y-103240000D02*
X217447500Y-103200000D01*
%TO.N,Net-(J8-Pad37)*%
X217535000Y-105200000D02*
X217475000Y-105140000D01*
X220300000Y-105200000D02*
X217535000Y-105200000D01*
%TO.N,Net-(J8-Pad38)*%
X217407500Y-107240000D02*
X217447500Y-107200000D01*
X217447500Y-107200000D02*
X220300000Y-107200000D01*
%TO.N,Net-(J8-Pad39)*%
X217440000Y-109200000D02*
X217400000Y-109240000D01*
X220300000Y-109200000D02*
X217440000Y-109200000D01*
%TO.N,Net-(J8-Pad40)*%
X217447500Y-111200000D02*
X220300000Y-111200000D01*
X217407500Y-111240000D02*
X217447500Y-111200000D01*
%TO.N,Net-(J9-Pad1)*%
X220300000Y-113240000D02*
X217607500Y-113240000D01*
%TO.N,Net-(J9-Pad2)*%
X217675000Y-115240000D02*
X220300000Y-115240000D01*
%TO.N,Net-(J9-Pad3)*%
X217742500Y-117240000D02*
X217642500Y-117340000D01*
X220300000Y-117240000D02*
X217742500Y-117240000D01*
%TO.N,Net-(J9-Pad4)*%
X217575000Y-119240000D02*
X220300000Y-119240000D01*
%TO.N,Net-(J9-Pad5)*%
X220300000Y-121240000D02*
X217607500Y-121240000D01*
%TO.N,Net-(J9-Pad6)*%
X217607500Y-123240000D02*
X220300000Y-123240000D01*
%TO.N,Net-(J9-Pad7)*%
X220300000Y-125240000D02*
X217542500Y-125240000D01*
%TO.N,Net-(J9-Pad8)*%
X217607500Y-127240000D02*
X220300000Y-127240000D01*
X217507500Y-127140000D02*
X217607500Y-127240000D01*
%TO.N,Net-(J9-Pad9)*%
X220300000Y-129240000D02*
X217507500Y-129240000D01*
%TO.N,Net-(J9-Pad10)*%
X217507500Y-131240000D02*
X220300000Y-131240000D01*
%TO.N,Net-(J9-Pad11)*%
X220300000Y-133240000D02*
X217475000Y-133240000D01*
%TO.N,Net-(J9-Pad12)*%
X217415000Y-135240000D02*
X220300000Y-135240000D01*
%TO.N,Net-(J9-Pad13)*%
X220300000Y-137240000D02*
X217482500Y-137240000D01*
%TO.N,Net-(J9-Pad14)*%
X217507500Y-139240000D02*
X220300000Y-139240000D01*
%TO.N,Net-(J9-Pad15)*%
X217475000Y-141475000D02*
X217475000Y-141240000D01*
X217500000Y-141500000D02*
X217475000Y-141475000D01*
X217760000Y-141240000D02*
X217500000Y-141500000D01*
X220300000Y-141240000D02*
X217760000Y-141240000D01*
%TO.N,Net-(J9-Pad16)*%
X217407500Y-143240000D02*
X220300000Y-143240000D01*
%TO.N,Net-(R85-Pad2)*%
X216352500Y-89100000D02*
X216492500Y-89240000D01*
X213600000Y-89100000D02*
X216352500Y-89100000D01*
X186600000Y-83700000D02*
X185000000Y-82100000D01*
X186600000Y-86637500D02*
X186600000Y-83700000D01*
%TO.N,Net-(R84-Pad2)*%
X216520000Y-87200000D02*
X216560000Y-87240000D01*
X214900000Y-87200000D02*
X216520000Y-87200000D01*
%TO.N,Net-(R83-Pad2)*%
X216520000Y-85200000D02*
X216560000Y-85240000D01*
X213500000Y-85200000D02*
X216520000Y-85200000D01*
X187600000Y-86637500D02*
X187600000Y-81200000D01*
%TO.N,Net-(R82-Pad2)*%
X215040000Y-83240000D02*
X214900000Y-83100000D01*
X216592500Y-83240000D02*
X215040000Y-83240000D01*
%TO.N,Net-(R81-Pad2)*%
X213560000Y-81240000D02*
X213400000Y-81400000D01*
X216585000Y-81240000D02*
X213560000Y-81240000D01*
%TO.N,Net-(R80-Pad2)*%
X216532500Y-79300000D02*
X216592500Y-79240000D01*
X191583810Y-79283810D02*
X191500000Y-79200000D01*
X215200000Y-79300000D02*
X216532500Y-79300000D01*
X191583810Y-79683810D02*
X191583810Y-79283810D01*
X189100000Y-82167622D02*
X191583810Y-79683810D01*
X189100000Y-86637500D02*
X189100000Y-82167622D01*
%TO.N,Net-(R79-Pad2)*%
X216532500Y-77200000D02*
X216592500Y-77140000D01*
X214000000Y-77200000D02*
X216532500Y-77200000D01*
X193800000Y-78103338D02*
X193800000Y-77100000D01*
X189600000Y-82303339D02*
X193800000Y-78103338D01*
X189600000Y-86637500D02*
X189600000Y-82303339D01*
%TO.N,Net-(R78-Pad2)*%
X215240000Y-75240000D02*
X215200000Y-75200000D01*
X216585000Y-75240000D02*
X215240000Y-75240000D01*
X195800000Y-76739056D02*
X195800000Y-75200000D01*
X190100000Y-82439057D02*
X195800000Y-76739056D01*
X190100000Y-86637500D02*
X190100000Y-82439057D01*
%TO.N,Net-(R77-Pad2)*%
X213940000Y-73240000D02*
X216592500Y-73240000D01*
X213900000Y-73200000D02*
X213940000Y-73240000D01*
X199100000Y-74074774D02*
X199100000Y-73200000D01*
X190600000Y-82574774D02*
X199100000Y-74074774D01*
X190600000Y-86637500D02*
X190600000Y-82574774D01*
%TO.N,Net-(R76-Pad2)*%
X216700000Y-71240000D02*
X215140000Y-71240000D01*
X215140000Y-71240000D02*
X215100000Y-71200000D01*
X202100000Y-71710492D02*
X202100000Y-71700000D01*
X191100000Y-82710492D02*
X202100000Y-71710492D01*
X202100000Y-71700000D02*
X202100000Y-71200000D01*
X191100000Y-86637500D02*
X191100000Y-82710492D01*
%TO.N,Net-(R75-Pad2)*%
X216700000Y-69300000D02*
X216760000Y-69240000D01*
X213800000Y-69300000D02*
X216700000Y-69300000D01*
X203600000Y-70846208D02*
X203600000Y-69300000D01*
X191600000Y-82846209D02*
X203600000Y-70846208D01*
X191600000Y-86637500D02*
X191600000Y-82846209D01*
%TO.N,Net-(R74-Pad2)*%
X216752500Y-67100000D02*
X216792500Y-67140000D01*
X215200000Y-67100000D02*
X216752500Y-67100000D01*
X205554320Y-69527606D02*
X205554320Y-67854320D01*
X192100000Y-82981926D02*
X205554320Y-69527606D01*
X192100000Y-86637500D02*
X192100000Y-82981926D01*
X205554320Y-67854320D02*
X204900000Y-67200000D01*
%TO.N,Net-(R73-Pad2)*%
X216720000Y-65100000D02*
X216760000Y-65140000D01*
X214200000Y-65100000D02*
X216720000Y-65100000D01*
X206003840Y-65903840D02*
X205300000Y-65200000D01*
X192600000Y-83117643D02*
X206003840Y-69713802D01*
X192600000Y-86637500D02*
X192600000Y-83117643D01*
X206003840Y-69713802D02*
X206003840Y-65903840D01*
%TO.N,Net-(R72-Pad2)*%
X216620000Y-63000000D02*
X216760000Y-63140000D01*
X215200000Y-63000000D02*
X216620000Y-63000000D01*
X206453360Y-69900000D02*
X206453360Y-63753360D01*
X206453360Y-63753360D02*
X205700000Y-63000000D01*
X193100000Y-83253360D02*
X206453360Y-69900000D01*
X193100000Y-86637500D02*
X193100000Y-83253360D01*
%TO.N,Net-(R71-Pad2)*%
X214000000Y-61000000D02*
X216552500Y-61000000D01*
X216552500Y-61000000D02*
X216792500Y-61240000D01*
X206902880Y-62102880D02*
X206000000Y-61200000D01*
X206902880Y-70200000D02*
X206902880Y-62102880D01*
X193600000Y-83502880D02*
X206902880Y-70200000D01*
X193600000Y-86637500D02*
X193600000Y-83502880D01*
%TO.N,Net-(R70-Pad2)*%
X215200000Y-59100000D02*
X216652500Y-59100000D01*
X216652500Y-59100000D02*
X216692500Y-59140000D01*
X207352400Y-59852400D02*
X206700000Y-59200000D01*
X194100000Y-83792848D02*
X207352400Y-70540446D01*
X207352400Y-70540446D02*
X207352400Y-59852400D01*
X194100000Y-86637500D02*
X194100000Y-83792848D01*
%TO.N,Net-(R69-Pad2)*%
X216632500Y-57200000D02*
X216692500Y-57140000D01*
X214000000Y-57200000D02*
X216632500Y-57200000D01*
X207801920Y-57801920D02*
X207200000Y-57200000D01*
X207801920Y-70726644D02*
X207801920Y-57801920D01*
X194600000Y-83928565D02*
X207801920Y-70726644D01*
X194600000Y-86637500D02*
X194600000Y-83928565D01*
%TO.N,Net-(R68-Pad2)*%
X216532500Y-55300000D02*
X216692500Y-55140000D01*
X215300000Y-55300000D02*
X216532500Y-55300000D01*
X208251440Y-70912842D02*
X208251440Y-55951440D01*
X195100000Y-84064282D02*
X208251440Y-70912842D01*
X195100000Y-86637500D02*
X195100000Y-84064282D01*
X208251440Y-55951440D02*
X207700000Y-55400000D01*
%TO.N,Net-(R65-Pad2)*%
X209651440Y-53758591D02*
X209651440Y-50551440D01*
X209700000Y-71600000D02*
X209700000Y-53807152D01*
X196600000Y-84700000D02*
X209700000Y-71600000D01*
X209651440Y-50551440D02*
X208400000Y-49300000D01*
X196600000Y-86637500D02*
X196600000Y-84700000D01*
X209700000Y-53807152D02*
X209651440Y-53758591D01*
%TO.N,Net-(R67-Pad2)*%
X214160000Y-53240000D02*
X216685000Y-53240000D01*
X214000000Y-53400000D02*
X214160000Y-53240000D01*
X208700960Y-54200960D02*
X207850000Y-53350000D01*
X195600000Y-84200000D02*
X208700960Y-71099040D01*
X208700960Y-71099040D02*
X208700960Y-54200960D01*
X195600000Y-86637500D02*
X195600000Y-84200000D01*
%TO.N,Net-(R66-Pad2)*%
X215300000Y-51400000D02*
X216600000Y-51400000D01*
X216600000Y-51400000D02*
X216660000Y-51340000D01*
X209150480Y-52050480D02*
X208500000Y-51400000D01*
X196100000Y-84400000D02*
X209150480Y-71349520D01*
X209150480Y-71349520D02*
X209150480Y-52050480D01*
X196100000Y-86637500D02*
X196100000Y-84400000D01*
%TO.N,Net-(R65-Pad2)*%
X216532500Y-49300000D02*
X216592500Y-49240000D01*
X213800000Y-49300000D02*
X216532500Y-49300000D01*
%TO.N,Net-(R64-Pad2)*%
X210250480Y-71700960D02*
X197100000Y-84851440D01*
X210250480Y-53721914D02*
X210250480Y-71700960D01*
X210100960Y-53572394D02*
X210250480Y-53721914D01*
X210100960Y-48300960D02*
X210100960Y-53572394D01*
X197100000Y-84851440D02*
X197100000Y-86637500D01*
X209500000Y-47700000D02*
X210100960Y-48300960D01*
X209500000Y-47300000D02*
X209500000Y-47700000D01*
%TO.N,Net-(R63-Pad2)*%
X197600000Y-85100000D02*
X197600000Y-86637500D01*
X210700000Y-72000000D02*
X197600000Y-85100000D01*
X209900000Y-45600000D02*
X210550480Y-46250480D01*
X210550480Y-46250480D02*
X210550480Y-53386197D01*
X210550480Y-53386197D02*
X210700000Y-53535717D01*
X210700000Y-53535717D02*
X210700000Y-72000000D01*
%TO.N,Net-(R62-Pad2)*%
X199600000Y-88300000D02*
X199262500Y-88300000D01*
X211000000Y-53200000D02*
X211550480Y-53750480D01*
X211550480Y-53750480D02*
X211550480Y-76349520D01*
X211000000Y-43400000D02*
X211000000Y-53200000D01*
X211550480Y-76349520D02*
X199600000Y-88300000D01*
%TO.N,Net-(R61-Pad2)*%
X212000000Y-76865006D02*
X212000000Y-41240000D01*
X200065006Y-88800000D02*
X212000000Y-76865006D01*
X212000000Y-41240000D02*
X216492500Y-41240000D01*
X199262500Y-88800000D02*
X200065006Y-88800000D01*
%TO.N,Net-(R64-Pad2)*%
X216520000Y-47200000D02*
X216560000Y-47240000D01*
X215100000Y-47200000D02*
X216520000Y-47200000D01*
%TO.N,Net-(R63-Pad2)*%
X213940000Y-45140000D02*
X216685000Y-45140000D01*
X213800000Y-45000000D02*
X213940000Y-45140000D01*
%TO.N,Net-(R62-Pad2)*%
X216532500Y-43300000D02*
X216592500Y-43240000D01*
X214800000Y-43300000D02*
X216532500Y-43300000D01*
%TO.N,Net-(R86-Pad2)*%
X186100000Y-84400000D02*
X186100000Y-86637500D01*
X174000000Y-83900000D02*
X185600000Y-83900000D01*
X185600000Y-83900000D02*
X186100000Y-84400000D01*
X172800000Y-85100000D02*
X174000000Y-83900000D01*
X172800000Y-95100000D02*
X172800000Y-85100000D01*
X216820000Y-95100000D02*
X215400000Y-95100000D01*
X216860000Y-95140000D02*
X216820000Y-95100000D01*
%TO.N,Net-(R87-Pad2)*%
X185600000Y-84800000D02*
X185600000Y-86637500D01*
X174000000Y-85000000D02*
X174500000Y-84500000D01*
X174500000Y-84500000D02*
X185300000Y-84500000D01*
X174000000Y-96900000D02*
X174000000Y-85000000D01*
X185300000Y-84500000D02*
X185600000Y-84800000D01*
X213840000Y-97040000D02*
X213800000Y-97000000D01*
X216792500Y-97040000D02*
X213840000Y-97040000D01*
%TO.N,Net-(R88-Pad2)*%
X177600000Y-88300000D02*
X183937500Y-88300000D01*
X175200000Y-90700000D02*
X177600000Y-88300000D01*
X175200000Y-99300000D02*
X175200000Y-90700000D01*
X216760000Y-99240000D02*
X215240000Y-99240000D01*
%TO.N,Net-(R89-Pad2)*%
X178300000Y-88800000D02*
X183937500Y-88800000D01*
X176400000Y-90700000D02*
X178300000Y-88800000D01*
X176400000Y-101100000D02*
X176400000Y-90700000D01*
X216660000Y-101240000D02*
X213840000Y-101240000D01*
%TO.N,Net-(R90-Pad2)*%
X177700000Y-91000000D02*
X179400000Y-89300000D01*
X179400000Y-89300000D02*
X183937500Y-89300000D01*
X177700000Y-103300000D02*
X177700000Y-91000000D01*
X215140000Y-103240000D02*
X215100000Y-103200000D01*
X216592500Y-103240000D02*
X215140000Y-103240000D01*
%TO.N,Net-(R91-Pad2)*%
X183912020Y-89774520D02*
X183937500Y-89800000D01*
X180325480Y-89774520D02*
X183912020Y-89774520D01*
X179000000Y-91100000D02*
X180325480Y-89774520D01*
X179000000Y-105300000D02*
X179000000Y-91100000D01*
X213860000Y-105140000D02*
X213700000Y-105300000D01*
X216660000Y-105140000D02*
X213860000Y-105140000D01*
%TO.N,Net-(R92-Pad2)*%
X181200000Y-90300000D02*
X183937500Y-90300000D01*
X180200000Y-91300000D02*
X181200000Y-90300000D01*
X180200000Y-107500000D02*
X180200000Y-91300000D01*
X216592500Y-107240000D02*
X215240000Y-107240000D01*
%TO.N,Net-(R93-Pad2)*%
X216545000Y-109200000D02*
X216585000Y-109240000D01*
X213600000Y-109200000D02*
X216545000Y-109200000D01*
X183700000Y-107500000D02*
X183700000Y-109100000D01*
X183700000Y-109100000D02*
X183600000Y-109200000D01*
X180651440Y-99748560D02*
X180651440Y-104451440D01*
X182100000Y-98300000D02*
X180651440Y-99748560D01*
X180651440Y-104451440D02*
X183700000Y-107500000D01*
X183937500Y-98300000D02*
X182100000Y-98300000D01*
%TO.N,Net-(R94-Pad2)*%
X216532500Y-111300000D02*
X216592500Y-111240000D01*
X215200000Y-111300000D02*
X216532500Y-111300000D01*
X187000000Y-111200000D02*
X186900000Y-111300000D01*
X187000000Y-110100000D02*
X187000000Y-111200000D01*
X181100960Y-100091888D02*
X181100960Y-104200960D01*
X182392848Y-98800000D02*
X181100960Y-100091888D01*
X183937500Y-98800000D02*
X182392848Y-98800000D01*
X181100960Y-104200960D02*
X187000000Y-110100000D01*
%TO.N,Net-(R95-Pad2)*%
X213800000Y-113300000D02*
X216732500Y-113300000D01*
X216732500Y-113300000D02*
X216792500Y-113240000D01*
X189900000Y-112335717D02*
X189900000Y-113400000D01*
X181550480Y-100278085D02*
X181550480Y-103986197D01*
X182528565Y-99300000D02*
X181550480Y-100278085D01*
X183937500Y-99300000D02*
X182528565Y-99300000D01*
X181550480Y-103986197D02*
X189900000Y-112335717D01*
%TO.N,Net-(R96-Pad2)*%
X216600000Y-115500000D02*
X216860000Y-115240000D01*
X215300000Y-115500000D02*
X216600000Y-115500000D01*
X191257381Y-112942619D02*
X191257381Y-114342619D01*
X182000000Y-103800000D02*
X182114762Y-103800000D01*
X182114762Y-103800000D02*
X191257381Y-112942619D01*
X191257381Y-114342619D02*
X190200000Y-115400000D01*
X182000000Y-100464282D02*
X182000000Y-103800000D01*
X182664282Y-99800000D02*
X182000000Y-100464282D01*
X183937500Y-99800000D02*
X182664282Y-99800000D01*
%TO.N,Net-(R97-Pad2)*%
X216687500Y-117200000D02*
X216827500Y-117340000D01*
X213700000Y-117200000D02*
X216687500Y-117200000D01*
X191750480Y-115949520D02*
X190500000Y-117200000D01*
X191750480Y-112800000D02*
X191750480Y-115949520D01*
X182800000Y-100300000D02*
X182500000Y-100600000D01*
X182500000Y-100600000D02*
X182500000Y-103549520D01*
X183937500Y-100300000D02*
X182800000Y-100300000D01*
X182500000Y-103549520D02*
X191750480Y-112800000D01*
%TO.N,Net-(R98-Pad2)*%
X216700000Y-119300000D02*
X216760000Y-119240000D01*
X215100000Y-119300000D02*
X216700000Y-119300000D01*
X192200000Y-112400000D02*
X192200000Y-118500000D01*
X192200000Y-118500000D02*
X191400000Y-119300000D01*
X185600000Y-101962500D02*
X185600000Y-105800000D01*
X185600000Y-105800000D02*
X192200000Y-112400000D01*
%TO.N,Net-(R99-Pad2)*%
X216752500Y-121200000D02*
X216792500Y-121240000D01*
X213800000Y-121200000D02*
X216752500Y-121200000D01*
X192692846Y-120707154D02*
X192200000Y-121200000D01*
X192692846Y-112207154D02*
X192692846Y-120707154D01*
X186100000Y-105614308D02*
X192692846Y-112207154D01*
X186100000Y-101962500D02*
X186100000Y-105614308D01*
%TO.N,Net-(R100-Pad2)*%
X216752500Y-123200000D02*
X216792500Y-123240000D01*
X215100000Y-123200000D02*
X216752500Y-123200000D01*
X193160705Y-122639295D02*
X192600000Y-123200000D01*
X193160705Y-112039295D02*
X193160705Y-122639295D01*
X186600000Y-105478588D02*
X193160705Y-112039295D01*
X186600000Y-101962500D02*
X186600000Y-105478588D01*
%TO.N,Net-(R102-Pad2)*%
X216687500Y-125200000D02*
X216727500Y-125240000D01*
X213800000Y-125200000D02*
X216687500Y-125200000D01*
X187100000Y-105342871D02*
X193678564Y-111921436D01*
X193678564Y-124521436D02*
X193100000Y-125100000D01*
X193678564Y-111921436D02*
X193678564Y-124521436D01*
X187100000Y-101962500D02*
X187100000Y-105342871D01*
%TO.N,Net-(R103-Pad2)*%
X216652500Y-127100000D02*
X216692500Y-127140000D01*
X215200000Y-127100000D02*
X216652500Y-127100000D01*
X194196423Y-126503577D02*
X193700000Y-127000000D01*
X194196423Y-111803577D02*
X194196423Y-126503577D01*
X187600000Y-105207154D02*
X194196423Y-111803577D01*
X187600000Y-101962500D02*
X187600000Y-105207154D01*
%TO.N,Net-(R104-Pad2)*%
X213700000Y-129000000D02*
X216452500Y-129000000D01*
X216452500Y-129000000D02*
X216692500Y-129240000D01*
X194664282Y-128635718D02*
X194300000Y-129000000D01*
X194664282Y-111635718D02*
X194664282Y-128635718D01*
X188100000Y-105071434D02*
X194664282Y-111635718D01*
X188100000Y-101962500D02*
X188100000Y-105071434D01*
%TO.N,Net-(R105-Pad2)*%
X216632500Y-131300000D02*
X216692500Y-131240000D01*
X215100000Y-131300000D02*
X216632500Y-131300000D01*
X194815242Y-131300000D02*
X194300000Y-131300000D01*
X188600000Y-104935717D02*
X195115242Y-111450960D01*
X195115242Y-111450960D02*
X195115242Y-131000000D01*
X195115242Y-131000000D02*
X194815242Y-131300000D01*
X188600000Y-101962500D02*
X188600000Y-104935717D01*
%TO.N,Net-(R106-Pad2)*%
X213500000Y-133500000D02*
X216400000Y-133500000D01*
X216400000Y-133500000D02*
X216660000Y-133240000D01*
X195564762Y-132635238D02*
X194800000Y-133400000D01*
X189100000Y-104800000D02*
X195564762Y-111264762D01*
X189100000Y-101962500D02*
X189100000Y-104800000D01*
X195564762Y-111264762D02*
X195564762Y-132635238D01*
%TO.N,Net-(R107-Pad2)*%
X216560000Y-135200000D02*
X216600000Y-135240000D01*
X215000000Y-135200000D02*
X216560000Y-135200000D01*
X196014282Y-134585718D02*
X195500000Y-135100000D01*
X196014282Y-110885718D02*
X196014282Y-134585718D01*
X189600000Y-104471434D02*
X196014282Y-110885718D01*
X189600000Y-101962500D02*
X189600000Y-104471434D01*
%TO.N,Net-(R108-Pad2)*%
X216627500Y-137200000D02*
X216667500Y-137240000D01*
X213700000Y-137200000D02*
X216627500Y-137200000D01*
X196632141Y-136267859D02*
X195700000Y-137200000D01*
X196632141Y-110867859D02*
X196632141Y-136267859D01*
X190100000Y-104335717D02*
X196632141Y-110867859D01*
X190100000Y-101962500D02*
X190100000Y-104335717D01*
%TO.N,Net-(R109-Pad2)*%
X215040000Y-139240000D02*
X215000000Y-139200000D01*
X216692500Y-139240000D02*
X215040000Y-139240000D01*
X197200000Y-137900000D02*
X195800000Y-139300000D01*
X197200000Y-110800000D02*
X197200000Y-137900000D01*
X190600000Y-104200000D02*
X197200000Y-110800000D01*
X190600000Y-101962500D02*
X190600000Y-104200000D01*
%TO.N,Net-(R110-Pad2)*%
X216660000Y-141240000D02*
X213860000Y-141240000D01*
X213860000Y-141240000D02*
X213700000Y-141400000D01*
X196600000Y-141400000D02*
X196700000Y-141400000D01*
X197650480Y-140349520D02*
X196600000Y-141400000D01*
X197650480Y-110600000D02*
X197650480Y-140349520D01*
X191100000Y-104049520D02*
X197650480Y-110600000D01*
X191100000Y-101962500D02*
X191100000Y-104049520D01*
%TO.N,Net-(R111-Pad2)*%
X214300000Y-143300000D02*
X216532500Y-143300000D01*
X216532500Y-143300000D02*
X216592500Y-143240000D01*
X198400000Y-143200000D02*
X198500000Y-143200000D01*
X191600000Y-103700000D02*
X191600000Y-101962500D01*
X198100000Y-110200000D02*
X191600000Y-103700000D01*
X198100000Y-142900000D02*
X198100000Y-110200000D01*
X198400000Y-143200000D02*
X198100000Y-142900000D01*
%TO.N,Net-(J2-Pad5)*%
X91300000Y-41200000D02*
X94300000Y-41200000D01*
%TO.N,Net-(J2-Pad6)*%
X91300000Y-43200000D02*
X94272500Y-43200000D01*
%TO.N,Net-(J2-Pad7)*%
X94192500Y-45200000D02*
X91300000Y-45200000D01*
%TO.N,Net-(J2-Pad8)*%
X91300000Y-47200000D02*
X94165000Y-47200000D01*
%TO.N,Net-(J2-Pad9)*%
X94165000Y-49200000D02*
X91300000Y-49200000D01*
%TO.N,Net-(J2-Pad10)*%
X91300000Y-51200000D02*
X94140000Y-51200000D01*
%TO.N,Net-(J2-Pad11)*%
X94105000Y-53200000D02*
X91300000Y-53200000D01*
%TO.N,Net-(J2-Pad12)*%
X91300000Y-55200000D02*
X94080000Y-55200000D01*
%TO.N,Net-(J2-Pad13)*%
X93847980Y-56975480D02*
X91300000Y-56975480D01*
X93972500Y-57100000D02*
X93847980Y-56975480D01*
%TO.N,Net-(J2-Pad14)*%
X94005000Y-59200000D02*
X91724520Y-59200000D01*
%TO.N,Net-(J2-Pad15)*%
X94072500Y-61200000D02*
X91300000Y-61200000D01*
%TO.N,Net-(J2-Pad16)*%
X94105000Y-63200000D02*
X94205000Y-63100000D01*
X91300000Y-63200000D02*
X94105000Y-63200000D01*
%TO.N,Net-(J2-Pad17)*%
X94072500Y-65200000D02*
X91300000Y-65200000D01*
X94172500Y-65100000D02*
X94072500Y-65200000D01*
%TO.N,Net-(J2-Pad18)*%
X91300000Y-67200000D02*
X94140000Y-67200000D01*
%TO.N,Net-(J2-Pad19)*%
X94165000Y-69200000D02*
X91300000Y-69200000D01*
%TO.N,Net-(J2-Pad20)*%
X91300000Y-71200000D02*
X94205000Y-71200000D01*
%TO.N,Net-(J2-Pad21)*%
X94240000Y-73200000D02*
X91300000Y-73200000D01*
%TO.N,Net-(J2-Pad22)*%
X94105000Y-75200000D02*
X94205000Y-75300000D01*
X91300000Y-75200000D02*
X94105000Y-75200000D01*
%TO.N,Net-(J2-Pad23)*%
X94240000Y-77200000D02*
X91300000Y-77200000D01*
%TO.N,Net-(J2-Pad24)*%
X91300000Y-79200000D02*
X94272500Y-79200000D01*
%TO.N,Net-(J2-Pad25)*%
X94340000Y-81200000D02*
X91300000Y-81200000D01*
%TO.N,Net-(J2-Pad26)*%
X91300000Y-83200000D02*
X94372500Y-83200000D01*
%TO.N,Net-(J2-Pad27)*%
X94172500Y-85200000D02*
X91300000Y-85200000D01*
%TO.N,Net-(J2-Pad28)*%
X91300000Y-87200000D02*
X94072500Y-87200000D01*
%TO.N,Net-(J2-Pad29)*%
X94040000Y-89200000D02*
X91300000Y-89200000D01*
%TO.N,Net-(J2-Pad32)*%
X91300000Y-95200000D02*
X94040000Y-95200000D01*
%TO.N,Net-(J2-Pad33)*%
X94140000Y-97200000D02*
X91300000Y-97200000D01*
%TO.N,Net-(J2-Pad34)*%
X94040000Y-99200000D02*
X94140000Y-99300000D01*
X91300000Y-99200000D02*
X94040000Y-99200000D01*
%TO.N,Net-(J2-Pad35)*%
X94172500Y-101300000D02*
X94072500Y-101200000D01*
X94072500Y-101200000D02*
X91300000Y-101200000D01*
%TO.N,Net-(J2-Pad36)*%
X91300000Y-103200000D02*
X94180000Y-103200000D01*
%TO.N,Net-(J2-Pad37)*%
X94240000Y-105200000D02*
X91300000Y-105200000D01*
%TO.N,Net-(J2-Pad38)*%
X91300000Y-107200000D02*
X94272500Y-107200000D01*
%TO.N,Net-(J2-Pad39)*%
X94080000Y-109200000D02*
X91300000Y-109200000D01*
%TO.N,Net-(J2-Pad40)*%
X91300000Y-111200000D02*
X94105000Y-111200000D01*
%TO.N,Net-(J3-Pad1)*%
X94172500Y-113200000D02*
X91300000Y-113200000D01*
%TO.N,Net-(J3-Pad2)*%
X91300000Y-115200000D02*
X94265000Y-115200000D01*
%TO.N,Net-(J3-Pad3)*%
X94205000Y-117200000D02*
X91300000Y-117200000D01*
%TO.N,Net-(J3-Pad4)*%
X91300000Y-119200000D02*
X94305000Y-119200000D01*
%TO.N,Net-(J3-Pad5)*%
X94340000Y-121200000D02*
X91300000Y-121200000D01*
%TO.N,Net-(J3-Pad6)*%
X91300000Y-123200000D02*
X94405000Y-123200000D01*
%TO.N,Net-(J3-Pad7)*%
X94105000Y-125200000D02*
X91300000Y-125200000D01*
%TO.N,Net-(J3-Pad8)*%
X94132500Y-127200000D02*
X91300000Y-127200000D01*
%TO.N,Net-(J3-Pad9)*%
X94140000Y-129200000D02*
X91300000Y-129200000D01*
%TO.N,Net-(J3-Pad10)*%
X94105000Y-131200000D02*
X91300000Y-131200000D01*
%TO.N,Net-(J3-Pad11)*%
X94065000Y-133200000D02*
X91300000Y-133200000D01*
%TO.N,Net-(J3-Pad12)*%
X94072500Y-135200000D02*
X91300000Y-135200000D01*
%TO.N,Net-(R1-Pad2)*%
X96000000Y-41200000D02*
X95115000Y-41200000D01*
X96000000Y-41400000D02*
X96000000Y-41200000D01*
X96200000Y-41600000D02*
X96000000Y-41400000D01*
X130835718Y-90500000D02*
X128862500Y-90500000D01*
X132000000Y-89335718D02*
X130835718Y-90500000D01*
X132000000Y-88464282D02*
X132000000Y-89335718D01*
X130886198Y-87350480D02*
X132000000Y-88464282D01*
X130250480Y-87350480D02*
X130886198Y-87350480D01*
X102271436Y-50400000D02*
X102335718Y-50400000D01*
X98135718Y-44900000D02*
X98135718Y-46264282D01*
X102335718Y-50400000D02*
X128300000Y-76364282D01*
X128300000Y-76364282D02*
X128300000Y-85400000D01*
X96200000Y-42964282D02*
X98135718Y-44900000D01*
X96200000Y-41600000D02*
X96200000Y-42964282D01*
X98135718Y-46264282D02*
X102271436Y-50400000D01*
X128300000Y-85400000D02*
X130250480Y-87350480D01*
%TO.N,Net-(R2-Pad2)*%
X130700000Y-90000000D02*
X128862500Y-90000000D01*
X131400000Y-88500000D02*
X131400000Y-89300000D01*
X130700000Y-87800000D02*
X131400000Y-88500000D01*
X129800000Y-87800000D02*
X130700000Y-87800000D01*
X127800000Y-85800000D02*
X129800000Y-87800000D01*
X127800000Y-76500000D02*
X127800000Y-85800000D01*
X118700000Y-67400000D02*
X127800000Y-76500000D01*
X118635718Y-67400000D02*
X118700000Y-67400000D01*
X97600000Y-46364282D02*
X118635718Y-67400000D01*
X97600000Y-45000000D02*
X97600000Y-46364282D01*
X131400000Y-89300000D02*
X130700000Y-90000000D01*
X95800000Y-43200000D02*
X97600000Y-45000000D01*
X95087500Y-43200000D02*
X95800000Y-43200000D01*
%TO.N,Net-(R3-Pad2)*%
X96300000Y-45100000D02*
X95387500Y-45100000D01*
X127200000Y-76600000D02*
X96300000Y-45700000D01*
X96300000Y-45700000D02*
X96300000Y-45100000D01*
X127200000Y-88337500D02*
X127200000Y-76600000D01*
%TO.N,Net-(R4-Pad2)*%
X97000000Y-47200000D02*
X94980000Y-47200000D01*
X126700000Y-76900000D02*
X97000000Y-47200000D01*
X126700000Y-88337500D02*
X126700000Y-76900000D01*
%TO.N,Net-(R5-Pad2)*%
X96300000Y-49200000D02*
X94980000Y-49200000D01*
X126200000Y-79100000D02*
X96300000Y-49200000D01*
X126200000Y-88337500D02*
X126200000Y-79100000D01*
%TO.N,Net-(R6-Pad2)*%
X95900000Y-51200000D02*
X94955000Y-51200000D01*
X125700000Y-81000000D02*
X95900000Y-51200000D01*
X125700000Y-88337500D02*
X125700000Y-81000000D01*
%TO.N,Net-(R7-Pad2)*%
X96300000Y-53200000D02*
X94920000Y-53200000D01*
X125200000Y-82100000D02*
X96300000Y-53200000D01*
X125200000Y-88337500D02*
X125200000Y-82100000D01*
%TO.N,Net-(R8-Pad2)*%
X97600000Y-55200000D02*
X94895000Y-55200000D01*
X124700000Y-82300000D02*
X97600000Y-55200000D01*
X124700000Y-88337500D02*
X124700000Y-82300000D01*
%TO.N,Net-(R9-Pad2)*%
X94887500Y-57000000D02*
X94787500Y-57100000D01*
X98700000Y-57000000D02*
X94887500Y-57000000D01*
X124200000Y-82500000D02*
X98700000Y-57000000D01*
X124200000Y-88337500D02*
X124200000Y-82500000D01*
%TO.N,Net-(R10-Pad2)*%
X100200000Y-59200000D02*
X94820000Y-59200000D01*
X123700000Y-82700000D02*
X100200000Y-59200000D01*
X123700000Y-88337500D02*
X123700000Y-82700000D01*
%TO.N,Net-(R11-Pad2)*%
X101500000Y-61200000D02*
X94887500Y-61200000D01*
X123200000Y-82900000D02*
X101500000Y-61200000D01*
X123200000Y-88337500D02*
X123200000Y-82900000D01*
%TO.N,Net-(R12-Pad2)*%
X102700000Y-63100000D02*
X95020000Y-63100000D01*
X122700000Y-83100000D02*
X102700000Y-63100000D01*
X122700000Y-88337500D02*
X122700000Y-83100000D01*
%TO.N,Net-(R13-Pad2)*%
X122200000Y-83400000D02*
X103700000Y-64900000D01*
X95187500Y-64900000D02*
X94987500Y-65100000D01*
X122200000Y-88337500D02*
X122200000Y-83400000D01*
X103700000Y-64900000D02*
X95187500Y-64900000D01*
%TO.N,Net-(R14-Pad2)*%
X95055000Y-67100000D02*
X94955000Y-67200000D01*
X121700000Y-83600000D02*
X105200000Y-67100000D01*
X121700000Y-88337500D02*
X121700000Y-83600000D01*
X105200000Y-67100000D02*
X95055000Y-67100000D01*
%TO.N,Net-(R15-Pad2)*%
X106600000Y-69200000D02*
X94980000Y-69200000D01*
X121200000Y-83800000D02*
X106600000Y-69200000D01*
X121200000Y-88337500D02*
X121200000Y-83800000D01*
%TO.N,Net-(R16-Pad2)*%
X107800000Y-71200000D02*
X95020000Y-71200000D01*
X120700000Y-84100000D02*
X107800000Y-71200000D01*
X120700000Y-88337500D02*
X120700000Y-84100000D01*
%TO.N,Net-(R17-Pad2)*%
X95255000Y-73000000D02*
X95055000Y-73200000D01*
X120200000Y-84300000D02*
X108900000Y-73000000D01*
X108900000Y-73000000D02*
X95255000Y-73000000D01*
X120200000Y-88337500D02*
X120200000Y-84300000D01*
%TO.N,Net-(R18-Pad2)*%
X94920000Y-75400000D02*
X95020000Y-75300000D01*
X94847020Y-75400000D02*
X94920000Y-75400000D01*
X94847020Y-75300000D02*
X94847020Y-75400000D01*
X110371435Y-75300000D02*
X94847020Y-75300000D01*
X119700000Y-88337500D02*
X119700000Y-84628565D01*
X119700000Y-84628565D02*
X110371435Y-75300000D01*
%TO.N,Net-(R19-Pad2)*%
X111635717Y-77200000D02*
X95055000Y-77200000D01*
X119200000Y-84764283D02*
X111635717Y-77200000D01*
X119200000Y-88337500D02*
X119200000Y-84764283D01*
%TO.N,Net-(R20-Pad2)*%
X113000000Y-79200000D02*
X95087500Y-79200000D01*
X118700000Y-84900000D02*
X113000000Y-79200000D01*
X118700000Y-88337500D02*
X118700000Y-84900000D01*
%TO.N,Net-(R21-Pad2)*%
X118200000Y-85100000D02*
X114300000Y-81200000D01*
X114300000Y-81200000D02*
X95155000Y-81200000D01*
X118200000Y-88337500D02*
X118200000Y-85100000D01*
%TO.N,Net-(R22-Pad2)*%
X117700000Y-86100000D02*
X114800000Y-83200000D01*
X114800000Y-83200000D02*
X95187500Y-83200000D01*
X117700000Y-88337500D02*
X117700000Y-86100000D01*
%TO.N,Net-(R23-Pad2)*%
X110700000Y-85300000D02*
X95087500Y-85300000D01*
X115335717Y-84500000D02*
X111500000Y-84500000D01*
X117200000Y-86364283D02*
X115335717Y-84500000D01*
X95087500Y-85300000D02*
X94987500Y-85200000D01*
X117200000Y-88337500D02*
X117200000Y-86364283D01*
X111500000Y-84500000D02*
X110700000Y-85300000D01*
%TO.N,Net-(R24-Pad2)*%
X109600000Y-87300000D02*
X94987500Y-87300000D01*
X116700000Y-86500000D02*
X115200000Y-85000000D01*
X111900000Y-85000000D02*
X109600000Y-87300000D01*
X115200000Y-85000000D02*
X111900000Y-85000000D01*
X116700000Y-88337500D02*
X116700000Y-86500000D01*
X94987500Y-87300000D02*
X94887500Y-87200000D01*
%TO.N,Net-(R25-Pad2)*%
X97300000Y-89200000D02*
X94855000Y-89200000D01*
X110782621Y-87045943D02*
X110782621Y-88082621D01*
X115072394Y-85600960D02*
X112227605Y-85600960D01*
X112227605Y-85600960D02*
X110782621Y-87045943D01*
X116200000Y-86728566D02*
X115072394Y-85600960D01*
X116200000Y-88337500D02*
X116200000Y-86728566D01*
X110782621Y-88082621D02*
X110264282Y-88600960D01*
X110264282Y-88600960D02*
X97899040Y-88600960D01*
X97899040Y-88600960D02*
X97300000Y-89200000D01*
%TO.N,Net-(R26-Pad2)*%
X103400000Y-95200000D02*
X94855000Y-95200000D01*
X104400000Y-94200000D02*
X103400000Y-95200000D01*
X104400000Y-92028565D02*
X104400000Y-94200000D01*
X107378085Y-89050480D02*
X104400000Y-92028565D01*
X110613802Y-89050480D02*
X107378085Y-89050480D01*
X111232141Y-88432141D02*
X110613802Y-89050480D01*
X111232141Y-87232141D02*
X111232141Y-88432141D01*
X112413802Y-86050480D02*
X111232141Y-87232141D01*
X114886197Y-86050480D02*
X112413802Y-86050480D01*
X115700000Y-86864283D02*
X114886197Y-86050480D01*
X115700000Y-88337500D02*
X115700000Y-86864283D01*
%TO.N,Net-(R27-Pad2)*%
X103200000Y-97200000D02*
X94955000Y-97200000D01*
X104850480Y-92213803D02*
X104850480Y-95549520D01*
X107564283Y-89500000D02*
X104850480Y-92213803D01*
X110800000Y-89500000D02*
X107564283Y-89500000D01*
X104850480Y-95549520D02*
X103200000Y-97200000D01*
X111700000Y-88600000D02*
X110800000Y-89500000D01*
X111700000Y-87400000D02*
X111700000Y-88600000D01*
X112600000Y-86500000D02*
X111700000Y-87400000D01*
X114700000Y-86500000D02*
X112600000Y-86500000D01*
X115200000Y-87000000D02*
X114700000Y-86500000D01*
X115200000Y-88337500D02*
X115200000Y-87000000D01*
%TO.N,Net-(R28-Pad2)*%
X105300000Y-97900000D02*
X103900000Y-99300000D01*
X103900000Y-99300000D02*
X94955000Y-99300000D01*
X105300000Y-92400000D02*
X105300000Y-97900000D01*
X107700000Y-90000000D02*
X105300000Y-92400000D01*
X113537500Y-90000000D02*
X107700000Y-90000000D01*
%TO.N,Net-(R29-Pad2)*%
X104900000Y-101300000D02*
X94987500Y-101300000D01*
X106000000Y-100200000D02*
X104900000Y-101300000D01*
X106000000Y-92600000D02*
X106000000Y-100200000D01*
X108100000Y-90500000D02*
X106000000Y-92600000D01*
X113537500Y-90500000D02*
X108100000Y-90500000D01*
%TO.N,Net-(R30-Pad2)*%
X105300000Y-103200000D02*
X94995000Y-103200000D01*
X106500000Y-102000000D02*
X105300000Y-103200000D01*
X106500000Y-92800000D02*
X106500000Y-102000000D01*
X108300000Y-91000000D02*
X106500000Y-92800000D01*
X113537500Y-91000000D02*
X108300000Y-91000000D01*
%TO.N,Net-(R31-Pad2)*%
X107200000Y-103900000D02*
X105900000Y-105200000D01*
X107200000Y-92800000D02*
X107200000Y-103900000D01*
X108500000Y-91500000D02*
X107200000Y-92800000D01*
X113537500Y-91500000D02*
X108500000Y-91500000D01*
X105900000Y-105200000D02*
X95055000Y-105200000D01*
%TO.N,Net-(R32-Pad2)*%
X106100000Y-107200000D02*
X95087500Y-107200000D01*
X113537500Y-92000000D02*
X108800000Y-92000000D01*
X108800000Y-92000000D02*
X107900000Y-92900000D01*
X107900000Y-92900000D02*
X107900000Y-105400000D01*
X107900000Y-105400000D02*
X106100000Y-107200000D01*
%TO.N,Net-(R33-Pad2)*%
X107400000Y-109200000D02*
X94895000Y-109200000D01*
X108400000Y-102264282D02*
X108400000Y-108200000D01*
X110664282Y-100000000D02*
X108400000Y-102264282D01*
X113537500Y-100000000D02*
X110664282Y-100000000D01*
X108400000Y-108200000D02*
X107400000Y-109200000D01*
%TO.N,Net-(R34-Pad2)*%
X95020000Y-111300000D02*
X94920000Y-111200000D01*
X108000000Y-111300000D02*
X95020000Y-111300000D01*
X109100000Y-102200000D02*
X109100000Y-110200000D01*
X110800000Y-100500000D02*
X109100000Y-102200000D01*
X113537500Y-100500000D02*
X110800000Y-100500000D01*
X109100000Y-110200000D02*
X108000000Y-111300000D01*
%TO.N,Net-(R35-Pad2)*%
X109800000Y-102300000D02*
X111100000Y-101000000D01*
X111100000Y-101000000D02*
X113537500Y-101000000D01*
X109800000Y-112200000D02*
X109800000Y-102300000D01*
X108800000Y-113200000D02*
X109800000Y-112200000D01*
X94987500Y-113200000D02*
X108800000Y-113200000D01*
%TO.N,Net-(R36-Pad2)*%
X110300000Y-113400000D02*
X108500000Y-115200000D01*
X111500000Y-101500000D02*
X110300000Y-102700000D01*
X108500000Y-115200000D02*
X95080000Y-115200000D01*
X113537500Y-101500000D02*
X111500000Y-101500000D01*
X110300000Y-102700000D02*
X110300000Y-113400000D01*
%TO.N,Net-(R37-Pad2)*%
X107300000Y-117200000D02*
X95020000Y-117200000D01*
X111000000Y-113500000D02*
X107300000Y-117200000D01*
X111700000Y-102000000D02*
X111000000Y-102700000D01*
X111000000Y-102700000D02*
X111000000Y-113500000D01*
X113537500Y-102000000D02*
X111700000Y-102000000D01*
%TO.N,Net-(R38-Pad2)*%
X112500000Y-119200000D02*
X95120000Y-119200000D01*
X115200000Y-116500000D02*
X112500000Y-119200000D01*
X115200000Y-103662500D02*
X115200000Y-116500000D01*
%TO.N,Net-(R39-Pad2)*%
X95355000Y-121400000D02*
X95155000Y-121200000D01*
X113600000Y-121400000D02*
X95355000Y-121400000D01*
X115700000Y-119300000D02*
X113600000Y-121400000D01*
X115700000Y-103662500D02*
X115700000Y-119300000D01*
%TO.N,Net-(R40-Pad2)*%
X95320000Y-123300000D02*
X95220000Y-123200000D01*
X114300000Y-123300000D02*
X95320000Y-123300000D01*
X116200000Y-121400000D02*
X114300000Y-123300000D01*
X116200000Y-103662500D02*
X116200000Y-121400000D01*
%TO.N,Net-(R41-Pad2)*%
X114900000Y-125300000D02*
X95020000Y-125300000D01*
X116700000Y-123500000D02*
X114900000Y-125300000D01*
X116700000Y-103662500D02*
X116700000Y-123500000D01*
X95020000Y-125300000D02*
X94920000Y-125200000D01*
%TO.N,Net-(R42-Pad2)*%
X115400000Y-127200000D02*
X94947500Y-127200000D01*
X117200000Y-125400000D02*
X115400000Y-127200000D01*
X117200000Y-103662500D02*
X117200000Y-125400000D01*
%TO.N,Net-(R43-Pad2)*%
X116600000Y-129200000D02*
X94955000Y-129200000D01*
X117700000Y-103662500D02*
X117700000Y-128100000D01*
X117700000Y-128100000D02*
X116600000Y-129200000D01*
%TO.N,Net-(R44-Pad2)*%
X117300000Y-131300000D02*
X95020000Y-131300000D01*
X95020000Y-131300000D02*
X94920000Y-131200000D01*
X118200000Y-130400000D02*
X117300000Y-131300000D01*
X118200000Y-103662500D02*
X118200000Y-130400000D01*
%TO.N,Net-(R49-Pad2)*%
X117700000Y-141200000D02*
X94987500Y-141200000D01*
X120700000Y-138200000D02*
X117700000Y-141200000D01*
X120700000Y-103662500D02*
X120700000Y-138200000D01*
%TO.N,Net-(R48-Pad2)*%
X118300000Y-139200000D02*
X94987500Y-139200000D01*
X120200000Y-103662500D02*
X120200000Y-137300000D01*
X120200000Y-137300000D02*
X118300000Y-139200000D01*
%TO.N,Net-(R45-Pad2)*%
X117400000Y-133200000D02*
X94880000Y-133200000D01*
X118700000Y-131900000D02*
X117400000Y-133200000D01*
X118700000Y-103662500D02*
X118700000Y-131900000D01*
%TO.N,Net-(R46-Pad2)*%
X118300000Y-135200000D02*
X94887500Y-135200000D01*
X119200000Y-134300000D02*
X118300000Y-135200000D01*
X119200000Y-103662500D02*
X119200000Y-134300000D01*
%TO.N,Net-(R47-Pad2)*%
X117700000Y-137200000D02*
X94887500Y-137200000D01*
X119700000Y-135200000D02*
X117700000Y-137200000D01*
X119700000Y-103662500D02*
X119700000Y-135200000D01*
%TO.N,Net-(J3-Pad13)*%
X94072500Y-137200000D02*
X91300000Y-137200000D01*
%TO.N,Net-(J3-Pad14)*%
X94172500Y-139200000D02*
X91300000Y-139200000D01*
%TO.N,Net-(J3-Pad15)*%
X94172500Y-141200000D02*
X91300000Y-141200000D01*
%TO.N,Net-(J3-Pad16)*%
X94240000Y-143200000D02*
X91300000Y-143200000D01*
%TO.N,Net-(R50-Pad2)*%
X95155000Y-143300000D02*
X95055000Y-143200000D01*
X121200000Y-139200000D02*
X117100000Y-143300000D01*
X117100000Y-143300000D02*
X95155000Y-143300000D01*
X121200000Y-103662500D02*
X121200000Y-139200000D01*
%TD*%
M02*
