G04 #@! TF.GenerationSoftware,KiCad,Pcbnew,(6.0.5)*
G04 #@! TF.CreationDate,2022-07-20T21:29:26+01:00*
G04 #@! TF.ProjectId,screen-driver,73637265-656e-42d6-9472-697665722e6b,rev?*
G04 #@! TF.SameCoordinates,Original*
G04 #@! TF.FileFunction,Copper,L2,Bot*
G04 #@! TF.FilePolarity,Positive*
%FSLAX46Y46*%
G04 Gerber Fmt 4.6, Leading zero omitted, Abs format (unit mm)*
G04 Created by KiCad (PCBNEW (6.0.5)) date 2022-07-20 21:29:26*
%MOMM*%
%LPD*%
G01*
G04 APERTURE LIST*
G04 Aperture macros list*
%AMRoundRect*
0 Rectangle with rounded corners*
0 $1 Rounding radius*
0 $2 $3 $4 $5 $6 $7 $8 $9 X,Y pos of 4 corners*
0 Add a 4 corners polygon primitive as box body*
4,1,4,$2,$3,$4,$5,$6,$7,$8,$9,$2,$3,0*
0 Add four circle primitives for the rounded corners*
1,1,$1+$1,$2,$3*
1,1,$1+$1,$4,$5*
1,1,$1+$1,$6,$7*
1,1,$1+$1,$8,$9*
0 Add four rect primitives between the rounded corners*
20,1,$1+$1,$2,$3,$4,$5,0*
20,1,$1+$1,$4,$5,$6,$7,0*
20,1,$1+$1,$6,$7,$8,$9,0*
20,1,$1+$1,$8,$9,$2,$3,0*%
G04 Aperture macros list end*
G04 #@! TA.AperFunction,ComponentPad*
%ADD10C,1.600000*%
G04 #@! TD*
G04 #@! TA.AperFunction,ComponentPad*
%ADD11O,1.600000X1.600000*%
G04 #@! TD*
G04 #@! TA.AperFunction,ComponentPad*
%ADD12R,1.050000X1.500000*%
G04 #@! TD*
G04 #@! TA.AperFunction,ComponentPad*
%ADD13O,1.050000X1.500000*%
G04 #@! TD*
G04 #@! TA.AperFunction,ComponentPad*
%ADD14R,1.350000X1.350000*%
G04 #@! TD*
G04 #@! TA.AperFunction,ComponentPad*
%ADD15O,1.350000X1.350000*%
G04 #@! TD*
G04 #@! TA.AperFunction,ComponentPad*
%ADD16R,1.500000X1.050000*%
G04 #@! TD*
G04 #@! TA.AperFunction,ComponentPad*
%ADD17O,1.500000X1.050000*%
G04 #@! TD*
G04 #@! TA.AperFunction,ComponentPad*
%ADD18R,1.600000X1.600000*%
G04 #@! TD*
G04 #@! TA.AperFunction,ComponentPad*
%ADD19R,1.700000X1.700000*%
G04 #@! TD*
G04 #@! TA.AperFunction,ComponentPad*
%ADD20O,1.700000X1.700000*%
G04 #@! TD*
G04 #@! TA.AperFunction,ComponentPad*
%ADD21R,1.560000X1.560000*%
G04 #@! TD*
G04 #@! TA.AperFunction,ComponentPad*
%ADD22C,1.560000*%
G04 #@! TD*
G04 #@! TA.AperFunction,ComponentPad*
%ADD23R,1.500000X2.500000*%
G04 #@! TD*
G04 #@! TA.AperFunction,ComponentPad*
%ADD24O,1.500000X2.500000*%
G04 #@! TD*
G04 #@! TA.AperFunction,ComponentPad*
%ADD25R,3.500000X3.500000*%
G04 #@! TD*
G04 #@! TA.AperFunction,ComponentPad*
%ADD26RoundRect,0.750000X1.000000X-0.750000X1.000000X0.750000X-1.000000X0.750000X-1.000000X-0.750000X0*%
G04 #@! TD*
G04 #@! TA.AperFunction,ComponentPad*
%ADD27RoundRect,0.875000X0.875000X-0.875000X0.875000X0.875000X-0.875000X0.875000X-0.875000X-0.875000X0*%
G04 #@! TD*
G04 #@! TA.AperFunction,ViaPad*
%ADD28C,0.800000*%
G04 #@! TD*
G04 #@! TA.AperFunction,ViaPad*
%ADD29C,0.900000*%
G04 #@! TD*
G04 #@! TA.AperFunction,Conductor*
%ADD30C,0.250000*%
G04 #@! TD*
G04 #@! TA.AperFunction,Conductor*
%ADD31C,0.300000*%
G04 #@! TD*
G04 #@! TA.AperFunction,Conductor*
%ADD32C,1.000000*%
G04 #@! TD*
G04 #@! TA.AperFunction,Conductor*
%ADD33C,0.800000*%
G04 #@! TD*
G04 APERTURE END LIST*
D10*
G04 #@! TO.P,R55,1*
G04 #@! TO.N,Net-(R55-Pad1)*
X158310000Y-52500000D03*
D11*
G04 #@! TO.P,R55,2*
G04 #@! TO.N,Net-(Q19-Pad2)*
X150690000Y-52500000D03*
G04 #@! TD*
D12*
G04 #@! TO.P,Q4,1,E*
G04 #@! TO.N,GND*
X142700000Y-52700000D03*
D13*
G04 #@! TO.P,Q4,2,B*
G04 #@! TO.N,Net-(Q20-Pad2)*
X143970000Y-52700000D03*
G04 #@! TO.P,Q4,3,C*
G04 #@! TO.N,Net-(J2-Pad30)*
X145240000Y-52700000D03*
G04 #@! TD*
D14*
G04 #@! TO.P,J7,1,Pin_1*
G04 #@! TO.N,unconnected-(J7-Pad1)*
X184700000Y-157200000D03*
D15*
G04 #@! TO.P,J7,2,Pin_2*
G04 #@! TO.N,unconnected-(J7-Pad2)*
X186700000Y-157200000D03*
G04 #@! TO.P,J7,3,Pin_3*
G04 #@! TO.N,unconnected-(J7-Pad3)*
X188700000Y-157200000D03*
G04 #@! TO.P,J7,4,Pin_4*
G04 #@! TO.N,unconnected-(J7-Pad4)*
X190700000Y-157200000D03*
G04 #@! TO.P,J7,5,Pin_5*
G04 #@! TO.N,unconnected-(J7-Pad5)*
X192700000Y-157200000D03*
G04 #@! TO.P,J7,6,Pin_6*
G04 #@! TO.N,unconnected-(J7-Pad6)*
X194700000Y-157200000D03*
G04 #@! TO.P,J7,7,Pin_7*
G04 #@! TO.N,unconnected-(J7-Pad7)*
X196700000Y-157200000D03*
G04 #@! TO.P,J7,8,Pin_8*
G04 #@! TO.N,unconnected-(J7-Pad8)*
X198700000Y-157200000D03*
G04 #@! TO.P,J7,9,Pin_9*
G04 #@! TO.N,unconnected-(J7-Pad9)*
X200700000Y-157200000D03*
G04 #@! TO.P,J7,10,Pin_10*
G04 #@! TO.N,unconnected-(J7-Pad10)*
X202700000Y-157200000D03*
G04 #@! TO.P,J7,11,Pin_11*
G04 #@! TO.N,Net-(J7-Pad11)*
X204700000Y-157200000D03*
G04 #@! TO.P,J7,12,Pin_12*
G04 #@! TO.N,unconnected-(J7-Pad12)*
X206700000Y-157200000D03*
G04 #@! TD*
D10*
G04 #@! TO.P,R56,1*
G04 #@! TO.N,Net-(R56-Pad1)*
X158110000Y-62900000D03*
D11*
G04 #@! TO.P,R56,2*
G04 #@! TO.N,Net-(Q14-Pad2)*
X150490000Y-62900000D03*
G04 #@! TD*
D14*
G04 #@! TO.P,J6,1,Pin_1*
G04 #@! TO.N,unconnected-(J6-Pad1)*
X184920000Y-28100000D03*
D15*
G04 #@! TO.P,J6,2,Pin_2*
G04 #@! TO.N,Net-(J6-Pad2)*
X186920000Y-28100000D03*
G04 #@! TO.P,J6,3,Pin_3*
G04 #@! TO.N,unconnected-(J6-Pad3)*
X188920000Y-28100000D03*
G04 #@! TO.P,J6,4,Pin_4*
G04 #@! TO.N,unconnected-(J6-Pad4)*
X190920000Y-28100000D03*
G04 #@! TO.P,J6,5,Pin_5*
G04 #@! TO.N,Net-(J6-Pad5)*
X192920000Y-28100000D03*
G04 #@! TO.P,J6,6,Pin_6*
G04 #@! TO.N,unconnected-(J6-Pad6)*
X194920000Y-28100000D03*
G04 #@! TO.P,J6,7,Pin_7*
G04 #@! TO.N,unconnected-(J6-Pad7)*
X196920000Y-28100000D03*
G04 #@! TO.P,J6,8,Pin_8*
G04 #@! TO.N,Net-(J6-Pad8)*
X198920000Y-28100000D03*
G04 #@! TO.P,J6,9,Pin_9*
G04 #@! TO.N,unconnected-(J6-Pad9)*
X200920000Y-28100000D03*
G04 #@! TO.P,J6,10,Pin_10*
G04 #@! TO.N,unconnected-(J6-Pad10)*
X202920000Y-28100000D03*
G04 #@! TO.P,J6,11,Pin_11*
G04 #@! TO.N,Net-(J6-Pad11)*
X204920000Y-28100000D03*
G04 #@! TO.P,J6,12,Pin_12*
G04 #@! TO.N,unconnected-(J6-Pad12)*
X206920000Y-28100000D03*
G04 #@! TD*
D10*
G04 #@! TO.P,C3,1*
G04 #@! TO.N,+3V3*
X193900000Y-63300000D03*
G04 #@! TO.P,C3,2*
G04 #@! TO.N,GND*
X196400000Y-63300000D03*
G04 #@! TD*
G04 #@! TO.P,C1,1*
G04 #@! TO.N,+3V3*
X164800000Y-72600000D03*
G04 #@! TO.P,C1,2*
G04 #@! TO.N,GND*
X167300000Y-72600000D03*
G04 #@! TD*
D14*
G04 #@! TO.P,J5,1,Pin_1*
G04 #@! TO.N,Net-(J5-Pad1)*
X104720000Y-157200000D03*
D15*
G04 #@! TO.P,J5,2,Pin_2*
G04 #@! TO.N,unconnected-(J5-Pad2)*
X106720000Y-157200000D03*
G04 #@! TO.P,J5,3,Pin_3*
G04 #@! TO.N,unconnected-(J5-Pad3)*
X108720000Y-157200000D03*
G04 #@! TO.P,J5,4,Pin_4*
G04 #@! TO.N,unconnected-(J5-Pad4)*
X110720000Y-157200000D03*
G04 #@! TO.P,J5,5,Pin_5*
G04 #@! TO.N,unconnected-(J5-Pad5)*
X112720000Y-157200000D03*
G04 #@! TO.P,J5,6,Pin_6*
G04 #@! TO.N,unconnected-(J5-Pad6)*
X114720000Y-157200000D03*
G04 #@! TO.P,J5,7,Pin_7*
G04 #@! TO.N,unconnected-(J5-Pad7)*
X116720000Y-157200000D03*
G04 #@! TO.P,J5,8,Pin_8*
G04 #@! TO.N,unconnected-(J5-Pad8)*
X118720000Y-157200000D03*
G04 #@! TO.P,J5,9,Pin_9*
G04 #@! TO.N,unconnected-(J5-Pad9)*
X120720000Y-157200000D03*
G04 #@! TO.P,J5,10,Pin_10*
G04 #@! TO.N,unconnected-(J5-Pad10)*
X122720000Y-157200000D03*
G04 #@! TO.P,J5,11,Pin_11*
G04 #@! TO.N,unconnected-(J5-Pad11)*
X124720000Y-157200000D03*
G04 #@! TO.P,J5,12,Pin_12*
G04 #@! TO.N,unconnected-(J5-Pad12)*
X126720000Y-157200000D03*
G04 #@! TO.P,J5,13,Pin_13*
G04 #@! TO.N,unconnected-(J5-Pad13)*
X128720000Y-157200000D03*
G04 #@! TO.P,J5,14,Pin_14*
G04 #@! TO.N,unconnected-(J5-Pad14)*
X130720000Y-157200000D03*
G04 #@! TO.P,J5,15,Pin_15*
G04 #@! TO.N,unconnected-(J5-Pad15)*
X132720000Y-157200000D03*
G04 #@! TO.P,J5,16,Pin_16*
G04 #@! TO.N,unconnected-(J5-Pad16)*
X134720000Y-157200000D03*
G04 #@! TO.P,J5,17,Pin_17*
G04 #@! TO.N,unconnected-(J5-Pad17)*
X136720000Y-157200000D03*
G04 #@! TO.P,J5,18,Pin_18*
G04 #@! TO.N,unconnected-(J5-Pad18)*
X138720000Y-157200000D03*
G04 #@! TO.P,J5,19,Pin_19*
G04 #@! TO.N,unconnected-(J5-Pad19)*
X140720000Y-157200000D03*
G04 #@! TO.P,J5,20,Pin_20*
G04 #@! TO.N,unconnected-(J5-Pad20)*
X142720000Y-157200000D03*
G04 #@! TO.P,J5,21,Pin_21*
G04 #@! TO.N,unconnected-(J5-Pad21)*
X144720000Y-157200000D03*
G04 #@! TO.P,J5,22,Pin_22*
G04 #@! TO.N,unconnected-(J5-Pad22)*
X146720000Y-157200000D03*
G04 #@! TO.P,J5,23,Pin_23*
G04 #@! TO.N,unconnected-(J5-Pad23)*
X148720000Y-157200000D03*
G04 #@! TO.P,J5,24,Pin_24*
G04 #@! TO.N,unconnected-(J5-Pad24)*
X150720000Y-157200000D03*
G04 #@! TO.P,J5,25,Pin_25*
G04 #@! TO.N,unconnected-(J5-Pad25)*
X152720000Y-157200000D03*
G04 #@! TO.P,J5,26,Pin_26*
G04 #@! TO.N,unconnected-(J5-Pad26)*
X154720000Y-157200000D03*
G04 #@! TO.P,J5,27,Pin_27*
G04 #@! TO.N,unconnected-(J5-Pad27)*
X156720000Y-157200000D03*
G04 #@! TO.P,J5,28,Pin_28*
G04 #@! TO.N,unconnected-(J5-Pad28)*
X158720000Y-157200000D03*
G04 #@! TO.P,J5,29,Pin_29*
G04 #@! TO.N,unconnected-(J5-Pad29)*
X160720000Y-157200000D03*
G04 #@! TO.P,J5,30,Pin_30*
G04 #@! TO.N,unconnected-(J5-Pad30)*
X162720000Y-157200000D03*
G04 #@! TO.P,J5,31,Pin_31*
G04 #@! TO.N,unconnected-(J5-Pad31)*
X164720000Y-157200000D03*
G04 #@! TO.P,J5,32,Pin_32*
G04 #@! TO.N,unconnected-(J5-Pad32)*
X166720000Y-157200000D03*
G04 #@! TO.P,J5,33,Pin_33*
G04 #@! TO.N,unconnected-(J5-Pad33)*
X168720000Y-157200000D03*
G04 #@! TO.P,J5,34,Pin_34*
G04 #@! TO.N,unconnected-(J5-Pad34)*
X170720000Y-157200000D03*
G04 #@! TO.P,J5,35,Pin_35*
G04 #@! TO.N,unconnected-(J5-Pad35)*
X172720000Y-157200000D03*
G04 #@! TO.P,J5,36,Pin_36*
G04 #@! TO.N,unconnected-(J5-Pad36)*
X174720000Y-157200000D03*
G04 #@! TO.P,J5,37,Pin_37*
G04 #@! TO.N,unconnected-(J5-Pad37)*
X176720000Y-157200000D03*
G04 #@! TO.P,J5,38,Pin_38*
G04 #@! TO.N,unconnected-(J5-Pad38)*
X178720000Y-157200000D03*
G04 #@! TO.P,J5,39,Pin_39*
G04 #@! TO.N,unconnected-(J5-Pad39)*
X180720000Y-157200000D03*
G04 #@! TO.P,J5,40,Pin_40*
G04 #@! TO.N,unconnected-(J5-Pad40)*
X182720000Y-157200000D03*
G04 #@! TD*
D14*
G04 #@! TO.P,J9,1,Pin_1*
G04 #@! TO.N,Net-(J9-Pad1)*
X220300000Y-113240000D03*
D15*
G04 #@! TO.P,J9,2,Pin_2*
G04 #@! TO.N,Net-(J9-Pad2)*
X220300000Y-115240000D03*
G04 #@! TO.P,J9,3,Pin_3*
G04 #@! TO.N,Net-(J9-Pad3)*
X220300000Y-117240000D03*
G04 #@! TO.P,J9,4,Pin_4*
G04 #@! TO.N,Net-(J9-Pad4)*
X220300000Y-119240000D03*
G04 #@! TO.P,J9,5,Pin_5*
G04 #@! TO.N,Net-(J9-Pad5)*
X220300000Y-121240000D03*
G04 #@! TO.P,J9,6,Pin_6*
G04 #@! TO.N,Net-(J9-Pad6)*
X220300000Y-123240000D03*
G04 #@! TO.P,J9,7,Pin_7*
G04 #@! TO.N,Net-(J9-Pad7)*
X220300000Y-125240000D03*
G04 #@! TO.P,J9,8,Pin_8*
G04 #@! TO.N,Net-(J9-Pad8)*
X220300000Y-127240000D03*
G04 #@! TO.P,J9,9,Pin_9*
G04 #@! TO.N,Net-(J9-Pad9)*
X220300000Y-129240000D03*
G04 #@! TO.P,J9,10,Pin_10*
G04 #@! TO.N,Net-(J9-Pad10)*
X220300000Y-131240000D03*
G04 #@! TO.P,J9,11,Pin_11*
G04 #@! TO.N,Net-(J9-Pad11)*
X220300000Y-133240000D03*
G04 #@! TO.P,J9,12,Pin_12*
G04 #@! TO.N,Net-(J9-Pad12)*
X220300000Y-135240000D03*
G04 #@! TO.P,J9,13,Pin_13*
G04 #@! TO.N,Net-(J9-Pad13)*
X220300000Y-137240000D03*
G04 #@! TO.P,J9,14,Pin_14*
G04 #@! TO.N,Net-(J9-Pad14)*
X220300000Y-139240000D03*
G04 #@! TO.P,J9,15,Pin_15*
G04 #@! TO.N,Net-(J9-Pad15)*
X220300000Y-141240000D03*
G04 #@! TO.P,J9,16,Pin_16*
G04 #@! TO.N,Net-(J9-Pad16)*
X220300000Y-143240000D03*
G04 #@! TO.P,J9,17,Pin_17*
G04 #@! TO.N,Net-(J9-Pad17)*
X220300000Y-145240000D03*
G04 #@! TO.P,J9,18,Pin_18*
G04 #@! TO.N,Net-(J9-Pad18)*
X220300000Y-147240000D03*
G04 #@! TO.P,J9,19,Pin_19*
G04 #@! TO.N,Net-(J9-Pad19)*
X220300000Y-149240000D03*
G04 #@! TO.P,J9,20,Pin_20*
G04 #@! TO.N,Net-(J9-Pad20)*
X220300000Y-151240000D03*
G04 #@! TD*
D10*
G04 #@! TO.P,C4,1*
G04 #@! TO.N,+3V3*
X145550000Y-88300000D03*
G04 #@! TO.P,C4,2*
G04 #@! TO.N,GND*
X148050000Y-88300000D03*
G04 #@! TD*
D12*
G04 #@! TO.P,Q27,1,E*
G04 #@! TO.N,Net-(Q22-Pad1)*
X121800000Y-34200000D03*
D13*
G04 #@! TO.P,Q27,2,B*
G04 #@! TO.N,Net-(Q10-Pad2)*
X123070000Y-34200000D03*
G04 #@! TO.P,Q27,3,C*
G04 #@! TO.N,Net-(J4-Pad9)*
X124340000Y-34200000D03*
G04 #@! TD*
D12*
G04 #@! TO.P,Q32,1,E*
G04 #@! TO.N,GND*
X174430000Y-51560000D03*
D13*
G04 #@! TO.P,Q32,2,B*
G04 #@! TO.N,Net-(Q32-Pad2)*
X175700000Y-51560000D03*
G04 #@! TO.P,Q32,3,C*
G04 #@! TO.N,Net-(Q22-Pad1)*
X176970000Y-51560000D03*
G04 #@! TD*
D14*
G04 #@! TO.P,J3,1,Pin_1*
G04 #@! TO.N,Net-(J3-Pad1)*
X91300000Y-113200000D03*
D15*
G04 #@! TO.P,J3,2,Pin_2*
G04 #@! TO.N,Net-(J3-Pad2)*
X91300000Y-115200000D03*
G04 #@! TO.P,J3,3,Pin_3*
G04 #@! TO.N,Net-(J3-Pad3)*
X91300000Y-117200000D03*
G04 #@! TO.P,J3,4,Pin_4*
G04 #@! TO.N,Net-(J3-Pad4)*
X91300000Y-119200000D03*
G04 #@! TO.P,J3,5,Pin_5*
G04 #@! TO.N,Net-(J3-Pad5)*
X91300000Y-121200000D03*
G04 #@! TO.P,J3,6,Pin_6*
G04 #@! TO.N,Net-(J3-Pad6)*
X91300000Y-123200000D03*
G04 #@! TO.P,J3,7,Pin_7*
G04 #@! TO.N,Net-(J3-Pad7)*
X91300000Y-125200000D03*
G04 #@! TO.P,J3,8,Pin_8*
G04 #@! TO.N,Net-(J3-Pad8)*
X91300000Y-127200000D03*
G04 #@! TO.P,J3,9,Pin_9*
G04 #@! TO.N,Net-(J3-Pad9)*
X91300000Y-129200000D03*
G04 #@! TO.P,J3,10,Pin_10*
G04 #@! TO.N,Net-(J3-Pad10)*
X91300000Y-131200000D03*
G04 #@! TO.P,J3,11,Pin_11*
G04 #@! TO.N,Net-(J3-Pad11)*
X91300000Y-133200000D03*
G04 #@! TO.P,J3,12,Pin_12*
G04 #@! TO.N,Net-(J3-Pad12)*
X91300000Y-135200000D03*
G04 #@! TO.P,J3,13,Pin_13*
G04 #@! TO.N,Net-(J3-Pad13)*
X91300000Y-137200000D03*
G04 #@! TO.P,J3,14,Pin_14*
G04 #@! TO.N,Net-(J3-Pad14)*
X91300000Y-139200000D03*
G04 #@! TO.P,J3,15,Pin_15*
G04 #@! TO.N,Net-(J3-Pad15)*
X91300000Y-141200000D03*
G04 #@! TO.P,J3,16,Pin_16*
G04 #@! TO.N,Net-(J3-Pad16)*
X91300000Y-143200000D03*
G04 #@! TO.P,J3,17,Pin_17*
G04 #@! TO.N,Net-(J3-Pad17)*
X91300000Y-145200000D03*
G04 #@! TO.P,J3,18,Pin_18*
G04 #@! TO.N,Net-(J3-Pad18)*
X91300000Y-147200000D03*
G04 #@! TO.P,J3,19,Pin_19*
G04 #@! TO.N,Net-(J3-Pad19)*
X91300000Y-149200000D03*
G04 #@! TO.P,J3,20,Pin_20*
G04 #@! TO.N,Net-(J3-Pad20)*
X91300000Y-151200000D03*
G04 #@! TD*
D12*
G04 #@! TO.P,Q9,1,E*
G04 #@! TO.N,GND*
X142600000Y-72200000D03*
D13*
G04 #@! TO.P,Q9,2,B*
G04 #@! TO.N,Net-(Q17-Pad2)*
X143870000Y-72200000D03*
G04 #@! TO.P,Q9,3,C*
G04 #@! TO.N,Net-(J2-Pad3)*
X145140000Y-72200000D03*
G04 #@! TD*
D12*
G04 #@! TO.P,Q10,1,E*
G04 #@! TO.N,GND*
X129700000Y-151600000D03*
D13*
G04 #@! TO.P,Q10,2,B*
G04 #@! TO.N,Net-(Q10-Pad2)*
X130970000Y-151600000D03*
G04 #@! TO.P,Q10,3,C*
G04 #@! TO.N,Net-(J3-Pad17)*
X132240000Y-151600000D03*
G04 #@! TD*
D16*
G04 #@! TO.P,Q12,1,E*
G04 #@! TO.N,Net-(Q11-Pad1)*
X186300000Y-67100000D03*
D17*
G04 #@! TO.P,Q12,2,B*
G04 #@! TO.N,Net-(Q12-Pad2)*
X186300000Y-68370000D03*
G04 #@! TO.P,Q12,3,C*
G04 #@! TO.N,Net-(J6-Pad11)*
X186300000Y-69640000D03*
G04 #@! TD*
D10*
G04 #@! TO.P,R57,1*
G04 #@! TO.N,Net-(R57-Pad1)*
X158110000Y-66300000D03*
D11*
G04 #@! TO.P,R57,2*
G04 #@! TO.N,Net-(Q13-Pad2)*
X150490000Y-66300000D03*
G04 #@! TD*
D10*
G04 #@! TO.P,R58,1*
G04 #@! TO.N,Net-(R58-Pad1)*
X173200000Y-68100000D03*
D11*
G04 #@! TO.P,R58,2*
G04 #@! TO.N,Net-(Q12-Pad2)*
X180820000Y-68100000D03*
G04 #@! TD*
D12*
G04 #@! TO.P,Q22,1,E*
G04 #@! TO.N,Net-(Q22-Pad1)*
X148530000Y-34100000D03*
D13*
G04 #@! TO.P,Q22,2,B*
G04 #@! TO.N,Net-(Q1-Pad2)*
X149800000Y-34100000D03*
G04 #@! TO.P,Q22,3,C*
G04 #@! TO.N,Net-(J4-Pad24)*
X151070000Y-34100000D03*
G04 #@! TD*
D12*
G04 #@! TO.P,Q28,1,E*
G04 #@! TO.N,Net-(Q22-Pad1)*
X110230000Y-34260000D03*
D13*
G04 #@! TO.P,Q28,2,B*
G04 #@! TO.N,Net-(Q17-Pad2)*
X111500000Y-34260000D03*
G04 #@! TO.P,Q28,3,C*
G04 #@! TO.N,Net-(J4-Pad6)*
X112770000Y-34260000D03*
G04 #@! TD*
D12*
G04 #@! TO.P,Q30,1,E*
G04 #@! TO.N,Net-(Q22-Pad1)*
X104270000Y-151040000D03*
D13*
G04 #@! TO.P,Q30,2,B*
G04 #@! TO.N,Net-(Q19-Pad2)*
X105540000Y-151040000D03*
G04 #@! TO.P,Q30,3,C*
G04 #@! TO.N,Net-(J5-Pad1)*
X106810000Y-151040000D03*
G04 #@! TD*
D12*
G04 #@! TO.P,Q16,1,E*
G04 #@! TO.N,Net-(Q11-Pad1)*
X179130000Y-34260000D03*
D13*
G04 #@! TO.P,Q16,2,B*
G04 #@! TO.N,Net-(Q10-Pad2)*
X180400000Y-34260000D03*
G04 #@! TO.P,Q16,3,C*
G04 #@! TO.N,Net-(J4-Pad39)*
X181670000Y-34260000D03*
G04 #@! TD*
D10*
G04 #@! TO.P,R54,1*
G04 #@! TO.N,Net-(R54-Pad1)*
X158210000Y-48725000D03*
D11*
G04 #@! TO.P,R54,2*
G04 #@! TO.N,Net-(Q15-Pad2)*
X150590000Y-48725000D03*
G04 #@! TD*
D12*
G04 #@! TO.P,Q29,1,E*
G04 #@! TO.N,Net-(Q22-Pad1)*
X114100000Y-41860000D03*
D13*
G04 #@! TO.P,Q29,2,B*
G04 #@! TO.N,Net-(Q18-Pad2)*
X115370000Y-41860000D03*
G04 #@! TO.P,Q29,3,C*
G04 #@! TO.N,Net-(J4-Pad3)*
X116640000Y-41860000D03*
G04 #@! TD*
D12*
G04 #@! TO.P,Q26,1,E*
G04 #@! TO.N,Net-(Q22-Pad1)*
X142430000Y-45960000D03*
D13*
G04 #@! TO.P,Q26,2,B*
G04 #@! TO.N,Net-(Q15-Pad2)*
X143700000Y-45960000D03*
G04 #@! TO.P,Q26,3,C*
G04 #@! TO.N,Net-(J4-Pad12)*
X144970000Y-45960000D03*
G04 #@! TD*
D10*
G04 #@! TO.P,R101,1*
G04 #@! TO.N,Net-(R101-Pad1)*
X158310000Y-56000000D03*
D11*
G04 #@! TO.P,R101,2*
G04 #@! TO.N,Net-(Q20-Pad2)*
X150690000Y-56000000D03*
G04 #@! TD*
D12*
G04 #@! TO.P,Q19,1,E*
G04 #@! TO.N,Net-(Q11-Pad1)*
X160100000Y-34300000D03*
D13*
G04 #@! TO.P,Q19,2,B*
G04 #@! TO.N,Net-(Q19-Pad2)*
X161370000Y-34300000D03*
G04 #@! TO.P,Q19,3,C*
G04 #@! TO.N,Net-(J4-Pad30)*
X162640000Y-34300000D03*
G04 #@! TD*
D14*
G04 #@! TO.P,J8,1,Pin_1*
G04 #@! TO.N,Net-(J8-Pad1)*
X220300000Y-33200000D03*
D15*
G04 #@! TO.P,J8,2,Pin_2*
G04 #@! TO.N,Net-(J8-Pad2)*
X220300000Y-35200000D03*
G04 #@! TO.P,J8,3,Pin_3*
G04 #@! TO.N,Net-(J8-Pad3)*
X220300000Y-37200000D03*
G04 #@! TO.P,J8,4,Pin_4*
G04 #@! TO.N,Net-(J8-Pad4)*
X220300000Y-39200000D03*
G04 #@! TO.P,J8,5,Pin_5*
G04 #@! TO.N,Net-(J8-Pad5)*
X220300000Y-41200000D03*
G04 #@! TO.P,J8,6,Pin_6*
G04 #@! TO.N,Net-(J8-Pad6)*
X220300000Y-43200000D03*
G04 #@! TO.P,J8,7,Pin_7*
G04 #@! TO.N,Net-(J8-Pad7)*
X220300000Y-45200000D03*
G04 #@! TO.P,J8,8,Pin_8*
G04 #@! TO.N,Net-(J8-Pad8)*
X220300000Y-47200000D03*
G04 #@! TO.P,J8,9,Pin_9*
G04 #@! TO.N,Net-(J8-Pad9)*
X220300000Y-49200000D03*
G04 #@! TO.P,J8,10,Pin_10*
G04 #@! TO.N,Net-(J8-Pad10)*
X220300000Y-51200000D03*
G04 #@! TO.P,J8,11,Pin_11*
G04 #@! TO.N,Net-(J8-Pad11)*
X220300000Y-53200000D03*
G04 #@! TO.P,J8,12,Pin_12*
G04 #@! TO.N,Net-(J8-Pad12)*
X220300000Y-55200000D03*
G04 #@! TO.P,J8,13,Pin_13*
G04 #@! TO.N,Net-(J8-Pad13)*
X220300000Y-57200000D03*
G04 #@! TO.P,J8,14,Pin_14*
G04 #@! TO.N,Net-(J8-Pad14)*
X220300000Y-59200000D03*
G04 #@! TO.P,J8,15,Pin_15*
G04 #@! TO.N,Net-(J8-Pad15)*
X220300000Y-61200000D03*
G04 #@! TO.P,J8,16,Pin_16*
G04 #@! TO.N,Net-(J8-Pad16)*
X220300000Y-63200000D03*
G04 #@! TO.P,J8,17,Pin_17*
G04 #@! TO.N,Net-(J8-Pad17)*
X220300000Y-65200000D03*
G04 #@! TO.P,J8,18,Pin_18*
G04 #@! TO.N,Net-(J8-Pad18)*
X220300000Y-67200000D03*
G04 #@! TO.P,J8,19,Pin_19*
G04 #@! TO.N,Net-(J8-Pad19)*
X220300000Y-69200000D03*
G04 #@! TO.P,J8,20,Pin_20*
G04 #@! TO.N,Net-(J8-Pad20)*
X220300000Y-71200000D03*
G04 #@! TO.P,J8,21,Pin_21*
G04 #@! TO.N,Net-(J8-Pad21)*
X220300000Y-73200000D03*
G04 #@! TO.P,J8,22,Pin_22*
G04 #@! TO.N,Net-(J8-Pad22)*
X220300000Y-75200000D03*
G04 #@! TO.P,J8,23,Pin_23*
G04 #@! TO.N,Net-(J8-Pad23)*
X220300000Y-77200000D03*
G04 #@! TO.P,J8,24,Pin_24*
G04 #@! TO.N,Net-(J8-Pad24)*
X220300000Y-79200000D03*
G04 #@! TO.P,J8,25,Pin_25*
G04 #@! TO.N,Net-(J8-Pad25)*
X220300000Y-81200000D03*
G04 #@! TO.P,J8,26,Pin_26*
G04 #@! TO.N,Net-(J8-Pad26)*
X220300000Y-83200000D03*
G04 #@! TO.P,J8,27,Pin_27*
G04 #@! TO.N,Net-(J8-Pad27)*
X220300000Y-85200000D03*
G04 #@! TO.P,J8,28,Pin_28*
G04 #@! TO.N,Net-(J8-Pad28)*
X220300000Y-87200000D03*
G04 #@! TO.P,J8,29,Pin_29*
G04 #@! TO.N,Net-(J8-Pad29)*
X220300000Y-89200000D03*
G04 #@! TO.P,J8,30,Pin_30*
G04 #@! TO.N,unconnected-(J8-Pad30)*
X220300000Y-91200000D03*
G04 #@! TO.P,J8,31,Pin_31*
G04 #@! TO.N,unconnected-(J8-Pad31)*
X220300000Y-93200000D03*
G04 #@! TO.P,J8,32,Pin_32*
G04 #@! TO.N,Net-(J8-Pad32)*
X220300000Y-95200000D03*
G04 #@! TO.P,J8,33,Pin_33*
G04 #@! TO.N,Net-(J8-Pad33)*
X220300000Y-97200000D03*
G04 #@! TO.P,J8,34,Pin_34*
G04 #@! TO.N,Net-(J8-Pad34)*
X220300000Y-99200000D03*
G04 #@! TO.P,J8,35,Pin_35*
G04 #@! TO.N,Net-(J8-Pad35)*
X220300000Y-101200000D03*
G04 #@! TO.P,J8,36,Pin_36*
G04 #@! TO.N,Net-(J8-Pad36)*
X220300000Y-103200000D03*
G04 #@! TO.P,J8,37,Pin_37*
G04 #@! TO.N,Net-(J8-Pad37)*
X220300000Y-105200000D03*
G04 #@! TO.P,J8,38,Pin_38*
G04 #@! TO.N,Net-(J8-Pad38)*
X220300000Y-107200000D03*
G04 #@! TO.P,J8,39,Pin_39*
G04 #@! TO.N,Net-(J8-Pad39)*
X220300000Y-109200000D03*
G04 #@! TO.P,J8,40,Pin_40*
G04 #@! TO.N,Net-(J8-Pad40)*
X220300000Y-111200000D03*
G04 #@! TD*
D18*
G04 #@! TO.P,U5,1,5*
G04 #@! TO.N,Net-(R54-Pad1)*
X161900000Y-50400000D03*
D11*
G04 #@! TO.P,U5,2,1*
G04 #@! TO.N,Net-(R55-Pad1)*
X161900000Y-52940000D03*
G04 #@! TO.P,U5,3,O*
G04 #@! TO.N,Net-(R101-Pad1)*
X161900000Y-55480000D03*
G04 #@! TO.P,U5,4,2*
G04 #@! TO.N,Net-(R51-Pad1)*
X161900000Y-58020000D03*
G04 #@! TO.P,U5,5,6*
G04 #@! TO.N,Net-(R56-Pad1)*
X161900000Y-60560000D03*
G04 #@! TO.P,U5,6,7*
G04 #@! TO.N,Net-(R57-Pad1)*
X161900000Y-63100000D03*
G04 #@! TO.P,U5,7,3*
G04 #@! TO.N,Net-(R52-Pad1)*
X161900000Y-65640000D03*
G04 #@! TO.P,U5,8,VSS*
G04 #@! TO.N,GND*
X161900000Y-68180000D03*
G04 #@! TO.P,U5,9,8*
G04 #@! TO.N,Net-(R58-Pad1)*
X169520000Y-68180000D03*
G04 #@! TO.P,U5,10,4*
G04 #@! TO.N,Net-(R53-Pad1)*
X169520000Y-65640000D03*
G04 #@! TO.P,U5,11,9*
G04 #@! TO.N,Net-(R59-Pad1)*
X169520000Y-63100000D03*
G04 #@! TO.P,U5,12,CARRY_OUT*
G04 #@! TO.N,unconnected-(U5-Pad12)*
X169520000Y-60560000D03*
G04 #@! TO.P,U5,13,CLOCK_INHIBIT*
G04 #@! TO.N,unconnected-(U5-Pad13)*
X169520000Y-58020000D03*
G04 #@! TO.P,U5,14,CLOCK*
G04 #@! TO.N,unconnected-(U5-Pad14)*
X169520000Y-55480000D03*
G04 #@! TO.P,U5,15,RESET*
G04 #@! TO.N,Net-(U5-Pad15)*
X169520000Y-52940000D03*
G04 #@! TO.P,U5,16,VDD*
G04 #@! TO.N,+3V3*
X169520000Y-50400000D03*
G04 #@! TD*
D19*
G04 #@! TO.P,J11,1,Pin_1*
G04 #@! TO.N,Net-(U2-Pad21)*
X134830000Y-113850000D03*
D20*
G04 #@! TO.P,J11,2,Pin_2*
G04 #@! TO.N,Net-(U2-Pad22)*
X134830000Y-116390000D03*
G04 #@! TO.P,J11,3,Pin_3*
G04 #@! TO.N,Net-(U2-Pad25)*
X134830000Y-118930000D03*
G04 #@! TO.P,J11,4,Pin_4*
G04 #@! TO.N,Net-(U2-Pad5)*
X134830000Y-121470000D03*
G04 #@! TD*
D10*
G04 #@! TO.P,R113,1*
G04 #@! TO.N,Net-(J10-Pad4)*
X158400000Y-88400000D03*
D11*
G04 #@! TO.P,R113,2*
G04 #@! TO.N,GND*
X150780000Y-88400000D03*
G04 #@! TD*
D12*
G04 #@! TO.P,Q11,1,E*
G04 #@! TO.N,Net-(Q11-Pad1)*
X200830000Y-150760000D03*
D13*
G04 #@! TO.P,Q11,2,B*
G04 #@! TO.N,Net-(Q1-Pad2)*
X202100000Y-150760000D03*
G04 #@! TO.P,Q11,3,C*
G04 #@! TO.N,Net-(J7-Pad11)*
X203370000Y-150760000D03*
G04 #@! TD*
D14*
G04 #@! TO.P,J4,1,Pin_1*
G04 #@! TO.N,unconnected-(J4-Pad1)*
X104900000Y-28100000D03*
D15*
G04 #@! TO.P,J4,2,Pin_2*
G04 #@! TO.N,Net-(J4-Pad2)*
X106900000Y-28100000D03*
G04 #@! TO.P,J4,3,Pin_3*
G04 #@! TO.N,Net-(J4-Pad3)*
X108900000Y-28100000D03*
G04 #@! TO.P,J4,4,Pin_4*
G04 #@! TO.N,unconnected-(J4-Pad4)*
X110900000Y-28100000D03*
G04 #@! TO.P,J4,5,Pin_5*
G04 #@! TO.N,unconnected-(J4-Pad5)*
X112900000Y-28100000D03*
G04 #@! TO.P,J4,6,Pin_6*
G04 #@! TO.N,Net-(J4-Pad6)*
X114900000Y-28100000D03*
G04 #@! TO.P,J4,7,Pin_7*
G04 #@! TO.N,unconnected-(J4-Pad7)*
X116900000Y-28100000D03*
G04 #@! TO.P,J4,8,Pin_8*
G04 #@! TO.N,unconnected-(J4-Pad8)*
X118900000Y-28100000D03*
G04 #@! TO.P,J4,9,Pin_9*
G04 #@! TO.N,Net-(J4-Pad9)*
X120900000Y-28100000D03*
G04 #@! TO.P,J4,10,Pin_10*
G04 #@! TO.N,unconnected-(J4-Pad10)*
X122900000Y-28100000D03*
G04 #@! TO.P,J4,11,Pin_11*
G04 #@! TO.N,unconnected-(J4-Pad11)*
X124900000Y-28100000D03*
G04 #@! TO.P,J4,12,Pin_12*
G04 #@! TO.N,Net-(J4-Pad12)*
X126900000Y-28100000D03*
G04 #@! TO.P,J4,13,Pin_13*
G04 #@! TO.N,unconnected-(J4-Pad13)*
X128900000Y-28100000D03*
G04 #@! TO.P,J4,14,Pin_14*
G04 #@! TO.N,unconnected-(J4-Pad14)*
X130900000Y-28100000D03*
G04 #@! TO.P,J4,15,Pin_15*
G04 #@! TO.N,Net-(J4-Pad15)*
X132900000Y-28100000D03*
G04 #@! TO.P,J4,16,Pin_16*
G04 #@! TO.N,unconnected-(J4-Pad16)*
X134900000Y-28100000D03*
G04 #@! TO.P,J4,17,Pin_17*
G04 #@! TO.N,unconnected-(J4-Pad17)*
X136900000Y-28100000D03*
G04 #@! TO.P,J4,18,Pin_18*
G04 #@! TO.N,Net-(J4-Pad18)*
X138900000Y-28100000D03*
G04 #@! TO.P,J4,19,Pin_19*
G04 #@! TO.N,unconnected-(J4-Pad19)*
X140900000Y-28100000D03*
G04 #@! TO.P,J4,20,Pin_20*
G04 #@! TO.N,unconnected-(J4-Pad20)*
X142900000Y-28100000D03*
G04 #@! TO.P,J4,21,Pin_21*
G04 #@! TO.N,Net-(J4-Pad21)*
X144900000Y-28100000D03*
G04 #@! TO.P,J4,22,Pin_22*
G04 #@! TO.N,unconnected-(J4-Pad22)*
X146900000Y-28100000D03*
G04 #@! TO.P,J4,23,Pin_23*
G04 #@! TO.N,unconnected-(J4-Pad23)*
X148900000Y-28100000D03*
G04 #@! TO.P,J4,24,Pin_24*
G04 #@! TO.N,Net-(J4-Pad24)*
X150900000Y-28100000D03*
G04 #@! TO.P,J4,25,Pin_25*
G04 #@! TO.N,unconnected-(J4-Pad25)*
X152900000Y-28100000D03*
G04 #@! TO.P,J4,26,Pin_26*
G04 #@! TO.N,unconnected-(J4-Pad26)*
X154900000Y-28100000D03*
G04 #@! TO.P,J4,27,Pin_27*
G04 #@! TO.N,Net-(J4-Pad27)*
X156900000Y-28100000D03*
G04 #@! TO.P,J4,28,Pin_28*
G04 #@! TO.N,unconnected-(J4-Pad28)*
X158900000Y-28100000D03*
G04 #@! TO.P,J4,29,Pin_29*
G04 #@! TO.N,unconnected-(J4-Pad29)*
X160900000Y-28100000D03*
G04 #@! TO.P,J4,30,Pin_30*
G04 #@! TO.N,Net-(J4-Pad30)*
X162900000Y-28100000D03*
G04 #@! TO.P,J4,31,Pin_31*
G04 #@! TO.N,unconnected-(J4-Pad31)*
X164900000Y-28100000D03*
G04 #@! TO.P,J4,32,Pin_32*
G04 #@! TO.N,unconnected-(J4-Pad32)*
X166900000Y-28100000D03*
G04 #@! TO.P,J4,33,Pin_33*
G04 #@! TO.N,Net-(J4-Pad33)*
X168900000Y-28100000D03*
G04 #@! TO.P,J4,34,Pin_34*
G04 #@! TO.N,unconnected-(J4-Pad34)*
X170900000Y-28100000D03*
G04 #@! TO.P,J4,35,Pin_35*
G04 #@! TO.N,unconnected-(J4-Pad35)*
X172900000Y-28100000D03*
G04 #@! TO.P,J4,36,Pin_36*
G04 #@! TO.N,Net-(J4-Pad36)*
X174900000Y-28100000D03*
G04 #@! TO.P,J4,37,Pin_37*
G04 #@! TO.N,unconnected-(J4-Pad37)*
X176900000Y-28100000D03*
G04 #@! TO.P,J4,38,Pin_38*
G04 #@! TO.N,unconnected-(J4-Pad38)*
X178900000Y-28100000D03*
G04 #@! TO.P,J4,39,Pin_39*
G04 #@! TO.N,Net-(J4-Pad39)*
X180900000Y-28100000D03*
G04 #@! TO.P,J4,40,Pin_40*
G04 #@! TO.N,unconnected-(J4-Pad40)*
X182900000Y-28100000D03*
G04 #@! TD*
D12*
G04 #@! TO.P,Q8,1,E*
G04 #@! TO.N,GND*
X142700000Y-59200000D03*
D13*
G04 #@! TO.P,Q8,2,B*
G04 #@! TO.N,Net-(Q18-Pad2)*
X143970000Y-59200000D03*
G04 #@! TO.P,Q8,3,C*
G04 #@! TO.N,Net-(J2-Pad31)*
X145240000Y-59200000D03*
G04 #@! TD*
D12*
G04 #@! TO.P,Q31,1,E*
G04 #@! TO.N,Net-(Q22-Pad1)*
X116030000Y-34260000D03*
D13*
G04 #@! TO.P,Q31,2,B*
G04 #@! TO.N,Net-(Q20-Pad2)*
X117300000Y-34260000D03*
G04 #@! TO.P,Q31,3,C*
G04 #@! TO.N,Net-(J4-Pad2)*
X118570000Y-34260000D03*
G04 #@! TD*
D12*
G04 #@! TO.P,Q25,1,E*
G04 #@! TO.N,Net-(Q22-Pad1)*
X131530000Y-34060000D03*
D13*
G04 #@! TO.P,Q25,2,B*
G04 #@! TO.N,Net-(Q14-Pad2)*
X132800000Y-34060000D03*
G04 #@! TO.P,Q25,3,C*
G04 #@! TO.N,Net-(J4-Pad15)*
X134070000Y-34060000D03*
G04 #@! TD*
D18*
G04 #@! TO.P,U6,1,5*
G04 #@! TO.N,Net-(J9-Pad20)*
X196900000Y-59475000D03*
D11*
G04 #@! TO.P,U6,2,1*
G04 #@! TO.N,Net-(J9-Pad18)*
X196900000Y-56935000D03*
G04 #@! TO.P,U6,3,O*
G04 #@! TO.N,Net-(J8-Pad4)*
X196900000Y-54395000D03*
G04 #@! TO.P,U6,4,2*
G04 #@! TO.N,Net-(J8-Pad3)*
X196900000Y-51855000D03*
G04 #@! TO.P,U6,5,6*
G04 #@! TO.N,Net-(J9-Pad17)*
X196900000Y-49315000D03*
G04 #@! TO.P,U6,6,7*
G04 #@! TO.N,Net-(J8-Pad1)*
X196900000Y-46775000D03*
G04 #@! TO.P,U6,7,3*
G04 #@! TO.N,Net-(J9-Pad19)*
X196900000Y-44235000D03*
G04 #@! TO.P,U6,8,VSS*
G04 #@! TO.N,GND*
X196900000Y-41695000D03*
G04 #@! TO.P,U6,9,8*
G04 #@! TO.N,Net-(R60-Pad1)*
X189280000Y-41695000D03*
G04 #@! TO.P,U6,10,4*
G04 #@! TO.N,Net-(J8-Pad2)*
X189280000Y-44235000D03*
G04 #@! TO.P,U6,11,9*
G04 #@! TO.N,Net-(R112-Pad1)*
X189280000Y-46775000D03*
G04 #@! TO.P,U6,12,CARRY_OUT*
G04 #@! TO.N,unconnected-(U6-Pad12)*
X189280000Y-49315000D03*
G04 #@! TO.P,U6,13,CLOCK_INHIBIT*
G04 #@! TO.N,unconnected-(U6-Pad13)*
X189280000Y-51855000D03*
G04 #@! TO.P,U6,14,CLOCK*
G04 #@! TO.N,Net-(U2-Pad35)*
X189280000Y-54395000D03*
G04 #@! TO.P,U6,15,RESET*
G04 #@! TO.N,Net-(U2-Pad34)*
X189280000Y-56935000D03*
G04 #@! TO.P,U6,16,VDD*
G04 #@! TO.N,+3V3*
X189280000Y-59475000D03*
G04 #@! TD*
D12*
G04 #@! TO.P,Q18,1,E*
G04 #@! TO.N,Net-(Q11-Pad1)*
X166230000Y-34260000D03*
D13*
G04 #@! TO.P,Q18,2,B*
G04 #@! TO.N,Net-(Q18-Pad2)*
X167500000Y-34260000D03*
G04 #@! TO.P,Q18,3,C*
G04 #@! TO.N,Net-(J4-Pad33)*
X168770000Y-34260000D03*
G04 #@! TD*
D10*
G04 #@! TO.P,R60,1*
G04 #@! TO.N,Net-(R60-Pad1)*
X186410000Y-41400000D03*
D11*
G04 #@! TO.P,R60,2*
G04 #@! TO.N,Net-(Q21-Pad2)*
X178790000Y-41400000D03*
G04 #@! TD*
D12*
G04 #@! TO.P,Q7,1,E*
G04 #@! TO.N,GND*
X122800000Y-151500000D03*
D13*
G04 #@! TO.P,Q7,2,B*
G04 #@! TO.N,Net-(Q15-Pad2)*
X124070000Y-151500000D03*
G04 #@! TO.P,Q7,3,C*
G04 #@! TO.N,Net-(J3-Pad19)*
X125340000Y-151500000D03*
G04 #@! TD*
D10*
G04 #@! TO.P,R52,1*
G04 #@! TO.N,Net-(R52-Pad1)*
X158110000Y-69700000D03*
D11*
G04 #@! TO.P,R52,2*
G04 #@! TO.N,Net-(Q17-Pad2)*
X150490000Y-69700000D03*
G04 #@! TD*
D12*
G04 #@! TO.P,Q23,1,E*
G04 #@! TO.N,Net-(Q22-Pad1)*
X141830000Y-34000000D03*
D13*
G04 #@! TO.P,Q23,2,B*
G04 #@! TO.N,Net-(Q12-Pad2)*
X143100000Y-34000000D03*
G04 #@! TO.P,Q23,3,C*
G04 #@! TO.N,Net-(J4-Pad21)*
X144370000Y-34000000D03*
G04 #@! TD*
D12*
G04 #@! TO.P,Q15,1,E*
G04 #@! TO.N,Net-(Q11-Pad1)*
X185230000Y-34260000D03*
D13*
G04 #@! TO.P,Q15,2,B*
G04 #@! TO.N,Net-(Q15-Pad2)*
X186500000Y-34260000D03*
G04 #@! TO.P,Q15,3,C*
G04 #@! TO.N,Net-(J6-Pad2)*
X187770000Y-34260000D03*
G04 #@! TD*
D10*
G04 #@! TO.P,R112,1*
G04 #@! TO.N,Net-(R112-Pad1)*
X186410000Y-45800000D03*
D11*
G04 #@! TO.P,R112,2*
G04 #@! TO.N,Net-(Q32-Pad2)*
X178790000Y-45800000D03*
G04 #@! TD*
D12*
G04 #@! TO.P,Q21,1,E*
G04 #@! TO.N,GND*
X171830000Y-41260000D03*
D13*
G04 #@! TO.P,Q21,2,B*
G04 #@! TO.N,Net-(Q21-Pad2)*
X173100000Y-41260000D03*
G04 #@! TO.P,Q21,3,C*
G04 #@! TO.N,Net-(Q11-Pad1)*
X174370000Y-41260000D03*
G04 #@! TD*
D10*
G04 #@! TO.P,R53,1*
G04 #@! TO.N,Net-(R53-Pad1)*
X173200000Y-64800000D03*
D11*
G04 #@! TO.P,R53,2*
G04 #@! TO.N,Net-(Q10-Pad2)*
X180820000Y-64800000D03*
G04 #@! TD*
D14*
G04 #@! TO.P,J2,1,Pin_1*
G04 #@! TO.N,Net-(J2-Pad1)*
X91300000Y-33200000D03*
D15*
G04 #@! TO.P,J2,2,Pin_2*
G04 #@! TO.N,Net-(J2-Pad2)*
X91300000Y-35200000D03*
G04 #@! TO.P,J2,3,Pin_3*
G04 #@! TO.N,Net-(J2-Pad3)*
X91300000Y-37200000D03*
G04 #@! TO.P,J2,4,Pin_4*
G04 #@! TO.N,Net-(J2-Pad4)*
X91300000Y-39200000D03*
G04 #@! TO.P,J2,5,Pin_5*
G04 #@! TO.N,Net-(J2-Pad5)*
X91300000Y-41200000D03*
G04 #@! TO.P,J2,6,Pin_6*
G04 #@! TO.N,Net-(J2-Pad6)*
X91300000Y-43200000D03*
G04 #@! TO.P,J2,7,Pin_7*
G04 #@! TO.N,Net-(J2-Pad7)*
X91300000Y-45200000D03*
G04 #@! TO.P,J2,8,Pin_8*
G04 #@! TO.N,Net-(J2-Pad8)*
X91300000Y-47200000D03*
G04 #@! TO.P,J2,9,Pin_9*
G04 #@! TO.N,Net-(J2-Pad9)*
X91300000Y-49200000D03*
G04 #@! TO.P,J2,10,Pin_10*
G04 #@! TO.N,Net-(J2-Pad10)*
X91300000Y-51200000D03*
G04 #@! TO.P,J2,11,Pin_11*
G04 #@! TO.N,Net-(J2-Pad11)*
X91300000Y-53200000D03*
G04 #@! TO.P,J2,12,Pin_12*
G04 #@! TO.N,Net-(J2-Pad12)*
X91300000Y-55200000D03*
G04 #@! TO.P,J2,13,Pin_13*
G04 #@! TO.N,Net-(J2-Pad13)*
X91300000Y-57200000D03*
G04 #@! TO.P,J2,14,Pin_14*
G04 #@! TO.N,Net-(J2-Pad14)*
X91300000Y-59200000D03*
G04 #@! TO.P,J2,15,Pin_15*
G04 #@! TO.N,Net-(J2-Pad15)*
X91300000Y-61200000D03*
G04 #@! TO.P,J2,16,Pin_16*
G04 #@! TO.N,Net-(J2-Pad16)*
X91300000Y-63200000D03*
G04 #@! TO.P,J2,17,Pin_17*
G04 #@! TO.N,Net-(J2-Pad17)*
X91300000Y-65200000D03*
G04 #@! TO.P,J2,18,Pin_18*
G04 #@! TO.N,Net-(J2-Pad18)*
X91300000Y-67200000D03*
G04 #@! TO.P,J2,19,Pin_19*
G04 #@! TO.N,Net-(J2-Pad19)*
X91300000Y-69200000D03*
G04 #@! TO.P,J2,20,Pin_20*
G04 #@! TO.N,Net-(J2-Pad20)*
X91300000Y-71200000D03*
G04 #@! TO.P,J2,21,Pin_21*
G04 #@! TO.N,Net-(J2-Pad21)*
X91300000Y-73200000D03*
G04 #@! TO.P,J2,22,Pin_22*
G04 #@! TO.N,Net-(J2-Pad22)*
X91300000Y-75200000D03*
G04 #@! TO.P,J2,23,Pin_23*
G04 #@! TO.N,Net-(J2-Pad23)*
X91300000Y-77200000D03*
G04 #@! TO.P,J2,24,Pin_24*
G04 #@! TO.N,Net-(J2-Pad24)*
X91300000Y-79200000D03*
G04 #@! TO.P,J2,25,Pin_25*
G04 #@! TO.N,Net-(J2-Pad25)*
X91300000Y-81200000D03*
G04 #@! TO.P,J2,26,Pin_26*
G04 #@! TO.N,Net-(J2-Pad26)*
X91300000Y-83200000D03*
G04 #@! TO.P,J2,27,Pin_27*
G04 #@! TO.N,Net-(J2-Pad27)*
X91300000Y-85200000D03*
G04 #@! TO.P,J2,28,Pin_28*
G04 #@! TO.N,Net-(J2-Pad28)*
X91300000Y-87200000D03*
G04 #@! TO.P,J2,29,Pin_29*
G04 #@! TO.N,Net-(J2-Pad29)*
X91300000Y-89200000D03*
G04 #@! TO.P,J2,30,Pin_30*
G04 #@! TO.N,Net-(J2-Pad30)*
X91300000Y-91200000D03*
G04 #@! TO.P,J2,31,Pin_31*
G04 #@! TO.N,Net-(J2-Pad31)*
X91300000Y-93200000D03*
G04 #@! TO.P,J2,32,Pin_32*
G04 #@! TO.N,Net-(J2-Pad32)*
X91300000Y-95200000D03*
G04 #@! TO.P,J2,33,Pin_33*
G04 #@! TO.N,Net-(J2-Pad33)*
X91300000Y-97200000D03*
G04 #@! TO.P,J2,34,Pin_34*
G04 #@! TO.N,Net-(J2-Pad34)*
X91300000Y-99200000D03*
G04 #@! TO.P,J2,35,Pin_35*
G04 #@! TO.N,Net-(J2-Pad35)*
X91300000Y-101200000D03*
G04 #@! TO.P,J2,36,Pin_36*
G04 #@! TO.N,Net-(J2-Pad36)*
X91300000Y-103200000D03*
G04 #@! TO.P,J2,37,Pin_37*
G04 #@! TO.N,Net-(J2-Pad37)*
X91300000Y-105200000D03*
G04 #@! TO.P,J2,38,Pin_38*
G04 #@! TO.N,Net-(J2-Pad38)*
X91300000Y-107200000D03*
G04 #@! TO.P,J2,39,Pin_39*
G04 #@! TO.N,Net-(J2-Pad39)*
X91300000Y-109200000D03*
G04 #@! TO.P,J2,40,Pin_40*
G04 #@! TO.N,Net-(J2-Pad40)*
X91300000Y-111200000D03*
G04 #@! TD*
D12*
G04 #@! TO.P,Q24,1,E*
G04 #@! TO.N,Net-(Q22-Pad1)*
X142600000Y-65500000D03*
D13*
G04 #@! TO.P,Q24,2,B*
G04 #@! TO.N,Net-(Q13-Pad2)*
X143870000Y-65500000D03*
G04 #@! TO.P,Q24,3,C*
G04 #@! TO.N,Net-(J4-Pad18)*
X145140000Y-65500000D03*
G04 #@! TD*
D12*
G04 #@! TO.P,Q17,1,E*
G04 #@! TO.N,Net-(Q11-Pad1)*
X172430000Y-34260000D03*
D13*
G04 #@! TO.P,Q17,2,B*
G04 #@! TO.N,Net-(Q17-Pad2)*
X173700000Y-34260000D03*
G04 #@! TO.P,Q17,3,C*
G04 #@! TO.N,Net-(J4-Pad36)*
X174970000Y-34260000D03*
G04 #@! TD*
D10*
G04 #@! TO.P,R59,1*
G04 #@! TO.N,Net-(R59-Pad1)*
X173190000Y-61500000D03*
D11*
G04 #@! TO.P,R59,2*
G04 #@! TO.N,Net-(Q1-Pad2)*
X180810000Y-61500000D03*
G04 #@! TD*
D10*
G04 #@! TO.P,C2,1*
G04 #@! TO.N,+3V3*
X212350000Y-91900000D03*
G04 #@! TO.P,C2,2*
G04 #@! TO.N,GND*
X214850000Y-91900000D03*
G04 #@! TD*
D12*
G04 #@! TO.P,Q6,1,E*
G04 #@! TO.N,GND*
X114530000Y-49260000D03*
D13*
G04 #@! TO.P,Q6,2,B*
G04 #@! TO.N,Net-(Q19-Pad2)*
X115800000Y-49260000D03*
G04 #@! TO.P,Q6,3,C*
G04 #@! TO.N,Net-(J2-Pad2)*
X117070000Y-49260000D03*
G04 #@! TD*
D12*
G04 #@! TO.P,Q13,1,E*
G04 #@! TO.N,Net-(Q11-Pad1)*
X197130000Y-34360000D03*
D13*
G04 #@! TO.P,Q13,2,B*
G04 #@! TO.N,Net-(Q13-Pad2)*
X198400000Y-34360000D03*
G04 #@! TO.P,Q13,3,C*
G04 #@! TO.N,Net-(J6-Pad8)*
X199670000Y-34360000D03*
G04 #@! TD*
D12*
G04 #@! TO.P,Q3,1,E*
G04 #@! TO.N,GND*
X115300000Y-151600000D03*
D13*
G04 #@! TO.P,Q3,2,B*
G04 #@! TO.N,Net-(Q13-Pad2)*
X116570000Y-151600000D03*
G04 #@! TO.P,Q3,3,C*
G04 #@! TO.N,Net-(J3-Pad18)*
X117840000Y-151600000D03*
G04 #@! TD*
D12*
G04 #@! TO.P,Q2,1,E*
G04 #@! TO.N,GND*
X156730000Y-41260000D03*
D13*
G04 #@! TO.P,Q2,2,B*
G04 #@! TO.N,Net-(Q12-Pad2)*
X158000000Y-41260000D03*
G04 #@! TO.P,Q2,3,C*
G04 #@! TO.N,Net-(J2-Pad4)*
X159270000Y-41260000D03*
G04 #@! TD*
D12*
G04 #@! TO.P,Q20,1,E*
G04 #@! TO.N,Net-(Q11-Pad1)*
X164030000Y-41260000D03*
D13*
G04 #@! TO.P,Q20,2,B*
G04 #@! TO.N,Net-(Q20-Pad2)*
X165300000Y-41260000D03*
G04 #@! TO.P,Q20,3,C*
G04 #@! TO.N,Net-(J4-Pad27)*
X166570000Y-41260000D03*
G04 #@! TD*
D12*
G04 #@! TO.P,Q14,1,E*
G04 #@! TO.N,Net-(Q11-Pad1)*
X191030000Y-34260000D03*
D13*
G04 #@! TO.P,Q14,2,B*
G04 #@! TO.N,Net-(Q14-Pad2)*
X192300000Y-34260000D03*
G04 #@! TO.P,Q14,3,C*
G04 #@! TO.N,Net-(J6-Pad5)*
X193570000Y-34260000D03*
G04 #@! TD*
D10*
G04 #@! TO.P,R51,1*
G04 #@! TO.N,Net-(R51-Pad1)*
X158210000Y-59400000D03*
D11*
G04 #@! TO.P,R51,2*
G04 #@! TO.N,Net-(Q18-Pad2)*
X150590000Y-59400000D03*
G04 #@! TD*
D12*
G04 #@! TO.P,Q1,1,E*
G04 #@! TO.N,GND*
X97200000Y-151300000D03*
D13*
G04 #@! TO.P,Q1,2,B*
G04 #@! TO.N,Net-(Q1-Pad2)*
X98470000Y-151300000D03*
G04 #@! TO.P,Q1,3,C*
G04 #@! TO.N,Net-(J3-Pad20)*
X99740000Y-151300000D03*
G04 #@! TD*
D12*
G04 #@! TO.P,Q5,1,E*
G04 #@! TO.N,GND*
X121930000Y-41960000D03*
D13*
G04 #@! TO.P,Q5,2,B*
G04 #@! TO.N,Net-(Q14-Pad2)*
X123200000Y-41960000D03*
G04 #@! TO.P,Q5,3,C*
G04 #@! TO.N,Net-(J2-Pad1)*
X124470000Y-41960000D03*
G04 #@! TD*
D21*
G04 #@! TO.P,U2,1,3V3*
G04 #@! TO.N,+3V3*
X166900000Y-107470000D03*
D22*
G04 #@! TO.P,U2,2,EN*
G04 #@! TO.N,unconnected-(U2-Pad2)*
X166900000Y-110010000D03*
G04 #@! TO.P,U2,3,SENSOR_VP*
G04 #@! TO.N,unconnected-(U2-Pad3)*
X166900000Y-112550000D03*
G04 #@! TO.P,U2,4,SENSOR_VN*
G04 #@! TO.N,unconnected-(U2-Pad4)*
X166900000Y-115090000D03*
G04 #@! TO.P,U2,5,IO34*
G04 #@! TO.N,Net-(U2-Pad5)*
X166900000Y-117630000D03*
G04 #@! TO.P,U2,6,IO35*
G04 #@! TO.N,Net-(U1-Pad86)*
X166900000Y-120170000D03*
G04 #@! TO.P,U2,7,IO32*
G04 #@! TO.N,Net-(U1-Pad89)*
X166900000Y-122710000D03*
G04 #@! TO.P,U2,8,IO33*
G04 #@! TO.N,Net-(U1-Pad90)*
X166900000Y-125250000D03*
G04 #@! TO.P,U2,9,IO25*
G04 #@! TO.N,Net-(U1-Pad84)*
X166900000Y-127790000D03*
G04 #@! TO.P,U2,10,IO26*
G04 #@! TO.N,Net-(U1-Pad92)*
X166900000Y-130330000D03*
G04 #@! TO.P,U2,11,IO27*
G04 #@! TO.N,Net-(U1-Pad91)*
X166900000Y-132870000D03*
G04 #@! TO.P,U2,12,IO14*
G04 #@! TO.N,Net-(U1-Pad87)*
X166900000Y-135410000D03*
G04 #@! TO.P,U2,13,IO12*
G04 #@! TO.N,Net-(U5-Pad15)*
X166900000Y-137950000D03*
G04 #@! TO.P,U2,14,GND1*
G04 #@! TO.N,unconnected-(U2-Pad14)*
X166900000Y-140490000D03*
G04 #@! TO.P,U2,15,IO13*
G04 #@! TO.N,unconnected-(U2-Pad15)*
X166900000Y-143030000D03*
G04 #@! TO.P,U2,16,SD2*
G04 #@! TO.N,unconnected-(U2-Pad16)*
X166900000Y-145570000D03*
G04 #@! TO.P,U2,17,SD3*
G04 #@! TO.N,unconnected-(U2-Pad17)*
X166900000Y-148110000D03*
G04 #@! TO.P,U2,18,CMD*
G04 #@! TO.N,unconnected-(U2-Pad18)*
X166900000Y-150650000D03*
G04 #@! TO.P,U2,19,EXT_5V*
G04 #@! TO.N,+5V*
X166900000Y-153190000D03*
G04 #@! TO.P,U2,20,GND3*
G04 #@! TO.N,GND*
X141500000Y-107470000D03*
G04 #@! TO.P,U2,21,IO23*
G04 #@! TO.N,Net-(U2-Pad21)*
X141500000Y-110010000D03*
G04 #@! TO.P,U2,22,IO22*
G04 #@! TO.N,Net-(U2-Pad22)*
X141500000Y-112550000D03*
G04 #@! TO.P,U2,23,TXD0*
G04 #@! TO.N,unconnected-(U2-Pad23)*
X141500000Y-115090000D03*
G04 #@! TO.P,U2,24,RXD0*
G04 #@! TO.N,unconnected-(U2-Pad24)*
X141500000Y-117630000D03*
G04 #@! TO.P,U2,25,IO21*
G04 #@! TO.N,Net-(U2-Pad25)*
X141500000Y-120170000D03*
G04 #@! TO.P,U2,26,GND2*
G04 #@! TO.N,unconnected-(U2-Pad26)*
X141500000Y-122710000D03*
G04 #@! TO.P,U2,27,IO19*
G04 #@! TO.N,Net-(U2-Pad27)*
X141500000Y-125250000D03*
G04 #@! TO.P,U2,28,IO18*
G04 #@! TO.N,Net-(U2-Pad28)*
X141500000Y-127790000D03*
G04 #@! TO.P,U2,29,IO5*
G04 #@! TO.N,Net-(U2-Pad29)*
X141500000Y-130330000D03*
G04 #@! TO.P,U2,30,IO17*
G04 #@! TO.N,Net-(U2-Pad30)*
X141500000Y-132870000D03*
G04 #@! TO.P,U2,31,IO16*
G04 #@! TO.N,Net-(U2-Pad31)*
X141500000Y-135410000D03*
G04 #@! TO.P,U2,32,IO4*
G04 #@! TO.N,Net-(U2-Pad32)*
X141500000Y-137950000D03*
G04 #@! TO.P,U2,33,IO0*
G04 #@! TO.N,Net-(U2-Pad33)*
X141500000Y-140490000D03*
G04 #@! TO.P,U2,34,IO2*
G04 #@! TO.N,Net-(U2-Pad34)*
X141500000Y-143030000D03*
G04 #@! TO.P,U2,35,IO15*
G04 #@! TO.N,Net-(U2-Pad35)*
X141500000Y-145570000D03*
G04 #@! TO.P,U2,36,SD1*
G04 #@! TO.N,unconnected-(U2-Pad36)*
X141500000Y-148110000D03*
G04 #@! TO.P,U2,37,SD0*
G04 #@! TO.N,unconnected-(U2-Pad37)*
X141500000Y-150650000D03*
G04 #@! TO.P,U2,38,CLK*
G04 #@! TO.N,unconnected-(U2-Pad38)*
X141500000Y-153190000D03*
G04 #@! TD*
D23*
G04 #@! TO.P,U4,1,Vin*
G04 #@! TO.N,Net-(J1-Pad1)*
X182700000Y-131600000D03*
D24*
G04 #@! TO.P,U4,2,GND*
G04 #@! TO.N,GND*
X180160000Y-131600000D03*
G04 #@! TO.P,U4,3,Vout*
G04 #@! TO.N,+5V*
X177620000Y-131600000D03*
G04 #@! TD*
D19*
G04 #@! TO.P,J10,1,Pin_1*
G04 #@! TO.N,Net-(J1-Pad1)*
X158200000Y-83300000D03*
D20*
G04 #@! TO.P,J10,2,Pin_2*
G04 #@! TO.N,GND*
X155660000Y-83300000D03*
G04 #@! TO.P,J10,3,Pin_3*
G04 #@! TO.N,Net-(J10-Pad3)*
X153120000Y-83300000D03*
G04 #@! TO.P,J10,4,Pin_4*
G04 #@! TO.N,Net-(J10-Pad4)*
X150580000Y-83300000D03*
G04 #@! TO.P,J10,5,Pin_5*
G04 #@! TO.N,GND*
X148040000Y-83300000D03*
G04 #@! TD*
D25*
G04 #@! TO.P,J1,1*
G04 #@! TO.N,Net-(J1-Pad1)*
X180857500Y-139300000D03*
D26*
G04 #@! TO.P,J1,2*
G04 #@! TO.N,GND*
X180857500Y-145300000D03*
D27*
G04 #@! TO.P,J1,3*
G04 #@! TO.N,unconnected-(J1-Pad3)*
X176157500Y-142300000D03*
G04 #@! TD*
D28*
G04 #@! TO.N,Net-(R69-Pad2)*
X207200000Y-57200000D03*
X214000000Y-57200000D03*
G04 #@! TO.N,Net-(R81-Pad2)*
X189900000Y-79300000D03*
X213400000Y-81400000D03*
G04 #@! TO.N,Net-(R86-Pad2)*
X172800000Y-95100000D03*
X215400000Y-95100000D03*
G04 #@! TO.N,Net-(R64-Pad2)*
X215100000Y-47200000D03*
X209500000Y-47300000D03*
G04 #@! TO.N,+3V3*
X202700000Y-96000000D03*
X162430000Y-96060000D03*
X167860000Y-96880000D03*
X172200000Y-58700000D03*
X209900000Y-90100000D03*
X213500000Y-64000000D03*
X166100000Y-50600000D03*
X211600000Y-96100000D03*
X145690000Y-94970000D03*
X188100000Y-65500000D03*
X201600000Y-66000000D03*
D29*
G04 #@! TO.N,GND*
X115300000Y-149200000D03*
X194700000Y-51900000D03*
X194700000Y-47500000D03*
X129700000Y-149500000D03*
X156500000Y-54300000D03*
D28*
X132900000Y-91300000D03*
X172570000Y-92370000D03*
D29*
X97200000Y-149200000D03*
X140400000Y-90200000D03*
X139500000Y-126000000D03*
X142600000Y-90500000D03*
X161900000Y-76200000D03*
X142600000Y-78000000D03*
X122700000Y-149500000D03*
X205800000Y-91800000D03*
X209900000Y-91600000D03*
X167300000Y-76100000D03*
X181600000Y-93800000D03*
X121600000Y-52700000D03*
D28*
X132700000Y-99400000D03*
D29*
X181700000Y-76200000D03*
X114500000Y-52500000D03*
X129700000Y-126000000D03*
D28*
X169170000Y-93660000D03*
G04 #@! TO.N,Net-(J2-Pad1)*
X103900000Y-49700000D03*
X125100000Y-47200000D03*
G04 #@! TO.N,Net-(J2-Pad2)*
X105700000Y-50900000D03*
G04 #@! TO.N,Net-(J2-Pad3)*
X106700000Y-52500000D03*
G04 #@! TO.N,Net-(J2-Pad4)*
X96900000Y-40000000D03*
X110700000Y-46000000D03*
X137300000Y-46000000D03*
X137300000Y-41600000D03*
G04 #@! TO.N,Net-(J2-Pad30)*
X110700000Y-54000000D03*
G04 #@! TO.N,Net-(J2-Pad31)*
X145200000Y-56800000D03*
X112100000Y-55400000D03*
G04 #@! TO.N,Net-(J3-Pad17)*
X132200000Y-145900000D03*
G04 #@! TO.N,Net-(J3-Pad18)*
X112800000Y-148100000D03*
X112700000Y-154100000D03*
G04 #@! TO.N,Net-(J3-Pad19)*
X94400000Y-155200000D03*
X94300000Y-149300000D03*
G04 #@! TO.N,Net-(J4-Pad2)*
X118600000Y-31700000D03*
X107000000Y-31700000D03*
G04 #@! TO.N,Net-(J4-Pad3)*
X116600000Y-38500000D03*
X114400000Y-38500000D03*
X108900000Y-30400000D03*
X115900000Y-30500000D03*
G04 #@! TO.N,Net-(J4-Pad9)*
X124300000Y-30800000D03*
X120800000Y-30800000D03*
G04 #@! TO.N,Net-(J4-Pad12)*
X145100000Y-43400000D03*
X128100000Y-43400000D03*
G04 #@! TO.N,Net-(J4-Pad18)*
X147400000Y-38600000D03*
X138900000Y-38300000D03*
G04 #@! TO.N,Net-(J4-Pad27)*
X164400000Y-31000000D03*
X156900000Y-31000000D03*
G04 #@! TO.N,Net-(J6-Pad11)*
X200200000Y-69400000D03*
G04 #@! TO.N,Net-(J8-Pad1)*
X204500000Y-46900000D03*
X204400000Y-33100000D03*
G04 #@! TO.N,Net-(J8-Pad2)*
X192200000Y-44400000D03*
X192000000Y-37700000D03*
G04 #@! TO.N,Net-(J8-Pad3)*
X202800000Y-39200000D03*
X203200000Y-51900000D03*
G04 #@! TO.N,Net-(J8-Pad4)*
X201400000Y-54400000D03*
X201300000Y-41200000D03*
G04 #@! TO.N,Net-(J9-Pad17)*
X205700000Y-145100000D03*
X209300000Y-84600000D03*
G04 #@! TO.N,Net-(J9-Pad18)*
X211500000Y-84700000D03*
G04 #@! TO.N,Net-(J9-Pad19)*
X184500000Y-39200000D03*
G04 #@! TO.N,Net-(J9-Pad20)*
X190200000Y-63100000D03*
X207300000Y-84500000D03*
G04 #@! TO.N,Net-(J10-Pad3)*
X181100000Y-98000000D03*
X132600000Y-82100000D03*
X163600000Y-86300000D03*
X204000000Y-90300000D03*
X110400000Y-97200000D03*
X209500000Y-102300000D03*
X199500000Y-102200000D03*
X208800000Y-90600000D03*
X162720000Y-98030000D03*
X172900000Y-98000000D03*
G04 #@! TO.N,Net-(Q1-Pad2)*
X183600000Y-65700000D03*
X98300000Y-154675500D03*
X128900000Y-154500000D03*
X146500000Y-44600000D03*
X180800000Y-44100000D03*
X108400000Y-154300000D03*
G04 #@! TO.N,Net-(Q12-Pad2)*
X158000000Y-39000000D03*
X144300000Y-40000000D03*
X178700000Y-48700000D03*
X158200000Y-46000000D03*
G04 #@! TO.N,Net-(Q13-Pad2)*
X116700000Y-148000000D03*
X198400000Y-32800000D03*
X122800000Y-148000000D03*
X135100000Y-68100000D03*
X153300000Y-32900000D03*
G04 #@! TO.N,Net-(Q20-Pad2)*
X145300000Y-55100000D03*
X142300000Y-49700000D03*
X165300000Y-43900000D03*
X148800000Y-44000000D03*
X119700000Y-49200000D03*
G04 #@! TO.N,Net-(Q14-Pad2)*
X192200000Y-30400000D03*
X155300000Y-62800000D03*
X123200000Y-38200000D03*
X155100000Y-30000000D03*
X132800000Y-38100000D03*
X123300000Y-61500000D03*
G04 #@! TO.N,Net-(Q19-Pad2)*
X121200000Y-146800000D03*
X162000000Y-39600000D03*
X148890000Y-50700000D03*
X105700000Y-147400000D03*
X150400000Y-42700000D03*
X133800000Y-50700000D03*
G04 #@! TO.N,Net-(Q15-Pad2)*
X168800000Y-47500000D03*
X186500000Y-37400000D03*
X136500000Y-48700000D03*
X169800000Y-38900000D03*
X143700000Y-48700000D03*
G04 #@! TO.N,Net-(Q18-Pad2)*
X114600000Y-57700000D03*
X115500000Y-44200000D03*
X151100000Y-37600000D03*
X112100000Y-44300000D03*
X167400000Y-38800000D03*
G04 #@! TO.N,Net-(Q17-Pad2)*
X117000000Y-36500000D03*
X154200000Y-36500000D03*
X174300000Y-37200000D03*
G04 #@! TO.N,Net-(Q10-Pad2)*
X179000000Y-70700000D03*
X151600000Y-152100000D03*
X153200000Y-91200000D03*
X180300000Y-31400000D03*
X169575500Y-90500000D03*
G04 #@! TO.N,Net-(Q11-Pad1)*
X186200000Y-48600000D03*
X174300000Y-46100000D03*
X182700000Y-66800000D03*
G04 #@! TO.N,Net-(Q22-Pad1)*
X176900000Y-36000000D03*
X126700000Y-143700000D03*
X104300000Y-144500000D03*
X141830000Y-35670000D03*
X138900000Y-65500000D03*
G04 #@! TO.N,Net-(Q32-Pad2)*
X175700000Y-45900000D03*
G04 #@! TO.N,Net-(R63-Pad2)*
X213800000Y-45000000D03*
X209900000Y-45600000D03*
G04 #@! TO.N,Net-(R65-Pad2)*
X208400000Y-49300000D03*
X213800000Y-49300000D03*
G04 #@! TO.N,Net-(R66-Pad2)*
X215300000Y-51400000D03*
X208500000Y-51400000D03*
G04 #@! TO.N,Net-(R67-Pad2)*
X214000000Y-53400000D03*
X207850000Y-53350000D03*
G04 #@! TO.N,Net-(R68-Pad2)*
X215300000Y-55300000D03*
X207700000Y-55400000D03*
G04 #@! TO.N,Net-(R70-Pad2)*
X206700000Y-59200000D03*
X215200000Y-59100000D03*
G04 #@! TO.N,Net-(R71-Pad2)*
X214000000Y-61000000D03*
X206000000Y-61200000D03*
G04 #@! TO.N,Net-(R72-Pad2)*
X215200000Y-63000000D03*
X205700000Y-63000000D03*
G04 #@! TO.N,Net-(R73-Pad2)*
X205300000Y-65200000D03*
X214200000Y-65100000D03*
G04 #@! TO.N,Net-(R74-Pad2)*
X215200000Y-67100000D03*
X204900000Y-67200000D03*
G04 #@! TO.N,Net-(R75-Pad2)*
X203600000Y-69300000D03*
X213800000Y-69300000D03*
G04 #@! TO.N,Net-(R76-Pad2)*
X215100000Y-71200000D03*
X202100000Y-71200000D03*
G04 #@! TO.N,Net-(R77-Pad2)*
X213900000Y-73200000D03*
X199100000Y-73200000D03*
G04 #@! TO.N,Net-(R78-Pad2)*
X215200000Y-75200000D03*
X195800000Y-75200000D03*
G04 #@! TO.N,Net-(R79-Pad2)*
X214000000Y-77200000D03*
X193800000Y-77100000D03*
G04 #@! TO.N,Net-(R80-Pad2)*
X191500000Y-79200000D03*
X215200000Y-79300000D03*
G04 #@! TO.N,Net-(R82-Pad2)*
X188200000Y-77900000D03*
X214900000Y-83100000D03*
G04 #@! TO.N,Net-(R83-Pad2)*
X213500000Y-85200000D03*
X185000000Y-79300000D03*
G04 #@! TO.N,Net-(R84-Pad2)*
X214900000Y-87200000D03*
X183410000Y-80270000D03*
G04 #@! TO.N,Net-(R85-Pad2)*
X213600000Y-89100000D03*
X185000000Y-82100000D03*
G04 #@! TO.N,Net-(R87-Pad2)*
X174000000Y-96900000D03*
X213800000Y-97000000D03*
G04 #@! TO.N,Net-(R88-Pad2)*
X175200000Y-99300000D03*
X215240000Y-99240000D03*
G04 #@! TO.N,Net-(R89-Pad2)*
X213840000Y-101240000D03*
X176400000Y-101100000D03*
G04 #@! TO.N,Net-(R90-Pad2)*
X215100000Y-103200000D03*
X177700000Y-103300000D03*
G04 #@! TO.N,Net-(R91-Pad2)*
X213700000Y-105300000D03*
X179000000Y-105300000D03*
G04 #@! TO.N,Net-(R92-Pad2)*
X180200000Y-107500000D03*
X215240000Y-107240000D03*
G04 #@! TO.N,Net-(R93-Pad2)*
X213600000Y-109200000D03*
X183600000Y-109200000D03*
G04 #@! TO.N,Net-(R94-Pad2)*
X186900000Y-111300000D03*
X215200000Y-111300000D03*
G04 #@! TO.N,Net-(R95-Pad2)*
X189900000Y-113400000D03*
X213800000Y-113300000D03*
G04 #@! TO.N,Net-(R96-Pad2)*
X190200000Y-115400000D03*
X215300000Y-115500000D03*
G04 #@! TO.N,Net-(R97-Pad2)*
X190500000Y-117200000D03*
X213700000Y-117200000D03*
G04 #@! TO.N,Net-(R98-Pad2)*
X215100000Y-119300000D03*
X191400000Y-119300000D03*
G04 #@! TO.N,Net-(R99-Pad2)*
X192200000Y-121200000D03*
X213800000Y-121200000D03*
G04 #@! TO.N,Net-(R100-Pad2)*
X192600000Y-123200000D03*
X215100000Y-123200000D03*
G04 #@! TO.N,Net-(R102-Pad2)*
X213800000Y-125200000D03*
X193100000Y-125100000D03*
G04 #@! TO.N,Net-(R103-Pad2)*
X193700000Y-127000000D03*
X215200000Y-127100000D03*
G04 #@! TO.N,Net-(R104-Pad2)*
X194300000Y-129000000D03*
X213700000Y-129000000D03*
G04 #@! TO.N,Net-(R105-Pad2)*
X194300000Y-131300000D03*
X215100000Y-131300000D03*
G04 #@! TO.N,Net-(R106-Pad2)*
X194800000Y-133400000D03*
X213500000Y-133500000D03*
G04 #@! TO.N,Net-(R107-Pad2)*
X195500000Y-135100000D03*
X215000000Y-135200000D03*
G04 #@! TO.N,Net-(R108-Pad2)*
X213700000Y-137200000D03*
X195700000Y-137200000D03*
G04 #@! TO.N,Net-(R109-Pad2)*
X195800000Y-139300000D03*
X215000000Y-139200000D03*
G04 #@! TO.N,Net-(R110-Pad2)*
X196700000Y-141400000D03*
X213700000Y-141400000D03*
G04 #@! TO.N,Net-(R111-Pad2)*
X214300000Y-143300000D03*
X198500000Y-143200000D03*
G04 #@! TO.N,Net-(R62-Pad2)*
X211000000Y-43400000D03*
X214800000Y-43300000D03*
G04 #@! TO.N,+5V*
X187050000Y-150840000D03*
X186520000Y-128990000D03*
G04 #@! TO.N,Net-(U2-Pad21)*
X135900000Y-110810000D03*
G04 #@! TO.N,Net-(U1-Pad84)*
X146100000Y-100000000D03*
X146020000Y-126830000D03*
G04 #@! TO.N,Net-(U1-Pad86)*
X159100000Y-97700000D03*
X159230000Y-120250000D03*
G04 #@! TO.N,Net-(U1-Pad87)*
X160700000Y-97600000D03*
X160720000Y-135680000D03*
G04 #@! TO.N,Net-(U1-Pad89)*
X162760000Y-102420000D03*
X137770000Y-102420000D03*
X140500000Y-95200000D03*
X140500000Y-98300000D03*
X137710000Y-97960000D03*
X162860000Y-122700000D03*
G04 #@! TO.N,Net-(U1-Pad90)*
X148280000Y-94190000D03*
X147480000Y-125700000D03*
G04 #@! TO.N,Net-(U1-Pad91)*
X148940000Y-93010000D03*
X148730000Y-132750000D03*
G04 #@! TO.N,Net-(U1-Pad92)*
X149980000Y-130030000D03*
X150150000Y-92120000D03*
G04 #@! TO.N,Net-(U5-Pad15)*
X166180000Y-94230000D03*
X157670000Y-94760000D03*
X157780000Y-137480000D03*
G04 #@! TO.N,Net-(U2-Pad27)*
X192200000Y-136000000D03*
X171230000Y-134370000D03*
X145350000Y-124490000D03*
X146150000Y-128400000D03*
X171260000Y-129280000D03*
X202300000Y-136200000D03*
G04 #@! TO.N,Net-(U2-Pad28)*
X202600000Y-138300000D03*
X172510000Y-131600000D03*
X192500000Y-138200000D03*
X172690000Y-135420000D03*
G04 #@! TO.N,Net-(U2-Pad29)*
X173010000Y-115410000D03*
X156950000Y-124090000D03*
X206200000Y-110300000D03*
X183500000Y-111100000D03*
X172920000Y-124130000D03*
X156965500Y-129310000D03*
G04 #@! TO.N,Net-(U2-Pad30)*
X177690000Y-115090000D03*
X187000000Y-113500000D03*
X201600000Y-112300000D03*
X143420000Y-121620000D03*
X177250000Y-121610000D03*
G04 #@! TO.N,Net-(U2-Pad31)*
X188100000Y-116300000D03*
X154150000Y-119030000D03*
X203900000Y-116300000D03*
X154620000Y-135460000D03*
G04 #@! TO.N,Net-(U2-Pad32)*
X176900000Y-105000000D03*
X153020000Y-116490000D03*
X204000000Y-104200000D03*
X153120000Y-137950000D03*
G04 #@! TO.N,Net-(U2-Pad33)*
X202200000Y-106300000D03*
X175540000Y-126140000D03*
X178200000Y-106900000D03*
X176170000Y-114090000D03*
X169470000Y-138990000D03*
X170310000Y-126560000D03*
G04 #@! TO.N,Net-(U2-Pad34)*
X176700000Y-56600000D03*
X165400000Y-141810000D03*
G04 #@! TO.N,Net-(U2-Pad35)*
X165400000Y-79200000D03*
X192000000Y-72700000D03*
X193300000Y-54500000D03*
X164320000Y-146090000D03*
G04 #@! TD*
D30*
G04 #@! TO.N,Net-(R69-Pad2)*
X207200000Y-57200000D02*
X214000000Y-57200000D01*
G04 #@! TO.N,Net-(R81-Pad2)*
X191600000Y-81000000D02*
X213000000Y-81000000D01*
X213000000Y-81000000D02*
X213400000Y-81400000D01*
X189900000Y-79300000D02*
X191600000Y-81000000D01*
G04 #@! TO.N,Net-(R86-Pad2)*
X215400000Y-95100000D02*
X172800000Y-95100000D01*
G04 #@! TO.N,Net-(R64-Pad2)*
X209600000Y-47200000D02*
X215100000Y-47200000D01*
X209500000Y-47300000D02*
X209600000Y-47200000D01*
G04 #@! TO.N,+3V3*
X188100000Y-65500000D02*
X188100000Y-61700000D01*
X202700000Y-96000000D02*
X211500000Y-96000000D01*
X164800000Y-77500000D02*
X164800000Y-72600000D01*
X210550000Y-90100000D02*
X209900000Y-90100000D01*
X164800000Y-72600000D02*
X164800000Y-70600000D01*
X162430000Y-96060000D02*
X162400000Y-96030000D01*
X172200000Y-51600000D02*
X171000000Y-50400000D01*
X213500000Y-64000000D02*
X203600000Y-64000000D01*
X164800000Y-70600000D02*
X166100000Y-69300000D01*
X203600000Y-64000000D02*
X201600000Y-66000000D01*
X188400000Y-60355000D02*
X189280000Y-59475000D01*
X211500000Y-96000000D02*
X211600000Y-96100000D01*
X145550000Y-94830000D02*
X145550000Y-88300000D01*
X166900000Y-107470000D02*
X166900000Y-97840000D01*
X171000000Y-50400000D02*
X169520000Y-50400000D01*
X188400000Y-61400000D02*
X188400000Y-60355000D01*
X212350000Y-91900000D02*
X210550000Y-90100000D01*
X172200000Y-58700000D02*
X172200000Y-51600000D01*
X166900000Y-97840000D02*
X167860000Y-96880000D01*
X162400000Y-79900000D02*
X164800000Y-77500000D01*
X166100000Y-69300000D02*
X166100000Y-50600000D01*
X188100000Y-61700000D02*
X188400000Y-61400000D01*
X162400000Y-96030000D02*
X162400000Y-79900000D01*
D31*
G04 #@! TO.N,GND*
X155700000Y-43600000D02*
X155700000Y-53500000D01*
D32*
X171830000Y-45870000D02*
X171830000Y-41260000D01*
D31*
X161900000Y-68180000D02*
X161900000Y-76200000D01*
X97200000Y-151300000D02*
X97200000Y-149200000D01*
D30*
X141500000Y-107470000D02*
X143170000Y-105800000D01*
D31*
X140500000Y-61400000D02*
X142700000Y-59200000D01*
X114500000Y-52500000D02*
X114530000Y-52470000D01*
D30*
X132700000Y-91500000D02*
X132900000Y-91300000D01*
D33*
X175300000Y-134600000D02*
X178900000Y-134600000D01*
X169170000Y-104170000D02*
X169170000Y-93660000D01*
X172570000Y-92370000D02*
X180170000Y-92370000D01*
D32*
X174430000Y-48530000D02*
X171800000Y-45900000D01*
D31*
X121930000Y-52370000D02*
X121930000Y-41960000D01*
D33*
X172500000Y-137400000D02*
X175300000Y-134600000D01*
X170680000Y-105680000D02*
X169170000Y-104170000D01*
D30*
X132700000Y-99400000D02*
X132700000Y-91500000D01*
D31*
X142600000Y-72200000D02*
X140700000Y-70300000D01*
D33*
X175300000Y-149300000D02*
X173800000Y-149300000D01*
D31*
X209700000Y-91800000D02*
X209900000Y-91600000D01*
X167300000Y-76100000D02*
X167300000Y-72600000D01*
X115300000Y-149200000D02*
X115300000Y-151600000D01*
X114530000Y-52470000D02*
X114530000Y-49260000D01*
X140400000Y-91900000D02*
X139500000Y-92800000D01*
X139500000Y-92800000D02*
X139500000Y-126000000D01*
X181600000Y-76300000D02*
X181700000Y-76200000D01*
D33*
X172500000Y-147130000D02*
X172500000Y-137400000D01*
D31*
X121600000Y-52700000D02*
X121930000Y-52370000D01*
X140400000Y-90200000D02*
X140400000Y-91900000D01*
D33*
X178900000Y-134600000D02*
X179100000Y-134800000D01*
X142600000Y-78000000D02*
X142600000Y-90500000D01*
D32*
X174430000Y-51560000D02*
X174430000Y-48530000D01*
D31*
X129700000Y-149500000D02*
X129700000Y-126000000D01*
D32*
X171800000Y-45900000D02*
X171830000Y-45870000D01*
D31*
X205800000Y-91800000D02*
X209700000Y-91800000D01*
D30*
X143170000Y-91070000D02*
X142600000Y-90500000D01*
D31*
X129700000Y-151600000D02*
X129700000Y-149500000D01*
D33*
X180160000Y-131600000D02*
X180160000Y-115160000D01*
X180160000Y-115160000D02*
X170680000Y-105680000D01*
D31*
X194700000Y-43895000D02*
X196900000Y-41695000D01*
D33*
X173800000Y-149300000D02*
X172500000Y-148000000D01*
X180170000Y-92370000D02*
X181600000Y-93800000D01*
D31*
X122700000Y-151400000D02*
X122800000Y-151500000D01*
X122700000Y-149500000D02*
X122700000Y-151400000D01*
D33*
X172500000Y-148000000D02*
X172500000Y-147130000D01*
D31*
X140500000Y-70300000D02*
X140500000Y-61400000D01*
X140700000Y-70300000D02*
X140500000Y-70300000D01*
X142700000Y-59200000D02*
X142700000Y-52700000D01*
X142600000Y-72200000D02*
X142600000Y-78000000D01*
D33*
X179100000Y-134800000D02*
X180160000Y-133740000D01*
X180160000Y-133740000D02*
X180160000Y-131600000D01*
X181600000Y-93800000D02*
X181600000Y-76300000D01*
X179300000Y-145300000D02*
X175300000Y-149300000D01*
D31*
X156730000Y-41260000D02*
X156730000Y-42570000D01*
X155700000Y-53500000D02*
X156500000Y-54300000D01*
D33*
X180857500Y-145300000D02*
X179300000Y-145300000D01*
D30*
X143170000Y-105800000D02*
X143170000Y-91070000D01*
D31*
X196400000Y-63300000D02*
X194700000Y-61600000D01*
X156730000Y-42570000D02*
X155700000Y-43600000D01*
X194700000Y-61600000D02*
X194700000Y-51900000D01*
X194700000Y-47500000D02*
X194700000Y-43895000D01*
D33*
G04 #@! TO.N,Net-(J1-Pad1)*
X159280000Y-155420000D02*
X156320000Y-152460000D01*
X185400000Y-143842500D02*
X180857500Y-139300000D01*
X156620000Y-87000000D02*
X158210000Y-85410000D01*
X155380000Y-130930000D02*
X155380000Y-121040000D01*
X181680000Y-155420000D02*
X159280000Y-155420000D01*
X158200000Y-85400000D02*
X158200000Y-83300000D01*
X158210000Y-85410000D02*
X158200000Y-85400000D01*
X156320000Y-131870000D02*
X155380000Y-130930000D01*
X185400000Y-152700000D02*
X185400000Y-143842500D01*
X155380000Y-121040000D02*
X156620000Y-119800000D01*
X182700000Y-137457500D02*
X180857500Y-139300000D01*
X156620000Y-119800000D02*
X156620000Y-87000000D01*
X182700000Y-131600000D02*
X182700000Y-137457500D01*
X184400000Y-152700000D02*
X181680000Y-155420000D01*
X185400000Y-152700000D02*
X184400000Y-152700000D01*
X156320000Y-152460000D02*
X156320000Y-131870000D01*
D30*
G04 #@! TO.N,Net-(J2-Pad1)*
X95667379Y-35367379D02*
X93500000Y-33200000D01*
X103900000Y-49700000D02*
X97471436Y-49700000D01*
X97471436Y-49700000D02*
X95667379Y-47895943D01*
X124470000Y-46570000D02*
X125100000Y-47200000D01*
X124470000Y-41960000D02*
X124470000Y-46570000D01*
X93500000Y-33200000D02*
X91300000Y-33200000D01*
X95667379Y-47895943D02*
X95667379Y-35367379D01*
G04 #@! TO.N,Net-(J2-Pad2)*
X95217859Y-36917859D02*
X93500000Y-35200000D01*
X105700000Y-50900000D02*
X98035718Y-50900000D01*
X93500000Y-35200000D02*
X91300000Y-35200000D01*
X98035718Y-50900000D02*
X95217859Y-48082141D01*
X95217859Y-48082141D02*
X95217859Y-36917859D01*
G04 #@! TO.N,Net-(J2-Pad3)*
X99000000Y-52500000D02*
X94400000Y-47900000D01*
X94400000Y-38100000D02*
X93500000Y-37200000D01*
X93500000Y-37200000D02*
X91300000Y-37200000D01*
X106700000Y-52500000D02*
X99000000Y-52500000D01*
X94400000Y-47900000D02*
X94400000Y-38100000D01*
G04 #@! TO.N,Net-(J2-Pad4)*
X106600000Y-48500000D02*
X109100000Y-46000000D01*
X109100000Y-46000000D02*
X110700000Y-46000000D01*
X96900000Y-43500000D02*
X101900000Y-48500000D01*
X101900000Y-48500000D02*
X106600000Y-48500000D01*
X96900000Y-40000000D02*
X96900000Y-43500000D01*
X137300000Y-46000000D02*
X137300000Y-41600000D01*
G04 #@! TO.N,Net-(J2-Pad30)*
X101000000Y-86500000D02*
X101000000Y-61064283D01*
X96300000Y-91200000D02*
X101000000Y-86500000D01*
X101000000Y-61064283D02*
X108064283Y-54000000D01*
X108064283Y-54000000D02*
X110700000Y-54000000D01*
X91300000Y-91200000D02*
X96300000Y-91200000D01*
G04 #@! TO.N,Net-(J2-Pad31)*
X145200000Y-56800000D02*
X145200000Y-59160000D01*
X91300000Y-93200000D02*
X95400000Y-93200000D01*
X101700000Y-86900000D02*
X101700000Y-61000000D01*
X107300000Y-55400000D02*
X112100000Y-55400000D01*
X145200000Y-59160000D02*
X145240000Y-59200000D01*
X101700000Y-61000000D02*
X107300000Y-55400000D01*
X95400000Y-93200000D02*
X101700000Y-86900000D01*
G04 #@! TO.N,Net-(J3-Pad17)*
X132200000Y-145900000D02*
X132240000Y-145940000D01*
X132240000Y-145940000D02*
X132240000Y-151600000D01*
G04 #@! TO.N,Net-(J3-Pad18)*
X112700000Y-154100000D02*
X112700000Y-148200000D01*
X112700000Y-148200000D02*
X112800000Y-148100000D01*
G04 #@! TO.N,Net-(J3-Pad19)*
X94400000Y-155200000D02*
X94400000Y-149400000D01*
X94400000Y-149400000D02*
X94300000Y-149300000D01*
G04 #@! TO.N,Net-(J4-Pad2)*
X118600000Y-31700000D02*
X107000000Y-31700000D01*
G04 #@! TO.N,Net-(J4-Pad3)*
X108900000Y-30400000D02*
X115800000Y-30400000D01*
X115800000Y-30400000D02*
X115900000Y-30500000D01*
X114400000Y-38500000D02*
X116600000Y-38500000D01*
G04 #@! TO.N,Net-(J4-Pad9)*
X120900000Y-30700000D02*
X120900000Y-28100000D01*
X124340000Y-34200000D02*
X124340000Y-30840000D01*
X124340000Y-30840000D02*
X124300000Y-30800000D01*
X120800000Y-30800000D02*
X120900000Y-30700000D01*
G04 #@! TO.N,Net-(J4-Pad12)*
X126900000Y-42200000D02*
X128100000Y-43400000D01*
X145100000Y-43400000D02*
X144970000Y-43530000D01*
X144970000Y-43530000D02*
X144970000Y-45960000D01*
X126900000Y-28100000D02*
X126900000Y-42200000D01*
G04 #@! TO.N,Net-(J4-Pad15)*
X134070000Y-31670000D02*
X132800000Y-30400000D01*
X134070000Y-34060000D02*
X134070000Y-31670000D01*
X132800000Y-30400000D02*
X132900000Y-30300000D01*
X132900000Y-30300000D02*
X132900000Y-28100000D01*
G04 #@! TO.N,Net-(J4-Pad18)*
X147400000Y-64700000D02*
X147400000Y-38600000D01*
X146600000Y-65500000D02*
X147400000Y-64700000D01*
X138900000Y-38300000D02*
X138900000Y-28100000D01*
X145140000Y-65500000D02*
X146600000Y-65500000D01*
G04 #@! TO.N,Net-(J4-Pad21)*
X144370000Y-28630000D02*
X144900000Y-28100000D01*
X144370000Y-34000000D02*
X144370000Y-28630000D01*
G04 #@! TO.N,Net-(J4-Pad24)*
X151070000Y-34100000D02*
X151070000Y-28270000D01*
X151070000Y-28270000D02*
X150900000Y-28100000D01*
G04 #@! TO.N,Net-(J4-Pad27)*
X164400000Y-38000000D02*
X166570000Y-40170000D01*
X164400000Y-38000000D02*
X164400000Y-31000000D01*
X166570000Y-41260000D02*
X166570000Y-40170000D01*
X156900000Y-31000000D02*
X156900000Y-28100000D01*
G04 #@! TO.N,Net-(J4-Pad30)*
X162640000Y-34300000D02*
X162640000Y-28360000D01*
X162640000Y-28360000D02*
X162900000Y-28100000D01*
G04 #@! TO.N,Net-(J4-Pad33)*
X168770000Y-34260000D02*
X168770000Y-28230000D01*
X168770000Y-28230000D02*
X168900000Y-28100000D01*
G04 #@! TO.N,Net-(J4-Pad36)*
X174970000Y-28170000D02*
X174900000Y-28100000D01*
X174970000Y-34260000D02*
X174970000Y-28170000D01*
G04 #@! TO.N,Net-(J4-Pad39)*
X181670000Y-28870000D02*
X180900000Y-28100000D01*
X181670000Y-34260000D02*
X181670000Y-28870000D01*
G04 #@! TO.N,Net-(J5-Pad1)*
X104720000Y-154980000D02*
X104720000Y-157200000D01*
X106810000Y-151040000D02*
X106810000Y-152890000D01*
X106810000Y-152890000D02*
X104720000Y-154980000D01*
G04 #@! TO.N,Net-(J6-Pad2)*
X187770000Y-34260000D02*
X187770000Y-28950000D01*
X187770000Y-28950000D02*
X186920000Y-28100000D01*
G04 #@! TO.N,Net-(J6-Pad5)*
X193570000Y-34260000D02*
X193570000Y-28750000D01*
X193570000Y-28750000D02*
X192920000Y-28100000D01*
G04 #@! TO.N,Net-(J6-Pad8)*
X199670000Y-28850000D02*
X198920000Y-28100000D01*
X199670000Y-34360000D02*
X199670000Y-28850000D01*
G04 #@! TO.N,Net-(J6-Pad11)*
X203000000Y-31100000D02*
X203700000Y-30400000D01*
X200200000Y-69400000D02*
X200200000Y-38800000D01*
X204700000Y-30400000D02*
X204920000Y-30180000D01*
X204920000Y-30180000D02*
X204920000Y-28100000D01*
X200200000Y-38800000D02*
X203100000Y-35900000D01*
X203000000Y-31300000D02*
X203000000Y-31100000D01*
X203700000Y-30400000D02*
X204700000Y-30400000D01*
X203100000Y-31400000D02*
X203000000Y-31300000D01*
X203100000Y-35900000D02*
X203100000Y-31400000D01*
G04 #@! TO.N,Net-(J7-Pad11)*
X204700000Y-154500000D02*
X203370000Y-153170000D01*
X204700000Y-157200000D02*
X204700000Y-154500000D01*
X203370000Y-153170000D02*
X203370000Y-150760000D01*
G04 #@! TO.N,Net-(J8-Pad1)*
X204500000Y-46900000D02*
X204500000Y-33200000D01*
X204500000Y-33200000D02*
X204400000Y-33100000D01*
G04 #@! TO.N,Net-(J8-Pad2)*
X192200000Y-37900000D02*
X192000000Y-37700000D01*
X192200000Y-44400000D02*
X192200000Y-37900000D01*
G04 #@! TO.N,Net-(J8-Pad3)*
X203200000Y-51900000D02*
X203200000Y-39600000D01*
X203200000Y-39600000D02*
X202800000Y-39200000D01*
G04 #@! TO.N,Net-(J8-Pad4)*
X201400000Y-41300000D02*
X201300000Y-41200000D01*
X201400000Y-54400000D02*
X201400000Y-41300000D01*
G04 #@! TO.N,Net-(J9-Pad17)*
X191625009Y-83775489D02*
X208475489Y-83775489D01*
X194585000Y-49315000D02*
X191100000Y-52800000D01*
X186950480Y-76349520D02*
X191100000Y-72200000D01*
X196900000Y-49315000D02*
X194585000Y-49315000D01*
X191100000Y-52800000D02*
X191100000Y-72200000D01*
X208475489Y-83775489D02*
X209300000Y-84600000D01*
X205700000Y-145100000D02*
X205840000Y-145240000D01*
X186950480Y-79100960D02*
X191625009Y-83775489D01*
X205840000Y-145240000D02*
X220300000Y-145240000D01*
X186950480Y-76349520D02*
X186950480Y-79100960D01*
G04 #@! TO.N,Net-(J9-Pad18)*
X187400000Y-78800000D02*
X187400000Y-77500000D01*
X199300000Y-69524614D02*
X199300000Y-59335000D01*
X193924614Y-74900000D02*
X199300000Y-69524614D01*
X190000000Y-74900000D02*
X193924614Y-74900000D01*
X191700000Y-83100000D02*
X187400000Y-78800000D01*
X187400000Y-77500000D02*
X190000000Y-74900000D01*
X211500000Y-84700000D02*
X209900000Y-83100000D01*
X199300000Y-59335000D02*
X196900000Y-56935000D01*
X209900000Y-83100000D02*
X191700000Y-83100000D01*
G04 #@! TO.N,Net-(J9-Pad19)*
X184500000Y-39200000D02*
X184500000Y-70700000D01*
X171600000Y-102000000D02*
X190300000Y-120700000D01*
X184500000Y-70700000D02*
X171600000Y-83600000D01*
X216500000Y-148700000D02*
X217040000Y-149240000D01*
X197600000Y-148700000D02*
X216500000Y-148700000D01*
X190300000Y-120700000D02*
X190300000Y-141400000D01*
X217040000Y-149240000D02*
X220300000Y-149240000D01*
X190300000Y-141400000D02*
X197600000Y-148700000D01*
X171600000Y-83600000D02*
X171600000Y-102000000D01*
G04 #@! TO.N,Net-(J9-Pad20)*
X186400000Y-79675386D02*
X186400000Y-75300000D01*
X190200000Y-71500000D02*
X190200000Y-63100000D01*
X191224614Y-84500000D02*
X186400000Y-79675386D01*
X186400000Y-75300000D02*
X190200000Y-71500000D01*
X207300000Y-84500000D02*
X191224614Y-84500000D01*
G04 #@! TO.N,Net-(J10-Pad3)*
X206200000Y-90600000D02*
X205900000Y-90300000D01*
X209400000Y-102200000D02*
X209500000Y-102300000D01*
X199500000Y-102200000D02*
X209400000Y-102200000D01*
X110900000Y-82200000D02*
X132500000Y-82200000D01*
X110400000Y-97200000D02*
X110400000Y-82700000D01*
X132500000Y-82200000D02*
X132600000Y-82100000D01*
X181100000Y-98000000D02*
X172900000Y-98000000D01*
X162720000Y-98030000D02*
X163600000Y-97150000D01*
X163600000Y-97150000D02*
X163600000Y-86300000D01*
X205900000Y-90300000D02*
X204000000Y-90300000D01*
X110400000Y-82700000D02*
X110900000Y-82200000D01*
X208800000Y-90600000D02*
X206200000Y-90600000D01*
G04 #@! TO.N,Net-(Q1-Pad2)*
X98300000Y-154675500D02*
X98470000Y-154505500D01*
X146000000Y-39400000D02*
X146000000Y-37800000D01*
X149800000Y-36800000D02*
X149800000Y-34100000D01*
X180810000Y-44110000D02*
X180800000Y-44100000D01*
X146000000Y-37800000D02*
X146500000Y-37300000D01*
X189200000Y-142400000D02*
X189200000Y-120700000D01*
X109300000Y-155200000D02*
X108400000Y-154300000D01*
X180810000Y-61500000D02*
X180810000Y-44110000D01*
X183500000Y-70600000D02*
X183500000Y-65800000D01*
X175900000Y-78000000D02*
X176100000Y-78000000D01*
X201500000Y-149600000D02*
X196400000Y-149600000D01*
X114300000Y-155200000D02*
X109300000Y-155200000D01*
X170900000Y-102400000D02*
X189200000Y-120700000D01*
X128900000Y-154500000D02*
X115000000Y-154500000D01*
X202100000Y-150200000D02*
X201500000Y-149600000D01*
X146500000Y-44600000D02*
X146500000Y-39900000D01*
X146500000Y-39900000D02*
X146000000Y-39400000D01*
X115000000Y-154500000D02*
X114300000Y-155200000D01*
X146500000Y-37300000D02*
X149300000Y-37300000D01*
X189200000Y-142400000D02*
X196400000Y-149600000D01*
X149300000Y-37300000D02*
X149800000Y-36800000D01*
X170900000Y-102400000D02*
X170900000Y-83000000D01*
X176100000Y-78000000D02*
X183500000Y-70600000D01*
X98470000Y-154505500D02*
X98470000Y-151300000D01*
X183500000Y-65800000D02*
X183600000Y-65700000D01*
X202100000Y-150760000D02*
X202100000Y-150200000D01*
X170900000Y-83000000D02*
X175900000Y-78000000D01*
G04 #@! TO.N,Net-(Q12-Pad2)*
X158000000Y-45800000D02*
X158000000Y-41260000D01*
X143100000Y-37300000D02*
X143100000Y-34000000D01*
X178600000Y-67200000D02*
X178600000Y-48800000D01*
X178600000Y-48800000D02*
X178700000Y-48700000D01*
X180820000Y-68100000D02*
X179500000Y-68100000D01*
X144300000Y-38500000D02*
X143100000Y-37300000D01*
X179500000Y-68100000D02*
X178600000Y-67200000D01*
X158000000Y-41260000D02*
X158000000Y-39000000D01*
X158200000Y-46000000D02*
X158000000Y-45800000D01*
X144300000Y-40000000D02*
X144300000Y-38500000D01*
G04 #@! TO.N,Net-(Q13-Pad2)*
X198400000Y-32800000D02*
X198400000Y-34360000D01*
X153200000Y-65300000D02*
X152200000Y-66300000D01*
X152200000Y-66300000D02*
X150490000Y-66300000D01*
X153300000Y-32900000D02*
X152900000Y-33300000D01*
X152900000Y-33300000D02*
X152900000Y-38400000D01*
X116570000Y-148130000D02*
X116570000Y-151600000D01*
X135700000Y-68700000D02*
X135100000Y-68100000D01*
X116700000Y-148000000D02*
X116570000Y-148130000D01*
X122800000Y-116600000D02*
X135700000Y-103700000D01*
X122800000Y-148000000D02*
X122800000Y-116600000D01*
X135700000Y-103700000D02*
X135700000Y-68700000D01*
X153200000Y-38700000D02*
X153200000Y-65300000D01*
X152900000Y-38400000D02*
X153200000Y-38700000D01*
G04 #@! TO.N,Net-(Q20-Pad2)*
X148700000Y-44000000D02*
X148800000Y-44000000D01*
X118515000Y-35700000D02*
X117600000Y-35700000D01*
X150690000Y-56000000D02*
X148690000Y-54000000D01*
X145300000Y-55100000D02*
X143970000Y-53770000D01*
X119700000Y-36885000D02*
X118515000Y-35700000D01*
X119700000Y-49200000D02*
X119700000Y-36885000D01*
X143970000Y-53770000D02*
X143970000Y-52700000D01*
X143970000Y-52700000D02*
X143970000Y-51370000D01*
X165300000Y-43900000D02*
X165300000Y-41260000D01*
X148000000Y-44700000D02*
X148700000Y-44000000D01*
X148000000Y-54000000D02*
X148000000Y-44700000D01*
X117600000Y-35700000D02*
X117300000Y-35400000D01*
X148690000Y-54000000D02*
X148000000Y-54000000D01*
X117300000Y-35400000D02*
X117300000Y-34260000D01*
X143970000Y-51370000D02*
X142300000Y-49700000D01*
G04 #@! TO.N,Net-(Q14-Pad2)*
X155200000Y-30100000D02*
X155100000Y-30000000D01*
X154800000Y-39900000D02*
X155200000Y-39500000D01*
X123200000Y-61400000D02*
X123200000Y-41960000D01*
X192300000Y-30500000D02*
X192300000Y-34260000D01*
X154800000Y-62300000D02*
X154800000Y-39900000D01*
X192200000Y-30400000D02*
X192300000Y-30500000D01*
X123300000Y-61500000D02*
X123200000Y-61400000D01*
X155200000Y-39500000D02*
X155200000Y-30100000D01*
X155300000Y-62800000D02*
X154800000Y-62300000D01*
X123200000Y-41960000D02*
X123200000Y-38200000D01*
X132800000Y-38100000D02*
X132800000Y-34060000D01*
G04 #@! TO.N,Net-(Q19-Pad2)*
X162000000Y-37100000D02*
X161370000Y-36470000D01*
X122100000Y-145900000D02*
X122100000Y-116300000D01*
X162000000Y-39600000D02*
X162000000Y-37100000D01*
X121200000Y-146800000D02*
X122100000Y-145900000D01*
X148900000Y-46600000D02*
X150400000Y-45100000D01*
X133800000Y-69900000D02*
X133800000Y-50700000D01*
X135000000Y-71100000D02*
X133800000Y-69900000D01*
X122100000Y-116300000D02*
X135000000Y-103400000D01*
X150400000Y-45100000D02*
X150400000Y-42700000D01*
X135000000Y-103400000D02*
X135000000Y-71100000D01*
X161370000Y-36470000D02*
X161370000Y-34300000D01*
X148890000Y-50700000D02*
X148890000Y-46610000D01*
X148890000Y-46610000D02*
X148900000Y-46600000D01*
X105540000Y-147560000D02*
X105700000Y-147400000D01*
X105540000Y-151040000D02*
X105540000Y-147560000D01*
G04 #@! TO.N,Net-(Q15-Pad2)*
X143700000Y-48700000D02*
X143700000Y-45960000D01*
X136500000Y-104300000D02*
X136500000Y-48700000D01*
X124070000Y-151500000D02*
X124070000Y-116730000D01*
X186500000Y-37400000D02*
X186500000Y-34260000D01*
X168800000Y-39900000D02*
X169800000Y-38900000D01*
X124070000Y-116730000D02*
X136500000Y-104300000D01*
X168800000Y-47500000D02*
X168800000Y-39900000D01*
G04 #@! TO.N,Net-(Q18-Pad2)*
X115500000Y-44200000D02*
X115370000Y-44070000D01*
X112200000Y-44400000D02*
X112200000Y-53100000D01*
X150590000Y-59400000D02*
X152400000Y-57590000D01*
X112100000Y-44300000D02*
X112200000Y-44400000D01*
X152400000Y-57590000D02*
X152400000Y-38900000D01*
X167500000Y-38700000D02*
X167500000Y-34260000D01*
X152400000Y-38900000D02*
X151100000Y-37600000D01*
X115370000Y-44070000D02*
X115370000Y-41860000D01*
X167400000Y-38800000D02*
X167500000Y-38700000D01*
X114600000Y-55500000D02*
X114600000Y-57700000D01*
X112200000Y-53100000D02*
X114600000Y-55500000D01*
G04 #@! TO.N,Net-(Q17-Pad2)*
X154000000Y-68100000D02*
X152400000Y-69700000D01*
X173700000Y-36600000D02*
X173700000Y-34260000D01*
X174300000Y-37200000D02*
X173700000Y-36600000D01*
X111500000Y-35500000D02*
X112500000Y-36500000D01*
X112500000Y-36500000D02*
X117000000Y-36500000D01*
X111500000Y-34260000D02*
X111500000Y-35500000D01*
X154200000Y-36500000D02*
X154000000Y-36700000D01*
X154000000Y-36700000D02*
X154000000Y-68100000D01*
X152400000Y-69700000D02*
X150490000Y-69700000D01*
G04 #@! TO.N,Net-(Q10-Pad2)*
X180400000Y-34260000D02*
X180400000Y-39500000D01*
X169700000Y-82000000D02*
X179000000Y-72700000D01*
X180300000Y-31400000D02*
X180400000Y-31500000D01*
X169700000Y-90375500D02*
X169700000Y-82000000D01*
X183000000Y-64300000D02*
X182500000Y-64800000D01*
X151600000Y-92800000D02*
X153200000Y-91200000D01*
X179000000Y-72700000D02*
X179000000Y-70700000D01*
X182500000Y-64800000D02*
X180820000Y-64800000D01*
X169575500Y-90500000D02*
X169700000Y-90375500D01*
X180400000Y-31500000D02*
X180400000Y-34260000D01*
X180400000Y-39500000D02*
X183000000Y-42100000D01*
X183000000Y-42100000D02*
X183000000Y-64300000D01*
X151600000Y-152100000D02*
X151600000Y-92800000D01*
G04 #@! TO.N,Net-(Q11-Pad1)*
X170300000Y-82400000D02*
X182700000Y-70000000D01*
X160100000Y-39400000D02*
X160100000Y-34300000D01*
X174370000Y-41260000D02*
X174370000Y-39170000D01*
X164030000Y-41260000D02*
X161960000Y-41260000D01*
X186300000Y-67100000D02*
X186300000Y-48700000D01*
X174370000Y-39170000D02*
X172430000Y-37230000D01*
X174600000Y-44200000D02*
X174370000Y-43970000D01*
X200830000Y-150760000D02*
X195660000Y-150760000D01*
X161960000Y-41260000D02*
X160100000Y-39400000D01*
X170300000Y-102800000D02*
X170300000Y-82400000D01*
X187900000Y-143000000D02*
X187900000Y-120400000D01*
X182700000Y-70000000D02*
X182700000Y-66800000D01*
X174300000Y-46100000D02*
X174300000Y-44500000D01*
X172430000Y-37230000D02*
X172430000Y-34260000D01*
X174370000Y-43970000D02*
X174370000Y-41260000D01*
X186300000Y-48700000D02*
X186200000Y-48600000D01*
X187900000Y-120400000D02*
X170300000Y-102800000D01*
X187900000Y-143000000D02*
X195660000Y-150760000D01*
X174300000Y-44500000D02*
X174600000Y-44200000D01*
G04 #@! TO.N,Net-(Q22-Pad1)*
X141700000Y-39700000D02*
X141830000Y-39570000D01*
X138900000Y-105400000D02*
X138900000Y-65500000D01*
X138900000Y-48300000D02*
X141240000Y-45960000D01*
X117500000Y-32800000D02*
X119300000Y-32800000D01*
X119300000Y-32800000D02*
X119800000Y-32300000D01*
X138900000Y-48300000D02*
X138900000Y-65500000D01*
X116030000Y-34260000D02*
X116030000Y-33130000D01*
X176970000Y-36070000D02*
X176970000Y-51560000D01*
X141830000Y-39570000D02*
X141830000Y-34000000D01*
X110200000Y-33000000D02*
X110230000Y-33030000D01*
X126600000Y-143600000D02*
X126600000Y-117700000D01*
X116030000Y-33130000D02*
X115300000Y-32400000D01*
X121800000Y-32500000D02*
X121800000Y-34200000D01*
X142430000Y-45960000D02*
X141240000Y-45960000D01*
X121600000Y-32300000D02*
X121800000Y-32500000D01*
X110230000Y-33030000D02*
X110230000Y-34260000D01*
X176900000Y-36000000D02*
X176970000Y-36070000D01*
X126600000Y-117700000D02*
X138900000Y-105400000D01*
X104270000Y-151040000D02*
X104270000Y-144530000D01*
X119800000Y-32300000D02*
X121600000Y-32300000D01*
X117100000Y-32400000D02*
X117500000Y-32800000D01*
X142430000Y-40430000D02*
X141700000Y-39700000D01*
X142430000Y-45960000D02*
X142430000Y-40430000D01*
X126700000Y-143700000D02*
X126600000Y-143600000D01*
X110800000Y-32400000D02*
X110200000Y-33000000D01*
X115300000Y-32400000D02*
X117100000Y-32400000D01*
X115300000Y-32400000D02*
X110800000Y-32400000D01*
X104270000Y-144530000D02*
X104300000Y-144500000D01*
G04 #@! TO.N,Net-(Q32-Pad2)*
X175700000Y-51560000D02*
X175700000Y-45900000D01*
G04 #@! TO.N,Net-(R63-Pad2)*
X210500000Y-45000000D02*
X213800000Y-45000000D01*
X209900000Y-45600000D02*
X210500000Y-45000000D01*
G04 #@! TO.N,Net-(R65-Pad2)*
X208400000Y-49300000D02*
X213800000Y-49300000D01*
G04 #@! TO.N,Net-(R66-Pad2)*
X208500000Y-51400000D02*
X215300000Y-51400000D01*
G04 #@! TO.N,Net-(R67-Pad2)*
X213950000Y-53350000D02*
X214000000Y-53400000D01*
X207850000Y-53350000D02*
X213950000Y-53350000D01*
G04 #@! TO.N,Net-(R68-Pad2)*
X207700000Y-55400000D02*
X215200000Y-55400000D01*
X215200000Y-55400000D02*
X215300000Y-55300000D01*
G04 #@! TO.N,Net-(R70-Pad2)*
X206700000Y-59200000D02*
X215100000Y-59200000D01*
X215100000Y-59200000D02*
X215200000Y-59100000D01*
G04 #@! TO.N,Net-(R71-Pad2)*
X206000000Y-61200000D02*
X213800000Y-61200000D01*
X213800000Y-61200000D02*
X214000000Y-61000000D01*
G04 #@! TO.N,Net-(R72-Pad2)*
X205700000Y-63000000D02*
X215200000Y-63000000D01*
G04 #@! TO.N,Net-(R73-Pad2)*
X214100000Y-65200000D02*
X214200000Y-65100000D01*
X205300000Y-65200000D02*
X214100000Y-65200000D01*
G04 #@! TO.N,Net-(R74-Pad2)*
X204900000Y-67200000D02*
X215100000Y-67200000D01*
X215100000Y-67200000D02*
X215200000Y-67100000D01*
G04 #@! TO.N,Net-(R75-Pad2)*
X203600000Y-69300000D02*
X213800000Y-69300000D01*
G04 #@! TO.N,Net-(R76-Pad2)*
X202100000Y-71200000D02*
X215100000Y-71200000D01*
G04 #@! TO.N,Net-(R77-Pad2)*
X199100000Y-73200000D02*
X213900000Y-73200000D01*
G04 #@! TO.N,Net-(R78-Pad2)*
X195800000Y-75200000D02*
X215200000Y-75200000D01*
G04 #@! TO.N,Net-(R79-Pad2)*
X193800000Y-77100000D02*
X213900000Y-77100000D01*
X213900000Y-77100000D02*
X214000000Y-77200000D01*
G04 #@! TO.N,Net-(R80-Pad2)*
X215200000Y-79200000D02*
X215200000Y-79300000D01*
X191500000Y-79200000D02*
X215200000Y-79200000D01*
G04 #@! TO.N,Net-(R82-Pad2)*
X191900000Y-82600000D02*
X214400000Y-82600000D01*
X188200000Y-78900000D02*
X191900000Y-82600000D01*
X214400000Y-82600000D02*
X214900000Y-83100000D01*
X188200000Y-77900000D02*
X188200000Y-78900000D01*
G04 #@! TO.N,Net-(R83-Pad2)*
X185000000Y-79300000D02*
X191800000Y-86100000D01*
X191800000Y-86100000D02*
X212600000Y-86100000D01*
X212600000Y-86100000D02*
X213500000Y-85200000D01*
G04 #@! TO.N,Net-(R84-Pad2)*
X183410000Y-80270000D02*
X185070000Y-80270000D01*
X185070000Y-80270000D02*
X192000000Y-87200000D01*
X192000000Y-87200000D02*
X214900000Y-87200000D01*
G04 #@! TO.N,Net-(R85-Pad2)*
X192000000Y-89100000D02*
X213600000Y-89100000D01*
X185000000Y-82100000D02*
X192000000Y-89100000D01*
G04 #@! TO.N,Net-(R87-Pad2)*
X174100000Y-97000000D02*
X174000000Y-96900000D01*
X213800000Y-97000000D02*
X174100000Y-97000000D01*
G04 #@! TO.N,Net-(R88-Pad2)*
X215240000Y-99240000D02*
X175260000Y-99240000D01*
X175260000Y-99240000D02*
X175200000Y-99300000D01*
G04 #@! TO.N,Net-(R89-Pad2)*
X176540000Y-101240000D02*
X176400000Y-101100000D01*
X213840000Y-101240000D02*
X176540000Y-101240000D01*
G04 #@! TO.N,Net-(R90-Pad2)*
X177800000Y-103200000D02*
X177700000Y-103300000D01*
X215100000Y-103200000D02*
X177800000Y-103200000D01*
G04 #@! TO.N,Net-(R91-Pad2)*
X213700000Y-105300000D02*
X179000000Y-105300000D01*
G04 #@! TO.N,Net-(R92-Pad2)*
X215240000Y-107240000D02*
X180460000Y-107240000D01*
X180460000Y-107240000D02*
X180200000Y-107500000D01*
G04 #@! TO.N,Net-(R93-Pad2)*
X183600000Y-109200000D02*
X213600000Y-109200000D01*
G04 #@! TO.N,Net-(R94-Pad2)*
X186900000Y-111300000D02*
X215200000Y-111300000D01*
G04 #@! TO.N,Net-(R95-Pad2)*
X189900000Y-113400000D02*
X190000000Y-113300000D01*
X190000000Y-113300000D02*
X213800000Y-113300000D01*
G04 #@! TO.N,Net-(R96-Pad2)*
X215200000Y-115400000D02*
X215300000Y-115500000D01*
X190200000Y-115400000D02*
X215200000Y-115400000D01*
G04 #@! TO.N,Net-(R97-Pad2)*
X190500000Y-117200000D02*
X213700000Y-117200000D01*
G04 #@! TO.N,Net-(R98-Pad2)*
X191400000Y-119300000D02*
X215100000Y-119300000D01*
G04 #@! TO.N,Net-(R99-Pad2)*
X192200000Y-121200000D02*
X213800000Y-121200000D01*
G04 #@! TO.N,Net-(R100-Pad2)*
X192600000Y-123200000D02*
X215100000Y-123200000D01*
G04 #@! TO.N,Net-(R102-Pad2)*
X193100000Y-125100000D02*
X213700000Y-125100000D01*
X213700000Y-125100000D02*
X213800000Y-125200000D01*
G04 #@! TO.N,Net-(R103-Pad2)*
X215100000Y-127000000D02*
X215200000Y-127100000D01*
X193700000Y-127000000D02*
X215100000Y-127000000D01*
G04 #@! TO.N,Net-(R104-Pad2)*
X194300000Y-129000000D02*
X213700000Y-129000000D01*
G04 #@! TO.N,Net-(R105-Pad2)*
X194300000Y-131300000D02*
X215100000Y-131300000D01*
G04 #@! TO.N,Net-(R106-Pad2)*
X194800000Y-133400000D02*
X213400000Y-133400000D01*
X213400000Y-133400000D02*
X213500000Y-133500000D01*
G04 #@! TO.N,Net-(R107-Pad2)*
X195500000Y-135100000D02*
X214900000Y-135100000D01*
X214900000Y-135100000D02*
X215000000Y-135200000D01*
G04 #@! TO.N,Net-(R108-Pad2)*
X195700000Y-137200000D02*
X213700000Y-137200000D01*
G04 #@! TO.N,Net-(R109-Pad2)*
X195800000Y-139300000D02*
X214900000Y-139300000D01*
X214900000Y-139300000D02*
X215000000Y-139200000D01*
G04 #@! TO.N,Net-(R110-Pad2)*
X196700000Y-141400000D02*
X213700000Y-141400000D01*
G04 #@! TO.N,Net-(R111-Pad2)*
X198500000Y-143200000D02*
X214200000Y-143200000D01*
X214200000Y-143200000D02*
X214300000Y-143300000D01*
G04 #@! TO.N,Net-(R62-Pad2)*
X211000000Y-43400000D02*
X211100000Y-43300000D01*
X211100000Y-43300000D02*
X214800000Y-43300000D01*
G04 #@! TO.N,+5V*
X187050000Y-129520000D02*
X186520000Y-128990000D01*
X187050000Y-150840000D02*
X187050000Y-129520000D01*
G04 #@! TO.N,Net-(U2-Pad21)*
X134830000Y-113850000D02*
X134830000Y-111880000D01*
X134830000Y-111880000D02*
X135900000Y-110810000D01*
G04 #@! TO.N,Net-(U1-Pad84)*
X146100000Y-126750000D02*
X146100000Y-100000000D01*
X146020000Y-126830000D02*
X146100000Y-126750000D01*
G04 #@! TO.N,Net-(U1-Pad86)*
X159100000Y-120120000D02*
X159100000Y-97700000D01*
X159230000Y-120250000D02*
X159100000Y-120120000D01*
G04 #@! TO.N,Net-(U1-Pad87)*
X160720000Y-135680000D02*
X160700000Y-135660000D01*
X160700000Y-135660000D02*
X160700000Y-97600000D01*
G04 #@! TO.N,Net-(U1-Pad89)*
X140500000Y-95200000D02*
X140500000Y-98300000D01*
X162760000Y-122600000D02*
X162860000Y-122700000D01*
X137770000Y-102420000D02*
X137710000Y-102360000D01*
X162760000Y-102420000D02*
X162760000Y-122600000D01*
X137710000Y-102360000D02*
X137710000Y-97960000D01*
G04 #@! TO.N,Net-(U1-Pad90)*
X147480000Y-125700000D02*
X147490000Y-125690000D01*
X148280000Y-119810000D02*
X148280000Y-94190000D01*
X147490000Y-125690000D02*
X147490000Y-120600000D01*
X147490000Y-120600000D02*
X148280000Y-119810000D01*
G04 #@! TO.N,Net-(U1-Pad91)*
X148730000Y-132750000D02*
X148730000Y-94780960D01*
X149720480Y-93790480D02*
X148940000Y-93010000D01*
X148730000Y-94780960D02*
X149720480Y-93790480D01*
G04 #@! TO.N,Net-(U1-Pad92)*
X150150000Y-97420000D02*
X150150000Y-92120000D01*
X150130000Y-121070000D02*
X150130000Y-97440000D01*
X149980000Y-121220000D02*
X150130000Y-121070000D01*
X149980000Y-130030000D02*
X149980000Y-121220000D01*
X150130000Y-97440000D02*
X150150000Y-97420000D01*
G04 #@! TO.N,Net-(U5-Pad15)*
X166800000Y-79500000D02*
X168900000Y-77400000D01*
X168460000Y-52940000D02*
X169520000Y-52940000D01*
X157780000Y-137480000D02*
X157670000Y-137370000D01*
X157670000Y-137370000D02*
X157670000Y-94760000D01*
X166180000Y-80120000D02*
X166180000Y-94230000D01*
X168900000Y-70800000D02*
X167700000Y-69600000D01*
X167700000Y-53700000D02*
X168460000Y-52940000D01*
X168900000Y-77400000D02*
X168900000Y-70800000D01*
X167700000Y-69600000D02*
X167700000Y-53700000D01*
X166800000Y-79500000D02*
X166180000Y-80120000D01*
G04 #@! TO.N,Net-(U2-Pad27)*
X171230000Y-129310000D02*
X171260000Y-129280000D01*
X146150000Y-128400000D02*
X145490000Y-127740000D01*
X145210000Y-127740000D02*
X145210000Y-124630000D01*
X171230000Y-134370000D02*
X171230000Y-129310000D01*
X192400000Y-136200000D02*
X192200000Y-136000000D01*
X145210000Y-124630000D02*
X145350000Y-124490000D01*
X145490000Y-127740000D02*
X145210000Y-127740000D01*
X202300000Y-136200000D02*
X192400000Y-136200000D01*
G04 #@! TO.N,Net-(U2-Pad28)*
X202600000Y-138300000D02*
X192600000Y-138300000D01*
X172520000Y-131610000D02*
X172520000Y-135250000D01*
X172520000Y-135250000D02*
X172690000Y-135420000D01*
X172510000Y-131600000D02*
X172520000Y-131610000D01*
X192600000Y-138300000D02*
X192500000Y-138200000D01*
G04 #@! TO.N,Net-(U2-Pad29)*
X173010000Y-115410000D02*
X173010000Y-124040000D01*
X157000000Y-127430000D02*
X157000000Y-124140000D01*
X156965500Y-129310000D02*
X156965500Y-127464500D01*
X157000000Y-124140000D02*
X156950000Y-124090000D01*
X184300000Y-110300000D02*
X183500000Y-111100000D01*
X156965500Y-127464500D02*
X157000000Y-127430000D01*
X173010000Y-124040000D02*
X172920000Y-124130000D01*
X206200000Y-110300000D02*
X184300000Y-110300000D01*
G04 #@! TO.N,Net-(U2-Pad30)*
X143420000Y-130950000D02*
X141500000Y-132870000D01*
X143420000Y-121620000D02*
X143420000Y-130950000D01*
X177250000Y-121610000D02*
X177250000Y-115530000D01*
X177250000Y-115530000D02*
X177690000Y-115090000D01*
X188200000Y-112300000D02*
X187000000Y-113500000D01*
X201600000Y-112300000D02*
X188200000Y-112300000D01*
G04 #@! TO.N,Net-(U2-Pad31)*
X154150000Y-134990000D02*
X154620000Y-135460000D01*
X203900000Y-116300000D02*
X188100000Y-116300000D01*
X154150000Y-119030000D02*
X154150000Y-134990000D01*
G04 #@! TO.N,Net-(U2-Pad32)*
X177700000Y-104200000D02*
X176900000Y-105000000D01*
X153020000Y-116490000D02*
X153020000Y-137850000D01*
X153020000Y-137850000D02*
X153120000Y-137950000D01*
X204000000Y-104200000D02*
X177700000Y-104200000D01*
G04 #@! TO.N,Net-(U2-Pad33)*
X169470000Y-127400000D02*
X170310000Y-126560000D01*
X169470000Y-138990000D02*
X169470000Y-127400000D01*
X202200000Y-106300000D02*
X178800000Y-106300000D01*
X178800000Y-106300000D02*
X178200000Y-106900000D01*
X175540000Y-114720000D02*
X176170000Y-114090000D01*
X175540000Y-126140000D02*
X175540000Y-114720000D01*
G04 #@! TO.N,Net-(U2-Pad34)*
X168060000Y-82740000D02*
X177600000Y-73200000D01*
X165260000Y-98090000D02*
X168060000Y-95290000D01*
X177600000Y-73200000D02*
X177600000Y-57500000D01*
X165260000Y-109790000D02*
X165260000Y-98090000D01*
X165260000Y-141670000D02*
X165400000Y-141810000D01*
X177600000Y-57500000D02*
X176700000Y-56600000D01*
X168060000Y-95290000D02*
X168060000Y-82740000D01*
X165260000Y-109790000D02*
X165260000Y-141670000D01*
G04 #@! TO.N,Net-(U2-Pad35)*
X164330000Y-146080000D02*
X164330000Y-80270000D01*
X164320000Y-146090000D02*
X164330000Y-146080000D01*
X192000000Y-55800000D02*
X193300000Y-54500000D01*
X164330000Y-80270000D02*
X165400000Y-79200000D01*
X192000000Y-72700000D02*
X192000000Y-55800000D01*
G04 #@! TD*
M02*
