G04 #@! TF.GenerationSoftware,KiCad,Pcbnew,(6.0.5)*
G04 #@! TF.CreationDate,2022-09-02T23:17:56+01:00*
G04 #@! TF.ProjectId,screen-driver,73637265-656e-42d6-9472-697665722e6b,rev?*
G04 #@! TF.SameCoordinates,Original*
G04 #@! TF.FileFunction,Paste,Bot*
G04 #@! TF.FilePolarity,Positive*
%FSLAX46Y46*%
G04 Gerber Fmt 4.6, Leading zero omitted, Abs format (unit mm)*
G04 Created by KiCad (PCBNEW (6.0.5)) date 2022-09-02 23:17:56*
%MOMM*%
%LPD*%
G01*
G04 APERTURE LIST*
G04 Aperture macros list*
%AMRoundRect*
0 Rectangle with rounded corners*
0 $1 Rounding radius*
0 $2 $3 $4 $5 $6 $7 $8 $9 X,Y pos of 4 corners*
0 Add a 4 corners polygon primitive as box body*
4,1,4,$2,$3,$4,$5,$6,$7,$8,$9,$2,$3,0*
0 Add four circle primitives for the rounded corners*
1,1,$1+$1,$2,$3*
1,1,$1+$1,$4,$5*
1,1,$1+$1,$6,$7*
1,1,$1+$1,$8,$9*
0 Add four rect primitives between the rounded corners*
20,1,$1+$1,$2,$3,$4,$5,0*
20,1,$1+$1,$4,$5,$6,$7,0*
20,1,$1+$1,$6,$7,$8,$9,0*
20,1,$1+$1,$8,$9,$2,$3,0*%
G04 Aperture macros list end*
%ADD10C,0.010000*%
%ADD11O,1.100000X1.800000*%
%ADD12O,1.050000X1.450000*%
%ADD13RoundRect,0.450000X-0.300000X-0.300000X0.300000X-0.300000X0.300000X0.300000X-0.300000X0.300000X0*%
G04 APERTURE END LIST*
G04 #@! TO.C,U1*
G36*
X142600000Y-136800000D02*
G01*
X140200000Y-136800000D01*
X140158000Y-136799000D01*
X140116000Y-136796000D01*
X140075000Y-136790000D01*
X140034000Y-136783000D01*
X139993000Y-136773000D01*
X139953000Y-136761000D01*
X139913000Y-136747000D01*
X139875000Y-136731000D01*
X139837000Y-136713000D01*
X139800000Y-136693000D01*
X139764000Y-136671000D01*
X139730000Y-136647000D01*
X139697000Y-136622000D01*
X139665000Y-136595000D01*
X139634000Y-136566000D01*
X139605000Y-136535000D01*
X139578000Y-136503000D01*
X139553000Y-136470000D01*
X139529000Y-136436000D01*
X139507000Y-136400000D01*
X139487000Y-136363000D01*
X139469000Y-136325000D01*
X139453000Y-136287000D01*
X139439000Y-136247000D01*
X139427000Y-136207000D01*
X139417000Y-136166000D01*
X139410000Y-136125000D01*
X139404000Y-136084000D01*
X139401000Y-136042000D01*
X139400000Y-136000000D01*
X139401000Y-135958000D01*
X139404000Y-135916000D01*
X139410000Y-135875000D01*
X139417000Y-135834000D01*
X139427000Y-135793000D01*
X139439000Y-135753000D01*
X139453000Y-135713000D01*
X139469000Y-135675000D01*
X139487000Y-135637000D01*
X139507000Y-135600000D01*
X139529000Y-135564000D01*
X139553000Y-135530000D01*
X139578000Y-135497000D01*
X139605000Y-135465000D01*
X139634000Y-135434000D01*
X139665000Y-135405000D01*
X139697000Y-135378000D01*
X139730000Y-135353000D01*
X139764000Y-135329000D01*
X139800000Y-135307000D01*
X139837000Y-135287000D01*
X139875000Y-135269000D01*
X139913000Y-135253000D01*
X139953000Y-135239000D01*
X139993000Y-135227000D01*
X140034000Y-135217000D01*
X140075000Y-135210000D01*
X140116000Y-135204000D01*
X140158000Y-135201000D01*
X140200000Y-135200000D01*
X142600000Y-135200000D01*
X142600000Y-136800000D01*
G37*
D10*
X142600000Y-136800000D02*
X140200000Y-136800000D01*
X140158000Y-136799000D01*
X140116000Y-136796000D01*
X140075000Y-136790000D01*
X140034000Y-136783000D01*
X139993000Y-136773000D01*
X139953000Y-136761000D01*
X139913000Y-136747000D01*
X139875000Y-136731000D01*
X139837000Y-136713000D01*
X139800000Y-136693000D01*
X139764000Y-136671000D01*
X139730000Y-136647000D01*
X139697000Y-136622000D01*
X139665000Y-136595000D01*
X139634000Y-136566000D01*
X139605000Y-136535000D01*
X139578000Y-136503000D01*
X139553000Y-136470000D01*
X139529000Y-136436000D01*
X139507000Y-136400000D01*
X139487000Y-136363000D01*
X139469000Y-136325000D01*
X139453000Y-136287000D01*
X139439000Y-136247000D01*
X139427000Y-136207000D01*
X139417000Y-136166000D01*
X139410000Y-136125000D01*
X139404000Y-136084000D01*
X139401000Y-136042000D01*
X139400000Y-136000000D01*
X139401000Y-135958000D01*
X139404000Y-135916000D01*
X139410000Y-135875000D01*
X139417000Y-135834000D01*
X139427000Y-135793000D01*
X139439000Y-135753000D01*
X139453000Y-135713000D01*
X139469000Y-135675000D01*
X139487000Y-135637000D01*
X139507000Y-135600000D01*
X139529000Y-135564000D01*
X139553000Y-135530000D01*
X139578000Y-135497000D01*
X139605000Y-135465000D01*
X139634000Y-135434000D01*
X139665000Y-135405000D01*
X139697000Y-135378000D01*
X139730000Y-135353000D01*
X139764000Y-135329000D01*
X139800000Y-135307000D01*
X139837000Y-135287000D01*
X139875000Y-135269000D01*
X139913000Y-135253000D01*
X139953000Y-135239000D01*
X139993000Y-135227000D01*
X140034000Y-135217000D01*
X140075000Y-135210000D01*
X140116000Y-135204000D01*
X140158000Y-135201000D01*
X140200000Y-135200000D01*
X142600000Y-135200000D01*
X142600000Y-136800000D01*
G36*
X142600000Y-113940000D02*
G01*
X140200000Y-113940000D01*
X140158000Y-113939000D01*
X140116000Y-113936000D01*
X140075000Y-113930000D01*
X140034000Y-113923000D01*
X139993000Y-113913000D01*
X139953000Y-113901000D01*
X139913000Y-113887000D01*
X139875000Y-113871000D01*
X139837000Y-113853000D01*
X139800000Y-113833000D01*
X139764000Y-113811000D01*
X139730000Y-113787000D01*
X139697000Y-113762000D01*
X139665000Y-113735000D01*
X139634000Y-113706000D01*
X139605000Y-113675000D01*
X139578000Y-113643000D01*
X139553000Y-113610000D01*
X139529000Y-113576000D01*
X139507000Y-113540000D01*
X139487000Y-113503000D01*
X139469000Y-113465000D01*
X139453000Y-113427000D01*
X139439000Y-113387000D01*
X139427000Y-113347000D01*
X139417000Y-113306000D01*
X139410000Y-113265000D01*
X139404000Y-113224000D01*
X139401000Y-113182000D01*
X139400000Y-113140000D01*
X139401000Y-113098000D01*
X139404000Y-113056000D01*
X139410000Y-113015000D01*
X139417000Y-112974000D01*
X139427000Y-112933000D01*
X139439000Y-112893000D01*
X139453000Y-112853000D01*
X139469000Y-112815000D01*
X139487000Y-112777000D01*
X139507000Y-112740000D01*
X139529000Y-112704000D01*
X139553000Y-112670000D01*
X139578000Y-112637000D01*
X139605000Y-112605000D01*
X139634000Y-112574000D01*
X139665000Y-112545000D01*
X139697000Y-112518000D01*
X139730000Y-112493000D01*
X139764000Y-112469000D01*
X139800000Y-112447000D01*
X139837000Y-112427000D01*
X139875000Y-112409000D01*
X139913000Y-112393000D01*
X139953000Y-112379000D01*
X139993000Y-112367000D01*
X140034000Y-112357000D01*
X140075000Y-112350000D01*
X140116000Y-112344000D01*
X140158000Y-112341000D01*
X140200000Y-112340000D01*
X142600000Y-112340000D01*
X142600000Y-113940000D01*
G37*
X142600000Y-113940000D02*
X140200000Y-113940000D01*
X140158000Y-113939000D01*
X140116000Y-113936000D01*
X140075000Y-113930000D01*
X140034000Y-113923000D01*
X139993000Y-113913000D01*
X139953000Y-113901000D01*
X139913000Y-113887000D01*
X139875000Y-113871000D01*
X139837000Y-113853000D01*
X139800000Y-113833000D01*
X139764000Y-113811000D01*
X139730000Y-113787000D01*
X139697000Y-113762000D01*
X139665000Y-113735000D01*
X139634000Y-113706000D01*
X139605000Y-113675000D01*
X139578000Y-113643000D01*
X139553000Y-113610000D01*
X139529000Y-113576000D01*
X139507000Y-113540000D01*
X139487000Y-113503000D01*
X139469000Y-113465000D01*
X139453000Y-113427000D01*
X139439000Y-113387000D01*
X139427000Y-113347000D01*
X139417000Y-113306000D01*
X139410000Y-113265000D01*
X139404000Y-113224000D01*
X139401000Y-113182000D01*
X139400000Y-113140000D01*
X139401000Y-113098000D01*
X139404000Y-113056000D01*
X139410000Y-113015000D01*
X139417000Y-112974000D01*
X139427000Y-112933000D01*
X139439000Y-112893000D01*
X139453000Y-112853000D01*
X139469000Y-112815000D01*
X139487000Y-112777000D01*
X139507000Y-112740000D01*
X139529000Y-112704000D01*
X139553000Y-112670000D01*
X139578000Y-112637000D01*
X139605000Y-112605000D01*
X139634000Y-112574000D01*
X139665000Y-112545000D01*
X139697000Y-112518000D01*
X139730000Y-112493000D01*
X139764000Y-112469000D01*
X139800000Y-112447000D01*
X139837000Y-112427000D01*
X139875000Y-112409000D01*
X139913000Y-112393000D01*
X139953000Y-112379000D01*
X139993000Y-112367000D01*
X140034000Y-112357000D01*
X140075000Y-112350000D01*
X140116000Y-112344000D01*
X140158000Y-112341000D01*
X140200000Y-112340000D01*
X142600000Y-112340000D01*
X142600000Y-113940000D01*
G36*
X122462000Y-104721000D02*
G01*
X122504000Y-104724000D01*
X122545000Y-104730000D01*
X122586000Y-104737000D01*
X122627000Y-104747000D01*
X122667000Y-104759000D01*
X122707000Y-104773000D01*
X122745000Y-104789000D01*
X122783000Y-104807000D01*
X122820000Y-104827000D01*
X122856000Y-104849000D01*
X122890000Y-104873000D01*
X122923000Y-104898000D01*
X122955000Y-104925000D01*
X122986000Y-104954000D01*
X123015000Y-104985000D01*
X123042000Y-105017000D01*
X123067000Y-105050000D01*
X123091000Y-105084000D01*
X123113000Y-105120000D01*
X123133000Y-105157000D01*
X123151000Y-105195000D01*
X123167000Y-105233000D01*
X123181000Y-105273000D01*
X123193000Y-105313000D01*
X123203000Y-105354000D01*
X123210000Y-105395000D01*
X123216000Y-105436000D01*
X123219000Y-105478000D01*
X123220000Y-105520000D01*
X123219000Y-105562000D01*
X123216000Y-105604000D01*
X123210000Y-105645000D01*
X123203000Y-105686000D01*
X123193000Y-105727000D01*
X123181000Y-105767000D01*
X123167000Y-105807000D01*
X123151000Y-105845000D01*
X123133000Y-105883000D01*
X123113000Y-105920000D01*
X123091000Y-105956000D01*
X123067000Y-105990000D01*
X123042000Y-106023000D01*
X123015000Y-106055000D01*
X122986000Y-106086000D01*
X122955000Y-106115000D01*
X122923000Y-106142000D01*
X122890000Y-106167000D01*
X122856000Y-106191000D01*
X122820000Y-106213000D01*
X122783000Y-106233000D01*
X122745000Y-106251000D01*
X122707000Y-106267000D01*
X122667000Y-106281000D01*
X122627000Y-106293000D01*
X122586000Y-106303000D01*
X122545000Y-106310000D01*
X122504000Y-106316000D01*
X122462000Y-106319000D01*
X122420000Y-106320000D01*
X120020000Y-106320000D01*
X120020000Y-104720000D01*
X122420000Y-104720000D01*
X122462000Y-104721000D01*
G37*
X122462000Y-104721000D02*
X122504000Y-104724000D01*
X122545000Y-104730000D01*
X122586000Y-104737000D01*
X122627000Y-104747000D01*
X122667000Y-104759000D01*
X122707000Y-104773000D01*
X122745000Y-104789000D01*
X122783000Y-104807000D01*
X122820000Y-104827000D01*
X122856000Y-104849000D01*
X122890000Y-104873000D01*
X122923000Y-104898000D01*
X122955000Y-104925000D01*
X122986000Y-104954000D01*
X123015000Y-104985000D01*
X123042000Y-105017000D01*
X123067000Y-105050000D01*
X123091000Y-105084000D01*
X123113000Y-105120000D01*
X123133000Y-105157000D01*
X123151000Y-105195000D01*
X123167000Y-105233000D01*
X123181000Y-105273000D01*
X123193000Y-105313000D01*
X123203000Y-105354000D01*
X123210000Y-105395000D01*
X123216000Y-105436000D01*
X123219000Y-105478000D01*
X123220000Y-105520000D01*
X123219000Y-105562000D01*
X123216000Y-105604000D01*
X123210000Y-105645000D01*
X123203000Y-105686000D01*
X123193000Y-105727000D01*
X123181000Y-105767000D01*
X123167000Y-105807000D01*
X123151000Y-105845000D01*
X123133000Y-105883000D01*
X123113000Y-105920000D01*
X123091000Y-105956000D01*
X123067000Y-105990000D01*
X123042000Y-106023000D01*
X123015000Y-106055000D01*
X122986000Y-106086000D01*
X122955000Y-106115000D01*
X122923000Y-106142000D01*
X122890000Y-106167000D01*
X122856000Y-106191000D01*
X122820000Y-106213000D01*
X122783000Y-106233000D01*
X122745000Y-106251000D01*
X122707000Y-106267000D01*
X122667000Y-106281000D01*
X122627000Y-106293000D01*
X122586000Y-106303000D01*
X122545000Y-106310000D01*
X122504000Y-106316000D01*
X122462000Y-106319000D01*
X122420000Y-106320000D01*
X120020000Y-106320000D01*
X120020000Y-104720000D01*
X122420000Y-104720000D01*
X122462000Y-104721000D01*
G36*
X122462000Y-127581000D02*
G01*
X122504000Y-127584000D01*
X122545000Y-127590000D01*
X122586000Y-127597000D01*
X122627000Y-127607000D01*
X122667000Y-127619000D01*
X122707000Y-127633000D01*
X122745000Y-127649000D01*
X122783000Y-127667000D01*
X122820000Y-127687000D01*
X122856000Y-127709000D01*
X122890000Y-127733000D01*
X122923000Y-127758000D01*
X122955000Y-127785000D01*
X122986000Y-127814000D01*
X123015000Y-127845000D01*
X123042000Y-127877000D01*
X123067000Y-127910000D01*
X123091000Y-127944000D01*
X123113000Y-127980000D01*
X123133000Y-128017000D01*
X123151000Y-128055000D01*
X123167000Y-128093000D01*
X123181000Y-128133000D01*
X123193000Y-128173000D01*
X123203000Y-128214000D01*
X123210000Y-128255000D01*
X123216000Y-128296000D01*
X123219000Y-128338000D01*
X123220000Y-128380000D01*
X123219000Y-128422000D01*
X123216000Y-128464000D01*
X123210000Y-128505000D01*
X123203000Y-128546000D01*
X123193000Y-128587000D01*
X123181000Y-128627000D01*
X123167000Y-128667000D01*
X123151000Y-128705000D01*
X123133000Y-128743000D01*
X123113000Y-128780000D01*
X123091000Y-128816000D01*
X123067000Y-128850000D01*
X123042000Y-128883000D01*
X123015000Y-128915000D01*
X122986000Y-128946000D01*
X122955000Y-128975000D01*
X122923000Y-129002000D01*
X122890000Y-129027000D01*
X122856000Y-129051000D01*
X122820000Y-129073000D01*
X122783000Y-129093000D01*
X122745000Y-129111000D01*
X122707000Y-129127000D01*
X122667000Y-129141000D01*
X122627000Y-129153000D01*
X122586000Y-129163000D01*
X122545000Y-129170000D01*
X122504000Y-129176000D01*
X122462000Y-129179000D01*
X122420000Y-129180000D01*
X120020000Y-129180000D01*
X120020000Y-127580000D01*
X122420000Y-127580000D01*
X122462000Y-127581000D01*
G37*
X122462000Y-127581000D02*
X122504000Y-127584000D01*
X122545000Y-127590000D01*
X122586000Y-127597000D01*
X122627000Y-127607000D01*
X122667000Y-127619000D01*
X122707000Y-127633000D01*
X122745000Y-127649000D01*
X122783000Y-127667000D01*
X122820000Y-127687000D01*
X122856000Y-127709000D01*
X122890000Y-127733000D01*
X122923000Y-127758000D01*
X122955000Y-127785000D01*
X122986000Y-127814000D01*
X123015000Y-127845000D01*
X123042000Y-127877000D01*
X123067000Y-127910000D01*
X123091000Y-127944000D01*
X123113000Y-127980000D01*
X123133000Y-128017000D01*
X123151000Y-128055000D01*
X123167000Y-128093000D01*
X123181000Y-128133000D01*
X123193000Y-128173000D01*
X123203000Y-128214000D01*
X123210000Y-128255000D01*
X123216000Y-128296000D01*
X123219000Y-128338000D01*
X123220000Y-128380000D01*
X123219000Y-128422000D01*
X123216000Y-128464000D01*
X123210000Y-128505000D01*
X123203000Y-128546000D01*
X123193000Y-128587000D01*
X123181000Y-128627000D01*
X123167000Y-128667000D01*
X123151000Y-128705000D01*
X123133000Y-128743000D01*
X123113000Y-128780000D01*
X123091000Y-128816000D01*
X123067000Y-128850000D01*
X123042000Y-128883000D01*
X123015000Y-128915000D01*
X122986000Y-128946000D01*
X122955000Y-128975000D01*
X122923000Y-129002000D01*
X122890000Y-129027000D01*
X122856000Y-129051000D01*
X122820000Y-129073000D01*
X122783000Y-129093000D01*
X122745000Y-129111000D01*
X122707000Y-129127000D01*
X122667000Y-129141000D01*
X122627000Y-129153000D01*
X122586000Y-129163000D01*
X122545000Y-129170000D01*
X122504000Y-129176000D01*
X122462000Y-129179000D01*
X122420000Y-129180000D01*
X120020000Y-129180000D01*
X120020000Y-127580000D01*
X122420000Y-127580000D01*
X122462000Y-127581000D01*
G36*
X142600000Y-108860000D02*
G01*
X139590000Y-108860000D01*
X139579000Y-108859000D01*
X139569000Y-108858000D01*
X139558000Y-108856000D01*
X139528000Y-108847000D01*
X139519000Y-108843000D01*
X139509000Y-108838000D01*
X139491000Y-108828000D01*
X139482000Y-108822000D01*
X139474000Y-108815000D01*
X139466000Y-108809000D01*
X139459000Y-108801000D01*
X139451000Y-108794000D01*
X139445000Y-108786000D01*
X139438000Y-108778000D01*
X139432000Y-108769000D01*
X139422000Y-108751000D01*
X139417000Y-108741000D01*
X139413000Y-108732000D01*
X139404000Y-108702000D01*
X139402000Y-108691000D01*
X139401000Y-108681000D01*
X139400000Y-108670000D01*
X139400000Y-107450000D01*
X139401000Y-107439000D01*
X139402000Y-107429000D01*
X139404000Y-107418000D01*
X139413000Y-107388000D01*
X139417000Y-107379000D01*
X139422000Y-107369000D01*
X139432000Y-107351000D01*
X139438000Y-107342000D01*
X139445000Y-107334000D01*
X139451000Y-107326000D01*
X139459000Y-107319000D01*
X139466000Y-107311000D01*
X139474000Y-107305000D01*
X139482000Y-107298000D01*
X139491000Y-107292000D01*
X139509000Y-107282000D01*
X139519000Y-107277000D01*
X139528000Y-107273000D01*
X139558000Y-107264000D01*
X139569000Y-107262000D01*
X139579000Y-107261000D01*
X139590000Y-107260000D01*
X142600000Y-107260000D01*
X142600000Y-108860000D01*
G37*
X142600000Y-108860000D02*
X139590000Y-108860000D01*
X139579000Y-108859000D01*
X139569000Y-108858000D01*
X139558000Y-108856000D01*
X139528000Y-108847000D01*
X139519000Y-108843000D01*
X139509000Y-108838000D01*
X139491000Y-108828000D01*
X139482000Y-108822000D01*
X139474000Y-108815000D01*
X139466000Y-108809000D01*
X139459000Y-108801000D01*
X139451000Y-108794000D01*
X139445000Y-108786000D01*
X139438000Y-108778000D01*
X139432000Y-108769000D01*
X139422000Y-108751000D01*
X139417000Y-108741000D01*
X139413000Y-108732000D01*
X139404000Y-108702000D01*
X139402000Y-108691000D01*
X139401000Y-108681000D01*
X139400000Y-108670000D01*
X139400000Y-107450000D01*
X139401000Y-107439000D01*
X139402000Y-107429000D01*
X139404000Y-107418000D01*
X139413000Y-107388000D01*
X139417000Y-107379000D01*
X139422000Y-107369000D01*
X139432000Y-107351000D01*
X139438000Y-107342000D01*
X139445000Y-107334000D01*
X139451000Y-107326000D01*
X139459000Y-107319000D01*
X139466000Y-107311000D01*
X139474000Y-107305000D01*
X139482000Y-107298000D01*
X139491000Y-107292000D01*
X139509000Y-107282000D01*
X139519000Y-107277000D01*
X139528000Y-107273000D01*
X139558000Y-107264000D01*
X139569000Y-107262000D01*
X139579000Y-107261000D01*
X139590000Y-107260000D01*
X142600000Y-107260000D01*
X142600000Y-108860000D01*
G36*
X122462000Y-147901000D02*
G01*
X122504000Y-147904000D01*
X122545000Y-147910000D01*
X122586000Y-147917000D01*
X122627000Y-147927000D01*
X122667000Y-147939000D01*
X122707000Y-147953000D01*
X122745000Y-147969000D01*
X122783000Y-147987000D01*
X122820000Y-148007000D01*
X122856000Y-148029000D01*
X122890000Y-148053000D01*
X122923000Y-148078000D01*
X122955000Y-148105000D01*
X122986000Y-148134000D01*
X123015000Y-148165000D01*
X123042000Y-148197000D01*
X123067000Y-148230000D01*
X123091000Y-148264000D01*
X123113000Y-148300000D01*
X123133000Y-148337000D01*
X123151000Y-148375000D01*
X123167000Y-148413000D01*
X123181000Y-148453000D01*
X123193000Y-148493000D01*
X123203000Y-148534000D01*
X123210000Y-148575000D01*
X123216000Y-148616000D01*
X123219000Y-148658000D01*
X123220000Y-148700000D01*
X123219000Y-148742000D01*
X123216000Y-148784000D01*
X123210000Y-148825000D01*
X123203000Y-148866000D01*
X123193000Y-148907000D01*
X123181000Y-148947000D01*
X123167000Y-148987000D01*
X123151000Y-149025000D01*
X123133000Y-149063000D01*
X123113000Y-149100000D01*
X123091000Y-149136000D01*
X123067000Y-149170000D01*
X123042000Y-149203000D01*
X123015000Y-149235000D01*
X122986000Y-149266000D01*
X122955000Y-149295000D01*
X122923000Y-149322000D01*
X122890000Y-149347000D01*
X122856000Y-149371000D01*
X122820000Y-149393000D01*
X122783000Y-149413000D01*
X122745000Y-149431000D01*
X122707000Y-149447000D01*
X122667000Y-149461000D01*
X122627000Y-149473000D01*
X122586000Y-149483000D01*
X122545000Y-149490000D01*
X122504000Y-149496000D01*
X122462000Y-149499000D01*
X122420000Y-149500000D01*
X120020000Y-149500000D01*
X120020000Y-147900000D01*
X122420000Y-147900000D01*
X122462000Y-147901000D01*
G37*
X122462000Y-147901000D02*
X122504000Y-147904000D01*
X122545000Y-147910000D01*
X122586000Y-147917000D01*
X122627000Y-147927000D01*
X122667000Y-147939000D01*
X122707000Y-147953000D01*
X122745000Y-147969000D01*
X122783000Y-147987000D01*
X122820000Y-148007000D01*
X122856000Y-148029000D01*
X122890000Y-148053000D01*
X122923000Y-148078000D01*
X122955000Y-148105000D01*
X122986000Y-148134000D01*
X123015000Y-148165000D01*
X123042000Y-148197000D01*
X123067000Y-148230000D01*
X123091000Y-148264000D01*
X123113000Y-148300000D01*
X123133000Y-148337000D01*
X123151000Y-148375000D01*
X123167000Y-148413000D01*
X123181000Y-148453000D01*
X123193000Y-148493000D01*
X123203000Y-148534000D01*
X123210000Y-148575000D01*
X123216000Y-148616000D01*
X123219000Y-148658000D01*
X123220000Y-148700000D01*
X123219000Y-148742000D01*
X123216000Y-148784000D01*
X123210000Y-148825000D01*
X123203000Y-148866000D01*
X123193000Y-148907000D01*
X123181000Y-148947000D01*
X123167000Y-148987000D01*
X123151000Y-149025000D01*
X123133000Y-149063000D01*
X123113000Y-149100000D01*
X123091000Y-149136000D01*
X123067000Y-149170000D01*
X123042000Y-149203000D01*
X123015000Y-149235000D01*
X122986000Y-149266000D01*
X122955000Y-149295000D01*
X122923000Y-149322000D01*
X122890000Y-149347000D01*
X122856000Y-149371000D01*
X122820000Y-149393000D01*
X122783000Y-149413000D01*
X122745000Y-149431000D01*
X122707000Y-149447000D01*
X122667000Y-149461000D01*
X122627000Y-149473000D01*
X122586000Y-149483000D01*
X122545000Y-149490000D01*
X122504000Y-149496000D01*
X122462000Y-149499000D01*
X122420000Y-149500000D01*
X120020000Y-149500000D01*
X120020000Y-147900000D01*
X122420000Y-147900000D01*
X122462000Y-147901000D01*
G36*
X142600000Y-146960000D02*
G01*
X139590000Y-146960000D01*
X139579000Y-146959000D01*
X139569000Y-146958000D01*
X139558000Y-146956000D01*
X139528000Y-146947000D01*
X139519000Y-146943000D01*
X139509000Y-146938000D01*
X139491000Y-146928000D01*
X139482000Y-146922000D01*
X139474000Y-146915000D01*
X139466000Y-146909000D01*
X139459000Y-146901000D01*
X139451000Y-146894000D01*
X139445000Y-146886000D01*
X139438000Y-146878000D01*
X139432000Y-146869000D01*
X139422000Y-146851000D01*
X139417000Y-146841000D01*
X139413000Y-146832000D01*
X139404000Y-146802000D01*
X139402000Y-146791000D01*
X139401000Y-146781000D01*
X139400000Y-146770000D01*
X139400000Y-145550000D01*
X139401000Y-145539000D01*
X139402000Y-145529000D01*
X139404000Y-145518000D01*
X139413000Y-145488000D01*
X139417000Y-145479000D01*
X139422000Y-145469000D01*
X139432000Y-145451000D01*
X139438000Y-145442000D01*
X139445000Y-145434000D01*
X139451000Y-145426000D01*
X139459000Y-145419000D01*
X139466000Y-145411000D01*
X139474000Y-145405000D01*
X139482000Y-145398000D01*
X139491000Y-145392000D01*
X139509000Y-145382000D01*
X139519000Y-145377000D01*
X139528000Y-145373000D01*
X139558000Y-145364000D01*
X139569000Y-145362000D01*
X139579000Y-145361000D01*
X139590000Y-145360000D01*
X142600000Y-145360000D01*
X142600000Y-146960000D01*
G37*
X142600000Y-146960000D02*
X139590000Y-146960000D01*
X139579000Y-146959000D01*
X139569000Y-146958000D01*
X139558000Y-146956000D01*
X139528000Y-146947000D01*
X139519000Y-146943000D01*
X139509000Y-146938000D01*
X139491000Y-146928000D01*
X139482000Y-146922000D01*
X139474000Y-146915000D01*
X139466000Y-146909000D01*
X139459000Y-146901000D01*
X139451000Y-146894000D01*
X139445000Y-146886000D01*
X139438000Y-146878000D01*
X139432000Y-146869000D01*
X139422000Y-146851000D01*
X139417000Y-146841000D01*
X139413000Y-146832000D01*
X139404000Y-146802000D01*
X139402000Y-146791000D01*
X139401000Y-146781000D01*
X139400000Y-146770000D01*
X139400000Y-145550000D01*
X139401000Y-145539000D01*
X139402000Y-145529000D01*
X139404000Y-145518000D01*
X139413000Y-145488000D01*
X139417000Y-145479000D01*
X139422000Y-145469000D01*
X139432000Y-145451000D01*
X139438000Y-145442000D01*
X139445000Y-145434000D01*
X139451000Y-145426000D01*
X139459000Y-145419000D01*
X139466000Y-145411000D01*
X139474000Y-145405000D01*
X139482000Y-145398000D01*
X139491000Y-145392000D01*
X139509000Y-145382000D01*
X139519000Y-145377000D01*
X139528000Y-145373000D01*
X139558000Y-145364000D01*
X139569000Y-145362000D01*
X139579000Y-145361000D01*
X139590000Y-145360000D01*
X142600000Y-145360000D01*
X142600000Y-146960000D01*
G36*
X122462000Y-102181000D02*
G01*
X122504000Y-102184000D01*
X122545000Y-102190000D01*
X122586000Y-102197000D01*
X122627000Y-102207000D01*
X122667000Y-102219000D01*
X122707000Y-102233000D01*
X122745000Y-102249000D01*
X122783000Y-102267000D01*
X122820000Y-102287000D01*
X122856000Y-102309000D01*
X122890000Y-102333000D01*
X122923000Y-102358000D01*
X122955000Y-102385000D01*
X122986000Y-102414000D01*
X123015000Y-102445000D01*
X123042000Y-102477000D01*
X123067000Y-102510000D01*
X123091000Y-102544000D01*
X123113000Y-102580000D01*
X123133000Y-102617000D01*
X123151000Y-102655000D01*
X123167000Y-102693000D01*
X123181000Y-102733000D01*
X123193000Y-102773000D01*
X123203000Y-102814000D01*
X123210000Y-102855000D01*
X123216000Y-102896000D01*
X123219000Y-102938000D01*
X123220000Y-102980000D01*
X123219000Y-103022000D01*
X123216000Y-103064000D01*
X123210000Y-103105000D01*
X123203000Y-103146000D01*
X123193000Y-103187000D01*
X123181000Y-103227000D01*
X123167000Y-103267000D01*
X123151000Y-103305000D01*
X123133000Y-103343000D01*
X123113000Y-103380000D01*
X123091000Y-103416000D01*
X123067000Y-103450000D01*
X123042000Y-103483000D01*
X123015000Y-103515000D01*
X122986000Y-103546000D01*
X122955000Y-103575000D01*
X122923000Y-103602000D01*
X122890000Y-103627000D01*
X122856000Y-103651000D01*
X122820000Y-103673000D01*
X122783000Y-103693000D01*
X122745000Y-103711000D01*
X122707000Y-103727000D01*
X122667000Y-103741000D01*
X122627000Y-103753000D01*
X122586000Y-103763000D01*
X122545000Y-103770000D01*
X122504000Y-103776000D01*
X122462000Y-103779000D01*
X122420000Y-103780000D01*
X120020000Y-103780000D01*
X120020000Y-102180000D01*
X122420000Y-102180000D01*
X122462000Y-102181000D01*
G37*
X122462000Y-102181000D02*
X122504000Y-102184000D01*
X122545000Y-102190000D01*
X122586000Y-102197000D01*
X122627000Y-102207000D01*
X122667000Y-102219000D01*
X122707000Y-102233000D01*
X122745000Y-102249000D01*
X122783000Y-102267000D01*
X122820000Y-102287000D01*
X122856000Y-102309000D01*
X122890000Y-102333000D01*
X122923000Y-102358000D01*
X122955000Y-102385000D01*
X122986000Y-102414000D01*
X123015000Y-102445000D01*
X123042000Y-102477000D01*
X123067000Y-102510000D01*
X123091000Y-102544000D01*
X123113000Y-102580000D01*
X123133000Y-102617000D01*
X123151000Y-102655000D01*
X123167000Y-102693000D01*
X123181000Y-102733000D01*
X123193000Y-102773000D01*
X123203000Y-102814000D01*
X123210000Y-102855000D01*
X123216000Y-102896000D01*
X123219000Y-102938000D01*
X123220000Y-102980000D01*
X123219000Y-103022000D01*
X123216000Y-103064000D01*
X123210000Y-103105000D01*
X123203000Y-103146000D01*
X123193000Y-103187000D01*
X123181000Y-103227000D01*
X123167000Y-103267000D01*
X123151000Y-103305000D01*
X123133000Y-103343000D01*
X123113000Y-103380000D01*
X123091000Y-103416000D01*
X123067000Y-103450000D01*
X123042000Y-103483000D01*
X123015000Y-103515000D01*
X122986000Y-103546000D01*
X122955000Y-103575000D01*
X122923000Y-103602000D01*
X122890000Y-103627000D01*
X122856000Y-103651000D01*
X122820000Y-103673000D01*
X122783000Y-103693000D01*
X122745000Y-103711000D01*
X122707000Y-103727000D01*
X122667000Y-103741000D01*
X122627000Y-103753000D01*
X122586000Y-103763000D01*
X122545000Y-103770000D01*
X122504000Y-103776000D01*
X122462000Y-103779000D01*
X122420000Y-103780000D01*
X120020000Y-103780000D01*
X120020000Y-102180000D01*
X122420000Y-102180000D01*
X122462000Y-102181000D01*
G36*
X132110000Y-103820000D02*
G01*
X132109000Y-103831000D01*
X132108000Y-103841000D01*
X132106000Y-103852000D01*
X132097000Y-103882000D01*
X132093000Y-103891000D01*
X132088000Y-103901000D01*
X132078000Y-103919000D01*
X132072000Y-103928000D01*
X132065000Y-103936000D01*
X132059000Y-103944000D01*
X132051000Y-103951000D01*
X132044000Y-103959000D01*
X132036000Y-103965000D01*
X132028000Y-103972000D01*
X132019000Y-103978000D01*
X132001000Y-103988000D01*
X131991000Y-103993000D01*
X131982000Y-103997000D01*
X131952000Y-104006000D01*
X131941000Y-104008000D01*
X131931000Y-104009000D01*
X131920000Y-104010000D01*
X130700000Y-104010000D01*
X130689000Y-104009000D01*
X130679000Y-104008000D01*
X130668000Y-104006000D01*
X130638000Y-103997000D01*
X130629000Y-103993000D01*
X130619000Y-103988000D01*
X130601000Y-103978000D01*
X130592000Y-103972000D01*
X130584000Y-103965000D01*
X130576000Y-103959000D01*
X130569000Y-103951000D01*
X130561000Y-103944000D01*
X130555000Y-103936000D01*
X130548000Y-103928000D01*
X130542000Y-103919000D01*
X130532000Y-103901000D01*
X130527000Y-103891000D01*
X130523000Y-103882000D01*
X130514000Y-103852000D01*
X130512000Y-103841000D01*
X130511000Y-103831000D01*
X130510000Y-103820000D01*
X130510000Y-100810000D01*
X132110000Y-100810000D01*
X132110000Y-103820000D01*
G37*
X132110000Y-103820000D02*
X132109000Y-103831000D01*
X132108000Y-103841000D01*
X132106000Y-103852000D01*
X132097000Y-103882000D01*
X132093000Y-103891000D01*
X132088000Y-103901000D01*
X132078000Y-103919000D01*
X132072000Y-103928000D01*
X132065000Y-103936000D01*
X132059000Y-103944000D01*
X132051000Y-103951000D01*
X132044000Y-103959000D01*
X132036000Y-103965000D01*
X132028000Y-103972000D01*
X132019000Y-103978000D01*
X132001000Y-103988000D01*
X131991000Y-103993000D01*
X131982000Y-103997000D01*
X131952000Y-104006000D01*
X131941000Y-104008000D01*
X131931000Y-104009000D01*
X131920000Y-104010000D01*
X130700000Y-104010000D01*
X130689000Y-104009000D01*
X130679000Y-104008000D01*
X130668000Y-104006000D01*
X130638000Y-103997000D01*
X130629000Y-103993000D01*
X130619000Y-103988000D01*
X130601000Y-103978000D01*
X130592000Y-103972000D01*
X130584000Y-103965000D01*
X130576000Y-103959000D01*
X130569000Y-103951000D01*
X130561000Y-103944000D01*
X130555000Y-103936000D01*
X130548000Y-103928000D01*
X130542000Y-103919000D01*
X130532000Y-103901000D01*
X130527000Y-103891000D01*
X130523000Y-103882000D01*
X130514000Y-103852000D01*
X130512000Y-103841000D01*
X130511000Y-103831000D01*
X130510000Y-103820000D01*
X130510000Y-100810000D01*
X132110000Y-100810000D01*
X132110000Y-103820000D01*
G36*
X142600000Y-121560000D02*
G01*
X139590000Y-121560000D01*
X139579000Y-121559000D01*
X139569000Y-121558000D01*
X139558000Y-121556000D01*
X139528000Y-121547000D01*
X139519000Y-121543000D01*
X139509000Y-121538000D01*
X139491000Y-121528000D01*
X139482000Y-121522000D01*
X139474000Y-121515000D01*
X139466000Y-121509000D01*
X139459000Y-121501000D01*
X139451000Y-121494000D01*
X139445000Y-121486000D01*
X139438000Y-121478000D01*
X139432000Y-121469000D01*
X139422000Y-121451000D01*
X139417000Y-121441000D01*
X139413000Y-121432000D01*
X139404000Y-121402000D01*
X139402000Y-121391000D01*
X139401000Y-121381000D01*
X139400000Y-121370000D01*
X139400000Y-120150000D01*
X139401000Y-120139000D01*
X139402000Y-120129000D01*
X139404000Y-120118000D01*
X139413000Y-120088000D01*
X139417000Y-120079000D01*
X139422000Y-120069000D01*
X139432000Y-120051000D01*
X139438000Y-120042000D01*
X139445000Y-120034000D01*
X139451000Y-120026000D01*
X139459000Y-120019000D01*
X139466000Y-120011000D01*
X139474000Y-120005000D01*
X139482000Y-119998000D01*
X139491000Y-119992000D01*
X139509000Y-119982000D01*
X139519000Y-119977000D01*
X139528000Y-119973000D01*
X139558000Y-119964000D01*
X139569000Y-119962000D01*
X139579000Y-119961000D01*
X139590000Y-119960000D01*
X142600000Y-119960000D01*
X142600000Y-121560000D01*
G37*
X142600000Y-121560000D02*
X139590000Y-121560000D01*
X139579000Y-121559000D01*
X139569000Y-121558000D01*
X139558000Y-121556000D01*
X139528000Y-121547000D01*
X139519000Y-121543000D01*
X139509000Y-121538000D01*
X139491000Y-121528000D01*
X139482000Y-121522000D01*
X139474000Y-121515000D01*
X139466000Y-121509000D01*
X139459000Y-121501000D01*
X139451000Y-121494000D01*
X139445000Y-121486000D01*
X139438000Y-121478000D01*
X139432000Y-121469000D01*
X139422000Y-121451000D01*
X139417000Y-121441000D01*
X139413000Y-121432000D01*
X139404000Y-121402000D01*
X139402000Y-121391000D01*
X139401000Y-121381000D01*
X139400000Y-121370000D01*
X139400000Y-120150000D01*
X139401000Y-120139000D01*
X139402000Y-120129000D01*
X139404000Y-120118000D01*
X139413000Y-120088000D01*
X139417000Y-120079000D01*
X139422000Y-120069000D01*
X139432000Y-120051000D01*
X139438000Y-120042000D01*
X139445000Y-120034000D01*
X139451000Y-120026000D01*
X139459000Y-120019000D01*
X139466000Y-120011000D01*
X139474000Y-120005000D01*
X139482000Y-119998000D01*
X139491000Y-119992000D01*
X139509000Y-119982000D01*
X139519000Y-119977000D01*
X139528000Y-119973000D01*
X139558000Y-119964000D01*
X139569000Y-119962000D01*
X139579000Y-119961000D01*
X139590000Y-119960000D01*
X142600000Y-119960000D01*
X142600000Y-121560000D01*
G36*
X122462000Y-135201000D02*
G01*
X122504000Y-135204000D01*
X122545000Y-135210000D01*
X122586000Y-135217000D01*
X122627000Y-135227000D01*
X122667000Y-135239000D01*
X122707000Y-135253000D01*
X122745000Y-135269000D01*
X122783000Y-135287000D01*
X122820000Y-135307000D01*
X122856000Y-135329000D01*
X122890000Y-135353000D01*
X122923000Y-135378000D01*
X122955000Y-135405000D01*
X122986000Y-135434000D01*
X123015000Y-135465000D01*
X123042000Y-135497000D01*
X123067000Y-135530000D01*
X123091000Y-135564000D01*
X123113000Y-135600000D01*
X123133000Y-135637000D01*
X123151000Y-135675000D01*
X123167000Y-135713000D01*
X123181000Y-135753000D01*
X123193000Y-135793000D01*
X123203000Y-135834000D01*
X123210000Y-135875000D01*
X123216000Y-135916000D01*
X123219000Y-135958000D01*
X123220000Y-136000000D01*
X123219000Y-136042000D01*
X123216000Y-136084000D01*
X123210000Y-136125000D01*
X123203000Y-136166000D01*
X123193000Y-136207000D01*
X123181000Y-136247000D01*
X123167000Y-136287000D01*
X123151000Y-136325000D01*
X123133000Y-136363000D01*
X123113000Y-136400000D01*
X123091000Y-136436000D01*
X123067000Y-136470000D01*
X123042000Y-136503000D01*
X123015000Y-136535000D01*
X122986000Y-136566000D01*
X122955000Y-136595000D01*
X122923000Y-136622000D01*
X122890000Y-136647000D01*
X122856000Y-136671000D01*
X122820000Y-136693000D01*
X122783000Y-136713000D01*
X122745000Y-136731000D01*
X122707000Y-136747000D01*
X122667000Y-136761000D01*
X122627000Y-136773000D01*
X122586000Y-136783000D01*
X122545000Y-136790000D01*
X122504000Y-136796000D01*
X122462000Y-136799000D01*
X122420000Y-136800000D01*
X120020000Y-136800000D01*
X120020000Y-135200000D01*
X122420000Y-135200000D01*
X122462000Y-135201000D01*
G37*
X122462000Y-135201000D02*
X122504000Y-135204000D01*
X122545000Y-135210000D01*
X122586000Y-135217000D01*
X122627000Y-135227000D01*
X122667000Y-135239000D01*
X122707000Y-135253000D01*
X122745000Y-135269000D01*
X122783000Y-135287000D01*
X122820000Y-135307000D01*
X122856000Y-135329000D01*
X122890000Y-135353000D01*
X122923000Y-135378000D01*
X122955000Y-135405000D01*
X122986000Y-135434000D01*
X123015000Y-135465000D01*
X123042000Y-135497000D01*
X123067000Y-135530000D01*
X123091000Y-135564000D01*
X123113000Y-135600000D01*
X123133000Y-135637000D01*
X123151000Y-135675000D01*
X123167000Y-135713000D01*
X123181000Y-135753000D01*
X123193000Y-135793000D01*
X123203000Y-135834000D01*
X123210000Y-135875000D01*
X123216000Y-135916000D01*
X123219000Y-135958000D01*
X123220000Y-136000000D01*
X123219000Y-136042000D01*
X123216000Y-136084000D01*
X123210000Y-136125000D01*
X123203000Y-136166000D01*
X123193000Y-136207000D01*
X123181000Y-136247000D01*
X123167000Y-136287000D01*
X123151000Y-136325000D01*
X123133000Y-136363000D01*
X123113000Y-136400000D01*
X123091000Y-136436000D01*
X123067000Y-136470000D01*
X123042000Y-136503000D01*
X123015000Y-136535000D01*
X122986000Y-136566000D01*
X122955000Y-136595000D01*
X122923000Y-136622000D01*
X122890000Y-136647000D01*
X122856000Y-136671000D01*
X122820000Y-136693000D01*
X122783000Y-136713000D01*
X122745000Y-136731000D01*
X122707000Y-136747000D01*
X122667000Y-136761000D01*
X122627000Y-136773000D01*
X122586000Y-136783000D01*
X122545000Y-136790000D01*
X122504000Y-136796000D01*
X122462000Y-136799000D01*
X122420000Y-136800000D01*
X120020000Y-136800000D01*
X120020000Y-135200000D01*
X122420000Y-135200000D01*
X122462000Y-135201000D01*
G36*
X122462000Y-112341000D02*
G01*
X122504000Y-112344000D01*
X122545000Y-112350000D01*
X122586000Y-112357000D01*
X122627000Y-112367000D01*
X122667000Y-112379000D01*
X122707000Y-112393000D01*
X122745000Y-112409000D01*
X122783000Y-112427000D01*
X122820000Y-112447000D01*
X122856000Y-112469000D01*
X122890000Y-112493000D01*
X122923000Y-112518000D01*
X122955000Y-112545000D01*
X122986000Y-112574000D01*
X123015000Y-112605000D01*
X123042000Y-112637000D01*
X123067000Y-112670000D01*
X123091000Y-112704000D01*
X123113000Y-112740000D01*
X123133000Y-112777000D01*
X123151000Y-112815000D01*
X123167000Y-112853000D01*
X123181000Y-112893000D01*
X123193000Y-112933000D01*
X123203000Y-112974000D01*
X123210000Y-113015000D01*
X123216000Y-113056000D01*
X123219000Y-113098000D01*
X123220000Y-113140000D01*
X123219000Y-113182000D01*
X123216000Y-113224000D01*
X123210000Y-113265000D01*
X123203000Y-113306000D01*
X123193000Y-113347000D01*
X123181000Y-113387000D01*
X123167000Y-113427000D01*
X123151000Y-113465000D01*
X123133000Y-113503000D01*
X123113000Y-113540000D01*
X123091000Y-113576000D01*
X123067000Y-113610000D01*
X123042000Y-113643000D01*
X123015000Y-113675000D01*
X122986000Y-113706000D01*
X122955000Y-113735000D01*
X122923000Y-113762000D01*
X122890000Y-113787000D01*
X122856000Y-113811000D01*
X122820000Y-113833000D01*
X122783000Y-113853000D01*
X122745000Y-113871000D01*
X122707000Y-113887000D01*
X122667000Y-113901000D01*
X122627000Y-113913000D01*
X122586000Y-113923000D01*
X122545000Y-113930000D01*
X122504000Y-113936000D01*
X122462000Y-113939000D01*
X122420000Y-113940000D01*
X120020000Y-113940000D01*
X120020000Y-112340000D01*
X122420000Y-112340000D01*
X122462000Y-112341000D01*
G37*
X122462000Y-112341000D02*
X122504000Y-112344000D01*
X122545000Y-112350000D01*
X122586000Y-112357000D01*
X122627000Y-112367000D01*
X122667000Y-112379000D01*
X122707000Y-112393000D01*
X122745000Y-112409000D01*
X122783000Y-112427000D01*
X122820000Y-112447000D01*
X122856000Y-112469000D01*
X122890000Y-112493000D01*
X122923000Y-112518000D01*
X122955000Y-112545000D01*
X122986000Y-112574000D01*
X123015000Y-112605000D01*
X123042000Y-112637000D01*
X123067000Y-112670000D01*
X123091000Y-112704000D01*
X123113000Y-112740000D01*
X123133000Y-112777000D01*
X123151000Y-112815000D01*
X123167000Y-112853000D01*
X123181000Y-112893000D01*
X123193000Y-112933000D01*
X123203000Y-112974000D01*
X123210000Y-113015000D01*
X123216000Y-113056000D01*
X123219000Y-113098000D01*
X123220000Y-113140000D01*
X123219000Y-113182000D01*
X123216000Y-113224000D01*
X123210000Y-113265000D01*
X123203000Y-113306000D01*
X123193000Y-113347000D01*
X123181000Y-113387000D01*
X123167000Y-113427000D01*
X123151000Y-113465000D01*
X123133000Y-113503000D01*
X123113000Y-113540000D01*
X123091000Y-113576000D01*
X123067000Y-113610000D01*
X123042000Y-113643000D01*
X123015000Y-113675000D01*
X122986000Y-113706000D01*
X122955000Y-113735000D01*
X122923000Y-113762000D01*
X122890000Y-113787000D01*
X122856000Y-113811000D01*
X122820000Y-113833000D01*
X122783000Y-113853000D01*
X122745000Y-113871000D01*
X122707000Y-113887000D01*
X122667000Y-113901000D01*
X122627000Y-113913000D01*
X122586000Y-113923000D01*
X122545000Y-113930000D01*
X122504000Y-113936000D01*
X122462000Y-113939000D01*
X122420000Y-113940000D01*
X120020000Y-113940000D01*
X120020000Y-112340000D01*
X122420000Y-112340000D01*
X122462000Y-112341000D01*
G36*
X122462000Y-142821000D02*
G01*
X122504000Y-142824000D01*
X122545000Y-142830000D01*
X122586000Y-142837000D01*
X122627000Y-142847000D01*
X122667000Y-142859000D01*
X122707000Y-142873000D01*
X122745000Y-142889000D01*
X122783000Y-142907000D01*
X122820000Y-142927000D01*
X122856000Y-142949000D01*
X122890000Y-142973000D01*
X122923000Y-142998000D01*
X122955000Y-143025000D01*
X122986000Y-143054000D01*
X123015000Y-143085000D01*
X123042000Y-143117000D01*
X123067000Y-143150000D01*
X123091000Y-143184000D01*
X123113000Y-143220000D01*
X123133000Y-143257000D01*
X123151000Y-143295000D01*
X123167000Y-143333000D01*
X123181000Y-143373000D01*
X123193000Y-143413000D01*
X123203000Y-143454000D01*
X123210000Y-143495000D01*
X123216000Y-143536000D01*
X123219000Y-143578000D01*
X123220000Y-143620000D01*
X123219000Y-143662000D01*
X123216000Y-143704000D01*
X123210000Y-143745000D01*
X123203000Y-143786000D01*
X123193000Y-143827000D01*
X123181000Y-143867000D01*
X123167000Y-143907000D01*
X123151000Y-143945000D01*
X123133000Y-143983000D01*
X123113000Y-144020000D01*
X123091000Y-144056000D01*
X123067000Y-144090000D01*
X123042000Y-144123000D01*
X123015000Y-144155000D01*
X122986000Y-144186000D01*
X122955000Y-144215000D01*
X122923000Y-144242000D01*
X122890000Y-144267000D01*
X122856000Y-144291000D01*
X122820000Y-144313000D01*
X122783000Y-144333000D01*
X122745000Y-144351000D01*
X122707000Y-144367000D01*
X122667000Y-144381000D01*
X122627000Y-144393000D01*
X122586000Y-144403000D01*
X122545000Y-144410000D01*
X122504000Y-144416000D01*
X122462000Y-144419000D01*
X122420000Y-144420000D01*
X120020000Y-144420000D01*
X120020000Y-142820000D01*
X122420000Y-142820000D01*
X122462000Y-142821000D01*
G37*
X122462000Y-142821000D02*
X122504000Y-142824000D01*
X122545000Y-142830000D01*
X122586000Y-142837000D01*
X122627000Y-142847000D01*
X122667000Y-142859000D01*
X122707000Y-142873000D01*
X122745000Y-142889000D01*
X122783000Y-142907000D01*
X122820000Y-142927000D01*
X122856000Y-142949000D01*
X122890000Y-142973000D01*
X122923000Y-142998000D01*
X122955000Y-143025000D01*
X122986000Y-143054000D01*
X123015000Y-143085000D01*
X123042000Y-143117000D01*
X123067000Y-143150000D01*
X123091000Y-143184000D01*
X123113000Y-143220000D01*
X123133000Y-143257000D01*
X123151000Y-143295000D01*
X123167000Y-143333000D01*
X123181000Y-143373000D01*
X123193000Y-143413000D01*
X123203000Y-143454000D01*
X123210000Y-143495000D01*
X123216000Y-143536000D01*
X123219000Y-143578000D01*
X123220000Y-143620000D01*
X123219000Y-143662000D01*
X123216000Y-143704000D01*
X123210000Y-143745000D01*
X123203000Y-143786000D01*
X123193000Y-143827000D01*
X123181000Y-143867000D01*
X123167000Y-143907000D01*
X123151000Y-143945000D01*
X123133000Y-143983000D01*
X123113000Y-144020000D01*
X123091000Y-144056000D01*
X123067000Y-144090000D01*
X123042000Y-144123000D01*
X123015000Y-144155000D01*
X122986000Y-144186000D01*
X122955000Y-144215000D01*
X122923000Y-144242000D01*
X122890000Y-144267000D01*
X122856000Y-144291000D01*
X122820000Y-144313000D01*
X122783000Y-144333000D01*
X122745000Y-144351000D01*
X122707000Y-144367000D01*
X122667000Y-144381000D01*
X122627000Y-144393000D01*
X122586000Y-144403000D01*
X122545000Y-144410000D01*
X122504000Y-144416000D01*
X122462000Y-144419000D01*
X122420000Y-144420000D01*
X120020000Y-144420000D01*
X120020000Y-142820000D01*
X122420000Y-142820000D01*
X122462000Y-142821000D01*
G36*
X142600000Y-124100000D02*
G01*
X140200000Y-124100000D01*
X140158000Y-124099000D01*
X140116000Y-124096000D01*
X140075000Y-124090000D01*
X140034000Y-124083000D01*
X139993000Y-124073000D01*
X139953000Y-124061000D01*
X139913000Y-124047000D01*
X139875000Y-124031000D01*
X139837000Y-124013000D01*
X139800000Y-123993000D01*
X139764000Y-123971000D01*
X139730000Y-123947000D01*
X139697000Y-123922000D01*
X139665000Y-123895000D01*
X139634000Y-123866000D01*
X139605000Y-123835000D01*
X139578000Y-123803000D01*
X139553000Y-123770000D01*
X139529000Y-123736000D01*
X139507000Y-123700000D01*
X139487000Y-123663000D01*
X139469000Y-123625000D01*
X139453000Y-123587000D01*
X139439000Y-123547000D01*
X139427000Y-123507000D01*
X139417000Y-123466000D01*
X139410000Y-123425000D01*
X139404000Y-123384000D01*
X139401000Y-123342000D01*
X139400000Y-123300000D01*
X139401000Y-123258000D01*
X139404000Y-123216000D01*
X139410000Y-123175000D01*
X139417000Y-123134000D01*
X139427000Y-123093000D01*
X139439000Y-123053000D01*
X139453000Y-123013000D01*
X139469000Y-122975000D01*
X139487000Y-122937000D01*
X139507000Y-122900000D01*
X139529000Y-122864000D01*
X139553000Y-122830000D01*
X139578000Y-122797000D01*
X139605000Y-122765000D01*
X139634000Y-122734000D01*
X139665000Y-122705000D01*
X139697000Y-122678000D01*
X139730000Y-122653000D01*
X139764000Y-122629000D01*
X139800000Y-122607000D01*
X139837000Y-122587000D01*
X139875000Y-122569000D01*
X139913000Y-122553000D01*
X139953000Y-122539000D01*
X139993000Y-122527000D01*
X140034000Y-122517000D01*
X140075000Y-122510000D01*
X140116000Y-122504000D01*
X140158000Y-122501000D01*
X140200000Y-122500000D01*
X142600000Y-122500000D01*
X142600000Y-124100000D01*
G37*
X142600000Y-124100000D02*
X140200000Y-124100000D01*
X140158000Y-124099000D01*
X140116000Y-124096000D01*
X140075000Y-124090000D01*
X140034000Y-124083000D01*
X139993000Y-124073000D01*
X139953000Y-124061000D01*
X139913000Y-124047000D01*
X139875000Y-124031000D01*
X139837000Y-124013000D01*
X139800000Y-123993000D01*
X139764000Y-123971000D01*
X139730000Y-123947000D01*
X139697000Y-123922000D01*
X139665000Y-123895000D01*
X139634000Y-123866000D01*
X139605000Y-123835000D01*
X139578000Y-123803000D01*
X139553000Y-123770000D01*
X139529000Y-123736000D01*
X139507000Y-123700000D01*
X139487000Y-123663000D01*
X139469000Y-123625000D01*
X139453000Y-123587000D01*
X139439000Y-123547000D01*
X139427000Y-123507000D01*
X139417000Y-123466000D01*
X139410000Y-123425000D01*
X139404000Y-123384000D01*
X139401000Y-123342000D01*
X139400000Y-123300000D01*
X139401000Y-123258000D01*
X139404000Y-123216000D01*
X139410000Y-123175000D01*
X139417000Y-123134000D01*
X139427000Y-123093000D01*
X139439000Y-123053000D01*
X139453000Y-123013000D01*
X139469000Y-122975000D01*
X139487000Y-122937000D01*
X139507000Y-122900000D01*
X139529000Y-122864000D01*
X139553000Y-122830000D01*
X139578000Y-122797000D01*
X139605000Y-122765000D01*
X139634000Y-122734000D01*
X139665000Y-122705000D01*
X139697000Y-122678000D01*
X139730000Y-122653000D01*
X139764000Y-122629000D01*
X139800000Y-122607000D01*
X139837000Y-122587000D01*
X139875000Y-122569000D01*
X139913000Y-122553000D01*
X139953000Y-122539000D01*
X139993000Y-122527000D01*
X140034000Y-122517000D01*
X140075000Y-122510000D01*
X140116000Y-122504000D01*
X140158000Y-122501000D01*
X140200000Y-122500000D01*
X142600000Y-122500000D01*
X142600000Y-124100000D01*
G36*
X123041000Y-107261000D02*
G01*
X123051000Y-107262000D01*
X123062000Y-107264000D01*
X123092000Y-107273000D01*
X123101000Y-107277000D01*
X123111000Y-107282000D01*
X123129000Y-107292000D01*
X123138000Y-107298000D01*
X123146000Y-107305000D01*
X123154000Y-107311000D01*
X123161000Y-107319000D01*
X123169000Y-107326000D01*
X123175000Y-107334000D01*
X123182000Y-107342000D01*
X123188000Y-107351000D01*
X123198000Y-107369000D01*
X123203000Y-107379000D01*
X123207000Y-107388000D01*
X123216000Y-107418000D01*
X123218000Y-107429000D01*
X123219000Y-107439000D01*
X123220000Y-107450000D01*
X123220000Y-108670000D01*
X123219000Y-108681000D01*
X123218000Y-108691000D01*
X123216000Y-108702000D01*
X123207000Y-108732000D01*
X123203000Y-108741000D01*
X123198000Y-108751000D01*
X123188000Y-108769000D01*
X123182000Y-108778000D01*
X123175000Y-108786000D01*
X123169000Y-108794000D01*
X123161000Y-108801000D01*
X123154000Y-108809000D01*
X123146000Y-108815000D01*
X123138000Y-108822000D01*
X123129000Y-108828000D01*
X123111000Y-108838000D01*
X123101000Y-108843000D01*
X123092000Y-108847000D01*
X123062000Y-108856000D01*
X123051000Y-108858000D01*
X123041000Y-108859000D01*
X123030000Y-108860000D01*
X120020000Y-108860000D01*
X120020000Y-107260000D01*
X123030000Y-107260000D01*
X123041000Y-107261000D01*
G37*
X123041000Y-107261000D02*
X123051000Y-107262000D01*
X123062000Y-107264000D01*
X123092000Y-107273000D01*
X123101000Y-107277000D01*
X123111000Y-107282000D01*
X123129000Y-107292000D01*
X123138000Y-107298000D01*
X123146000Y-107305000D01*
X123154000Y-107311000D01*
X123161000Y-107319000D01*
X123169000Y-107326000D01*
X123175000Y-107334000D01*
X123182000Y-107342000D01*
X123188000Y-107351000D01*
X123198000Y-107369000D01*
X123203000Y-107379000D01*
X123207000Y-107388000D01*
X123216000Y-107418000D01*
X123218000Y-107429000D01*
X123219000Y-107439000D01*
X123220000Y-107450000D01*
X123220000Y-108670000D01*
X123219000Y-108681000D01*
X123218000Y-108691000D01*
X123216000Y-108702000D01*
X123207000Y-108732000D01*
X123203000Y-108741000D01*
X123198000Y-108751000D01*
X123188000Y-108769000D01*
X123182000Y-108778000D01*
X123175000Y-108786000D01*
X123169000Y-108794000D01*
X123161000Y-108801000D01*
X123154000Y-108809000D01*
X123146000Y-108815000D01*
X123138000Y-108822000D01*
X123129000Y-108828000D01*
X123111000Y-108838000D01*
X123101000Y-108843000D01*
X123092000Y-108847000D01*
X123062000Y-108856000D01*
X123051000Y-108858000D01*
X123041000Y-108859000D01*
X123030000Y-108860000D01*
X120020000Y-108860000D01*
X120020000Y-107260000D01*
X123030000Y-107260000D01*
X123041000Y-107261000D01*
G36*
X129570000Y-103210000D02*
G01*
X129569000Y-103252000D01*
X129566000Y-103294000D01*
X129560000Y-103335000D01*
X129553000Y-103376000D01*
X129543000Y-103417000D01*
X129531000Y-103457000D01*
X129517000Y-103497000D01*
X129501000Y-103535000D01*
X129483000Y-103573000D01*
X129463000Y-103610000D01*
X129441000Y-103646000D01*
X129417000Y-103680000D01*
X129392000Y-103713000D01*
X129365000Y-103745000D01*
X129336000Y-103776000D01*
X129305000Y-103805000D01*
X129273000Y-103832000D01*
X129240000Y-103857000D01*
X129206000Y-103881000D01*
X129170000Y-103903000D01*
X129133000Y-103923000D01*
X129095000Y-103941000D01*
X129057000Y-103957000D01*
X129017000Y-103971000D01*
X128977000Y-103983000D01*
X128936000Y-103993000D01*
X128895000Y-104000000D01*
X128854000Y-104006000D01*
X128812000Y-104009000D01*
X128770000Y-104010000D01*
X128728000Y-104009000D01*
X128686000Y-104006000D01*
X128645000Y-104000000D01*
X128604000Y-103993000D01*
X128563000Y-103983000D01*
X128523000Y-103971000D01*
X128483000Y-103957000D01*
X128445000Y-103941000D01*
X128407000Y-103923000D01*
X128370000Y-103903000D01*
X128334000Y-103881000D01*
X128300000Y-103857000D01*
X128267000Y-103832000D01*
X128235000Y-103805000D01*
X128204000Y-103776000D01*
X128175000Y-103745000D01*
X128148000Y-103713000D01*
X128123000Y-103680000D01*
X128099000Y-103646000D01*
X128077000Y-103610000D01*
X128057000Y-103573000D01*
X128039000Y-103535000D01*
X128023000Y-103497000D01*
X128009000Y-103457000D01*
X127997000Y-103417000D01*
X127987000Y-103376000D01*
X127980000Y-103335000D01*
X127974000Y-103294000D01*
X127971000Y-103252000D01*
X127970000Y-103210000D01*
X127970000Y-100810000D01*
X129570000Y-100810000D01*
X129570000Y-103210000D01*
G37*
X129570000Y-103210000D02*
X129569000Y-103252000D01*
X129566000Y-103294000D01*
X129560000Y-103335000D01*
X129553000Y-103376000D01*
X129543000Y-103417000D01*
X129531000Y-103457000D01*
X129517000Y-103497000D01*
X129501000Y-103535000D01*
X129483000Y-103573000D01*
X129463000Y-103610000D01*
X129441000Y-103646000D01*
X129417000Y-103680000D01*
X129392000Y-103713000D01*
X129365000Y-103745000D01*
X129336000Y-103776000D01*
X129305000Y-103805000D01*
X129273000Y-103832000D01*
X129240000Y-103857000D01*
X129206000Y-103881000D01*
X129170000Y-103903000D01*
X129133000Y-103923000D01*
X129095000Y-103941000D01*
X129057000Y-103957000D01*
X129017000Y-103971000D01*
X128977000Y-103983000D01*
X128936000Y-103993000D01*
X128895000Y-104000000D01*
X128854000Y-104006000D01*
X128812000Y-104009000D01*
X128770000Y-104010000D01*
X128728000Y-104009000D01*
X128686000Y-104006000D01*
X128645000Y-104000000D01*
X128604000Y-103993000D01*
X128563000Y-103983000D01*
X128523000Y-103971000D01*
X128483000Y-103957000D01*
X128445000Y-103941000D01*
X128407000Y-103923000D01*
X128370000Y-103903000D01*
X128334000Y-103881000D01*
X128300000Y-103857000D01*
X128267000Y-103832000D01*
X128235000Y-103805000D01*
X128204000Y-103776000D01*
X128175000Y-103745000D01*
X128148000Y-103713000D01*
X128123000Y-103680000D01*
X128099000Y-103646000D01*
X128077000Y-103610000D01*
X128057000Y-103573000D01*
X128039000Y-103535000D01*
X128023000Y-103497000D01*
X128009000Y-103457000D01*
X127997000Y-103417000D01*
X127987000Y-103376000D01*
X127980000Y-103335000D01*
X127974000Y-103294000D01*
X127971000Y-103252000D01*
X127970000Y-103210000D01*
X127970000Y-100810000D01*
X129570000Y-100810000D01*
X129570000Y-103210000D01*
G36*
X123041000Y-132661000D02*
G01*
X123051000Y-132662000D01*
X123062000Y-132664000D01*
X123092000Y-132673000D01*
X123101000Y-132677000D01*
X123111000Y-132682000D01*
X123129000Y-132692000D01*
X123138000Y-132698000D01*
X123146000Y-132705000D01*
X123154000Y-132711000D01*
X123161000Y-132719000D01*
X123169000Y-132726000D01*
X123175000Y-132734000D01*
X123182000Y-132742000D01*
X123188000Y-132751000D01*
X123198000Y-132769000D01*
X123203000Y-132779000D01*
X123207000Y-132788000D01*
X123216000Y-132818000D01*
X123218000Y-132829000D01*
X123219000Y-132839000D01*
X123220000Y-132850000D01*
X123220000Y-134070000D01*
X123219000Y-134081000D01*
X123218000Y-134091000D01*
X123216000Y-134102000D01*
X123207000Y-134132000D01*
X123203000Y-134141000D01*
X123198000Y-134151000D01*
X123188000Y-134169000D01*
X123182000Y-134178000D01*
X123175000Y-134186000D01*
X123169000Y-134194000D01*
X123161000Y-134201000D01*
X123154000Y-134209000D01*
X123146000Y-134215000D01*
X123138000Y-134222000D01*
X123129000Y-134228000D01*
X123111000Y-134238000D01*
X123101000Y-134243000D01*
X123092000Y-134247000D01*
X123062000Y-134256000D01*
X123051000Y-134258000D01*
X123041000Y-134259000D01*
X123030000Y-134260000D01*
X120020000Y-134260000D01*
X120020000Y-132660000D01*
X123030000Y-132660000D01*
X123041000Y-132661000D01*
G37*
X123041000Y-132661000D02*
X123051000Y-132662000D01*
X123062000Y-132664000D01*
X123092000Y-132673000D01*
X123101000Y-132677000D01*
X123111000Y-132682000D01*
X123129000Y-132692000D01*
X123138000Y-132698000D01*
X123146000Y-132705000D01*
X123154000Y-132711000D01*
X123161000Y-132719000D01*
X123169000Y-132726000D01*
X123175000Y-132734000D01*
X123182000Y-132742000D01*
X123188000Y-132751000D01*
X123198000Y-132769000D01*
X123203000Y-132779000D01*
X123207000Y-132788000D01*
X123216000Y-132818000D01*
X123218000Y-132829000D01*
X123219000Y-132839000D01*
X123220000Y-132850000D01*
X123220000Y-134070000D01*
X123219000Y-134081000D01*
X123218000Y-134091000D01*
X123216000Y-134102000D01*
X123207000Y-134132000D01*
X123203000Y-134141000D01*
X123198000Y-134151000D01*
X123188000Y-134169000D01*
X123182000Y-134178000D01*
X123175000Y-134186000D01*
X123169000Y-134194000D01*
X123161000Y-134201000D01*
X123154000Y-134209000D01*
X123146000Y-134215000D01*
X123138000Y-134222000D01*
X123129000Y-134228000D01*
X123111000Y-134238000D01*
X123101000Y-134243000D01*
X123092000Y-134247000D01*
X123062000Y-134256000D01*
X123051000Y-134258000D01*
X123041000Y-134259000D01*
X123030000Y-134260000D01*
X120020000Y-134260000D01*
X120020000Y-132660000D01*
X123030000Y-132660000D01*
X123041000Y-132661000D01*
G36*
X142600000Y-116480000D02*
G01*
X140200000Y-116480000D01*
X140158000Y-116479000D01*
X140116000Y-116476000D01*
X140075000Y-116470000D01*
X140034000Y-116463000D01*
X139993000Y-116453000D01*
X139953000Y-116441000D01*
X139913000Y-116427000D01*
X139875000Y-116411000D01*
X139837000Y-116393000D01*
X139800000Y-116373000D01*
X139764000Y-116351000D01*
X139730000Y-116327000D01*
X139697000Y-116302000D01*
X139665000Y-116275000D01*
X139634000Y-116246000D01*
X139605000Y-116215000D01*
X139578000Y-116183000D01*
X139553000Y-116150000D01*
X139529000Y-116116000D01*
X139507000Y-116080000D01*
X139487000Y-116043000D01*
X139469000Y-116005000D01*
X139453000Y-115967000D01*
X139439000Y-115927000D01*
X139427000Y-115887000D01*
X139417000Y-115846000D01*
X139410000Y-115805000D01*
X139404000Y-115764000D01*
X139401000Y-115722000D01*
X139400000Y-115680000D01*
X139401000Y-115638000D01*
X139404000Y-115596000D01*
X139410000Y-115555000D01*
X139417000Y-115514000D01*
X139427000Y-115473000D01*
X139439000Y-115433000D01*
X139453000Y-115393000D01*
X139469000Y-115355000D01*
X139487000Y-115317000D01*
X139507000Y-115280000D01*
X139529000Y-115244000D01*
X139553000Y-115210000D01*
X139578000Y-115177000D01*
X139605000Y-115145000D01*
X139634000Y-115114000D01*
X139665000Y-115085000D01*
X139697000Y-115058000D01*
X139730000Y-115033000D01*
X139764000Y-115009000D01*
X139800000Y-114987000D01*
X139837000Y-114967000D01*
X139875000Y-114949000D01*
X139913000Y-114933000D01*
X139953000Y-114919000D01*
X139993000Y-114907000D01*
X140034000Y-114897000D01*
X140075000Y-114890000D01*
X140116000Y-114884000D01*
X140158000Y-114881000D01*
X140200000Y-114880000D01*
X142600000Y-114880000D01*
X142600000Y-116480000D01*
G37*
X142600000Y-116480000D02*
X140200000Y-116480000D01*
X140158000Y-116479000D01*
X140116000Y-116476000D01*
X140075000Y-116470000D01*
X140034000Y-116463000D01*
X139993000Y-116453000D01*
X139953000Y-116441000D01*
X139913000Y-116427000D01*
X139875000Y-116411000D01*
X139837000Y-116393000D01*
X139800000Y-116373000D01*
X139764000Y-116351000D01*
X139730000Y-116327000D01*
X139697000Y-116302000D01*
X139665000Y-116275000D01*
X139634000Y-116246000D01*
X139605000Y-116215000D01*
X139578000Y-116183000D01*
X139553000Y-116150000D01*
X139529000Y-116116000D01*
X139507000Y-116080000D01*
X139487000Y-116043000D01*
X139469000Y-116005000D01*
X139453000Y-115967000D01*
X139439000Y-115927000D01*
X139427000Y-115887000D01*
X139417000Y-115846000D01*
X139410000Y-115805000D01*
X139404000Y-115764000D01*
X139401000Y-115722000D01*
X139400000Y-115680000D01*
X139401000Y-115638000D01*
X139404000Y-115596000D01*
X139410000Y-115555000D01*
X139417000Y-115514000D01*
X139427000Y-115473000D01*
X139439000Y-115433000D01*
X139453000Y-115393000D01*
X139469000Y-115355000D01*
X139487000Y-115317000D01*
X139507000Y-115280000D01*
X139529000Y-115244000D01*
X139553000Y-115210000D01*
X139578000Y-115177000D01*
X139605000Y-115145000D01*
X139634000Y-115114000D01*
X139665000Y-115085000D01*
X139697000Y-115058000D01*
X139730000Y-115033000D01*
X139764000Y-115009000D01*
X139800000Y-114987000D01*
X139837000Y-114967000D01*
X139875000Y-114949000D01*
X139913000Y-114933000D01*
X139953000Y-114919000D01*
X139993000Y-114907000D01*
X140034000Y-114897000D01*
X140075000Y-114890000D01*
X140116000Y-114884000D01*
X140158000Y-114881000D01*
X140200000Y-114880000D01*
X142600000Y-114880000D01*
X142600000Y-116480000D01*
G36*
X142600000Y-126640000D02*
G01*
X140200000Y-126640000D01*
X140158000Y-126639000D01*
X140116000Y-126636000D01*
X140075000Y-126630000D01*
X140034000Y-126623000D01*
X139993000Y-126613000D01*
X139953000Y-126601000D01*
X139913000Y-126587000D01*
X139875000Y-126571000D01*
X139837000Y-126553000D01*
X139800000Y-126533000D01*
X139764000Y-126511000D01*
X139730000Y-126487000D01*
X139697000Y-126462000D01*
X139665000Y-126435000D01*
X139634000Y-126406000D01*
X139605000Y-126375000D01*
X139578000Y-126343000D01*
X139553000Y-126310000D01*
X139529000Y-126276000D01*
X139507000Y-126240000D01*
X139487000Y-126203000D01*
X139469000Y-126165000D01*
X139453000Y-126127000D01*
X139439000Y-126087000D01*
X139427000Y-126047000D01*
X139417000Y-126006000D01*
X139410000Y-125965000D01*
X139404000Y-125924000D01*
X139401000Y-125882000D01*
X139400000Y-125840000D01*
X139401000Y-125798000D01*
X139404000Y-125756000D01*
X139410000Y-125715000D01*
X139417000Y-125674000D01*
X139427000Y-125633000D01*
X139439000Y-125593000D01*
X139453000Y-125553000D01*
X139469000Y-125515000D01*
X139487000Y-125477000D01*
X139507000Y-125440000D01*
X139529000Y-125404000D01*
X139553000Y-125370000D01*
X139578000Y-125337000D01*
X139605000Y-125305000D01*
X139634000Y-125274000D01*
X139665000Y-125245000D01*
X139697000Y-125218000D01*
X139730000Y-125193000D01*
X139764000Y-125169000D01*
X139800000Y-125147000D01*
X139837000Y-125127000D01*
X139875000Y-125109000D01*
X139913000Y-125093000D01*
X139953000Y-125079000D01*
X139993000Y-125067000D01*
X140034000Y-125057000D01*
X140075000Y-125050000D01*
X140116000Y-125044000D01*
X140158000Y-125041000D01*
X140200000Y-125040000D01*
X142600000Y-125040000D01*
X142600000Y-126640000D01*
G37*
X142600000Y-126640000D02*
X140200000Y-126640000D01*
X140158000Y-126639000D01*
X140116000Y-126636000D01*
X140075000Y-126630000D01*
X140034000Y-126623000D01*
X139993000Y-126613000D01*
X139953000Y-126601000D01*
X139913000Y-126587000D01*
X139875000Y-126571000D01*
X139837000Y-126553000D01*
X139800000Y-126533000D01*
X139764000Y-126511000D01*
X139730000Y-126487000D01*
X139697000Y-126462000D01*
X139665000Y-126435000D01*
X139634000Y-126406000D01*
X139605000Y-126375000D01*
X139578000Y-126343000D01*
X139553000Y-126310000D01*
X139529000Y-126276000D01*
X139507000Y-126240000D01*
X139487000Y-126203000D01*
X139469000Y-126165000D01*
X139453000Y-126127000D01*
X139439000Y-126087000D01*
X139427000Y-126047000D01*
X139417000Y-126006000D01*
X139410000Y-125965000D01*
X139404000Y-125924000D01*
X139401000Y-125882000D01*
X139400000Y-125840000D01*
X139401000Y-125798000D01*
X139404000Y-125756000D01*
X139410000Y-125715000D01*
X139417000Y-125674000D01*
X139427000Y-125633000D01*
X139439000Y-125593000D01*
X139453000Y-125553000D01*
X139469000Y-125515000D01*
X139487000Y-125477000D01*
X139507000Y-125440000D01*
X139529000Y-125404000D01*
X139553000Y-125370000D01*
X139578000Y-125337000D01*
X139605000Y-125305000D01*
X139634000Y-125274000D01*
X139665000Y-125245000D01*
X139697000Y-125218000D01*
X139730000Y-125193000D01*
X139764000Y-125169000D01*
X139800000Y-125147000D01*
X139837000Y-125127000D01*
X139875000Y-125109000D01*
X139913000Y-125093000D01*
X139953000Y-125079000D01*
X139993000Y-125067000D01*
X140034000Y-125057000D01*
X140075000Y-125050000D01*
X140116000Y-125044000D01*
X140158000Y-125041000D01*
X140200000Y-125040000D01*
X142600000Y-125040000D01*
X142600000Y-126640000D01*
G36*
X142600000Y-131720000D02*
G01*
X140200000Y-131720000D01*
X140158000Y-131719000D01*
X140116000Y-131716000D01*
X140075000Y-131710000D01*
X140034000Y-131703000D01*
X139993000Y-131693000D01*
X139953000Y-131681000D01*
X139913000Y-131667000D01*
X139875000Y-131651000D01*
X139837000Y-131633000D01*
X139800000Y-131613000D01*
X139764000Y-131591000D01*
X139730000Y-131567000D01*
X139697000Y-131542000D01*
X139665000Y-131515000D01*
X139634000Y-131486000D01*
X139605000Y-131455000D01*
X139578000Y-131423000D01*
X139553000Y-131390000D01*
X139529000Y-131356000D01*
X139507000Y-131320000D01*
X139487000Y-131283000D01*
X139469000Y-131245000D01*
X139453000Y-131207000D01*
X139439000Y-131167000D01*
X139427000Y-131127000D01*
X139417000Y-131086000D01*
X139410000Y-131045000D01*
X139404000Y-131004000D01*
X139401000Y-130962000D01*
X139400000Y-130920000D01*
X139401000Y-130878000D01*
X139404000Y-130836000D01*
X139410000Y-130795000D01*
X139417000Y-130754000D01*
X139427000Y-130713000D01*
X139439000Y-130673000D01*
X139453000Y-130633000D01*
X139469000Y-130595000D01*
X139487000Y-130557000D01*
X139507000Y-130520000D01*
X139529000Y-130484000D01*
X139553000Y-130450000D01*
X139578000Y-130417000D01*
X139605000Y-130385000D01*
X139634000Y-130354000D01*
X139665000Y-130325000D01*
X139697000Y-130298000D01*
X139730000Y-130273000D01*
X139764000Y-130249000D01*
X139800000Y-130227000D01*
X139837000Y-130207000D01*
X139875000Y-130189000D01*
X139913000Y-130173000D01*
X139953000Y-130159000D01*
X139993000Y-130147000D01*
X140034000Y-130137000D01*
X140075000Y-130130000D01*
X140116000Y-130124000D01*
X140158000Y-130121000D01*
X140200000Y-130120000D01*
X142600000Y-130120000D01*
X142600000Y-131720000D01*
G37*
X142600000Y-131720000D02*
X140200000Y-131720000D01*
X140158000Y-131719000D01*
X140116000Y-131716000D01*
X140075000Y-131710000D01*
X140034000Y-131703000D01*
X139993000Y-131693000D01*
X139953000Y-131681000D01*
X139913000Y-131667000D01*
X139875000Y-131651000D01*
X139837000Y-131633000D01*
X139800000Y-131613000D01*
X139764000Y-131591000D01*
X139730000Y-131567000D01*
X139697000Y-131542000D01*
X139665000Y-131515000D01*
X139634000Y-131486000D01*
X139605000Y-131455000D01*
X139578000Y-131423000D01*
X139553000Y-131390000D01*
X139529000Y-131356000D01*
X139507000Y-131320000D01*
X139487000Y-131283000D01*
X139469000Y-131245000D01*
X139453000Y-131207000D01*
X139439000Y-131167000D01*
X139427000Y-131127000D01*
X139417000Y-131086000D01*
X139410000Y-131045000D01*
X139404000Y-131004000D01*
X139401000Y-130962000D01*
X139400000Y-130920000D01*
X139401000Y-130878000D01*
X139404000Y-130836000D01*
X139410000Y-130795000D01*
X139417000Y-130754000D01*
X139427000Y-130713000D01*
X139439000Y-130673000D01*
X139453000Y-130633000D01*
X139469000Y-130595000D01*
X139487000Y-130557000D01*
X139507000Y-130520000D01*
X139529000Y-130484000D01*
X139553000Y-130450000D01*
X139578000Y-130417000D01*
X139605000Y-130385000D01*
X139634000Y-130354000D01*
X139665000Y-130325000D01*
X139697000Y-130298000D01*
X139730000Y-130273000D01*
X139764000Y-130249000D01*
X139800000Y-130227000D01*
X139837000Y-130207000D01*
X139875000Y-130189000D01*
X139913000Y-130173000D01*
X139953000Y-130159000D01*
X139993000Y-130147000D01*
X140034000Y-130137000D01*
X140075000Y-130130000D01*
X140116000Y-130124000D01*
X140158000Y-130121000D01*
X140200000Y-130120000D01*
X142600000Y-130120000D01*
X142600000Y-131720000D01*
G36*
X142600000Y-111400000D02*
G01*
X140200000Y-111400000D01*
X140158000Y-111399000D01*
X140116000Y-111396000D01*
X140075000Y-111390000D01*
X140034000Y-111383000D01*
X139993000Y-111373000D01*
X139953000Y-111361000D01*
X139913000Y-111347000D01*
X139875000Y-111331000D01*
X139837000Y-111313000D01*
X139800000Y-111293000D01*
X139764000Y-111271000D01*
X139730000Y-111247000D01*
X139697000Y-111222000D01*
X139665000Y-111195000D01*
X139634000Y-111166000D01*
X139605000Y-111135000D01*
X139578000Y-111103000D01*
X139553000Y-111070000D01*
X139529000Y-111036000D01*
X139507000Y-111000000D01*
X139487000Y-110963000D01*
X139469000Y-110925000D01*
X139453000Y-110887000D01*
X139439000Y-110847000D01*
X139427000Y-110807000D01*
X139417000Y-110766000D01*
X139410000Y-110725000D01*
X139404000Y-110684000D01*
X139401000Y-110642000D01*
X139400000Y-110600000D01*
X139401000Y-110558000D01*
X139404000Y-110516000D01*
X139410000Y-110475000D01*
X139417000Y-110434000D01*
X139427000Y-110393000D01*
X139439000Y-110353000D01*
X139453000Y-110313000D01*
X139469000Y-110275000D01*
X139487000Y-110237000D01*
X139507000Y-110200000D01*
X139529000Y-110164000D01*
X139553000Y-110130000D01*
X139578000Y-110097000D01*
X139605000Y-110065000D01*
X139634000Y-110034000D01*
X139665000Y-110005000D01*
X139697000Y-109978000D01*
X139730000Y-109953000D01*
X139764000Y-109929000D01*
X139800000Y-109907000D01*
X139837000Y-109887000D01*
X139875000Y-109869000D01*
X139913000Y-109853000D01*
X139953000Y-109839000D01*
X139993000Y-109827000D01*
X140034000Y-109817000D01*
X140075000Y-109810000D01*
X140116000Y-109804000D01*
X140158000Y-109801000D01*
X140200000Y-109800000D01*
X142600000Y-109800000D01*
X142600000Y-111400000D01*
G37*
X142600000Y-111400000D02*
X140200000Y-111400000D01*
X140158000Y-111399000D01*
X140116000Y-111396000D01*
X140075000Y-111390000D01*
X140034000Y-111383000D01*
X139993000Y-111373000D01*
X139953000Y-111361000D01*
X139913000Y-111347000D01*
X139875000Y-111331000D01*
X139837000Y-111313000D01*
X139800000Y-111293000D01*
X139764000Y-111271000D01*
X139730000Y-111247000D01*
X139697000Y-111222000D01*
X139665000Y-111195000D01*
X139634000Y-111166000D01*
X139605000Y-111135000D01*
X139578000Y-111103000D01*
X139553000Y-111070000D01*
X139529000Y-111036000D01*
X139507000Y-111000000D01*
X139487000Y-110963000D01*
X139469000Y-110925000D01*
X139453000Y-110887000D01*
X139439000Y-110847000D01*
X139427000Y-110807000D01*
X139417000Y-110766000D01*
X139410000Y-110725000D01*
X139404000Y-110684000D01*
X139401000Y-110642000D01*
X139400000Y-110600000D01*
X139401000Y-110558000D01*
X139404000Y-110516000D01*
X139410000Y-110475000D01*
X139417000Y-110434000D01*
X139427000Y-110393000D01*
X139439000Y-110353000D01*
X139453000Y-110313000D01*
X139469000Y-110275000D01*
X139487000Y-110237000D01*
X139507000Y-110200000D01*
X139529000Y-110164000D01*
X139553000Y-110130000D01*
X139578000Y-110097000D01*
X139605000Y-110065000D01*
X139634000Y-110034000D01*
X139665000Y-110005000D01*
X139697000Y-109978000D01*
X139730000Y-109953000D01*
X139764000Y-109929000D01*
X139800000Y-109907000D01*
X139837000Y-109887000D01*
X139875000Y-109869000D01*
X139913000Y-109853000D01*
X139953000Y-109839000D01*
X139993000Y-109827000D01*
X140034000Y-109817000D01*
X140075000Y-109810000D01*
X140116000Y-109804000D01*
X140158000Y-109801000D01*
X140200000Y-109800000D01*
X142600000Y-109800000D01*
X142600000Y-111400000D01*
G36*
X123041000Y-145361000D02*
G01*
X123051000Y-145362000D01*
X123062000Y-145364000D01*
X123092000Y-145373000D01*
X123101000Y-145377000D01*
X123111000Y-145382000D01*
X123129000Y-145392000D01*
X123138000Y-145398000D01*
X123146000Y-145405000D01*
X123154000Y-145411000D01*
X123161000Y-145419000D01*
X123169000Y-145426000D01*
X123175000Y-145434000D01*
X123182000Y-145442000D01*
X123188000Y-145451000D01*
X123198000Y-145469000D01*
X123203000Y-145479000D01*
X123207000Y-145488000D01*
X123216000Y-145518000D01*
X123218000Y-145529000D01*
X123219000Y-145539000D01*
X123220000Y-145550000D01*
X123220000Y-146770000D01*
X123219000Y-146781000D01*
X123218000Y-146791000D01*
X123216000Y-146802000D01*
X123207000Y-146832000D01*
X123203000Y-146841000D01*
X123198000Y-146851000D01*
X123188000Y-146869000D01*
X123182000Y-146878000D01*
X123175000Y-146886000D01*
X123169000Y-146894000D01*
X123161000Y-146901000D01*
X123154000Y-146909000D01*
X123146000Y-146915000D01*
X123138000Y-146922000D01*
X123129000Y-146928000D01*
X123111000Y-146938000D01*
X123101000Y-146943000D01*
X123092000Y-146947000D01*
X123062000Y-146956000D01*
X123051000Y-146958000D01*
X123041000Y-146959000D01*
X123030000Y-146960000D01*
X120020000Y-146960000D01*
X120020000Y-145360000D01*
X123030000Y-145360000D01*
X123041000Y-145361000D01*
G37*
X123041000Y-145361000D02*
X123051000Y-145362000D01*
X123062000Y-145364000D01*
X123092000Y-145373000D01*
X123101000Y-145377000D01*
X123111000Y-145382000D01*
X123129000Y-145392000D01*
X123138000Y-145398000D01*
X123146000Y-145405000D01*
X123154000Y-145411000D01*
X123161000Y-145419000D01*
X123169000Y-145426000D01*
X123175000Y-145434000D01*
X123182000Y-145442000D01*
X123188000Y-145451000D01*
X123198000Y-145469000D01*
X123203000Y-145479000D01*
X123207000Y-145488000D01*
X123216000Y-145518000D01*
X123218000Y-145529000D01*
X123219000Y-145539000D01*
X123220000Y-145550000D01*
X123220000Y-146770000D01*
X123219000Y-146781000D01*
X123218000Y-146791000D01*
X123216000Y-146802000D01*
X123207000Y-146832000D01*
X123203000Y-146841000D01*
X123198000Y-146851000D01*
X123188000Y-146869000D01*
X123182000Y-146878000D01*
X123175000Y-146886000D01*
X123169000Y-146894000D01*
X123161000Y-146901000D01*
X123154000Y-146909000D01*
X123146000Y-146915000D01*
X123138000Y-146922000D01*
X123129000Y-146928000D01*
X123111000Y-146938000D01*
X123101000Y-146943000D01*
X123092000Y-146947000D01*
X123062000Y-146956000D01*
X123051000Y-146958000D01*
X123041000Y-146959000D01*
X123030000Y-146960000D01*
X120020000Y-146960000D01*
X120020000Y-145360000D01*
X123030000Y-145360000D01*
X123041000Y-145361000D01*
G36*
X134650000Y-103210000D02*
G01*
X134649000Y-103252000D01*
X134646000Y-103294000D01*
X134640000Y-103335000D01*
X134633000Y-103376000D01*
X134623000Y-103417000D01*
X134611000Y-103457000D01*
X134597000Y-103497000D01*
X134581000Y-103535000D01*
X134563000Y-103573000D01*
X134543000Y-103610000D01*
X134521000Y-103646000D01*
X134497000Y-103680000D01*
X134472000Y-103713000D01*
X134445000Y-103745000D01*
X134416000Y-103776000D01*
X134385000Y-103805000D01*
X134353000Y-103832000D01*
X134320000Y-103857000D01*
X134286000Y-103881000D01*
X134250000Y-103903000D01*
X134213000Y-103923000D01*
X134175000Y-103941000D01*
X134137000Y-103957000D01*
X134097000Y-103971000D01*
X134057000Y-103983000D01*
X134016000Y-103993000D01*
X133975000Y-104000000D01*
X133934000Y-104006000D01*
X133892000Y-104009000D01*
X133850000Y-104010000D01*
X133808000Y-104009000D01*
X133766000Y-104006000D01*
X133725000Y-104000000D01*
X133684000Y-103993000D01*
X133643000Y-103983000D01*
X133603000Y-103971000D01*
X133563000Y-103957000D01*
X133525000Y-103941000D01*
X133487000Y-103923000D01*
X133450000Y-103903000D01*
X133414000Y-103881000D01*
X133380000Y-103857000D01*
X133347000Y-103832000D01*
X133315000Y-103805000D01*
X133284000Y-103776000D01*
X133255000Y-103745000D01*
X133228000Y-103713000D01*
X133203000Y-103680000D01*
X133179000Y-103646000D01*
X133157000Y-103610000D01*
X133137000Y-103573000D01*
X133119000Y-103535000D01*
X133103000Y-103497000D01*
X133089000Y-103457000D01*
X133077000Y-103417000D01*
X133067000Y-103376000D01*
X133060000Y-103335000D01*
X133054000Y-103294000D01*
X133051000Y-103252000D01*
X133050000Y-103210000D01*
X133050000Y-100810000D01*
X134650000Y-100810000D01*
X134650000Y-103210000D01*
G37*
X134650000Y-103210000D02*
X134649000Y-103252000D01*
X134646000Y-103294000D01*
X134640000Y-103335000D01*
X134633000Y-103376000D01*
X134623000Y-103417000D01*
X134611000Y-103457000D01*
X134597000Y-103497000D01*
X134581000Y-103535000D01*
X134563000Y-103573000D01*
X134543000Y-103610000D01*
X134521000Y-103646000D01*
X134497000Y-103680000D01*
X134472000Y-103713000D01*
X134445000Y-103745000D01*
X134416000Y-103776000D01*
X134385000Y-103805000D01*
X134353000Y-103832000D01*
X134320000Y-103857000D01*
X134286000Y-103881000D01*
X134250000Y-103903000D01*
X134213000Y-103923000D01*
X134175000Y-103941000D01*
X134137000Y-103957000D01*
X134097000Y-103971000D01*
X134057000Y-103983000D01*
X134016000Y-103993000D01*
X133975000Y-104000000D01*
X133934000Y-104006000D01*
X133892000Y-104009000D01*
X133850000Y-104010000D01*
X133808000Y-104009000D01*
X133766000Y-104006000D01*
X133725000Y-104000000D01*
X133684000Y-103993000D01*
X133643000Y-103983000D01*
X133603000Y-103971000D01*
X133563000Y-103957000D01*
X133525000Y-103941000D01*
X133487000Y-103923000D01*
X133450000Y-103903000D01*
X133414000Y-103881000D01*
X133380000Y-103857000D01*
X133347000Y-103832000D01*
X133315000Y-103805000D01*
X133284000Y-103776000D01*
X133255000Y-103745000D01*
X133228000Y-103713000D01*
X133203000Y-103680000D01*
X133179000Y-103646000D01*
X133157000Y-103610000D01*
X133137000Y-103573000D01*
X133119000Y-103535000D01*
X133103000Y-103497000D01*
X133089000Y-103457000D01*
X133077000Y-103417000D01*
X133067000Y-103376000D01*
X133060000Y-103335000D01*
X133054000Y-103294000D01*
X133051000Y-103252000D01*
X133050000Y-103210000D01*
X133050000Y-100810000D01*
X134650000Y-100810000D01*
X134650000Y-103210000D01*
G36*
X142600000Y-152040000D02*
G01*
X140200000Y-152040000D01*
X140158000Y-152039000D01*
X140116000Y-152036000D01*
X140075000Y-152030000D01*
X140034000Y-152023000D01*
X139993000Y-152013000D01*
X139953000Y-152001000D01*
X139913000Y-151987000D01*
X139875000Y-151971000D01*
X139837000Y-151953000D01*
X139800000Y-151933000D01*
X139764000Y-151911000D01*
X139730000Y-151887000D01*
X139697000Y-151862000D01*
X139665000Y-151835000D01*
X139634000Y-151806000D01*
X139605000Y-151775000D01*
X139578000Y-151743000D01*
X139553000Y-151710000D01*
X139529000Y-151676000D01*
X139507000Y-151640000D01*
X139487000Y-151603000D01*
X139469000Y-151565000D01*
X139453000Y-151527000D01*
X139439000Y-151487000D01*
X139427000Y-151447000D01*
X139417000Y-151406000D01*
X139410000Y-151365000D01*
X139404000Y-151324000D01*
X139401000Y-151282000D01*
X139400000Y-151240000D01*
X139401000Y-151198000D01*
X139404000Y-151156000D01*
X139410000Y-151115000D01*
X139417000Y-151074000D01*
X139427000Y-151033000D01*
X139439000Y-150993000D01*
X139453000Y-150953000D01*
X139469000Y-150915000D01*
X139487000Y-150877000D01*
X139507000Y-150840000D01*
X139529000Y-150804000D01*
X139553000Y-150770000D01*
X139578000Y-150737000D01*
X139605000Y-150705000D01*
X139634000Y-150674000D01*
X139665000Y-150645000D01*
X139697000Y-150618000D01*
X139730000Y-150593000D01*
X139764000Y-150569000D01*
X139800000Y-150547000D01*
X139837000Y-150527000D01*
X139875000Y-150509000D01*
X139913000Y-150493000D01*
X139953000Y-150479000D01*
X139993000Y-150467000D01*
X140034000Y-150457000D01*
X140075000Y-150450000D01*
X140116000Y-150444000D01*
X140158000Y-150441000D01*
X140200000Y-150440000D01*
X142600000Y-150440000D01*
X142600000Y-152040000D01*
G37*
X142600000Y-152040000D02*
X140200000Y-152040000D01*
X140158000Y-152039000D01*
X140116000Y-152036000D01*
X140075000Y-152030000D01*
X140034000Y-152023000D01*
X139993000Y-152013000D01*
X139953000Y-152001000D01*
X139913000Y-151987000D01*
X139875000Y-151971000D01*
X139837000Y-151953000D01*
X139800000Y-151933000D01*
X139764000Y-151911000D01*
X139730000Y-151887000D01*
X139697000Y-151862000D01*
X139665000Y-151835000D01*
X139634000Y-151806000D01*
X139605000Y-151775000D01*
X139578000Y-151743000D01*
X139553000Y-151710000D01*
X139529000Y-151676000D01*
X139507000Y-151640000D01*
X139487000Y-151603000D01*
X139469000Y-151565000D01*
X139453000Y-151527000D01*
X139439000Y-151487000D01*
X139427000Y-151447000D01*
X139417000Y-151406000D01*
X139410000Y-151365000D01*
X139404000Y-151324000D01*
X139401000Y-151282000D01*
X139400000Y-151240000D01*
X139401000Y-151198000D01*
X139404000Y-151156000D01*
X139410000Y-151115000D01*
X139417000Y-151074000D01*
X139427000Y-151033000D01*
X139439000Y-150993000D01*
X139453000Y-150953000D01*
X139469000Y-150915000D01*
X139487000Y-150877000D01*
X139507000Y-150840000D01*
X139529000Y-150804000D01*
X139553000Y-150770000D01*
X139578000Y-150737000D01*
X139605000Y-150705000D01*
X139634000Y-150674000D01*
X139665000Y-150645000D01*
X139697000Y-150618000D01*
X139730000Y-150593000D01*
X139764000Y-150569000D01*
X139800000Y-150547000D01*
X139837000Y-150527000D01*
X139875000Y-150509000D01*
X139913000Y-150493000D01*
X139953000Y-150479000D01*
X139993000Y-150467000D01*
X140034000Y-150457000D01*
X140075000Y-150450000D01*
X140116000Y-150444000D01*
X140158000Y-150441000D01*
X140200000Y-150440000D01*
X142600000Y-150440000D01*
X142600000Y-152040000D01*
G36*
X122462000Y-150441000D02*
G01*
X122504000Y-150444000D01*
X122545000Y-150450000D01*
X122586000Y-150457000D01*
X122627000Y-150467000D01*
X122667000Y-150479000D01*
X122707000Y-150493000D01*
X122745000Y-150509000D01*
X122783000Y-150527000D01*
X122820000Y-150547000D01*
X122856000Y-150569000D01*
X122890000Y-150593000D01*
X122923000Y-150618000D01*
X122955000Y-150645000D01*
X122986000Y-150674000D01*
X123015000Y-150705000D01*
X123042000Y-150737000D01*
X123067000Y-150770000D01*
X123091000Y-150804000D01*
X123113000Y-150840000D01*
X123133000Y-150877000D01*
X123151000Y-150915000D01*
X123167000Y-150953000D01*
X123181000Y-150993000D01*
X123193000Y-151033000D01*
X123203000Y-151074000D01*
X123210000Y-151115000D01*
X123216000Y-151156000D01*
X123219000Y-151198000D01*
X123220000Y-151240000D01*
X123219000Y-151282000D01*
X123216000Y-151324000D01*
X123210000Y-151365000D01*
X123203000Y-151406000D01*
X123193000Y-151447000D01*
X123181000Y-151487000D01*
X123167000Y-151527000D01*
X123151000Y-151565000D01*
X123133000Y-151603000D01*
X123113000Y-151640000D01*
X123091000Y-151676000D01*
X123067000Y-151710000D01*
X123042000Y-151743000D01*
X123015000Y-151775000D01*
X122986000Y-151806000D01*
X122955000Y-151835000D01*
X122923000Y-151862000D01*
X122890000Y-151887000D01*
X122856000Y-151911000D01*
X122820000Y-151933000D01*
X122783000Y-151953000D01*
X122745000Y-151971000D01*
X122707000Y-151987000D01*
X122667000Y-152001000D01*
X122627000Y-152013000D01*
X122586000Y-152023000D01*
X122545000Y-152030000D01*
X122504000Y-152036000D01*
X122462000Y-152039000D01*
X122420000Y-152040000D01*
X120020000Y-152040000D01*
X120020000Y-150440000D01*
X122420000Y-150440000D01*
X122462000Y-150441000D01*
G37*
X122462000Y-150441000D02*
X122504000Y-150444000D01*
X122545000Y-150450000D01*
X122586000Y-150457000D01*
X122627000Y-150467000D01*
X122667000Y-150479000D01*
X122707000Y-150493000D01*
X122745000Y-150509000D01*
X122783000Y-150527000D01*
X122820000Y-150547000D01*
X122856000Y-150569000D01*
X122890000Y-150593000D01*
X122923000Y-150618000D01*
X122955000Y-150645000D01*
X122986000Y-150674000D01*
X123015000Y-150705000D01*
X123042000Y-150737000D01*
X123067000Y-150770000D01*
X123091000Y-150804000D01*
X123113000Y-150840000D01*
X123133000Y-150877000D01*
X123151000Y-150915000D01*
X123167000Y-150953000D01*
X123181000Y-150993000D01*
X123193000Y-151033000D01*
X123203000Y-151074000D01*
X123210000Y-151115000D01*
X123216000Y-151156000D01*
X123219000Y-151198000D01*
X123220000Y-151240000D01*
X123219000Y-151282000D01*
X123216000Y-151324000D01*
X123210000Y-151365000D01*
X123203000Y-151406000D01*
X123193000Y-151447000D01*
X123181000Y-151487000D01*
X123167000Y-151527000D01*
X123151000Y-151565000D01*
X123133000Y-151603000D01*
X123113000Y-151640000D01*
X123091000Y-151676000D01*
X123067000Y-151710000D01*
X123042000Y-151743000D01*
X123015000Y-151775000D01*
X122986000Y-151806000D01*
X122955000Y-151835000D01*
X122923000Y-151862000D01*
X122890000Y-151887000D01*
X122856000Y-151911000D01*
X122820000Y-151933000D01*
X122783000Y-151953000D01*
X122745000Y-151971000D01*
X122707000Y-151987000D01*
X122667000Y-152001000D01*
X122627000Y-152013000D01*
X122586000Y-152023000D01*
X122545000Y-152030000D01*
X122504000Y-152036000D01*
X122462000Y-152039000D01*
X122420000Y-152040000D01*
X120020000Y-152040000D01*
X120020000Y-150440000D01*
X122420000Y-150440000D01*
X122462000Y-150441000D01*
G36*
X122462000Y-117421000D02*
G01*
X122504000Y-117424000D01*
X122545000Y-117430000D01*
X122586000Y-117437000D01*
X122627000Y-117447000D01*
X122667000Y-117459000D01*
X122707000Y-117473000D01*
X122745000Y-117489000D01*
X122783000Y-117507000D01*
X122820000Y-117527000D01*
X122856000Y-117549000D01*
X122890000Y-117573000D01*
X122923000Y-117598000D01*
X122955000Y-117625000D01*
X122986000Y-117654000D01*
X123015000Y-117685000D01*
X123042000Y-117717000D01*
X123067000Y-117750000D01*
X123091000Y-117784000D01*
X123113000Y-117820000D01*
X123133000Y-117857000D01*
X123151000Y-117895000D01*
X123167000Y-117933000D01*
X123181000Y-117973000D01*
X123193000Y-118013000D01*
X123203000Y-118054000D01*
X123210000Y-118095000D01*
X123216000Y-118136000D01*
X123219000Y-118178000D01*
X123220000Y-118220000D01*
X123219000Y-118262000D01*
X123216000Y-118304000D01*
X123210000Y-118345000D01*
X123203000Y-118386000D01*
X123193000Y-118427000D01*
X123181000Y-118467000D01*
X123167000Y-118507000D01*
X123151000Y-118545000D01*
X123133000Y-118583000D01*
X123113000Y-118620000D01*
X123091000Y-118656000D01*
X123067000Y-118690000D01*
X123042000Y-118723000D01*
X123015000Y-118755000D01*
X122986000Y-118786000D01*
X122955000Y-118815000D01*
X122923000Y-118842000D01*
X122890000Y-118867000D01*
X122856000Y-118891000D01*
X122820000Y-118913000D01*
X122783000Y-118933000D01*
X122745000Y-118951000D01*
X122707000Y-118967000D01*
X122667000Y-118981000D01*
X122627000Y-118993000D01*
X122586000Y-119003000D01*
X122545000Y-119010000D01*
X122504000Y-119016000D01*
X122462000Y-119019000D01*
X122420000Y-119020000D01*
X120020000Y-119020000D01*
X120020000Y-117420000D01*
X122420000Y-117420000D01*
X122462000Y-117421000D01*
G37*
X122462000Y-117421000D02*
X122504000Y-117424000D01*
X122545000Y-117430000D01*
X122586000Y-117437000D01*
X122627000Y-117447000D01*
X122667000Y-117459000D01*
X122707000Y-117473000D01*
X122745000Y-117489000D01*
X122783000Y-117507000D01*
X122820000Y-117527000D01*
X122856000Y-117549000D01*
X122890000Y-117573000D01*
X122923000Y-117598000D01*
X122955000Y-117625000D01*
X122986000Y-117654000D01*
X123015000Y-117685000D01*
X123042000Y-117717000D01*
X123067000Y-117750000D01*
X123091000Y-117784000D01*
X123113000Y-117820000D01*
X123133000Y-117857000D01*
X123151000Y-117895000D01*
X123167000Y-117933000D01*
X123181000Y-117973000D01*
X123193000Y-118013000D01*
X123203000Y-118054000D01*
X123210000Y-118095000D01*
X123216000Y-118136000D01*
X123219000Y-118178000D01*
X123220000Y-118220000D01*
X123219000Y-118262000D01*
X123216000Y-118304000D01*
X123210000Y-118345000D01*
X123203000Y-118386000D01*
X123193000Y-118427000D01*
X123181000Y-118467000D01*
X123167000Y-118507000D01*
X123151000Y-118545000D01*
X123133000Y-118583000D01*
X123113000Y-118620000D01*
X123091000Y-118656000D01*
X123067000Y-118690000D01*
X123042000Y-118723000D01*
X123015000Y-118755000D01*
X122986000Y-118786000D01*
X122955000Y-118815000D01*
X122923000Y-118842000D01*
X122890000Y-118867000D01*
X122856000Y-118891000D01*
X122820000Y-118913000D01*
X122783000Y-118933000D01*
X122745000Y-118951000D01*
X122707000Y-118967000D01*
X122667000Y-118981000D01*
X122627000Y-118993000D01*
X122586000Y-119003000D01*
X122545000Y-119010000D01*
X122504000Y-119016000D01*
X122462000Y-119019000D01*
X122420000Y-119020000D01*
X120020000Y-119020000D01*
X120020000Y-117420000D01*
X122420000Y-117420000D01*
X122462000Y-117421000D01*
G36*
X142600000Y-141880000D02*
G01*
X140200000Y-141880000D01*
X140158000Y-141879000D01*
X140116000Y-141876000D01*
X140075000Y-141870000D01*
X140034000Y-141863000D01*
X139993000Y-141853000D01*
X139953000Y-141841000D01*
X139913000Y-141827000D01*
X139875000Y-141811000D01*
X139837000Y-141793000D01*
X139800000Y-141773000D01*
X139764000Y-141751000D01*
X139730000Y-141727000D01*
X139697000Y-141702000D01*
X139665000Y-141675000D01*
X139634000Y-141646000D01*
X139605000Y-141615000D01*
X139578000Y-141583000D01*
X139553000Y-141550000D01*
X139529000Y-141516000D01*
X139507000Y-141480000D01*
X139487000Y-141443000D01*
X139469000Y-141405000D01*
X139453000Y-141367000D01*
X139439000Y-141327000D01*
X139427000Y-141287000D01*
X139417000Y-141246000D01*
X139410000Y-141205000D01*
X139404000Y-141164000D01*
X139401000Y-141122000D01*
X139400000Y-141080000D01*
X139401000Y-141038000D01*
X139404000Y-140996000D01*
X139410000Y-140955000D01*
X139417000Y-140914000D01*
X139427000Y-140873000D01*
X139439000Y-140833000D01*
X139453000Y-140793000D01*
X139469000Y-140755000D01*
X139487000Y-140717000D01*
X139507000Y-140680000D01*
X139529000Y-140644000D01*
X139553000Y-140610000D01*
X139578000Y-140577000D01*
X139605000Y-140545000D01*
X139634000Y-140514000D01*
X139665000Y-140485000D01*
X139697000Y-140458000D01*
X139730000Y-140433000D01*
X139764000Y-140409000D01*
X139800000Y-140387000D01*
X139837000Y-140367000D01*
X139875000Y-140349000D01*
X139913000Y-140333000D01*
X139953000Y-140319000D01*
X139993000Y-140307000D01*
X140034000Y-140297000D01*
X140075000Y-140290000D01*
X140116000Y-140284000D01*
X140158000Y-140281000D01*
X140200000Y-140280000D01*
X142600000Y-140280000D01*
X142600000Y-141880000D01*
G37*
X142600000Y-141880000D02*
X140200000Y-141880000D01*
X140158000Y-141879000D01*
X140116000Y-141876000D01*
X140075000Y-141870000D01*
X140034000Y-141863000D01*
X139993000Y-141853000D01*
X139953000Y-141841000D01*
X139913000Y-141827000D01*
X139875000Y-141811000D01*
X139837000Y-141793000D01*
X139800000Y-141773000D01*
X139764000Y-141751000D01*
X139730000Y-141727000D01*
X139697000Y-141702000D01*
X139665000Y-141675000D01*
X139634000Y-141646000D01*
X139605000Y-141615000D01*
X139578000Y-141583000D01*
X139553000Y-141550000D01*
X139529000Y-141516000D01*
X139507000Y-141480000D01*
X139487000Y-141443000D01*
X139469000Y-141405000D01*
X139453000Y-141367000D01*
X139439000Y-141327000D01*
X139427000Y-141287000D01*
X139417000Y-141246000D01*
X139410000Y-141205000D01*
X139404000Y-141164000D01*
X139401000Y-141122000D01*
X139400000Y-141080000D01*
X139401000Y-141038000D01*
X139404000Y-140996000D01*
X139410000Y-140955000D01*
X139417000Y-140914000D01*
X139427000Y-140873000D01*
X139439000Y-140833000D01*
X139453000Y-140793000D01*
X139469000Y-140755000D01*
X139487000Y-140717000D01*
X139507000Y-140680000D01*
X139529000Y-140644000D01*
X139553000Y-140610000D01*
X139578000Y-140577000D01*
X139605000Y-140545000D01*
X139634000Y-140514000D01*
X139665000Y-140485000D01*
X139697000Y-140458000D01*
X139730000Y-140433000D01*
X139764000Y-140409000D01*
X139800000Y-140387000D01*
X139837000Y-140367000D01*
X139875000Y-140349000D01*
X139913000Y-140333000D01*
X139953000Y-140319000D01*
X139993000Y-140307000D01*
X140034000Y-140297000D01*
X140075000Y-140290000D01*
X140116000Y-140284000D01*
X140158000Y-140281000D01*
X140200000Y-140280000D01*
X142600000Y-140280000D01*
X142600000Y-141880000D01*
G36*
X122462000Y-114881000D02*
G01*
X122504000Y-114884000D01*
X122545000Y-114890000D01*
X122586000Y-114897000D01*
X122627000Y-114907000D01*
X122667000Y-114919000D01*
X122707000Y-114933000D01*
X122745000Y-114949000D01*
X122783000Y-114967000D01*
X122820000Y-114987000D01*
X122856000Y-115009000D01*
X122890000Y-115033000D01*
X122923000Y-115058000D01*
X122955000Y-115085000D01*
X122986000Y-115114000D01*
X123015000Y-115145000D01*
X123042000Y-115177000D01*
X123067000Y-115210000D01*
X123091000Y-115244000D01*
X123113000Y-115280000D01*
X123133000Y-115317000D01*
X123151000Y-115355000D01*
X123167000Y-115393000D01*
X123181000Y-115433000D01*
X123193000Y-115473000D01*
X123203000Y-115514000D01*
X123210000Y-115555000D01*
X123216000Y-115596000D01*
X123219000Y-115638000D01*
X123220000Y-115680000D01*
X123219000Y-115722000D01*
X123216000Y-115764000D01*
X123210000Y-115805000D01*
X123203000Y-115846000D01*
X123193000Y-115887000D01*
X123181000Y-115927000D01*
X123167000Y-115967000D01*
X123151000Y-116005000D01*
X123133000Y-116043000D01*
X123113000Y-116080000D01*
X123091000Y-116116000D01*
X123067000Y-116150000D01*
X123042000Y-116183000D01*
X123015000Y-116215000D01*
X122986000Y-116246000D01*
X122955000Y-116275000D01*
X122923000Y-116302000D01*
X122890000Y-116327000D01*
X122856000Y-116351000D01*
X122820000Y-116373000D01*
X122783000Y-116393000D01*
X122745000Y-116411000D01*
X122707000Y-116427000D01*
X122667000Y-116441000D01*
X122627000Y-116453000D01*
X122586000Y-116463000D01*
X122545000Y-116470000D01*
X122504000Y-116476000D01*
X122462000Y-116479000D01*
X122420000Y-116480000D01*
X120020000Y-116480000D01*
X120020000Y-114880000D01*
X122420000Y-114880000D01*
X122462000Y-114881000D01*
G37*
X122462000Y-114881000D02*
X122504000Y-114884000D01*
X122545000Y-114890000D01*
X122586000Y-114897000D01*
X122627000Y-114907000D01*
X122667000Y-114919000D01*
X122707000Y-114933000D01*
X122745000Y-114949000D01*
X122783000Y-114967000D01*
X122820000Y-114987000D01*
X122856000Y-115009000D01*
X122890000Y-115033000D01*
X122923000Y-115058000D01*
X122955000Y-115085000D01*
X122986000Y-115114000D01*
X123015000Y-115145000D01*
X123042000Y-115177000D01*
X123067000Y-115210000D01*
X123091000Y-115244000D01*
X123113000Y-115280000D01*
X123133000Y-115317000D01*
X123151000Y-115355000D01*
X123167000Y-115393000D01*
X123181000Y-115433000D01*
X123193000Y-115473000D01*
X123203000Y-115514000D01*
X123210000Y-115555000D01*
X123216000Y-115596000D01*
X123219000Y-115638000D01*
X123220000Y-115680000D01*
X123219000Y-115722000D01*
X123216000Y-115764000D01*
X123210000Y-115805000D01*
X123203000Y-115846000D01*
X123193000Y-115887000D01*
X123181000Y-115927000D01*
X123167000Y-115967000D01*
X123151000Y-116005000D01*
X123133000Y-116043000D01*
X123113000Y-116080000D01*
X123091000Y-116116000D01*
X123067000Y-116150000D01*
X123042000Y-116183000D01*
X123015000Y-116215000D01*
X122986000Y-116246000D01*
X122955000Y-116275000D01*
X122923000Y-116302000D01*
X122890000Y-116327000D01*
X122856000Y-116351000D01*
X122820000Y-116373000D01*
X122783000Y-116393000D01*
X122745000Y-116411000D01*
X122707000Y-116427000D01*
X122667000Y-116441000D01*
X122627000Y-116453000D01*
X122586000Y-116463000D01*
X122545000Y-116470000D01*
X122504000Y-116476000D01*
X122462000Y-116479000D01*
X122420000Y-116480000D01*
X120020000Y-116480000D01*
X120020000Y-114880000D01*
X122420000Y-114880000D01*
X122462000Y-114881000D01*
G36*
X122462000Y-140281000D02*
G01*
X122504000Y-140284000D01*
X122545000Y-140290000D01*
X122586000Y-140297000D01*
X122627000Y-140307000D01*
X122667000Y-140319000D01*
X122707000Y-140333000D01*
X122745000Y-140349000D01*
X122783000Y-140367000D01*
X122820000Y-140387000D01*
X122856000Y-140409000D01*
X122890000Y-140433000D01*
X122923000Y-140458000D01*
X122955000Y-140485000D01*
X122986000Y-140514000D01*
X123015000Y-140545000D01*
X123042000Y-140577000D01*
X123067000Y-140610000D01*
X123091000Y-140644000D01*
X123113000Y-140680000D01*
X123133000Y-140717000D01*
X123151000Y-140755000D01*
X123167000Y-140793000D01*
X123181000Y-140833000D01*
X123193000Y-140873000D01*
X123203000Y-140914000D01*
X123210000Y-140955000D01*
X123216000Y-140996000D01*
X123219000Y-141038000D01*
X123220000Y-141080000D01*
X123219000Y-141122000D01*
X123216000Y-141164000D01*
X123210000Y-141205000D01*
X123203000Y-141246000D01*
X123193000Y-141287000D01*
X123181000Y-141327000D01*
X123167000Y-141367000D01*
X123151000Y-141405000D01*
X123133000Y-141443000D01*
X123113000Y-141480000D01*
X123091000Y-141516000D01*
X123067000Y-141550000D01*
X123042000Y-141583000D01*
X123015000Y-141615000D01*
X122986000Y-141646000D01*
X122955000Y-141675000D01*
X122923000Y-141702000D01*
X122890000Y-141727000D01*
X122856000Y-141751000D01*
X122820000Y-141773000D01*
X122783000Y-141793000D01*
X122745000Y-141811000D01*
X122707000Y-141827000D01*
X122667000Y-141841000D01*
X122627000Y-141853000D01*
X122586000Y-141863000D01*
X122545000Y-141870000D01*
X122504000Y-141876000D01*
X122462000Y-141879000D01*
X122420000Y-141880000D01*
X120020000Y-141880000D01*
X120020000Y-140280000D01*
X122420000Y-140280000D01*
X122462000Y-140281000D01*
G37*
X122462000Y-140281000D02*
X122504000Y-140284000D01*
X122545000Y-140290000D01*
X122586000Y-140297000D01*
X122627000Y-140307000D01*
X122667000Y-140319000D01*
X122707000Y-140333000D01*
X122745000Y-140349000D01*
X122783000Y-140367000D01*
X122820000Y-140387000D01*
X122856000Y-140409000D01*
X122890000Y-140433000D01*
X122923000Y-140458000D01*
X122955000Y-140485000D01*
X122986000Y-140514000D01*
X123015000Y-140545000D01*
X123042000Y-140577000D01*
X123067000Y-140610000D01*
X123091000Y-140644000D01*
X123113000Y-140680000D01*
X123133000Y-140717000D01*
X123151000Y-140755000D01*
X123167000Y-140793000D01*
X123181000Y-140833000D01*
X123193000Y-140873000D01*
X123203000Y-140914000D01*
X123210000Y-140955000D01*
X123216000Y-140996000D01*
X123219000Y-141038000D01*
X123220000Y-141080000D01*
X123219000Y-141122000D01*
X123216000Y-141164000D01*
X123210000Y-141205000D01*
X123203000Y-141246000D01*
X123193000Y-141287000D01*
X123181000Y-141327000D01*
X123167000Y-141367000D01*
X123151000Y-141405000D01*
X123133000Y-141443000D01*
X123113000Y-141480000D01*
X123091000Y-141516000D01*
X123067000Y-141550000D01*
X123042000Y-141583000D01*
X123015000Y-141615000D01*
X122986000Y-141646000D01*
X122955000Y-141675000D01*
X122923000Y-141702000D01*
X122890000Y-141727000D01*
X122856000Y-141751000D01*
X122820000Y-141773000D01*
X122783000Y-141793000D01*
X122745000Y-141811000D01*
X122707000Y-141827000D01*
X122667000Y-141841000D01*
X122627000Y-141853000D01*
X122586000Y-141863000D01*
X122545000Y-141870000D01*
X122504000Y-141876000D01*
X122462000Y-141879000D01*
X122420000Y-141880000D01*
X120020000Y-141880000D01*
X120020000Y-140280000D01*
X122420000Y-140280000D01*
X122462000Y-140281000D01*
G36*
X142600000Y-149500000D02*
G01*
X140200000Y-149500000D01*
X140158000Y-149499000D01*
X140116000Y-149496000D01*
X140075000Y-149490000D01*
X140034000Y-149483000D01*
X139993000Y-149473000D01*
X139953000Y-149461000D01*
X139913000Y-149447000D01*
X139875000Y-149431000D01*
X139837000Y-149413000D01*
X139800000Y-149393000D01*
X139764000Y-149371000D01*
X139730000Y-149347000D01*
X139697000Y-149322000D01*
X139665000Y-149295000D01*
X139634000Y-149266000D01*
X139605000Y-149235000D01*
X139578000Y-149203000D01*
X139553000Y-149170000D01*
X139529000Y-149136000D01*
X139507000Y-149100000D01*
X139487000Y-149063000D01*
X139469000Y-149025000D01*
X139453000Y-148987000D01*
X139439000Y-148947000D01*
X139427000Y-148907000D01*
X139417000Y-148866000D01*
X139410000Y-148825000D01*
X139404000Y-148784000D01*
X139401000Y-148742000D01*
X139400000Y-148700000D01*
X139401000Y-148658000D01*
X139404000Y-148616000D01*
X139410000Y-148575000D01*
X139417000Y-148534000D01*
X139427000Y-148493000D01*
X139439000Y-148453000D01*
X139453000Y-148413000D01*
X139469000Y-148375000D01*
X139487000Y-148337000D01*
X139507000Y-148300000D01*
X139529000Y-148264000D01*
X139553000Y-148230000D01*
X139578000Y-148197000D01*
X139605000Y-148165000D01*
X139634000Y-148134000D01*
X139665000Y-148105000D01*
X139697000Y-148078000D01*
X139730000Y-148053000D01*
X139764000Y-148029000D01*
X139800000Y-148007000D01*
X139837000Y-147987000D01*
X139875000Y-147969000D01*
X139913000Y-147953000D01*
X139953000Y-147939000D01*
X139993000Y-147927000D01*
X140034000Y-147917000D01*
X140075000Y-147910000D01*
X140116000Y-147904000D01*
X140158000Y-147901000D01*
X140200000Y-147900000D01*
X142600000Y-147900000D01*
X142600000Y-149500000D01*
G37*
X142600000Y-149500000D02*
X140200000Y-149500000D01*
X140158000Y-149499000D01*
X140116000Y-149496000D01*
X140075000Y-149490000D01*
X140034000Y-149483000D01*
X139993000Y-149473000D01*
X139953000Y-149461000D01*
X139913000Y-149447000D01*
X139875000Y-149431000D01*
X139837000Y-149413000D01*
X139800000Y-149393000D01*
X139764000Y-149371000D01*
X139730000Y-149347000D01*
X139697000Y-149322000D01*
X139665000Y-149295000D01*
X139634000Y-149266000D01*
X139605000Y-149235000D01*
X139578000Y-149203000D01*
X139553000Y-149170000D01*
X139529000Y-149136000D01*
X139507000Y-149100000D01*
X139487000Y-149063000D01*
X139469000Y-149025000D01*
X139453000Y-148987000D01*
X139439000Y-148947000D01*
X139427000Y-148907000D01*
X139417000Y-148866000D01*
X139410000Y-148825000D01*
X139404000Y-148784000D01*
X139401000Y-148742000D01*
X139400000Y-148700000D01*
X139401000Y-148658000D01*
X139404000Y-148616000D01*
X139410000Y-148575000D01*
X139417000Y-148534000D01*
X139427000Y-148493000D01*
X139439000Y-148453000D01*
X139453000Y-148413000D01*
X139469000Y-148375000D01*
X139487000Y-148337000D01*
X139507000Y-148300000D01*
X139529000Y-148264000D01*
X139553000Y-148230000D01*
X139578000Y-148197000D01*
X139605000Y-148165000D01*
X139634000Y-148134000D01*
X139665000Y-148105000D01*
X139697000Y-148078000D01*
X139730000Y-148053000D01*
X139764000Y-148029000D01*
X139800000Y-148007000D01*
X139837000Y-147987000D01*
X139875000Y-147969000D01*
X139913000Y-147953000D01*
X139953000Y-147939000D01*
X139993000Y-147927000D01*
X140034000Y-147917000D01*
X140075000Y-147910000D01*
X140116000Y-147904000D01*
X140158000Y-147901000D01*
X140200000Y-147900000D01*
X142600000Y-147900000D01*
X142600000Y-149500000D01*
G36*
X142600000Y-119020000D02*
G01*
X140200000Y-119020000D01*
X140158000Y-119019000D01*
X140116000Y-119016000D01*
X140075000Y-119010000D01*
X140034000Y-119003000D01*
X139993000Y-118993000D01*
X139953000Y-118981000D01*
X139913000Y-118967000D01*
X139875000Y-118951000D01*
X139837000Y-118933000D01*
X139800000Y-118913000D01*
X139764000Y-118891000D01*
X139730000Y-118867000D01*
X139697000Y-118842000D01*
X139665000Y-118815000D01*
X139634000Y-118786000D01*
X139605000Y-118755000D01*
X139578000Y-118723000D01*
X139553000Y-118690000D01*
X139529000Y-118656000D01*
X139507000Y-118620000D01*
X139487000Y-118583000D01*
X139469000Y-118545000D01*
X139453000Y-118507000D01*
X139439000Y-118467000D01*
X139427000Y-118427000D01*
X139417000Y-118386000D01*
X139410000Y-118345000D01*
X139404000Y-118304000D01*
X139401000Y-118262000D01*
X139400000Y-118220000D01*
X139401000Y-118178000D01*
X139404000Y-118136000D01*
X139410000Y-118095000D01*
X139417000Y-118054000D01*
X139427000Y-118013000D01*
X139439000Y-117973000D01*
X139453000Y-117933000D01*
X139469000Y-117895000D01*
X139487000Y-117857000D01*
X139507000Y-117820000D01*
X139529000Y-117784000D01*
X139553000Y-117750000D01*
X139578000Y-117717000D01*
X139605000Y-117685000D01*
X139634000Y-117654000D01*
X139665000Y-117625000D01*
X139697000Y-117598000D01*
X139730000Y-117573000D01*
X139764000Y-117549000D01*
X139800000Y-117527000D01*
X139837000Y-117507000D01*
X139875000Y-117489000D01*
X139913000Y-117473000D01*
X139953000Y-117459000D01*
X139993000Y-117447000D01*
X140034000Y-117437000D01*
X140075000Y-117430000D01*
X140116000Y-117424000D01*
X140158000Y-117421000D01*
X140200000Y-117420000D01*
X142600000Y-117420000D01*
X142600000Y-119020000D01*
G37*
X142600000Y-119020000D02*
X140200000Y-119020000D01*
X140158000Y-119019000D01*
X140116000Y-119016000D01*
X140075000Y-119010000D01*
X140034000Y-119003000D01*
X139993000Y-118993000D01*
X139953000Y-118981000D01*
X139913000Y-118967000D01*
X139875000Y-118951000D01*
X139837000Y-118933000D01*
X139800000Y-118913000D01*
X139764000Y-118891000D01*
X139730000Y-118867000D01*
X139697000Y-118842000D01*
X139665000Y-118815000D01*
X139634000Y-118786000D01*
X139605000Y-118755000D01*
X139578000Y-118723000D01*
X139553000Y-118690000D01*
X139529000Y-118656000D01*
X139507000Y-118620000D01*
X139487000Y-118583000D01*
X139469000Y-118545000D01*
X139453000Y-118507000D01*
X139439000Y-118467000D01*
X139427000Y-118427000D01*
X139417000Y-118386000D01*
X139410000Y-118345000D01*
X139404000Y-118304000D01*
X139401000Y-118262000D01*
X139400000Y-118220000D01*
X139401000Y-118178000D01*
X139404000Y-118136000D01*
X139410000Y-118095000D01*
X139417000Y-118054000D01*
X139427000Y-118013000D01*
X139439000Y-117973000D01*
X139453000Y-117933000D01*
X139469000Y-117895000D01*
X139487000Y-117857000D01*
X139507000Y-117820000D01*
X139529000Y-117784000D01*
X139553000Y-117750000D01*
X139578000Y-117717000D01*
X139605000Y-117685000D01*
X139634000Y-117654000D01*
X139665000Y-117625000D01*
X139697000Y-117598000D01*
X139730000Y-117573000D01*
X139764000Y-117549000D01*
X139800000Y-117527000D01*
X139837000Y-117507000D01*
X139875000Y-117489000D01*
X139913000Y-117473000D01*
X139953000Y-117459000D01*
X139993000Y-117447000D01*
X140034000Y-117437000D01*
X140075000Y-117430000D01*
X140116000Y-117424000D01*
X140158000Y-117421000D01*
X140200000Y-117420000D01*
X142600000Y-117420000D01*
X142600000Y-119020000D01*
G36*
X122462000Y-109801000D02*
G01*
X122504000Y-109804000D01*
X122545000Y-109810000D01*
X122586000Y-109817000D01*
X122627000Y-109827000D01*
X122667000Y-109839000D01*
X122707000Y-109853000D01*
X122745000Y-109869000D01*
X122783000Y-109887000D01*
X122820000Y-109907000D01*
X122856000Y-109929000D01*
X122890000Y-109953000D01*
X122923000Y-109978000D01*
X122955000Y-110005000D01*
X122986000Y-110034000D01*
X123015000Y-110065000D01*
X123042000Y-110097000D01*
X123067000Y-110130000D01*
X123091000Y-110164000D01*
X123113000Y-110200000D01*
X123133000Y-110237000D01*
X123151000Y-110275000D01*
X123167000Y-110313000D01*
X123181000Y-110353000D01*
X123193000Y-110393000D01*
X123203000Y-110434000D01*
X123210000Y-110475000D01*
X123216000Y-110516000D01*
X123219000Y-110558000D01*
X123220000Y-110600000D01*
X123219000Y-110642000D01*
X123216000Y-110684000D01*
X123210000Y-110725000D01*
X123203000Y-110766000D01*
X123193000Y-110807000D01*
X123181000Y-110847000D01*
X123167000Y-110887000D01*
X123151000Y-110925000D01*
X123133000Y-110963000D01*
X123113000Y-111000000D01*
X123091000Y-111036000D01*
X123067000Y-111070000D01*
X123042000Y-111103000D01*
X123015000Y-111135000D01*
X122986000Y-111166000D01*
X122955000Y-111195000D01*
X122923000Y-111222000D01*
X122890000Y-111247000D01*
X122856000Y-111271000D01*
X122820000Y-111293000D01*
X122783000Y-111313000D01*
X122745000Y-111331000D01*
X122707000Y-111347000D01*
X122667000Y-111361000D01*
X122627000Y-111373000D01*
X122586000Y-111383000D01*
X122545000Y-111390000D01*
X122504000Y-111396000D01*
X122462000Y-111399000D01*
X122420000Y-111400000D01*
X120020000Y-111400000D01*
X120020000Y-109800000D01*
X122420000Y-109800000D01*
X122462000Y-109801000D01*
G37*
X122462000Y-109801000D02*
X122504000Y-109804000D01*
X122545000Y-109810000D01*
X122586000Y-109817000D01*
X122627000Y-109827000D01*
X122667000Y-109839000D01*
X122707000Y-109853000D01*
X122745000Y-109869000D01*
X122783000Y-109887000D01*
X122820000Y-109907000D01*
X122856000Y-109929000D01*
X122890000Y-109953000D01*
X122923000Y-109978000D01*
X122955000Y-110005000D01*
X122986000Y-110034000D01*
X123015000Y-110065000D01*
X123042000Y-110097000D01*
X123067000Y-110130000D01*
X123091000Y-110164000D01*
X123113000Y-110200000D01*
X123133000Y-110237000D01*
X123151000Y-110275000D01*
X123167000Y-110313000D01*
X123181000Y-110353000D01*
X123193000Y-110393000D01*
X123203000Y-110434000D01*
X123210000Y-110475000D01*
X123216000Y-110516000D01*
X123219000Y-110558000D01*
X123220000Y-110600000D01*
X123219000Y-110642000D01*
X123216000Y-110684000D01*
X123210000Y-110725000D01*
X123203000Y-110766000D01*
X123193000Y-110807000D01*
X123181000Y-110847000D01*
X123167000Y-110887000D01*
X123151000Y-110925000D01*
X123133000Y-110963000D01*
X123113000Y-111000000D01*
X123091000Y-111036000D01*
X123067000Y-111070000D01*
X123042000Y-111103000D01*
X123015000Y-111135000D01*
X122986000Y-111166000D01*
X122955000Y-111195000D01*
X122923000Y-111222000D01*
X122890000Y-111247000D01*
X122856000Y-111271000D01*
X122820000Y-111293000D01*
X122783000Y-111313000D01*
X122745000Y-111331000D01*
X122707000Y-111347000D01*
X122667000Y-111361000D01*
X122627000Y-111373000D01*
X122586000Y-111383000D01*
X122545000Y-111390000D01*
X122504000Y-111396000D01*
X122462000Y-111399000D01*
X122420000Y-111400000D01*
X120020000Y-111400000D01*
X120020000Y-109800000D01*
X122420000Y-109800000D01*
X122462000Y-109801000D01*
G36*
X122462000Y-130121000D02*
G01*
X122504000Y-130124000D01*
X122545000Y-130130000D01*
X122586000Y-130137000D01*
X122627000Y-130147000D01*
X122667000Y-130159000D01*
X122707000Y-130173000D01*
X122745000Y-130189000D01*
X122783000Y-130207000D01*
X122820000Y-130227000D01*
X122856000Y-130249000D01*
X122890000Y-130273000D01*
X122923000Y-130298000D01*
X122955000Y-130325000D01*
X122986000Y-130354000D01*
X123015000Y-130385000D01*
X123042000Y-130417000D01*
X123067000Y-130450000D01*
X123091000Y-130484000D01*
X123113000Y-130520000D01*
X123133000Y-130557000D01*
X123151000Y-130595000D01*
X123167000Y-130633000D01*
X123181000Y-130673000D01*
X123193000Y-130713000D01*
X123203000Y-130754000D01*
X123210000Y-130795000D01*
X123216000Y-130836000D01*
X123219000Y-130878000D01*
X123220000Y-130920000D01*
X123219000Y-130962000D01*
X123216000Y-131004000D01*
X123210000Y-131045000D01*
X123203000Y-131086000D01*
X123193000Y-131127000D01*
X123181000Y-131167000D01*
X123167000Y-131207000D01*
X123151000Y-131245000D01*
X123133000Y-131283000D01*
X123113000Y-131320000D01*
X123091000Y-131356000D01*
X123067000Y-131390000D01*
X123042000Y-131423000D01*
X123015000Y-131455000D01*
X122986000Y-131486000D01*
X122955000Y-131515000D01*
X122923000Y-131542000D01*
X122890000Y-131567000D01*
X122856000Y-131591000D01*
X122820000Y-131613000D01*
X122783000Y-131633000D01*
X122745000Y-131651000D01*
X122707000Y-131667000D01*
X122667000Y-131681000D01*
X122627000Y-131693000D01*
X122586000Y-131703000D01*
X122545000Y-131710000D01*
X122504000Y-131716000D01*
X122462000Y-131719000D01*
X122420000Y-131720000D01*
X120020000Y-131720000D01*
X120020000Y-130120000D01*
X122420000Y-130120000D01*
X122462000Y-130121000D01*
G37*
X122462000Y-130121000D02*
X122504000Y-130124000D01*
X122545000Y-130130000D01*
X122586000Y-130137000D01*
X122627000Y-130147000D01*
X122667000Y-130159000D01*
X122707000Y-130173000D01*
X122745000Y-130189000D01*
X122783000Y-130207000D01*
X122820000Y-130227000D01*
X122856000Y-130249000D01*
X122890000Y-130273000D01*
X122923000Y-130298000D01*
X122955000Y-130325000D01*
X122986000Y-130354000D01*
X123015000Y-130385000D01*
X123042000Y-130417000D01*
X123067000Y-130450000D01*
X123091000Y-130484000D01*
X123113000Y-130520000D01*
X123133000Y-130557000D01*
X123151000Y-130595000D01*
X123167000Y-130633000D01*
X123181000Y-130673000D01*
X123193000Y-130713000D01*
X123203000Y-130754000D01*
X123210000Y-130795000D01*
X123216000Y-130836000D01*
X123219000Y-130878000D01*
X123220000Y-130920000D01*
X123219000Y-130962000D01*
X123216000Y-131004000D01*
X123210000Y-131045000D01*
X123203000Y-131086000D01*
X123193000Y-131127000D01*
X123181000Y-131167000D01*
X123167000Y-131207000D01*
X123151000Y-131245000D01*
X123133000Y-131283000D01*
X123113000Y-131320000D01*
X123091000Y-131356000D01*
X123067000Y-131390000D01*
X123042000Y-131423000D01*
X123015000Y-131455000D01*
X122986000Y-131486000D01*
X122955000Y-131515000D01*
X122923000Y-131542000D01*
X122890000Y-131567000D01*
X122856000Y-131591000D01*
X122820000Y-131613000D01*
X122783000Y-131633000D01*
X122745000Y-131651000D01*
X122707000Y-131667000D01*
X122667000Y-131681000D01*
X122627000Y-131693000D01*
X122586000Y-131703000D01*
X122545000Y-131710000D01*
X122504000Y-131716000D01*
X122462000Y-131719000D01*
X122420000Y-131720000D01*
X120020000Y-131720000D01*
X120020000Y-130120000D01*
X122420000Y-130120000D01*
X122462000Y-130121000D01*
G36*
X123041000Y-119961000D02*
G01*
X123051000Y-119962000D01*
X123062000Y-119964000D01*
X123092000Y-119973000D01*
X123101000Y-119977000D01*
X123111000Y-119982000D01*
X123129000Y-119992000D01*
X123138000Y-119998000D01*
X123146000Y-120005000D01*
X123154000Y-120011000D01*
X123161000Y-120019000D01*
X123169000Y-120026000D01*
X123175000Y-120034000D01*
X123182000Y-120042000D01*
X123188000Y-120051000D01*
X123198000Y-120069000D01*
X123203000Y-120079000D01*
X123207000Y-120088000D01*
X123216000Y-120118000D01*
X123218000Y-120129000D01*
X123219000Y-120139000D01*
X123220000Y-120150000D01*
X123220000Y-121370000D01*
X123219000Y-121381000D01*
X123218000Y-121391000D01*
X123216000Y-121402000D01*
X123207000Y-121432000D01*
X123203000Y-121441000D01*
X123198000Y-121451000D01*
X123188000Y-121469000D01*
X123182000Y-121478000D01*
X123175000Y-121486000D01*
X123169000Y-121494000D01*
X123161000Y-121501000D01*
X123154000Y-121509000D01*
X123146000Y-121515000D01*
X123138000Y-121522000D01*
X123129000Y-121528000D01*
X123111000Y-121538000D01*
X123101000Y-121543000D01*
X123092000Y-121547000D01*
X123062000Y-121556000D01*
X123051000Y-121558000D01*
X123041000Y-121559000D01*
X123030000Y-121560000D01*
X120020000Y-121560000D01*
X120020000Y-119960000D01*
X123030000Y-119960000D01*
X123041000Y-119961000D01*
G37*
X123041000Y-119961000D02*
X123051000Y-119962000D01*
X123062000Y-119964000D01*
X123092000Y-119973000D01*
X123101000Y-119977000D01*
X123111000Y-119982000D01*
X123129000Y-119992000D01*
X123138000Y-119998000D01*
X123146000Y-120005000D01*
X123154000Y-120011000D01*
X123161000Y-120019000D01*
X123169000Y-120026000D01*
X123175000Y-120034000D01*
X123182000Y-120042000D01*
X123188000Y-120051000D01*
X123198000Y-120069000D01*
X123203000Y-120079000D01*
X123207000Y-120088000D01*
X123216000Y-120118000D01*
X123218000Y-120129000D01*
X123219000Y-120139000D01*
X123220000Y-120150000D01*
X123220000Y-121370000D01*
X123219000Y-121381000D01*
X123218000Y-121391000D01*
X123216000Y-121402000D01*
X123207000Y-121432000D01*
X123203000Y-121441000D01*
X123198000Y-121451000D01*
X123188000Y-121469000D01*
X123182000Y-121478000D01*
X123175000Y-121486000D01*
X123169000Y-121494000D01*
X123161000Y-121501000D01*
X123154000Y-121509000D01*
X123146000Y-121515000D01*
X123138000Y-121522000D01*
X123129000Y-121528000D01*
X123111000Y-121538000D01*
X123101000Y-121543000D01*
X123092000Y-121547000D01*
X123062000Y-121556000D01*
X123051000Y-121558000D01*
X123041000Y-121559000D01*
X123030000Y-121560000D01*
X120020000Y-121560000D01*
X120020000Y-119960000D01*
X123030000Y-119960000D01*
X123041000Y-119961000D01*
G36*
X142600000Y-103780000D02*
G01*
X140200000Y-103780000D01*
X140158000Y-103779000D01*
X140116000Y-103776000D01*
X140075000Y-103770000D01*
X140034000Y-103763000D01*
X139993000Y-103753000D01*
X139953000Y-103741000D01*
X139913000Y-103727000D01*
X139875000Y-103711000D01*
X139837000Y-103693000D01*
X139800000Y-103673000D01*
X139764000Y-103651000D01*
X139730000Y-103627000D01*
X139697000Y-103602000D01*
X139665000Y-103575000D01*
X139634000Y-103546000D01*
X139605000Y-103515000D01*
X139578000Y-103483000D01*
X139553000Y-103450000D01*
X139529000Y-103416000D01*
X139507000Y-103380000D01*
X139487000Y-103343000D01*
X139469000Y-103305000D01*
X139453000Y-103267000D01*
X139439000Y-103227000D01*
X139427000Y-103187000D01*
X139417000Y-103146000D01*
X139410000Y-103105000D01*
X139404000Y-103064000D01*
X139401000Y-103022000D01*
X139400000Y-102980000D01*
X139401000Y-102938000D01*
X139404000Y-102896000D01*
X139410000Y-102855000D01*
X139417000Y-102814000D01*
X139427000Y-102773000D01*
X139439000Y-102733000D01*
X139453000Y-102693000D01*
X139469000Y-102655000D01*
X139487000Y-102617000D01*
X139507000Y-102580000D01*
X139529000Y-102544000D01*
X139553000Y-102510000D01*
X139578000Y-102477000D01*
X139605000Y-102445000D01*
X139634000Y-102414000D01*
X139665000Y-102385000D01*
X139697000Y-102358000D01*
X139730000Y-102333000D01*
X139764000Y-102309000D01*
X139800000Y-102287000D01*
X139837000Y-102267000D01*
X139875000Y-102249000D01*
X139913000Y-102233000D01*
X139953000Y-102219000D01*
X139993000Y-102207000D01*
X140034000Y-102197000D01*
X140075000Y-102190000D01*
X140116000Y-102184000D01*
X140158000Y-102181000D01*
X140200000Y-102180000D01*
X142600000Y-102180000D01*
X142600000Y-103780000D01*
G37*
X142600000Y-103780000D02*
X140200000Y-103780000D01*
X140158000Y-103779000D01*
X140116000Y-103776000D01*
X140075000Y-103770000D01*
X140034000Y-103763000D01*
X139993000Y-103753000D01*
X139953000Y-103741000D01*
X139913000Y-103727000D01*
X139875000Y-103711000D01*
X139837000Y-103693000D01*
X139800000Y-103673000D01*
X139764000Y-103651000D01*
X139730000Y-103627000D01*
X139697000Y-103602000D01*
X139665000Y-103575000D01*
X139634000Y-103546000D01*
X139605000Y-103515000D01*
X139578000Y-103483000D01*
X139553000Y-103450000D01*
X139529000Y-103416000D01*
X139507000Y-103380000D01*
X139487000Y-103343000D01*
X139469000Y-103305000D01*
X139453000Y-103267000D01*
X139439000Y-103227000D01*
X139427000Y-103187000D01*
X139417000Y-103146000D01*
X139410000Y-103105000D01*
X139404000Y-103064000D01*
X139401000Y-103022000D01*
X139400000Y-102980000D01*
X139401000Y-102938000D01*
X139404000Y-102896000D01*
X139410000Y-102855000D01*
X139417000Y-102814000D01*
X139427000Y-102773000D01*
X139439000Y-102733000D01*
X139453000Y-102693000D01*
X139469000Y-102655000D01*
X139487000Y-102617000D01*
X139507000Y-102580000D01*
X139529000Y-102544000D01*
X139553000Y-102510000D01*
X139578000Y-102477000D01*
X139605000Y-102445000D01*
X139634000Y-102414000D01*
X139665000Y-102385000D01*
X139697000Y-102358000D01*
X139730000Y-102333000D01*
X139764000Y-102309000D01*
X139800000Y-102287000D01*
X139837000Y-102267000D01*
X139875000Y-102249000D01*
X139913000Y-102233000D01*
X139953000Y-102219000D01*
X139993000Y-102207000D01*
X140034000Y-102197000D01*
X140075000Y-102190000D01*
X140116000Y-102184000D01*
X140158000Y-102181000D01*
X140200000Y-102180000D01*
X142600000Y-102180000D01*
X142600000Y-103780000D01*
G36*
X142600000Y-139340000D02*
G01*
X140200000Y-139340000D01*
X140158000Y-139339000D01*
X140116000Y-139336000D01*
X140075000Y-139330000D01*
X140034000Y-139323000D01*
X139993000Y-139313000D01*
X139953000Y-139301000D01*
X139913000Y-139287000D01*
X139875000Y-139271000D01*
X139837000Y-139253000D01*
X139800000Y-139233000D01*
X139764000Y-139211000D01*
X139730000Y-139187000D01*
X139697000Y-139162000D01*
X139665000Y-139135000D01*
X139634000Y-139106000D01*
X139605000Y-139075000D01*
X139578000Y-139043000D01*
X139553000Y-139010000D01*
X139529000Y-138976000D01*
X139507000Y-138940000D01*
X139487000Y-138903000D01*
X139469000Y-138865000D01*
X139453000Y-138827000D01*
X139439000Y-138787000D01*
X139427000Y-138747000D01*
X139417000Y-138706000D01*
X139410000Y-138665000D01*
X139404000Y-138624000D01*
X139401000Y-138582000D01*
X139400000Y-138540000D01*
X139401000Y-138498000D01*
X139404000Y-138456000D01*
X139410000Y-138415000D01*
X139417000Y-138374000D01*
X139427000Y-138333000D01*
X139439000Y-138293000D01*
X139453000Y-138253000D01*
X139469000Y-138215000D01*
X139487000Y-138177000D01*
X139507000Y-138140000D01*
X139529000Y-138104000D01*
X139553000Y-138070000D01*
X139578000Y-138037000D01*
X139605000Y-138005000D01*
X139634000Y-137974000D01*
X139665000Y-137945000D01*
X139697000Y-137918000D01*
X139730000Y-137893000D01*
X139764000Y-137869000D01*
X139800000Y-137847000D01*
X139837000Y-137827000D01*
X139875000Y-137809000D01*
X139913000Y-137793000D01*
X139953000Y-137779000D01*
X139993000Y-137767000D01*
X140034000Y-137757000D01*
X140075000Y-137750000D01*
X140116000Y-137744000D01*
X140158000Y-137741000D01*
X140200000Y-137740000D01*
X142600000Y-137740000D01*
X142600000Y-139340000D01*
G37*
X142600000Y-139340000D02*
X140200000Y-139340000D01*
X140158000Y-139339000D01*
X140116000Y-139336000D01*
X140075000Y-139330000D01*
X140034000Y-139323000D01*
X139993000Y-139313000D01*
X139953000Y-139301000D01*
X139913000Y-139287000D01*
X139875000Y-139271000D01*
X139837000Y-139253000D01*
X139800000Y-139233000D01*
X139764000Y-139211000D01*
X139730000Y-139187000D01*
X139697000Y-139162000D01*
X139665000Y-139135000D01*
X139634000Y-139106000D01*
X139605000Y-139075000D01*
X139578000Y-139043000D01*
X139553000Y-139010000D01*
X139529000Y-138976000D01*
X139507000Y-138940000D01*
X139487000Y-138903000D01*
X139469000Y-138865000D01*
X139453000Y-138827000D01*
X139439000Y-138787000D01*
X139427000Y-138747000D01*
X139417000Y-138706000D01*
X139410000Y-138665000D01*
X139404000Y-138624000D01*
X139401000Y-138582000D01*
X139400000Y-138540000D01*
X139401000Y-138498000D01*
X139404000Y-138456000D01*
X139410000Y-138415000D01*
X139417000Y-138374000D01*
X139427000Y-138333000D01*
X139439000Y-138293000D01*
X139453000Y-138253000D01*
X139469000Y-138215000D01*
X139487000Y-138177000D01*
X139507000Y-138140000D01*
X139529000Y-138104000D01*
X139553000Y-138070000D01*
X139578000Y-138037000D01*
X139605000Y-138005000D01*
X139634000Y-137974000D01*
X139665000Y-137945000D01*
X139697000Y-137918000D01*
X139730000Y-137893000D01*
X139764000Y-137869000D01*
X139800000Y-137847000D01*
X139837000Y-137827000D01*
X139875000Y-137809000D01*
X139913000Y-137793000D01*
X139953000Y-137779000D01*
X139993000Y-137767000D01*
X140034000Y-137757000D01*
X140075000Y-137750000D01*
X140116000Y-137744000D01*
X140158000Y-137741000D01*
X140200000Y-137740000D01*
X142600000Y-137740000D01*
X142600000Y-139340000D01*
G36*
X122462000Y-137741000D02*
G01*
X122504000Y-137744000D01*
X122545000Y-137750000D01*
X122586000Y-137757000D01*
X122627000Y-137767000D01*
X122667000Y-137779000D01*
X122707000Y-137793000D01*
X122745000Y-137809000D01*
X122783000Y-137827000D01*
X122820000Y-137847000D01*
X122856000Y-137869000D01*
X122890000Y-137893000D01*
X122923000Y-137918000D01*
X122955000Y-137945000D01*
X122986000Y-137974000D01*
X123015000Y-138005000D01*
X123042000Y-138037000D01*
X123067000Y-138070000D01*
X123091000Y-138104000D01*
X123113000Y-138140000D01*
X123133000Y-138177000D01*
X123151000Y-138215000D01*
X123167000Y-138253000D01*
X123181000Y-138293000D01*
X123193000Y-138333000D01*
X123203000Y-138374000D01*
X123210000Y-138415000D01*
X123216000Y-138456000D01*
X123219000Y-138498000D01*
X123220000Y-138540000D01*
X123219000Y-138582000D01*
X123216000Y-138624000D01*
X123210000Y-138665000D01*
X123203000Y-138706000D01*
X123193000Y-138747000D01*
X123181000Y-138787000D01*
X123167000Y-138827000D01*
X123151000Y-138865000D01*
X123133000Y-138903000D01*
X123113000Y-138940000D01*
X123091000Y-138976000D01*
X123067000Y-139010000D01*
X123042000Y-139043000D01*
X123015000Y-139075000D01*
X122986000Y-139106000D01*
X122955000Y-139135000D01*
X122923000Y-139162000D01*
X122890000Y-139187000D01*
X122856000Y-139211000D01*
X122820000Y-139233000D01*
X122783000Y-139253000D01*
X122745000Y-139271000D01*
X122707000Y-139287000D01*
X122667000Y-139301000D01*
X122627000Y-139313000D01*
X122586000Y-139323000D01*
X122545000Y-139330000D01*
X122504000Y-139336000D01*
X122462000Y-139339000D01*
X122420000Y-139340000D01*
X120020000Y-139340000D01*
X120020000Y-137740000D01*
X122420000Y-137740000D01*
X122462000Y-137741000D01*
G37*
X122462000Y-137741000D02*
X122504000Y-137744000D01*
X122545000Y-137750000D01*
X122586000Y-137757000D01*
X122627000Y-137767000D01*
X122667000Y-137779000D01*
X122707000Y-137793000D01*
X122745000Y-137809000D01*
X122783000Y-137827000D01*
X122820000Y-137847000D01*
X122856000Y-137869000D01*
X122890000Y-137893000D01*
X122923000Y-137918000D01*
X122955000Y-137945000D01*
X122986000Y-137974000D01*
X123015000Y-138005000D01*
X123042000Y-138037000D01*
X123067000Y-138070000D01*
X123091000Y-138104000D01*
X123113000Y-138140000D01*
X123133000Y-138177000D01*
X123151000Y-138215000D01*
X123167000Y-138253000D01*
X123181000Y-138293000D01*
X123193000Y-138333000D01*
X123203000Y-138374000D01*
X123210000Y-138415000D01*
X123216000Y-138456000D01*
X123219000Y-138498000D01*
X123220000Y-138540000D01*
X123219000Y-138582000D01*
X123216000Y-138624000D01*
X123210000Y-138665000D01*
X123203000Y-138706000D01*
X123193000Y-138747000D01*
X123181000Y-138787000D01*
X123167000Y-138827000D01*
X123151000Y-138865000D01*
X123133000Y-138903000D01*
X123113000Y-138940000D01*
X123091000Y-138976000D01*
X123067000Y-139010000D01*
X123042000Y-139043000D01*
X123015000Y-139075000D01*
X122986000Y-139106000D01*
X122955000Y-139135000D01*
X122923000Y-139162000D01*
X122890000Y-139187000D01*
X122856000Y-139211000D01*
X122820000Y-139233000D01*
X122783000Y-139253000D01*
X122745000Y-139271000D01*
X122707000Y-139287000D01*
X122667000Y-139301000D01*
X122627000Y-139313000D01*
X122586000Y-139323000D01*
X122545000Y-139330000D01*
X122504000Y-139336000D01*
X122462000Y-139339000D01*
X122420000Y-139340000D01*
X120020000Y-139340000D01*
X120020000Y-137740000D01*
X122420000Y-137740000D01*
X122462000Y-137741000D01*
G36*
X122462000Y-122501000D02*
G01*
X122504000Y-122504000D01*
X122545000Y-122510000D01*
X122586000Y-122517000D01*
X122627000Y-122527000D01*
X122667000Y-122539000D01*
X122707000Y-122553000D01*
X122745000Y-122569000D01*
X122783000Y-122587000D01*
X122820000Y-122607000D01*
X122856000Y-122629000D01*
X122890000Y-122653000D01*
X122923000Y-122678000D01*
X122955000Y-122705000D01*
X122986000Y-122734000D01*
X123015000Y-122765000D01*
X123042000Y-122797000D01*
X123067000Y-122830000D01*
X123091000Y-122864000D01*
X123113000Y-122900000D01*
X123133000Y-122937000D01*
X123151000Y-122975000D01*
X123167000Y-123013000D01*
X123181000Y-123053000D01*
X123193000Y-123093000D01*
X123203000Y-123134000D01*
X123210000Y-123175000D01*
X123216000Y-123216000D01*
X123219000Y-123258000D01*
X123220000Y-123300000D01*
X123219000Y-123342000D01*
X123216000Y-123384000D01*
X123210000Y-123425000D01*
X123203000Y-123466000D01*
X123193000Y-123507000D01*
X123181000Y-123547000D01*
X123167000Y-123587000D01*
X123151000Y-123625000D01*
X123133000Y-123663000D01*
X123113000Y-123700000D01*
X123091000Y-123736000D01*
X123067000Y-123770000D01*
X123042000Y-123803000D01*
X123015000Y-123835000D01*
X122986000Y-123866000D01*
X122955000Y-123895000D01*
X122923000Y-123922000D01*
X122890000Y-123947000D01*
X122856000Y-123971000D01*
X122820000Y-123993000D01*
X122783000Y-124013000D01*
X122745000Y-124031000D01*
X122707000Y-124047000D01*
X122667000Y-124061000D01*
X122627000Y-124073000D01*
X122586000Y-124083000D01*
X122545000Y-124090000D01*
X122504000Y-124096000D01*
X122462000Y-124099000D01*
X122420000Y-124100000D01*
X120020000Y-124100000D01*
X120020000Y-122500000D01*
X122420000Y-122500000D01*
X122462000Y-122501000D01*
G37*
X122462000Y-122501000D02*
X122504000Y-122504000D01*
X122545000Y-122510000D01*
X122586000Y-122517000D01*
X122627000Y-122527000D01*
X122667000Y-122539000D01*
X122707000Y-122553000D01*
X122745000Y-122569000D01*
X122783000Y-122587000D01*
X122820000Y-122607000D01*
X122856000Y-122629000D01*
X122890000Y-122653000D01*
X122923000Y-122678000D01*
X122955000Y-122705000D01*
X122986000Y-122734000D01*
X123015000Y-122765000D01*
X123042000Y-122797000D01*
X123067000Y-122830000D01*
X123091000Y-122864000D01*
X123113000Y-122900000D01*
X123133000Y-122937000D01*
X123151000Y-122975000D01*
X123167000Y-123013000D01*
X123181000Y-123053000D01*
X123193000Y-123093000D01*
X123203000Y-123134000D01*
X123210000Y-123175000D01*
X123216000Y-123216000D01*
X123219000Y-123258000D01*
X123220000Y-123300000D01*
X123219000Y-123342000D01*
X123216000Y-123384000D01*
X123210000Y-123425000D01*
X123203000Y-123466000D01*
X123193000Y-123507000D01*
X123181000Y-123547000D01*
X123167000Y-123587000D01*
X123151000Y-123625000D01*
X123133000Y-123663000D01*
X123113000Y-123700000D01*
X123091000Y-123736000D01*
X123067000Y-123770000D01*
X123042000Y-123803000D01*
X123015000Y-123835000D01*
X122986000Y-123866000D01*
X122955000Y-123895000D01*
X122923000Y-123922000D01*
X122890000Y-123947000D01*
X122856000Y-123971000D01*
X122820000Y-123993000D01*
X122783000Y-124013000D01*
X122745000Y-124031000D01*
X122707000Y-124047000D01*
X122667000Y-124061000D01*
X122627000Y-124073000D01*
X122586000Y-124083000D01*
X122545000Y-124090000D01*
X122504000Y-124096000D01*
X122462000Y-124099000D01*
X122420000Y-124100000D01*
X120020000Y-124100000D01*
X120020000Y-122500000D01*
X122420000Y-122500000D01*
X122462000Y-122501000D01*
G36*
X142600000Y-106320000D02*
G01*
X140200000Y-106320000D01*
X140158000Y-106319000D01*
X140116000Y-106316000D01*
X140075000Y-106310000D01*
X140034000Y-106303000D01*
X139993000Y-106293000D01*
X139953000Y-106281000D01*
X139913000Y-106267000D01*
X139875000Y-106251000D01*
X139837000Y-106233000D01*
X139800000Y-106213000D01*
X139764000Y-106191000D01*
X139730000Y-106167000D01*
X139697000Y-106142000D01*
X139665000Y-106115000D01*
X139634000Y-106086000D01*
X139605000Y-106055000D01*
X139578000Y-106023000D01*
X139553000Y-105990000D01*
X139529000Y-105956000D01*
X139507000Y-105920000D01*
X139487000Y-105883000D01*
X139469000Y-105845000D01*
X139453000Y-105807000D01*
X139439000Y-105767000D01*
X139427000Y-105727000D01*
X139417000Y-105686000D01*
X139410000Y-105645000D01*
X139404000Y-105604000D01*
X139401000Y-105562000D01*
X139400000Y-105520000D01*
X139401000Y-105478000D01*
X139404000Y-105436000D01*
X139410000Y-105395000D01*
X139417000Y-105354000D01*
X139427000Y-105313000D01*
X139439000Y-105273000D01*
X139453000Y-105233000D01*
X139469000Y-105195000D01*
X139487000Y-105157000D01*
X139507000Y-105120000D01*
X139529000Y-105084000D01*
X139553000Y-105050000D01*
X139578000Y-105017000D01*
X139605000Y-104985000D01*
X139634000Y-104954000D01*
X139665000Y-104925000D01*
X139697000Y-104898000D01*
X139730000Y-104873000D01*
X139764000Y-104849000D01*
X139800000Y-104827000D01*
X139837000Y-104807000D01*
X139875000Y-104789000D01*
X139913000Y-104773000D01*
X139953000Y-104759000D01*
X139993000Y-104747000D01*
X140034000Y-104737000D01*
X140075000Y-104730000D01*
X140116000Y-104724000D01*
X140158000Y-104721000D01*
X140200000Y-104720000D01*
X142600000Y-104720000D01*
X142600000Y-106320000D01*
G37*
X142600000Y-106320000D02*
X140200000Y-106320000D01*
X140158000Y-106319000D01*
X140116000Y-106316000D01*
X140075000Y-106310000D01*
X140034000Y-106303000D01*
X139993000Y-106293000D01*
X139953000Y-106281000D01*
X139913000Y-106267000D01*
X139875000Y-106251000D01*
X139837000Y-106233000D01*
X139800000Y-106213000D01*
X139764000Y-106191000D01*
X139730000Y-106167000D01*
X139697000Y-106142000D01*
X139665000Y-106115000D01*
X139634000Y-106086000D01*
X139605000Y-106055000D01*
X139578000Y-106023000D01*
X139553000Y-105990000D01*
X139529000Y-105956000D01*
X139507000Y-105920000D01*
X139487000Y-105883000D01*
X139469000Y-105845000D01*
X139453000Y-105807000D01*
X139439000Y-105767000D01*
X139427000Y-105727000D01*
X139417000Y-105686000D01*
X139410000Y-105645000D01*
X139404000Y-105604000D01*
X139401000Y-105562000D01*
X139400000Y-105520000D01*
X139401000Y-105478000D01*
X139404000Y-105436000D01*
X139410000Y-105395000D01*
X139417000Y-105354000D01*
X139427000Y-105313000D01*
X139439000Y-105273000D01*
X139453000Y-105233000D01*
X139469000Y-105195000D01*
X139487000Y-105157000D01*
X139507000Y-105120000D01*
X139529000Y-105084000D01*
X139553000Y-105050000D01*
X139578000Y-105017000D01*
X139605000Y-104985000D01*
X139634000Y-104954000D01*
X139665000Y-104925000D01*
X139697000Y-104898000D01*
X139730000Y-104873000D01*
X139764000Y-104849000D01*
X139800000Y-104827000D01*
X139837000Y-104807000D01*
X139875000Y-104789000D01*
X139913000Y-104773000D01*
X139953000Y-104759000D01*
X139993000Y-104747000D01*
X140034000Y-104737000D01*
X140075000Y-104730000D01*
X140116000Y-104724000D01*
X140158000Y-104721000D01*
X140200000Y-104720000D01*
X142600000Y-104720000D01*
X142600000Y-106320000D01*
G36*
X142600000Y-134260000D02*
G01*
X139590000Y-134260000D01*
X139579000Y-134259000D01*
X139569000Y-134258000D01*
X139558000Y-134256000D01*
X139528000Y-134247000D01*
X139519000Y-134243000D01*
X139509000Y-134238000D01*
X139491000Y-134228000D01*
X139482000Y-134222000D01*
X139474000Y-134215000D01*
X139466000Y-134209000D01*
X139459000Y-134201000D01*
X139451000Y-134194000D01*
X139445000Y-134186000D01*
X139438000Y-134178000D01*
X139432000Y-134169000D01*
X139422000Y-134151000D01*
X139417000Y-134141000D01*
X139413000Y-134132000D01*
X139404000Y-134102000D01*
X139402000Y-134091000D01*
X139401000Y-134081000D01*
X139400000Y-134070000D01*
X139400000Y-132850000D01*
X139401000Y-132839000D01*
X139402000Y-132829000D01*
X139404000Y-132818000D01*
X139413000Y-132788000D01*
X139417000Y-132779000D01*
X139422000Y-132769000D01*
X139432000Y-132751000D01*
X139438000Y-132742000D01*
X139445000Y-132734000D01*
X139451000Y-132726000D01*
X139459000Y-132719000D01*
X139466000Y-132711000D01*
X139474000Y-132705000D01*
X139482000Y-132698000D01*
X139491000Y-132692000D01*
X139509000Y-132682000D01*
X139519000Y-132677000D01*
X139528000Y-132673000D01*
X139558000Y-132664000D01*
X139569000Y-132662000D01*
X139579000Y-132661000D01*
X139590000Y-132660000D01*
X142600000Y-132660000D01*
X142600000Y-134260000D01*
G37*
X142600000Y-134260000D02*
X139590000Y-134260000D01*
X139579000Y-134259000D01*
X139569000Y-134258000D01*
X139558000Y-134256000D01*
X139528000Y-134247000D01*
X139519000Y-134243000D01*
X139509000Y-134238000D01*
X139491000Y-134228000D01*
X139482000Y-134222000D01*
X139474000Y-134215000D01*
X139466000Y-134209000D01*
X139459000Y-134201000D01*
X139451000Y-134194000D01*
X139445000Y-134186000D01*
X139438000Y-134178000D01*
X139432000Y-134169000D01*
X139422000Y-134151000D01*
X139417000Y-134141000D01*
X139413000Y-134132000D01*
X139404000Y-134102000D01*
X139402000Y-134091000D01*
X139401000Y-134081000D01*
X139400000Y-134070000D01*
X139400000Y-132850000D01*
X139401000Y-132839000D01*
X139402000Y-132829000D01*
X139404000Y-132818000D01*
X139413000Y-132788000D01*
X139417000Y-132779000D01*
X139422000Y-132769000D01*
X139432000Y-132751000D01*
X139438000Y-132742000D01*
X139445000Y-132734000D01*
X139451000Y-132726000D01*
X139459000Y-132719000D01*
X139466000Y-132711000D01*
X139474000Y-132705000D01*
X139482000Y-132698000D01*
X139491000Y-132692000D01*
X139509000Y-132682000D01*
X139519000Y-132677000D01*
X139528000Y-132673000D01*
X139558000Y-132664000D01*
X139569000Y-132662000D01*
X139579000Y-132661000D01*
X139590000Y-132660000D01*
X142600000Y-132660000D01*
X142600000Y-134260000D01*
G36*
X142600000Y-144420000D02*
G01*
X140200000Y-144420000D01*
X140158000Y-144419000D01*
X140116000Y-144416000D01*
X140075000Y-144410000D01*
X140034000Y-144403000D01*
X139993000Y-144393000D01*
X139953000Y-144381000D01*
X139913000Y-144367000D01*
X139875000Y-144351000D01*
X139837000Y-144333000D01*
X139800000Y-144313000D01*
X139764000Y-144291000D01*
X139730000Y-144267000D01*
X139697000Y-144242000D01*
X139665000Y-144215000D01*
X139634000Y-144186000D01*
X139605000Y-144155000D01*
X139578000Y-144123000D01*
X139553000Y-144090000D01*
X139529000Y-144056000D01*
X139507000Y-144020000D01*
X139487000Y-143983000D01*
X139469000Y-143945000D01*
X139453000Y-143907000D01*
X139439000Y-143867000D01*
X139427000Y-143827000D01*
X139417000Y-143786000D01*
X139410000Y-143745000D01*
X139404000Y-143704000D01*
X139401000Y-143662000D01*
X139400000Y-143620000D01*
X139401000Y-143578000D01*
X139404000Y-143536000D01*
X139410000Y-143495000D01*
X139417000Y-143454000D01*
X139427000Y-143413000D01*
X139439000Y-143373000D01*
X139453000Y-143333000D01*
X139469000Y-143295000D01*
X139487000Y-143257000D01*
X139507000Y-143220000D01*
X139529000Y-143184000D01*
X139553000Y-143150000D01*
X139578000Y-143117000D01*
X139605000Y-143085000D01*
X139634000Y-143054000D01*
X139665000Y-143025000D01*
X139697000Y-142998000D01*
X139730000Y-142973000D01*
X139764000Y-142949000D01*
X139800000Y-142927000D01*
X139837000Y-142907000D01*
X139875000Y-142889000D01*
X139913000Y-142873000D01*
X139953000Y-142859000D01*
X139993000Y-142847000D01*
X140034000Y-142837000D01*
X140075000Y-142830000D01*
X140116000Y-142824000D01*
X140158000Y-142821000D01*
X140200000Y-142820000D01*
X142600000Y-142820000D01*
X142600000Y-144420000D01*
G37*
X142600000Y-144420000D02*
X140200000Y-144420000D01*
X140158000Y-144419000D01*
X140116000Y-144416000D01*
X140075000Y-144410000D01*
X140034000Y-144403000D01*
X139993000Y-144393000D01*
X139953000Y-144381000D01*
X139913000Y-144367000D01*
X139875000Y-144351000D01*
X139837000Y-144333000D01*
X139800000Y-144313000D01*
X139764000Y-144291000D01*
X139730000Y-144267000D01*
X139697000Y-144242000D01*
X139665000Y-144215000D01*
X139634000Y-144186000D01*
X139605000Y-144155000D01*
X139578000Y-144123000D01*
X139553000Y-144090000D01*
X139529000Y-144056000D01*
X139507000Y-144020000D01*
X139487000Y-143983000D01*
X139469000Y-143945000D01*
X139453000Y-143907000D01*
X139439000Y-143867000D01*
X139427000Y-143827000D01*
X139417000Y-143786000D01*
X139410000Y-143745000D01*
X139404000Y-143704000D01*
X139401000Y-143662000D01*
X139400000Y-143620000D01*
X139401000Y-143578000D01*
X139404000Y-143536000D01*
X139410000Y-143495000D01*
X139417000Y-143454000D01*
X139427000Y-143413000D01*
X139439000Y-143373000D01*
X139453000Y-143333000D01*
X139469000Y-143295000D01*
X139487000Y-143257000D01*
X139507000Y-143220000D01*
X139529000Y-143184000D01*
X139553000Y-143150000D01*
X139578000Y-143117000D01*
X139605000Y-143085000D01*
X139634000Y-143054000D01*
X139665000Y-143025000D01*
X139697000Y-142998000D01*
X139730000Y-142973000D01*
X139764000Y-142949000D01*
X139800000Y-142927000D01*
X139837000Y-142907000D01*
X139875000Y-142889000D01*
X139913000Y-142873000D01*
X139953000Y-142859000D01*
X139993000Y-142847000D01*
X140034000Y-142837000D01*
X140075000Y-142830000D01*
X140116000Y-142824000D01*
X140158000Y-142821000D01*
X140200000Y-142820000D01*
X142600000Y-142820000D01*
X142600000Y-144420000D01*
G36*
X142600000Y-129180000D02*
G01*
X140200000Y-129180000D01*
X140158000Y-129179000D01*
X140116000Y-129176000D01*
X140075000Y-129170000D01*
X140034000Y-129163000D01*
X139993000Y-129153000D01*
X139953000Y-129141000D01*
X139913000Y-129127000D01*
X139875000Y-129111000D01*
X139837000Y-129093000D01*
X139800000Y-129073000D01*
X139764000Y-129051000D01*
X139730000Y-129027000D01*
X139697000Y-129002000D01*
X139665000Y-128975000D01*
X139634000Y-128946000D01*
X139605000Y-128915000D01*
X139578000Y-128883000D01*
X139553000Y-128850000D01*
X139529000Y-128816000D01*
X139507000Y-128780000D01*
X139487000Y-128743000D01*
X139469000Y-128705000D01*
X139453000Y-128667000D01*
X139439000Y-128627000D01*
X139427000Y-128587000D01*
X139417000Y-128546000D01*
X139410000Y-128505000D01*
X139404000Y-128464000D01*
X139401000Y-128422000D01*
X139400000Y-128380000D01*
X139401000Y-128338000D01*
X139404000Y-128296000D01*
X139410000Y-128255000D01*
X139417000Y-128214000D01*
X139427000Y-128173000D01*
X139439000Y-128133000D01*
X139453000Y-128093000D01*
X139469000Y-128055000D01*
X139487000Y-128017000D01*
X139507000Y-127980000D01*
X139529000Y-127944000D01*
X139553000Y-127910000D01*
X139578000Y-127877000D01*
X139605000Y-127845000D01*
X139634000Y-127814000D01*
X139665000Y-127785000D01*
X139697000Y-127758000D01*
X139730000Y-127733000D01*
X139764000Y-127709000D01*
X139800000Y-127687000D01*
X139837000Y-127667000D01*
X139875000Y-127649000D01*
X139913000Y-127633000D01*
X139953000Y-127619000D01*
X139993000Y-127607000D01*
X140034000Y-127597000D01*
X140075000Y-127590000D01*
X140116000Y-127584000D01*
X140158000Y-127581000D01*
X140200000Y-127580000D01*
X142600000Y-127580000D01*
X142600000Y-129180000D01*
G37*
X142600000Y-129180000D02*
X140200000Y-129180000D01*
X140158000Y-129179000D01*
X140116000Y-129176000D01*
X140075000Y-129170000D01*
X140034000Y-129163000D01*
X139993000Y-129153000D01*
X139953000Y-129141000D01*
X139913000Y-129127000D01*
X139875000Y-129111000D01*
X139837000Y-129093000D01*
X139800000Y-129073000D01*
X139764000Y-129051000D01*
X139730000Y-129027000D01*
X139697000Y-129002000D01*
X139665000Y-128975000D01*
X139634000Y-128946000D01*
X139605000Y-128915000D01*
X139578000Y-128883000D01*
X139553000Y-128850000D01*
X139529000Y-128816000D01*
X139507000Y-128780000D01*
X139487000Y-128743000D01*
X139469000Y-128705000D01*
X139453000Y-128667000D01*
X139439000Y-128627000D01*
X139427000Y-128587000D01*
X139417000Y-128546000D01*
X139410000Y-128505000D01*
X139404000Y-128464000D01*
X139401000Y-128422000D01*
X139400000Y-128380000D01*
X139401000Y-128338000D01*
X139404000Y-128296000D01*
X139410000Y-128255000D01*
X139417000Y-128214000D01*
X139427000Y-128173000D01*
X139439000Y-128133000D01*
X139453000Y-128093000D01*
X139469000Y-128055000D01*
X139487000Y-128017000D01*
X139507000Y-127980000D01*
X139529000Y-127944000D01*
X139553000Y-127910000D01*
X139578000Y-127877000D01*
X139605000Y-127845000D01*
X139634000Y-127814000D01*
X139665000Y-127785000D01*
X139697000Y-127758000D01*
X139730000Y-127733000D01*
X139764000Y-127709000D01*
X139800000Y-127687000D01*
X139837000Y-127667000D01*
X139875000Y-127649000D01*
X139913000Y-127633000D01*
X139953000Y-127619000D01*
X139993000Y-127607000D01*
X140034000Y-127597000D01*
X140075000Y-127590000D01*
X140116000Y-127584000D01*
X140158000Y-127581000D01*
X140200000Y-127580000D01*
X142600000Y-127580000D01*
X142600000Y-129180000D01*
G36*
X122462000Y-125041000D02*
G01*
X122504000Y-125044000D01*
X122545000Y-125050000D01*
X122586000Y-125057000D01*
X122627000Y-125067000D01*
X122667000Y-125079000D01*
X122707000Y-125093000D01*
X122745000Y-125109000D01*
X122783000Y-125127000D01*
X122820000Y-125147000D01*
X122856000Y-125169000D01*
X122890000Y-125193000D01*
X122923000Y-125218000D01*
X122955000Y-125245000D01*
X122986000Y-125274000D01*
X123015000Y-125305000D01*
X123042000Y-125337000D01*
X123067000Y-125370000D01*
X123091000Y-125404000D01*
X123113000Y-125440000D01*
X123133000Y-125477000D01*
X123151000Y-125515000D01*
X123167000Y-125553000D01*
X123181000Y-125593000D01*
X123193000Y-125633000D01*
X123203000Y-125674000D01*
X123210000Y-125715000D01*
X123216000Y-125756000D01*
X123219000Y-125798000D01*
X123220000Y-125840000D01*
X123219000Y-125882000D01*
X123216000Y-125924000D01*
X123210000Y-125965000D01*
X123203000Y-126006000D01*
X123193000Y-126047000D01*
X123181000Y-126087000D01*
X123167000Y-126127000D01*
X123151000Y-126165000D01*
X123133000Y-126203000D01*
X123113000Y-126240000D01*
X123091000Y-126276000D01*
X123067000Y-126310000D01*
X123042000Y-126343000D01*
X123015000Y-126375000D01*
X122986000Y-126406000D01*
X122955000Y-126435000D01*
X122923000Y-126462000D01*
X122890000Y-126487000D01*
X122856000Y-126511000D01*
X122820000Y-126533000D01*
X122783000Y-126553000D01*
X122745000Y-126571000D01*
X122707000Y-126587000D01*
X122667000Y-126601000D01*
X122627000Y-126613000D01*
X122586000Y-126623000D01*
X122545000Y-126630000D01*
X122504000Y-126636000D01*
X122462000Y-126639000D01*
X122420000Y-126640000D01*
X120020000Y-126640000D01*
X120020000Y-125040000D01*
X122420000Y-125040000D01*
X122462000Y-125041000D01*
G37*
X122462000Y-125041000D02*
X122504000Y-125044000D01*
X122545000Y-125050000D01*
X122586000Y-125057000D01*
X122627000Y-125067000D01*
X122667000Y-125079000D01*
X122707000Y-125093000D01*
X122745000Y-125109000D01*
X122783000Y-125127000D01*
X122820000Y-125147000D01*
X122856000Y-125169000D01*
X122890000Y-125193000D01*
X122923000Y-125218000D01*
X122955000Y-125245000D01*
X122986000Y-125274000D01*
X123015000Y-125305000D01*
X123042000Y-125337000D01*
X123067000Y-125370000D01*
X123091000Y-125404000D01*
X123113000Y-125440000D01*
X123133000Y-125477000D01*
X123151000Y-125515000D01*
X123167000Y-125553000D01*
X123181000Y-125593000D01*
X123193000Y-125633000D01*
X123203000Y-125674000D01*
X123210000Y-125715000D01*
X123216000Y-125756000D01*
X123219000Y-125798000D01*
X123220000Y-125840000D01*
X123219000Y-125882000D01*
X123216000Y-125924000D01*
X123210000Y-125965000D01*
X123203000Y-126006000D01*
X123193000Y-126047000D01*
X123181000Y-126087000D01*
X123167000Y-126127000D01*
X123151000Y-126165000D01*
X123133000Y-126203000D01*
X123113000Y-126240000D01*
X123091000Y-126276000D01*
X123067000Y-126310000D01*
X123042000Y-126343000D01*
X123015000Y-126375000D01*
X122986000Y-126406000D01*
X122955000Y-126435000D01*
X122923000Y-126462000D01*
X122890000Y-126487000D01*
X122856000Y-126511000D01*
X122820000Y-126533000D01*
X122783000Y-126553000D01*
X122745000Y-126571000D01*
X122707000Y-126587000D01*
X122667000Y-126601000D01*
X122627000Y-126613000D01*
X122586000Y-126623000D01*
X122545000Y-126630000D01*
X122504000Y-126636000D01*
X122462000Y-126639000D01*
X122420000Y-126640000D01*
X120020000Y-126640000D01*
X120020000Y-125040000D01*
X122420000Y-125040000D01*
X122462000Y-125041000D01*
G04 #@! TD*
D11*
G04 #@! TO.C,U1*
X128585000Y-151110000D03*
X134035000Y-151110000D03*
D12*
X128885000Y-148080000D03*
X133735000Y-148080000D03*
D13*
X131310000Y-148110000D03*
X132310000Y-151410000D03*
X130310000Y-151410000D03*
X128810000Y-144610000D03*
X128810000Y-142110000D03*
X128810000Y-139610000D03*
G04 #@! TD*
M02*
